<?xml version="1.0" encoding="UTF-8" standalone="no"?>
<!-- Created with Inkscape (http://www.inkscape.org/) -->

<svg
   width="35mm"
   height="35mm"
   viewBox="0 0 35 35"
   version="1.1"
   id="svg1"
   xml:space="preserve"
   inkscape:version="1.4 (e7c3feb100, 2024-10-09)"
   sodipodi:docname="b_alternate.svg"
   xmlns:inkscape="http://www.inkscape.org/namespaces/inkscape"
   xmlns:sodipodi="http://sodipodi.sourceforge.net/DTD/sodipodi-0.dtd"
   xmlns="http://www.w3.org/2000/svg"
   xmlns:svg="http://www.w3.org/2000/svg"><sodipodi:namedview
     id="namedview1"
     pagecolor="#ffffff"
     bordercolor="#000000"
     borderopacity="0.25"
     inkscape:showpageshadow="2"
     inkscape:pageopacity="0.0"
     inkscape:pagecheckerboard="0"
     inkscape:deskcolor="#d1d1d1"
     inkscape:document-units="mm"
     inkscape:zoom="6.07664"
     inkscape:cx="97.833671"
     inkscape:cy="79.978409"
     inkscape:window-width="1916"
     inkscape:window-height="1023"
     inkscape:window-x="0"
     inkscape:window-y="0"
     inkscape:window-maximized="0"
     inkscape:current-layer="layer1" /><defs
     id="defs1"><inkscape:path-effect
       effect="mirror_symmetry"
       start_point="17.297909,16.234992"
       end_point="17.313303,7.810326"
       center_point="17.305606,12.022659"
       id="path-effect5"
       is_visible="true"
       lpeversion="1.2"
       lpesatellites=""
       mode="free"
       discard_orig_path="false"
       fuse_paths="true"
       oposite_fuse="false"
       split_items="false"
       split_open="false"
       link_styles="false" /><inkscape:path-effect
       effect="mirror_symmetry"
       start_point="17.297909,16.234992"
       end_point="17.313303,7.810326"
       center_point="17.305606,12.022659"
       id="path-effect5-7"
       is_visible="true"
       lpeversion="1.2"
       lpesatellites=""
       mode="free"
       discard_orig_path="false"
       fuse_paths="true"
       oposite_fuse="false"
       split_items="false"
       split_open="false"
       link_styles="false" /><inkscape:path-effect
       effect="mirror_symmetry"
       start_point="17.297909,16.234992"
       end_point="17.313303,7.810326"
       center_point="17.305606,12.022659"
       id="path-effect5-6"
       is_visible="true"
       lpeversion="1.2"
       lpesatellites=""
       mode="free"
       discard_orig_path="false"
       fuse_paths="true"
       oposite_fuse="false"
       split_items="false"
       split_open="false"
       link_styles="false" /><inkscape:path-effect
       effect="mirror_symmetry"
       start_point="17.297909,16.234992"
       end_point="17.313303,7.810326"
       center_point="17.305606,12.022659"
       id="path-effect5-3"
       is_visible="true"
       lpeversion="1.2"
       lpesatellites=""
       mode="free"
       discard_orig_path="false"
       fuse_paths="true"
       oposite_fuse="false"
       split_items="false"
       split_open="false"
       link_styles="false" /><inkscape:path-effect
       effect="mirror_symmetry"
       start_point="17.297909,16.234992"
       end_point="17.313303,7.810326"
       center_point="17.305606,12.022659"
       id="path-effect5-66"
       is_visible="true"
       lpeversion="1.2"
       lpesatellites=""
       mode="free"
       discard_orig_path="false"
       fuse_paths="true"
       oposite_fuse="false"
       split_items="false"
       split_open="false"
       link_styles="false" /><inkscape:path-effect
       effect="mirror_symmetry"
       start_point="17.297909,16.234992"
       end_point="17.313303,7.810326"
       center_point="17.305606,12.022659"
       id="path-effect5-4"
       is_visible="true"
       lpeversion="1.2"
       lpesatellites=""
       mode="free"
       discard_orig_path="false"
       fuse_paths="true"
       oposite_fuse="false"
       split_items="false"
       split_open="false"
       link_styles="false" /><inkscape:path-effect
       effect="mirror_symmetry"
       start_point="17.297909,16.234992"
       end_point="17.313303,7.810326"
       center_point="17.305606,12.022659"
       id="path-effect5-4-7"
       is_visible="true"
       lpeversion="1.2"
       lpesatellites=""
       mode="free"
       discard_orig_path="false"
       fuse_paths="true"
       oposite_fuse="false"
       split_items="false"
       split_open="false"
       link_styles="false" /><inkscape:path-effect
       effect="mirror_symmetry"
       start_point="17.297909,16.234992"
       end_point="17.313303,7.810326"
       center_point="17.305606,12.022659"
       id="path-effect5-41"
       is_visible="true"
       lpeversion="1.2"
       lpesatellites=""
       mode="free"
       discard_orig_path="false"
       fuse_paths="true"
       oposite_fuse="false"
       split_items="false"
       split_open="false"
       link_styles="false" /></defs><g
     inkscape:label="Layer 1"
     inkscape:groupmode="layer"
     id="layer1"><path
       style="fill:#999999;fill-opacity:1;stroke:none;stroke-width:0.264999;stroke-dasharray:none;stroke-opacity:1"
       d="m 29.290513,16.178174 c 0.004,-0.262338 -0.0824,-0.518182 -0.261718,-0.507811 -1.252407,0.07244 -3.577077,0.08092 -4.482421,0.509764 -0.679074,-0.437863 0.168884,-1.450729 -0.675332,-1.972083 -0.732168,-0.452157 -1.86407,0.762989 -2.126082,1.261782 -0.130928,0.249249 0.516212,0.82017 0.69728,0.604561 0.420141,-0.500289 0.375581,-0.380387 0.72391,-0.772257 0.230808,0.459065 -0.137344,1.588685 0.08139,2.116279 -0.0052,0.588367 -1.029944,1.352111 -1.509386,1.941943 -0.566034,-0.08708 -1.575351,-0.132943 -2.213589,-0.180364 -0.280451,0.0249 -0.32433,0.662518 -0.06789,0.778724 1.110186,0.503088 2.261245,0.618219 2.705367,0.378722 0.449591,-0.242446 1.697792,-1.241453 2.378464,-1.676831 0.903771,0.432152 3.230287,0.450328 4.482421,0.527344 0.358555,0.02205 0.345807,-1.02167 -0.01172,-1.056641 -1.029811,-0.100734 -2.743698,-0.213416 -2.90625,-0.427734 -0.09185,-0.121107 -0.116149,-0.211094 -0.105468,-0.279297 -0.01043,-0.06824 0.01512,-0.16048 0.107421,-0.28125 0.163344,-0.213724 1.876089,-0.320999 2.906261,-0.417969 0.178825,-0.01683 0.273372,-0.284536 0.277344,-0.546875 z"
       id="path4-4-5"
       sodipodi:nodetypes="ssscssccccsscscscssss" /><path
       style="fill:#999999;fill-opacity:1;stroke:none;stroke-width:0.1"
       d="m 17.780632,22.054603 c 0,0 -0.37801,-3.068579 0.718429,-3.047875 0.900156,0.017 0.435412,3.004335 0.435412,3.004335 z"
       id="path2"
       sodipodi:nodetypes="cscc" /><path
       id="path1-7-1-2-6"
       style="fill:#ffffff;stroke:#000000;stroke-width:0.265;stroke-dasharray:none"
       d="m 29.460073,16.821905 c -0.207214,0 -0.738307,-0.227855 -0.738307,-0.588877 0,-0.361022 0.541773,-0.627766 0.748987,-0.627766 0.207215,0 0.385877,-0.07027 0.364517,0.627766 -0.02136,0.69804 -0.167981,0.588877 -0.375197,0.588877 z"
       sodipodi:nodetypes="ssszs" /><path
       id="path1-7-1-9-0-2"
       style="fill:#ffffff;stroke:#000000;stroke-width:0.265;stroke-dasharray:none"
       d="m 29.438303,19.303003 c -0.207214,0 -0.738307,-0.227856 -0.738307,-0.588877 0,-0.361023 0.541773,-0.627767 0.748987,-0.627767 0.207214,0 0.385876,-0.07027 0.364516,0.627767 -0.02136,0.698039 -0.167981,0.588877 -0.375196,0.588877 z"
       sodipodi:nodetypes="ssszs" /><ellipse
       style="fill:#ffffff;fill-opacity:1;stroke:#000000;stroke-width:0.265;stroke-dasharray:none;stroke-opacity:1"
       id="path1-7-2-9-9-1-6-1"
       cx="27.106089"
       cy="1.497189"
       rx="0.65429264"
       ry="0.80279088"
       transform="rotate(32.77357)" /><path
       id="path1-9-9"
       style="fill:#ff6666;fill-opacity:1;stroke:#000000;stroke-width:0.265"
       d="m 23.837282,19.141085 c -0.918208,0 -2.054432,-0.744355 -2.054432,-1.662563 0,-0.918208 1.136225,-1.66256 2.054432,-1.66256 0.918206,0 1.66256,0.744354 1.66256,1.66256 0,0.918207 -0.744353,1.662562 -1.66256,1.662563 z"
       sodipodi:nodetypes="zzzzz" /><path
       id="path1-7-1-1"
       style="fill:#ffffff;stroke:#000000;stroke-width:0.265;stroke-dasharray:none"
       d="m 19.127395,19.110199 c -0.02173,0.20607 -0.304016,0.710344 -0.663049,0.672487 -0.359033,-0.03786 -0.567495,-0.604614 -0.545766,-0.810685 0.02173,-0.206071 -0.02942,-0.391116 0.662527,-0.296679 0.691952,0.09444 0.568016,0.228804 0.546288,0.434877 z"
       sodipodi:nodetypes="ssszs" /><ellipse
       style="fill:#ffffff;fill-opacity:1;stroke:#000000;stroke-width:0.265;stroke-dasharray:none;stroke-opacity:1"
       id="path1-7-2-9-9-8-7"
       cx="19.646561"
       cy="-19.102282"
       rx="0.65429264"
       ry="0.80279088"
       transform="rotate(90)" /><path
       style="fill:#999999;fill-opacity:1;stroke:none;stroke-width:0.264999;stroke-dasharray:none;stroke-opacity:1"
       d="m 20.882287,21.10342 c 0.452157,-0.732168 0.02075,-1.907611 -0.216797,-3.083985 -0.05573,-0.275974 -0.796346,-0.47567 -0.822266,-0.195312 -0.10928,1.18211 -0.09766,2.857422 -0.09766,2.857422 -0.222874,0.13243 -1.532237,1.320735 -2.015809,1.549952 -0.927356,-0.269495 -1.323157,-1.022833 -2.21271,-1.555812 0,0 0.01512,-1.676873 -0.08984,-2.859375 -0.0249,-0.280451 -0.76553,-0.08241 -0.822266,0.19336 -0.241841,1.175498 -0.677994,2.348215 -0.228515,3.082031 0.518265,0.846117 1.574386,1.372065 2.009765,2.052734 -0.432152,0.903772 -0.450328,3.230289 -0.527344,4.482423 -0.02205,0.358554 1.02167,0.345807 1.056641,-0.01172 0.08962,-1.354223 0.329652,-2.675515 0.583878,-3.981547 0.42965,0.483871 2.661442,-1.96305 3.382919,-2.530172 z"
       id="path4-6"
       sodipodi:nodetypes="cssscccsscccccc" /><path
       style="fill:#999999;fill-opacity:1;stroke:none;stroke-width:0.264999;stroke-dasharray:none;stroke-opacity:1"
       d="m 5.9511415,18.726929 c -0.004,0.26234 0.0824,0.518183 0.261718,0.507812 1.252407,-0.07244 3.577077,-0.08092 4.4824205,-0.509765 0.679074,0.437865 -0.168884,1.45073 0.675332,1.972084 0.732168,0.452157 1.86407,-0.762988 2.126082,-1.261781 0.130928,-0.24925 -0.516212,-0.82017 -0.69728,-0.604561 -0.420141,0.500288 -0.375581,0.380387 -0.72391,0.772257 -0.230808,-0.459066 0.137344,-1.588685 -0.08139,-2.116279 0.0052,-0.588368 1.029944,-1.352111 1.509386,-1.941944 0.566034,0.08708 1.575351,0.132944 2.213589,0.180364 0.280451,-0.0249 0.32433,-0.662518 0.06789,-0.778724 -1.110186,-0.503087 -2.261245,-0.618218 -2.705367,-0.378721 -0.449591,0.242445 -1.697792,1.241452 -2.378464,1.676831 -0.9037705,-0.432152 -3.2302865,-0.450328 -4.4824205,-0.527344 -0.358555,-0.02205 -0.345807,1.02167 0.01172,1.056641 1.029811,0.100734 2.743698,0.213416 2.90625,0.427734 0.09185,0.121107 0.116149,0.211094 0.105468,0.279297 0.01043,0.06824 -0.01512,0.16048 -0.107421,0.28125 -0.163344,0.213723 -1.876089,0.320999 -2.906261,0.417969 -0.178825,0.01683 -0.273372,0.284536 -0.277344,0.546875 z"
       id="path4-4-5-5"
       sodipodi:nodetypes="ssscssccccsscscscssss" /><path
       id="path1-3"
       style="fill:#66ff66;fill-opacity:1;stroke:#000000;stroke-width:0.265"
       d="m 15.968332,22.441205 c 0,-0.918208 0.744354,-2.054433 1.662562,-2.054433 0.918208,0 1.662561,1.136226 1.662561,2.054433 0,0.918206 -0.744355,1.662561 -1.662561,1.662561 -0.918207,0 -1.662562,-0.744354 -1.662562,-1.662561 z"
       sodipodi:nodetypes="zzzzz" /><path
       style="fill:#999999;fill-opacity:1;stroke:none;stroke-width:0.1"
       d="m 17.461022,12.850501 c 0,0 0.37801,3.068579 -0.718429,3.047875 -0.900156,-0.017 -0.435412,-3.004334 -0.435412,-3.004334 z"
       id="path2-3"
       sodipodi:nodetypes="cscc" /><path
       id="path1-7-1-1-1"
       style="fill:#ffffff;stroke:#000000;stroke-width:0.265;stroke-dasharray:none"
       d="m 16.114259,15.794906 c 0.02173,-0.206071 0.304016,-0.710344 0.663049,-0.672488 0.359033,0.03786 0.567495,0.604614 0.545766,0.810685 -0.02173,0.206071 0.02942,0.391115 -0.662527,0.296679 -0.691952,-0.09444 -0.568016,-0.228804 -0.546288,-0.434876 z"
       sodipodi:nodetypes="ssszs" /><ellipse
       style="fill:#ffffff;fill-opacity:1;stroke:#000000;stroke-width:0.265;stroke-dasharray:none;stroke-opacity:1"
       id="path1-7-2-9-9-8-7-2"
       cx="-15.258541"
       cy="16.139374"
       rx="0.65429264"
       ry="0.80279088"
       transform="rotate(-90)" /><path
       style="fill:#999999;fill-opacity:1;stroke:none;stroke-width:0.264999;stroke-dasharray:none;stroke-opacity:1"
       d="m 14.359367,13.801683 c -0.452157,0.732168 -0.02075,1.907611 0.216797,3.083985 0.05573,0.275974 0.796346,0.47567 0.822266,0.195312 0.10928,-1.18211 0.09766,-2.857422 0.09766,-2.857422 0.222874,-0.13243 1.532237,-1.320735 2.015809,-1.549952 0.927356,0.269495 1.323157,1.022833 2.21271,1.555812 0,0 -0.01512,1.676873 0.08984,2.859375 0.0249,0.280451 0.76553,0.08241 0.822266,-0.19336 0.241841,-1.175498 0.677994,-2.348215 0.228515,-3.082031 -0.518265,-0.846116 -1.574386,-1.372065 -2.009765,-2.052734 0.432152,-0.903772 0.450328,-3.2302885 0.527344,-4.4824225 0.02205,-0.358555 -1.02167,-0.345807 -1.056641,0.01172 -0.08962,1.354222 -0.329652,2.675514 -0.583878,3.9815465 -0.42965,-0.483871 -2.661442,1.96305 -3.382919,2.530172 z"
       id="path4-6-7"
       sodipodi:nodetypes="cssscccsscccccc" /><ellipse
       style="fill:#ffffff;fill-opacity:1;stroke:#000000;stroke-width:0.265;stroke-dasharray:none;stroke-opacity:1"
       id="path1-7-2-9-9"
       cx="20.174829"
       cy="17.479679"
       rx="0.65429264"
       ry="0.80279088" /><ellipse
       style="fill:#ffffff;fill-opacity:1;stroke:#000000;stroke-width:0.265;stroke-dasharray:none;stroke-opacity:1"
       id="path1-7-2-9-9-1"
       cx="15.070635"
       cy="17.479679"
       rx="0.65429264"
       ry="0.80279088" /><path
       id="path1-7-1-9-7"
       style="fill:#ffffff;stroke:#000000;stroke-width:0.265;stroke-dasharray:none"
       d="m 15.783991,28.020456 c 0,-0.207214 0.227855,-0.738307 0.588877,-0.738307 0.361023,0 0.627766,0.541773 0.627766,0.748987 0,0.207213 0.07027,0.385875 -0.627766,0.364515 -0.69804,-0.02136 -0.588877,-0.167981 -0.588877,-0.375195 z"
       sodipodi:nodetypes="ssszs" /><path
       id="path1-7-1-2-6-5"
       style="fill:#ffffff;stroke:#000000;stroke-width:0.265;stroke-dasharray:none"
       d="m 5.7815815,18.083199 c 0.207214,0 0.738307,0.227855 0.738307,0.588877 0,0.361022 -0.541773,0.627765 -0.748987,0.627765 -0.207215,0 -0.385877,0.07027 -0.364517,-0.627765 0.02136,-0.69804 0.167981,-0.588877 0.375197,-0.588877 z"
       sodipodi:nodetypes="ssszs" /><path
       id="path1-7-1-9-0-2-6"
       style="fill:#ffffff;stroke:#000000;stroke-width:0.265;stroke-dasharray:none"
       d="m 5.8033515,15.602102 c 0.207214,0 0.738307,0.227855 0.738307,0.588876 0,0.361023 -0.541773,0.627766 -0.748987,0.627766 -0.207214,0 -0.385876,0.07027 -0.364516,-0.627766 0.02136,-0.698039 0.167981,-0.588876 0.375196,-0.588876 z"
       sodipodi:nodetypes="ssszs" /><ellipse
       style="fill:#ffffff;fill-opacity:1;stroke:#000000;stroke-width:0.265;stroke-dasharray:none;stroke-opacity:1"
       id="path1-7-2-9-9-1-6-1-2"
       cx="-21.420515"
       cy="-8.7745695"
       rx="0.65429264"
       ry="0.80279088"
       transform="rotate(-147.22643)" /><path
       id="path1-9-9-9"
       style="fill:#6666ff;fill-opacity:1;stroke:#000000;stroke-width:0.265"
       d="m 11.404372,15.76402 c 0.918208,0 2.054432,0.744353 2.054432,1.662561 0,0.918208 -1.136225,1.662561 -2.054432,1.662561 -0.918206,0 -1.6625595,-0.744354 -1.6625595,-1.662561 0,-0.918206 0.7443525,-1.662561 1.6625595,-1.662561 z"
       sodipodi:nodetypes="zzzzz" /><path
       id="path1-3-0"
       style="fill:#4d4d4d;fill-opacity:1;stroke:#000000;stroke-width:0.265"
       d="m 19.273322,12.4639 c 0,0.918208 -0.744354,2.054431 -1.662562,2.054431 -0.918208,0 -1.662561,-1.136225 -1.662561,-2.054431 0,-0.918207 0.744355,-1.662561 1.662561,-1.662561 0.918207,0 1.662562,0.744353 1.662562,1.662561 z"
       sodipodi:nodetypes="zzzzz" /><path
       id="path1-7-1-9-7-6"
       style="fill:#ffffff;stroke:#000000;stroke-width:0.265;stroke-dasharray:none"
       d="m 19.457663,6.8846485 c 0,0.207214 -0.227855,0.738307 -0.588877,0.738307 -0.361023,0 -0.627766,-0.541773 -0.627766,-0.748987 0,-0.207213 -0.07027,-0.385875 0.627766,-0.364515 0.69804,0.02136 0.588877,0.167981 0.588877,0.375195 z"
       sodipodi:nodetypes="ssszs" /></g></svg>
