<?xml version="1.0" encoding="UTF-8" standalone="no"?>
<!-- Created with Inkscape (http://www.inkscape.org/) -->

<svg
   width="35mm"
   height="35mm"
   viewBox="0 0 35 35"
   version="1.1"
   id="svg1"
   xml:space="preserve"
   inkscape:version="1.4 (e7c3feb100, 2024-10-09)"
   sodipodi:docname="c_alternateV1.svg"
   xmlns:inkscape="http://www.inkscape.org/namespaces/inkscape"
   xmlns:sodipodi="http://sodipodi.sourceforge.net/DTD/sodipodi-0.dtd"
   xmlns="http://www.w3.org/2000/svg"
   xmlns:svg="http://www.w3.org/2000/svg"><sodipodi:namedview
     id="namedview1"
     pagecolor="#ffffff"
     bordercolor="#000000"
     borderopacity="0.25"
     inkscape:showpageshadow="2"
     inkscape:pageopacity="0.0"
     inkscape:pagecheckerboard="0"
     inkscape:deskcolor="#d1d1d1"
     inkscape:document-units="mm"
     inkscape:zoom="6.07664"
     inkscape:cx="39.906922"
     inkscape:cy="55.951973"
     inkscape:window-width="1916"
     inkscape:window-height="1023"
     inkscape:window-x="0"
     inkscape:window-y="0"
     inkscape:window-maximized="0"
     inkscape:current-layer="g3" /><defs
     id="defs1"><inkscape:path-effect
       effect="mirror_symmetry"
       start_point="17.297909,16.234992"
       end_point="17.313303,7.810326"
       center_point="17.305606,12.022659"
       id="path-effect5"
       is_visible="true"
       lpeversion="1.2"
       lpesatellites=""
       mode="free"
       discard_orig_path="false"
       fuse_paths="true"
       oposite_fuse="false"
       split_items="false"
       split_open="false"
       link_styles="false" /><inkscape:path-effect
       effect="mirror_symmetry"
       start_point="17.297909,16.234992"
       end_point="17.313303,7.810326"
       center_point="17.305606,12.022659"
       id="path-effect5-7"
       is_visible="true"
       lpeversion="1.2"
       lpesatellites=""
       mode="free"
       discard_orig_path="false"
       fuse_paths="true"
       oposite_fuse="false"
       split_items="false"
       split_open="false"
       link_styles="false" /><inkscape:path-effect
       effect="mirror_symmetry"
       start_point="17.297909,16.234992"
       end_point="17.313303,7.810326"
       center_point="17.305606,12.022659"
       id="path-effect5-6"
       is_visible="true"
       lpeversion="1.2"
       lpesatellites=""
       mode="free"
       discard_orig_path="false"
       fuse_paths="true"
       oposite_fuse="false"
       split_items="false"
       split_open="false"
       link_styles="false" /><inkscape:path-effect
       effect="mirror_symmetry"
       start_point="17.297909,16.234992"
       end_point="17.313303,7.810326"
       center_point="17.305606,12.022659"
       id="path-effect5-3"
       is_visible="true"
       lpeversion="1.2"
       lpesatellites=""
       mode="free"
       discard_orig_path="false"
       fuse_paths="true"
       oposite_fuse="false"
       split_items="false"
       split_open="false"
       link_styles="false" /><inkscape:path-effect
       effect="mirror_symmetry"
       start_point="17.297909,16.234992"
       end_point="17.313303,7.810326"
       center_point="17.305606,12.022659"
       id="path-effect5-66"
       is_visible="true"
       lpeversion="1.2"
       lpesatellites=""
       mode="free"
       discard_orig_path="false"
       fuse_paths="true"
       oposite_fuse="false"
       split_items="false"
       split_open="false"
       link_styles="false" /><inkscape:path-effect
       effect="mirror_symmetry"
       start_point="17.297909,16.234992"
       end_point="17.313303,7.810326"
       center_point="17.305606,12.022659"
       id="path-effect5-4"
       is_visible="true"
       lpeversion="1.2"
       lpesatellites=""
       mode="free"
       discard_orig_path="false"
       fuse_paths="true"
       oposite_fuse="false"
       split_items="false"
       split_open="false"
       link_styles="false" /><inkscape:path-effect
       effect="mirror_symmetry"
       start_point="17.297909,16.234992"
       end_point="17.313303,7.810326"
       center_point="17.305606,12.022659"
       id="path-effect5-4-7"
       is_visible="true"
       lpeversion="1.2"
       lpesatellites=""
       mode="free"
       discard_orig_path="false"
       fuse_paths="true"
       oposite_fuse="false"
       split_items="false"
       split_open="false"
       link_styles="false" /><inkscape:path-effect
       effect="mirror_symmetry"
       start_point="17.297909,16.234992"
       end_point="17.313303,7.810326"
       center_point="17.305606,12.022659"
       id="path-effect5-41"
       is_visible="true"
       lpeversion="1.2"
       lpesatellites=""
       mode="free"
       discard_orig_path="false"
       fuse_paths="true"
       oposite_fuse="false"
       split_items="false"
       split_open="false"
       link_styles="false" /><inkscape:path-effect
       effect="mirror_symmetry"
       start_point="17.297909,16.234992"
       end_point="17.313303,7.810326"
       center_point="17.305606,12.022659"
       id="path-effect5-4-0"
       is_visible="true"
       lpeversion="1.2"
       lpesatellites=""
       mode="free"
       discard_orig_path="false"
       fuse_paths="true"
       oposite_fuse="false"
       split_items="false"
       split_open="false"
       link_styles="false" /><inkscape:path-effect
       effect="mirror_symmetry"
       start_point="17.493844,16.300304"
       end_point="17.509238,7.875638"
       center_point="17.501541,12.087971"
       id="path-effect5-4-0-9"
       is_visible="true"
       lpeversion="1.2"
       lpesatellites=""
       mode="free"
       discard_orig_path="false"
       fuse_paths="true"
       oposite_fuse="false"
       split_items="false"
       split_open="false"
       link_styles="false" /><inkscape:path-effect
       effect="mirror_symmetry"
       start_point="17.297909,16.234992"
       end_point="17.313303,7.810326"
       center_point="17.305606,12.022659"
       id="path-effect5-4-0-0"
       is_visible="true"
       lpeversion="1.2"
       lpesatellites=""
       mode="free"
       discard_orig_path="false"
       fuse_paths="true"
       oposite_fuse="false"
       split_items="false"
       split_open="false"
       link_styles="false" /><inkscape:path-effect
       effect="mirror_symmetry"
       start_point="17.493844,16.300304"
       end_point="17.509238,7.875638"
       center_point="17.501541,12.087971"
       id="path-effect5-4-0-9-7"
       is_visible="true"
       lpeversion="1.2"
       lpesatellites=""
       mode="free"
       discard_orig_path="false"
       fuse_paths="true"
       oposite_fuse="false"
       split_items="false"
       split_open="false"
       link_styles="false" /></defs><g
     inkscape:label="Layer 1"
     inkscape:groupmode="layer"
     id="layer1"><g
       id="g3"><path
         style="fill:#999999;fill-opacity:1;stroke:none;stroke-width:0.264999;stroke-dasharray:none;stroke-opacity:1"
         d="m 16.0625,7.5585937 c -0.262338,-0.00397 -0.518182,0.082402 -0.507812,0.2617188 0.07244,1.2524069 0.08092,3.5770765 0.509765,4.4824215 -0.437864,0.679074 -1.680253,2.142584 -1.689453,3.134766 -0.0059,0.634201 0.588864,1.689844 0.957031,2.419922 0.126771,0.251389 1.024113,0.01157 0.919922,-0.25 l -0.890625,-2.238281 c 0.496247,-0.990107 1.377754,-1.523559 1.941406,-1.777344 0.562722,0.255844 1.442922,0.793243 1.935547,1.785156 l -0.90039,2.234375 c -0.105147,0.261185 0.792233,0.50483 0.919921,0.253906 0.370833,-0.728727 0.968388,-1.78375 0.964844,-2.417968 -0.0056,-0.992209 -1.242355,-2.458003 -1.677734,-3.138672 0.432152,-0.903772 0.450328,-3.2302883 0.527344,-4.4824221 0.02205,-0.3585544 -1.02167,-0.3458071 -1.056641,0.011719 -0.100734,1.0298107 -0.213416,2.7436984 -0.427734,2.9062504 -0.121107,0.09185 -0.211094,0.116149 -0.279297,0.105468 -0.06824,0.01043 -0.16048,-0.01512 -0.28125,-0.107421 C 16.813621,10.578854 16.706345,8.8661094 16.609375,7.8359375 16.592543,7.6571119 16.324839,7.5625647 16.0625,7.5585937 Z"
         id="path4-6-3"
         sodipodi:nodetypes="ssscssscccs"
         transform="rotate(-90,17.083116,17.519874)"
         inkscape:original-d="m 16.251945,17.607024 c 0.104191,0.261567 -0.792817,0.501751 -0.919588,0.250362 -0.368167,-0.730078 -0.962858,-1.785711 -0.956997,-2.419912 0.0092,-0.992182 1.251375,-2.454787 1.689239,-3.133861 -0.428846,-0.905345 -0.437758,-3.2310091 -0.510197,-4.483416 -0.02074,-0.3586326 1.022152,-0.3422582 1.055816,0.015393 0.09697,1.0301719 0.203913,2.743905 0.417636,2.907239 0.427544,0.326742 0.480507,-0.179347 0.480507,-0.179347 l 0.318037,2.834014 c 0,0 -1.696623,0.437093 -2.465819,1.971784 z"
         inkscape:path-effect="#path-effect5-4-0" /><path
         id="path1-3"
         style="fill:#6666ff;fill-opacity:1;stroke:#000000;stroke-width:0.265"
         d="m 12.625503,15.772507 c 0.918208,0 2.054433,0.744354 2.054433,1.662562 0,0.918208 -1.136226,1.662561 -2.054433,1.662561 -0.918206,0 -1.662561,-0.744355 -1.662561,-1.662561 0,-0.918207 0.744354,-1.662562 1.662561,-1.662562 z"
         sodipodi:nodetypes="zzzzz" /><path
         id="path1-7-1-9-7"
         style="fill:#ffffff;stroke:#000000;stroke-width:0.265;stroke-dasharray:none"
         d="m 7.064431,15.446583 c 0.207214,0 0.738307,0.227855 0.738307,0.588877 0,0.361023 -0.541773,0.627766 -0.748987,0.627766 -0.207213,0 -0.385875,0.07027 -0.364515,-0.627766 0.02136,-0.69804 0.167981,-0.588877 0.375195,-0.588877 z"
         sodipodi:nodetypes="ssszs" /><path
         id="path1-7-1-9-7-5"
         style="fill:#ffffff;stroke:#000000;stroke-width:0.265;stroke-dasharray:none"
         d="m 7.064431,17.94906 c 0.207214,0 0.738307,0.227855 0.738307,0.588877 0,0.361023 -0.541773,0.627766 -0.748987,0.627766 -0.207213,0 -0.385875,0.07027 -0.364515,-0.627766 0.02136,-0.69804 0.167981,-0.588877 0.375195,-0.588877 z"
         sodipodi:nodetypes="ssszs" /><path
         id="path1-3-0"
         style="fill:#ff6666;fill-opacity:1;stroke:#000000;stroke-width:0.265"
         d="m 22.602808,18.966736 c -0.918208,0 -2.054431,-0.744354 -2.054431,-1.662562 0,-0.918208 1.136225,-1.662561 2.054431,-1.662561 0.918207,0 1.662561,0.744355 1.662561,1.662561 0,0.918207 -0.744353,1.662562 -1.662561,1.662562 z"
         sodipodi:nodetypes="zzzzz" /><path
         style="fill:#999999;fill-opacity:1;stroke:none;stroke-width:0.264999;stroke-dasharray:none;stroke-opacity:1"
         d="m 16.191406,8.9042969 c -0.292488,-0.00827 -0.617135,0.09905 -0.605468,0.3007812 0.07244,1.2524069 0.537786,3.3296079 0.304687,4.2734379 -0.675632,-0.0097 -0.85684,0.09528 -1.308594,-0.03125 -0.320578,-0.512142 -0.750353,-1.125147 -1.101562,-0.853516 -0.354247,0.273981 0.360811,1.605869 0.742187,1.693359 1.222516,0.280464 2.603838,0.305684 3.273438,0.298829 0.66957,0.0093 2.051858,-0.01112 3.27539,-0.28711 0.381694,-0.0861 1.103244,-1.416132 0.75,-1.691406 -0.350214,-0.272913 -0.783021,0.340595 -1.105468,0.851562 -0.452214,0.124883 -0.632931,0.01812 -1.308594,0.02539 -0.229648,-0.944676 0.243297,-3.01935 0.320312,-4.2714844 0.02205,-0.3585544 -1.019715,-0.4239314 -1.054687,-0.066406 -0.05036,0.5149057 -0.184378,0.6272927 -0.117188,1.1562496 -0.217322,0.452837 -0.511517,1.061298 -0.58789,1.654297 -0.05913,0.02209 -0.114606,0.02958 -0.166016,0.0293 -0.05141,9.3e-5 -0.106965,-0.0089 -0.166016,-0.03125 -0.07421,-0.593274 -0.366365,-1.200669 -0.582031,-1.654297 0.06912,-0.5287079 -0.0648,-0.6411634 -0.113281,-1.1562497 -0.01473,-0.1564722 -0.221728,-0.2338059 -0.449219,-0.2402344 z"
         id="path4-6-3-2"
         sodipodi:nodetypes="sccscccccsss"
         transform="matrix(0,1,1,0,9.071022,-0.196266)"
         inkscape:original-d="m 13.479563,12.593692 c 0.351209,-0.271631 0.781718,0.342379 1.102296,0.854521 0.451754,0.126534 0.632944,0.02127 1.308576,0.03101 0.233099,-0.94383 -0.232806,-3.02115 -0.305245,-4.273557 -0.02074,-0.3586326 1.022151,-0.4192286 1.055816,-0.061578 0.04848,0.5150863 0.182149,0.6270618 0.113026,1.15577 0.215666,0.453628 0.5075,1.06247 0.581706,1.655744 0.335179,0.12662 0.556797,-0.171236 0.556797,-0.171236 l 0.01129,2.792474 c 0,0 -1.992691,0.09749 -3.681046,-0.289844 -0.381376,-0.08749 -1.097459,-1.419322 -0.743212,-1.693303 z"
         inkscape:path-effect="#path-effect5-4-0-9" /><path
         id="path1-7-1-1-4"
         style="fill:#ffffff;stroke:#000000;stroke-width:0.265;stroke-dasharray:none"
         d="m 16.496797,15.949487 c -0.04836,0.682667 1.102807,0.503895 1.310009,0.501699 0.207202,-0.0022 1.167629,0.395949 1.16196,-0.463464 -0.0069,-1.042508 -2.428412,-0.653086 -2.471969,-0.03823 z"
         sodipodi:nodetypes="sszs" /><path
         style="fill:#999999;fill-opacity:1;stroke:none;stroke-width:0.264999;stroke-dasharray:none;stroke-opacity:1"
         d="m 16.339779,5.743089 c -0.26234,-0.004 -0.518183,0.0824 -0.507812,0.261718 0.07244,1.252407 0.08092,3.577077 0.509765,4.482421 -0.437865,0.679074 -1.45073,-0.168884 -1.972084,0.675332 -0.452157,0.732168 0.762988,1.86407 1.261781,2.126082 0.24925,0.130928 0.82017,-0.516212 0.604561,-0.69728 -0.500288,-0.420141 -0.380387,-0.375581 -0.772257,-0.72391 0.459066,-0.230808 1.588685,0.137344 2.116279,-0.08139 0.588368,0.0052 0.971127,1.204108 1.299713,1.879485 -0.272129,0.41364 -0.688092,0.93312 -1.072955,1.63667 0.0249,0.280451 0.405029,0.734583 0.604559,0.535956 0.546629,-0.544152 1.51081,-1.749637 1.489018,-2.302612 -0.02011,-0.510399 -0.642762,-2.361793 -1.078141,-3.042465 0.432152,-0.903771 0.450328,-3.230287 0.527344,-4.482421 0.02205,-0.358555 -1.02167,-0.345807 -1.056641,0.01172 -0.100734,1.029811 -0.213416,2.743698 -0.427734,2.90625 -0.121107,0.09185 -0.211094,0.116149 -0.279297,0.105468 -0.06824,0.01043 -0.16048,-0.01512 -0.28125,-0.107421 C 17.090905,8.763348 16.983629,7.050603 16.886659,6.020431 16.869829,5.841606 16.602123,5.747059 16.339784,5.743087 Z"
         id="path4-4-5-5"
         sodipodi:nodetypes="ssscssccccsscscscssss" /><path
         id="path1-7-1-2-6-5"
         style="fill:#ffffff;stroke:#000000;stroke-width:0.265;stroke-dasharray:none"
         d="m 16.983509,5.573529 c 0,0.207214 -0.227855,0.738307 -0.588877,0.738307 -0.361022,0 -0.627765,-0.541773 -0.627765,-0.748987 0,-0.207215 -0.07027,-0.385877 0.627765,-0.364517 0.69804,0.02136 0.588877,0.167981 0.588877,0.375197 z"
         sodipodi:nodetypes="ssszs" /><path
         id="path1-7-1-9-0-2-6"
         style="fill:#ffffff;stroke:#000000;stroke-width:0.265;stroke-dasharray:none"
         d="m 19.464606,5.595299 c 0,0.207214 -0.227855,0.738307 -0.588876,0.738307 -0.361023,0 -0.627766,-0.541773 -0.627766,-0.748987 0,-0.207214 -0.07027,-0.385876 0.627766,-0.364516 0.698039,0.02136 0.588876,0.167981 0.588876,0.375196 z"
         sodipodi:nodetypes="ssszs" /><ellipse
         style="fill:#ffffff;fill-opacity:1;stroke:#000000;stroke-width:0.265;stroke-dasharray:none;stroke-opacity:1"
         id="path1-7-2-9-9-1-6-1-2"
         cx="-2.2632551"
         cy="20.597471"
         rx="0.65429264"
         ry="0.80279088"
         transform="rotate(-57.22643)" /><path
         id="path1-9-9-9"
         style="fill:#4d4d4d;fill-opacity:1;stroke:#000000;stroke-width:0.265"
         d="m 19.277011,11.146918 c 0,0.918208 -0.744353,2.054432 -1.662561,2.054432 -0.918208,0 -1.662561,-1.136225 -1.662561,-2.054432 0,-0.918206 0.744354,-1.66256 1.662561,-1.66256 0.918206,0 1.662561,0.744353 1.662561,1.66256 z"
         sodipodi:nodetypes="zzzzz" /><ellipse
         style="fill:#ffffff;fill-opacity:1;stroke:#000000;stroke-width:0.265;stroke-dasharray:none;stroke-opacity:1"
         id="path1-7-2-9-9-8-7-2"
         cx="23.522934"
         cy="4.3609033"
         rx="0.65429264"
         ry="0.80279088"
         transform="rotate(31.28516)" /><path
         id="path1-7-1-1-4-5"
         style="fill:#ffffff;stroke:#000000;stroke-width:0.265;stroke-dasharray:none"
         d="m 16.496797,18.658861 c -0.04836,-0.682667 1.102807,-0.503895 1.310009,-0.501699 0.207202,0.0022 1.167629,-0.395949 1.16196,0.463464 -0.0069,1.042508 -2.428412,0.653086 -2.471969,0.03823 z"
         sodipodi:nodetypes="sszs" /><path
         style="fill:#999999;fill-opacity:1;stroke:none;stroke-width:0.264999;stroke-dasharray:none;stroke-opacity:1"
         d="m 16.339779,28.865261 c -0.26234,0.004 -0.518183,-0.0824 -0.507812,-0.261718 0.07244,-1.252407 0.08092,-3.577077 0.509765,-4.482421 -0.437865,-0.679074 -1.45073,0.168884 -1.972084,-0.675332 -0.452157,-0.732168 0.762988,-1.86407 1.261781,-2.126082 0.24925,-0.130928 0.82017,0.516212 0.604561,0.69728 -0.500288,0.420141 -0.380387,0.375581 -0.772257,0.72391 0.459066,0.230808 1.588685,-0.137344 2.116279,0.08139 0.588368,-0.0052 0.971127,-1.204108 1.299713,-1.879485 -0.272129,-0.41364 -0.688092,-0.93312 -1.072955,-1.63667 0.0249,-0.280451 0.405029,-0.734583 0.604559,-0.535956 0.546629,0.544152 1.51081,1.749637 1.489018,2.302612 -0.02011,0.510399 -0.642762,2.361793 -1.078141,3.042465 0.432152,0.903771 0.450328,3.230287 0.527344,4.482421 0.02205,0.358555 -1.02167,0.345807 -1.056641,-0.01172 -0.100734,-1.029811 -0.213416,-2.743698 -0.427734,-2.90625 -0.121107,-0.09185 -0.211094,-0.116149 -0.279297,-0.105468 -0.06824,-0.01043 -0.16048,0.01512 -0.28125,0.107421 -0.213723,0.163344 -0.320999,1.876089 -0.417969,2.906261 -0.01683,0.178825 -0.284536,0.273372 -0.546875,0.277344 z"
         id="path4-4-5-5-1"
         sodipodi:nodetypes="ssscssccccsscscscssss" /><path
         id="path1-7-1-2-6-5-0"
         style="fill:#ffffff;stroke:#000000;stroke-width:0.265;stroke-dasharray:none"
         d="m 16.983509,29.034821 c 0,-0.207214 -0.227855,-0.738307 -0.588877,-0.738307 -0.361022,0 -0.627765,0.541773 -0.627765,0.748987 0,0.207215 -0.07027,0.385877 0.627765,0.364517 0.69804,-0.02136 0.588877,-0.167981 0.588877,-0.375197 z"
         sodipodi:nodetypes="ssszs" /><path
         id="path1-7-1-9-0-2-6-6"
         style="fill:#ffffff;stroke:#000000;stroke-width:0.265;stroke-dasharray:none"
         d="m 19.464606,29.013051 c 0,-0.207214 -0.227855,-0.738307 -0.588876,-0.738307 -0.361023,0 -0.627766,0.541773 -0.627766,0.748987 0,0.207214 -0.07027,0.385876 0.627766,0.364516 0.698039,-0.02136 0.588876,-0.167981 0.588876,-0.375196 z"
         sodipodi:nodetypes="ssszs" /><ellipse
         style="fill:#ffffff;fill-opacity:1;stroke:#000000;stroke-width:0.265;stroke-dasharray:none;stroke-opacity:1"
         id="path1-7-2-9-9-1-6-1-2-3"
         cx="26.836012"
         cy="1.863264"
         rx="0.65429264"
         ry="0.80279088"
         transform="matrix(0.54132041,0.8408164,0.8408164,-0.54132041,0,0)" /><ellipse
         style="fill:#ffffff;fill-opacity:1;stroke:#000000;stroke-width:0.265;stroke-dasharray:none;stroke-opacity:1"
         id="path1-7-2-9-9-8-7-2-2"
         cx="5.5508957"
         cy="-25.21516"
         rx="0.65429264"
         ry="0.80279088"
         transform="matrix(0.85459339,-0.51929774,-0.51929774,-0.85459339,0,0)" /><path
         id="path1-9-9"
         style="fill:#66ff66;fill-opacity:1;stroke:#000000;stroke-width:0.265"
         d="m 15.856405,23.461432 c 0,-0.918208 0.744355,-2.054432 1.662563,-2.054432 0.918208,0 1.66256,1.136225 1.66256,2.054432 0,0.918206 -0.744354,1.66256 -1.66256,1.66256 -0.918207,0 -1.662562,-0.744353 -1.662563,-1.66256 z"
         sodipodi:nodetypes="zzzzz" /><ellipse
         style="fill:#ffffff;fill-opacity:1;stroke:#000000;stroke-width:0.265;stroke-dasharray:none;stroke-opacity:1"
         id="path1-7-2-9-9-1-3"
         cx="2.6282065"
         cy="-25.520918"
         rx="0.65429264"
         ry="0.80279088"
         transform="rotate(115.72808)" /><ellipse
         style="fill:#ffffff;fill-opacity:1;stroke:#000000;stroke-width:0.265;stroke-dasharray:none;stroke-opacity:1"
         id="path1-7-2-9-9-1-3-9"
         cx="-28.505335"
         cy="-10.406337"
         rx="0.65429264"
         ry="0.80279088"
         transform="matrix(-0.43410061,-0.9008644,-0.9008644,0.43410061,0,0)" /></g></g></svg>
