<?xml version="1.0" encoding="UTF-8" standalone="no"?>
<!-- Created with Inkscape (http://www.inkscape.org/) -->

<svg
   width="35mm"
   height="35mm"
   viewBox="0 0 35 35"
   version="1.1"
   id="svg1"
   xml:space="preserve"
   inkscape:version="1.4 (e7c3feb100, 2024-10-09)"
   sodipodi:docname="e_primary.svg"
   xmlns:inkscape="http://www.inkscape.org/namespaces/inkscape"
   xmlns:sodipodi="http://sodipodi.sourceforge.net/DTD/sodipodi-0.dtd"
   xmlns="http://www.w3.org/2000/svg"
   xmlns:svg="http://www.w3.org/2000/svg"><sodipodi:namedview
     id="namedview1"
     pagecolor="#ffffff"
     bordercolor="#000000"
     borderopacity="0.25"
     inkscape:showpageshadow="2"
     inkscape:pageopacity="0.0"
     inkscape:pagecheckerboard="0"
     inkscape:deskcolor="#d1d1d1"
     inkscape:document-units="mm"
     inkscape:zoom="4.2968333"
     inkscape:cx="69.935223"
     inkscape:cy="56.786005"
     inkscape:window-width="1916"
     inkscape:window-height="1023"
     inkscape:window-x="0"
     inkscape:window-y="0"
     inkscape:window-maximized="0"
     inkscape:current-layer="layer1" /><defs
     id="defs1"><inkscape:path-effect
       effect="mirror_symmetry"
       start_point="17.297909,16.234992"
       end_point="17.313303,7.810326"
       center_point="17.305606,12.022659"
       id="path-effect5"
       is_visible="true"
       lpeversion="1.2"
       lpesatellites=""
       mode="free"
       discard_orig_path="false"
       fuse_paths="true"
       oposite_fuse="false"
       split_items="false"
       split_open="false"
       link_styles="false" /><inkscape:path-effect
       effect="mirror_symmetry"
       start_point="17.297909,16.234992"
       end_point="17.313303,7.810326"
       center_point="17.305606,12.022659"
       id="path-effect5-7"
       is_visible="true"
       lpeversion="1.2"
       lpesatellites=""
       mode="free"
       discard_orig_path="false"
       fuse_paths="true"
       oposite_fuse="false"
       split_items="false"
       split_open="false"
       link_styles="false" /><inkscape:path-effect
       effect="mirror_symmetry"
       start_point="17.297909,16.234992"
       end_point="17.313303,7.810326"
       center_point="17.305606,12.022659"
       id="path-effect5-6"
       is_visible="true"
       lpeversion="1.2"
       lpesatellites=""
       mode="free"
       discard_orig_path="false"
       fuse_paths="true"
       oposite_fuse="false"
       split_items="false"
       split_open="false"
       link_styles="false" /><inkscape:path-effect
       effect="mirror_symmetry"
       start_point="17.297909,16.234992"
       end_point="17.313303,7.810326"
       center_point="17.305606,12.022659"
       id="path-effect5-3"
       is_visible="true"
       lpeversion="1.2"
       lpesatellites=""
       mode="free"
       discard_orig_path="false"
       fuse_paths="true"
       oposite_fuse="false"
       split_items="false"
       split_open="false"
       link_styles="false" /><inkscape:path-effect
       effect="mirror_symmetry"
       start_point="17.297909,16.234992"
       end_point="17.313303,7.810326"
       center_point="17.305606,12.022659"
       id="path-effect5-66"
       is_visible="true"
       lpeversion="1.2"
       lpesatellites=""
       mode="free"
       discard_orig_path="false"
       fuse_paths="true"
       oposite_fuse="false"
       split_items="false"
       split_open="false"
       link_styles="false" /><inkscape:path-effect
       effect="mirror_symmetry"
       start_point="17.297909,16.234992"
       end_point="17.313303,7.810326"
       center_point="17.305606,12.022659"
       id="path-effect5-4"
       is_visible="true"
       lpeversion="1.2"
       lpesatellites=""
       mode="free"
       discard_orig_path="false"
       fuse_paths="true"
       oposite_fuse="false"
       split_items="false"
       split_open="false"
       link_styles="false" /><inkscape:path-effect
       effect="mirror_symmetry"
       start_point="17.297909,16.234992"
       end_point="17.313303,7.810326"
       center_point="17.305606,12.022659"
       id="path-effect5-4-7"
       is_visible="true"
       lpeversion="1.2"
       lpesatellites=""
       mode="free"
       discard_orig_path="false"
       fuse_paths="true"
       oposite_fuse="false"
       split_items="false"
       split_open="false"
       link_styles="false" /><inkscape:path-effect
       effect="mirror_symmetry"
       start_point="17.297909,16.234992"
       end_point="17.313303,7.810326"
       center_point="17.305606,12.022659"
       id="path-effect5-41"
       is_visible="true"
       lpeversion="1.2"
       lpesatellites=""
       mode="free"
       discard_orig_path="false"
       fuse_paths="true"
       oposite_fuse="false"
       split_items="false"
       split_open="false"
       link_styles="false" /></defs><g
     inkscape:label="Layer 1"
     inkscape:groupmode="layer"
     id="layer1"><path
       style="fill:#999999;fill-opacity:1;stroke:none;stroke-width:0.264999;stroke-dasharray:none;stroke-opacity:1"
       d="m 7.1786679,18.70086 c -0.00397,0.262339 0.082402,0.518182 0.2617188,0.507812 1.2524069,-0.07244 3.5770763,-0.08092 4.4824213,-0.509765 0.679074,0.437864 0.371378,1.648212 1.215594,2.169566 0.732168,0.452157 2.277069,0.482573 3.453443,0.245026 0.275974,-0.05573 0.229365,-0.981076 -0.05099,-1.006996 -1.18211,-0.10928 -2.765058,-0.2516 -2.765058,-0.2516 -0.529723,-0.891495 -0.294767,-1.923285 -0.519001,-2.394281 0.225954,-0.470175 1.22341,-1.098622 1.7256,-1.649506 0,0 1.122686,0.969549 1.843365,1.757447 0.280451,-0.0249 0.89087,-0.646549 0.699498,-0.853054 -0.652099,-0.703664 -1.42457,-2.155826 -2.435479,-2.198959 -0.991324,-0.0423 -2.48044,1.266505 -3.161109,1.701884 -0.903772,-0.432152 -3.2302881,-0.450328 -4.482422,-0.527344 -0.3585544,-0.02205 -0.3458071,1.02167 0.011719,1.056641 1.0298108,0.100734 2.743698,0.213416 2.90625,0.427734 0.09185,0.121107 0.116149,0.211094 0.105468,0.279297 0.01043,0.06824 -0.01512,0.16048 -0.107421,0.28125 -0.163337,0.213727 -1.8760814,0.321003 -2.9062533,0.417973 -0.1788256,0.01683 -0.2733728,0.284536 -0.2773438,0.546875 z"
       id="path4-6"
       sodipodi:nodetypes="ssscssscccsscscscsss" /><path
       id="path1-3"
       style="fill:#6666ff;fill-opacity:1;stroke:#000000;stroke-width:0.265"
       d="m 12.631899,15.800577 c 0.918208,0 2.054432,0.744354 2.054432,1.662562 0,0.918208 -1.136225,1.662561 -2.054432,1.662561 -0.918207,0 -1.662561,-0.744355 -1.662561,-1.662561 0,-0.918207 0.744353,-1.662562 1.662561,-1.662562 z"
       sodipodi:nodetypes="zzzzz" /><path
       id="path1-7-1-1"
       style="fill:#ffffff;stroke:#000000;stroke-width:0.265;stroke-dasharray:none"
       d="m 7.0308779,18.097333 c 0.207214,0 0.738307,0.227855 0.738307,0.588877 0,0.361023 -0.541773,0.627766 -0.748987,0.627766 -0.207214,0 -0.385876,0.07027 -0.364516,-0.627766 0.02136,-0.69804 0.167981,-0.588877 0.375196,-0.588877 z"
       sodipodi:nodetypes="ssszs" /><path
       id="path1-7-1-9-7"
       style="fill:#ffffff;stroke:#000000;stroke-width:0.265;stroke-dasharray:none"
       d="m 7.0526479,15.616236 c 0.207214,0 0.738307,0.227855 0.738307,0.588877 0,0.361023 -0.541773,0.627766 -0.748987,0.627766 -0.207213,0 -0.385875,0.07027 -0.364515,-0.627766 0.02136,-0.69804 0.167981,-0.588877 0.375195,-0.588877 z"
       sodipodi:nodetypes="ssszs" /><path
       style="fill:#999999;fill-opacity:1;stroke:none;stroke-width:0.264999;stroke-dasharray:none;stroke-opacity:1"
       d="m 18.894929,29.651925 c 0.262339,0.004 0.518183,-0.0824 0.507812,-0.261718 -0.07244,-1.252407 -0.08092,-3.577077 -0.509765,-4.482421 0.437864,-0.679074 1.45073,0.168884 1.972084,-0.675332 0.452157,-0.732168 -0.349349,-2.081775 -0.848142,-2.343787 -0.249249,-0.130928 -1.037875,0.472671 -0.822266,0.653739 0.500289,0.420141 0.467469,0.462663 0.706945,0.985156 -0.459065,0.230808 -1.719308,-0.137344 -2.246902,0.08139 -0.588368,-0.0052 -1.789069,-0.293482 -2.636413,-0.508583 0.07652,-0.752311 0.524811,-1.536185 0.603028,-2.143635 -0.0249,-0.280451 -0.912559,-0.461784 -1.028765,-0.205346 -0.503087,1.110186 -1.280918,2.64536 -0.600162,3.285702 0.721315,0.678492 1.984745,0.184154 2.420124,0.864826 -0.432152,0.903771 -0.450328,3.230287 -0.527344,4.482421 -0.02205,0.358555 1.02167,0.345807 1.056641,-0.01172 0.100734,-1.029811 0.213416,-2.743698 0.427734,-2.90625 0.121107,-0.09185 0.211094,-0.116149 0.279297,-0.105468 0.06824,-0.01043 0.16048,0.01512 0.28125,0.107421 0.213723,0.163344 0.320999,1.876089 0.417969,2.906261 0.01683,0.178825 0.284536,0.273372 0.546875,0.277344 z"
       id="path4-4-5"
       sodipodi:nodetypes="ssscssccccsscscscsss" /><ellipse
       style="fill:#ffffff;fill-opacity:1;stroke:#000000;stroke-width:0.265;stroke-dasharray:none;stroke-opacity:1"
       id="path1-7-2-9-9"
       cx="20.684414"
       cy="-17.039236"
       rx="0.65429264"
       ry="0.80279088"
       transform="rotate(90)" /><path
       id="path1-9-9"
       style="fill:#66ff66;fill-opacity:1;stroke:#000000;stroke-width:0.265"
       d="m 15.932019,24.198694 c 0,-0.918208 0.744354,-2.054432 1.662562,-2.054432 0.918208,0 1.662561,1.136225 1.662561,2.054432 0,0.918206 -0.744354,1.66256 -1.662561,1.66256 -0.918207,0 -1.662562,-0.744353 -1.662562,-1.66256 z"
       sodipodi:nodetypes="zzzzz" /><path
       id="path1-7-1-2-6"
       style="fill:#ffffff;stroke:#000000;stroke-width:0.265;stroke-dasharray:none"
       d="m 18.251198,29.821485 c 0,-0.207214 0.227855,-0.738307 0.588877,-0.738307 0.361023,0 0.627766,0.541773 0.627766,0.748987 0,0.207215 0.07027,0.385877 -0.627766,0.364517 -0.69804,-0.02136 -0.588877,-0.167981 -0.588877,-0.375197 z"
       sodipodi:nodetypes="ssszs" /><path
       id="path1-7-1-9-0-2"
       style="fill:#ffffff;stroke:#000000;stroke-width:0.265;stroke-dasharray:none"
       d="m 15.770101,29.799715 c 0,-0.207214 0.227855,-0.738307 0.588877,-0.738307 0.361023,0 0.627766,0.541773 0.627766,0.748987 0,0.207214 0.07027,0.385876 -0.627766,0.364516 -0.69804,-0.02136 -0.588877,-0.167981 -0.588877,-0.375196 z"
       sodipodi:nodetypes="ssszs" /><ellipse
       style="fill:#ffffff;fill-opacity:1;stroke:#000000;stroke-width:0.265;stroke-dasharray:none;stroke-opacity:1"
       id="path1-7-2-9-9-1-6-1"
       cx="0.467004"
       cy="-29.292528"
       rx="0.65429264"
       ry="0.80279088"
       transform="rotate(137.61241)" /><ellipse
       style="fill:#ffffff;fill-opacity:1;stroke:#000000;stroke-width:0.265;stroke-dasharray:none;stroke-opacity:1"
       id="path1-7-2-9-9-8-7"
       cx="-21.412033"
       cy="-14.219541"
       rx="0.65429264"
       ry="0.80279088"
       transform="rotate(-159.86143)" /><path
       style="fill:#999999;fill-opacity:1;stroke:none;stroke-width:0.264999;stroke-dasharray:none;stroke-opacity:1"
       d="m 27.821331,16.299139 c 0.004,-0.262339 -0.0824,-0.518182 -0.261719,-0.507812 -1.252406,0.07244 -3.577076,0.08092 -4.482421,0.509765 -0.679074,-0.437864 -0.371378,-1.648212 -1.215594,-2.169566 -0.732168,-0.452157 -2.277069,-0.482573 -3.453443,-0.245026 -0.275974,0.05573 -0.229365,0.981076 0.05099,1.006996 1.18211,0.10928 2.765058,0.2516 2.765058,0.2516 0.529723,0.891495 0.294767,1.923285 0.519001,2.394281 -0.225954,0.470175 -1.22341,1.098622 -1.7256,1.649506 0,0 -1.122686,-0.969549 -1.843365,-1.757447 -0.280451,0.0249 -0.89087,0.646549 -0.699498,0.853054 0.652099,0.703664 1.42457,2.155826 2.435479,2.198959 0.991324,0.0423 2.48044,-1.266505 3.161109,-1.701884 0.903772,0.432152 3.230288,0.450328 4.482422,0.527344 0.358555,0.02205 0.345807,-1.02167 -0.01172,-1.056641 -1.029811,-0.100734 -2.743698,-0.213416 -2.90625,-0.427734 -0.09185,-0.121107 -0.116149,-0.211094 -0.105468,-0.279297 -0.01043,-0.06824 0.01512,-0.16048 0.107421,-0.28125 0.163337,-0.213727 1.876082,-0.321003 2.906253,-0.417973 0.178826,-0.01683 0.273373,-0.284536 0.277345,-0.546875 z"
       id="path4-6-3"
       sodipodi:nodetypes="ssscssscccsscscscsss" /><path
       id="path1-3-3"
       style="fill:#ff6666;fill-opacity:1;stroke:#000000;stroke-width:0.265"
       d="m 22.368101,19.199422 c -0.918208,0 -2.054432,-0.744354 -2.054432,-1.662562 0,-0.918208 1.136225,-1.662561 2.054432,-1.662561 0.918207,0 1.662561,0.744355 1.662561,1.662561 0,0.918207 -0.744353,1.662562 -1.662561,1.662562 z"
       sodipodi:nodetypes="zzzzz" /><path
       id="path1-7-1-1-0"
       style="fill:#ffffff;stroke:#000000;stroke-width:0.265;stroke-dasharray:none"
       d="m 27.969122,16.902666 c -0.207214,0 -0.738307,-0.227855 -0.738307,-0.588877 0,-0.361023 0.541773,-0.627766 0.748987,-0.627766 0.207214,0 0.385876,-0.07027 0.364516,0.627766 -0.02136,0.69804 -0.167981,0.588877 -0.375196,0.588877 z"
       sodipodi:nodetypes="ssszs" /><path
       id="path1-7-1-9-7-9"
       style="fill:#ffffff;stroke:#000000;stroke-width:0.265;stroke-dasharray:none"
       d="m 27.947352,19.383763 c -0.207214,0 -0.738307,-0.227855 -0.738307,-0.588877 0,-0.361023 0.541773,-0.627766 0.748987,-0.627766 0.207213,0 0.385875,-0.07027 0.364515,0.627766 -0.02136,0.69804 -0.167981,0.588877 -0.375195,0.588877 z"
       sodipodi:nodetypes="ssszs" /><path
       style="fill:#999999;fill-opacity:1;stroke:none;stroke-width:0.264999;stroke-dasharray:none;stroke-opacity:1"
       d="m 16.105071,5.348075 c -0.262339,-0.004 -0.518183,0.0824 -0.507812,0.261718 0.07244,1.252407 0.08092,3.577077 0.509765,4.48242 -0.437864,0.679074 -1.45073,-0.168883 -1.972084,0.675332 -0.452157,0.732168 0.349349,2.081775 0.848142,2.343787 0.249249,0.130928 1.037875,-0.472671 0.822266,-0.653739 -0.500289,-0.420141 -0.467469,-0.462663 -0.706945,-0.985156 0.459065,-0.230808 1.719308,0.137344 2.246902,-0.08139 0.588368,0.0052 1.789069,0.293482 2.636413,0.508583 -0.07652,0.752311 -0.524811,1.536185 -0.603028,2.143635 0.0249,0.280451 0.912559,0.461784 1.028765,0.205346 0.503087,-1.110186 1.280918,-2.64536 0.600162,-3.285702 -0.721315,-0.678492 -1.984745,-0.184154 -2.420124,-0.864826 0.432152,-0.90377 0.450328,-3.230286 0.527344,-4.48242 0.02205,-0.358555 -1.02167,-0.345807 -1.056641,0.01172 -0.100734,1.029811 -0.213416,2.743698 -0.427734,2.90625 -0.121107,0.09185 -0.211094,0.116149 -0.279297,0.105468 -0.06824,0.01043 -0.16048,-0.01512 -0.28125,-0.107421 C 16.856192,8.368336 16.748916,6.655591 16.651946,5.625419 16.635116,5.446594 16.36741,5.352047 16.105071,5.348075 Z"
       id="path4-4-5-2"
       sodipodi:nodetypes="ssscssccccsscscscsss" /><ellipse
       style="fill:#ffffff;fill-opacity:1;stroke:#000000;stroke-width:0.265;stroke-dasharray:none;stroke-opacity:1"
       id="path1-7-2-9-9-5"
       cx="-14.315587"
       cy="17.960764"
       rx="0.65429264"
       ry="0.80279088"
       transform="rotate(-90)" /><path
       id="path1-9-9-4"
       style="fill:#4d4d4d;fill-opacity:1;stroke:#000000;stroke-width:0.265"
       d="m 19.067981,10.801305 c 0,0.918208 -0.744354,2.054432 -1.662562,2.054432 -0.918208,0 -1.662561,-1.136225 -1.662561,-2.054432 0,-0.918205 0.744354,-1.662559 1.662561,-1.662559 0.918207,0 1.662562,0.744353 1.662562,1.662559 z"
       sodipodi:nodetypes="zzzzz" /><path
       id="path1-7-1-2-6-0"
       style="fill:#ffffff;stroke:#000000;stroke-width:0.265;stroke-dasharray:none"
       d="m 16.748802,5.178515 c 0,0.207214 -0.227855,0.738307 -0.588877,0.738307 -0.361023,0 -0.627766,-0.541773 -0.627766,-0.748987 0,-0.207215 -0.07027,-0.385877 0.627766,-0.364517 0.69804,0.02136 0.588877,0.167981 0.588877,0.375197 z"
       sodipodi:nodetypes="ssszs" /><path
       id="path1-7-1-9-0-2-5"
       style="fill:#ffffff;stroke:#000000;stroke-width:0.265;stroke-dasharray:none"
       d="m 19.229899,5.200285 c 0,0.207214 -0.227855,0.738307 -0.588877,0.738307 -0.361023,0 -0.627766,-0.541773 -0.627766,-0.748987 0,-0.207214 -0.07027,-0.385876 0.627766,-0.364516 0.69804,0.02136 0.588877,0.167981 0.588877,0.375196 z"
       sodipodi:nodetypes="ssszs" /><ellipse
       style="fill:#ffffff;fill-opacity:1;stroke:#000000;stroke-width:0.265;stroke-dasharray:none;stroke-opacity:1"
       id="path1-7-2-9-9-1-6-1-9"
       cx="2.723067"
       cy="20.153503"
       rx="0.65429264"
       ry="0.80279088"
       transform="rotate(-42.38759)" /><ellipse
       style="fill:#ffffff;fill-opacity:1;stroke:#000000;stroke-width:0.265;stroke-dasharray:none;stroke-opacity:1"
       id="path1-7-2-9-9-8-7-4"
       cx="23.498371"
       cy="6.5904403"
       rx="0.65429264"
       ry="0.80279088"
       transform="rotate(20.13857)" /><ellipse
       style="fill:#ffffff;fill-opacity:1;stroke:#000000;stroke-width:0.265;stroke-dasharray:none;stroke-opacity:1"
       id="path1-7-2-9-9-1"
       cx="-6.4049459"
       cy="-23.905758"
       rx="0.65429264"
       ry="0.80279088"
       transform="rotate(150)" /></g></svg>
