<?xml version="1.0" encoding="UTF-8" standalone="no"?>
<!-- Created with Inkscape (http://www.inkscape.org/) -->

<svg
   width="35mm"
   height="35mm"
   viewBox="0 0 35 35"
   version="1.1"
   id="svg1"
   xml:space="preserve"
   inkscape:version="1.4 (e7c3feb100, 2024-10-09)"
   sodipodi:docname="h_alternateExoticV2.svg"
   xmlns:inkscape="http://www.inkscape.org/namespaces/inkscape"
   xmlns:sodipodi="http://sodipodi.sourceforge.net/DTD/sodipodi-0.dtd"
   xmlns="http://www.w3.org/2000/svg"
   xmlns:svg="http://www.w3.org/2000/svg"><sodipodi:namedview
     id="namedview1"
     pagecolor="#ffffff"
     bordercolor="#000000"
     borderopacity="0.25"
     inkscape:showpageshadow="2"
     inkscape:pageopacity="0.0"
     inkscape:pagecheckerboard="0"
     inkscape:deskcolor="#d1d1d1"
     inkscape:document-units="mm"
     inkscape:zoom="4.2968333"
     inkscape:cx="100.19006"
     inkscape:cy="70.517048"
     inkscape:window-width="1916"
     inkscape:window-height="1023"
     inkscape:window-x="0"
     inkscape:window-y="0"
     inkscape:window-maximized="0"
     inkscape:current-layer="layer1"><sodipodi:guide
       position="25.431035,17.543103"
       orientation="0,132.28346"
       id="guide5"
       inkscape:locked="false" /><sodipodi:guide
       position="35.000001,35.000001"
       orientation="132.28346,0"
       id="guide6"
       inkscape:locked="false" /><sodipodi:guide
       position="35.000001,0"
       orientation="0,-132.28346"
       id="guide7"
       inkscape:locked="false" /><sodipodi:guide
       position="17.503506,35.914363"
       orientation="-132.28346,0"
       id="guide8"
       inkscape:locked="false" /></sodipodi:namedview><defs
     id="defs1"><inkscape:path-effect
       effect="mirror_symmetry"
       start_point="17.297909,16.234992"
       end_point="17.313303,7.810326"
       center_point="17.305606,12.022659"
       id="path-effect5"
       is_visible="true"
       lpeversion="1.2"
       lpesatellites=""
       mode="free"
       discard_orig_path="false"
       fuse_paths="true"
       oposite_fuse="false"
       split_items="false"
       split_open="false"
       link_styles="false" /><inkscape:path-effect
       effect="mirror_symmetry"
       start_point="17.297909,16.234992"
       end_point="17.313303,7.810326"
       center_point="17.305606,12.022659"
       id="path-effect5-7"
       is_visible="true"
       lpeversion="1.2"
       lpesatellites=""
       mode="free"
       discard_orig_path="false"
       fuse_paths="true"
       oposite_fuse="false"
       split_items="false"
       split_open="false"
       link_styles="false" /><inkscape:path-effect
       effect="mirror_symmetry"
       start_point="17.297909,16.234992"
       end_point="17.313303,7.810326"
       center_point="17.305606,12.022659"
       id="path-effect5-6"
       is_visible="true"
       lpeversion="1.2"
       lpesatellites=""
       mode="free"
       discard_orig_path="false"
       fuse_paths="true"
       oposite_fuse="false"
       split_items="false"
       split_open="false"
       link_styles="false" /><inkscape:path-effect
       effect="mirror_symmetry"
       start_point="17.297909,16.234992"
       end_point="17.313303,7.810326"
       center_point="17.305606,12.022659"
       id="path-effect5-3"
       is_visible="true"
       lpeversion="1.2"
       lpesatellites=""
       mode="free"
       discard_orig_path="false"
       fuse_paths="true"
       oposite_fuse="false"
       split_items="false"
       split_open="false"
       link_styles="false" /><inkscape:path-effect
       effect="mirror_symmetry"
       start_point="17.297909,16.234992"
       end_point="17.313303,7.810326"
       center_point="17.305606,12.022659"
       id="path-effect5-66"
       is_visible="true"
       lpeversion="1.2"
       lpesatellites=""
       mode="free"
       discard_orig_path="false"
       fuse_paths="true"
       oposite_fuse="false"
       split_items="false"
       split_open="false"
       link_styles="false" /><inkscape:path-effect
       effect="mirror_symmetry"
       start_point="17.297909,16.234992"
       end_point="17.313303,7.810326"
       center_point="17.305606,12.022659"
       id="path-effect5-4"
       is_visible="true"
       lpeversion="1.2"
       lpesatellites=""
       mode="free"
       discard_orig_path="false"
       fuse_paths="true"
       oposite_fuse="false"
       split_items="false"
       split_open="false"
       link_styles="false" /><inkscape:path-effect
       effect="mirror_symmetry"
       start_point="17.297909,16.234992"
       end_point="17.313303,7.810326"
       center_point="17.305606,12.022659"
       id="path-effect5-4-7"
       is_visible="true"
       lpeversion="1.2"
       lpesatellites=""
       mode="free"
       discard_orig_path="false"
       fuse_paths="true"
       oposite_fuse="false"
       split_items="false"
       split_open="false"
       link_styles="false" /><inkscape:path-effect
       effect="mirror_symmetry"
       start_point="17.297909,16.234992"
       end_point="17.313303,7.810326"
       center_point="17.305606,12.022659"
       id="path-effect5-41"
       is_visible="true"
       lpeversion="1.2"
       lpesatellites=""
       mode="free"
       discard_orig_path="false"
       fuse_paths="true"
       oposite_fuse="false"
       split_items="false"
       split_open="false"
       link_styles="false" /><inkscape:path-effect
       effect="mirror_symmetry"
       start_point="17.297909,16.234992"
       end_point="17.313303,7.810326"
       center_point="17.305606,12.022659"
       id="path-effect5-4-0"
       is_visible="true"
       lpeversion="1.2"
       lpesatellites=""
       mode="free"
       discard_orig_path="false"
       fuse_paths="true"
       oposite_fuse="false"
       split_items="false"
       split_open="false"
       link_styles="false" /><inkscape:path-effect
       effect="mirror_symmetry"
       start_point="17.493844,16.300304"
       end_point="17.509238,7.875638"
       center_point="17.501541,12.087971"
       id="path-effect5-4-0-9"
       is_visible="true"
       lpeversion="1.2"
       lpesatellites=""
       mode="free"
       discard_orig_path="false"
       fuse_paths="true"
       oposite_fuse="false"
       split_items="false"
       split_open="false"
       link_styles="false" /><inkscape:path-effect
       effect="mirror_symmetry"
       start_point="17.297909,16.234992"
       end_point="17.313303,7.810326"
       center_point="17.305606,12.022659"
       id="path-effect5-4-0-0"
       is_visible="true"
       lpeversion="1.2"
       lpesatellites=""
       mode="free"
       discard_orig_path="false"
       fuse_paths="true"
       oposite_fuse="false"
       split_items="false"
       split_open="false"
       link_styles="false" /><inkscape:path-effect
       effect="mirror_symmetry"
       start_point="17.493844,16.300304"
       end_point="17.509238,7.875638"
       center_point="17.501541,12.087971"
       id="path-effect5-4-0-9-7"
       is_visible="true"
       lpeversion="1.2"
       lpesatellites=""
       mode="free"
       discard_orig_path="false"
       fuse_paths="true"
       oposite_fuse="false"
       split_items="false"
       split_open="false"
       link_styles="false" /><inkscape:path-effect
       effect="mirror_symmetry"
       start_point="17.493844,16.300304"
       end_point="17.509238,7.875638"
       center_point="17.501541,12.087971"
       id="path-effect5-4-0-9-3"
       is_visible="true"
       lpeversion="1.2"
       lpesatellites=""
       mode="free"
       discard_orig_path="false"
       fuse_paths="true"
       oposite_fuse="false"
       split_items="false"
       split_open="false"
       link_styles="false" /><inkscape:path-effect
       effect="mirror_symmetry"
       start_point="17.493844,16.300304"
       end_point="17.509238,7.875638"
       center_point="17.501541,12.087971"
       id="path-effect5-4-0-9-5"
       is_visible="true"
       lpeversion="1.2"
       lpesatellites=""
       mode="free"
       discard_orig_path="false"
       fuse_paths="true"
       oposite_fuse="false"
       split_items="false"
       split_open="false"
       link_styles="false" /><inkscape:path-effect
       effect="mirror_symmetry"
       start_point="17.297909,16.234992"
       end_point="17.313303,7.810326"
       center_point="17.305606,12.022659"
       id="path-effect5-4-6-1"
       is_visible="true"
       lpeversion="1.2"
       lpesatellites=""
       mode="free"
       discard_orig_path="false"
       fuse_paths="true"
       oposite_fuse="false"
       split_items="false"
       split_open="false"
       link_styles="false" /><inkscape:path-effect
       effect="mirror_symmetry"
       start_point="17.493844,16.300304"
       end_point="17.509238,7.875638"
       center_point="17.501541,12.087971"
       id="path-effect5-4-0-9-5-9"
       is_visible="true"
       lpeversion="1.2"
       lpesatellites=""
       mode="free"
       discard_orig_path="false"
       fuse_paths="true"
       oposite_fuse="false"
       split_items="false"
       split_open="false"
       link_styles="false" /><inkscape:path-effect
       effect="mirror_symmetry"
       start_point="17.493844,16.300304"
       end_point="17.509238,7.875638"
       center_point="17.501541,12.087971"
       id="path-effect5-4-0-9-5-7"
       is_visible="true"
       lpeversion="1.2"
       lpesatellites=""
       mode="free"
       discard_orig_path="false"
       fuse_paths="true"
       oposite_fuse="false"
       split_items="false"
       split_open="false"
       link_styles="false" /></defs><g
     inkscape:label="Layer 1"
     inkscape:groupmode="layer"
     id="layer1"><path
       id="path1-3-0"
       style="fill:#ff6666;fill-opacity:1;stroke:#000000;stroke-width:0.265"
       d="m 23.151521,17.8658 c -0.91821,1e-6 -2.054432,-0.744353 -2.054432,-1.662563 0,-0.918207 1.136225,-1.66256 2.054431,-1.66256 0.918208,0 1.662562,0.744355 1.662562,1.662561 -10e-7,0.918207 -0.744354,1.662561 -1.662561,1.662562 z"
       sodipodi:nodetypes="zzzzz" /><path
       style="fill:#999999;fill-opacity:1;stroke:none;stroke-width:0.264999;stroke-dasharray:none;stroke-opacity:1"
       d="m 16.191406,8.9042969 c -0.292488,-0.00827 -0.617135,0.09905 -0.605468,0.3007812 0.07244,1.2524069 0.553411,3.1382009 0.320312,4.0820309 -0.120106,-0.27365 -0.294555,-0.773353 -0.566406,-1.144531 0.09834,-0.544588 0.0762,-1.898714 -0.416016,-1.933594 -1.02704,-0.07279 -0.519195,2.170074 -0.447265,2.554688 0.07753,0.414549 0.906173,1.730579 1.164062,1.787109 0.485265,0.106378 1.335063,0.124264 1.855469,0.123047 0.520398,0.0031 1.371771,-0.01063 1.857422,-0.115234 0.258093,-0.05559 1.090876,-1.36894 1.169921,-1.783203 0.07334,-0.384349 0.5898,-2.625677 -0.4375,-2.556641 -0.492341,0.03308 -0.518224,1.386697 -0.421875,1.931641 -0.273205,0.370182 -0.449207,0.869369 -0.570312,1.142578 -0.229648,-0.944676 0.256969,-2.827944 0.333984,-4.0800784 0.02205,-0.3585544 -1.019715,-0.4239314 -1.054687,-0.066406 -0.05036,0.5149057 -0.184378,0.6272927 -0.117188,1.1562496 -0.217322,0.452837 -0.511517,1.061298 -0.58789,1.654297 -0.05913,0.02209 -0.114606,0.02958 -0.166016,0.0293 -0.05141,9.3e-5 -0.106965,-0.0089 -0.166016,-0.03125 -0.07421,-0.593274 -0.366365,-1.200669 -0.582031,-1.654297 0.06912,-0.5287079 -0.0648,-0.6411634 -0.113281,-1.1562497 -0.01473,-0.1564722 -0.221728,-0.2338059 -0.449219,-0.2402344 z"
       id="path4-6-3-2"
       sodipodi:nodetypes="sccscccccsss"
       transform="matrix(0,0.99999999,0.99999999,0,9.619734,-1.2972038)"
       inkscape:original-d="m 14.924313,10.209901 c 0.492217,0.03488 0.51354,1.387545 0.4152,1.932133 0.271851,0.371178 0.44621,0.871112 0.566316,1.144762 0.233099,-0.94383 -0.2482,-2.828724 -0.320639,-4.081131 -0.02074,-0.3586326 1.022151,-0.4192286 1.055816,-0.061578 0.04848,0.5150863 0.182149,0.6270618 0.113026,1.15577 0.215666,0.453628 0.5075,1.06247 0.581706,1.655744 0.335179,0.12662 0.556797,-0.171236 0.556797,-0.171236 l 0.05085,2.882759 c 0,0 -1.568763,0.04531 -2.3026,-0.115559 -0.257889,-0.05653 -1.085797,-1.373618 -1.163328,-1.788167 -0.07193,-0.384614 -0.580184,-2.626287 0.446856,-2.553497 z"
       inkscape:path-effect="#path-effect5-4-0-9-5-7" /><path
       id="path1-7-1-1-4"
       style="fill:#ffffff;stroke:#000000;stroke-width:0.265;stroke-dasharray:none"
       d="m 17.045509,14.848552 c -0.04836,0.682666 1.102807,0.503895 1.310008,0.501699 0.207201,-0.0022 1.16763,0.395947 1.161961,-0.463465 -0.0069,-1.042508 -2.428412,-0.653086 -2.47197,-0.03823 z"
       sodipodi:nodetypes="sszs" /><path
       id="path1-7-1-1-4-5"
       style="fill:#ffffff;stroke:#000000;stroke-width:0.265;stroke-dasharray:none"
       d="m 17.045509,17.557925 c -0.04836,-0.682667 1.102806,-0.503895 1.310008,-0.501699 0.207201,0.0022 1.167631,-0.395946 1.16196,0.463464 -0.0069,1.042508 -2.428415,0.653073 -2.471969,0.03823 z"
       sodipodi:nodetypes="sszs" /><path
       id="path1-3-0-2"
       style="fill:#6666ff;fill-opacity:1;stroke:#000000;stroke-width:0.265"
       d="m 16.178836,19.388912 c -0.459105,-0.795192 -1.671845,-1.407014 -2.467037,-0.947909 -0.795192,0.459104 -0.871707,1.815281 -0.412605,2.61047 0.459103,0.795191 1.475911,1.067643 2.2711,0.608539 0.795192,-0.459104 1.067646,-1.475909 0.608542,-2.2711 z"
       sodipodi:nodetypes="zzzzz" /><path
       style="fill:#999999;fill-opacity:1;stroke:none;stroke-width:0.264999;stroke-dasharray:none;stroke-opacity:1"
       d="m 11.291616,16.867186 c -0.257437,0.139083 -0.484931,0.394348 -0.373962,0.563219 0.688938,1.048397 2.048369,2.441056 2.318415,3.374986 -0.589965,0.329415 -0.620481,0.452292 -1.039516,0.724079 -0.698805,0.172828 -1.483381,0.635065 -1.353527,1.031295 0.260703,0.495493 1.06098,0.06736 1.435006,-0.04755 1.198962,-0.36837 2.407832,-1.037189 2.984295,-1.377926 0.584515,-0.326731 2.024031,-0.724539 3.150197,-1.276764 0.617655,-0.302875 1.255478,-0.319778 1.240671,-0.925439 -0.427008,-0.421362 -1.2179,-0.159403 -1.841373,0.08965 -0.654886,-0.0057 -1.190771,0.302972 -1.790598,0.455229 -0.671219,-0.703289 -1.2132,-2.838801 -1.772571,-3.96169 -0.160182,-0.321542 -1.095064,0.142723 -0.946589,0.469835 0.21384,0.471102 0.15397,0.63544 0.476637,1.059936 0.03821,0.500829 0.08766,1.174869 0.318021,1.726607 -0.04016,0.04869 -0.08446,0.08292 -0.129122,0.108384 -0.04448,0.02579 -0.09708,0.04577 -0.159398,0.05594 -0.360904,-0.476686 -0.917615,-0.856627 -1.331201,-1.141648 -0.204495,-0.492434 -0.376701,-0.522863 -0.676229,-0.944701 -0.09099,-0.128144 -0.308936,-0.09158 -0.509152,0.01656 z"
       id="path4-6-3-2-6"
       sodipodi:nodetypes="sccccccscccsscccccsss" /><path
       id="path1-7-1-1-4-4"
       style="fill:#ffffff;stroke:#000000;stroke-width:0.265;stroke-dasharray:none"
       d="m 10.512815,15.609575 c 0.567027,-0.383215 0.98779,0.70311 1.089488,0.883651 0.101697,0.180542 0.926717,0.813221 0.179608,1.238019 -0.906288,0.515278 -1.779795,-1.776523 -1.269092,-2.121673 z"
       sodipodi:nodetypes="sszs" /><path
       id="path1-7-1-1-4-5-1"
       style="fill:#ffffff;stroke:#000000;stroke-width:0.265;stroke-dasharray:none"
       d="m 12.859202,14.254887 c -0.615387,0.299453 0.115017,1.207007 0.22052,1.385351 0.105507,0.178343 0.240913,1.209171 0.982352,0.774555 0.899389,-0.527229 -0.648617,-2.429609 -1.202876,-2.159904 z"
       sodipodi:nodetypes="sszs" /><path
       style="fill:#999999;fill-opacity:1;stroke:none;stroke-width:0.264999;stroke-dasharray:none;stroke-opacity:1"
       d="m 17.740533,31.35206 c 0.262339,0.004 0.518183,-0.0824 0.507812,-0.261718 -0.07244,-1.252407 -0.08092,-3.577077 -0.509765,-4.482422 0.437864,-0.679074 1.413552,-0.263566 2.08427,-0.994763 0.544522,-0.593621 0.01561,-1.476344 -0.596861,-2.109548 -0.26243,-0.271313 -0.978021,-0.142748 -0.845417,0.290257 0.204127,0.666554 0.501917,1.15085 0.501917,1.15085 -0.767798,0.194468 -1.719431,0.350732 -2.38219,0.47375 -0.662306,-0.125439 -2.132366,-1.075076 -2.899448,-1.27235 0,0 -1.256889,-0.921078 -2.000789,-1.534982 -0.445624,-0.0806 -0.683181,0.09551 -0.667064,0.43792 0.158792,0.852842 1.523312,1.639841 2.095231,2.19413 0.609243,0.590463 1.794503,0.678205 2.229882,1.358874 -0.432152,0.903772 -0.450328,3.230288 -0.527344,4.482422 -0.02205,0.358555 1.02167,0.345807 1.056641,-0.01172 0.100734,-1.02981 0.213416,-2.743698 0.427734,-2.90625 0.121107,-0.09185 0.211094,-0.116149 0.279297,-0.105468 0.06824,-0.01043 0.16048,0.01512 0.28125,0.107421 0.213723,0.163336 0.320999,1.876081 0.417969,2.906253 0.01683,0.178825 0.284537,0.273372 0.546875,0.277344 z"
       id="path4-6-1-8"
       sodipodi:nodetypes="cscssscccccscccscsscc" /><path
       id="path1-3-1-8"
       style="fill:#66ff66;fill-opacity:1;stroke:#000000;stroke-width:0.265"
       d="m 14.840251,25.898828 c 0,-0.918208 0.744354,-2.054432 1.662562,-2.054432 0.918208,0 1.662561,1.136225 1.662561,2.054432 0,0.918207 -0.744355,1.662562 -1.662561,1.662562 -0.918207,0 -1.662562,-0.744354 -1.662562,-1.662562 z"
       sodipodi:nodetypes="zzzzz" /><path
       id="path1-7-1-1-0-9"
       style="fill:#ffffff;stroke:#000000;stroke-width:0.265;stroke-dasharray:none"
       d="m 17.137007,31.49985 c 0,-0.207214 0.227855,-0.738307 0.588877,-0.738307 0.361023,0 0.627766,0.541773 0.627766,0.748987 0,0.207214 0.07027,0.385876 -0.627766,0.364516 -0.69804,-0.02136 -0.588877,-0.167981 -0.588877,-0.375196 z"
       sodipodi:nodetypes="ssszs" /><path
       id="path1-7-1-9-7-3-2"
       style="fill:#ffffff;stroke:#000000;stroke-width:0.265;stroke-dasharray:none"
       d="m 14.65591,31.47808 c 0,-0.207214 0.227855,-0.738307 0.588877,-0.738307 0.361023,0 0.627766,0.541773 0.627766,0.748987 0,0.207213 0.07027,0.385875 -0.627766,0.364515 -0.69804,-0.02136 -0.588877,-0.167981 -0.588877,-0.375195 z"
       sodipodi:nodetypes="ssszs" /><ellipse
       style="fill:#ffffff;fill-opacity:1;stroke:#000000;stroke-width:0.265;stroke-dasharray:none;stroke-opacity:1"
       id="path1-7-2-9-9-1-3-1-8"
       cx="4.484107"
       cy="29.565046"
       rx="0.65429264"
       ry="0.80279088"
       transform="rotate(-30)" /><ellipse
       style="fill:#ffffff;fill-opacity:1;stroke:#000000;stroke-width:0.265;stroke-dasharray:none;stroke-opacity:1"
       id="path1-7-2-9-9-1-3-9-8"
       cx="24.256908"
       cy="-6.4623418"
       rx="0.65429264"
       ry="0.80279088"
       transform="matrix(0.65246988,0.75781466,0.75781466,-0.65246988,0,0)" /><path
       style="fill:#999999;fill-opacity:1;stroke:none;stroke-width:0.264999;stroke-dasharray:none;stroke-opacity:1"
       d="m 19.289159,3.6697152 c 0.262341,-0.004 0.518183,0.0824 0.507811,0.261719 -0.07244,1.252407 -0.323423,3.161053 -0.509764,4.482419 0.675565,0.08934 1.852858,-0.624653 2.374212,0.219562 0.452162,0.732164 -1.364396,2.5885798 -1.863191,2.8505928 -0.249252,0.130925 -0.80726,-0.679119 -0.565892,-0.858107 0.458926,-0.340333 1.033586,-0.7304538 1.366938,-1.2559688 -0.459066,-0.230805 -2.022755,0.561498 -2.550349,0.34276 -0.588367,0.0052 -0.03872,1.5149908 0.03059,2.0769418 0.427556,0.340773 1.22002,0.56844 1.559906,1.115474 -0.146949,0.315363 -0.483567,0.520761 -0.787621,0.408767 -0.592767,-0.218328 -1.356594,-0.538725 -1.677671,-0.95902 -0.310104,-0.405888 -0.80274,-3.2544838 -0.367359,-3.9351598 -0.432171,-0.903742 -0.450345,-3.230259 -0.527362,-4.482393 -0.02205,-0.358555 1.02167,-0.345807 1.056641,0.01172 0.100734,1.029812 0.213417,2.743698 0.427734,2.90625 0.121101,0.09186 0.211116,0.116115 0.279298,0.10547 0.06824,0.01042 0.16048,-0.01511 0.281252,-0.107418 0.213726,-0.163346 0.321,-1.87609 0.41797,-2.906262 0.01683,-0.178825 0.284536,-0.273373 0.546876,-0.277344 z"
       id="path4-4-5-5-1-3"
       sodipodi:nodetypes="ssccssccccsscscscssss" /><ellipse
       style="fill:#ffffff;fill-opacity:1;stroke:#000000;stroke-width:0.265;stroke-dasharray:none;stroke-opacity:1"
       id="path1-7-2-9-9-1-6-1-2-3-6"
       cx="21.824123"
       cy="-4.7395897"
       rx="0.65429264"
       ry="0.80279088"
       transform="rotate(42.38697)" /><path
       id="path1-7-1-2-6-5-0-1"
       style="fill:#ffffff;stroke:#000000;stroke-width:0.265;stroke-dasharray:none"
       d="m 18.64543,3.5001542 c 0,0.207215 0.227855,0.738308 0.588877,0.738307 0.361021,1e-6 0.627768,-0.541769 0.627763,-0.748989 1e-6,-0.207215 0.07027,-0.385879 -0.627764,-0.364518 -0.698041,0.02136 -0.588877,0.167981 -0.588878,0.375197 z"
       sodipodi:nodetypes="ssszs" /><path
       id="path1-7-1-9-0-2-6-6-8"
       style="fill:#ffffff;stroke:#000000;stroke-width:0.265;stroke-dasharray:none"
       d="m 16.164333,3.5219252 c 0,0.207214 0.227855,0.738307 0.588875,0.738306 0.361025,1e-6 0.627769,-0.54177 0.627763,-0.74899 1e-6,-0.207213 0.07027,-0.385876 -0.627764,-0.364518 -0.69804,0.02136 -0.588876,0.167981 -0.588877,0.375195 z"
       sodipodi:nodetypes="ssszs" /><path
       id="path1-9-9-6"
       style="fill:#4d4d4d;fill-opacity:1;stroke:#000000;stroke-width:0.265"
       d="m 19.772535,9.0735422 c -1e-6,0.918207 -0.744358,2.0544368 -1.662566,2.0544378 -0.918209,0 -1.662562,-1.1362278 -1.66256,-2.0544328 1e-6,-0.918209 0.744357,-1.662565 1.662563,-1.662565 0.918207,0 1.662562,0.744352 1.662563,1.66256 z"
       sodipodi:nodetypes="zzzzz" /><ellipse
       style="fill:#ffffff;fill-opacity:1;stroke:#000000;stroke-width:0.265;stroke-dasharray:none;stroke-opacity:1"
       id="path1-7-2-9-9-1-3"
       cx="-2.7407639"
       cy="-23.396915"
       rx="0.65429264"
       ry="0.80279088"
       transform="rotate(130.72808)" /><ellipse
       style="fill:#ffffff;fill-opacity:1;stroke:#000000;stroke-width:0.265;stroke-dasharray:none;stroke-opacity:1"
       id="path1-7-2-9-9-1-3-9"
       cx="25.804008"
       cy="9.8650723"
       rx="0.65429264"
       ry="0.80279088"
       transform="matrix(0.4341006,0.9008644,0.9008644,-0.4341006,0,0)" /></g></svg>
