<?xml version="1.0" encoding="UTF-8" standalone="no"?>
<!-- Created with Inkscape (http://www.inkscape.org/) -->

<svg
   width="35mm"
   height="35mm"
   viewBox="0 0 35 35"
   version="1.1"
   id="svg1"
   xml:space="preserve"
   inkscape:version="1.4 (e7c3feb100, 2024-10-09)"
   sodipodi:docname="o_alternatePieceV2.svg"
   xmlns:inkscape="http://www.inkscape.org/namespaces/inkscape"
   xmlns:sodipodi="http://sodipodi.sourceforge.net/DTD/sodipodi-0.dtd"
   xmlns="http://www.w3.org/2000/svg"
   xmlns:svg="http://www.w3.org/2000/svg"><sodipodi:namedview
     id="namedview1"
     pagecolor="#ffffff"
     bordercolor="#000000"
     borderopacity="0.25"
     inkscape:showpageshadow="2"
     inkscape:pageopacity="0.0"
     inkscape:pagecheckerboard="0"
     inkscape:deskcolor="#d1d1d1"
     inkscape:document-units="mm"
     inkscape:zoom="4.2968333"
     inkscape:cx="65.746093"
     inkscape:cy="80.291688"
     inkscape:window-width="1916"
     inkscape:window-height="1023"
     inkscape:window-x="0"
     inkscape:window-y="0"
     inkscape:window-maximized="0"
     inkscape:current-layer="layer1" /><defs
     id="defs1"><inkscape:path-effect
       effect="mirror_symmetry"
       start_point="17.297909,16.234992"
       end_point="17.313303,7.810326"
       center_point="17.305606,12.022659"
       id="path-effect5"
       is_visible="true"
       lpeversion="1.2"
       lpesatellites=""
       mode="free"
       discard_orig_path="false"
       fuse_paths="true"
       oposite_fuse="false"
       split_items="false"
       split_open="false"
       link_styles="false" /><inkscape:path-effect
       effect="mirror_symmetry"
       start_point="17.297909,16.234992"
       end_point="17.313303,7.810326"
       center_point="17.305606,12.022659"
       id="path-effect5-7"
       is_visible="true"
       lpeversion="1.2"
       lpesatellites=""
       mode="free"
       discard_orig_path="false"
       fuse_paths="true"
       oposite_fuse="false"
       split_items="false"
       split_open="false"
       link_styles="false" /><inkscape:path-effect
       effect="mirror_symmetry"
       start_point="17.297909,16.234992"
       end_point="17.313303,7.810326"
       center_point="17.305606,12.022659"
       id="path-effect5-6"
       is_visible="true"
       lpeversion="1.2"
       lpesatellites=""
       mode="free"
       discard_orig_path="false"
       fuse_paths="true"
       oposite_fuse="false"
       split_items="false"
       split_open="false"
       link_styles="false" /><inkscape:path-effect
       effect="mirror_symmetry"
       start_point="17.297909,16.234992"
       end_point="17.313303,7.810326"
       center_point="17.305606,12.022659"
       id="path-effect5-3"
       is_visible="true"
       lpeversion="1.2"
       lpesatellites=""
       mode="free"
       discard_orig_path="false"
       fuse_paths="true"
       oposite_fuse="false"
       split_items="false"
       split_open="false"
       link_styles="false" /><inkscape:path-effect
       effect="mirror_symmetry"
       start_point="17.297909,16.234992"
       end_point="17.313303,7.810326"
       center_point="17.305606,12.022659"
       id="path-effect5-66"
       is_visible="true"
       lpeversion="1.2"
       lpesatellites=""
       mode="free"
       discard_orig_path="false"
       fuse_paths="true"
       oposite_fuse="false"
       split_items="false"
       split_open="false"
       link_styles="false" /><inkscape:path-effect
       effect="mirror_symmetry"
       start_point="17.297909,16.234992"
       end_point="17.313303,7.810326"
       center_point="17.305606,12.022659"
       id="path-effect5-4"
       is_visible="true"
       lpeversion="1.2"
       lpesatellites=""
       mode="free"
       discard_orig_path="false"
       fuse_paths="true"
       oposite_fuse="false"
       split_items="false"
       split_open="false"
       link_styles="false" /><inkscape:path-effect
       effect="mirror_symmetry"
       start_point="17.297909,16.234992"
       end_point="17.313303,7.810326"
       center_point="17.305606,12.022659"
       id="path-effect5-4-7"
       is_visible="true"
       lpeversion="1.2"
       lpesatellites=""
       mode="free"
       discard_orig_path="false"
       fuse_paths="true"
       oposite_fuse="false"
       split_items="false"
       split_open="false"
       link_styles="false" /><inkscape:path-effect
       effect="mirror_symmetry"
       start_point="17.297909,16.234992"
       end_point="17.313303,7.810326"
       center_point="17.305606,12.022659"
       id="path-effect5-41"
       is_visible="true"
       lpeversion="1.2"
       lpesatellites=""
       mode="free"
       discard_orig_path="false"
       fuse_paths="true"
       oposite_fuse="false"
       split_items="false"
       split_open="false"
       link_styles="false" /><inkscape:path-effect
       effect="mirror_symmetry"
       start_point="17.493844,16.300304"
       end_point="17.509238,7.875638"
       center_point="17.501541,12.087971"
       id="path-effect5-4-0-9-5-7"
       is_visible="true"
       lpeversion="1.2"
       lpesatellites=""
       mode="free"
       discard_orig_path="false"
       fuse_paths="true"
       oposite_fuse="false"
       split_items="false"
       split_open="false"
       link_styles="false" /></defs><g
     inkscape:label="Layer 1"
     inkscape:groupmode="layer"
     id="layer1"><path
       style="fill:#999999;fill-opacity:1;stroke:none;stroke-width:0.264999;stroke-dasharray:none;stroke-opacity:1"
       d="m 21.25732,6.967773 c 0.262339,-0.004 0.518183,0.0824 0.507812,0.261718 -0.07244,1.252407 -0.08092,3.577077 -0.509765,4.482421 0.437864,0.679074 1.45073,-0.168884 1.972084,0.675332 0.452157,0.732168 -0.762989,1.86407 -1.261782,2.126082 -0.249249,0.130928 -0.82017,-0.516212 -0.604561,-0.69728 0.500289,-0.420141 0.380387,-0.375581 0.772257,-0.72391 -0.459065,-0.230808 -1.588685,0.137344 -2.116279,-0.08139 -0.588368,0.0052 -1.352111,1.029944 -1.941944,1.509386 0.08708,0.566034 0.132944,1.575351 0.180364,2.213589 -0.0249,0.280451 -0.662518,0.32433 -0.778724,0.06789 -0.503087,-1.110186 -0.618218,-2.261245 -0.378721,-2.705367 0.242445,-0.449591 1.241452,-1.697792 1.676831,-2.378464 -0.432152,-0.903771 -0.450328,-3.230287 -0.527344,-4.482421 -0.02205,-0.358555 1.02167,-0.345807 1.056641,0.01172 0.100734,1.029811 0.213416,2.743698 0.427734,2.90625 0.121107,0.09185 0.211094,0.116149 0.279297,0.105468 0.06824,0.01043 0.16048,-0.01512 0.28125,-0.107421 0.213723,-0.163344 0.320999,-1.876089 0.417969,-2.906261 0.01683,-0.178825 0.284536,-0.273372 0.546875,-0.277344 z"
       id="path4-4-5"
       sodipodi:nodetypes="ssscssccccsscscscssss" /><path
       style="fill:#999999;fill-opacity:1;stroke:none;stroke-width:0.1"
       d="m 20.264664,18.608277 c 0,0 -3.068579,0.37801 -3.047875,-0.718429 0.017,-0.900156 3.004334,-0.435412 3.004334,-0.435412 z"
       id="path2"
       sodipodi:nodetypes="cscc" /><path
       id="path1-7-1-2-6"
       style="fill:#ffffff;stroke:#000000;stroke-width:0.265;stroke-dasharray:none"
       d="m 20.613589,6.798213 c 0,0.207214 0.227855,0.738307 0.588877,0.738307 0.361023,0 0.627766,-0.541773 0.627766,-0.748987 0,-0.207215 0.07027,-0.385877 -0.627766,-0.364517 -0.69804,0.02136 -0.588877,0.167981 -0.588877,0.375197 z"
       sodipodi:nodetypes="ssszs" /><path
       id="path1-7-1-9-0-2"
       style="fill:#ffffff;stroke:#000000;stroke-width:0.265;stroke-dasharray:none"
       d="m 18.132492,6.819983 c 0,0.207214 0.227855,0.738307 0.588877,0.738307 0.361023,0 0.627766,-0.541773 0.627766,-0.748987 0,-0.207214 0.07027,-0.385876 -0.627766,-0.364516 -0.69804,0.02136 -0.588877,0.167981 -0.588877,0.375196 z"
       sodipodi:nodetypes="ssszs" /><ellipse
       style="fill:#ffffff;fill-opacity:1;stroke:#000000;stroke-width:0.265;stroke-dasharray:none;stroke-opacity:1"
       id="path1-7-2-9-9-1-6-1"
       cx="-23.645069"
       cy="-10.351837"
       rx="0.65429264"
       ry="0.80279088"
       transform="matrix(-0.54132041,-0.8408164,-0.8408164,0.54132041,0,0)" /><path
       id="path1-9-9"
       style="fill:#4d4d4d;fill-opacity:1;stroke:#000000;stroke-width:0.265"
       d="m 18.29441,12.421004 c 0,0.918208 0.744354,2.054432 1.662562,2.054432 0.918208,0 1.662561,-1.136225 1.662561,-2.054432 0,-0.918206 -0.744354,-1.66256 -1.662561,-1.66256 -0.918207,0 -1.662562,0.744353 -1.662562,1.66256 z"
       sodipodi:nodetypes="zzzzz" /><path
       id="path1-7-1-1"
       style="fill:#ffffff;stroke:#000000;stroke-width:0.265;stroke-dasharray:none"
       d="m 17.320259,17.261514 c 0.206071,0.02173 0.710344,0.304016 0.672488,0.663049 -0.03786,0.359033 -0.604614,0.567495 -0.810685,0.545766 -0.206072,-0.02173 -0.391116,0.02942 -0.29668,-0.662527 0.09444,-0.691952 0.228804,-0.568016 0.434877,-0.546288 z"
       sodipodi:nodetypes="ssszs" /><ellipse
       style="fill:#ffffff;fill-opacity:1;stroke:#000000;stroke-width:0.265;stroke-dasharray:none;stroke-opacity:1"
       id="path1-7-2-9-9-8-7"
       cx="-17.788933"
       cy="17.156006"
       rx="0.65429264"
       ry="0.80279088"
       transform="scale(-1,1)" /><path
       style="fill:#999999;fill-opacity:1;stroke:none;stroke-width:0.264999;stroke-dasharray:none;stroke-opacity:1"
       d="m 19.313481,15.506622 c -0.732168,-0.452157 -1.907611,-0.02075 -3.083985,0.216797 -0.275974,0.05573 -0.47567,0.796346 -0.195312,0.822266 1.18211,0.10928 2.857422,0.09766 2.857422,0.09766 0.13243,0.222874 1.320735,1.532237 1.549952,2.015809 -0.269495,0.927356 -1.022833,1.323157 -1.555812,2.21271 0,0 -1.676873,-0.01512 -2.859375,0.08984 -0.280451,0.0249 -0.08241,0.76553 0.19336,0.822266 1.175498,0.241841 2.348215,0.677994 3.082031,0.228515 0.846116,-0.518265 1.372065,-1.574386 2.052734,-2.009765 0.903772,0.432152 3.230288,0.450328 4.482422,0.527344 0.358555,0.02205 0.345807,-1.02167 -0.01172,-1.056641 -1.354222,-0.08962 -2.675514,-0.329652 -3.981546,-0.583878 0.483871,-0.42965 -1.96305,-2.661442 -2.530172,-3.382919 z"
       id="path4-6"
       sodipodi:nodetypes="cssscccsscccccc" /><path
       id="path1-3"
       style="fill:#ff6666;fill-opacity:1;stroke:#000000;stroke-width:0.265"
       d="m 20.651265,20.420577 c -0.918208,0 -2.054432,-0.744354 -2.054432,-1.662562 0,-0.918208 1.136225,-1.662561 2.054432,-1.662561 0.918207,0 1.662561,0.744355 1.662561,1.662561 0,0.918207 -0.744353,1.662562 -1.662561,1.662562 z"
       sodipodi:nodetypes="zzzzz" /><path
       id="path1-7-1-9-7"
       style="fill:#ffffff;stroke:#000000;stroke-width:0.265;stroke-dasharray:none"
       d="m 26.230516,20.604918 c -0.207214,0 -0.738306,-0.227855 -0.738306,-0.588877 0,-0.361023 0.541772,-0.627766 0.748986,-0.627766 0.207213,0 0.385875,-0.07027 0.364515,0.627766 -0.02136,0.69804 -0.167981,0.588877 -0.375195,0.588877 z"
       sodipodi:nodetypes="ssszs" /><path
       id="path1-3-0-4"
       style="fill:#66ff66;fill-opacity:1;stroke:#000000;stroke-width:0.265"
       d="m 15.511122,27.611606 c 0.795192,-0.459105 1.407013,-1.671846 0.947908,-2.467038 -0.459103,-0.795191 -1.815279,-0.871707 -2.610469,-0.412604 -0.795192,0.459105 -1.067644,1.475912 -0.608541,2.271101 0.459103,0.795191 1.475909,1.067645 2.271102,0.608541 z"
       sodipodi:nodetypes="zzzzz" /><path
       style="fill:#999999;fill-opacity:1;stroke:none;stroke-width:0.264999;stroke-dasharray:none;stroke-opacity:1"
       d="m 14.284467,24.536687 c 0.05834,-0.564979 0.230043,-0.896018 0.508598,-1.337832 0.638263,-0.741788 1.489628,-1.358588 1.159231,-1.898406 -0.221693,-0.362205 -1.665202,0.984256 -1.979733,1.305378 -0.423746,0.432629 -1.128035,1.463304 -1.132228,2.085797 -0.0032,0.477364 0.582829,1.480518 0.914261,2.00933 0.290232,0.552499 0.864029,1.566323 1.278189,1.803732 0.540061,0.309588 1.783233,0.218876 2.37032,0.07036 0.435772,-0.110237 2.328403,-0.680497 2.126932,-1.054328 -0.300259,-0.557143 -1.263702,-0.131364 -2.225897,0.04698 -0.521971,0.01842 -0.89386,6.4e-5 -1.411466,-0.233792 0.703289,-0.67122 2.368198,-1.093111 3.491087,-1.652482 0.321542,-0.160181 -0.142723,-1.095065 -0.469831,-0.94659 -0.471101,0.213839 -0.635441,0.153969 -1.059936,0.476637 -0.50083,0.03821 -1.17487,0.08766 -1.726608,0.318022 -0.0487,-0.04016 -0.08292,-0.08447 -0.108384,-0.129123 -0.02579,-0.04447 0.418624,-0.862918 0.408452,-0.925234 -0.200108,-0.589202 -1.173724,-0.251132 -2.142989,0.06156 z"
       id="path4-6-3-2-0"
       sodipodi:nodetypes="cscccccssscsscccccc" /><ellipse
       style="fill:#ffffff;fill-opacity:1;stroke:#000000;stroke-width:0.265;stroke-dasharray:none;stroke-opacity:1"
       id="path1-7-2-9-9-1-3"
       cx="21.793615"
       cy="25.63118"
       rx="0.65429264"
       ry="0.80279088"
       transform="matrix(-0.25881905,0.96592583,0.96592583,0.25881905,0,0)" /><path
       id="path1-7-1-1-4-1"
       style="fill:#ffffff;stroke:#000000;stroke-width:0.265;stroke-dasharray:none"
       d="m 16.666329,23.958343 c 0.383215,0.567026 -0.703112,0.987788 -0.883652,1.089487 -0.180542,0.101696 -0.813221,0.926717 -1.238018,0.179609 -0.51528,-0.906288 1.776523,-1.779794 2.121672,-1.269093 z"
       sodipodi:nodetypes="sszs" /><path
       id="path1-7-1-1-4-5-9"
       style="fill:#ffffff;stroke:#000000;stroke-width:0.265;stroke-dasharray:none"
       d="m 20.645146,24.291972 c -0.299453,-0.615387 -1.207008,0.115018 -1.385351,0.22052 -0.178343,0.105506 -1.209171,0.240913 -0.774555,0.982352 0.527229,0.899388 2.42961,-0.648617 2.159902,-1.202876 z"
       sodipodi:nodetypes="sszs" /><path
       id="path1-3-0-4-6"
       style="fill:#6666ff;fill-opacity:1;stroke:#000000;stroke-width:0.265"
       d="m 9.359673,16.747023 c 0.459104,-0.795192 1.671845,-1.407013 2.467037,-0.947908 0.795191,0.459103 0.871707,1.815279 0.412604,2.610469 -0.459105,0.795192 -1.475911,1.067644 -2.271101,0.608541 -0.795191,-0.459103 -1.067645,-1.475909 -0.60854,-2.271102 z"
       sodipodi:nodetypes="zzzzz" /><path
       style="fill:#999999;fill-opacity:1;stroke:none;stroke-width:0.264999;stroke-dasharray:none;stroke-opacity:1"
       d="m 12.434591,17.973678 c 0.564979,-0.05834 0.896018,-0.230043 1.337832,-0.508598 0.741788,-0.638263 1.358588,-1.489628 1.898406,-1.15923 0.362205,0.221692 -0.984256,1.665201 -1.305378,1.979732 -0.432629,0.423746 -1.463304,1.128036 -2.085797,1.132228 -0.477364,0.0032 -1.480518,-0.582828 -2.00933,-0.914261 C 9.717826,18.213317 8.704002,17.63952 8.466592,17.22536 8.156987,16.685309 8.247717,15.442127 8.396232,14.85504 8.506469,14.419268 9.07673,12.526637 9.450561,12.728108 c 0.557143,0.300259 0.131364,1.263702 -0.04698,2.225897 -0.01842,0.521971 -6.4e-5,0.89386 0.233793,1.411466 0.671218,-0.703289 1.09311,-2.368198 1.65248,-3.491087 0.160181,-0.321542 1.095065,0.142723 0.94659,0.469831 -0.213839,0.471102 -0.153969,0.635441 -0.476637,1.059936 -0.03821,0.50083 -0.08766,1.17487 -0.318021,1.726608 0.04016,0.0487 0.08447,0.08292 0.129121,0.108385 0.04447,0.02579 0.862919,-0.418625 0.925235,-0.408453 0.589202,0.200108 0.251132,1.173724 -0.06156,2.142989 z"
       id="path4-6-3-2-0-4"
       sodipodi:nodetypes="cscccccssscsscccccc" /><ellipse
       style="fill:#ffffff;fill-opacity:1;stroke:#000000;stroke-width:0.265;stroke-dasharray:none;stroke-opacity:1"
       id="path1-7-2-9-9-1-3-3"
       cx="-5.5688739"
       cy="-15.096666"
       rx="0.65429264"
       ry="0.80279088"
       transform="rotate(165)" /><path
       id="path1-7-1-1-4-1-0"
       style="fill:#ffffff;stroke:#000000;stroke-width:0.265;stroke-dasharray:none"
       d="m 13.012935,15.591816 c -0.567026,-0.383215 -0.987789,0.703112 -1.089487,0.883652 -0.101696,0.180542 -0.926717,0.813221 -0.179609,1.238018 0.906288,0.51528 1.779794,-1.776523 1.269093,-2.121672 z"
       sodipodi:nodetypes="sszs" /><path
       id="path1-7-1-1-4-5-9-3"
       style="fill:#ffffff;stroke:#000000;stroke-width:0.265;stroke-dasharray:none"
       d="m 12.679306,11.612999 c 0.615387,0.299453 -0.115018,1.207008 -0.22052,1.385352 -0.105506,0.178342 -0.240913,1.20917 -0.982352,0.774554 -0.899388,-0.527229 0.648617,-2.42961 1.202876,-2.159902 z"
       sodipodi:nodetypes="sszs" /><ellipse
       style="fill:#ffffff;fill-opacity:1;stroke:#000000;stroke-width:0.265;stroke-dasharray:none;stroke-opacity:1"
       id="path1-7-2-9-9-8-7-2"
       cx="-26.561342"
       cy="-3.9380569"
       rx="0.65429264"
       ry="0.80279088"
       transform="rotate(-135)" /><ellipse
       style="fill:#ffffff;fill-opacity:1;stroke:#000000;stroke-width:0.265;stroke-dasharray:none;stroke-opacity:1"
       id="path1-7-2-9-9-1-3-9-9-8-5-4"
       cx="-22.502455"
       cy="-2.132026"
       rx="0.65429264"
       ry="0.80279088"
       transform="rotate(-139.27192)" /></g></svg>
