<?xml version="1.0" encoding="UTF-8" standalone="no"?>
<!-- Created with Inkscape (http://www.inkscape.org/) -->

<svg
   width="35mm"
   height="35mm"
   viewBox="0 0 35 35"
   version="1.1"
   id="svg1"
   xml:space="preserve"
   inkscape:version="1.4 (e7c3feb100, 2024-10-09)"
   sodipodi:docname="o_primaryCrossV1.svg"
   xmlns:inkscape="http://www.inkscape.org/namespaces/inkscape"
   xmlns:sodipodi="http://sodipodi.sourceforge.net/DTD/sodipodi-0.dtd"
   xmlns="http://www.w3.org/2000/svg"
   xmlns:svg="http://www.w3.org/2000/svg"><sodipodi:namedview
     id="namedview1"
     pagecolor="#ffffff"
     bordercolor="#000000"
     borderopacity="0.25"
     inkscape:showpageshadow="2"
     inkscape:pageopacity="0.0"
     inkscape:pagecheckerboard="0"
     inkscape:deskcolor="#d1d1d1"
     inkscape:document-units="mm"
     inkscape:zoom="4.2968333"
     inkscape:cx="98.560957"
     inkscape:cy="88.204492"
     inkscape:window-width="1916"
     inkscape:window-height="1023"
     inkscape:window-x="0"
     inkscape:window-y="0"
     inkscape:window-maximized="0"
     inkscape:current-layer="layer1"><sodipodi:guide
       position="-4.8602707,17.501937"
       orientation="0,132.28346"
       id="guide1"
       inkscape:locked="false" /><sodipodi:guide
       position="17.499231,37.343751"
       orientation="-132.28346,0"
       id="guide4"
       inkscape:locked="false" /></sodipodi:namedview><defs
     id="defs1"><inkscape:path-effect
       effect="mirror_symmetry"
       start_point="17.297909,16.234992"
       end_point="17.313303,7.810326"
       center_point="17.305606,12.022659"
       id="path-effect5"
       is_visible="true"
       lpeversion="1.2"
       lpesatellites=""
       mode="free"
       discard_orig_path="false"
       fuse_paths="true"
       oposite_fuse="false"
       split_items="false"
       split_open="false"
       link_styles="false" /><inkscape:path-effect
       effect="mirror_symmetry"
       start_point="17.297909,16.234992"
       end_point="17.313303,7.810326"
       center_point="17.305606,12.022659"
       id="path-effect5-7"
       is_visible="true"
       lpeversion="1.2"
       lpesatellites=""
       mode="free"
       discard_orig_path="false"
       fuse_paths="true"
       oposite_fuse="false"
       split_items="false"
       split_open="false"
       link_styles="false" /><inkscape:path-effect
       effect="mirror_symmetry"
       start_point="17.297909,16.234992"
       end_point="17.313303,7.810326"
       center_point="17.305606,12.022659"
       id="path-effect5-6"
       is_visible="true"
       lpeversion="1.2"
       lpesatellites=""
       mode="free"
       discard_orig_path="false"
       fuse_paths="true"
       oposite_fuse="false"
       split_items="false"
       split_open="false"
       link_styles="false" /><inkscape:path-effect
       effect="mirror_symmetry"
       start_point="17.297909,16.234992"
       end_point="17.313303,7.810326"
       center_point="17.305606,12.022659"
       id="path-effect5-3"
       is_visible="true"
       lpeversion="1.2"
       lpesatellites=""
       mode="free"
       discard_orig_path="false"
       fuse_paths="true"
       oposite_fuse="false"
       split_items="false"
       split_open="false"
       link_styles="false" /><inkscape:path-effect
       effect="mirror_symmetry"
       start_point="17.297909,16.234992"
       end_point="17.313303,7.810326"
       center_point="17.305606,12.022659"
       id="path-effect5-66"
       is_visible="true"
       lpeversion="1.2"
       lpesatellites=""
       mode="free"
       discard_orig_path="false"
       fuse_paths="true"
       oposite_fuse="false"
       split_items="false"
       split_open="false"
       link_styles="false" /><inkscape:path-effect
       effect="mirror_symmetry"
       start_point="17.297909,16.234992"
       end_point="17.313303,7.810326"
       center_point="17.305606,12.022659"
       id="path-effect5-4"
       is_visible="true"
       lpeversion="1.2"
       lpesatellites=""
       mode="free"
       discard_orig_path="false"
       fuse_paths="true"
       oposite_fuse="false"
       split_items="false"
       split_open="false"
       link_styles="false" /><inkscape:path-effect
       effect="mirror_symmetry"
       start_point="17.297909,16.234992"
       end_point="17.313303,7.810326"
       center_point="17.305606,12.022659"
       id="path-effect5-4-7"
       is_visible="true"
       lpeversion="1.2"
       lpesatellites=""
       mode="free"
       discard_orig_path="false"
       fuse_paths="true"
       oposite_fuse="false"
       split_items="false"
       split_open="false"
       link_styles="false" /><inkscape:path-effect
       effect="mirror_symmetry"
       start_point="17.297909,16.234992"
       end_point="17.313303,7.810326"
       center_point="17.305606,12.022659"
       id="path-effect5-41"
       is_visible="true"
       lpeversion="1.2"
       lpesatellites=""
       mode="free"
       discard_orig_path="false"
       fuse_paths="true"
       oposite_fuse="false"
       split_items="false"
       split_open="false"
       link_styles="false" /><inkscape:path-effect
       effect="mirror_symmetry"
       start_point="17.493844,16.300304"
       end_point="17.509238,7.875638"
       center_point="17.501541,12.087971"
       id="path-effect5-4-0-9-5-7"
       is_visible="true"
       lpeversion="1.2"
       lpesatellites=""
       mode="free"
       discard_orig_path="false"
       fuse_paths="true"
       oposite_fuse="false"
       split_items="false"
       split_open="false"
       link_styles="false" /></defs><g
     inkscape:label="Layer 1"
     inkscape:groupmode="layer"
     id="layer1"><path
       style="fill:#999999;fill-opacity:1;stroke:none;stroke-width:0.264999;stroke-dasharray:none;stroke-opacity:1"
       d="m 5.7594981,14.710441 c -0.004,-0.262339 0.0824,-0.518183 0.261718,-0.507812 1.252407,0.07244 3.577077,0.08092 4.4824209,0.509765 0.679075,-0.437864 -0.168884,-1.450731 0.675333,-1.972085 0.732168,-0.452157 1.86407,0.762989 2.126082,1.261783 0.130928,0.249249 -0.516212,0.82017 -0.69728,0.604561 -0.420141,-0.500289 -0.375581,-0.380387 -0.72391,-0.772257 -0.230808,0.459065 0.137344,1.588685 -0.08139,2.116279 0.0052,0.588368 1.029944,1.352111 1.509386,1.941944 0.566034,-0.08708 1.575351,-0.132944 2.213589,-0.180364 0.280451,0.0249 0.32433,0.662518 0.06789,0.778724 -1.110186,0.503087 -2.261245,0.618218 -2.705367,0.378721 -0.449591,-0.242445 -1.697792,-1.241452 -2.378465,-1.676831 -0.9037709,0.432152 -3.2302869,0.450328 -4.4824209,0.527344 -0.358555,0.02205 -0.345807,-1.02167 0.01172,-1.056641 1.029811,-0.100734 2.743698,-0.213416 2.90625,-0.427734 0.09185,-0.121107 0.116149,-0.211094 0.105468,-0.279297 0.01043,-0.06824 -0.01512,-0.16048 -0.107421,-0.28125 -0.163344,-0.213723 -1.876089,-0.320999 -2.906261,-0.417969 -0.178825,-0.01683 -0.273372,-0.284536 -0.277344,-0.546875 z"
       id="path4-4-5"
       sodipodi:nodetypes="ssscssccccsscscscssss" /><path
       id="path1-7-1-2-6"
       style="fill:#ffffff;stroke:#000000;stroke-width:0.265;stroke-dasharray:none"
       d="m 5.5899381,15.354172 c 0.207214,0 0.738307,-0.227855 0.738307,-0.588877 0,-0.361023 -0.541773,-0.627766 -0.748987,-0.627766 -0.207215,0 -0.385877,-0.07027 -0.364517,0.627766 0.02136,0.69804 0.167981,0.588877 0.375197,0.588877 z"
       sodipodi:nodetypes="ssszs" /><path
       id="path1-7-1-9-0-2"
       style="fill:#ffffff;stroke:#000000;stroke-width:0.265;stroke-dasharray:none"
       d="m 5.6117081,17.835269 c 0.207214,0 0.738307,-0.227855 0.738307,-0.588877 0,-0.361023 -0.541773,-0.627766 -0.748987,-0.627766 -0.207214,0 -0.385876,-0.07027 -0.364516,0.627766 0.02136,0.69804 0.167981,0.588877 0.375196,0.588877 z"
       sodipodi:nodetypes="ssszs" /><ellipse
       style="fill:#ffffff;fill-opacity:1;stroke:#000000;stroke-width:0.265;stroke-dasharray:none;stroke-opacity:1"
       id="path1-7-2-9-9-1-6-1"
       cx="-3.1590497"
       cy="19.236378"
       rx="0.65429264"
       ry="0.80279088"
       transform="matrix(-0.8408164,0.54132041,0.54132041,0.8408164,0,0)" /><path
       id="path1-9-9"
       style="fill:#6666ff;fill-opacity:1;stroke:#000000;stroke-width:0.265"
       d="m 11.21273,17.673351 c 0.918208,0 2.054432,-0.744354 2.054432,-1.662562 0,-0.918208 -1.136225,-1.662561 -2.054432,-1.662561 -0.918207,0 -1.6625609,0.744354 -1.6625609,1.662561 0,0.918207 0.7443529,1.662562 1.6625609,1.662562 z"
       sodipodi:nodetypes="zzzzz" /><path
       id="path1-3-0-4"
       style="fill:#66ff66;fill-opacity:1;stroke:#000000;stroke-width:0.265"
       d="m 20.048699,26.016336 c 0,-0.918209 -0.744354,-2.054432 -1.662563,-2.054432 -0.918207,0 -1.66256,1.136224 -1.66256,2.054431 0,0.918209 0.744355,1.662562 1.66256,1.662562 0.918207,1e-6 1.662562,-0.744352 1.662563,-1.662561 z"
       sodipodi:nodetypes="zzzzz" /><path
       style="fill:#999999;fill-opacity:1;stroke:none;stroke-width:0.264999;stroke-dasharray:none;stroke-opacity:1"
       d="m 20.295923,25.54119 c 0.460116,-0.333013 0.660953,-0.647232 0.904298,-1.109374 0.323275,-0.923646 0.431757,-1.96935 1.064452,-1.953127 0.424525,0.01089 -0.01979,1.934235 -0.140624,2.367188 -0.162795,0.58329 -0.703241,1.708559 -1.240239,2.023437 -0.411809,0.241453 -1.573581,0.235514 -2.197261,0.212892 -0.623595,0.0249 -1.78849,0.03489 -2.201173,-0.205078 -0.538141,-0.312913 -1.081168,-1.434888 -1.246093,-2.017578 -0.122418,-0.432508 -0.574874,-2.356704 -0.150391,-2.369141 0.632629,-0.01854 0.745615,1.028716 1.072262,1.951173 0.245034,0.461251 0.446875,0.774138 0.908203,1.10547 0.229649,-0.944676 -0.237437,-2.597475 -0.314452,-3.849611 -0.02205,-0.358554 1.019716,-0.423931 1.054686,-0.06641 0.05036,0.514905 0.18438,0.627293 0.117189,1.15625 0.217324,0.452837 0.511519,1.061298 0.587889,1.654298 0.05913,0.0221 0.114613,0.02958 0.166015,0.0293 0.05141,9.9e-5 0.537997,-0.793998 0.59705,-0.816347 0.610318,-0.121303 0.804349,0.890909 1.018182,1.886663 z"
       id="path4-6-3-2-0"
       sodipodi:nodetypes="cscccccssscsscccccc" /><path
       id="path1-7-1-1-4-1"
       style="fill:#ffffff;stroke:#000000;stroke-width:0.265;stroke-dasharray:none"
       d="m 19.605853,23.189265 c -0.682667,-0.04836 -0.503894,1.102807 -0.501698,1.310009 0.0022,0.207202 -0.39595,1.167629 0.463463,1.16196 1.042509,-0.0069 0.653086,-2.428411 0.03823,-2.471969 z"
       sodipodi:nodetypes="sszs" /><path
       id="path1-7-1-1-4-5-9"
       style="fill:#ffffff;stroke:#000000;stroke-width:0.265;stroke-dasharray:none"
       d="m 17.327513,19.910323 c 0.682667,-0.04836 0.503896,1.102809 0.5017,1.31001 -0.0022,0.207202 0.395948,1.167629 -0.463465,1.16196 -1.042507,-0.0069 -0.653086,-2.428413 -0.03823,-2.471968 z"
       sodipodi:nodetypes="sszs" /><path
       id="path1-3-0-4-6"
       style="fill:#4d4d4d;fill-opacity:1;stroke:#000000;stroke-width:0.265"
       d="m 20.865016,8.9836652 c 1e-6,0.9182089 -0.744353,2.0544318 -1.662562,2.0544308 -0.918207,1e-6 -1.66256,-1.1362239 -1.66256,-2.0544298 0,-0.9182094 0.744354,-1.6625634 1.66256,-1.6625634 0.918207,0 1.662563,0.744352 1.662562,1.6625624 z"
       sodipodi:nodetypes="zzzzz" /><path
       style="fill:#999999;fill-opacity:1;stroke:none;stroke-width:0.264999;stroke-dasharray:none;stroke-opacity:1"
       d="m 20.537939,9.4588101 c 0.460116,0.333013 0.660953,0.6472319 0.904298,1.1093749 0.323275,0.923646 0.431757,1.969348 1.064453,1.953124 0.424524,-0.01089 -0.01979,-1.934233 -0.140625,-2.367186 -0.162795,-0.5832889 -0.70324,-1.7085602 -1.240239,-2.0234372 -0.41181,-0.241453 -1.57358,-0.235515 -2.197262,-0.212891 -0.623593,-0.0249 -1.788489,-0.03489 -2.201172,0.205078 -0.538151,0.312895 -1.081168,1.4348873 -1.246093,2.0175772 -0.122418,0.432508 -0.574873,2.356704 -0.150391,2.369141 0.63263,0.01854 0.745616,-1.028715 1.072263,-1.951173 0.245033,-0.46125 0.446875,-0.7741369 0.908204,-1.1054689 0.229647,0.9446759 -0.237438,2.5974739 -0.314454,3.8496089 -0.02205,0.358555 1.019715,0.423931 1.054686,0.06641 0.05036,-0.514906 0.18438,-0.627293 0.117189,-1.15625 0.217324,-0.452836 0.511519,-1.061296 0.587889,-1.654296 0.05913,-0.0221 0.114613,-0.02958 0.166015,-0.0293 0.05141,-9.9e-5 0.537997,0.794 0.59705,0.816349 0.610318,0.121302 0.804349,-0.890909 1.018182,-1.8866629 z"
       id="path4-6-3-2-0-4"
       sodipodi:nodetypes="cscccccssscsscccccc" /><path
       id="path1-7-1-1-4-1-0"
       style="fill:#ffffff;stroke:#000000;stroke-width:0.265;stroke-dasharray:none"
       d="m 19.847869,11.810735 c -0.682667,0.04836 -0.503895,-1.102808 -0.501698,-1.310009 0.0022,-0.207202 -0.39595,-1.1676278 0.463463,-1.1619588 1.042509,0.0069 0.653086,2.4284108 0.03823,2.4719678 z"
       sodipodi:nodetypes="sszs" /><path
       id="path1-7-1-1-4-5-9-3"
       style="fill:#ffffff;stroke:#000000;stroke-width:0.265;stroke-dasharray:none"
       d="m 17.569529,15.089676 c 0.682667,0.04836 0.503896,-1.102809 0.5017,-1.31001 -0.0022,-0.207202 0.395948,-1.167629 -0.463465,-1.16196 -1.042507,0.0069 -0.653086,2.428413 -0.03823,2.471968 z"
       sodipodi:nodetypes="sszs" /><ellipse
       style="fill:#ffffff;fill-opacity:1;stroke:#000000;stroke-width:0.265;stroke-dasharray:none;stroke-opacity:1"
       id="path1-7-2-9-9-8-7-2"
       cx="-8.5820465"
       cy="-25.668686"
       rx="0.65429264"
       ry="0.80279088"
       transform="rotate(165)" /><ellipse
       style="fill:#ffffff;fill-opacity:1;stroke:#000000;stroke-width:0.265;stroke-dasharray:none;stroke-opacity:1"
       id="path1-7-2-9-9-1-3-9-9-8-5-4"
       cx="17.739033"
       cy="9.3229103"
       rx="0.65429264"
       ry="0.80279088"
       transform="rotate(10.72808)" /><path
       style="fill:#999999;fill-opacity:1;stroke:none;stroke-width:0.1"
       d="m 22.018546,17.54342 c 0,0 3.068579,0.37801 3.047875,-0.718429 -0.017,-0.900156 -3.004334,-0.435412 -3.004334,-0.435412 z"
       id="path2-2"
       sodipodi:nodetypes="cscc" /><path
       id="path1-7-1-1-6"
       style="fill:#ffffff;stroke:#000000;stroke-width:0.265;stroke-dasharray:none"
       d="m 24.962951,16.196657 c -0.206071,0.02173 -0.710344,0.304016 -0.672488,0.663049 0.03786,0.359033 0.604614,0.567495 0.810685,0.545766 0.206072,-0.02173 0.391116,0.02942 0.29668,-0.662527 -0.09444,-0.691952 -0.228804,-0.568016 -0.434877,-0.546288 z"
       sodipodi:nodetypes="ssszs" /><path
       style="fill:#999999;fill-opacity:1;stroke:none;stroke-width:0.264999;stroke-dasharray:none;stroke-opacity:1"
       d="m 21.358709,14.332912 c 0.111804,-0.695117 -0.160589,-2.219573 0.232046,-2.417437 0.251424,-0.126702 0.629765,-0.190554 0.913739,0.212692 0.148943,0.211501 0.168682,1.425663 -0.114335,2.14409 0.185827,0.742303 -0.319291,2.838469 -0.548508,3.322041 0.617824,0.883815 0.543881,2.23752 0.489056,3.344778 0.283017,0.936133 0.3271,0.921012 0.268682,2.070958 -0.437977,0.351458 -0.241792,0.459318 -0.715853,0.278002 -0.549323,-0.2101 -0.49844,-1.608741 -0.534879,-2.383949 -0.03538,-0.752716 -0.04406,-1.705009 -0.419944,-1.966224 -0.903772,0.432152 -3.230287,0.450328 -4.482421,0.527344 -0.358554,0.02205 -0.345807,-1.02167 0.01172,-1.056641 1.354223,-0.08962 3.437481,-0.416734 4.743513,-0.67096 -0.196574,-0.858821 0.03715,-2.658421 0.157184,-3.404694 z"
       id="path4-6-8"
       sodipodi:nodetypes="sssccccssccccs" /><ellipse
       style="fill:#ffffff;fill-opacity:1;stroke:#000000;stroke-width:0.265;stroke-dasharray:none;stroke-opacity:1"
       id="path1-7-2-9-9-1-3-1"
       cx="22.168871"
       cy="-12.216405"
       rx="0.65429264"
       ry="0.80279088"
       transform="scale(1,-1)" /><path
       id="path1-3-8"
       style="fill:#ff6666;fill-opacity:1;stroke:#000000;stroke-width:0.265"
       d="m 21.631945,19.35572 c 0.918208,0 2.054432,-0.744354 2.054432,-1.662562 0,-0.918208 -1.136225,-1.662561 -2.054432,-1.662561 -0.918207,0 -1.662561,0.744355 -1.662561,1.662561 0,0.918207 0.744353,1.662562 1.662561,1.662562 z"
       sodipodi:nodetypes="zzzzz" /><path
       id="path1-7-1-9-7-31"
       style="fill:#ffffff;stroke:#000000;stroke-width:0.265;stroke-dasharray:none"
       d="m 16.052695,19.540061 c 0.207214,0 0.738307,-0.227855 0.738307,-0.588877 0,-0.361023 -0.541773,-0.627766 -0.748987,-0.627766 -0.207213,0 -0.385875,-0.07027 -0.364515,0.627766 0.02136,0.69804 0.167981,0.588877 0.375195,0.588877 z"
       sodipodi:nodetypes="ssszs" /><ellipse
       style="fill:#ffffff;fill-opacity:1;stroke:#000000;stroke-width:0.265;stroke-dasharray:none;stroke-opacity:1"
       id="path1-7-2-9-9-8-7"
       cx="18.178823"
       cy="15.94773"
       rx="0.65429264"
       ry="0.80279088"
       transform="matrix(0,1,1,0,0,0)" /><ellipse
       style="fill:#ffffff;fill-opacity:1;stroke:#000000;stroke-width:0.265;stroke-dasharray:none;stroke-opacity:1"
       id="path1-7-2-9-9-1-3"
       cx="21.915182"
       cy="-22.929993"
       rx="0.65429264"
       ry="0.80279088"
       transform="scale(1,-1)" /></g></svg>
