<?xml version="1.0" encoding="UTF-8" standalone="no"?>
<!-- Created with Inkscape (http://www.inkscape.org/) -->

<svg
   width="35mm"
   height="35mm"
   viewBox="0 0 35 35"
   version="1.1"
   id="svg1"
   xml:space="preserve"
   inkscape:version="1.4 (e7c3feb100, 2024-10-09)"
   sodipodi:docname="10_v2.svg"
   xmlns:inkscape="http://www.inkscape.org/namespaces/inkscape"
   xmlns:sodipodi="http://sodipodi.sourceforge.net/DTD/sodipodi-0.dtd"
   xmlns="http://www.w3.org/2000/svg"
   xmlns:svg="http://www.w3.org/2000/svg"><sodipodi:namedview
     id="namedview1"
     pagecolor="#ffffff"
     bordercolor="#000000"
     borderopacity="0.25"
     inkscape:showpageshadow="2"
     inkscape:pageopacity="0.0"
     inkscape:pagecheckerboard="0"
     inkscape:deskcolor="#d1d1d1"
     inkscape:document-units="mm"
     inkscape:zoom="4.2968333"
     inkscape:cx="68.771577"
     inkscape:cy="89.60087"
     inkscape:window-width="1916"
     inkscape:window-height="1023"
     inkscape:window-x="0"
     inkscape:window-y="0"
     inkscape:window-maximized="0"
     inkscape:current-layer="layer1" /><defs
     id="defs1"><inkscape:path-effect
       effect="mirror_symmetry"
       start_point="17.297909,16.234992"
       end_point="17.313303,7.810326"
       center_point="17.305606,12.022659"
       id="path-effect5"
       is_visible="true"
       lpeversion="1.2"
       lpesatellites=""
       mode="free"
       discard_orig_path="false"
       fuse_paths="true"
       oposite_fuse="false"
       split_items="false"
       split_open="false"
       link_styles="false" /><inkscape:path-effect
       effect="mirror_symmetry"
       start_point="17.297909,16.234992"
       end_point="17.313303,7.810326"
       center_point="17.305606,12.022659"
       id="path-effect5-7"
       is_visible="true"
       lpeversion="1.2"
       lpesatellites=""
       mode="free"
       discard_orig_path="false"
       fuse_paths="true"
       oposite_fuse="false"
       split_items="false"
       split_open="false"
       link_styles="false" /><inkscape:path-effect
       effect="mirror_symmetry"
       start_point="17.297909,16.234992"
       end_point="17.313303,7.810326"
       center_point="17.305606,12.022659"
       id="path-effect5-6"
       is_visible="true"
       lpeversion="1.2"
       lpesatellites=""
       mode="free"
       discard_orig_path="false"
       fuse_paths="true"
       oposite_fuse="false"
       split_items="false"
       split_open="false"
       link_styles="false" /><inkscape:path-effect
       effect="mirror_symmetry"
       start_point="17.297909,16.234992"
       end_point="17.313303,7.810326"
       center_point="17.305606,12.022659"
       id="path-effect5-3"
       is_visible="true"
       lpeversion="1.2"
       lpesatellites=""
       mode="free"
       discard_orig_path="false"
       fuse_paths="true"
       oposite_fuse="false"
       split_items="false"
       split_open="false"
       link_styles="false" /><inkscape:path-effect
       effect="mirror_symmetry"
       start_point="17.297909,16.234992"
       end_point="17.313303,7.810326"
       center_point="17.305606,12.022659"
       id="path-effect5-66"
       is_visible="true"
       lpeversion="1.2"
       lpesatellites=""
       mode="free"
       discard_orig_path="false"
       fuse_paths="true"
       oposite_fuse="false"
       split_items="false"
       split_open="false"
       link_styles="false" /><inkscape:path-effect
       effect="mirror_symmetry"
       start_point="17.297909,16.234992"
       end_point="17.313303,7.810326"
       center_point="17.305606,12.022659"
       id="path-effect5-4"
       is_visible="true"
       lpeversion="1.2"
       lpesatellites=""
       mode="free"
       discard_orig_path="false"
       fuse_paths="true"
       oposite_fuse="false"
       split_items="false"
       split_open="false"
       link_styles="false" /><inkscape:path-effect
       effect="mirror_symmetry"
       start_point="17.297909,16.234992"
       end_point="17.313303,7.810326"
       center_point="17.305606,12.022659"
       id="path-effect5-4-7"
       is_visible="true"
       lpeversion="1.2"
       lpesatellites=""
       mode="free"
       discard_orig_path="false"
       fuse_paths="true"
       oposite_fuse="false"
       split_items="false"
       split_open="false"
       link_styles="false" /><inkscape:path-effect
       effect="mirror_symmetry"
       start_point="17.297909,16.234992"
       end_point="17.313303,7.810326"
       center_point="17.305606,12.022659"
       id="path-effect5-41"
       is_visible="true"
       lpeversion="1.2"
       lpesatellites=""
       mode="free"
       discard_orig_path="false"
       fuse_paths="true"
       oposite_fuse="false"
       split_items="false"
       split_open="false"
       link_styles="false" /><inkscape:path-effect
       effect="mirror_symmetry"
       start_point="17.297909,16.234992"
       end_point="17.313303,7.810326"
       center_point="17.305606,12.022659"
       id="path-effect5-62"
       is_visible="true"
       lpeversion="1.2"
       lpesatellites=""
       mode="free"
       discard_orig_path="false"
       fuse_paths="true"
       oposite_fuse="false"
       split_items="false"
       split_open="false"
       link_styles="false" /><inkscape:path-effect
       effect="mirror_symmetry"
       start_point="17.297909,16.234992"
       end_point="17.313303,7.810326"
       center_point="17.305606,12.022659"
       id="path-effect5-4-9"
       is_visible="true"
       lpeversion="1.2"
       lpesatellites=""
       mode="free"
       discard_orig_path="false"
       fuse_paths="true"
       oposite_fuse="false"
       split_items="false"
       split_open="false"
       link_styles="false" /><inkscape:path-effect
       effect="mirror_symmetry"
       start_point="17.493844,16.300304"
       end_point="17.509238,7.875638"
       center_point="17.501541,12.087971"
       id="path-effect5-4-0-9-72-8"
       is_visible="true"
       lpeversion="1.2"
       lpesatellites=""
       mode="free"
       discard_orig_path="false"
       fuse_paths="true"
       oposite_fuse="false"
       split_items="false"
       split_open="false"
       link_styles="false" /><inkscape:path-effect
       effect="mirror_symmetry"
       start_point="17.493844,16.300304"
       end_point="17.509238,7.875638"
       center_point="17.501541,12.087971"
       id="path-effect5-4-0-9-72-8-3"
       is_visible="true"
       lpeversion="1.2"
       lpesatellites=""
       mode="free"
       discard_orig_path="false"
       fuse_paths="true"
       oposite_fuse="false"
       split_items="false"
       split_open="false"
       link_styles="false" /></defs><g
     inkscape:label="Layer 1"
     inkscape:groupmode="layer"
     id="layer1"><path
       style="fill:#999999;fill-opacity:1;stroke:none;stroke-width:0.264999;stroke-dasharray:none;stroke-opacity:1"
       d="m 18.737722,7.1134037 c 0.262338,-0.00397 0.518182,0.082402 0.507812,0.2617188 -0.07244,1.2524069 -0.08092,3.5770765 -0.509765,4.4824215 0.437864,0.679074 2.05357,2.531498 1.758114,3.478713 -0.346628,1.111271 -1.491794,1.672963 -2.41898,2.495728 -0.210587,0.18687 -1.045629,-0.528925 -0.868902,-0.748104 0.785765,-0.974516 2.01416,-1.975583 2.01416,-1.975583 -0.737554,-0.837605 -1.159316,-2.061993 -1.722677,-1.916769 -0.470175,0.225954 -1.752003,1.06296 -2.530837,1.523798 -0.223788,0.720896 -0.597874,1.375499 -0.818195,2.235499 -0.0249,0.280451 -0.957629,0.02023 -0.936721,-0.260538 0.08189,-1.099622 0.417793,-2.149787 0.740217,-2.607721 0.354868,-0.504013 1.867969,-1.538494 2.303348,-2.219163 -0.432152,-0.903772 -0.450328,-3.2302883 -0.527344,-4.4824221 -0.02205,-0.3585544 1.02167,-0.3458071 1.056641,0.011719 0.100734,1.0298107 0.213416,2.7436981 0.427734,2.9062501 0.121107,0.09185 0.211094,0.116149 0.279297,0.105468 0.06824,0.01043 0.16048,-0.01512 0.28125,-0.107422 0.213727,-0.163333 0.321003,-1.8760776 0.417973,-2.9062495 0.01683,-0.1788256 0.284536,-0.2733728 0.546875,-0.2773438 z"
       id="path4-6"
       sodipodi:nodetypes="ssssssscccsscscscsss" /><path
       id="path1-3"
       style="fill:#4d4d4d;fill-opacity:1;stroke:#000000;stroke-width:0.265"
       d="m 15.83744,12.566633 c 0,0.918208 0.744354,2.054432 1.662562,2.054432 0.918208,0 1.662561,-1.136225 1.662561,-2.054432 0,-0.918207 -0.744355,-1.662561 -1.662561,-1.662561 -0.918207,0 -1.662562,0.744353 -1.662562,1.662561 z"
       sodipodi:nodetypes="zzzzz" /><path
       id="path1-7-1-1"
       style="fill:#ffffff;stroke:#000000;stroke-width:0.265;stroke-dasharray:none"
       d="m 18.134196,6.965612 c 0,0.207214 0.227855,0.738307 0.588877,0.738307 0.361023,0 0.627766,-0.541773 0.627766,-0.748987 0,-0.207214 0.07027,-0.385876 -0.627766,-0.364516 -0.69804,0.02136 -0.588877,0.167981 -0.588877,0.375196 z"
       sodipodi:nodetypes="ssszs" /><path
       id="path1-7-1-9-7"
       style="fill:#ffffff;stroke:#000000;stroke-width:0.265;stroke-dasharray:none"
       d="m 15.653099,6.987382 c 0,0.207214 0.227855,0.738307 0.588877,0.738307 0.361023,0 0.627766,-0.541773 0.627766,-0.748987 0,-0.207213 0.07027,-0.385875 -0.627766,-0.364515 -0.69804,0.02136 -0.588877,0.167981 -0.588877,0.375195 z"
       sodipodi:nodetypes="ssszs" /><path
       id="path1-3-0-4-9"
       style="fill:#6666ff;fill-opacity:1;stroke:#000000;stroke-width:0.265"
       d="m 8.182518,16.006435 c 0.795193,-0.459104 2.151368,-0.382586 2.610471,0.412605 0.459105,0.795192 -0.152718,2.007933 -0.947908,2.467036 C 9.049889,19.34518 8.033082,19.072727 7.573979,18.277537 7.114876,17.482346 7.387326,16.465539 8.182518,16.006435 Z"
       sodipodi:nodetypes="zzzzz" /><path
       style="fill:#999999;fill-opacity:1;stroke:none;stroke-width:0.264999;stroke-dasharray:none;stroke-opacity:1"
       d="m 10.232149,18.606209 c 0.443697,-0.131157 0.988592,-0.228134 1.453039,-0.210532 0.739578,-0.499277 1.226329,-1.851323 1.872126,-0.86206 0.341378,0.311518 -0.844548,1.310781 -1.187141,1.600602 C 11.907833,19.525334 9.917095,20.08701 9.375904,19.7794 8.960892,19.543488 8.385152,18.534391 8.092903,17.982957 7.759541,17.455358 7.168443,16.451525 7.16992,15.974147 7.17182,15.351646 7.871985,14.320383 8.294147,13.886209 8.6075,13.563938 10.047675,12.210002 10.270687,12.571395 10.603058,13.11 9.752602,13.731476 9.117053,14.47559 c -0.276938,0.442829 -0.446986,0.774072 -0.503264,1.339261 0.932938,-0.273457 2.130762,-1.504365 3.176634,-2.197129 0.299492,-0.198374 0.876994,0.671133 0.584857,0.880181 -0.420742,0.301065 -0.451063,0.473321 -0.942748,0.679613 -0.283505,0.414625 -0.66335,0.973636 -1.138718,1.336276 0.01043,0.06225 0.03168,0.11404 0.05763,0.158423 0.02563,0.04458 0.956623,0.06892 1.005503,0.108886 0.41021,0.467901 -0.04787,0.498096 -0.803302,1.181158 z"
       id="path4-6-3-2-0-9"
       sodipodi:nodetypes="cccscccssscsscccccc" /><ellipse
       style="fill:#ffffff;fill-opacity:1;stroke:#000000;stroke-width:0.265;stroke-dasharray:none;stroke-opacity:1"
       id="path1-7-2-9-9-1-3-3"
       cx="-12.90905"
       cy="-9.8410606"
       rx="0.65429264"
       ry="0.80279088"
       transform="rotate(-165)" /><path
       id="path1-7-1-1-4-1-4"
       style="fill:#ffffff;stroke:#000000;stroke-width:0.265;stroke-dasharray:none"
       d="m 11.923941,16.832628 c -0.299452,-0.615387 -1.207006,0.115018 -1.385351,0.22052 -0.178341,0.105506 -1.20917,0.240913 -0.774554,0.982352 0.527229,0.899389 2.429609,-0.648617 2.159903,-1.202876 z"
       sodipodi:nodetypes="sszs" /><path
       id="path1-7-1-1-4-5-9-3"
       style="fill:#ffffff;stroke:#000000;stroke-width:0.265;stroke-dasharray:none"
       d="m 13.624418,13.220057 c 0.383214,0.567027 -0.703112,0.987789 -0.883652,1.089489 -0.180543,0.101695 -0.813222,0.926716 -1.238019,0.179608 -0.515278,-0.906289 1.776523,-1.779795 2.121673,-1.269093 z"
       sodipodi:nodetypes="sszs" /><ellipse
       style="fill:#ffffff;fill-opacity:1;stroke:#000000;stroke-width:0.265;stroke-dasharray:none;stroke-opacity:1"
       id="path1-7-2-9-9-1-3-1"
       cx="-20.347073"
       cy="-7.9945068"
       rx="0.65429264"
       ry="0.80279088"
       transform="rotate(-150)" /><path
       style="fill:#999999;fill-opacity:1;stroke:none;stroke-width:0.264999;stroke-dasharray:none;stroke-opacity:1"
       d="m 16.262278,27.886596 c -0.262338,0.004 -0.518182,-0.0824 -0.507812,-0.261719 0.07244,-1.252406 0.08092,-3.577076 0.509765,-4.482421 -0.437864,-0.679074 -2.05357,-2.531498 -1.758114,-3.478713 0.346628,-1.111271 1.491794,-1.672963 2.41898,-2.495728 0.210587,-0.18687 1.045629,0.528925 0.868902,0.748104 -0.785765,0.974516 -2.01416,1.975583 -2.01416,1.975583 0.737554,0.837605 1.159316,2.061993 1.722677,1.916769 0.470175,-0.225954 1.752003,-1.06296 2.530837,-1.523798 0.223788,-0.720896 0.597874,-1.375499 0.818195,-2.235499 0.0249,-0.280451 0.957629,-0.02023 0.936721,0.260538 -0.08189,1.099622 -0.417793,2.149787 -0.740217,2.607721 -0.354868,0.504013 -1.867969,1.538494 -2.303348,2.219163 0.432152,0.903772 0.450328,3.230288 0.527344,4.482422 0.02205,0.358555 -1.02167,0.345807 -1.056641,-0.01172 -0.100734,-1.029811 -0.213416,-2.743698 -0.427734,-2.90625 -0.121107,-0.09185 -0.211094,-0.116149 -0.279297,-0.105468 -0.06824,-0.01043 -0.16048,0.01512 -0.28125,0.107422 -0.213727,0.163333 -0.321003,1.876078 -0.417973,2.906249 -0.01683,0.178826 -0.284536,0.273373 -0.546875,0.277345 z"
       id="path4-6-9"
       sodipodi:nodetypes="ssssssscccsscscscsss" /><path
       id="path1-3-0"
       style="fill:#66ff66;fill-opacity:1;stroke:#000000;stroke-width:0.265"
       d="m 19.16256,22.433367 c 0,-0.918208 -0.744354,-2.054432 -1.662562,-2.054432 -0.918208,0 -1.662561,1.136225 -1.662561,2.054432 0,0.918207 0.744355,1.662561 1.662561,1.662561 0.918207,0 1.662562,-0.744353 1.662562,-1.662561 z"
       sodipodi:nodetypes="zzzzz" /><path
       id="path1-7-1-1-5"
       style="fill:#ffffff;stroke:#000000;stroke-width:0.265;stroke-dasharray:none"
       d="m 16.865804,28.034388 c 0,-0.207214 -0.227855,-0.738307 -0.588877,-0.738307 -0.361023,0 -0.627766,0.541773 -0.627766,0.748987 0,0.207214 -0.07027,0.385876 0.627766,0.364516 0.69804,-0.02136 0.588877,-0.167981 0.588877,-0.375196 z"
       sodipodi:nodetypes="ssszs" /><path
       id="path1-7-1-9-7-6"
       style="fill:#ffffff;stroke:#000000;stroke-width:0.265;stroke-dasharray:none"
       d="m 19.346901,28.012618 c 0,-0.207214 -0.227855,-0.738307 -0.588877,-0.738307 -0.361023,0 -0.627766,0.541773 -0.627766,0.748987 0,0.207213 -0.07027,0.385875 0.627766,0.364515 0.69804,-0.02136 0.588877,-0.167981 0.588877,-0.375195 z"
       sodipodi:nodetypes="ssszs" /><path
       id="path1-3-0-4-9-7"
       style="fill:#ff6666;fill-opacity:1;stroke:#000000;stroke-width:0.265"
       d="m 26.817482,18.993565 c -0.795193,0.459104 -2.151368,0.382586 -2.610471,-0.412605 -0.459105,-0.795192 0.152718,-2.007933 0.947908,-2.467036 0.795192,-0.459104 1.811999,-0.186651 2.271102,0.608539 0.459103,0.795191 0.186653,1.811998 -0.608539,2.271102 z"
       sodipodi:nodetypes="zzzzz" /><path
       style="fill:#999999;fill-opacity:1;stroke:none;stroke-width:0.264999;stroke-dasharray:none;stroke-opacity:1"
       d="m 24.767851,16.393791 c -0.443697,0.131157 -0.988592,0.228134 -1.453039,0.210532 -0.739578,0.499277 -1.226329,1.851323 -1.872126,0.86206 -0.341378,-0.311518 0.844548,-1.310781 1.187141,-1.600602 0.46234,-0.391115 2.453078,-0.952791 2.994269,-0.645181 0.415012,0.235912 0.990752,1.245009 1.283001,1.796443 0.333362,0.527599 0.92446,1.531432 0.922983,2.00881 -0.0019,0.622501 -0.702065,1.653764 -1.124227,2.087938 -0.313353,0.322271 -1.753528,1.676207 -1.97654,1.314814 -0.332371,-0.538605 0.518085,-1.160081 1.153634,-1.904195 0.276938,-0.442829 0.446986,-0.774072 0.503264,-1.339261 -0.932938,0.273457 -2.130762,1.504365 -3.176634,2.197129 -0.299492,0.198374 -0.876994,-0.671133 -0.584857,-0.880181 0.420742,-0.301065 0.451063,-0.473321 0.942748,-0.679613 0.283505,-0.414625 0.66335,-0.973636 1.138718,-1.336276 -0.01043,-0.06225 -0.03168,-0.11404 -0.05763,-0.158423 -0.02563,-0.04458 -0.956623,-0.06892 -1.005503,-0.108886 -0.41021,-0.467901 0.04787,-0.498096 0.803302,-1.181158 z"
       id="path4-6-3-2-0-9-7"
       sodipodi:nodetypes="cccscccssscsscccccc" /><ellipse
       style="fill:#ffffff;fill-opacity:1;stroke:#000000;stroke-width:0.265;stroke-dasharray:none;stroke-opacity:1"
       id="path1-7-2-9-9-1-3-3-4"
       cx="29.95702"
       cy="14.907677"
       rx="0.65429264"
       ry="0.80279088"
       transform="rotate(15)" /><path
       id="path1-7-1-1-4-1-4-0"
       style="fill:#ffffff;stroke:#000000;stroke-width:0.265;stroke-dasharray:none"
       d="m 23.076059,18.167372 c 0.299452,0.615387 1.207006,-0.115018 1.385351,-0.22052 0.178341,-0.105506 1.20917,-0.240913 0.774554,-0.982352 -0.527229,-0.899389 -2.429609,0.648617 -2.159903,1.202876 z"
       sodipodi:nodetypes="sszs" /><path
       id="path1-7-1-1-4-5-9-3-6"
       style="fill:#ffffff;stroke:#000000;stroke-width:0.265;stroke-dasharray:none"
       d="m 21.375582,21.779943 c -0.383214,-0.567027 0.703112,-0.987789 0.883652,-1.089489 0.180543,-0.101695 0.813222,-0.926716 1.238019,-0.179608 0.515278,0.906289 -1.776523,1.779795 -2.121673,1.269093 z"
       sodipodi:nodetypes="sszs" /><ellipse
       style="fill:#ffffff;fill-opacity:1;stroke:#000000;stroke-width:0.265;stroke-dasharray:none;stroke-opacity:1"
       id="path1-7-2-9-9-1-3-1-4"
       cx="27.463816"
       cy="4.8163815"
       rx="0.65429264"
       ry="0.80279088"
       transform="rotate(30)" /><ellipse
       style="fill:#ffffff;fill-opacity:1;stroke:#000000;stroke-width:0.265;stroke-dasharray:none;stroke-opacity:1"
       id="path1-7-2-9-9-1"
       cx="-23.904945"
       cy="6.4051313"
       rx="0.65429264"
       ry="0.80279088"
       transform="rotate(-120)" /></g></svg>
