<?xml version="1.0" encoding="UTF-8" standalone="no"?>
<!-- Created with Inkscape (http://www.inkscape.org/) -->

<svg
   width="35mm"
   height="35mm"
   viewBox="0 0 35 35"
   version="1.1"
   id="svg1"
   xml:space="preserve"
   inkscape:version="1.4.2 (ebf0e940d0, 2025-05-08)"
   sodipodi:docname="10_x2_inter.svg"
   xmlns:inkscape="http://www.inkscape.org/namespaces/inkscape"
   xmlns:sodipodi="http://sodipodi.sourceforge.net/DTD/sodipodi-0.dtd"
   xmlns:xlink="http://www.w3.org/1999/xlink"
   xmlns="http://www.w3.org/2000/svg"
   xmlns:svg="http://www.w3.org/2000/svg"><sodipodi:namedview
     id="namedview1"
     pagecolor="#ffffff"
     bordercolor="#000000"
     borderopacity="0.25"
     inkscape:showpageshadow="2"
     inkscape:pageopacity="0.0"
     inkscape:pagecheckerboard="0"
     inkscape:deskcolor="#d1d1d1"
     inkscape:document-units="mm"
     inkscape:zoom="3.03832"
     inkscape:cx="37.191606"
     inkscape:cy="54.306328"
     inkscape:window-width="1916"
     inkscape:window-height="1021"
     inkscape:window-x="0"
     inkscape:window-y="0"
     inkscape:window-maximized="0"
     inkscape:current-layer="layer1" /><defs
     id="defs1"><inkscape:path-effect
       effect="mirror_symmetry"
       start_point="17.297909,16.234992"
       end_point="17.313303,7.810326"
       center_point="17.305606,12.022659"
       id="path-effect5"
       is_visible="true"
       lpeversion="1.2"
       lpesatellites=""
       mode="free"
       discard_orig_path="false"
       fuse_paths="true"
       oposite_fuse="false"
       split_items="false"
       split_open="false"
       link_styles="false" /><inkscape:path-effect
       effect="mirror_symmetry"
       start_point="17.297909,16.234992"
       end_point="17.313303,7.810326"
       center_point="17.305606,12.022659"
       id="path-effect5-7"
       is_visible="true"
       lpeversion="1.2"
       lpesatellites=""
       mode="free"
       discard_orig_path="false"
       fuse_paths="true"
       oposite_fuse="false"
       split_items="false"
       split_open="false"
       link_styles="false" /><inkscape:path-effect
       effect="mirror_symmetry"
       start_point="17.297909,16.234992"
       end_point="17.313303,7.810326"
       center_point="17.305606,12.022659"
       id="path-effect5-6"
       is_visible="true"
       lpeversion="1.2"
       lpesatellites=""
       mode="free"
       discard_orig_path="false"
       fuse_paths="true"
       oposite_fuse="false"
       split_items="false"
       split_open="false"
       link_styles="false" /><inkscape:path-effect
       effect="mirror_symmetry"
       start_point="17.297909,16.234992"
       end_point="17.313303,7.810326"
       center_point="17.305606,12.022659"
       id="path-effect5-3"
       is_visible="true"
       lpeversion="1.2"
       lpesatellites=""
       mode="free"
       discard_orig_path="false"
       fuse_paths="true"
       oposite_fuse="false"
       split_items="false"
       split_open="false"
       link_styles="false" /><inkscape:path-effect
       effect="mirror_symmetry"
       start_point="17.297909,16.234992"
       end_point="17.313303,7.810326"
       center_point="17.305606,12.022659"
       id="path-effect5-66"
       is_visible="true"
       lpeversion="1.2"
       lpesatellites=""
       mode="free"
       discard_orig_path="false"
       fuse_paths="true"
       oposite_fuse="false"
       split_items="false"
       split_open="false"
       link_styles="false" /><inkscape:path-effect
       effect="mirror_symmetry"
       start_point="17.297909,16.234992"
       end_point="17.313303,7.810326"
       center_point="17.305606,12.022659"
       id="path-effect5-4"
       is_visible="true"
       lpeversion="1.2"
       lpesatellites=""
       mode="free"
       discard_orig_path="false"
       fuse_paths="true"
       oposite_fuse="false"
       split_items="false"
       split_open="false"
       link_styles="false" /><inkscape:path-effect
       effect="mirror_symmetry"
       start_point="17.297909,16.234992"
       end_point="17.313303,7.810326"
       center_point="17.305606,12.022659"
       id="path-effect5-4-7"
       is_visible="true"
       lpeversion="1.2"
       lpesatellites=""
       mode="free"
       discard_orig_path="false"
       fuse_paths="true"
       oposite_fuse="false"
       split_items="false"
       split_open="false"
       link_styles="false" /><inkscape:path-effect
       effect="mirror_symmetry"
       start_point="17.297909,16.234992"
       end_point="17.313303,7.810326"
       center_point="17.305606,12.022659"
       id="path-effect5-41"
       is_visible="true"
       lpeversion="1.2"
       lpesatellites=""
       mode="free"
       discard_orig_path="false"
       fuse_paths="true"
       oposite_fuse="false"
       split_items="false"
       split_open="false"
       link_styles="false" /><inkscape:path-effect
       effect="mirror_symmetry"
       start_point="17.297909,16.234992"
       end_point="17.313303,7.810326"
       center_point="17.305606,12.022659"
       id="path-effect5-62"
       is_visible="true"
       lpeversion="1.2"
       lpesatellites=""
       mode="free"
       discard_orig_path="false"
       fuse_paths="true"
       oposite_fuse="false"
       split_items="false"
       split_open="false"
       link_styles="false" /><inkscape:path-effect
       effect="mirror_symmetry"
       start_point="17.297909,16.234992"
       end_point="17.313303,7.810326"
       center_point="17.305606,12.022659"
       id="path-effect5-4-9"
       is_visible="true"
       lpeversion="1.2"
       lpesatellites=""
       mode="free"
       discard_orig_path="false"
       fuse_paths="true"
       oposite_fuse="false"
       split_items="false"
       split_open="false"
       link_styles="false" /><inkscape:path-effect
       effect="mirror_symmetry"
       start_point="17.493844,16.300304"
       end_point="17.509238,7.875638"
       center_point="17.501541,12.087971"
       id="path-effect5-4-0-9-72-8"
       is_visible="true"
       lpeversion="1.2"
       lpesatellites=""
       mode="free"
       discard_orig_path="false"
       fuse_paths="true"
       oposite_fuse="false"
       split_items="false"
       split_open="false"
       link_styles="false" /><inkscape:path-effect
       effect="mirror_symmetry"
       start_point="17.493844,16.300304"
       end_point="17.509238,7.875638"
       center_point="17.501541,12.087971"
       id="path-effect5-4-0-9-72-8-3"
       is_visible="true"
       lpeversion="1.2"
       lpesatellites=""
       mode="free"
       discard_orig_path="false"
       fuse_paths="true"
       oposite_fuse="false"
       split_items="false"
       split_open="false"
       link_styles="false" /><inkscape:path-effect
       effect="mirror_symmetry"
       start_point="17.493844,16.300304"
       end_point="17.509238,7.875638"
       center_point="17.501541,12.087971"
       id="path-effect5-4-0-9-5-7"
       is_visible="true"
       lpeversion="1.2"
       lpesatellites=""
       mode="free"
       discard_orig_path="false"
       fuse_paths="true"
       oposite_fuse="false"
       split_items="false"
       split_open="false"
       link_styles="false" /><inkscape:path-effect
       effect="mirror_symmetry"
       start_point="17.493844,16.300304"
       end_point="17.509238,7.875638"
       center_point="17.501541,12.087971"
       id="path-effect5-4-0-9-5-7-4"
       is_visible="true"
       lpeversion="1.2"
       lpesatellites=""
       mode="free"
       discard_orig_path="false"
       fuse_paths="true"
       oposite_fuse="false"
       split_items="false"
       split_open="false"
       link_styles="false" /><inkscape:path-effect
       effect="mirror_symmetry"
       start_point="17.297909,16.234992"
       end_point="17.313303,7.810326"
       center_point="17.305606,12.022659"
       id="path-effect5-4-78"
       is_visible="true"
       lpeversion="1.2"
       lpesatellites=""
       mode="free"
       discard_orig_path="false"
       fuse_paths="true"
       oposite_fuse="false"
       split_items="false"
       split_open="false"
       link_styles="false" /><inkscape:path-effect
       effect="mirror_symmetry"
       start_point="17.493844,16.300304"
       end_point="17.509238,7.875638"
       center_point="17.501541,12.087971"
       id="path-effect5-4-0-9-5-7-9"
       is_visible="true"
       lpeversion="1.2"
       lpesatellites=""
       mode="free"
       discard_orig_path="false"
       fuse_paths="true"
       oposite_fuse="false"
       split_items="false"
       split_open="false"
       link_styles="false" /><inkscape:path-effect
       effect="mirror_symmetry"
       start_point="17.493844,16.300304"
       end_point="17.509238,7.875638"
       center_point="17.501541,12.087971"
       id="path-effect5-4-0-9-5-7-3"
       is_visible="true"
       lpeversion="1.2"
       lpesatellites=""
       mode="free"
       discard_orig_path="false"
       fuse_paths="true"
       oposite_fuse="false"
       split_items="false"
       split_open="false"
       link_styles="false" /><linearGradient
       inkscape:collect="always"
       xlink:href="#linearGradient7"
       id="linearGradient6"
       gradientUnits="userSpaceOnUse"
       gradientTransform="matrix(-0.25881905,-0.96592582,-1.0457105,0.28019729,40.648589,25.736722)"
       x1="10.647268"
       y1="16.557198"
       x2="18.301222"
       y2="15.409434" /><linearGradient
       id="linearGradient7"
       inkscape:collect="always"><stop
         style="stop-color:#4d4d4d;stop-opacity:0.74901962;"
         offset="0"
         id="stop6" /><stop
         style="stop-color:#4d4d4d;stop-opacity:0;"
         offset="1"
         id="stop7" /></linearGradient><linearGradient
       inkscape:collect="always"
       xlink:href="#linearGradient5"
       id="linearGradient4"
       gradientUnits="userSpaceOnUse"
       gradientTransform="matrix(0.25881905,0.96592582,1.0457105,-0.28019729,-5.519445,9.3206911)"
       x1="10.647268"
       y1="16.557198"
       x2="18.301222"
       y2="15.409434" /><linearGradient
       id="linearGradient5"
       inkscape:collect="always"><stop
         style="stop-color:#66ff66;stop-opacity:0.74901962;"
         offset="0"
         id="stop4" /><stop
         style="stop-color:#66ff66;stop-opacity:0;"
         offset="1"
         id="stop5" /></linearGradient><linearGradient
       inkscape:collect="always"
       xlink:href="#linearGradient6-8"
       id="linearGradient3"
       gradientUnits="userSpaceOnUse"
       gradientTransform="matrix(-0.70710678,-0.70710678,-0.76551324,0.76551324,28.804797,14.665997)"
       x1="10.647268"
       y1="16.557198"
       x2="14.058385"
       y2="12.39106" /><linearGradient
       id="linearGradient6-8"
       inkscape:collect="always"><stop
         style="stop-color:#6666ff;stop-opacity:0.74901962;"
         offset="0"
         id="stop3" /><stop
         style="stop-color:#6666ff;stop-opacity:0;"
         offset="1"
         id="stop6-6" /></linearGradient><linearGradient
       inkscape:collect="always"
       xlink:href="#linearGradient10"
       id="linearGradient1"
       gradientUnits="userSpaceOnUse"
       gradientTransform="matrix(0.70710678,0.70710678,0.76551324,-0.76551324,5.92813,20.08929)"
       x1="10.647268"
       y1="16.557198"
       x2="14.696174"
       y2="14.776537" /><linearGradient
       id="linearGradient10"
       inkscape:collect="always"><stop
         style="stop-color:#ff6666;stop-opacity:0.74901962;"
         offset="0"
         id="stop9" /><stop
         style="stop-color:#ff6666;stop-opacity:0;"
         offset="1"
         id="stop10" /></linearGradient><marker
       style="overflow:visible"
       id="RoundedArrow"
       refX="0"
       refY="0"
       orient="auto-start-reverse"
       inkscape:stockid="Rounded arrow"
       markerWidth="1"
       markerHeight="1"
       viewBox="0 0 1 1"
       inkscape:isstock="true"
       inkscape:collect="always"
       preserveAspectRatio="xMidYMid"><path
         transform="scale(0.7)"
         d="m -0.21114562,-4.1055728 6.42229122,3.21114561 a 1,1 90 0 1 0,1.78885438 L -0.21114562,4.1055728 A 1.236068,1.236068 31.717474 0 1 -2,3 v -6 a 1.236068,1.236068 148.28253 0 1 1.78885438,-1.1055728 z"
         style="fill:context-stroke;fill-rule:evenodd;stroke:none"
         id="path8" /></marker><marker
       style="overflow:visible"
       id="RoundedArrow-2"
       refX="0"
       refY="0"
       orient="auto-start-reverse"
       inkscape:stockid="Rounded arrow"
       markerWidth="1"
       markerHeight="1"
       viewBox="0 0 1 1"
       inkscape:isstock="true"
       inkscape:collect="always"
       preserveAspectRatio="xMidYMid"><path
         transform="scale(0.7)"
         d="m -0.21114562,-4.1055728 6.42229122,3.21114561 a 1,1 90 0 1 0,1.78885438 L -0.21114562,4.1055728 A 1.236068,1.236068 31.717474 0 1 -2,3 v -6 a 1.236068,1.236068 148.28253 0 1 1.78885438,-1.1055728 z"
         style="fill:context-stroke;fill-rule:evenodd;stroke:none"
         id="path8-8" /></marker></defs><g
     inkscape:label="Layer 1"
     inkscape:groupmode="layer"
     id="layer1"><path
       id="path1-3-0"
       style="fill:#6666ff;fill-opacity:1;stroke:#000000;stroke-width:0.265"
       d="m 8.145258,18.851593 c 0.918212,0 2.054433,0.744355 2.054434,1.662565 0,0.918208 -1.136226,1.662561 -2.054433,1.662561 -0.918207,-2e-6 -1.662561,-0.744357 -1.662563,-1.662563 2e-6,-0.918207 0.744356,-1.66256 1.662562,-1.662563 z"
       sodipodi:nodetypes="zzzzz" /><path
       id="path1-3-1-5-8-0-8-0-6"
       style="fill:url(#linearGradient3);fill-opacity:1;stroke:none;stroke-width:0.265"
       d="m 9.864647,14.092091 c 0.204956,0.992018 -0.311263,4.292717 0.106034,6.020871 -0.03792,0.956125 -2.327712,0.640044 -3.283839,0.677969 -0.584526,-1.893865 1.504773,-6.21602 2.076499,-6.931943 0.571726,-0.715922 0.896351,-0.758915 1.101306,0.233103 z"
       sodipodi:nodetypes="zcczz" /><path
       id="path1-3-0-2"
       style="fill:#ff6666;fill-opacity:1;stroke:#000000;stroke-width:0.265"
       d="m 26.766482,15.938313 c -0.918211,0 -2.054432,-0.744354 -2.054432,-1.662565 -1e-6,-0.918207 1.136225,-1.662561 2.054431,-1.66256 0.918207,1e-6 1.662563,0.744356 1.662563,1.662562 -1e-6,0.918207 -0.744356,1.66256 -1.662562,1.662563 z"
       sodipodi:nodetypes="zzzzz" /><path
       id="path1-3-1-5-8-0-8-0-6-0"
       style="fill:url(#linearGradient1);fill-opacity:1;stroke:none;stroke-width:0.265"
       d="m 26.78153,18.524953 c -0.823798,-2.706782 -1.007152,-1.943577 -1.771213,-3.419443 0.03792,-0.956125 2.318852,-1.009562 3.274981,-1.047482 0.584525,1.893864 0.362493,3.039851 0.116333,4.019155 -0.24616,0.979304 -0.770573,3.570045 -1.620101,0.44777 z"
       sodipodi:nodetypes="zcczz" /><path
       style="fill:#999999;fill-opacity:1;stroke:none;stroke-width:0.264999;stroke-dasharray:none;stroke-opacity:1"
       d="M 16.055539,9.2515918 C 15.830348,9.1169606 15.565579,9.0638653 15.4849,9.2243398 c -0.563469,1.1208362 -1.71846,3.1383012 -1.799741,4.1367742 -0.718739,0.369164 -1.171927,-0.871622 -2.045541,-0.401187 -0.757663,0.407997 -0.738342,1.977544 -0.43738,2.45385 0.150396,0.238009 1.135161,0.109591 1.038973,-0.155021 -0.223189,-0.613999 -0.173511,-0.634414 -0.119656,-1.206644 0.512966,0.02965 1.420294,0.978597 1.98657,1.052965 0.506943,0.298688 -0.251153,1.191468 -0.534122,2.060754 -0.589627,-0.08903 -0.993216,-0.0247 -1.885347,0.04638 -0.118656,0.255326 -0.240017,1.064448 0.100214,1.072257 0.935759,0.02148 2.011196,0.03835 2.397071,-0.276952 0.461667,-0.377235 1.681145,-2.593913 1.644423,-3.401086 0.826141,-0.566612 2.00514,-2.572347 2.697907,-3.618218 0.198372,-0.299494 -0.71189,-0.810313 -0.92094,-0.518172 -0.602144,0.841475 -1.556671,2.269403 -1.823555,2.30302 -0.150801,0.01898 -0.240885,-0.005 -0.294611,-0.04831 -0.06432,-0.0251 -0.13142,-0.09333 -0.18986,-0.233653 -0.103415,-0.248325 0.660052,-1.785241 1.091158,-2.7258824 0.07484,-0.1632811 -0.109734,-0.379012 -0.334935,-0.5136223 z"
       id="path4-4-5"
       sodipodi:nodetypes="ssscssccccsscscscssss" /><path
       id="path1-9-9"
       style="fill:#66ff66;fill-opacity:1;stroke:#000000;stroke-width:0.265"
       d="m 13.017238,13.794279 c -0.459104,0.79519 -0.382586,2.151366 0.412604,2.61047 0.795192,0.459103 2.007934,-0.152719 2.467038,-0.947909 0.459103,-0.79519 0.186649,-1.811996 -0.608541,-2.2711 -0.795191,-0.459103 -1.811998,-0.186652 -2.271101,0.608539 z"
       sodipodi:nodetypes="zzzzz" /><path
       id="path1-7-1-2-6"
       style="fill:#ffffff;stroke:#000000;stroke-width:0.265;stroke-dasharray:none"
       d="m 17.837102,10.084386 c -0.103607,0.179455 -0.171829,0.75332 0.140831,0.933833 0.312654,0.180511 0.814547,-0.155302 0.918152,-0.334762 0.103606,-0.179454 0.253794,-0.299045 -0.361402,-0.629564 -0.6152,-0.3305219 -0.593962,-0.1490057 -0.697582,0.03049 z"
       sodipodi:nodetypes="ssszs" /><path
       id="path1-7-1-9-0-2"
       style="fill:#ffffff;stroke:#000000;stroke-width:0.265;stroke-dasharray:none"
       d="M 15.677524,8.8626916 C 15.573917,9.0421456 15.505696,9.61601 15.818353,9.7965229 16.131008,9.9770346 16.632903,9.6412204 16.736507,9.4617607 16.840113,9.282309 16.990301,9.1627183 16.375104,8.8321984 15.759903,8.5016756 15.781141,8.6831924 15.677523,8.8626874 Z"
       sodipodi:nodetypes="ssszs" /><ellipse
       style="fill:#ffffff;fill-opacity:1;stroke:#000000;stroke-width:0.265;stroke-dasharray:none;stroke-opacity:1"
       id="path1-7-2-9-9-1-6-1"
       cx="8.1302538"
       cy="17.826828"
       rx="0.65429264"
       ry="0.80279088"
       transform="rotate(-12.38759)" /><path
       style="fill:#999999;fill-opacity:1;stroke:none;stroke-width:0.264999;stroke-dasharray:none;stroke-opacity:1"
       d="m 18.856203,25.538313 c 0.225192,0.134632 0.48996,0.187728 0.570639,0.02725 0.563468,-1.120836 1.71846,-3.138302 1.79974,-4.136773 0.718739,-0.369164 1.171928,0.871622 2.045542,0.401185 0.757663,-0.407997 0.738342,-1.977541 0.437381,-2.453848 -0.150396,-0.238011 -1.135163,-0.109591 -1.038975,0.155021 0.223191,0.613999 0.173511,0.634413 0.119656,1.206643 -0.512964,-0.02965 -1.420292,-0.978598 -1.986569,-1.052965 -0.506943,-0.298688 0.251153,-1.191469 0.534122,-2.060754 0.589626,0.08903 0.993215,0.02469 1.885346,-0.04638 0.118656,-0.255326 0.240018,-1.064447 -0.100213,-1.072256 -0.93576,-0.02148 -2.011196,-0.03835 -2.397073,0.27695 -0.461665,0.377236 -1.681144,2.593915 -1.644422,3.401087 -0.82614,0.566613 -2.005138,2.572346 -2.697907,3.618219 -0.198373,0.299493 0.711892,0.810312 0.92094,0.518171 0.602145,-0.841475 1.556672,-2.269404 1.823555,-2.30302 0.150801,-0.01898 0.240885,0.005 0.294611,0.04831 0.06432,0.0251 0.131421,0.09333 0.189861,0.233652 0.103416,0.248326 -0.660052,1.785242 -1.09116,2.725884 -0.07484,0.163281 0.109735,0.379012 0.334936,0.513622 z"
       id="path4-4-5-7"
       sodipodi:nodetypes="ssscssccccsscscscssss" /><path
       id="path1-9-9-2"
       style="fill:#4d4d4d;fill-opacity:1;stroke:#000000;stroke-width:0.265"
       d="m 21.894504,20.995627 c 0.459104,-0.795191 0.382585,-2.151367 -0.412603,-2.61047 -0.795193,-0.459104 -2.007936,0.15272 -2.467038,0.947908 -0.459102,0.795191 -0.186649,1.811998 0.608539,2.271101 0.795194,0.459103 1.811998,0.186652 2.271102,-0.608539 z"
       sodipodi:nodetypes="zzzzz" /><path
       id="path1-7-1-2-6-6"
       style="fill:#ffffff;stroke:#000000;stroke-width:0.265;stroke-dasharray:none"
       d="m 17.07464,24.70552 c 0.103607,-0.179456 0.171828,-0.75332 -0.14083,-0.933832 -0.312654,-0.180512 -0.814549,0.155302 -0.918152,0.334761 -0.103607,0.179455 -0.253794,0.299044 0.361402,0.629564 0.6152,0.330522 0.593961,0.149006 0.697581,-0.03049 z"
       sodipodi:nodetypes="ssszs" /><path
       id="path1-7-1-9-0-2-4"
       style="fill:#ffffff;stroke:#000000;stroke-width:0.265;stroke-dasharray:none"
       d="m 19.234218,25.927213 c 0.103607,-0.179454 0.171828,-0.753317 -0.14083,-0.93383 -0.312653,-0.180511 -0.814547,0.155303 -0.918152,0.334763 -0.103606,0.179452 -0.253794,0.299041 0.361402,0.62956 0.615201,0.330523 0.593963,0.149006 0.697581,-0.03049 z"
       sodipodi:nodetypes="ssszs" /><ellipse
       style="fill:#ffffff;fill-opacity:1;stroke:#000000;stroke-width:0.265;stroke-dasharray:none;stroke-opacity:1"
       id="path1-7-2-9-9-1-6-1-5"
       cx="-18.505436"
       cy="-23.642519"
       rx="0.65429264"
       ry="0.80279088"
       transform="rotate(167.61241)" /><path
       style="fill:#999999;fill-opacity:1;stroke:none;stroke-width:0.264999;stroke-dasharray:none;stroke-opacity:1"
       d="m 16.191406,8.9042969 c -0.292488,-0.00827 -0.617135,0.09905 -0.605468,0.3007812 0.07244,1.2524069 0.553411,3.1382009 0.320312,4.0820309 -0.120106,-0.27365 -0.294555,-0.773353 -0.566406,-1.144531 0.09834,-0.544588 0.0762,-1.898714 -0.416016,-1.933594 -1.02704,-0.07279 -0.519195,2.170074 -0.447265,2.554688 0.07753,0.414549 0.906173,1.730579 1.164062,1.787109 0.485265,0.106378 1.335063,0.124264 1.855469,0.123047 0.520398,0.0031 1.371771,-0.01063 1.857422,-0.115234 0.258093,-0.05559 1.090876,-1.36894 1.169921,-1.783203 0.07334,-0.384349 0.5898,-2.625677 -0.4375,-2.556641 -0.492341,0.03308 -0.518224,1.386697 -0.421875,1.931641 -0.273205,0.370182 -0.449207,0.869369 -0.570312,1.142578 -0.229648,-0.944676 0.256969,-2.827944 0.333984,-4.0800784 0.02205,-0.3585544 -1.019715,-0.4239314 -1.054687,-0.066406 -0.05036,0.5149057 -0.184378,0.6272927 -0.117188,1.1562496 -0.217322,0.452837 -0.511517,1.061298 -0.58789,1.654297 -0.05913,0.02209 -0.114606,0.02958 -0.166016,0.0293 -0.05141,9.3e-5 -0.106965,-0.0089 -0.166016,-0.03125 -0.07421,-0.593274 -0.366365,-1.200669 -0.582031,-1.654297 0.06912,-0.5287079 -0.0648,-0.6411634 -0.113281,-1.1562497 -0.01473,-0.1564722 -0.221728,-0.2338059 -0.449219,-0.2402344 z"
       id="path4-6-3-2-0"
       sodipodi:nodetypes="sccscccccsss"
       transform="matrix(0,1,1,0,13.234694,-3.2246917)"
       inkscape:original-d="m 14.924313,10.209901 c 0.492217,0.03488 0.51354,1.387545 0.4152,1.932133 0.271851,0.371178 0.44621,0.871112 0.566316,1.144762 0.233099,-0.94383 -0.2482,-2.828724 -0.320639,-4.081131 -0.02074,-0.3586326 1.022151,-0.4192286 1.055816,-0.061578 0.04848,0.5150863 0.182149,0.6270618 0.113026,1.15577 0.215666,0.453628 0.5075,1.06247 0.581706,1.655744 0.335179,0.12662 0.556797,-0.171236 0.556797,-0.171236 l 0.05085,2.882759 c 0,0 -1.568763,0.04531 -2.3026,-0.115559 -0.257889,-0.05653 -1.085797,-1.373618 -1.163328,-1.788167 -0.07193,-0.384614 -0.580184,-2.626287 0.446856,-2.553497 z"
       inkscape:path-effect="#path-effect5-4-0-9-5-7-3" /><path
       id="path1-7-1-1-4-2"
       style="fill:#ffffff;stroke:#000000;stroke-width:0.265;stroke-dasharray:none"
       d="m 20.66047,12.921062 c -0.04836,0.682667 1.102806,0.503897 1.310009,0.501701 0.207196,-0.0022 1.167629,0.395946 1.16196,-0.463465 -0.0069,-1.042508 -2.428414,-0.653073 -2.471969,-0.03823 z"
       sodipodi:nodetypes="sszs" /><ellipse
       style="fill:#ffffff;fill-opacity:1;stroke:#000000;stroke-width:0.265;stroke-dasharray:none;stroke-opacity:1"
       id="path1-7-2-9-9-8-7-0"
       cx="-17.132065"
       cy="23.36949"
       rx="0.65429264"
       ry="0.80279088"
       transform="rotate(-90)" /><ellipse
       style="fill:#ffffff;fill-opacity:1;stroke:#000000;stroke-width:0.265;stroke-dasharray:none;stroke-opacity:1"
       id="path1-7-2-9-9-9"
       cx="11.537269"
       cy="-23.254526"
       rx="0.65429264"
       ry="0.80279088"
       transform="rotate(90)" /><path
       id="path1-3-1-5-8-0"
       style="fill:url(#linearGradient4);fill-opacity:1;stroke:none;stroke-width:0.265"
       d="m 16.169853,22.40542 c -0.803794,0.977704 -2.030552,3.576669 -1.674592,0.555267 0.355957,-3.021404 -1.396628,-6.636565 -1.556741,-7.491223 0.510905,-0.809071 2.108727,-1.715943 2.955719,-1.27072 0.203428,0.775436 1.079407,7.228971 0.275614,8.206676 z"
       sodipodi:nodetypes="zzccz" /><path
       id="path1-3-1-5-8-0-6"
       style="fill:url(#linearGradient6);fill-opacity:1;stroke:none;stroke-width:0.265"
       d="m 18.959295,12.651994 c 0.803793,-0.977704 2.03055,-3.576671 1.674591,-0.555266 -0.355957,3.021404 1.161065,6.386176 1.321178,7.240834 -0.510905,0.80907 -2.124654,1.667331 -2.971647,1.222103 -0.203429,-0.775436 -0.827916,-6.92997 -0.02412,-7.907675 z"
       sodipodi:nodetypes="zzcczz" /><path
       style="fill:#999999;fill-opacity:1;stroke:none;stroke-width:0.264999;stroke-dasharray:none;stroke-opacity:1"
       d="m 16.191406,8.9042969 c -0.292488,-0.00827 -0.617135,0.09905 -0.605468,0.3007812 0.07244,1.2524069 0.553411,3.1382009 0.320312,4.0820309 -0.120106,-0.27365 -0.294555,-0.773353 -0.566406,-1.144531 0.09834,-0.544588 0.0762,-1.898714 -0.416016,-1.933594 -1.02704,-0.07279 -0.519195,2.170074 -0.447265,2.554688 0.07753,0.414549 0.906173,1.730579 1.164062,1.787109 0.485265,0.106378 1.335063,0.124264 1.855469,0.123047 0.520398,0.0031 1.371771,-0.01063 1.857422,-0.115234 0.258093,-0.05559 1.090876,-1.36894 1.169921,-1.783203 0.07334,-0.384349 0.5898,-2.625677 -0.4375,-2.556641 -0.492341,0.03308 -0.518224,1.386697 -0.421875,1.931641 -0.273205,0.370182 -0.449207,0.869369 -0.570312,1.142578 -0.229648,-0.944676 0.256969,-2.827944 0.333984,-4.0800784 0.02205,-0.3585544 -1.019715,-0.4239314 -1.054687,-0.066406 -0.05036,0.5149057 -0.184378,0.6272927 -0.117188,1.1562496 -0.217322,0.452837 -0.511517,1.061298 -0.58789,1.654297 -0.05913,0.02209 -0.114606,0.02958 -0.166016,0.0293 -0.05141,9.3e-5 -0.106965,-0.0089 -0.166016,-0.03125 -0.07421,-0.593274 -0.366365,-1.200669 -0.582031,-1.654297 0.06912,-0.5287079 -0.0648,-0.6411634 -0.113281,-1.1562497 -0.01473,-0.1564722 -0.221728,-0.2338059 -0.449219,-0.2402344 z"
       id="path4-6-3-2"
       sodipodi:nodetypes="sccscccccsss"
       transform="matrix(0,-1,-1,0,21.677044,38.014596)"
       inkscape:original-d="m 14.924313,10.209901 c 0.492217,0.03488 0.51354,1.387545 0.4152,1.932133 0.271851,0.371178 0.44621,0.871112 0.566316,1.144762 0.233099,-0.94383 -0.2482,-2.828724 -0.320639,-4.081131 -0.02074,-0.3586326 1.022151,-0.4192286 1.055816,-0.061578 0.04848,0.5150863 0.182149,0.6270618 0.113026,1.15577 0.215666,0.453628 0.5075,1.06247 0.581706,1.655744 0.335179,0.12662 0.556797,-0.171236 0.556797,-0.171236 l 0.05085,2.882759 c 0,0 -1.568763,0.04531 -2.3026,-0.115559 -0.257889,-0.05653 -1.085797,-1.373618 -1.163328,-1.788167 -0.07193,-0.384614 -0.580184,-2.626287 0.446856,-2.553497 z"
       inkscape:path-effect="#path-effect5-4-0-9-5-7" /><ellipse
       style="fill:#ffffff;fill-opacity:1;stroke:#000000;stroke-width:0.265;stroke-dasharray:none;stroke-opacity:1"
       id="path1-7-2-9-9"
       cx="-23.252644"
       cy="11.657221"
       rx="0.65429264"
       ry="0.80279088"
       transform="rotate(-90)" /><ellipse
       style="fill:#ffffff;fill-opacity:1;stroke:#000000;stroke-width:0.265;stroke-dasharray:none;stroke-opacity:1"
       id="path1-7-2-9-9-8-7"
       cx="17.657845"
       cy="-11.542257"
       rx="0.65429264"
       ry="0.80279088"
       transform="rotate(90)" /><path
       id="path2"
       style="fill:none;stroke:#000000;stroke-width:0.2;stroke-dasharray:none;stroke-opacity:1;marker-end:url(#RoundedArrow)"
       d="m 23.906234,23.72655 c 1.31693,-0.224266 4.614529,-1.669697 5.328221,-5.489899"
       sodipodi:nodetypes="cc" /><text
       xml:space="preserve"
       style="font-size:3.175px;text-align:start;writing-mode:lr-tb;direction:ltr;text-anchor:start;fill:#000000;fill-opacity:1;stroke:none;stroke-width:0.2;stroke-dasharray:none;stroke-opacity:1"
       x="27.171143"
       y="25.05924"
       id="text5"><tspan
         sodipodi:role="line"
         id="tspan5"
         style="font-style:normal;font-variant:normal;font-weight:bold;font-stretch:normal;font-family:'Bitstream Vera Sans';-inkscape-font-specification:'Bitstream Vera Sans Bold';fill:#000000;fill-opacity:1;stroke:none;stroke-width:0.2"
         x="27.171143"
         y="25.05924">360</tspan></text><path
       id="path1-7-1-1-4-5-9"
       style="fill:#ffffff;stroke:#000000;stroke-width:0.265;stroke-dasharray:none"
       d="m 20.66047,15.630436 c -0.04836,-0.682667 1.102807,-0.503897 1.310008,-0.501699 0.207197,0.0022 1.167631,-0.395946 1.16196,0.463463 -0.0069,1.042509 -2.428415,0.653073 -2.471969,0.03823 z"
       sodipodi:nodetypes="sszs" /><path
       id="path1-7-1-1-4-5"
       style="fill:#ffffff;stroke:#000000;stroke-width:0.265;stroke-dasharray:none"
       d="m 14.251271,19.15947 c 0.04836,0.682667 -1.102806,0.503896 -1.310008,0.501699 -0.207197,-0.0022 -1.16763,0.395947 -1.161959,-0.463464 0.0069,-1.042508 2.428415,-0.653073 2.471969,-0.03823 z"
       sodipodi:nodetypes="sszs" /><path
       id="path1-7-1-1-4"
       style="fill:#ffffff;stroke:#000000;stroke-width:0.265;stroke-dasharray:none"
       d="m 14.251272,21.868844 c 0.04836,-0.682667 -1.102807,-0.503897 -1.310008,-0.5017 -0.207197,0.0022 -1.167631,-0.395946 -1.161962,0.463466 0.0069,1.042506 2.428416,0.653073 2.471971,0.03823 z"
       sodipodi:nodetypes="sszs" /><path
       id="path2-6"
       style="fill:none;stroke:#000000;stroke-width:0.2;stroke-dasharray:none;stroke-opacity:1;marker-end:url(#RoundedArrow-2)"
       d="m 11.093766,11.27345 c -1.31693,0.224266 -4.61453,1.669697 -5.328222,5.489899"
       sodipodi:nodetypes="cc" /><text
       xml:space="preserve"
       style="font-size:3.175px;text-align:start;writing-mode:lr-tb;direction:ltr;text-anchor:start;fill:#000000;fill-opacity:1;stroke:none;stroke-width:0.2;stroke-dasharray:none;stroke-opacity:1"
       x="1.1408949"
       y="12.781408"
       id="text5-0"><tspan
         sodipodi:role="line"
         id="tspan5-7"
         style="font-style:normal;font-variant:normal;font-weight:bold;font-stretch:normal;font-family:'Bitstream Vera Sans';-inkscape-font-specification:'Bitstream Vera Sans Bold';fill:#000000;fill-opacity:1;stroke:none;stroke-width:0.2"
         x="1.1408949"
         y="12.781408">360</tspan></text></g></svg>
