<?xml version="1.0" encoding="UTF-8" standalone="no"?>
<!-- Created with Inkscape (http://www.inkscape.org/) -->

<svg
   width="35mm"
   height="35mm"
   viewBox="0 0 35 35"
   version="1.1"
   id="svg1"
   xml:space="preserve"
   inkscape:version="1.4 (e7c3feb100, 2024-10-09)"
   sodipodi:docname="10_v1.svg"
   xmlns:inkscape="http://www.inkscape.org/namespaces/inkscape"
   xmlns:sodipodi="http://sodipodi.sourceforge.net/DTD/sodipodi-0.dtd"
   xmlns="http://www.w3.org/2000/svg"
   xmlns:svg="http://www.w3.org/2000/svg"><sodipodi:namedview
     id="namedview1"
     pagecolor="#ffffff"
     bordercolor="#000000"
     borderopacity="0.25"
     inkscape:showpageshadow="2"
     inkscape:pageopacity="0.0"
     inkscape:pagecheckerboard="0"
     inkscape:deskcolor="#d1d1d1"
     inkscape:document-units="mm"
     inkscape:zoom="4.2968333"
     inkscape:cx="68.771577"
     inkscape:cy="89.60087"
     inkscape:window-width="1916"
     inkscape:window-height="1023"
     inkscape:window-x="0"
     inkscape:window-y="0"
     inkscape:window-maximized="0"
     inkscape:current-layer="layer1" /><defs
     id="defs1"><inkscape:path-effect
       effect="mirror_symmetry"
       start_point="17.297909,16.234992"
       end_point="17.313303,7.810326"
       center_point="17.305606,12.022659"
       id="path-effect5"
       is_visible="true"
       lpeversion="1.2"
       lpesatellites=""
       mode="free"
       discard_orig_path="false"
       fuse_paths="true"
       oposite_fuse="false"
       split_items="false"
       split_open="false"
       link_styles="false" /><inkscape:path-effect
       effect="mirror_symmetry"
       start_point="17.297909,16.234992"
       end_point="17.313303,7.810326"
       center_point="17.305606,12.022659"
       id="path-effect5-7"
       is_visible="true"
       lpeversion="1.2"
       lpesatellites=""
       mode="free"
       discard_orig_path="false"
       fuse_paths="true"
       oposite_fuse="false"
       split_items="false"
       split_open="false"
       link_styles="false" /><inkscape:path-effect
       effect="mirror_symmetry"
       start_point="17.297909,16.234992"
       end_point="17.313303,7.810326"
       center_point="17.305606,12.022659"
       id="path-effect5-6"
       is_visible="true"
       lpeversion="1.2"
       lpesatellites=""
       mode="free"
       discard_orig_path="false"
       fuse_paths="true"
       oposite_fuse="false"
       split_items="false"
       split_open="false"
       link_styles="false" /><inkscape:path-effect
       effect="mirror_symmetry"
       start_point="17.297909,16.234992"
       end_point="17.313303,7.810326"
       center_point="17.305606,12.022659"
       id="path-effect5-3"
       is_visible="true"
       lpeversion="1.2"
       lpesatellites=""
       mode="free"
       discard_orig_path="false"
       fuse_paths="true"
       oposite_fuse="false"
       split_items="false"
       split_open="false"
       link_styles="false" /><inkscape:path-effect
       effect="mirror_symmetry"
       start_point="17.297909,16.234992"
       end_point="17.313303,7.810326"
       center_point="17.305606,12.022659"
       id="path-effect5-66"
       is_visible="true"
       lpeversion="1.2"
       lpesatellites=""
       mode="free"
       discard_orig_path="false"
       fuse_paths="true"
       oposite_fuse="false"
       split_items="false"
       split_open="false"
       link_styles="false" /><inkscape:path-effect
       effect="mirror_symmetry"
       start_point="17.297909,16.234992"
       end_point="17.313303,7.810326"
       center_point="17.305606,12.022659"
       id="path-effect5-4"
       is_visible="true"
       lpeversion="1.2"
       lpesatellites=""
       mode="free"
       discard_orig_path="false"
       fuse_paths="true"
       oposite_fuse="false"
       split_items="false"
       split_open="false"
       link_styles="false" /><inkscape:path-effect
       effect="mirror_symmetry"
       start_point="17.297909,16.234992"
       end_point="17.313303,7.810326"
       center_point="17.305606,12.022659"
       id="path-effect5-4-7"
       is_visible="true"
       lpeversion="1.2"
       lpesatellites=""
       mode="free"
       discard_orig_path="false"
       fuse_paths="true"
       oposite_fuse="false"
       split_items="false"
       split_open="false"
       link_styles="false" /><inkscape:path-effect
       effect="mirror_symmetry"
       start_point="17.297909,16.234992"
       end_point="17.313303,7.810326"
       center_point="17.305606,12.022659"
       id="path-effect5-41"
       is_visible="true"
       lpeversion="1.2"
       lpesatellites=""
       mode="free"
       discard_orig_path="false"
       fuse_paths="true"
       oposite_fuse="false"
       split_items="false"
       split_open="false"
       link_styles="false" /><inkscape:path-effect
       effect="mirror_symmetry"
       start_point="17.297909,16.234992"
       end_point="17.313303,7.810326"
       center_point="17.305606,12.022659"
       id="path-effect5-62"
       is_visible="true"
       lpeversion="1.2"
       lpesatellites=""
       mode="free"
       discard_orig_path="false"
       fuse_paths="true"
       oposite_fuse="false"
       split_items="false"
       split_open="false"
       link_styles="false" /><inkscape:path-effect
       effect="mirror_symmetry"
       start_point="17.297909,16.234992"
       end_point="17.313303,7.810326"
       center_point="17.305606,12.022659"
       id="path-effect5-4-9"
       is_visible="true"
       lpeversion="1.2"
       lpesatellites=""
       mode="free"
       discard_orig_path="false"
       fuse_paths="true"
       oposite_fuse="false"
       split_items="false"
       split_open="false"
       link_styles="false" /><inkscape:path-effect
       effect="mirror_symmetry"
       start_point="17.493844,16.300304"
       end_point="17.509238,7.875638"
       center_point="17.501541,12.087971"
       id="path-effect5-4-0-9-72-8"
       is_visible="true"
       lpeversion="1.2"
       lpesatellites=""
       mode="free"
       discard_orig_path="false"
       fuse_paths="true"
       oposite_fuse="false"
       split_items="false"
       split_open="false"
       link_styles="false" /><inkscape:path-effect
       effect="mirror_symmetry"
       start_point="17.493844,16.300304"
       end_point="17.509238,7.875638"
       center_point="17.501541,12.087971"
       id="path-effect5-4-0-9-72-8-3"
       is_visible="true"
       lpeversion="1.2"
       lpesatellites=""
       mode="free"
       discard_orig_path="false"
       fuse_paths="true"
       oposite_fuse="false"
       split_items="false"
       split_open="false"
       link_styles="false" /></defs><g
     inkscape:label="Layer 1"
     inkscape:groupmode="layer"
     id="layer1"><path
       style="fill:#999999;fill-opacity:1;stroke:none;stroke-width:0.264999;stroke-dasharray:none;stroke-opacity:1"
       d="m 7.1134037,16.262278 c -0.00397,-0.262338 0.082402,-0.518182 0.2617188,-0.507812 1.2524069,0.07244 3.5770765,0.08092 4.4824215,0.509765 0.679074,-0.437864 2.531498,-2.05357 3.478713,-1.758114 1.111271,0.346628 1.672963,1.491794 2.495728,2.41898 0.18687,0.210587 -0.528925,1.045629 -0.748104,0.868902 -0.974516,-0.785765 -1.975583,-2.01416 -1.975583,-2.01416 -0.837605,0.737554 -2.061993,1.159316 -1.916769,1.722677 0.225954,0.470175 1.06296,1.752003 1.523798,2.530837 0.720896,0.223788 1.375499,0.597874 2.235499,0.818195 0.280451,0.0249 0.02023,0.957629 -0.260538,0.936721 -1.099622,-0.08189 -2.149787,-0.417793 -2.607721,-0.740217 -0.504013,-0.354868 -1.538494,-1.867969 -2.219163,-2.303348 -0.903772,0.432152 -3.2302883,0.450328 -4.4824221,0.527344 -0.3585544,0.02205 -0.3458071,-1.02167 0.011719,-1.056641 1.0298107,-0.100734 2.7436981,-0.213416 2.9062501,-0.427734 0.09185,-0.121107 0.116149,-0.211094 0.105468,-0.279297 0.01043,-0.06824 -0.01512,-0.16048 -0.107422,-0.28125 C 10.133664,17.013399 8.4209194,16.906123 7.3907475,16.809153 7.2119219,16.792321 7.1173747,16.524617 7.1134037,16.262278 Z"
       id="path4-6"
       sodipodi:nodetypes="ssssssscccsscscscsss" /><path
       id="path1-3"
       style="fill:#6666ff;fill-opacity:1;stroke:#000000;stroke-width:0.265"
       d="m 12.566633,19.16256 c 0.918208,0 2.054432,-0.744354 2.054432,-1.662562 0,-0.918208 -1.136225,-1.662561 -2.054432,-1.662561 -0.918207,0 -1.662561,0.744355 -1.662561,1.662561 0,0.918207 0.744353,1.662562 1.662561,1.662562 z"
       sodipodi:nodetypes="zzzzz" /><path
       id="path1-7-1-1"
       style="fill:#ffffff;stroke:#000000;stroke-width:0.265;stroke-dasharray:none"
       d="m 6.965612,16.865804 c 0.207214,0 0.738307,-0.227855 0.738307,-0.588877 0,-0.361023 -0.541773,-0.627766 -0.748987,-0.627766 -0.207214,0 -0.385876,-0.07027 -0.364516,0.627766 0.02136,0.69804 0.167981,0.588877 0.375196,0.588877 z"
       sodipodi:nodetypes="ssszs" /><path
       id="path1-7-1-9-7"
       style="fill:#ffffff;stroke:#000000;stroke-width:0.265;stroke-dasharray:none"
       d="m 6.987382,19.346901 c 0.207214,0 0.738307,-0.227855 0.738307,-0.588877 0,-0.361023 -0.541773,-0.627766 -0.748987,-0.627766 -0.207213,0 -0.385875,-0.07027 -0.364515,0.627766 0.02136,0.69804 0.167981,0.588877 0.375195,0.588877 z"
       sodipodi:nodetypes="ssszs" /><path
       id="path1-3-0-4-9"
       style="fill:#66ff66;fill-opacity:1;stroke:#000000;stroke-width:0.265"
       d="m 16.006435,26.817482 c -0.459104,-0.795193 -0.382586,-2.151368 0.412605,-2.610471 0.795192,-0.459105 2.007933,0.152718 2.467036,0.947908 0.459104,0.795192 0.186651,1.811999 -0.608539,2.271102 -0.795191,0.459103 -1.811998,0.186653 -2.271102,-0.608539 z"
       sodipodi:nodetypes="zzzzz" /><path
       style="fill:#999999;fill-opacity:1;stroke:none;stroke-width:0.264999;stroke-dasharray:none;stroke-opacity:1"
       d="m 18.606209,24.767851 c -0.131157,-0.443697 -0.228134,-0.988592 -0.210532,-1.453039 -0.499277,-0.739578 -1.851323,-1.226329 -0.86206,-1.872126 0.311518,-0.341378 1.310781,0.844548 1.600602,1.187141 0.391115,0.46234 0.952791,2.453078 0.645181,2.994269 -0.235912,0.415012 -1.245009,0.990752 -1.796443,1.283001 -0.527599,0.333362 -1.531432,0.92446 -2.00881,0.922983 -0.622501,-0.0019 -1.653764,-0.702065 -2.087938,-1.124227 -0.322271,-0.313353 -1.676207,-1.753528 -1.314814,-1.97654 0.538605,-0.332371 1.160081,0.518085 1.904195,1.153634 0.442829,0.276938 0.774072,0.446986 1.339261,0.503264 -0.273457,-0.932938 -1.504365,-2.130762 -2.197129,-3.176634 -0.198374,-0.299492 0.671133,-0.876994 0.880181,-0.584857 0.301065,0.420742 0.473321,0.451063 0.679613,0.942748 0.414625,0.283505 0.973636,0.66335 1.336276,1.138718 0.06225,-0.01043 0.11404,-0.03168 0.158423,-0.05763 0.04458,-0.02563 0.06892,-0.956623 0.108886,-1.005503 0.467901,-0.41021 0.498096,0.04787 1.181158,0.803302 z"
       id="path4-6-3-2-0-9"
       sodipodi:nodetypes="cccscccssscsscccccc" /><ellipse
       style="fill:#ffffff;fill-opacity:1;stroke:#000000;stroke-width:0.265;stroke-dasharray:none;stroke-opacity:1"
       id="path1-7-2-9-9-1-3-3"
       cx="20.898354"
       cy="-18.899727"
       rx="0.65429264"
       ry="0.80279088"
       transform="rotate(105)" /><path
       id="path1-7-1-1-4-1-4"
       style="fill:#ffffff;stroke:#000000;stroke-width:0.265;stroke-dasharray:none"
       d="m 16.832628,23.076059 c -0.615387,0.299452 0.115018,1.207006 0.22052,1.385351 0.105506,0.178341 0.240913,1.20917 0.982352,0.774554 0.899389,-0.527229 -0.648617,-2.429609 -1.202876,-2.159903 z"
       sodipodi:nodetypes="sszs" /><path
       id="path1-7-1-1-4-5-9-3"
       style="fill:#ffffff;stroke:#000000;stroke-width:0.265;stroke-dasharray:none"
       d="m 13.220057,21.375582 c 0.567027,-0.383214 0.987789,0.703112 1.089489,0.883652 0.101695,0.180543 0.926716,0.813222 0.179608,1.238019 -0.906289,0.515278 -1.779795,-1.776523 -1.269093,-2.121673 z"
       sodipodi:nodetypes="sszs" /><ellipse
       style="fill:#ffffff;fill-opacity:1;stroke:#000000;stroke-width:0.265;stroke-dasharray:none;stroke-opacity:1"
       id="path1-7-2-9-9-1-3-1"
       cx="9.9638166"
       cy="-25.494507"
       rx="0.65429264"
       ry="0.80279088"
       transform="rotate(120)" /><path
       style="fill:#999999;fill-opacity:1;stroke:none;stroke-width:0.264999;stroke-dasharray:none;stroke-opacity:1"
       d="m 27.886596,18.737722 c 0.004,0.262338 -0.0824,0.518182 -0.261719,0.507812 -1.252406,-0.07244 -3.577076,-0.08092 -4.482421,-0.509765 -0.679074,0.437864 -2.531498,2.05357 -3.478713,1.758114 -1.111271,-0.346628 -1.672963,-1.491794 -2.495728,-2.41898 -0.18687,-0.210587 0.528925,-1.045629 0.748104,-0.868902 0.974516,0.785765 1.975583,2.01416 1.975583,2.01416 0.837605,-0.737554 2.061993,-1.159316 1.916769,-1.722677 -0.225954,-0.470175 -1.06296,-1.752003 -1.523798,-2.530837 -0.720896,-0.223788 -1.375499,-0.597874 -2.235499,-0.818195 -0.280451,-0.0249 -0.02023,-0.957629 0.260538,-0.936721 1.099622,0.08189 2.149787,0.417793 2.607721,0.740217 0.504013,0.354868 1.538494,1.867969 2.219163,2.303348 0.903772,-0.432152 3.230288,-0.450328 4.482422,-0.527344 0.358555,-0.02205 0.345807,1.02167 -0.01172,1.056641 -1.029811,0.100734 -2.743698,0.213416 -2.90625,0.427734 -0.09185,0.121107 -0.116149,0.211094 -0.105468,0.279297 -0.01043,0.06824 0.01512,0.16048 0.107422,0.28125 0.163333,0.213727 1.876078,0.321003 2.906249,0.417973 0.178826,0.01683 0.273373,0.284536 0.277345,0.546875 z"
       id="path4-6-9"
       sodipodi:nodetypes="ssssssscccsscscscsss" /><path
       id="path1-3-0"
       style="fill:#ff6666;fill-opacity:1;stroke:#000000;stroke-width:0.265"
       d="m 22.433367,15.83744 c -0.918208,0 -2.054432,0.744354 -2.054432,1.662562 0,0.918208 1.136225,1.662561 2.054432,1.662561 0.918207,0 1.662561,-0.744355 1.662561,-1.662561 0,-0.918207 -0.744353,-1.662562 -1.662561,-1.662562 z"
       sodipodi:nodetypes="zzzzz" /><path
       id="path1-7-1-1-5"
       style="fill:#ffffff;stroke:#000000;stroke-width:0.265;stroke-dasharray:none"
       d="m 28.034388,18.134196 c -0.207214,0 -0.738307,0.227855 -0.738307,0.588877 0,0.361023 0.541773,0.627766 0.748987,0.627766 0.207214,0 0.385876,0.07027 0.364516,-0.627766 -0.02136,-0.69804 -0.167981,-0.588877 -0.375196,-0.588877 z"
       sodipodi:nodetypes="ssszs" /><path
       id="path1-7-1-9-7-6"
       style="fill:#ffffff;stroke:#000000;stroke-width:0.265;stroke-dasharray:none"
       d="m 28.012618,15.653099 c -0.207214,0 -0.738307,0.227855 -0.738307,0.588877 0,0.361023 0.541773,0.627766 0.748987,0.627766 0.207213,0 0.385875,0.07027 0.364515,-0.627766 -0.02136,-0.69804 -0.167981,-0.588877 -0.375195,-0.588877 z"
       sodipodi:nodetypes="ssszs" /><path
       id="path1-3-0-4-9-7"
       style="fill:#4d4d4d;fill-opacity:1;stroke:#000000;stroke-width:0.265"
       d="m 18.993565,8.182518 c 0.459104,0.795193 0.382586,2.151368 -0.412605,2.610471 -0.795192,0.459105 -2.007933,-0.152718 -2.467036,-0.947908 -0.459104,-0.795192 -0.186651,-1.811999 0.608539,-2.271102 0.795191,-0.459103 1.811998,-0.186653 2.271102,0.608539 z"
       sodipodi:nodetypes="zzzzz" /><path
       style="fill:#999999;fill-opacity:1;stroke:none;stroke-width:0.264999;stroke-dasharray:none;stroke-opacity:1"
       d="m 16.393791,10.232149 c 0.131157,0.443697 0.228134,0.988592 0.210532,1.453039 0.499277,0.739578 1.851323,1.226329 0.86206,1.872126 -0.311518,0.341378 -1.310781,-0.844548 -1.600602,-1.187141 -0.391115,-0.46234 -0.952791,-2.453078 -0.645181,-2.994269 0.235912,-0.415012 1.245009,-0.990752 1.796443,-1.283001 0.527599,-0.333362 1.531432,-0.92446 2.00881,-0.922983 0.622501,0.0019 1.653764,0.702065 2.087938,1.124227 0.322271,0.313353 1.676207,1.753528 1.314814,1.97654 C 21.89,10.603058 21.268524,9.752602 20.52441,9.117053 20.081581,8.840115 19.750338,8.670067 19.185149,8.613789 c 0.273457,0.932938 1.504365,2.130762 2.197129,3.176634 0.198374,0.299492 -0.671133,0.876994 -0.880181,0.584857 -0.301065,-0.420742 -0.473321,-0.451063 -0.679613,-0.942748 -0.414625,-0.283505 -0.973636,-0.66335 -1.336276,-1.138718 -0.06225,0.01043 -0.11404,0.03168 -0.158423,0.05763 -0.04458,0.02563 -0.06892,0.956623 -0.108886,1.005503 -0.467901,0.41021 -0.498096,-0.04787 -1.181158,-0.803302 z"
       id="path4-6-3-2-0-9-7"
       sodipodi:nodetypes="cccscccssscsscccccc" /><ellipse
       style="fill:#ffffff;fill-opacity:1;stroke:#000000;stroke-width:0.265;stroke-dasharray:none;stroke-opacity:1"
       id="path1-7-2-9-9-1-3-3-4"
       cx="-3.850384"
       cy="23.966343"
       rx="0.65429264"
       ry="0.80279088"
       transform="rotate(-75)" /><path
       id="path1-7-1-1-4-1-4-0"
       style="fill:#ffffff;stroke:#000000;stroke-width:0.265;stroke-dasharray:none"
       d="M 18.167372,11.923941 C 18.782759,11.624489 18.052354,10.716935 17.946852,10.53859 17.841346,10.360249 17.705939,9.32942 16.9645,9.764036 c -0.899389,0.527229 0.648617,2.429609 1.202876,2.159903 z"
       sodipodi:nodetypes="sszs" /><path
       id="path1-7-1-1-4-5-9-3-6"
       style="fill:#ffffff;stroke:#000000;stroke-width:0.265;stroke-dasharray:none"
       d="m 21.779943,13.624418 c -0.567027,0.383214 -0.987789,-0.703112 -1.089489,-0.883652 -0.101695,-0.180543 -0.926716,-0.813222 -0.179608,-1.238019 0.906289,-0.515278 1.779795,1.776523 1.269093,2.121673 z"
       sodipodi:nodetypes="sszs" /><ellipse
       style="fill:#ffffff;fill-opacity:1;stroke:#000000;stroke-width:0.265;stroke-dasharray:none;stroke-opacity:1"
       id="path1-7-2-9-9-1-3-1-4"
       cx="-2.8470736"
       cy="22.316381"
       rx="0.65429264"
       ry="0.80279088"
       transform="rotate(-60)" /><ellipse
       style="fill:#ffffff;fill-opacity:1;stroke:#000000;stroke-width:0.265;stroke-dasharray:none;stroke-opacity:1"
       id="path1-7-2-9-9-1"
       cx="-6.4049459"
       cy="-23.905758"
       rx="0.65429264"
       ry="0.80279088"
       transform="rotate(150)" /></g></svg>
