<?xml version="1.0" encoding="UTF-8" standalone="no"?>
<!-- Created with Inkscape (http://www.inkscape.org/) -->

<svg
   width="35mm"
   height="35mm"
   viewBox="0 0 35 35"
   version="1.1"
   id="svg1"
   xml:space="preserve"
   inkscape:version="1.4 (e7c3feb100, 2024-10-09)"
   sodipodi:docname="12_v1_inter.svg"
   xmlns:inkscape="http://www.inkscape.org/namespaces/inkscape"
   xmlns:sodipodi="http://sodipodi.sourceforge.net/DTD/sodipodi-0.dtd"
   xmlns:xlink="http://www.w3.org/1999/xlink"
   xmlns="http://www.w3.org/2000/svg"
   xmlns:svg="http://www.w3.org/2000/svg"><sodipodi:namedview
     id="namedview1"
     pagecolor="#ffffff"
     bordercolor="#000000"
     borderopacity="0.25"
     inkscape:showpageshadow="2"
     inkscape:pageopacity="0.0"
     inkscape:pagecheckerboard="0"
     inkscape:deskcolor="#d1d1d1"
     inkscape:document-units="mm"
     inkscape:zoom="4.2968333"
     inkscape:cx="58.531477"
     inkscape:cy="90.997247"
     inkscape:window-width="956"
     inkscape:window-height="1023"
     inkscape:window-x="0"
     inkscape:window-y="0"
     inkscape:window-maximized="0"
     inkscape:current-layer="layer1"
     showgrid="false"><sodipodi:guide
       position="25.431035,17.543103"
       orientation="0,132.28346"
       id="guide5"
       inkscape:locked="false" /><sodipodi:guide
       position="35.000001,35.000001"
       orientation="132.28346,0"
       id="guide6"
       inkscape:locked="false" /><sodipodi:guide
       position="35.000001,0"
       orientation="0,-132.28346"
       id="guide7"
       inkscape:locked="false" /><sodipodi:guide
       position="17.503506,35.914363"
       orientation="-132.28346,0"
       id="guide8"
       inkscape:locked="false" /></sodipodi:namedview><defs
     id="defs1"><linearGradient
       id="linearGradient10"
       inkscape:collect="always"><stop
         style="stop-color:#6666ff;stop-opacity:0.74901962;"
         offset="0"
         id="stop9" /><stop
         style="stop-color:#6666ff;stop-opacity:0;"
         offset="1"
         id="stop10" /></linearGradient><linearGradient
       id="linearGradient5"
       inkscape:collect="always"><stop
         style="stop-color:#66ff66;stop-opacity:0.74901962;"
         offset="0"
         id="stop4" /><stop
         style="stop-color:#66ff66;stop-opacity:0;"
         offset="1"
         id="stop5" /></linearGradient><inkscape:path-effect
       effect="mirror_symmetry"
       start_point="17.297909,16.234992"
       end_point="17.313303,7.810326"
       center_point="17.305606,12.022659"
       id="path-effect5"
       is_visible="true"
       lpeversion="1.2"
       lpesatellites=""
       mode="free"
       discard_orig_path="false"
       fuse_paths="true"
       oposite_fuse="false"
       split_items="false"
       split_open="false"
       link_styles="false" /><inkscape:path-effect
       effect="mirror_symmetry"
       start_point="17.297909,16.234992"
       end_point="17.313303,7.810326"
       center_point="17.305606,12.022659"
       id="path-effect5-7"
       is_visible="true"
       lpeversion="1.2"
       lpesatellites=""
       mode="free"
       discard_orig_path="false"
       fuse_paths="true"
       oposite_fuse="false"
       split_items="false"
       split_open="false"
       link_styles="false" /><inkscape:path-effect
       effect="mirror_symmetry"
       start_point="17.297909,16.234992"
       end_point="17.313303,7.810326"
       center_point="17.305606,12.022659"
       id="path-effect5-6"
       is_visible="true"
       lpeversion="1.2"
       lpesatellites=""
       mode="free"
       discard_orig_path="false"
       fuse_paths="true"
       oposite_fuse="false"
       split_items="false"
       split_open="false"
       link_styles="false" /><inkscape:path-effect
       effect="mirror_symmetry"
       start_point="17.297909,16.234992"
       end_point="17.313303,7.810326"
       center_point="17.305606,12.022659"
       id="path-effect5-3"
       is_visible="true"
       lpeversion="1.2"
       lpesatellites=""
       mode="free"
       discard_orig_path="false"
       fuse_paths="true"
       oposite_fuse="false"
       split_items="false"
       split_open="false"
       link_styles="false" /><inkscape:path-effect
       effect="mirror_symmetry"
       start_point="17.297909,16.234992"
       end_point="17.313303,7.810326"
       center_point="17.305606,12.022659"
       id="path-effect5-66"
       is_visible="true"
       lpeversion="1.2"
       lpesatellites=""
       mode="free"
       discard_orig_path="false"
       fuse_paths="true"
       oposite_fuse="false"
       split_items="false"
       split_open="false"
       link_styles="false" /><inkscape:path-effect
       effect="mirror_symmetry"
       start_point="17.297909,16.234992"
       end_point="17.313303,7.810326"
       center_point="17.305606,12.022659"
       id="path-effect5-4"
       is_visible="true"
       lpeversion="1.2"
       lpesatellites=""
       mode="free"
       discard_orig_path="false"
       fuse_paths="true"
       oposite_fuse="false"
       split_items="false"
       split_open="false"
       link_styles="false" /><inkscape:path-effect
       effect="mirror_symmetry"
       start_point="17.297909,16.234992"
       end_point="17.313303,7.810326"
       center_point="17.305606,12.022659"
       id="path-effect5-4-7"
       is_visible="true"
       lpeversion="1.2"
       lpesatellites=""
       mode="free"
       discard_orig_path="false"
       fuse_paths="true"
       oposite_fuse="false"
       split_items="false"
       split_open="false"
       link_styles="false" /><inkscape:path-effect
       effect="mirror_symmetry"
       start_point="17.297909,16.234992"
       end_point="17.313303,7.810326"
       center_point="17.305606,12.022659"
       id="path-effect5-41"
       is_visible="true"
       lpeversion="1.2"
       lpesatellites=""
       mode="free"
       discard_orig_path="false"
       fuse_paths="true"
       oposite_fuse="false"
       split_items="false"
       split_open="false"
       link_styles="false" /><inkscape:path-effect
       effect="mirror_symmetry"
       start_point="17.297909,16.234992"
       end_point="17.313303,7.810326"
       center_point="17.305606,12.022659"
       id="path-effect5-4-0"
       is_visible="true"
       lpeversion="1.2"
       lpesatellites=""
       mode="free"
       discard_orig_path="false"
       fuse_paths="true"
       oposite_fuse="false"
       split_items="false"
       split_open="false"
       link_styles="false" /><inkscape:path-effect
       effect="mirror_symmetry"
       start_point="17.493844,16.300304"
       end_point="17.509238,7.875638"
       center_point="17.501541,12.087971"
       id="path-effect5-4-0-9"
       is_visible="true"
       lpeversion="1.2"
       lpesatellites=""
       mode="free"
       discard_orig_path="false"
       fuse_paths="true"
       oposite_fuse="false"
       split_items="false"
       split_open="false"
       link_styles="false" /><inkscape:path-effect
       effect="mirror_symmetry"
       start_point="17.297909,16.234992"
       end_point="17.313303,7.810326"
       center_point="17.305606,12.022659"
       id="path-effect5-4-0-0"
       is_visible="true"
       lpeversion="1.2"
       lpesatellites=""
       mode="free"
       discard_orig_path="false"
       fuse_paths="true"
       oposite_fuse="false"
       split_items="false"
       split_open="false"
       link_styles="false" /><inkscape:path-effect
       effect="mirror_symmetry"
       start_point="17.493844,16.300304"
       end_point="17.509238,7.875638"
       center_point="17.501541,12.087971"
       id="path-effect5-4-0-9-7"
       is_visible="true"
       lpeversion="1.2"
       lpesatellites=""
       mode="free"
       discard_orig_path="false"
       fuse_paths="true"
       oposite_fuse="false"
       split_items="false"
       split_open="false"
       link_styles="false" /><inkscape:path-effect
       effect="mirror_symmetry"
       start_point="17.493844,16.300304"
       end_point="17.509238,7.875638"
       center_point="17.501541,12.087971"
       id="path-effect5-4-0-9-3"
       is_visible="true"
       lpeversion="1.2"
       lpesatellites=""
       mode="free"
       discard_orig_path="false"
       fuse_paths="true"
       oposite_fuse="false"
       split_items="false"
       split_open="false"
       link_styles="false" /><inkscape:path-effect
       effect="mirror_symmetry"
       start_point="17.493844,16.300304"
       end_point="17.509238,7.875638"
       center_point="17.501541,12.087971"
       id="path-effect5-4-0-9-5"
       is_visible="true"
       lpeversion="1.2"
       lpesatellites=""
       mode="free"
       discard_orig_path="false"
       fuse_paths="true"
       oposite_fuse="false"
       split_items="false"
       split_open="false"
       link_styles="false" /><inkscape:path-effect
       effect="mirror_symmetry"
       start_point="17.297909,16.234992"
       end_point="17.313303,7.810326"
       center_point="17.305606,12.022659"
       id="path-effect5-4-6-1"
       is_visible="true"
       lpeversion="1.2"
       lpesatellites=""
       mode="free"
       discard_orig_path="false"
       fuse_paths="true"
       oposite_fuse="false"
       split_items="false"
       split_open="false"
       link_styles="false" /><inkscape:path-effect
       effect="mirror_symmetry"
       start_point="17.493844,16.300304"
       end_point="17.509238,7.875638"
       center_point="17.501541,12.087971"
       id="path-effect5-4-0-9-5-9"
       is_visible="true"
       lpeversion="1.2"
       lpesatellites=""
       mode="free"
       discard_orig_path="false"
       fuse_paths="true"
       oposite_fuse="false"
       split_items="false"
       split_open="false"
       link_styles="false" /><inkscape:path-effect
       effect="mirror_symmetry"
       start_point="17.297909,16.234992"
       end_point="17.313303,7.810326"
       center_point="17.305606,12.022659"
       id="path-effect5-61"
       is_visible="true"
       lpeversion="1.2"
       lpesatellites=""
       mode="free"
       discard_orig_path="false"
       fuse_paths="true"
       oposite_fuse="false"
       split_items="false"
       split_open="false"
       link_styles="false" /><inkscape:path-effect
       effect="mirror_symmetry"
       start_point="17.297909,16.234992"
       end_point="17.313303,7.810326"
       center_point="17.305606,12.022659"
       id="path-effect5-4-3"
       is_visible="true"
       lpeversion="1.2"
       lpesatellites=""
       mode="free"
       discard_orig_path="false"
       fuse_paths="true"
       oposite_fuse="false"
       split_items="false"
       split_open="false"
       link_styles="false" /><linearGradient
       inkscape:collect="always"
       xlink:href="#linearGradient6"
       id="linearGradient3"
       gradientUnits="userSpaceOnUse"
       gradientTransform="matrix(-0.25881905,-0.96592582,1.0457105,-0.28019729,3.9742326,27.74015)"
       x1="10.647268"
       y1="16.557198"
       x2="14.696174"
       y2="14.776537" /><linearGradient
       id="linearGradient6"
       inkscape:collect="always"><stop
         style="stop-color:#4d4d4d;stop-opacity:0.74901962;"
         offset="0"
         id="stop3" /><stop
         style="stop-color:#4d4d4d;stop-opacity:0;"
         offset="1"
         id="stop6" /></linearGradient><linearGradient
       inkscape:collect="always"
       xlink:href="#linearGradient8"
       id="linearGradient2"
       gradientUnits="userSpaceOnUse"
       gradientTransform="matrix(0.49999999,0.86602538,-0.93755839,0.54129958,22.252745,-2.8803808)"
       x1="10.647268"
       y1="16.557198"
       x2="17.939503"
       y2="14.395561" /><linearGradient
       id="linearGradient8"
       inkscape:collect="always"><stop
         style="stop-color:#ff6666;stop-opacity:0.74901962;"
         offset="0"
         id="stop7" /><stop
         style="stop-color:#ff6666;stop-opacity:0;"
         offset="1"
         id="stop8" /></linearGradient><inkscape:path-effect
       effect="mirror_symmetry"
       start_point="17.297909,16.234992"
       end_point="17.313303,7.810326"
       center_point="17.305606,12.022659"
       id="path-effect5-61-5"
       is_visible="true"
       lpeversion="1.2"
       lpesatellites=""
       mode="free"
       discard_orig_path="false"
       fuse_paths="true"
       oposite_fuse="false"
       split_items="false"
       split_open="false"
       link_styles="false" /><inkscape:path-effect
       effect="mirror_symmetry"
       start_point="17.297909,16.234992"
       end_point="17.313303,7.810326"
       center_point="17.305606,12.022659"
       id="path-effect5-61-8"
       is_visible="true"
       lpeversion="1.2"
       lpesatellites=""
       mode="free"
       discard_orig_path="false"
       fuse_paths="true"
       oposite_fuse="false"
       split_items="false"
       split_open="false"
       link_styles="false" /><linearGradient
       inkscape:collect="always"
       xlink:href="#linearGradient5"
       id="linearGradient1"
       gradientUnits="userSpaceOnUse"
       gradientTransform="matrix(0.96592582,0.25881905,0.28019729,-1.0457105,4.8378699,35.436711)"
       x1="10.647268"
       y1="16.557198"
       x2="14.696174"
       y2="14.776537" /><linearGradient
       inkscape:collect="always"
       xlink:href="#linearGradient10"
       id="linearGradient4"
       gradientUnits="userSpaceOnUse"
       gradientTransform="matrix(-0.86602538,-0.49999999,-0.54129958,0.93755839,33.181408,15.098113)"
       x1="10.647268"
       y1="16.557198"
       x2="17.939503"
       y2="14.395561" /></defs><g
     inkscape:label="Layer 1"
     inkscape:groupmode="layer"
     id="layer1"><path
       style="fill:#999999;fill-opacity:1;stroke:none;stroke-width:0.264999;stroke-dasharray:none;stroke-opacity:1"
       d="m 16.0625,7.5585937 c -0.262338,-0.00397 -0.518182,0.082402 -0.507812,0.2617188 0.07244,1.2524069 0.219591,3.9930925 0.648437,4.8984375 -0.607199,0.176352 -1.617318,-0.230935 -2.138672,0.613281 -0.452157,0.732168 -0.03637,1.866595 0.201172,3.042969 0.05573,0.275974 0.796346,0.47567 0.822266,0.195312 0.109284,-1.182109 -0.0293,-2.300781 -0.0293,-2.300781 0.939531,-0.154019 1.74768,-0.436693 2.24414,-0.638672 0.495719,0.203792 1.303226,0.489033 2.242188,0.646485 0,0 -0.142073,1.11828 -0.03711,2.300781 0.0249,0.280451 0.76553,0.08241 0.822266,-0.193359 0.241842,-1.175498 0.662369,-2.305247 0.212891,-3.039063 -0.518266,-0.846116 -1.530169,-0.444477 -2.136719,-0.623047 0.432152,-0.903771 0.589,-3.6443503 0.666016,-4.8964841 0.02205,-0.3585544 -1.02167,-0.3458071 -1.056641,0.011719 -0.100734,1.0298107 -0.213416,2.7436984 -0.427734,2.9062504 -0.121107,0.09185 -0.211094,0.116149 -0.279297,0.105468 -0.06824,0.01043 -0.16048,-0.01512 -0.28125,-0.107421 C 16.813621,10.578854 16.706345,8.8661094 16.609375,7.8359375 16.592543,7.6571119 16.324838,7.5625647 16.0625,7.5585937 Z"
       id="path4-1-6"
       sodipodi:nodetypes="ssscssscccs"
       transform="matrix(0.70710678,0.70710678,0.70710678,-0.70710678,-6.797936,22.473564)"
       inkscape:original-d="m 15.087222,16.570462 c -0.02592,0.280358 -0.765893,0.08004 -0.821621,-0.195934 -0.237544,-1.176374 -0.653562,-2.309422 -0.201405,-3.04159 0.521354,-0.844216 1.531751,-0.437333 2.13895,-0.613685 -0.428846,-0.905345 -0.576305,-3.6466491 -0.648744,-4.899056 -0.02074,-0.3586326 1.022152,-0.3422582 1.055816,0.015393 0.09697,1.0301719 0.203913,2.743905 0.417636,2.907239 0.427544,0.326742 0.480507,-0.179347 0.480507,-0.179347 l 0.318037,2.834014 c 0,0 -1.201503,0.615766 -2.767965,0.872559 0,0 0.138074,1.118297 0.02879,2.300407 z"
       inkscape:path-effect="#path-effect5-61-8" /><path
       style="fill:#999999;fill-opacity:1;stroke:none;stroke-width:0.264999;stroke-dasharray:none;stroke-opacity:1"
       d="m 16.0625,7.5585937 c -0.262338,-0.00397 -0.518182,0.082402 -0.507812,0.2617188 0.07244,1.2524069 0.219591,3.9930925 0.648437,4.8984375 -0.607199,0.176352 -1.617318,-0.230935 -2.138672,0.613281 -0.452157,0.732168 -0.03637,1.866595 0.201172,3.042969 0.05573,0.275974 0.796346,0.47567 0.822266,0.195312 0.109284,-1.182109 -0.0293,-2.300781 -0.0293,-2.300781 0.939531,-0.154019 1.74768,-0.436693 2.24414,-0.638672 0.495719,0.203792 1.303226,0.489033 2.242188,0.646485 0,0 -0.142073,1.11828 -0.03711,2.300781 0.0249,0.280451 0.76553,0.08241 0.822266,-0.193359 0.241842,-1.175498 0.662369,-2.305247 0.212891,-3.039063 -0.518266,-0.846116 -1.530169,-0.444477 -2.136719,-0.623047 0.432152,-0.903771 0.589,-3.6443503 0.666016,-4.8964841 0.02205,-0.3585544 -1.02167,-0.3458071 -1.056641,0.011719 -0.100734,1.0298107 -0.213416,2.7436984 -0.427734,2.9062504 -0.121107,0.09185 -0.211094,0.116149 -0.279297,0.105468 -0.06824,0.01043 -0.16048,-0.01512 -0.28125,-0.107421 C 16.813621,10.578854 16.706345,8.8661094 16.609375,7.8359375 16.592543,7.6571119 16.324838,7.5625647 16.0625,7.5585937 Z"
       id="path4-1"
       sodipodi:nodetypes="ssscssscccs"
       transform="rotate(45,10.188962,19.896031)"
       inkscape:original-d="m 15.087222,16.570462 c -0.02592,0.280358 -0.765893,0.08004 -0.821621,-0.195934 -0.237544,-1.176374 -0.653562,-2.309422 -0.201405,-3.04159 0.521354,-0.844216 1.531751,-0.437333 2.13895,-0.613685 -0.428846,-0.905345 -0.576305,-3.6466491 -0.648744,-4.899056 -0.02074,-0.3586326 1.022152,-0.3422582 1.055816,0.015393 0.09697,1.0301719 0.203913,2.743905 0.417636,2.907239 0.427544,0.326742 0.480507,-0.179347 0.480507,-0.179347 l 0.318037,2.834014 c 0,0 -1.201503,0.615766 -2.767965,0.872559 0,0 0.138074,1.118297 0.02879,2.300407 z"
       inkscape:path-effect="#path-effect5-61" /><path
       id="path1-5"
       style="fill:#66ff66;fill-opacity:1;stroke:#000000;stroke-width:0.265"
       d="m 21.257694,21.270978 c -0.649274,0.649272 -1.97904,0.926365 -2.628313,0.277093 -0.64927,-0.649271 -0.372175,-1.97904 0.277096,-2.62831 0.64927,-0.64927 1.701945,-0.649271 2.351215,0 0.649273,0.649269 0.649273,1.701946 2e-6,2.351217 z"
       sodipodi:nodetypes="zzzzz" /><path
       id="path1-7-1-99"
       style="fill:#ffffff;stroke:#000000;stroke-width:0.265;stroke-dasharray:none"
       d="m 23.603608,15.62311 c -0.146523,0.146523 -0.68318,0.360942 -0.93846,0.105662 -0.255281,-0.255282 -0.06081,-0.826988 0.08572,-0.973512 0.146523,-0.146523 0.223167,-0.322543 0.701648,0.186143 0.478486,0.508693 0.29762,0.535179 0.151096,0.681702 z"
       sodipodi:nodetypes="ssszs" /><path
       id="path1-7-1-9-1"
       style="fill:#ffffff;stroke:#000000;stroke-width:0.265;stroke-dasharray:none"
       d="m 25.342616,17.392904 c -0.146523,0.146523 -0.68318,0.360944 -0.938462,0.105662 -0.255281,-0.255281 -0.06081,-0.826988 0.08572,-0.973511 0.146522,-0.146521 0.223167,-0.322544 0.701648,0.186143 0.478485,0.508693 0.29762,0.53518 0.151096,0.681702 z"
       sodipodi:nodetypes="ssszs" /><ellipse
       style="fill:#ffffff;fill-opacity:1;stroke:#000000;stroke-width:0.265;stroke-dasharray:none;stroke-opacity:1"
       id="path1-7-2-9-9-1-9"
       cx="25.824299"
       cy="3.804827"
       rx="0.65429264"
       ry="0.80279088"
       transform="rotate(45)" /><ellipse
       style="fill:#ffffff;fill-opacity:1;stroke:#000000;stroke-width:0.265;stroke-dasharray:none;stroke-opacity:1"
       id="path1-7-2-9-9-5"
       cx="30.928492"
       cy="3.804827"
       rx="0.65429264"
       ry="0.80279088"
       transform="rotate(45)" /><path
       style="fill:#999999;fill-opacity:1;stroke:none;stroke-width:0.264999;stroke-dasharray:none;stroke-opacity:1"
       d="m 24.808985,10.985198 c 0.134632,0.225193 0.187728,0.48996 0.02725,0.570638 -1.120835,0.563468 -3.138299,1.71846 -4.136772,1.799741 -0.369166,0.718735 0.871623,1.171928 0.401188,2.045541 -0.408003,0.757662 -1.977546,0.738343 -2.453851,0.437382 -0.238013,-0.150387 -0.109593,-1.135163 0.155021,-1.038974 0.614,0.22319 0.634414,0.173511 1.206643,0.119654 -0.02965,-0.512966 -1.449329,-1.219617 -1.052965,-1.986571 -0.298687,-0.50694 -1.296011,-0.525725 -2.083905,-0.785309 -0.231699,0.62435 -0.273312,2.109995 -0.189396,2.730046 -0.255328,0.118658 -0.853955,0.638232 -0.930101,0.367186 -0.26195,-0.932446 -0.332021,-3.551169 0.44602,-4.068974 0.67494,-0.449192 2.448859,-0.0019 3.256027,0.0348 0.566614,-0.826141 2.572347,-2.0051394 3.618217,-2.6979052 0.299493,-0.1983756 0.810313,0.7118896 0.518174,0.9209391 -0.841477,0.6021421 -2.269406,1.5566731 -2.303021,1.8235541 -0.01899,0.150813 0.005,0.240888 0.04831,0.294615 0.0251,0.06431 0.09333,0.131415 0.233656,0.189858 0.248321,0.103417 1.78524,-0.660051 2.725879,-1.091161 0.163284,-0.07484 0.379015,0.109735 0.513624,0.334938 z"
       id="path4-4-5-2-0-6"
       sodipodi:nodetypes="ssscssccccsscscscsss" /><path
       id="path1-9-9-4-2-2"
       style="fill:#4d4d4d;fill-opacity:1;stroke:#000000;stroke-width:0.265"
       d="m 20.299489,14.080979 c -0.795194,0.459104 -2.151369,0.382587 -2.610472,-0.412605 -0.459104,-0.79519 0.152719,-2.007934 0.94791,-2.467036 0.795189,-0.459103 1.811995,-0.186651 2.271098,0.608542 0.459104,0.79519 0.186654,1.811996 -0.608536,2.271099 z"
       sodipodi:nodetypes="zzzzz" /><path
       id="path1-7-1-2-6-0-1-9"
       style="fill:#ffffff;stroke:#000000;stroke-width:0.265;stroke-dasharray:none"
       d="m 24.009378,9.2611142 c -0.179452,0.1036073 -0.75332,0.1718286 -0.933832,-0.1408281 -0.180513,-0.3126552 0.155303,-0.814549 0.334763,-0.9181544 0.179452,-0.1036081 0.299045,-0.2537913 0.629564,0.3614014 0.330522,0.6151999 0.149005,0.5939605 -0.03049,0.6975811 z"
       sodipodi:nodetypes="ssszs" /><path
       id="path1-7-1-9-0-2-5-0-9"
       style="fill:#ffffff;stroke:#000000;stroke-width:0.265;stroke-dasharray:none"
       d="m 25.231071,11.420695 c -0.17945,0.103606 -0.753317,0.171829 -0.93383,-0.14083 -0.180512,-0.312657 0.155313,-0.814547 0.334763,-0.918155 0.179451,-0.103606 0.299045,-0.25379 0.629564,0.361402 0.330521,0.6152 0.149006,0.593961 -0.03049,0.697581 z"
       sodipodi:nodetypes="ssszs" /><ellipse
       style="fill:#ffffff;fill-opacity:1;stroke:#000000;stroke-width:0.265;stroke-dasharray:none;stroke-opacity:1"
       id="path1-7-2-9-9-1-6-1-9-5-0"
       cx="-10.97413"
       cy="-21.241692"
       rx="0.65429264"
       ry="0.80279088"
       transform="matrix(0.2145238,-0.97671876,-0.97671876,-0.2145238,0,0)" /><path
       style="fill:#999999;fill-opacity:1;stroke:none;stroke-width:0.264999;stroke-dasharray:none;stroke-opacity:1"
       d="m 6.6963619,14.495891 c -0.004,-0.262339 0.082401,-0.518183 0.2617209,-0.507814 1.2524054,0.07244 3.5770742,0.08092 4.4824162,0.509769 0.679075,-0.437862 -0.168883,-1.450734 0.675332,-1.972085 0.732166,-0.452163 2.081775,0.349348 2.343788,0.848141 0.130924,0.249251 -0.472672,1.037876 -0.65374,0.822267 -0.420144,-0.500287 -0.462663,-0.467471 -0.985157,-0.706946 -0.230805,0.459067 0.64535,1.780885 -0.08139,2.246902 0.0052,0.588369 0.859515,1.103297 1.412062,1.72205 0.512837,-0.424844 1.29169,-1.690649 1.52904,-2.26959 0.280451,0.02491 1.058667,-0.125748 0.989086,0.14706 -0.239367,0.938496 -1.488046,3.24141 -2.420749,3.300823 -0.809115,0.05154 -2.121725,-1.222784 -2.802405,-1.658153 -0.903769,0.432152 -3.2302848,0.450328 -4.4824163,0.527344 -0.358556,0.02205 -0.3458086,-1.021669 0.011719,-1.056641 1.0298095,-0.100734 2.7436956,-0.213416 2.9062476,-0.427733 0.09184,-0.12111 0.116108,-0.211119 0.105471,-0.279297 0.01041,-0.06823 -0.01511,-0.160482 -0.107422,-0.281248 C 9.7166153,15.247018 8.0038712,15.139741 6.9737009,15.042771 6.7948736,15.025944 6.7003324,14.75823 6.6963562,14.495897 Z"
       id="path4-4-5-2-0-5-8"
       sodipodi:nodetypes="ssscssccccsscscscsss" /><path
       id="path1-9-9-4-2-8-1"
       style="fill:#ff6666;fill-opacity:1;stroke:#000000;stroke-width:0.265"
       d="m 12.14959,14.069615 c 0.918208,-1e-6 2.054433,0.744354 2.054432,1.662561 10e-7,0.918209 -1.136225,1.662562 -2.05443,1.662561 -0.918205,0 -1.662562,-0.744354 -1.66256,-1.66256 -2e-6,-0.918207 0.744351,-1.662563 1.662558,-1.662562 z"
       sodipodi:nodetypes="zzzzz" /><path
       id="path1-7-1-2-6-0-1-6-3"
       style="fill:#ffffff;stroke:#000000;stroke-width:0.265;stroke-dasharray:none"
       d="m 6.5268031,16.388793 c 0.2072128,1e-6 0.7383072,0.227852 0.7383048,0.588878 2e-7,0.361024 -0.5417686,0.627768 -0.748988,0.627762 -0.2072146,-1e-6 -0.3858792,0.07027 -0.3645183,-0.627765 0.021359,-0.698037 0.167976,-0.588876 0.3751967,-0.588877 z"
       sodipodi:nodetypes="ssszs" /><path
       id="path1-7-1-9-0-2-5-0-2-1"
       style="fill:#ffffff;stroke:#000000;stroke-width:0.265;stroke-dasharray:none"
       d="m 6.5485725,13.907696 c 0.2072125,1e-6 0.7383078,0.227852 0.7383079,0.588876 -1e-7,0.361025 -0.541772,0.62777 -0.7489912,0.627764 -0.2072139,-10e-7 -0.3858778,0.07027 -0.3645189,-0.627764 0.021363,-0.698041 0.1679859,-0.588874 0.3751958,-0.588876 z"
       sodipodi:nodetypes="ssszs" /><ellipse
       style="fill:#ffffff;fill-opacity:1;stroke:#000000;stroke-width:0.265;stroke-dasharray:none;stroke-opacity:1"
       id="path1-7-2-9-9-1-6-1-9-5-8-1"
       cx="0.62558639"
       cy="20.064529"
       rx="0.65429264"
       ry="0.80279088"
       transform="matrix(-0.67414243,0.73860137,0.73860137,0.67414243,0,0)" /><ellipse
       style="fill:#ffffff;fill-opacity:1;stroke:#000000;stroke-width:0.265;stroke-dasharray:none;stroke-opacity:1"
       id="path1-7-2-9-9-0"
       cx="19.610157"
       cy="10.423513"
       rx="0.65429264"
       ry="0.80279088"
       transform="rotate(15)" /><path
       id="path1-3-1-5-8-0-8-0-6"
       style="fill:url(#linearGradient3);fill-opacity:1;stroke:none;stroke-width:0.265"
       d="m 15.755687,10.46274 c 1.932244,2.066822 1.17961,1.84401 2.075719,3.243641 0.846987,0.445221 2.033731,-1.503407 2.544637,-2.312479 C 19.028166,9.9407592 17.924702,9.5600469 16.953519,9.283576 15.982337,9.007106 13.476483,8.1658901 15.755687,10.46274 Z"
       sodipodi:nodetypes="zcczz" /><path
       id="path1-3-1-5-8-0-8-0-6-3"
       style="fill:url(#linearGradient1);fill-opacity:1;stroke:none;stroke-width:0.265"
       d="m 22.115279,23.655256 c -2.066821,-1.932244 -1.844009,-1.17961 -3.24364,-2.075719 -0.445221,-0.846987 1.503407,-2.033731 2.312478,-2.544637 1.453143,1.347877 1.833855,2.451341 2.110326,3.422524 0.27647,0.971182 1.117686,3.477036 -1.179164,1.197832 z"
       sodipodi:nodetypes="zcczz" /><path
       id="path1-3-1-5-8-0-8-0"
       style="fill:url(#linearGradient2);fill-opacity:1;stroke:none;stroke-width:0.265"
       d="m 18.17618,19.53162 c -1.786388,-1.796429 -3.865303,-3.719828 -4.756666,-4.929992 -0.933362,-0.210836 -1.773726,1.528012 -2.057816,2.441747 1.389686,1.492654 3.885657,3.803308 5.79192,4.172581 0.41745,0.08087 3.102838,-0.138253 1.022566,-1.684336 0,0 1.786388,1.796429 -10e-7,2e-6 z"
       sodipodi:nodetypes="zcczzz" /><path
       id="path1-7-1-99-1"
       style="fill:#ffffff;stroke:#000000;stroke-width:0.265;stroke-dasharray:none"
       d="m 10.202443,29.024273 c 0.146524,-0.146522 0.360944,-0.683177 0.105663,-0.93846 -0.255281,-0.255281 -0.8269907,-0.06081 -0.9735124,0.08572 -0.146522,0.146521 -0.322543,0.223165 0.1861427,0.701648 0.5086937,0.478485 0.5351787,0.29762 0.6817027,0.151096 z"
       sodipodi:nodetypes="ssszs" /><path
       id="path1-7-1-9-1-5"
       style="fill:#ffffff;stroke:#000000;stroke-width:0.265;stroke-dasharray:none"
       d="m 11.972239,30.76328 c 0.146521,-0.146521 0.360942,-0.683179 0.105661,-0.938461 -0.255281,-0.255281 -0.826989,-0.06081 -0.973511,0.08572 -0.146524,0.146521 -0.322544,0.223168 0.186143,0.701649 0.508694,0.478486 0.535181,0.297619 0.681703,0.151097 z"
       sodipodi:nodetypes="ssszs" /><path
       id="path1-5-1"
       style="fill:#6666ff;fill-opacity:1;stroke:#000000;stroke-width:0.265"
       d="m 15.850314,26.67836 c 0.649268,-0.649274 0.926362,-1.979041 0.277093,-2.628311 -0.649272,-0.649273 -1.979042,-0.37218 -2.628311,0.277092 -0.649272,0.649271 -0.649271,1.701946 -10e-7,2.351218 0.649271,0.649272 1.701949,0.649272 2.351219,1e-6 z"
       sodipodi:nodetypes="zzzzz" /><path
       id="path1-3-1-5-8-0-8-0-7"
       style="fill:url(#linearGradient4);fill-opacity:1;stroke:none;stroke-width:0.265"
       d="m 10.769409,19.174678 c 1.796429,1.786388 3.719828,3.865303 4.929992,4.756666 0.210836,0.933362 -1.528012,1.773726 -2.441747,2.057816 C 11.765,24.599474 9.4543456,22.103503 9.0850726,20.19724 c -0.08087,-0.41745 0.138253,-3.102838 1.6843364,-1.022566 0,0 -1.7964294,-1.786388 -2e-6,1e-6 z"
       sodipodi:nodetypes="zcczzz" /></g></svg>
