<?xml version="1.0" encoding="UTF-8" standalone="no"?>
<!-- Created with Inkscape (http://www.inkscape.org/) -->

<svg
   width="35mm"
   height="35mm"
   viewBox="0 0 35 35"
   version="1.1"
   id="svg1"
   xml:space="preserve"
   inkscape:version="1.4 (e7c3feb100, 2024-10-09)"
   sodipodi:docname="12_v4_end.svg"
   xmlns:inkscape="http://www.inkscape.org/namespaces/inkscape"
   xmlns:sodipodi="http://sodipodi.sourceforge.net/DTD/sodipodi-0.dtd"
   xmlns="http://www.w3.org/2000/svg"
   xmlns:svg="http://www.w3.org/2000/svg"><sodipodi:namedview
     id="namedview1"
     pagecolor="#ffffff"
     bordercolor="#000000"
     borderopacity="0.25"
     inkscape:showpageshadow="2"
     inkscape:pageopacity="0.0"
     inkscape:pagecheckerboard="0"
     inkscape:deskcolor="#d1d1d1"
     inkscape:document-units="mm"
     inkscape:zoom="3.03832"
     inkscape:cx="46.57179"
     inkscape:cy="69.446274"
     inkscape:window-width="1916"
     inkscape:window-height="1023"
     inkscape:window-x="0"
     inkscape:window-y="0"
     inkscape:window-maximized="0"
     inkscape:current-layer="layer1"
     showgrid="false"><sodipodi:guide
       position="25.431035,17.543103"
       orientation="0,132.28346"
       id="guide5"
       inkscape:locked="false" /><sodipodi:guide
       position="35.000001,35.000001"
       orientation="132.28346,0"
       id="guide6"
       inkscape:locked="false" /><sodipodi:guide
       position="17.503506,35.914363"
       orientation="-132.28346,0"
       id="guide8"
       inkscape:locked="false" /></sodipodi:namedview><defs
     id="defs1"><inkscape:path-effect
       effect="mirror_symmetry"
       start_point="17.297909,16.234992"
       end_point="17.313303,7.810326"
       center_point="17.305606,12.022659"
       id="path-effect5"
       is_visible="true"
       lpeversion="1.2"
       lpesatellites=""
       mode="free"
       discard_orig_path="false"
       fuse_paths="true"
       oposite_fuse="false"
       split_items="false"
       split_open="false"
       link_styles="false" /><inkscape:path-effect
       effect="mirror_symmetry"
       start_point="17.297909,16.234992"
       end_point="17.313303,7.810326"
       center_point="17.305606,12.022659"
       id="path-effect5-7"
       is_visible="true"
       lpeversion="1.2"
       lpesatellites=""
       mode="free"
       discard_orig_path="false"
       fuse_paths="true"
       oposite_fuse="false"
       split_items="false"
       split_open="false"
       link_styles="false" /><inkscape:path-effect
       effect="mirror_symmetry"
       start_point="17.297909,16.234992"
       end_point="17.313303,7.810326"
       center_point="17.305606,12.022659"
       id="path-effect5-6"
       is_visible="true"
       lpeversion="1.2"
       lpesatellites=""
       mode="free"
       discard_orig_path="false"
       fuse_paths="true"
       oposite_fuse="false"
       split_items="false"
       split_open="false"
       link_styles="false" /><inkscape:path-effect
       effect="mirror_symmetry"
       start_point="17.297909,16.234992"
       end_point="17.313303,7.810326"
       center_point="17.305606,12.022659"
       id="path-effect5-3"
       is_visible="true"
       lpeversion="1.2"
       lpesatellites=""
       mode="free"
       discard_orig_path="false"
       fuse_paths="true"
       oposite_fuse="false"
       split_items="false"
       split_open="false"
       link_styles="false" /><inkscape:path-effect
       effect="mirror_symmetry"
       start_point="17.297909,16.234992"
       end_point="17.313303,7.810326"
       center_point="17.305606,12.022659"
       id="path-effect5-66"
       is_visible="true"
       lpeversion="1.2"
       lpesatellites=""
       mode="free"
       discard_orig_path="false"
       fuse_paths="true"
       oposite_fuse="false"
       split_items="false"
       split_open="false"
       link_styles="false" /><inkscape:path-effect
       effect="mirror_symmetry"
       start_point="17.297909,16.234992"
       end_point="17.313303,7.810326"
       center_point="17.305606,12.022659"
       id="path-effect5-4"
       is_visible="true"
       lpeversion="1.2"
       lpesatellites=""
       mode="free"
       discard_orig_path="false"
       fuse_paths="true"
       oposite_fuse="false"
       split_items="false"
       split_open="false"
       link_styles="false" /><inkscape:path-effect
       effect="mirror_symmetry"
       start_point="17.297909,16.234992"
       end_point="17.313303,7.810326"
       center_point="17.305606,12.022659"
       id="path-effect5-4-7"
       is_visible="true"
       lpeversion="1.2"
       lpesatellites=""
       mode="free"
       discard_orig_path="false"
       fuse_paths="true"
       oposite_fuse="false"
       split_items="false"
       split_open="false"
       link_styles="false" /><inkscape:path-effect
       effect="mirror_symmetry"
       start_point="17.297909,16.234992"
       end_point="17.313303,7.810326"
       center_point="17.305606,12.022659"
       id="path-effect5-41"
       is_visible="true"
       lpeversion="1.2"
       lpesatellites=""
       mode="free"
       discard_orig_path="false"
       fuse_paths="true"
       oposite_fuse="false"
       split_items="false"
       split_open="false"
       link_styles="false" /><inkscape:path-effect
       effect="mirror_symmetry"
       start_point="17.297909,16.234992"
       end_point="17.313303,7.810326"
       center_point="17.305606,12.022659"
       id="path-effect5-4-0"
       is_visible="true"
       lpeversion="1.2"
       lpesatellites=""
       mode="free"
       discard_orig_path="false"
       fuse_paths="true"
       oposite_fuse="false"
       split_items="false"
       split_open="false"
       link_styles="false" /><inkscape:path-effect
       effect="mirror_symmetry"
       start_point="17.493844,16.300304"
       end_point="17.509238,7.875638"
       center_point="17.501541,12.087971"
       id="path-effect5-4-0-9"
       is_visible="true"
       lpeversion="1.2"
       lpesatellites=""
       mode="free"
       discard_orig_path="false"
       fuse_paths="true"
       oposite_fuse="false"
       split_items="false"
       split_open="false"
       link_styles="false" /><inkscape:path-effect
       effect="mirror_symmetry"
       start_point="17.297909,16.234992"
       end_point="17.313303,7.810326"
       center_point="17.305606,12.022659"
       id="path-effect5-4-0-0"
       is_visible="true"
       lpeversion="1.2"
       lpesatellites=""
       mode="free"
       discard_orig_path="false"
       fuse_paths="true"
       oposite_fuse="false"
       split_items="false"
       split_open="false"
       link_styles="false" /><inkscape:path-effect
       effect="mirror_symmetry"
       start_point="17.493844,16.300304"
       end_point="17.509238,7.875638"
       center_point="17.501541,12.087971"
       id="path-effect5-4-0-9-7"
       is_visible="true"
       lpeversion="1.2"
       lpesatellites=""
       mode="free"
       discard_orig_path="false"
       fuse_paths="true"
       oposite_fuse="false"
       split_items="false"
       split_open="false"
       link_styles="false" /><inkscape:path-effect
       effect="mirror_symmetry"
       start_point="17.493844,16.300304"
       end_point="17.509238,7.875638"
       center_point="17.501541,12.087971"
       id="path-effect5-4-0-9-3"
       is_visible="true"
       lpeversion="1.2"
       lpesatellites=""
       mode="free"
       discard_orig_path="false"
       fuse_paths="true"
       oposite_fuse="false"
       split_items="false"
       split_open="false"
       link_styles="false" /><inkscape:path-effect
       effect="mirror_symmetry"
       start_point="17.493844,16.300304"
       end_point="17.509238,7.875638"
       center_point="17.501541,12.087971"
       id="path-effect5-4-0-9-5"
       is_visible="true"
       lpeversion="1.2"
       lpesatellites=""
       mode="free"
       discard_orig_path="false"
       fuse_paths="true"
       oposite_fuse="false"
       split_items="false"
       split_open="false"
       link_styles="false" /><inkscape:path-effect
       effect="mirror_symmetry"
       start_point="17.297909,16.234992"
       end_point="17.313303,7.810326"
       center_point="17.305606,12.022659"
       id="path-effect5-4-6-1"
       is_visible="true"
       lpeversion="1.2"
       lpesatellites=""
       mode="free"
       discard_orig_path="false"
       fuse_paths="true"
       oposite_fuse="false"
       split_items="false"
       split_open="false"
       link_styles="false" /><inkscape:path-effect
       effect="mirror_symmetry"
       start_point="17.493844,16.300304"
       end_point="17.509238,7.875638"
       center_point="17.501541,12.087971"
       id="path-effect5-4-0-9-5-9"
       is_visible="true"
       lpeversion="1.2"
       lpesatellites=""
       mode="free"
       discard_orig_path="false"
       fuse_paths="true"
       oposite_fuse="false"
       split_items="false"
       split_open="false"
       link_styles="false" /><inkscape:path-effect
       effect="mirror_symmetry"
       start_point="17.297909,16.234992"
       end_point="17.313303,7.810326"
       center_point="17.305606,12.022659"
       id="path-effect5-61"
       is_visible="true"
       lpeversion="1.2"
       lpesatellites=""
       mode="free"
       discard_orig_path="false"
       fuse_paths="true"
       oposite_fuse="false"
       split_items="false"
       split_open="false"
       link_styles="false" /><inkscape:path-effect
       effect="mirror_symmetry"
       start_point="17.297909,16.234992"
       end_point="17.313303,7.810326"
       center_point="17.305606,12.022659"
       id="path-effect5-4-3"
       is_visible="true"
       lpeversion="1.2"
       lpesatellites=""
       mode="free"
       discard_orig_path="false"
       fuse_paths="true"
       oposite_fuse="false"
       split_items="false"
       split_open="false"
       link_styles="false" /><inkscape:path-effect
       effect="mirror_symmetry"
       start_point="17.297909,16.234992"
       end_point="17.313303,7.810326"
       center_point="17.305606,12.022659"
       id="path-effect5-61-7"
       is_visible="true"
       lpeversion="1.2"
       lpesatellites=""
       mode="free"
       discard_orig_path="false"
       fuse_paths="true"
       oposite_fuse="false"
       split_items="false"
       split_open="false"
       link_styles="false" /></defs><g
     inkscape:label="Layer 1"
     inkscape:groupmode="layer"
     id="layer1"><path
       style="fill:#999999;fill-opacity:1;stroke:none;stroke-width:0.264999;stroke-dasharray:none;stroke-opacity:1"
       d="m 16.0625,7.5585937 c -0.262338,-0.00397 -0.518182,0.082402 -0.507812,0.2617188 0.07244,1.2524069 0.08092,3.5770765 0.509765,4.4824215 -0.437864,0.679074 -1.494271,1.202659 -2.015625,2.046875 -0.452157,0.732168 -0.02075,1.907611 0.216797,3.083985 0.05573,0.275974 0.796346,0.47567 0.822266,0.195312 0.109285,-1.18211 -0.07617,-2.728515 -0.07617,-2.728515 0.929349,-0.552216 1.774728,-0.990204 2.291015,-1.248047 0.515342,0.259728 1.357832,0.702204 2.285157,1.257812 0,0 -0.188949,1.544061 -0.08398,2.726563 0.0249,0.280451 0.76553,0.08241 0.822266,-0.19336 0.241841,-1.175498 0.677994,-2.348215 0.228515,-3.082031 -0.518265,-0.846116 -1.574386,-1.372065 -2.009765,-2.052734 0.432152,-0.903772 0.450328,-3.2302883 0.527344,-4.4824221 0.02205,-0.3585544 -1.02167,-0.3458071 -1.056641,0.011719 -0.100734,1.0298107 -0.213416,2.7436984 -0.427734,2.9062504 -0.121107,0.09185 -0.211094,0.116149 -0.279297,0.105468 -0.06824,0.01043 -0.16048,-0.01512 -0.28125,-0.107421 C 16.813621,10.578854 16.706345,8.8661094 16.609375,7.8359375 16.592543,7.6571119 16.324839,7.5625647 16.0625,7.5585937 Z"
       id="path4-1"
       sodipodi:nodetypes="ssscssscccs"
       transform="matrix(0.70710678,-0.70710678,-0.70710678,-0.70710678,21.376795,40.019979)"
       inkscape:original-d="m 15.087222,17.628795 c -0.02592,0.280358 -0.765893,0.08004 -0.821621,-0.195934 -0.237544,-1.176374 -0.668956,-2.351745 -0.216799,-3.083913 0.521354,-0.844216 1.577933,-1.366261 2.015797,-2.045335 -0.428846,-0.905345 -0.437758,-3.2310091 -0.510197,-4.483416 -0.02074,-0.3586326 1.022152,-0.3422582 1.055816,0.015393 0.09697,1.0301719 0.203913,2.743905 0.417636,2.907239 0.427544,0.326742 0.480507,-0.179347 0.480507,-0.179347 l 0.318037,2.834014 c 0,0 -1.293868,0.600372 -2.814147,1.503717 0,0 0.184256,1.545472 0.07497,2.727582 z"
       inkscape:path-effect="#path-effect5-61" /><path
       style="fill:#999999;fill-opacity:1;stroke:none;stroke-width:0.264999;stroke-dasharray:none;stroke-opacity:1"
       d="m 16.262285,28.046999 c -0.262338,0.004 -0.518182,-0.0824 -0.507812,-0.261719 0.07244,-1.252406 0.09631,-3.792593 0.525159,-4.697938 -0.437864,-0.679074 -1.312206,-1.140524 -1.658208,-1.916087 -0.221766,-0.49709 -0.366994,-1.191012 -0.375752,-2.521327 -0.0019,-0.281539 0.913827,-0.426674 0.97466,-0.151771 0.27862,1.25908 0.481855,2.205116 0.481855,2.205116 0.836985,0.767733 1.284047,0.992133 1.800334,1.249976 1.320852,-0.11822 1.605873,0.05992 2.783558,0.135657 0,0 0.481584,-1.065265 0.586549,-2.247766 0.0249,-0.280451 0.95188,-0.08496 0.909347,0.193359 -0.226224,1.480285 -0.41806,3.061929 -0.86709,3.320248 -0.495008,0.28477 -1.375583,0.01267 -2.170176,-0.05775 0.432152,0.903772 0.450328,3.230288 0.527344,4.482422 0.02205,0.358554 -1.02167,0.345807 -1.056641,-0.01172 -0.100734,-1.029811 -0.213416,-2.743698 -0.427734,-2.90625 -0.121107,-0.09185 -0.211094,-0.116149 -0.279297,-0.105468 -0.06824,-0.01043 -0.16048,0.01512 -0.28125,0.107421 -0.213725,0.163336 -0.321001,1.876081 -0.417971,2.906252 -0.01683,0.178826 -0.284536,0.273373 -0.546875,0.277344 z"
       id="path4-1-3"
       sodipodi:nodetypes="ssssssscccsscssscsss" /><path
       id="path1-5"
       style="fill:#ff6666;fill-opacity:1;stroke:#000000;stroke-width:0.265"
       d="m 24.890164,16.89238 c -0.886921,-0.237649 -2.177082,0.187265 -2.414731,1.074186 -0.23765,0.886921 0.667206,1.899987 1.554126,2.137636 0.886921,0.23765 1.798563,-0.288687 2.036213,-1.175608 0.23765,-0.88692 -0.288687,-1.798564 -1.175608,-2.036214 z"
       sodipodi:nodetypes="zzzzz" /><path
       id="path1-7-1-99"
       style="fill:#ffffff;stroke:#000000;stroke-width:0.265;stroke-dasharray:none"
       d="m 27.927507,23.019599 c -0.146522,-0.146523 -0.683179,-0.360944 -0.938461,-0.105663 -0.255281,0.255282 -0.06081,0.826989 0.08572,0.973511 0.146522,0.146523 0.223167,0.322544 0.701649,-0.186146 0.478485,-0.508692 0.297618,-0.535179 0.151095,-0.681702 z"
       sodipodi:nodetypes="ssszs" /><path
       id="path1-7-1-9-1"
       style="fill:#ffffff;stroke:#000000;stroke-width:0.265;stroke-dasharray:none"
       d="m 29.666514,21.249804 c -0.146522,-0.146522 -0.68318,-0.360944 -0.938461,-0.105662 -0.255282,0.255281 -0.06081,0.826988 0.08572,0.973511 0.146523,0.146522 0.223168,0.322544 0.70165,-0.186146 0.478485,-0.508693 0.297618,-0.535179 0.151095,-0.681703 z"
       sodipodi:nodetypes="ssszs" /><path
       style="fill:#999999;fill-opacity:1;stroke:none;stroke-width:0.264999;stroke-dasharray:none;stroke-opacity:1"
       d="m 16.0625,7.5585937 c -0.262338,-0.00397 -0.518182,0.082402 -0.507812,0.2617188 0.07244,1.2524069 0.08092,3.5770765 0.509765,4.4824215 -0.437864,0.679074 -1.494271,1.202659 -2.015625,2.046875 -0.452157,0.732168 -0.02075,1.907611 0.216797,3.083985 0.05573,0.275974 0.796346,0.47567 0.822266,0.195312 0.10928,-1.18211 0.09766,-2.857422 0.09766,-2.857422 0.891495,-0.529723 1.646191,-0.910531 2.117187,-1.134765 0.470175,0.225954 1.221775,0.607646 2.111328,1.140625 0,0 -0.01512,1.676873 0.08984,2.859375 0.0249,0.280451 0.76553,0.08241 0.822266,-0.19336 0.241841,-1.175498 0.677994,-2.348215 0.228515,-3.082031 -0.518265,-0.846116 -1.574386,-1.372065 -2.009765,-2.052734 0.432152,-0.903772 0.450328,-3.2302883 0.527344,-4.4824221 0.02205,-0.3585544 -1.02167,-0.3458071 -1.056641,0.011719 -0.100734,1.0298107 -0.213416,2.7436984 -0.427734,2.9062504 -0.121107,0.09185 -0.211094,0.116149 -0.279297,0.105468 -0.06824,0.01043 -0.16048,-0.01512 -0.28125,-0.107421 C 16.813621,10.578854 16.706345,8.8661094 16.609375,7.8359375 16.592543,7.6571119 16.324839,7.5625647 16.0625,7.5585937 Z"
       id="path4-6-4"
       sodipodi:nodetypes="ssscssscccs"
       transform="matrix(-0.70710678,0.70710678,0.70710678,0.70710678,20.480062,-9.8091699)"
       inkscape:original-d="m 15.087222,17.628795 c -0.02592,0.280358 -0.765893,0.08004 -0.821621,-0.195934 -0.237544,-1.176374 -0.668956,-2.351745 -0.216799,-3.083913 0.521354,-0.844216 1.577933,-1.366261 2.015797,-2.045335 -0.428846,-0.905345 -0.437758,-3.2310091 -0.510197,-4.483416 -0.02074,-0.3586326 1.022152,-0.3422582 1.055816,0.015393 0.09697,1.0301719 0.203913,2.743905 0.417636,2.907239 0.427544,0.326742 0.480507,-0.179347 0.480507,-0.179347 l 0.318037,2.834014 c 0,0 -1.119704,0.469749 -2.639983,1.373094 0,0 0.01009,1.676095 -0.09919,2.858205 z"
       inkscape:path-effect="#path-effect5-4-3" /><ellipse
       style="fill:#ffffff;fill-opacity:1;stroke:#000000;stroke-width:0.265;stroke-dasharray:none;stroke-opacity:1"
       id="path1-7-2-9-9-1-9"
       cx="1.5572431"
       cy="-25.518816"
       rx="0.65429264"
       ry="0.80279088"
       transform="matrix(0.70710678,-0.70710678,-0.70710678,-0.70710678,0,0)" /><path
       id="path1-3-1"
       style="fill:#4d4d4d;fill-opacity:1;stroke:#000000;stroke-width:0.265"
       d="m 15.923697,11.567299 c 0,0.918208 0.744355,2.054432 1.662562,2.054432 0.918207,0 1.662561,-1.136225 1.662561,-2.054432 0,-0.918207 -0.744355,-1.6625623 -1.662561,-1.6625623 -0.918207,0 -1.662562,0.7443553 -1.662562,1.6625623 z"
       sodipodi:nodetypes="zzzzz" /><path
       id="path1-7-1-1-0"
       style="fill:#ffffff;stroke:#000000;stroke-width:0.265;stroke-dasharray:none"
       d="m 13.935634,7.2157207 c 0.146523,0.146523 0.683179,0.360945 0.938461,0.105664 0.255282,-0.255282 0.06081,-0.826989 -0.08572,-0.973511 -0.146522,-0.146523 -0.223167,-0.322544 -0.701649,0.186146 -0.478485,0.508692 -0.297618,0.535178 -0.151095,0.681701 z"
       sodipodi:nodetypes="ssszs" /><path
       id="path1-7-1-9-7-7"
       style="fill:#ffffff;stroke:#000000;stroke-width:0.265;stroke-dasharray:none"
       d="m 12.196627,8.9855157 c 0.146522,0.146523 0.68318,0.360944 0.938461,0.105663 0.255282,-0.255282 0.06081,-0.826989 -0.08572,-0.973512 -0.146521,-0.146521 -0.223166,-0.322543 -0.701649,0.186147 -0.478484,0.508692 -0.297618,0.53518 -0.151096,0.681702 z"
       sodipodi:nodetypes="ssszs" /><ellipse
       style="fill:#ffffff;fill-opacity:1;stroke:#000000;stroke-width:0.265;stroke-dasharray:none;stroke-opacity:1"
       id="path1-7-2-9-9-5"
       cx="6.6614394"
       cy="-25.518816"
       rx="0.65429264"
       ry="0.80279088"
       transform="matrix(0.70710678,-0.70710678,-0.70710678,-0.70710678,0,0)" /><path
       id="path1-3"
       style="fill:#66ff66;fill-opacity:1;stroke:#000000;stroke-width:0.265"
       d="m 15.989545,22.317527 c -10e-7,-0.918208 0.744355,-2.054432 1.662563,-2.054432 0.918208,0 1.662561,1.136224 1.662561,2.054432 0,0.918208 -0.744355,1.66256 -1.662563,1.662561 -0.918207,0 -1.662561,-0.744353 -1.662561,-1.662561 z"
       sodipodi:nodetypes="zzzzz" /><path
       id="path1-7-1-1"
       style="fill:#ffffff;stroke:#000000;stroke-width:0.265;stroke-dasharray:none"
       d="m 18.134204,27.918549 c 0,-0.207214 0.227855,-0.738308 0.588877,-0.738308 0.361023,0 0.627769,0.541771 0.627764,0.74899 -1e-6,0.207214 0.07027,0.385875 -0.627767,0.364516 -0.69804,-0.02136 -0.588877,-0.167981 -0.588877,-0.375195 z"
       sodipodi:nodetypes="ssszs" /><path
       id="path1-7-1-9-7"
       style="fill:#ffffff;stroke:#000000;stroke-width:0.265;stroke-dasharray:none"
       d="m 15.653107,27.89678 c 0,-0.207216 0.227855,-0.738309 0.588877,-0.738309 0.361023,0 0.627762,0.541778 0.627763,0.74899 1e-6,0.207214 0.07027,0.385874 -0.627766,0.364515 -0.69804,-0.02136 -0.588877,-0.167981 -0.588877,-0.375193 z"
       sodipodi:nodetypes="ssszs" /><path
       style="fill:#999999;fill-opacity:1;stroke:none;stroke-width:0.264999;stroke-dasharray:none;stroke-opacity:1"
       d="m 4.4476067,16.924536 c -0.07176,0.252364 -0.05452,0.521852 0.12137,0.558246 1.228479,0.254175 3.476133,0.847653 4.461623,0.667741 -0.331389,0.499982 -0.997974,1.08158 -0.835531,1.926598 0.136507,0.7101 1.8729163,0.945662 3.0466783,0.783155 0.278884,-0.03861 0.476183,-1.098168 0.194658,-1.10192 -0.870087,-0.01159 -1.231785,-0.168197 -1.8562023,-0.0088 0.289984,-0.538557 1.1541123,-1.936883 1.0594213,-2.449865 0.339944,-0.395674 1.466068,-0.744544 2.093727,-1.146679 0,0 0.833493,1.227085 1.32569,2.174663 0.27734,0.04853 1.027854,-0.393945 0.89645,-0.642944 -0.447759,-0.848459 -0.818059,-2.451071 -1.783359,-2.754377 -0.946598,-0.297432 -2.723717,0.581365 -3.4938773,0.825739 -0.761127,-0.65134 -3.003664,-1.271044 -4.193199,-1.669511 -0.34063,-0.1141 -0.598452,0.897357 -0.262158,1.02367 0.968649,0.363836 2.594972,0.916265 2.696515,1.165352 0.05737,0.140754 0.05755,0.233965 0.02959,0.297077 -0.0076,0.06862 -0.05614,0.151098 -0.176554,0.243864 -0.213089,0.164169 -1.895238,-0.1755 -2.915404,-0.348463 -0.177089,-0.03003 -0.337698,0.204092 -0.409436,0.456459 z"
       id="path4-6-3"
       sodipodi:nodetypes="sscsssccccsscscscssss" /><path
       id="path1-3-3"
       style="fill:#6666ff;fill-opacity:1;stroke:#000000;stroke-width:0.265"
       d="m 10.040342,15.489953 c 0.918208,0 2.054431,0.744353 2.054431,1.662561 10e-7,0.918208 -1.136224,1.662561 -2.054432,1.662562 -0.9182063,-1e-6 -1.6625593,-0.744357 -1.6625593,-1.662562 0,-0.918207 0.744352,-1.662562 1.6625603,-1.662561 z"
       sodipodi:nodetypes="zzzzz" /><path
       id="path1-7-1-1-0-7"
       style="fill:#ffffff;stroke:#000000;stroke-width:0.265;stroke-dasharray:none"
       d="m 4.4610567,16.303323 c 0.200152,0.05363 0.654176,0.411178 0.560736,0.759898 -0.09344,0.348722 -0.685788,0.466158 -0.885946,0.412521 -0.200153,-0.05363 -0.390915,-0.032 -0.189617,-0.700719 0.201299,-0.668727 0.31467,-0.525334 0.514825,-0.471704 z"
       sodipodi:nodetypes="ssszs" /><path
       id="path1-7-1-9-7-9"
       style="fill:#ffffff;stroke:#000000;stroke-width:0.265;stroke-dasharray:none"
       d="m 5.1242397,13.912402 c 0.200153,0.05363 0.654177,0.411179 0.560737,0.759899 -0.09344,0.348721 -0.685788,0.466158 -0.885946,0.412521 -0.200151,-0.05363 -0.390913,-0.032 -0.189616,-0.700719 0.201299,-0.668726 0.314669,-0.525335 0.514823,-0.471704 z"
       sodipodi:nodetypes="ssszs" /><ellipse
       style="fill:#ffffff;fill-opacity:1;stroke:#000000;stroke-width:0.265;stroke-dasharray:none;stroke-opacity:1"
       id="path1-7-2-9-9-5-3"
       cx="20.262472"
       cy="-11.649954"
       rx="0.65429264"
       ry="0.80279088"
       transform="rotate(90)" /><ellipse
       style="fill:#ffffff;fill-opacity:1;stroke:#000000;stroke-width:0.265;stroke-dasharray:none;stroke-opacity:1"
       id="path1-7-2-9-9-1"
       cx="9.4231691"
       cy="21.628416"
       rx="0.65429264"
       ry="0.80279088"
       transform="rotate(-15)" /><ellipse
       style="fill:#ffffff;fill-opacity:1;stroke:#000000;stroke-width:0.265;stroke-dasharray:none;stroke-opacity:1"
       id="path1-7-2-9-9"
       cx="25.709759"
       cy="13.729185"
       rx="0.65429264"
       ry="0.80279088"
       transform="rotate(15)" /></g></svg>
