<?xml version="1.0" encoding="UTF-8" standalone="no"?>
<!-- Created with Inkscape (http://www.inkscape.org/) -->

<svg
   width="35mm"
   height="35mm"
   viewBox="0 0 35 35"
   version="1.1"
   id="svg1"
   xml:space="preserve"
   inkscape:version="1.4 (e7c3feb100, 2024-10-09)"
   sodipodi:docname="12_v4_inter.svg"
   xmlns:inkscape="http://www.inkscape.org/namespaces/inkscape"
   xmlns:sodipodi="http://sodipodi.sourceforge.net/DTD/sodipodi-0.dtd"
   xmlns:xlink="http://www.w3.org/1999/xlink"
   xmlns="http://www.w3.org/2000/svg"
   xmlns:svg="http://www.w3.org/2000/svg"><sodipodi:namedview
     id="namedview1"
     pagecolor="#ffffff"
     bordercolor="#000000"
     borderopacity="0.25"
     inkscape:showpageshadow="2"
     inkscape:pageopacity="0.0"
     inkscape:pagecheckerboard="0"
     inkscape:deskcolor="#d1d1d1"
     inkscape:document-units="mm"
     inkscape:zoom="6.07664"
     inkscape:cx="84.503936"
     inkscape:cy="47.230048"
     inkscape:window-width="956"
     inkscape:window-height="1023"
     inkscape:window-x="0"
     inkscape:window-y="0"
     inkscape:window-maximized="0"
     inkscape:current-layer="layer1" /><defs
     id="defs1"><linearGradient
       id="linearGradient8"
       inkscape:collect="always"><stop
         style="stop-color:#66ff66;stop-opacity:0.74901962;"
         offset="0"
         id="stop7" /><stop
         style="stop-color:#66ff66;stop-opacity:0;"
         offset="1"
         id="stop8" /></linearGradient><linearGradient
       id="linearGradient6"
       inkscape:collect="always"><stop
         style="stop-color:#6666ff;stop-opacity:0.74901962;"
         offset="0"
         id="stop3" /><stop
         style="stop-color:#6666ff;stop-opacity:0;"
         offset="1"
         id="stop6" /></linearGradient><linearGradient
       id="linearGradient10"
       inkscape:collect="always"><stop
         style="stop-color:#4d4d4d;stop-opacity:0.74901962;"
         offset="0"
         id="stop9" /><stop
         style="stop-color:#4d4d4d;stop-opacity:0;"
         offset="1"
         id="stop10" /></linearGradient><linearGradient
       id="linearGradient5"
       inkscape:collect="always"><stop
         style="stop-color:#ff6666;stop-opacity:0.74901962;"
         offset="0"
         id="stop4" /><stop
         style="stop-color:#ff6666;stop-opacity:0;"
         offset="1"
         id="stop5" /></linearGradient><inkscape:path-effect
       effect="mirror_symmetry"
       start_point="17.297909,16.234992"
       end_point="17.313303,7.810326"
       center_point="17.305606,12.022659"
       id="path-effect5"
       is_visible="true"
       lpeversion="1.2"
       lpesatellites=""
       mode="free"
       discard_orig_path="false"
       fuse_paths="true"
       oposite_fuse="false"
       split_items="false"
       split_open="false"
       link_styles="false" /><inkscape:path-effect
       effect="mirror_symmetry"
       start_point="17.297909,16.234992"
       end_point="17.313303,7.810326"
       center_point="17.305606,12.022659"
       id="path-effect5-7"
       is_visible="true"
       lpeversion="1.2"
       lpesatellites=""
       mode="free"
       discard_orig_path="false"
       fuse_paths="true"
       oposite_fuse="false"
       split_items="false"
       split_open="false"
       link_styles="false" /><inkscape:path-effect
       effect="mirror_symmetry"
       start_point="17.297909,16.234992"
       end_point="17.313303,7.810326"
       center_point="17.305606,12.022659"
       id="path-effect5-6"
       is_visible="true"
       lpeversion="1.2"
       lpesatellites=""
       mode="free"
       discard_orig_path="false"
       fuse_paths="true"
       oposite_fuse="false"
       split_items="false"
       split_open="false"
       link_styles="false" /><inkscape:path-effect
       effect="mirror_symmetry"
       start_point="17.297909,16.234992"
       end_point="17.313303,7.810326"
       center_point="17.305606,12.022659"
       id="path-effect5-3"
       is_visible="true"
       lpeversion="1.2"
       lpesatellites=""
       mode="free"
       discard_orig_path="false"
       fuse_paths="true"
       oposite_fuse="false"
       split_items="false"
       split_open="false"
       link_styles="false" /><inkscape:path-effect
       effect="mirror_symmetry"
       start_point="17.297909,16.234992"
       end_point="17.313303,7.810326"
       center_point="17.305606,12.022659"
       id="path-effect5-66"
       is_visible="true"
       lpeversion="1.2"
       lpesatellites=""
       mode="free"
       discard_orig_path="false"
       fuse_paths="true"
       oposite_fuse="false"
       split_items="false"
       split_open="false"
       link_styles="false" /><inkscape:path-effect
       effect="mirror_symmetry"
       start_point="17.297909,16.234992"
       end_point="17.313303,7.810326"
       center_point="17.305606,12.022659"
       id="path-effect5-4"
       is_visible="true"
       lpeversion="1.2"
       lpesatellites=""
       mode="free"
       discard_orig_path="false"
       fuse_paths="true"
       oposite_fuse="false"
       split_items="false"
       split_open="false"
       link_styles="false" /><inkscape:path-effect
       effect="mirror_symmetry"
       start_point="17.297909,16.234992"
       end_point="17.313303,7.810326"
       center_point="17.305606,12.022659"
       id="path-effect5-4-7"
       is_visible="true"
       lpeversion="1.2"
       lpesatellites=""
       mode="free"
       discard_orig_path="false"
       fuse_paths="true"
       oposite_fuse="false"
       split_items="false"
       split_open="false"
       link_styles="false" /><inkscape:path-effect
       effect="mirror_symmetry"
       start_point="17.297909,16.234992"
       end_point="17.313303,7.810326"
       center_point="17.305606,12.022659"
       id="path-effect5-41"
       is_visible="true"
       lpeversion="1.2"
       lpesatellites=""
       mode="free"
       discard_orig_path="false"
       fuse_paths="true"
       oposite_fuse="false"
       split_items="false"
       split_open="false"
       link_styles="false" /><linearGradient
       inkscape:collect="always"
       xlink:href="#linearGradient10"
       id="linearGradient1"
       gradientUnits="userSpaceOnUse"
       gradientTransform="matrix(-0.8660254,-0.5,0.5412996,-0.93755841,18.461401,30.624392)"
       x1="10.647268"
       y1="16.557198"
       x2="14.696174"
       y2="14.776537" /><linearGradient
       inkscape:collect="always"
       xlink:href="#linearGradient5"
       id="linearGradient4"
       gradientUnits="userSpaceOnUse"
       gradientTransform="matrix(0.96592582,0.25881904,-0.28019729,1.0457105,9.150398,-4.394691)"
       x1="10.647268"
       y1="16.557198"
       x2="17.939503"
       y2="14.395561" /><linearGradient
       inkscape:collect="always"
       xlink:href="#linearGradient8"
       id="linearGradient2"
       gradientUnits="userSpaceOnUse"
       gradientTransform="matrix(0.70710678,0.70710678,-0.76551324,0.76551324,21.927709,5.356144)"
       x1="10.647268"
       y1="16.557198"
       x2="14.696174"
       y2="14.776537" /><linearGradient
       inkscape:collect="always"
       xlink:href="#linearGradient6"
       id="linearGradient3"
       gradientUnits="userSpaceOnUse"
       gradientTransform="matrix(-0.96592582,-0.25881904,0.28019729,-1.0457105,25.849602,39.394691)"
       x1="10.647268"
       y1="16.557198"
       x2="17.939503"
       y2="14.395561" /><inkscape:path-effect
       effect="mirror_symmetry"
       start_point="17.297909,16.234992"
       end_point="17.313303,7.810326"
       center_point="17.305606,12.022659"
       id="path-effect5-61-3"
       is_visible="true"
       lpeversion="1.2"
       lpesatellites=""
       mode="free"
       discard_orig_path="false"
       fuse_paths="true"
       oposite_fuse="false"
       split_items="false"
       split_open="false"
       link_styles="false" /><inkscape:path-effect
       effect="mirror_symmetry"
       start_point="17.297909,16.234992"
       end_point="17.313303,7.810326"
       center_point="17.305606,12.022659"
       id="path-effect5-61-8"
       is_visible="true"
       lpeversion="1.2"
       lpesatellites=""
       mode="free"
       discard_orig_path="false"
       fuse_paths="true"
       oposite_fuse="false"
       split_items="false"
       split_open="false"
       link_styles="false" /></defs><g
     inkscape:label="Layer 1"
     inkscape:groupmode="layer"
     id="layer1"><path
       style="fill:#999999;fill-opacity:1;stroke:none;stroke-width:0.264999;stroke-dasharray:none;stroke-opacity:1"
       d="m 13.842381,31.248121 c -0.254436,-0.06404 -0.479197,-0.21371 -0.422771,-0.384231 0.394118,-1.190983 1.003978,-3.434248 1.652531,-4.197748 -0.247187,-0.769263 -1.445008,-0.212348 -1.730097,-1.162733 -0.247251,-0.824248 0.876247,-1.920424 1.425858,-2.044411 0.274644,-0.06196 0.880174,0.725187 0.625049,0.844282 -0.591985,0.276341 -0.571288,0.325908 -0.937835,0.768617 0.383686,0.341758 1.887231,-0.162432 2.149276,0.660158 0.569665,0.147258 1.288163,-0.544675 2.028841,-0.918245 -0.277641,-0.605321 -1.298729,-1.685252 -1.796511,-2.064357 0.09664,-0.264452 0.15254,-1.055136 0.398042,-0.91732 0.844566,0.474112 2.74583,2.27628 2.561815,3.192579 -0.15963,0.794886 -1.730255,1.732958 -2.32697,2.277752 0.183514,0.984825 -0.401076,3.23677 -0.650759,4.466172 -0.0715,0.352044 -1.076359,0.0696 -1.017605,-0.284798 0.169234,-1.020794 0.503978,-2.705445 0.339034,-2.917929 -0.09321,-0.12007 -0.173838,-0.16683 -0.242481,-0.174164 -0.06323,-0.02773 -0.158925,-0.02693 -0.29947,0.03097 -0.248717,0.102462 -0.795628,1.729081 -1.155923,2.699054 -0.06254,0.168376 -0.345594,0.190413 -0.600023,0.126351 z"
       id="path4-4-5-2-0-7"
       sodipodi:nodetypes="ssscssccccsscscscsss" /><path
       id="path1-9-9-4-2-5"
       style="fill:#66ff66;fill-opacity:1;stroke:#000000;stroke-width:0.265"
       d="m 17.682323,26.617463 c 0.237649,-0.886921 -0.187265,-2.177082 -1.074187,-2.414732 -0.88692,-0.23765 -1.899987,0.667207 -2.137635,1.554127 -0.237649,0.886918 0.288688,1.798561 1.175607,2.036211 0.88692,0.237649 1.798565,-0.288687 2.036215,-1.175606 z"
       sodipodi:nodetypes="zzzzz" /><path
       id="path1-7-1-2-6-0-1-4"
       style="fill:#ffffff;stroke:#000000;stroke-width:0.265;stroke-dasharray:none"
       d="m 15.626901,31.901823 c 0.05363,-0.200152 0.411176,-0.654178 0.759898,-0.560736 0.348722,0.09344 0.466155,0.68579 0.412524,0.885943 -0.05363,0.200153 -0.032,0.390916 -0.70072,0.189618 -0.668726,-0.201297 -0.525356,-0.314631 -0.471702,-0.514825 z"
       sodipodi:nodetypes="ssszs" /><path
       id="path1-7-1-9-0-2-5-0-8"
       style="fill:#ffffff;stroke:#000000;stroke-width:0.265;stroke-dasharray:none"
       d="m 13.23598,31.23864 c 0.05363,-0.200153 0.411176,-0.654178 0.759898,-0.560737 0.348722,0.09344 0.466154,0.68579 0.412523,0.885943 -0.05363,0.200153 -0.032,0.390916 -0.700719,0.189617 -0.668725,-0.201297 -0.525356,-0.31463 -0.471702,-0.514823 z"
       sodipodi:nodetypes="ssszs" /><ellipse
       style="fill:#ffffff;fill-opacity:1;stroke:#000000;stroke-width:0.265;stroke-dasharray:none;stroke-opacity:1"
       id="path1-7-2-9-9-1-6-1-9-5-1"
       cx="28.215002"
       cy="0.16495366"
       rx="0.65429264"
       ry="0.80279088"
       transform="matrix(0.53895324,0.84233568,0.84233568,-0.53895324,0,0)" /><path
       style="fill:#999999;fill-opacity:1;stroke:none;stroke-width:0.264999;stroke-dasharray:none;stroke-opacity:1"
       d="m 24.562748,16.107789 c 0.188331,0.182673 0.308146,0.424678 0.174016,0.544141 -0.936808,0.834361 -2.586595,2.472156 -3.530008,2.80909 -0.170565,0.789793 1.145239,0.906404 0.916943,1.872006 -0.197994,0.837445 -1.719065,1.225011 -2.257036,1.057582 -0.268825,-0.08367 -0.399659,-1.068119 -0.119166,-1.043695 0.650842,0.05667 0.657703,0.0034 1.196496,-0.196724 -0.161402,-0.487815 -1.715606,-0.802945 -1.531248,-1.64635 -0.419716,-0.412364 -1.387918,-0.17238 -2.216151,-0.219197 -0.06222,0.663043 0.282107,2.108834 0.523646,2.686039 -0.215916,0.180701 -0.659672,0.837507 -0.803375,0.595402 -0.494362,-0.832875 -1.239818,-3.344231 -0.622307,-4.045763 0.535686,-0.608575 2.364923,-0.635656 3.154091,-0.809105 0.333484,-0.944639 1.965728,-2.602588 2.79666,-3.542437 0.237946,-0.26913 0.966953,0.477907 0.738871,0.755445 -0.656956,0.799414 -1.789179,2.090994 -1.752574,2.357481 0.02069,0.150585 0.06714,0.231396 0.122915,0.272072 0.04088,0.05561 0.124167,0.102789 0.274833,0.12291 0.266627,0.03562 1.553576,-1.099616 2.350585,-1.759489 0.13835,-0.114548 0.394501,0.0079 0.582812,0.190587 z"
       id="path4-4-5-2-0-5-2"
       sodipodi:nodetypes="ssscssccccsscscscsss" /><path
       id="path1-9-9-4-2-8-8"
       style="fill:#6666ff;fill-opacity:1;stroke:#000000;stroke-width:0.265"
       d="m 21.008155,20.265227 c -0.64927,0.649273 -1.97904,0.926367 -2.628311,0.277095 -0.649272,-0.64927 -0.372176,-1.979041 0.277095,-2.62831 0.649268,-0.649269 1.701945,-0.649271 2.351214,0 0.649271,0.64927 0.649273,1.701945 2e-6,2.351215 z"
       sodipodi:nodetypes="zzzzz" /><path
       id="path1-7-1-2-6-0-1-6-9"
       style="fill:#ffffff;stroke:#000000;stroke-width:0.265;stroke-dasharray:none"
       d="m 23.344161,14.649409 c -0.146522,0.146521 -0.683179,0.360943 -0.93846,0.105662 -0.255282,-0.255283 -0.06081,-0.826988 0.08572,-0.973511 0.146524,-0.146524 0.223168,-0.322545 0.701651,0.186143 0.478484,0.508692 0.297618,0.535179 0.151094,0.681705 z"
       sodipodi:nodetypes="ssszs" /><path
       id="path1-7-1-9-0-2-5-0-2-3"
       style="fill:#ffffff;stroke:#000000;stroke-width:0.265;stroke-dasharray:none"
       d="m 25.083168,16.419202 c -0.146521,0.146522 -0.68318,0.360945 -0.938461,0.105664 -0.255281,-0.255282 -0.06081,-0.82699 0.08572,-0.973513 0.146522,-0.146522 0.223167,-0.322543 0.70165,0.186144 0.478484,0.508693 0.297617,0.535178 0.151095,0.681702 z"
       sodipodi:nodetypes="ssszs" /><ellipse
       style="fill:#ffffff;fill-opacity:1;stroke:#000000;stroke-width:0.265;stroke-dasharray:none;stroke-opacity:1"
       id="path1-7-2-9-9-1-6-1-9-5-8-6"
       cx="-22.777399"
       cy="-18.456741"
       rx="0.65429264"
       ry="0.80279088"
       transform="matrix(-0.04557936,-0.99896072,-0.99896072,0.04557936,0,0)" /><ellipse
       style="fill:#ffffff;fill-opacity:1;stroke:#000000;stroke-width:0.265;stroke-dasharray:none;stroke-opacity:1"
       id="path1-7-2-9-9-8"
       cx="-3.8279142"
       cy="-28.076424"
       rx="0.65429264"
       ry="0.80279088"
       transform="rotate(150)" /><path
       id="path1-3-1-5-8-0-8-0-6-0-0"
       style="fill:url(#linearGradient2);fill-opacity:1;stroke:none;stroke-width:0.265"
       d="m 20.363372,26.209544 c -2.706782,-0.823797 -2.296448,-1.079822 -3.772315,-1.843884 -0.956124,0.03792 -0.91256,2.287939 -0.95048,3.244068 1.893864,0.584526 3.295721,0.466079 4.275025,0.219918 0.979303,-0.24616 3.570045,-0.770574 0.44777,-1.620102 z"
       sodipodi:nodetypes="zcczz" /><path
       style="fill:#999999;fill-opacity:1;stroke:none;stroke-width:0.264999;stroke-dasharray:none;stroke-opacity:1"
       d="m 16.0625,7.5585937 c -0.262338,-0.00397 -0.518182,0.082402 -0.507812,0.2617188 0.07244,1.2524069 0.219591,3.9930925 0.648437,4.8984375 -0.607199,0.176352 -1.617318,-0.230935 -2.138672,0.613281 -0.452157,0.732168 -0.03637,1.866595 0.201172,3.042969 0.05573,0.275974 0.796346,0.47567 0.822266,0.195312 0.109284,-1.182109 -0.0293,-2.300781 -0.0293,-2.300781 0.939531,-0.154019 1.74768,-0.436693 2.24414,-0.638672 0.495719,0.203792 1.303226,0.489033 2.242188,0.646485 0,0 -0.142073,1.11828 -0.03711,2.300781 0.0249,0.280451 0.76553,0.08241 0.822266,-0.193359 0.241842,-1.175498 0.662369,-2.305247 0.212891,-3.039063 -0.518266,-0.846116 -1.530169,-0.444477 -2.136719,-0.623047 0.432152,-0.903771 0.589,-3.6443503 0.666016,-4.8964841 0.02205,-0.3585544 -1.02167,-0.3458071 -1.056641,0.011719 -0.100734,1.0298107 -0.213416,2.7436984 -0.427734,2.9062504 -0.121107,0.09185 -0.211094,0.116149 -0.279297,0.105468 -0.06824,0.01043 -0.16048,-0.01512 -0.28125,-0.107421 C 16.813621,10.578854 16.706345,8.8661094 16.609375,7.8359375 16.592543,7.6571119 16.324838,7.5625647 16.0625,7.5585937 Z"
       id="path4-1-6"
       sodipodi:nodetypes="ssscssscccs"
       transform="matrix(0.8660254,0.5,0.5,-0.8660254,-6.145028,18.384987)"
       inkscape:original-d="m 15.087222,16.570462 c -0.02592,0.280358 -0.765893,0.08004 -0.821621,-0.195934 -0.237544,-1.176374 -0.653562,-2.309422 -0.201405,-3.04159 0.521354,-0.844216 1.531751,-0.437333 2.13895,-0.613685 -0.428846,-0.905345 -0.576305,-3.6466491 -0.648744,-4.899056 -0.02074,-0.3586326 1.022152,-0.3422582 1.055816,0.015393 0.09697,1.0301719 0.203913,2.743905 0.417636,2.907239 0.427544,0.326742 0.480507,-0.179347 0.480507,-0.179347 l 0.318037,2.834014 c 0,0 -1.201503,0.615766 -2.767965,0.872559 0,0 0.138074,1.118297 0.02879,2.300407 z"
       inkscape:path-effect="#path-effect5-61-8" /><path
       style="fill:#999999;fill-opacity:1;stroke:none;stroke-width:0.264999;stroke-dasharray:none;stroke-opacity:1"
       d="m 16.0625,7.5585937 c -0.262338,-0.00397 -0.518182,0.082402 -0.507812,0.2617188 0.07244,1.2524069 0.219591,3.9930925 0.648437,4.8984375 -0.607199,0.176352 -1.617318,-0.230935 -2.138672,0.613281 -0.452157,0.732168 -0.03637,1.866595 0.201172,3.042969 0.05573,0.275974 0.796346,0.47567 0.822266,0.195312 0.109284,-1.182109 -0.0293,-2.300781 -0.0293,-2.300781 0.939531,-0.154019 1.74768,-0.436693 2.24414,-0.638672 0.495719,0.203792 1.303226,0.489033 2.242188,0.646485 0,0 -0.142073,1.11828 -0.03711,2.300781 0.0249,0.280451 0.76553,0.08241 0.822266,-0.193359 0.241842,-1.175498 0.662369,-2.305247 0.212891,-3.039063 -0.518266,-0.846116 -1.530169,-0.444477 -2.136719,-0.623047 0.432152,-0.903771 0.589,-3.6443503 0.666016,-4.8964841 0.02205,-0.3585544 -1.02167,-0.3458071 -1.056641,0.011719 -0.100734,1.0298107 -0.213416,2.7436984 -0.427734,2.9062504 -0.121107,0.09185 -0.211094,0.116149 -0.279297,0.105468 -0.06824,0.01043 -0.16048,-0.01512 -0.28125,-0.107421 C 16.813621,10.578854 16.706345,8.8661094 16.609375,7.8359375 16.592543,7.6571119 16.324838,7.5625647 16.0625,7.5585937 Z"
       id="path4-1"
       sodipodi:nodetypes="ssscssscccs"
       transform="rotate(30,25.562001,14.590781)"
       inkscape:original-d="m 15.087222,16.570462 c -0.02592,0.280358 -0.765893,0.08004 -0.821621,-0.195934 -0.237544,-1.176374 -0.653562,-2.309422 -0.201405,-3.04159 0.521354,-0.844216 1.531751,-0.437333 2.13895,-0.613685 -0.428846,-0.905345 -0.576305,-3.6466491 -0.648744,-4.899056 -0.02074,-0.3586326 1.022152,-0.3422582 1.055816,0.015393 0.09697,1.0301719 0.203913,2.743905 0.417636,2.907239 0.427544,0.326742 0.480507,-0.179347 0.480507,-0.179347 l 0.318037,2.834014 c 0,0 -1.201503,0.615766 -2.767965,0.872559 0,0 0.138074,1.118297 0.02879,2.300407 z"
       inkscape:path-effect="#path-effect5-61-3" /><path
       id="path1-5"
       style="fill:#4d4d4d;fill-opacity:1;stroke:#000000;stroke-width:0.265"
       d="m 20.643375,9.962046 c -0.459105,0.795193 -1.671844,1.407014 -2.467038,0.947909 -0.79519,-0.459104 -0.871706,-1.81528 -0.412602,-2.61047 0.459103,-0.79519 1.475908,-1.067643 2.271099,-0.608539 0.795193,0.459102 1.067646,1.475909 0.608541,2.2711 z"
       sodipodi:nodetypes="zzzzz" /><path
       id="path1-7-1-99"
       style="fill:#ffffff;stroke:#000000;stroke-width:0.265;stroke-dasharray:none"
       d="M 21.447579,3.899458 C 21.343973,4.078911 20.881096,4.424921 20.568443,4.24441 20.25579,4.063899 20.295665,3.461341 20.399279,3.281884 c 0.103606,-0.179453 0.132086,-0.369311 0.725918,-0.0018 0.593841,0.367519 0.425993,0.439913 0.322385,0.619367 z"
       sodipodi:nodetypes="ssszs" /><path
       id="path1-7-1-9-1"
       style="fill:#ffffff;stroke:#000000;stroke-width:0.265;stroke-dasharray:none"
       d="M 23.585388,5.158859 C 23.481782,5.338313 23.018906,5.684324 22.706251,5.503813 22.393596,5.323301 22.433473,4.720742 22.537087,4.541287 c 0.103605,-0.179451 0.132085,-0.369312 0.725917,-0.0018 0.59384,0.367519 0.425994,0.439915 0.322385,0.619366 z"
       sodipodi:nodetypes="ssszs" /><ellipse
       style="fill:#ffffff;fill-opacity:1;stroke:#000000;stroke-width:0.265;stroke-dasharray:none;stroke-opacity:1"
       id="path1-7-2-9-9-1-9-8"
       cx="18.610691"
       cy="2.1011276"
       rx="0.65429264"
       ry="0.80279088"
       transform="rotate(30)" /><ellipse
       style="fill:#ffffff;fill-opacity:1;stroke:#000000;stroke-width:0.265;stroke-dasharray:none;stroke-opacity:1"
       id="path1-7-2-9-9-5-0"
       cx="23.714886"
       cy="2.1011276"
       rx="0.65429264"
       ry="0.80279088"
       transform="rotate(30)" /><path
       id="path1-7-1-99-1"
       style="fill:#ffffff;stroke:#000000;stroke-width:0.265;stroke-dasharray:none"
       d="m 11.971525,20.312463 c 0.103606,-0.179452 0.171828,-0.753316 -0.140828,-0.93383 -0.312654,-0.180511 -0.814551,0.155303 -0.918155,0.334762 -0.103605,0.179452 -0.253793,0.299041 0.3614,0.629563 0.615201,0.330521 0.593961,0.149006 0.697581,-0.03049 z"
       sodipodi:nodetypes="ssszs" /><path
       id="path1-7-1-9-1-5"
       style="fill:#ffffff;stroke:#000000;stroke-width:0.265;stroke-dasharray:none"
       d="m 14.131104,21.534158 c 0.103606,-0.17945 0.171828,-0.753317 -0.14083,-0.933831 -0.312653,-0.180511 -0.814548,0.155302 -0.918152,0.334763 -0.103606,0.179452 -0.253795,0.299044 0.3614,0.629564 0.615201,0.330522 0.593962,0.149006 0.69758,-0.03049 z"
       sodipodi:nodetypes="ssszs" /><path
       id="path1-5-1"
       style="fill:#ff6666;fill-opacity:1;stroke:#000000;stroke-width:0.265"
       d="m 16.819781,16.58471 c 0.459101,-0.795194 0.382584,-2.151367 -0.412605,-2.610471 -0.795193,-0.459106 -2.007936,0.152716 -2.467036,0.947907 -0.459105,0.795192 -0.186652,1.811998 0.608539,2.271103 0.79519,0.459105 1.811999,0.186652 2.271102,-0.608539 z"
       sodipodi:nodetypes="zzzzz" /><path
       id="path1-3-1-5-8-0-8-0-4"
       style="fill:url(#linearGradient4);fill-opacity:1;stroke:none;stroke-width:0.265"
       d="m 22.115507,14.335551 c -2.533434,-0.0071 -4.793916,-0.128045 -6.27992,-0.353471 -0.809069,0.510902 -1.005026,2.442438 -0.559801,3.289429 2.038123,0.07281 5.698619,0.06492 7.307667,-1.021892 0.352364,-0.238 2.096277,-2.291797 -0.467946,-1.914068 0,0 2.533434,0.0071 0,2e-6 z"
       sodipodi:nodetypes="zcczzz" /><path
       id="path1-3-1-5-8-0-8-0-6-0"
       style="fill:url(#linearGradient1);fill-opacity:1;stroke:none;stroke-width:0.265"
       d="m 14.575177,10.076674 c 2.827765,0.09516 2.444903,0.490169 4.068235,0.846213 0.913731,-0.284091 0.978169,-2.38389 0.767333,-3.317254 -1.980619,-0.07444 -3.940144,0.299016 -4.822368,0.790251 -0.882224,0.491235 -3.24896,1.668313 -0.0132,1.68079 z"
       sodipodi:nodetypes="zcczz" /><path
       id="path1-3-1-5-8-0-8-0-4-2"
       style="fill:url(#linearGradient3);fill-opacity:1;stroke:none;stroke-width:0.265"
       d="m 12.884493,20.664449 c 2.533434,0.0071 5.363497,-0.102866 6.849501,0.12256 0.809069,-0.510902 0.173745,-2.33468 -0.27148,-3.181671 -2.038123,-0.07281 -5.436919,0.05823 -7.045967,1.145045 -0.352364,0.238 -2.096277,2.291797 0.467946,1.914068 0,0 -2.533434,-0.0071 0,-2e-6 z"
       sodipodi:nodetypes="zcczzz" /></g></svg>
