<?xml version="1.0" encoding="UTF-8" standalone="no"?>
<!-- Created with Inkscape (http://www.inkscape.org/) -->

<svg
   width="35mm"
   height="35mm"
   viewBox="0 0 35 35"
   version="1.1"
   id="svg1"
   xml:space="preserve"
   inkscape:version="1.4 (e7c3feb100, 2024-10-09)"
   sodipodi:docname="12_v3_end.svg"
   xmlns:inkscape="http://www.inkscape.org/namespaces/inkscape"
   xmlns:sodipodi="http://sodipodi.sourceforge.net/DTD/sodipodi-0.dtd"
   xmlns="http://www.w3.org/2000/svg"
   xmlns:svg="http://www.w3.org/2000/svg"><sodipodi:namedview
     id="namedview1"
     pagecolor="#ffffff"
     bordercolor="#000000"
     borderopacity="0.25"
     inkscape:showpageshadow="2"
     inkscape:pageopacity="0.0"
     inkscape:pagecheckerboard="0"
     inkscape:deskcolor="#d1d1d1"
     inkscape:document-units="mm"
     inkscape:zoom="3.03832"
     inkscape:cx="46.57179"
     inkscape:cy="69.446274"
     inkscape:window-width="1916"
     inkscape:window-height="1023"
     inkscape:window-x="0"
     inkscape:window-y="0"
     inkscape:window-maximized="0"
     inkscape:current-layer="layer1"
     showgrid="false"><sodipodi:guide
       position="25.431035,17.543103"
       orientation="0,132.28346"
       id="guide5"
       inkscape:locked="false" /><sodipodi:guide
       position="35.000001,35.000001"
       orientation="132.28346,0"
       id="guide6"
       inkscape:locked="false" /><sodipodi:guide
       position="17.503506,35.914363"
       orientation="-132.28346,0"
       id="guide8"
       inkscape:locked="false" /></sodipodi:namedview><defs
     id="defs1"><inkscape:path-effect
       effect="mirror_symmetry"
       start_point="17.297909,16.234992"
       end_point="17.313303,7.810326"
       center_point="17.305606,12.022659"
       id="path-effect5"
       is_visible="true"
       lpeversion="1.2"
       lpesatellites=""
       mode="free"
       discard_orig_path="false"
       fuse_paths="true"
       oposite_fuse="false"
       split_items="false"
       split_open="false"
       link_styles="false" /><inkscape:path-effect
       effect="mirror_symmetry"
       start_point="17.297909,16.234992"
       end_point="17.313303,7.810326"
       center_point="17.305606,12.022659"
       id="path-effect5-7"
       is_visible="true"
       lpeversion="1.2"
       lpesatellites=""
       mode="free"
       discard_orig_path="false"
       fuse_paths="true"
       oposite_fuse="false"
       split_items="false"
       split_open="false"
       link_styles="false" /><inkscape:path-effect
       effect="mirror_symmetry"
       start_point="17.297909,16.234992"
       end_point="17.313303,7.810326"
       center_point="17.305606,12.022659"
       id="path-effect5-6"
       is_visible="true"
       lpeversion="1.2"
       lpesatellites=""
       mode="free"
       discard_orig_path="false"
       fuse_paths="true"
       oposite_fuse="false"
       split_items="false"
       split_open="false"
       link_styles="false" /><inkscape:path-effect
       effect="mirror_symmetry"
       start_point="17.297909,16.234992"
       end_point="17.313303,7.810326"
       center_point="17.305606,12.022659"
       id="path-effect5-3"
       is_visible="true"
       lpeversion="1.2"
       lpesatellites=""
       mode="free"
       discard_orig_path="false"
       fuse_paths="true"
       oposite_fuse="false"
       split_items="false"
       split_open="false"
       link_styles="false" /><inkscape:path-effect
       effect="mirror_symmetry"
       start_point="17.297909,16.234992"
       end_point="17.313303,7.810326"
       center_point="17.305606,12.022659"
       id="path-effect5-66"
       is_visible="true"
       lpeversion="1.2"
       lpesatellites=""
       mode="free"
       discard_orig_path="false"
       fuse_paths="true"
       oposite_fuse="false"
       split_items="false"
       split_open="false"
       link_styles="false" /><inkscape:path-effect
       effect="mirror_symmetry"
       start_point="17.297909,16.234992"
       end_point="17.313303,7.810326"
       center_point="17.305606,12.022659"
       id="path-effect5-4"
       is_visible="true"
       lpeversion="1.2"
       lpesatellites=""
       mode="free"
       discard_orig_path="false"
       fuse_paths="true"
       oposite_fuse="false"
       split_items="false"
       split_open="false"
       link_styles="false" /><inkscape:path-effect
       effect="mirror_symmetry"
       start_point="17.297909,16.234992"
       end_point="17.313303,7.810326"
       center_point="17.305606,12.022659"
       id="path-effect5-4-7"
       is_visible="true"
       lpeversion="1.2"
       lpesatellites=""
       mode="free"
       discard_orig_path="false"
       fuse_paths="true"
       oposite_fuse="false"
       split_items="false"
       split_open="false"
       link_styles="false" /><inkscape:path-effect
       effect="mirror_symmetry"
       start_point="17.297909,16.234992"
       end_point="17.313303,7.810326"
       center_point="17.305606,12.022659"
       id="path-effect5-41"
       is_visible="true"
       lpeversion="1.2"
       lpesatellites=""
       mode="free"
       discard_orig_path="false"
       fuse_paths="true"
       oposite_fuse="false"
       split_items="false"
       split_open="false"
       link_styles="false" /><inkscape:path-effect
       effect="mirror_symmetry"
       start_point="17.297909,16.234992"
       end_point="17.313303,7.810326"
       center_point="17.305606,12.022659"
       id="path-effect5-4-0"
       is_visible="true"
       lpeversion="1.2"
       lpesatellites=""
       mode="free"
       discard_orig_path="false"
       fuse_paths="true"
       oposite_fuse="false"
       split_items="false"
       split_open="false"
       link_styles="false" /><inkscape:path-effect
       effect="mirror_symmetry"
       start_point="17.493844,16.300304"
       end_point="17.509238,7.875638"
       center_point="17.501541,12.087971"
       id="path-effect5-4-0-9"
       is_visible="true"
       lpeversion="1.2"
       lpesatellites=""
       mode="free"
       discard_orig_path="false"
       fuse_paths="true"
       oposite_fuse="false"
       split_items="false"
       split_open="false"
       link_styles="false" /><inkscape:path-effect
       effect="mirror_symmetry"
       start_point="17.297909,16.234992"
       end_point="17.313303,7.810326"
       center_point="17.305606,12.022659"
       id="path-effect5-4-0-0"
       is_visible="true"
       lpeversion="1.2"
       lpesatellites=""
       mode="free"
       discard_orig_path="false"
       fuse_paths="true"
       oposite_fuse="false"
       split_items="false"
       split_open="false"
       link_styles="false" /><inkscape:path-effect
       effect="mirror_symmetry"
       start_point="17.493844,16.300304"
       end_point="17.509238,7.875638"
       center_point="17.501541,12.087971"
       id="path-effect5-4-0-9-7"
       is_visible="true"
       lpeversion="1.2"
       lpesatellites=""
       mode="free"
       discard_orig_path="false"
       fuse_paths="true"
       oposite_fuse="false"
       split_items="false"
       split_open="false"
       link_styles="false" /><inkscape:path-effect
       effect="mirror_symmetry"
       start_point="17.493844,16.300304"
       end_point="17.509238,7.875638"
       center_point="17.501541,12.087971"
       id="path-effect5-4-0-9-3"
       is_visible="true"
       lpeversion="1.2"
       lpesatellites=""
       mode="free"
       discard_orig_path="false"
       fuse_paths="true"
       oposite_fuse="false"
       split_items="false"
       split_open="false"
       link_styles="false" /><inkscape:path-effect
       effect="mirror_symmetry"
       start_point="17.493844,16.300304"
       end_point="17.509238,7.875638"
       center_point="17.501541,12.087971"
       id="path-effect5-4-0-9-5"
       is_visible="true"
       lpeversion="1.2"
       lpesatellites=""
       mode="free"
       discard_orig_path="false"
       fuse_paths="true"
       oposite_fuse="false"
       split_items="false"
       split_open="false"
       link_styles="false" /><inkscape:path-effect
       effect="mirror_symmetry"
       start_point="17.297909,16.234992"
       end_point="17.313303,7.810326"
       center_point="17.305606,12.022659"
       id="path-effect5-4-6-1"
       is_visible="true"
       lpeversion="1.2"
       lpesatellites=""
       mode="free"
       discard_orig_path="false"
       fuse_paths="true"
       oposite_fuse="false"
       split_items="false"
       split_open="false"
       link_styles="false" /><inkscape:path-effect
       effect="mirror_symmetry"
       start_point="17.493844,16.300304"
       end_point="17.509238,7.875638"
       center_point="17.501541,12.087971"
       id="path-effect5-4-0-9-5-9"
       is_visible="true"
       lpeversion="1.2"
       lpesatellites=""
       mode="free"
       discard_orig_path="false"
       fuse_paths="true"
       oposite_fuse="false"
       split_items="false"
       split_open="false"
       link_styles="false" /><inkscape:path-effect
       effect="mirror_symmetry"
       start_point="17.297909,16.234992"
       end_point="17.313303,7.810326"
       center_point="17.305606,12.022659"
       id="path-effect5-61"
       is_visible="true"
       lpeversion="1.2"
       lpesatellites=""
       mode="free"
       discard_orig_path="false"
       fuse_paths="true"
       oposite_fuse="false"
       split_items="false"
       split_open="false"
       link_styles="false" /><inkscape:path-effect
       effect="mirror_symmetry"
       start_point="17.297909,16.234992"
       end_point="17.313303,7.810326"
       center_point="17.305606,12.022659"
       id="path-effect5-4-3"
       is_visible="true"
       lpeversion="1.2"
       lpesatellites=""
       mode="free"
       discard_orig_path="false"
       fuse_paths="true"
       oposite_fuse="false"
       split_items="false"
       split_open="false"
       link_styles="false" /><inkscape:path-effect
       effect="mirror_symmetry"
       start_point="17.297909,16.234992"
       end_point="17.313303,7.810326"
       center_point="17.305606,12.022659"
       id="path-effect5-61-7"
       is_visible="true"
       lpeversion="1.2"
       lpesatellites=""
       mode="free"
       discard_orig_path="false"
       fuse_paths="true"
       oposite_fuse="false"
       split_items="false"
       split_open="false"
       link_styles="false" /></defs><g
     inkscape:label="Layer 1"
     inkscape:groupmode="layer"
     id="layer1"><path
       style="fill:#999999;fill-opacity:1;stroke:none;stroke-width:0.264999;stroke-dasharray:none;stroke-opacity:1"
       d="m 16.0625,7.5585937 c -0.262338,-0.00397 -0.518182,0.082402 -0.507812,0.2617188 0.07244,1.2524069 0.08092,3.5770765 0.509765,4.4824215 -0.437864,0.679074 -1.494271,1.202659 -2.015625,2.046875 -0.452157,0.732168 -0.02075,1.907611 0.216797,3.083985 0.05573,0.275974 0.796346,0.47567 0.822266,0.195312 0.109285,-1.18211 -0.07617,-2.728515 -0.07617,-2.728515 0.929349,-0.552216 1.774728,-0.990204 2.291015,-1.248047 0.515342,0.259728 1.357832,0.702204 2.285157,1.257812 0,0 -0.188949,1.544061 -0.08398,2.726563 0.0249,0.280451 0.76553,0.08241 0.822266,-0.19336 0.241841,-1.175498 0.677994,-2.348215 0.228515,-3.082031 -0.518265,-0.846116 -1.574386,-1.372065 -2.009765,-2.052734 0.432152,-0.903772 0.450328,-3.2302883 0.527344,-4.4824221 0.02205,-0.3585544 -1.02167,-0.3458071 -1.056641,0.011719 -0.100734,1.0298107 -0.213416,2.7436984 -0.427734,2.9062504 -0.121107,0.09185 -0.211094,0.116149 -0.279297,0.105468 -0.06824,0.01043 -0.16048,-0.01512 -0.28125,-0.107421 C 16.813621,10.578854 16.706345,8.8661094 16.609375,7.8359375 16.592543,7.6571119 16.324839,7.5625647 16.0625,7.5585937 Z"
       id="path4-1"
       sodipodi:nodetypes="ssscssscccs"
       transform="rotate(-45,13.934684,12.871249)"
       inkscape:original-d="m 15.087222,17.628795 c -0.02592,0.280358 -0.765893,0.08004 -0.821621,-0.195934 -0.237544,-1.176374 -0.668956,-2.351745 -0.216799,-3.083913 0.521354,-0.844216 1.577933,-1.366261 2.015797,-2.045335 -0.428846,-0.905345 -0.437758,-3.2310091 -0.510197,-4.483416 -0.02074,-0.3586326 1.022152,-0.3422582 1.055816,0.015393 0.09697,1.0301719 0.203913,2.743905 0.417636,2.907239 0.427544,0.326742 0.480507,-0.179347 0.480507,-0.179347 l 0.318037,2.834014 c 0,0 -1.293868,0.600372 -2.814147,1.503717 0,0 0.184256,1.545472 0.07497,2.727582 z"
       inkscape:path-effect="#path-effect5-61" /><path
       style="fill:#999999;fill-opacity:1;stroke:none;stroke-width:0.264999;stroke-dasharray:none;stroke-opacity:1"
       d="m 6.9530068,18.737721 c -0.004,0.262338 0.0824,0.518182 0.261719,0.507812 1.252406,-0.07244 3.7925932,-0.09631 4.6979382,-0.525159 0.679074,0.437864 1.140524,1.312206 1.916087,1.658208 0.49709,0.221766 1.191012,0.366994 2.521327,0.375752 0.281539,0.0019 0.426674,-0.913827 0.151771,-0.97466 -1.25908,-0.27862 -2.205116,-0.481855 -2.205116,-0.481855 C 13.529,18.460834 13.3046,18.013772 13.046757,17.497485 c 0.11822,-1.320852 -0.05992,-1.605873 -0.135657,-2.783558 0,0 1.065265,-0.481584 2.247766,-0.586549 0.280451,-0.0249 0.08496,-0.95188 -0.193359,-0.909347 -1.480285,0.226224 -3.061929,0.41806 -3.320248,0.86709 -0.28477,0.495008 -0.01267,1.375583 0.05775,2.170176 -0.903772,-0.432152 -3.2302882,-0.450328 -4.4824222,-0.527344 -0.358554,-0.02205 -0.345807,1.02167 0.01172,1.056641 1.029811,0.100734 2.743698,0.213416 2.9062502,0.427734 0.09185,0.121107 0.116149,0.211094 0.105468,0.279297 0.01043,0.06824 -0.01512,0.16048 -0.107421,0.28125 -0.1633362,0.213725 -1.8760812,0.321001 -2.9062522,0.417971 -0.178826,0.01683 -0.273373,0.284536 -0.277344,0.546875 z"
       id="path4-1-3"
       sodipodi:nodetypes="ssssssscccsscssscsss" /><path
       id="path1-5"
       style="fill:#4d4d4d;fill-opacity:1;stroke:#000000;stroke-width:0.265"
       d="m 18.107626,10.109842 c 0.237649,0.886921 -0.187265,2.177082 -1.074186,2.414731 -0.886921,0.23765 -1.899987,-0.667206 -2.137636,-1.554126 -0.23765,-0.886921 0.288687,-1.7985632 1.175608,-2.0362132 0.88692,-0.23765 1.798564,0.288687 2.036214,1.1756082 z"
       sodipodi:nodetypes="zzzzz" /><path
       id="path1-7-1-99"
       style="fill:#ffffff;stroke:#000000;stroke-width:0.265;stroke-dasharray:none"
       d="m 11.980407,7.0724988 c 0.146523,0.146522 0.360944,0.683179 0.105663,0.938461 -0.255282,0.255281 -0.826989,0.06081 -0.973511,-0.08572 -0.146523,-0.146522 -0.322544,-0.223167 0.186146,-0.701649 0.508692,-0.478485 0.535179,-0.297618 0.681702,-0.151095 z"
       sodipodi:nodetypes="ssszs" /><path
       id="path1-7-1-9-1"
       style="fill:#ffffff;stroke:#000000;stroke-width:0.265;stroke-dasharray:none"
       d="m 13.750202,5.3334918 c 0.146522,0.146522 0.360944,0.68318 0.105662,0.938461 -0.255281,0.255282 -0.826988,0.06081 -0.973511,-0.08572 -0.146522,-0.146523 -0.322544,-0.223168 0.186146,-0.70165 0.508693,-0.478485 0.535179,-0.297618 0.681703,-0.151095 z"
       sodipodi:nodetypes="ssszs" /><path
       style="fill:#999999;fill-opacity:1;stroke:none;stroke-width:0.264999;stroke-dasharray:none;stroke-opacity:1"
       d="m 16.0625,7.5585937 c -0.262338,-0.00397 -0.518182,0.082402 -0.507812,0.2617188 0.07244,1.2524069 0.08092,3.5770765 0.509765,4.4824215 -0.437864,0.679074 -1.494271,1.202659 -2.015625,2.046875 -0.452157,0.732168 -0.02075,1.907611 0.216797,3.083985 0.05573,0.275974 0.796346,0.47567 0.822266,0.195312 0.10928,-1.18211 0.09766,-2.857422 0.09766,-2.857422 0.891495,-0.529723 1.646191,-0.910531 2.117187,-1.134765 0.470175,0.225954 1.221775,0.607646 2.111328,1.140625 0,0 -0.01512,1.676873 0.08984,2.859375 0.0249,0.280451 0.76553,0.08241 0.822266,-0.19336 0.241841,-1.175498 0.677994,-2.348215 0.228515,-3.082031 -0.518265,-0.846116 -1.574386,-1.372065 -2.009765,-2.052734 0.432152,-0.903772 0.450328,-3.2302883 0.527344,-4.4824221 0.02205,-0.3585544 -1.02167,-0.3458071 -1.056641,0.011719 -0.100734,1.0298107 -0.213416,2.7436984 -0.427734,2.9062504 -0.121107,0.09185 -0.211094,0.116149 -0.279297,0.105468 -0.06824,0.01043 -0.16048,-0.01512 -0.28125,-0.107421 C 16.813621,10.578854 16.706345,8.8661094 16.609375,7.8359375 16.592543,7.6571119 16.324839,7.5625647 16.0625,7.5585937 Z"
       id="path4-6-4"
       sodipodi:nodetypes="ssscssscccs"
       transform="rotate(135,19.397409,16.540256)"
       inkscape:original-d="m 15.087222,17.628795 c -0.02592,0.280358 -0.765893,0.08004 -0.821621,-0.195934 -0.237544,-1.176374 -0.668956,-2.351745 -0.216799,-3.083913 0.521354,-0.844216 1.577933,-1.366261 2.015797,-2.045335 -0.428846,-0.905345 -0.437758,-3.2310091 -0.510197,-4.483416 -0.02074,-0.3586326 1.022152,-0.3422582 1.055816,0.015393 0.09697,1.0301719 0.203913,2.743905 0.417636,2.907239 0.427544,0.326742 0.480507,-0.179347 0.480507,-0.179347 l 0.318037,2.834014 c 0,0 -1.119704,0.469749 -2.639983,1.373094 0,0 0.01009,1.676095 -0.09919,2.858205 z"
       inkscape:path-effect="#path-effect5-4-3" /><ellipse
       style="fill:#ffffff;fill-opacity:1;stroke:#000000;stroke-width:0.265;stroke-dasharray:none;stroke-opacity:1"
       id="path1-7-2-9-9-1-9"
       cx="1.5572423"
       cy="23.978666"
       rx="0.65429264"
       ry="0.80279088"
       transform="rotate(-45)" /><path
       id="path1-3-1"
       style="fill:#ff6666;fill-opacity:1;stroke:#000000;stroke-width:0.265"
       d="m 23.432707,19.076309 c -0.918208,0 -2.054432,-0.744355 -2.054432,-1.662562 0,-0.918207 1.136225,-1.662561 2.054432,-1.662561 0.918207,0 1.662562,0.744355 1.662562,1.662561 0,0.918207 -0.744355,1.662562 -1.662562,1.662562 z"
       sodipodi:nodetypes="zzzzz" /><path
       id="path1-7-1-1-0"
       style="fill:#ffffff;stroke:#000000;stroke-width:0.265;stroke-dasharray:none"
       d="m 27.784285,21.064372 c -0.146523,-0.146523 -0.360945,-0.683179 -0.105664,-0.938461 0.255282,-0.255282 0.826989,-0.06081 0.973511,0.08572 0.146523,0.146522 0.322544,0.223167 -0.186146,0.701649 -0.508692,0.478485 -0.535178,0.297618 -0.681701,0.151095 z"
       sodipodi:nodetypes="ssszs" /><path
       id="path1-7-1-9-7-7"
       style="fill:#ffffff;stroke:#000000;stroke-width:0.265;stroke-dasharray:none"
       d="m 26.01449,22.803379 c -0.146523,-0.146522 -0.360944,-0.68318 -0.105663,-0.938461 0.255282,-0.255282 0.826989,-0.06081 0.973512,0.08572 0.146521,0.146521 0.322543,0.223166 -0.186147,0.701649 -0.508692,0.478484 -0.53518,0.297618 -0.681702,0.151096 z"
       sodipodi:nodetypes="ssszs" /><ellipse
       style="fill:#ffffff;fill-opacity:1;stroke:#000000;stroke-width:0.265;stroke-dasharray:none;stroke-opacity:1"
       id="path1-7-2-9-9-5"
       cx="6.6614389"
       cy="23.978666"
       rx="0.65429264"
       ry="0.80279088"
       transform="rotate(-45)" /><path
       id="path1-3"
       style="fill:#6666ff;fill-opacity:1;stroke:#000000;stroke-width:0.265"
       d="m 12.682479,19.010461 c 0.918208,1e-6 2.054432,-0.744355 2.054432,-1.662563 0,-0.918208 -1.136224,-1.662561 -2.054432,-1.662561 -0.918208,0 -1.66256,0.744355 -1.662561,1.662563 0,0.918207 0.744353,1.662561 1.662561,1.662561 z"
       sodipodi:nodetypes="zzzzz" /><path
       id="path1-7-1-1"
       style="fill:#ffffff;stroke:#000000;stroke-width:0.265;stroke-dasharray:none"
       d="m 7.0814568,16.865802 c 0.207214,0 0.738308,-0.227855 0.738308,-0.588877 0,-0.361023 -0.541771,-0.627769 -0.74899,-0.627764 -0.207214,1e-6 -0.385875,-0.07027 -0.364516,0.627767 0.02136,0.69804 0.167981,0.588877 0.375195,0.588877 z"
       sodipodi:nodetypes="ssszs" /><path
       id="path1-7-1-9-7"
       style="fill:#ffffff;stroke:#000000;stroke-width:0.265;stroke-dasharray:none"
       d="m 7.1032258,19.346899 c 0.207216,0 0.738309,-0.227855 0.738309,-0.588877 0,-0.361023 -0.541778,-0.627762 -0.74899,-0.627763 -0.207214,-10e-7 -0.385874,-0.07027 -0.364515,0.627766 0.02136,0.69804 0.167981,0.588877 0.375193,0.588877 z"
       sodipodi:nodetypes="ssszs" /><path
       style="fill:#999999;fill-opacity:1;stroke:none;stroke-width:0.264999;stroke-dasharray:none;stroke-opacity:1"
       d="m 18.07547,30.552399 c -0.252364,0.07176 -0.521852,0.05452 -0.558246,-0.12137 -0.254175,-1.228479 -0.847653,-3.476133 -0.667741,-4.461623 -0.499982,0.331389 -1.08158,0.997974 -1.926598,0.835531 -0.7101,-0.136507 -0.945662,-1.872916 -0.783155,-3.046678 0.03861,-0.278884 1.098168,-0.476183 1.10192,-0.194658 0.01159,0.870087 0.168197,1.231785 0.0088,1.856202 0.538557,-0.289984 1.936883,-1.154112 2.449865,-1.059421 0.395674,-0.339944 0.744544,-1.466068 1.146679,-2.093727 0,0 -1.227085,-0.833493 -2.174663,-1.32569 -0.04853,-0.27734 0.393945,-1.027854 0.642944,-0.89645 0.848459,0.447759 2.451071,0.818059 2.754377,1.783359 0.297432,0.946598 -0.581365,2.723717 -0.825739,3.493877 0.65134,0.761127 1.271044,3.003664 1.669511,4.193199 0.1141,0.34063 -0.897357,0.598452 -1.02367,0.262158 -0.363836,-0.968649 -0.916265,-2.594972 -1.165352,-2.696515 -0.140754,-0.05737 -0.233965,-0.05755 -0.297077,-0.02959 -0.06862,0.0076 -0.151098,0.05614 -0.243864,0.176554 -0.164169,0.213089 0.1755,1.895238 0.348463,2.915404 0.03003,0.177089 -0.204092,0.337698 -0.456459,0.409436 z"
       id="path4-6-3"
       sodipodi:nodetypes="sscsssccccsscscscssss" /><path
       id="path1-3-3"
       style="fill:#66ff66;fill-opacity:1;stroke:#000000;stroke-width:0.265"
       d="m 19.510053,24.959664 c 0,-0.918208 -0.744353,-2.054431 -1.662561,-2.054431 -0.918208,-10e-7 -1.662561,1.136224 -1.662562,2.054432 10e-7,0.918206 0.744357,1.662559 1.662562,1.662559 0.918207,0 1.662562,-0.744352 1.662561,-1.66256 z"
       sodipodi:nodetypes="zzzzz" /><path
       id="path1-7-1-1-0-7"
       style="fill:#ffffff;stroke:#000000;stroke-width:0.265;stroke-dasharray:none"
       d="m 18.696683,30.538949 c -0.05363,-0.200152 -0.411178,-0.654176 -0.759898,-0.560736 -0.348722,0.09344 -0.466158,0.685788 -0.412521,0.885946 0.05363,0.200153 0.032,0.390915 0.700719,0.189617 0.668727,-0.201299 0.525334,-0.31467 0.471704,-0.514825 z"
       sodipodi:nodetypes="ssszs" /><path
       id="path1-7-1-9-7-9"
       style="fill:#ffffff;stroke:#000000;stroke-width:0.265;stroke-dasharray:none"
       d="m 21.087604,29.875766 c -0.05363,-0.200153 -0.411179,-0.654177 -0.759899,-0.560737 -0.348721,0.09344 -0.466158,0.685788 -0.412521,0.885946 0.05363,0.200151 0.032,0.390913 0.700719,0.189616 0.668726,-0.201299 0.525335,-0.314669 0.471704,-0.514823 z"
       sodipodi:nodetypes="ssszs" /><ellipse
       style="fill:#ffffff;fill-opacity:1;stroke:#000000;stroke-width:0.265;stroke-dasharray:none;stroke-opacity:1"
       id="path1-7-2-9-9-5-3"
       cx="-14.737534"
       cy="23.350052"
       rx="0.65429264"
       ry="0.80279088"
       transform="scale(-1,1)" /><ellipse
       style="fill:#ffffff;fill-opacity:1;stroke:#000000;stroke-width:0.265;stroke-dasharray:none;stroke-opacity:1"
       id="path1-7-2-9-9-1"
       cx="-15.325572"
       cy="-21.237661"
       rx="0.65429264"
       ry="0.80279088"
       transform="matrix(0.25881905,-0.96592583,-0.96592583,-0.25881905,0,0)" /><ellipse
       style="fill:#ffffff;fill-opacity:1;stroke:#000000;stroke-width:0.265;stroke-dasharray:none;stroke-opacity:1"
       id="path1-7-2-9-9"
       cx="-17.156319"
       cy="-11.019556"
       rx="0.65429264"
       ry="0.80279088"
       transform="matrix(-0.25881905,-0.96592583,-0.96592583,0.25881905,0,0)" /></g></svg>
