<?xml version="1.0" encoding="UTF-8" standalone="no"?>
<!-- Created with Inkscape (http://www.inkscape.org/) -->

<svg
   width="35mm"
   height="35mm"
   viewBox="0 0 35 35"
   version="1.1"
   id="svg1"
   xml:space="preserve"
   inkscape:version="1.4 (e7c3feb100, 2024-10-09)"
   sodipodi:docname="12_v1.svg"
   xmlns:inkscape="http://www.inkscape.org/namespaces/inkscape"
   xmlns:sodipodi="http://sodipodi.sourceforge.net/DTD/sodipodi-0.dtd"
   xmlns="http://www.w3.org/2000/svg"
   xmlns:svg="http://www.w3.org/2000/svg"><sodipodi:namedview
     id="namedview1"
     pagecolor="#ffffff"
     bordercolor="#000000"
     borderopacity="0.25"
     inkscape:showpageshadow="2"
     inkscape:pageopacity="0.0"
     inkscape:pagecheckerboard="0"
     inkscape:deskcolor="#d1d1d1"
     inkscape:document-units="mm"
     inkscape:zoom="6.0766399"
     inkscape:cx="67.389216"
     inkscape:cy="66.154981"
     inkscape:window-width="1916"
     inkscape:window-height="1023"
     inkscape:window-x="0"
     inkscape:window-y="0"
     inkscape:window-maximized="0"
     inkscape:current-layer="layer1"
     showgrid="false"><sodipodi:guide
       position="25.431035,17.543103"
       orientation="0,132.28346"
       id="guide5"
       inkscape:locked="false" /><sodipodi:guide
       position="35.000001,35.000001"
       orientation="132.28346,0"
       id="guide6"
       inkscape:locked="false" /><sodipodi:guide
       position="35.000001,0"
       orientation="0,-132.28346"
       id="guide7"
       inkscape:locked="false" /><sodipodi:guide
       position="17.503506,35.914363"
       orientation="-132.28346,0"
       id="guide8"
       inkscape:locked="false" /></sodipodi:namedview><defs
     id="defs1"><inkscape:path-effect
       effect="mirror_symmetry"
       start_point="17.297909,16.234992"
       end_point="17.313303,7.810326"
       center_point="17.305606,12.022659"
       id="path-effect5"
       is_visible="true"
       lpeversion="1.2"
       lpesatellites=""
       mode="free"
       discard_orig_path="false"
       fuse_paths="true"
       oposite_fuse="false"
       split_items="false"
       split_open="false"
       link_styles="false" /><inkscape:path-effect
       effect="mirror_symmetry"
       start_point="17.297909,16.234992"
       end_point="17.313303,7.810326"
       center_point="17.305606,12.022659"
       id="path-effect5-7"
       is_visible="true"
       lpeversion="1.2"
       lpesatellites=""
       mode="free"
       discard_orig_path="false"
       fuse_paths="true"
       oposite_fuse="false"
       split_items="false"
       split_open="false"
       link_styles="false" /><inkscape:path-effect
       effect="mirror_symmetry"
       start_point="17.297909,16.234992"
       end_point="17.313303,7.810326"
       center_point="17.305606,12.022659"
       id="path-effect5-6"
       is_visible="true"
       lpeversion="1.2"
       lpesatellites=""
       mode="free"
       discard_orig_path="false"
       fuse_paths="true"
       oposite_fuse="false"
       split_items="false"
       split_open="false"
       link_styles="false" /><inkscape:path-effect
       effect="mirror_symmetry"
       start_point="17.297909,16.234992"
       end_point="17.313303,7.810326"
       center_point="17.305606,12.022659"
       id="path-effect5-3"
       is_visible="true"
       lpeversion="1.2"
       lpesatellites=""
       mode="free"
       discard_orig_path="false"
       fuse_paths="true"
       oposite_fuse="false"
       split_items="false"
       split_open="false"
       link_styles="false" /><inkscape:path-effect
       effect="mirror_symmetry"
       start_point="17.297909,16.234992"
       end_point="17.313303,7.810326"
       center_point="17.305606,12.022659"
       id="path-effect5-66"
       is_visible="true"
       lpeversion="1.2"
       lpesatellites=""
       mode="free"
       discard_orig_path="false"
       fuse_paths="true"
       oposite_fuse="false"
       split_items="false"
       split_open="false"
       link_styles="false" /><inkscape:path-effect
       effect="mirror_symmetry"
       start_point="17.297909,16.234992"
       end_point="17.313303,7.810326"
       center_point="17.305606,12.022659"
       id="path-effect5-4"
       is_visible="true"
       lpeversion="1.2"
       lpesatellites=""
       mode="free"
       discard_orig_path="false"
       fuse_paths="true"
       oposite_fuse="false"
       split_items="false"
       split_open="false"
       link_styles="false" /><inkscape:path-effect
       effect="mirror_symmetry"
       start_point="17.297909,16.234992"
       end_point="17.313303,7.810326"
       center_point="17.305606,12.022659"
       id="path-effect5-4-7"
       is_visible="true"
       lpeversion="1.2"
       lpesatellites=""
       mode="free"
       discard_orig_path="false"
       fuse_paths="true"
       oposite_fuse="false"
       split_items="false"
       split_open="false"
       link_styles="false" /><inkscape:path-effect
       effect="mirror_symmetry"
       start_point="17.297909,16.234992"
       end_point="17.313303,7.810326"
       center_point="17.305606,12.022659"
       id="path-effect5-41"
       is_visible="true"
       lpeversion="1.2"
       lpesatellites=""
       mode="free"
       discard_orig_path="false"
       fuse_paths="true"
       oposite_fuse="false"
       split_items="false"
       split_open="false"
       link_styles="false" /><inkscape:path-effect
       effect="mirror_symmetry"
       start_point="17.297909,16.234992"
       end_point="17.313303,7.810326"
       center_point="17.305606,12.022659"
       id="path-effect5-4-0"
       is_visible="true"
       lpeversion="1.2"
       lpesatellites=""
       mode="free"
       discard_orig_path="false"
       fuse_paths="true"
       oposite_fuse="false"
       split_items="false"
       split_open="false"
       link_styles="false" /><inkscape:path-effect
       effect="mirror_symmetry"
       start_point="17.493844,16.300304"
       end_point="17.509238,7.875638"
       center_point="17.501541,12.087971"
       id="path-effect5-4-0-9"
       is_visible="true"
       lpeversion="1.2"
       lpesatellites=""
       mode="free"
       discard_orig_path="false"
       fuse_paths="true"
       oposite_fuse="false"
       split_items="false"
       split_open="false"
       link_styles="false" /><inkscape:path-effect
       effect="mirror_symmetry"
       start_point="17.297909,16.234992"
       end_point="17.313303,7.810326"
       center_point="17.305606,12.022659"
       id="path-effect5-4-0-0"
       is_visible="true"
       lpeversion="1.2"
       lpesatellites=""
       mode="free"
       discard_orig_path="false"
       fuse_paths="true"
       oposite_fuse="false"
       split_items="false"
       split_open="false"
       link_styles="false" /><inkscape:path-effect
       effect="mirror_symmetry"
       start_point="17.493844,16.300304"
       end_point="17.509238,7.875638"
       center_point="17.501541,12.087971"
       id="path-effect5-4-0-9-7"
       is_visible="true"
       lpeversion="1.2"
       lpesatellites=""
       mode="free"
       discard_orig_path="false"
       fuse_paths="true"
       oposite_fuse="false"
       split_items="false"
       split_open="false"
       link_styles="false" /><inkscape:path-effect
       effect="mirror_symmetry"
       start_point="17.493844,16.300304"
       end_point="17.509238,7.875638"
       center_point="17.501541,12.087971"
       id="path-effect5-4-0-9-3"
       is_visible="true"
       lpeversion="1.2"
       lpesatellites=""
       mode="free"
       discard_orig_path="false"
       fuse_paths="true"
       oposite_fuse="false"
       split_items="false"
       split_open="false"
       link_styles="false" /><inkscape:path-effect
       effect="mirror_symmetry"
       start_point="17.493844,16.300304"
       end_point="17.509238,7.875638"
       center_point="17.501541,12.087971"
       id="path-effect5-4-0-9-5"
       is_visible="true"
       lpeversion="1.2"
       lpesatellites=""
       mode="free"
       discard_orig_path="false"
       fuse_paths="true"
       oposite_fuse="false"
       split_items="false"
       split_open="false"
       link_styles="false" /><inkscape:path-effect
       effect="mirror_symmetry"
       start_point="17.297909,16.234992"
       end_point="17.313303,7.810326"
       center_point="17.305606,12.022659"
       id="path-effect5-4-6-1"
       is_visible="true"
       lpeversion="1.2"
       lpesatellites=""
       mode="free"
       discard_orig_path="false"
       fuse_paths="true"
       oposite_fuse="false"
       split_items="false"
       split_open="false"
       link_styles="false" /><inkscape:path-effect
       effect="mirror_symmetry"
       start_point="17.493844,16.300304"
       end_point="17.509238,7.875638"
       center_point="17.501541,12.087971"
       id="path-effect5-4-0-9-5-9"
       is_visible="true"
       lpeversion="1.2"
       lpesatellites=""
       mode="free"
       discard_orig_path="false"
       fuse_paths="true"
       oposite_fuse="false"
       split_items="false"
       split_open="false"
       link_styles="false" /><inkscape:path-effect
       effect="mirror_symmetry"
       start_point="17.297909,16.234992"
       end_point="17.313303,7.810326"
       center_point="17.305606,12.022659"
       id="path-effect5-61"
       is_visible="true"
       lpeversion="1.2"
       lpesatellites=""
       mode="free"
       discard_orig_path="false"
       fuse_paths="true"
       oposite_fuse="false"
       split_items="false"
       split_open="false"
       link_styles="false" /><inkscape:path-effect
       effect="mirror_symmetry"
       start_point="17.297909,16.234992"
       end_point="17.313303,7.810326"
       center_point="17.305606,12.022659"
       id="path-effect5-4-3"
       is_visible="true"
       lpeversion="1.2"
       lpesatellites=""
       mode="free"
       discard_orig_path="false"
       fuse_paths="true"
       oposite_fuse="false"
       split_items="false"
       split_open="false"
       link_styles="false" /></defs><g
     inkscape:label="Layer 1"
     inkscape:groupmode="layer"
     id="layer1"><path
       style="fill:#999999;fill-opacity:1;stroke:none;stroke-width:0.264999;stroke-dasharray:none;stroke-opacity:1"
       d="m 16.0625,7.5585937 c -0.262338,-0.00397 -0.518182,0.082402 -0.507812,0.2617188 0.07244,1.2524069 0.08092,3.5770765 0.509765,4.4824215 -0.437864,0.679074 -1.494271,1.202659 -2.015625,2.046875 -0.452157,0.732168 -0.02075,1.907611 0.216797,3.083985 0.05573,0.275974 0.796346,0.47567 0.822266,0.195312 0.109285,-1.18211 -0.07617,-2.728515 -0.07617,-2.728515 0.929349,-0.552216 1.774728,-0.990204 2.291015,-1.248047 0.515342,0.259728 1.357832,0.702204 2.285157,1.257812 0,0 -0.188949,1.544061 -0.08398,2.726563 0.0249,0.280451 0.76553,0.08241 0.822266,-0.19336 0.241841,-1.175498 0.677994,-2.348215 0.228515,-3.082031 -0.518265,-0.846116 -1.574386,-1.372065 -2.009765,-2.052734 0.432152,-0.903772 0.450328,-3.2302883 0.527344,-4.4824221 0.02205,-0.3585544 -1.02167,-0.3458071 -1.056641,0.011719 -0.100734,1.0298107 -0.213416,2.7436984 -0.427734,2.9062504 -0.121107,0.09185 -0.211094,0.116149 -0.279297,0.105468 -0.06824,0.01043 -0.16048,-0.01512 -0.28125,-0.107421 C 16.813621,10.578854 16.706345,8.8661094 16.609375,7.8359375 16.592543,7.6571119 16.324839,7.5625647 16.0625,7.5585937 Z"
       id="path4-1"
       sodipodi:nodetypes="ssscssscccs"
       transform="rotate(135,15.582708,18.976802)"
       inkscape:original-d="m 15.087222,17.628795 c -0.02592,0.280358 -0.765893,0.08004 -0.821621,-0.195934 -0.237544,-1.176374 -0.668956,-2.351745 -0.216799,-3.083913 0.521354,-0.844216 1.577933,-1.366261 2.015797,-2.045335 -0.428846,-0.905345 -0.437758,-3.2310091 -0.510197,-4.483416 -0.02074,-0.3586326 1.022152,-0.3422582 1.055816,0.015393 0.09697,1.0301719 0.203913,2.743905 0.417636,2.907239 0.427544,0.326742 0.480507,-0.179347 0.480507,-0.179347 l 0.318037,2.834014 c 0,0 -1.293868,0.600372 -2.814147,1.503717 0,0 0.184256,1.545472 0.07497,2.727582 z"
       inkscape:path-effect="#path-effect5-61" /><path
       id="path1-5"
       style="fill:#66ff66;fill-opacity:1;stroke:#000000;stroke-width:0.265"
       d="m 16.892374,24.890158 c -0.237649,-0.886921 0.187265,-2.177082 1.074186,-2.414731 0.886921,-0.23765 1.899987,0.667206 2.137636,1.554126 0.23765,0.886921 -0.288687,1.798563 -1.175608,2.036213 -0.88692,0.23765 -1.798564,-0.288687 -2.036214,-1.175608 z"
       sodipodi:nodetypes="zzzzz" /><path
       id="path1-7-1-99"
       style="fill:#ffffff;stroke:#000000;stroke-width:0.265;stroke-dasharray:none"
       d="M 23.019593,27.927501 C 22.87307,27.780979 22.658649,27.244322 22.91393,26.98904 c 0.255282,-0.255281 0.826989,-0.06081 0.973511,0.08572 0.146523,0.146522 0.322544,0.223167 -0.186146,0.701649 -0.508692,0.478485 -0.535179,0.297618 -0.681702,0.151095 z"
       sodipodi:nodetypes="ssszs" /><path
       id="path1-7-1-9-1"
       style="fill:#ffffff;stroke:#000000;stroke-width:0.265;stroke-dasharray:none"
       d="m 21.249798,29.666508 c -0.146522,-0.146522 -0.360944,-0.68318 -0.105662,-0.938461 0.255281,-0.255282 0.826988,-0.06081 0.973511,0.08572 0.146522,0.146523 0.322544,0.223168 -0.186146,0.70165 -0.508693,0.478485 -0.535179,0.297618 -0.681703,0.151095 z"
       sodipodi:nodetypes="ssszs" /><path
       style="fill:#999999;fill-opacity:1;stroke:none;stroke-width:0.264999;stroke-dasharray:none;stroke-opacity:1"
       d="m 16.0625,7.5585937 c -0.262338,-0.00397 -0.518182,0.082402 -0.507812,0.2617188 0.07244,1.2524069 0.08092,3.5770765 0.509765,4.4824215 -0.437864,0.679074 -1.494271,1.202659 -2.015625,2.046875 -0.452157,0.732168 -0.02075,1.907611 0.216797,3.083985 0.05573,0.275974 0.796346,0.47567 0.822266,0.195312 0.10928,-1.18211 0.09766,-2.857422 0.09766,-2.857422 0.891495,-0.529723 1.646191,-0.910531 2.117187,-1.134765 0.470175,0.225954 1.221775,0.607646 2.111328,1.140625 0,0 -0.01512,1.676873 0.08984,2.859375 0.0249,0.280451 0.76553,0.08241 0.822266,-0.19336 0.241841,-1.175498 0.677994,-2.348215 0.228515,-3.082031 -0.518265,-0.846116 -1.574386,-1.372065 -2.009765,-2.052734 0.432152,-0.903772 0.450328,-3.2302883 0.527344,-4.4824221 0.02205,-0.3585544 -1.02167,-0.3458071 -1.056641,0.011719 -0.100734,1.0298107 -0.213416,2.7436984 -0.427734,2.9062504 -0.121107,0.09185 -0.211094,0.116149 -0.279297,0.105468 -0.06824,0.01043 -0.16048,-0.01512 -0.28125,-0.107421 C 16.813621,10.578854 16.706345,8.8661094 16.609375,7.8359375 16.592543,7.6571119 16.324839,7.5625647 16.0625,7.5585937 Z"
       id="path4-6-4"
       sodipodi:nodetypes="ssscssscccs"
       transform="rotate(-45,19.817028,22.080748)"
       inkscape:original-d="m 15.087222,17.628795 c -0.02592,0.280358 -0.765893,0.08004 -0.821621,-0.195934 -0.237544,-1.176374 -0.668956,-2.351745 -0.216799,-3.083913 0.521354,-0.844216 1.577933,-1.366261 2.015797,-2.045335 -0.428846,-0.905345 -0.437758,-3.2310091 -0.510197,-4.483416 -0.02074,-0.3586326 1.022152,-0.3422582 1.055816,0.015393 0.09697,1.0301719 0.203913,2.743905 0.417636,2.907239 0.427544,0.326742 0.480507,-0.179347 0.480507,-0.179347 l 0.318037,2.834014 c 0,0 -1.119704,0.469749 -2.639983,1.373094 0,0 0.01009,1.676095 -0.09919,2.858205 z"
       inkscape:path-effect="#path-effect5-4-3" /><ellipse
       style="fill:#ffffff;fill-opacity:1;stroke:#000000;stroke-width:0.265;stroke-dasharray:none;stroke-opacity:1"
       id="path1-7-2-9-9-1-9"
       cx="1.5572419"
       cy="-25.518808"
       rx="0.65429264"
       ry="0.80279088"
       transform="rotate(135)" /><path
       id="path1-3-1"
       style="fill:#6666ff;fill-opacity:1;stroke:#000000;stroke-width:0.265"
       d="m 11.567293,15.923691 c 0.918208,0 2.054432,0.744355 2.054432,1.662562 0,0.918207 -1.136225,1.662561 -2.054432,1.662561 -0.918207,0 -1.6625617,-0.744355 -1.6625617,-1.662561 0,-0.918207 0.7443547,-1.662562 1.6625617,-1.662562 z"
       sodipodi:nodetypes="zzzzz" /><path
       id="path1-7-1-1-0"
       style="fill:#ffffff;stroke:#000000;stroke-width:0.265;stroke-dasharray:none"
       d="m 7.2157154,13.935628 c 0.146523,0.146523 0.360945,0.683179 0.105664,0.938461 -0.255282,0.255282 -0.826989,0.06081 -0.973511,-0.08572 -0.146523,-0.146522 -0.322544,-0.223167 0.186146,-0.701649 0.508692,-0.478485 0.535178,-0.297618 0.681701,-0.151095 z"
       sodipodi:nodetypes="ssszs" /><path
       id="path1-7-1-9-7-7"
       style="fill:#ffffff;stroke:#000000;stroke-width:0.265;stroke-dasharray:none"
       d="m 8.9855104,12.196621 c 0.146523,0.146522 0.360944,0.68318 0.105663,0.938461 -0.255282,0.255282 -0.826989,0.06081 -0.973512,-0.08572 -0.146521,-0.146521 -0.322543,-0.223166 0.186147,-0.701649 0.508692,-0.478484 0.53518,-0.297618 0.681702,-0.151096 z"
       sodipodi:nodetypes="ssszs" /><ellipse
       style="fill:#ffffff;fill-opacity:1;stroke:#000000;stroke-width:0.265;stroke-dasharray:none;stroke-opacity:1"
       id="path1-7-2-9-9-5"
       cx="6.6614385"
       cy="-25.518808"
       rx="0.65429264"
       ry="0.80279088"
       transform="rotate(135)" /><path
       style="fill:#999999;fill-opacity:1;stroke:none;stroke-width:0.264999;stroke-dasharray:none;stroke-opacity:1"
       d="m 24.307389,22.448242 c -0.182674,0.18833 -0.424676,0.308144 -0.54414,0.174015 -0.834363,-0.936809 -2.472157,-2.586595 -2.809093,-3.53001 -0.789795,-0.170561 -1.551112,-0.12653 -2.539914,-0.364541 -0.836636,-0.201384 -1.728147,-0.937927 -2.853821,-1.291169 -0.268629,-0.0843 0.412352,-1.156363 0.671138,-1.045455 0.943939,0.40454 2.302434,1.007578 2.302434,1.007578 1.020347,0.02128 1.860888,0.0492 2.35249,-0.125284 0.172691,-0.492238 -0.08824,-1.641925 -0.05381,-2.386561 0,0 -1.479433,-0.108284 -2.546159,-0.06075 -0.180701,-0.215916 -0.172761,-1.087119 0.108581,-1.09782 0.958669,-0.03646 2.531722,-0.517076 3.277043,0.167245 0.730886,0.671058 0.858386,2.649487 1.031832,3.438652 0.944641,0.333486 2.602589,1.965729 3.542439,2.796663 0.269129,0.237945 -0.477906,0.966953 -0.755445,0.73887 -0.799415,-0.656956 -2.090996,-1.789179 -2.357483,-1.752575 -0.150583,0.02069 -0.231396,0.06714 -0.27207,0.122916 -0.05563,0.04088 -0.102785,0.124168 -0.122915,0.274832 -0.03563,0.266624 1.099606,1.553573 1.75948,2.350583 0.114548,0.138349 -0.0079,0.394501 -0.190587,0.582811 z"
       id="path4-6"
       sodipodi:nodetypes="ssssssscccsscscscsss" /><path
       id="path1-3"
       style="fill:#ff6666;fill-opacity:1;stroke:#000000;stroke-width:0.265"
       d="m 21.35991,15.97398 c -0.918208,0 -2.054433,0.744355 -2.054433,1.662563 0,0.918208 1.136225,1.662561 2.054432,1.662561 0.918208,0 1.662561,-0.744355 1.662561,-1.662562 1e-6,-0.918207 -0.744352,-1.662561 -1.66256,-1.662562 z"
       sodipodi:nodetypes="zzzzz" /><path
       id="path1-7-1-1"
       style="fill:#ffffff;stroke:#000000;stroke-width:0.265;stroke-dasharray:none"
       d="m 24.838651,22.125988 c -0.146523,-0.146523 -0.683181,-0.360945 -0.938462,-0.105664 -0.255282,0.255282 -0.06081,0.82699 0.08572,0.973512 0.146523,0.146522 0.223167,0.322543 0.70165,-0.186146 0.478485,-0.508693 0.297618,-0.53518 0.151096,-0.681702 z"
       sodipodi:nodetypes="ssszs" /><path
       id="path1-7-1-9-7"
       style="fill:#ffffff;stroke:#000000;stroke-width:0.265;stroke-dasharray:none"
       d="m 26.577658,20.356194 c -0.146524,-0.146524 -0.683181,-0.360945 -0.938462,-0.105664 -0.255282,0.255282 -0.0608,0.82699 0.08572,0.973511 0.146522,0.146523 0.223166,0.322543 0.701649,-0.186146 0.478485,-0.508693 0.297618,-0.53518 0.151097,-0.681701 z"
       sodipodi:nodetypes="ssszs" /><path
       style="fill:#999999;fill-opacity:1;stroke:none;stroke-width:0.264999;stroke-dasharray:none;stroke-opacity:1"
       d="m 16.92453,4.4476012 c 0.252364,-0.071762 0.521852,-0.054524 0.558246,0.1213695 0.254175,1.2284797 0.847653,3.4761332 0.667741,4.4616229 0.499982,-0.3313882 1.08158,-0.9979738 1.926598,-0.835531 0.7101,0.1365073 0.945662,1.8729164 0.783155,3.0466784 -0.03861,0.278884 -1.098168,0.476183 -1.10192,0.194658 -0.01159,-0.870087 -0.168197,-1.231785 -0.0088,-1.8562017 -0.538557,0.289984 -1.936883,1.1541117 -2.449865,1.0594207 -0.395674,0.339944 -0.744544,1.466068 -1.146679,2.093727 0,0 1.227085,0.833493 2.174663,1.32569 0.04853,0.27734 -0.393945,1.027854 -0.642944,0.89645 -0.848459,-0.447759 -2.451071,-0.818059 -2.754377,-1.783359 -0.297432,-0.946598 0.581365,-2.723717 0.825739,-3.4938767 -0.65134,-0.7611268 -1.271044,-3.0036641 -1.669511,-4.1931992 -0.1141,-0.3406305 0.897357,-0.5984521 1.02367,-0.2621584 0.363836,0.9686493 0.916265,2.5949724 1.165352,2.6965151 0.140754,0.057374 0.233965,0.057553 0.297077,0.029588 0.06862,-0.00759 0.151098,-0.05614 0.243864,-0.1765535 0.164169,-0.2130891 -0.1755,-1.8952381 -0.348463,-2.9154046 -0.03003,-0.1770886 0.204092,-0.3376979 0.456459,-0.4094357 z"
       id="path4-6-3"
       sodipodi:nodetypes="sscsssccccsscscscssss" /><path
       id="path1-3-3"
       style="fill:#4d4d4d;fill-opacity:1;stroke:#000000;stroke-width:0.265"
       d="m 15.489947,10.040336 c 0,0.918208 0.744353,2.054431 1.662561,2.054431 0.918208,1e-6 1.662561,-1.136224 1.662562,-2.054432 -10e-7,-0.9182063 -0.744357,-1.6625594 -1.662562,-1.6625594 -0.918207,-10e-8 -1.662562,0.7443524 -1.662561,1.6625604 z"
       sodipodi:nodetypes="zzzzz" /><path
       id="path1-7-1-1-0-7"
       style="fill:#ffffff;stroke:#000000;stroke-width:0.265;stroke-dasharray:none"
       d="m 16.303317,4.4610505 c 0.05363,0.2001528 0.411178,0.6541761 0.759898,0.5607367 0.348722,-0.09344 0.466158,-0.6857884 0.412521,-0.8859461 -0.05363,-0.2001528 -0.032,-0.3909148 -0.700719,-0.1896172 -0.668727,0.2012986 -0.525334,0.3146696 -0.471704,0.5148246 z"
       sodipodi:nodetypes="ssszs" /><path
       id="path1-7-1-9-7-9"
       style="fill:#ffffff;stroke:#000000;stroke-width:0.265;stroke-dasharray:none"
       d="m 13.912396,5.1242341 c 0.05363,0.2001527 0.411179,0.6541765 0.759899,0.560737 0.348721,-0.09344 0.466158,-0.6857885 0.412521,-0.8859461 -0.05363,-0.2001514 -0.032,-0.3909135 -0.700719,-0.1896158 -0.668726,0.2012987 -0.525335,0.3146691 -0.471704,0.5148232 z"
       sodipodi:nodetypes="ssszs" /><ellipse
       style="fill:#ffffff;fill-opacity:1;stroke:#000000;stroke-width:0.265;stroke-dasharray:none;stroke-opacity:1"
       id="path1-7-2-9-9-5-3"
       cx="20.262466"
       cy="-11.649947"
       rx="0.65429264"
       ry="0.80279088"
       transform="scale(1,-1)" /><ellipse
       style="fill:#ffffff;fill-opacity:1;stroke:#000000;stroke-width:0.265;stroke-dasharray:none;stroke-opacity:1"
       id="path1-7-2-9-9-1"
       cx="9.1920624"
       cy="20.951036"
       rx="0.65429264"
       ry="0.80279088"
       transform="matrix(-0.25881904,0.96592583,0.96592583,0.25881904,0,0)" /><ellipse
       style="fill:#ffffff;fill-opacity:1;stroke:#000000;stroke-width:0.265;stroke-dasharray:none;stroke-opacity:1"
       id="path1-7-2-9-9"
       cx="6.6509142"
       cy="22.236986"
       rx="0.65429264"
       ry="0.80279088"
       transform="matrix(-0.5,0.8660254,0.8660254,0.5,0,0)" /></g></svg>
