<?xml version="1.0" encoding="UTF-8" standalone="no"?>
<!-- Created with Inkscape (http://www.inkscape.org/) -->

<svg
   width="35mm"
   height="35mm"
   viewBox="0 0 35 35"
   version="1.1"
   id="svg1"
   xml:space="preserve"
   inkscape:version="1.4 (e7c3feb100, 2024-10-09)"
   sodipodi:docname="13.svg"
   xmlns:inkscape="http://www.inkscape.org/namespaces/inkscape"
   xmlns:sodipodi="http://sodipodi.sourceforge.net/DTD/sodipodi-0.dtd"
   xmlns="http://www.w3.org/2000/svg"
   xmlns:svg="http://www.w3.org/2000/svg"><sodipodi:namedview
     id="namedview1"
     pagecolor="#ffffff"
     bordercolor="#000000"
     borderopacity="0.25"
     inkscape:showpageshadow="2"
     inkscape:pageopacity="0.0"
     inkscape:pagecheckerboard="0"
     inkscape:deskcolor="#d1d1d1"
     inkscape:document-units="mm"
     inkscape:zoom="4.2968333"
     inkscape:cx="75.520733"
     inkscape:cy="63.767892"
     inkscape:window-width="1916"
     inkscape:window-height="1023"
     inkscape:window-x="0"
     inkscape:window-y="0"
     inkscape:window-maximized="0"
     inkscape:current-layer="layer1"><sodipodi:guide
       position="0.17416423,17.540036"
       orientation="0,132.28346"
       id="guide5"
       inkscape:locked="false" /><sodipodi:guide
       position="35.000001,35.000001"
       orientation="132.28346,0"
       id="guide6"
       inkscape:locked="false" /><sodipodi:guide
       position="35.000001,0"
       orientation="0,-132.28346"
       id="guide7"
       inkscape:locked="false" /><sodipodi:guide
       position="17.503506,35.914363"
       orientation="-132.28346,0"
       id="guide8"
       inkscape:locked="false" /></sodipodi:namedview><defs
     id="defs1"><inkscape:path-effect
       effect="mirror_symmetry"
       start_point="17.297909,16.234992"
       end_point="17.313303,7.810326"
       center_point="17.305606,12.022659"
       id="path-effect5"
       is_visible="true"
       lpeversion="1.2"
       lpesatellites=""
       mode="free"
       discard_orig_path="false"
       fuse_paths="true"
       oposite_fuse="false"
       split_items="false"
       split_open="false"
       link_styles="false" /><inkscape:path-effect
       effect="mirror_symmetry"
       start_point="17.297909,16.234992"
       end_point="17.313303,7.810326"
       center_point="17.305606,12.022659"
       id="path-effect5-7"
       is_visible="true"
       lpeversion="1.2"
       lpesatellites=""
       mode="free"
       discard_orig_path="false"
       fuse_paths="true"
       oposite_fuse="false"
       split_items="false"
       split_open="false"
       link_styles="false" /><inkscape:path-effect
       effect="mirror_symmetry"
       start_point="17.297909,16.234992"
       end_point="17.313303,7.810326"
       center_point="17.305606,12.022659"
       id="path-effect5-6"
       is_visible="true"
       lpeversion="1.2"
       lpesatellites=""
       mode="free"
       discard_orig_path="false"
       fuse_paths="true"
       oposite_fuse="false"
       split_items="false"
       split_open="false"
       link_styles="false" /><inkscape:path-effect
       effect="mirror_symmetry"
       start_point="17.297909,16.234992"
       end_point="17.313303,7.810326"
       center_point="17.305606,12.022659"
       id="path-effect5-3"
       is_visible="true"
       lpeversion="1.2"
       lpesatellites=""
       mode="free"
       discard_orig_path="false"
       fuse_paths="true"
       oposite_fuse="false"
       split_items="false"
       split_open="false"
       link_styles="false" /><inkscape:path-effect
       effect="mirror_symmetry"
       start_point="17.297909,16.234992"
       end_point="17.313303,7.810326"
       center_point="17.305606,12.022659"
       id="path-effect5-66"
       is_visible="true"
       lpeversion="1.2"
       lpesatellites=""
       mode="free"
       discard_orig_path="false"
       fuse_paths="true"
       oposite_fuse="false"
       split_items="false"
       split_open="false"
       link_styles="false" /><inkscape:path-effect
       effect="mirror_symmetry"
       start_point="17.297909,16.234992"
       end_point="17.313303,7.810326"
       center_point="17.305606,12.022659"
       id="path-effect5-4"
       is_visible="true"
       lpeversion="1.2"
       lpesatellites=""
       mode="free"
       discard_orig_path="false"
       fuse_paths="true"
       oposite_fuse="false"
       split_items="false"
       split_open="false"
       link_styles="false" /><inkscape:path-effect
       effect="mirror_symmetry"
       start_point="17.297909,16.234992"
       end_point="17.313303,7.810326"
       center_point="17.305606,12.022659"
       id="path-effect5-4-7"
       is_visible="true"
       lpeversion="1.2"
       lpesatellites=""
       mode="free"
       discard_orig_path="false"
       fuse_paths="true"
       oposite_fuse="false"
       split_items="false"
       split_open="false"
       link_styles="false" /><inkscape:path-effect
       effect="mirror_symmetry"
       start_point="17.297909,16.234992"
       end_point="17.313303,7.810326"
       center_point="17.305606,12.022659"
       id="path-effect5-41"
       is_visible="true"
       lpeversion="1.2"
       lpesatellites=""
       mode="free"
       discard_orig_path="false"
       fuse_paths="true"
       oposite_fuse="false"
       split_items="false"
       split_open="false"
       link_styles="false" /><inkscape:path-effect
       effect="mirror_symmetry"
       start_point="17.297909,16.234992"
       end_point="17.313303,7.810326"
       center_point="17.305606,12.022659"
       id="path-effect5-4-0"
       is_visible="true"
       lpeversion="1.2"
       lpesatellites=""
       mode="free"
       discard_orig_path="false"
       fuse_paths="true"
       oposite_fuse="false"
       split_items="false"
       split_open="false"
       link_styles="false" /><inkscape:path-effect
       effect="mirror_symmetry"
       start_point="17.493844,16.300304"
       end_point="17.509238,7.875638"
       center_point="17.501541,12.087971"
       id="path-effect5-4-0-9"
       is_visible="true"
       lpeversion="1.2"
       lpesatellites=""
       mode="free"
       discard_orig_path="false"
       fuse_paths="true"
       oposite_fuse="false"
       split_items="false"
       split_open="false"
       link_styles="false" /><inkscape:path-effect
       effect="mirror_symmetry"
       start_point="17.297909,16.234992"
       end_point="17.313303,7.810326"
       center_point="17.305606,12.022659"
       id="path-effect5-4-0-0"
       is_visible="true"
       lpeversion="1.2"
       lpesatellites=""
       mode="free"
       discard_orig_path="false"
       fuse_paths="true"
       oposite_fuse="false"
       split_items="false"
       split_open="false"
       link_styles="false" /><inkscape:path-effect
       effect="mirror_symmetry"
       start_point="17.493844,16.300304"
       end_point="17.509238,7.875638"
       center_point="17.501541,12.087971"
       id="path-effect5-4-0-9-7"
       is_visible="true"
       lpeversion="1.2"
       lpesatellites=""
       mode="free"
       discard_orig_path="false"
       fuse_paths="true"
       oposite_fuse="false"
       split_items="false"
       split_open="false"
       link_styles="false" /><inkscape:path-effect
       effect="mirror_symmetry"
       start_point="17.493844,16.300304"
       end_point="17.509238,7.875638"
       center_point="17.501541,12.087971"
       id="path-effect5-4-0-9-3"
       is_visible="true"
       lpeversion="1.2"
       lpesatellites=""
       mode="free"
       discard_orig_path="false"
       fuse_paths="true"
       oposite_fuse="false"
       split_items="false"
       split_open="false"
       link_styles="false" /><inkscape:path-effect
       effect="mirror_symmetry"
       start_point="17.297909,16.234992"
       end_point="17.313303,7.810326"
       center_point="17.305606,12.022659"
       id="path-effect5-4-6"
       is_visible="true"
       lpeversion="1.2"
       lpesatellites=""
       mode="free"
       discard_orig_path="false"
       fuse_paths="true"
       oposite_fuse="false"
       split_items="false"
       split_open="false"
       link_styles="false" /><inkscape:path-effect
       effect="mirror_symmetry"
       start_point="17.493844,16.300304"
       end_point="17.509238,7.875638"
       center_point="17.501541,12.087971"
       id="path-effect5-4-0-9-72"
       is_visible="true"
       lpeversion="1.2"
       lpesatellites=""
       mode="free"
       discard_orig_path="false"
       fuse_paths="true"
       oposite_fuse="false"
       split_items="false"
       split_open="false"
       link_styles="false" /><inkscape:path-effect
       effect="mirror_symmetry"
       start_point="17.493844,16.300304"
       end_point="17.509238,7.875638"
       center_point="17.501541,12.087971"
       id="path-effect5-4-0-9-72-8"
       is_visible="true"
       lpeversion="1.2"
       lpesatellites=""
       mode="free"
       discard_orig_path="false"
       fuse_paths="true"
       oposite_fuse="false"
       split_items="false"
       split_open="false"
       link_styles="false" /><inkscape:path-effect
       effect="mirror_symmetry"
       start_point="17.297909,16.234992"
       end_point="17.313303,7.810326"
       center_point="17.305606,12.022659"
       id="path-effect5-4-6-1"
       is_visible="true"
       lpeversion="1.2"
       lpesatellites=""
       mode="free"
       discard_orig_path="false"
       fuse_paths="true"
       oposite_fuse="false"
       split_items="false"
       split_open="false"
       link_styles="false" /><inkscape:path-effect
       effect="mirror_symmetry"
       start_point="17.297909,16.234992"
       end_point="17.313303,7.810326"
       center_point="17.305606,12.022659"
       id="path-effect5-4-6-7"
       is_visible="true"
       lpeversion="1.2"
       lpesatellites=""
       mode="free"
       discard_orig_path="false"
       fuse_paths="true"
       oposite_fuse="false"
       split_items="false"
       split_open="false"
       link_styles="false" /><inkscape:path-effect
       effect="mirror_symmetry"
       start_point="17.493844,16.300304"
       end_point="17.509238,7.875638"
       center_point="17.501541,12.087971"
       id="path-effect5-4-0-9-9"
       is_visible="true"
       lpeversion="1.2"
       lpesatellites=""
       mode="free"
       discard_orig_path="false"
       fuse_paths="true"
       oposite_fuse="false"
       split_items="false"
       split_open="false"
       link_styles="false" /><inkscape:path-effect
       effect="mirror_symmetry"
       start_point="17.297909,16.234992"
       end_point="17.313303,7.810326"
       center_point="17.305606,12.022659"
       id="path-effect5-4-6-7-1"
       is_visible="true"
       lpeversion="1.2"
       lpesatellites=""
       mode="free"
       discard_orig_path="false"
       fuse_paths="true"
       oposite_fuse="false"
       split_items="false"
       split_open="false"
       link_styles="false" /><inkscape:path-effect
       effect="mirror_symmetry"
       start_point="17.297909,16.234992"
       end_point="17.313303,7.810326"
       center_point="17.305606,12.022659"
       id="path-effect5-4-6-7-0"
       is_visible="true"
       lpeversion="1.2"
       lpesatellites=""
       mode="free"
       discard_orig_path="false"
       fuse_paths="true"
       oposite_fuse="false"
       split_items="false"
       split_open="false"
       link_styles="false" /><inkscape:path-effect
       effect="mirror_symmetry"
       start_point="17.297909,16.234992"
       end_point="17.313303,7.810326"
       center_point="17.305606,12.022659"
       id="path-effect5-4-6-7-3"
       is_visible="true"
       lpeversion="1.2"
       lpesatellites=""
       mode="free"
       discard_orig_path="false"
       fuse_paths="true"
       oposite_fuse="false"
       split_items="false"
       split_open="false"
       link_styles="false" /></defs><g
     inkscape:label="Layer 1"
     inkscape:groupmode="layer"
     id="layer1"><path
       style="fill:#999999;fill-opacity:1;stroke:none;stroke-width:0.264999;stroke-dasharray:none;stroke-opacity:1"
       d="m 16.0625,7.5585937 c -0.262338,-0.00397 -0.518182,0.082402 -0.507812,0.2617188 0.07244,1.2524069 0.08092,3.5770765 0.509765,4.4824215 -0.437864,0.679074 -1.391782,0.06763 -2.0625,0.798829 -0.544522,0.593621 -0.451022,2.216541 -0.382812,3.285156 0.368438,0.08206 0.421271,0.02819 0.867187,-0.05078 0.100661,-0.90603 0.238281,-2.304687 0.238281,-2.304687 0.767798,-0.194469 1.915366,-0.416044 2.578125,-0.539062 0.662306,0.125439 1.80909,0.351554 2.576172,0.548828 0,0 0.13312,1.398295 0.230469,2.304687 0.445624,0.0806 0.498452,0.135402 0.867187,0.05469 0.07212,-1.068359 0.171256,-2.691503 -0.371093,-3.28711 -0.668042,-0.733643 -1.625168,-0.124018 -2.060547,-0.804687 0.432152,-0.903772 0.450328,-3.2302883 0.527344,-4.4824221 0.02205,-0.3585544 -1.02167,-0.3458071 -1.056641,0.011719 -0.100734,1.0298107 -0.213416,2.7436984 -0.427734,2.9062504 -0.121107,0.09185 -0.211094,0.116149 -0.279297,0.105468 -0.06824,0.01043 -0.16048,-0.01512 -0.28125,-0.107421 C 16.813621,10.578854 16.706345,8.8661094 16.609375,7.8359375 16.592543,7.6571119 16.324839,7.5625647 16.0625,7.5585937 Z"
       id="path4-6-8"
       sodipodi:nodetypes="cscsssccccc"
       transform="rotate(180,17.394269,18.532567)"
       inkscape:original-d="m 13.619049,16.386063 c -0.06821,-1.068615 -0.160951,-2.690415 0.383571,-3.284036 0.670718,-0.731197 1.624115,-0.11934 2.061979,-0.798414 -0.428846,-0.905345 -0.437758,-3.2310091 -0.510197,-4.483416 -0.02074,-0.3586326 1.022152,-0.3422582 1.055816,0.015393 0.09697,1.0301719 0.203913,2.743905 0.417636,2.907239 0.427544,0.326742 0.480507,-0.179347 0.480507,-0.179347 l 0.318037,2.834014 c 0,0 -1.966379,0.346596 -3.101806,0.634178 0,0 -0.137075,1.397987 -0.237736,2.304017 -0.445916,0.07897 -0.499369,0.132431 -0.867807,0.05037 z"
       inkscape:path-effect="#path-effect5-4-6-7" /><path
       id="path1-3-9"
       style="fill:#66ff66;fill-opacity:1;stroke:#000000;stroke-width:0.265"
       d="m 15.825754,24.053305 c 0,-0.918208 0.744354,-2.054432 1.662562,-2.054432 0.918208,0 1.662561,1.136225 1.662561,2.054432 0,0.918207 -0.744355,1.662563 -1.662561,1.662563 -0.918207,0 -1.662562,-0.744355 -1.662562,-1.662563 z"
       sodipodi:nodetypes="zzzzz" /><path
       id="path1-7-1-1-06"
       style="fill:#ffffff;stroke:#000000;stroke-width:0.265;stroke-dasharray:none"
       d="m 18.12251,29.654328 c 0,-0.207214 0.227855,-0.738307 0.588877,-0.738307 0.361023,0 0.627766,0.541773 0.627766,0.748987 0,0.207214 0.07027,0.385876 -0.627766,0.364516 -0.69804,-0.02136 -0.588877,-0.167981 -0.588877,-0.375196 z"
       sodipodi:nodetypes="ssszs" /><path
       id="path1-7-1-9-7-8"
       style="fill:#ffffff;stroke:#000000;stroke-width:0.265;stroke-dasharray:none"
       d="m 15.641413,29.632558 c 0,-0.207214 0.227855,-0.738307 0.588877,-0.738307 0.361023,0 0.627766,0.541773 0.627766,0.748987 0,0.207213 0.07027,0.385875 -0.627766,0.364515 -0.69804,-0.02136 -0.588877,-0.167981 -0.588877,-0.375195 z"
       sodipodi:nodetypes="ssszs" /><path
       style="fill:#999999;fill-opacity:1;stroke:none;stroke-width:0.264999;stroke-dasharray:none;stroke-opacity:1"
       d="m 16.0625,7.5585937 c -0.262338,-0.00397 -0.518182,0.082402 -0.507812,0.2617188 0.07244,1.2524069 0.08092,3.5770765 0.509765,4.4824215 -0.437864,0.679074 -1.391782,0.06763 -2.0625,0.798829 -0.544522,0.593621 -0.451022,2.216541 -0.382812,3.285156 0.368438,0.08206 0.421271,0.02819 0.867187,-0.05078 0.100661,-0.90603 0.238281,-2.304687 0.238281,-2.304687 0.767798,-0.194469 1.915366,-0.416044 2.578125,-0.539062 0.662306,0.125439 1.80909,0.351554 2.576172,0.548828 0,0 0.13312,1.398295 0.230469,2.304687 0.445624,0.0806 0.498452,0.135402 0.867187,0.05469 0.07212,-1.068359 0.171256,-2.691503 -0.371093,-3.28711 -0.668042,-0.733643 -1.625168,-0.124018 -2.060547,-0.804687 0.432152,-0.903772 0.450328,-3.2302883 0.527344,-4.4824221 0.02205,-0.3585544 -1.02167,-0.3458071 -1.056641,0.011719 -0.100734,1.0298107 -0.213416,2.7436984 -0.427734,2.9062504 -0.121107,0.09185 -0.211094,0.116149 -0.279297,0.105468 -0.06824,0.01043 -0.16048,-0.01512 -0.28125,-0.107421 C 16.813621,10.578854 16.706345,8.8661094 16.609375,7.8359375 16.592543,7.6571119 16.324839,7.5625647 16.0625,7.5585937 Z"
       id="path4-6-8-6"
       sodipodi:nodetypes="cscsssccccc"
       transform="rotate(90,18.426836,18.638298)"
       inkscape:original-d="m 13.619049,16.386063 c -0.06821,-1.068615 -0.160951,-2.690415 0.383571,-3.284036 0.670718,-0.731197 1.624115,-0.11934 2.061979,-0.798414 -0.428846,-0.905345 -0.437758,-3.2310091 -0.510197,-4.483416 -0.02074,-0.3586326 1.022152,-0.3422582 1.055816,0.015393 0.09697,1.0301719 0.203913,2.743905 0.417636,2.907239 0.427544,0.326742 0.480507,-0.179347 0.480507,-0.179347 l 0.318037,2.834014 c 0,0 -1.966379,0.346596 -3.101806,0.634178 0,0 -0.137075,1.397987 -0.237736,2.304017 -0.445916,0.07897 -0.499369,0.132431 -0.867807,0.05037 z"
       inkscape:path-effect="#path-effect5-4-6-7-1" /><path
       id="path1-3-9-4"
       style="fill:#ff6666;fill-opacity:1;stroke:#000000;stroke-width:0.265"
       d="m 24.053305,19.174246 c -0.918208,0 -2.054432,-0.744354 -2.054432,-1.662562 0,-0.918208 1.136225,-1.662561 2.054432,-1.662561 0.918207,0 1.662563,0.744355 1.662563,1.662561 0,0.918207 -0.744355,1.662562 -1.662563,1.662562 z"
       sodipodi:nodetypes="zzzzz" /><path
       id="path1-7-1-1-06-3"
       style="fill:#ffffff;stroke:#000000;stroke-width:0.265;stroke-dasharray:none"
       d="m 29.654328,16.87749 c -0.207214,0 -0.738307,-0.227855 -0.738307,-0.588877 0,-0.361023 0.541773,-0.627766 0.748987,-0.627766 0.207214,0 0.385876,-0.07027 0.364516,0.627766 -0.02136,0.69804 -0.167981,0.588877 -0.375196,0.588877 z"
       sodipodi:nodetypes="ssszs" /><path
       id="path1-7-1-9-7-8-3"
       style="fill:#ffffff;stroke:#000000;stroke-width:0.265;stroke-dasharray:none"
       d="m 29.632558,19.358587 c -0.207214,0 -0.738307,-0.227855 -0.738307,-0.588877 0,-0.361023 0.541773,-0.627766 0.748987,-0.627766 0.207213,0 0.385875,-0.07027 0.364515,0.627766 -0.02136,0.69804 -0.167981,0.588877 -0.375195,0.588877 z"
       sodipodi:nodetypes="ssszs" /><ellipse
       style="fill:#ffffff;fill-opacity:1;stroke:#000000;stroke-width:0.265;stroke-dasharray:none;stroke-opacity:1"
       id="path1-7-2-9-9-1-3"
       cx="29.570171"
       cy="0.17793465"
       rx="0.65429264"
       ry="0.80279088"
       transform="rotate(45)" /><path
       style="fill:#999999;fill-opacity:1;stroke:none;stroke-width:0.264999;stroke-dasharray:none;stroke-opacity:1"
       d="m 16.0625,7.5585937 c -0.262338,-0.00397 -0.518182,0.082402 -0.507812,0.2617188 0.07244,1.2524069 0.08092,3.5770765 0.509765,4.4824215 -0.437864,0.679074 -1.391782,0.06763 -2.0625,0.798829 -0.544522,0.593621 -0.451022,2.216541 -0.382812,3.285156 0.368438,0.08206 0.421271,0.02819 0.867187,-0.05078 0.100661,-0.90603 0.238281,-2.304687 0.238281,-2.304687 0.767798,-0.194469 1.915366,-0.416044 2.578125,-0.539062 0.662306,0.125439 1.80909,0.351554 2.576172,0.548828 0,0 0.13312,1.398295 0.230469,2.304687 0.445624,0.0806 0.498452,0.135402 0.867187,0.05469 0.07212,-1.068359 0.171256,-2.691503 -0.371093,-3.28711 -0.668042,-0.733643 -1.625168,-0.124018 -2.060547,-0.804687 0.432152,-0.903772 0.450328,-3.2302883 0.527344,-4.4824221 0.02205,-0.3585544 -1.02167,-0.3458071 -1.056641,0.011719 -0.100734,1.0298107 -0.213416,2.7436984 -0.427734,2.9062504 -0.121107,0.09185 -0.211094,0.116149 -0.279297,0.105468 -0.06824,0.01043 -0.16048,-0.01512 -0.28125,-0.107421 C 16.813621,10.578854 16.706345,8.8661094 16.609375,7.8359375 16.592543,7.6571119 16.324839,7.5625647 16.0625,7.5585937 Z"
       id="path4-6-8-8"
       sodipodi:nodetypes="cscsssccccc"
       transform="translate(0.21146391,-2.0651359)"
       inkscape:original-d="m 13.619049,16.386063 c -0.06821,-1.068615 -0.160951,-2.690415 0.383571,-3.284036 0.670718,-0.731197 1.624115,-0.11934 2.061979,-0.798414 -0.428846,-0.905345 -0.437758,-3.2310091 -0.510197,-4.483416 -0.02074,-0.3586326 1.022152,-0.3422582 1.055816,0.015393 0.09697,1.0301719 0.203913,2.743905 0.417636,2.907239 0.427544,0.326742 0.480507,-0.179347 0.480507,-0.179347 l 0.318037,2.834014 c 0,0 -1.966379,0.346596 -3.101806,0.634178 0,0 -0.137075,1.397987 -0.237736,2.304017 -0.445916,0.07897 -0.499369,0.132431 -0.867807,0.05037 z"
       inkscape:path-effect="#path-effect5-4-6-7-0" /><path
       id="path1-3-9-8"
       style="fill:#4d4d4d;fill-opacity:1;stroke:#000000;stroke-width:0.265"
       d="m 19.174248,10.946693 c 0,0.918208 -0.744354,2.054432 -1.662562,2.054432 -0.918208,0 -1.662561,-1.136225 -1.662561,-2.054432 0,-0.918207 0.744355,-1.6625629 1.662561,-1.6625629 0.918207,0 1.662562,0.7443549 1.662562,1.6625629 z"
       sodipodi:nodetypes="zzzzz" /><path
       id="path1-7-1-1-06-9"
       style="fill:#ffffff;stroke:#000000;stroke-width:0.265;stroke-dasharray:none"
       d="m 16.877492,5.3456701 c 0,0.207214 -0.227855,0.738307 -0.588877,0.738307 -0.361023,0 -0.627766,-0.541773 -0.627766,-0.748987 0,-0.207214 -0.07027,-0.385876 0.627766,-0.364516 0.69804,0.02136 0.588877,0.167981 0.588877,0.375196 z"
       sodipodi:nodetypes="ssszs" /><path
       id="path1-7-1-9-7-8-7"
       style="fill:#ffffff;stroke:#000000;stroke-width:0.265;stroke-dasharray:none"
       d="m 19.358589,5.3674401 c 0,0.207214 -0.227855,0.738307 -0.588877,0.738307 -0.361023,0 -0.627766,-0.541773 -0.627766,-0.748987 0,-0.207213 -0.07027,-0.385875 0.627766,-0.364515 0.69804,0.02136 0.588877,0.167981 0.588877,0.375195 z"
       sodipodi:nodetypes="ssszs" /><ellipse
       style="fill:#ffffff;fill-opacity:1;stroke:#000000;stroke-width:0.265;stroke-dasharray:none;stroke-opacity:1"
       id="path1-7-2-9-9-1-7"
       cx="4.8214369"
       cy="24.926672"
       rx="0.65429264"
       ry="0.80279088"
       transform="rotate(-45)" /><path
       style="fill:#999999;fill-opacity:1;stroke:none;stroke-width:0.264999;stroke-dasharray:none;stroke-opacity:1"
       d="m 16.0625,7.5585937 c -0.262338,-0.00397 -0.518182,0.082402 -0.507812,0.2617188 0.07244,1.2524069 0.08092,3.5770765 0.509765,4.4824215 -0.437864,0.679074 -1.391782,0.06763 -2.0625,0.798829 -0.544522,0.593621 -0.451022,2.216541 -0.382812,3.285156 0.368438,0.08206 0.421271,0.02819 0.867187,-0.05078 0.100661,-0.90603 0.238281,-2.304687 0.238281,-2.304687 0.767798,-0.194469 1.915366,-0.416044 2.578125,-0.539062 0.662306,0.125439 1.80909,0.351554 2.576172,0.548828 0,0 0.13312,1.398295 0.230469,2.304687 0.445624,0.0806 0.498452,0.135402 0.867187,0.05469 0.07212,-1.068359 0.171256,-2.691503 -0.371093,-3.28711 -0.668042,-0.733643 -1.625168,-0.124018 -2.060547,-0.804687 0.432152,-0.903772 0.450328,-3.2302883 0.527344,-4.4824221 0.02205,-0.3585544 -1.02167,-0.3458071 -1.056641,0.011719 -0.100734,1.0298107 -0.213416,2.7436984 -0.427734,2.9062504 -0.121107,0.09185 -0.211094,0.116149 -0.279297,0.105468 -0.06824,0.01043 -0.16048,-0.01512 -0.28125,-0.107421 C 16.813621,10.578854 16.706345,8.8661094 16.609375,7.8359375 16.592543,7.6571119 16.324839,7.5625647 16.0625,7.5585937 Z"
       id="path4-6-8-0"
       sodipodi:nodetypes="cscsssccccc"
       transform="rotate(-90,16.361698,18.426834)"
       inkscape:original-d="m 13.619049,16.386063 c -0.06821,-1.068615 -0.160951,-2.690415 0.383571,-3.284036 0.670718,-0.731197 1.624115,-0.11934 2.061979,-0.798414 -0.428846,-0.905345 -0.437758,-3.2310091 -0.510197,-4.483416 -0.02074,-0.3586326 1.022152,-0.3422582 1.055816,0.015393 0.09697,1.0301719 0.203913,2.743905 0.417636,2.907239 0.427544,0.326742 0.480507,-0.179347 0.480507,-0.179347 l 0.318037,2.834014 c 0,0 -1.966379,0.346596 -3.101806,0.634178 0,0 -0.137075,1.397987 -0.237736,2.304017 -0.445916,0.07897 -0.499369,0.132431 -0.867807,0.05037 z"
       inkscape:path-effect="#path-effect5-4-6-7-3" /><path
       id="path1-3-9-9"
       style="fill:#6666ff;fill-opacity:1;stroke:#000000;stroke-width:0.265"
       d="m 10.946693,15.825748 c 0.918208,0 2.054432,0.744354 2.054432,1.662562 0,0.918208 -1.136225,1.662561 -2.054432,1.662561 -0.918207,0 -1.6625629,-0.744355 -1.6625629,-1.662561 0,-0.918207 0.7443549,-1.662562 1.6625629,-1.662562 z"
       sodipodi:nodetypes="zzzzz" /><path
       id="path1-7-1-1-06-2"
       style="fill:#ffffff;stroke:#000000;stroke-width:0.265;stroke-dasharray:none"
       d="m 5.3456701,18.122504 c 0.207214,0 0.738307,0.227855 0.738307,0.588877 0,0.361023 -0.541773,0.627766 -0.748987,0.627766 -0.207214,0 -0.385876,0.07027 -0.364516,-0.627766 0.02136,-0.69804 0.167981,-0.588877 0.375196,-0.588877 z"
       sodipodi:nodetypes="ssszs" /><path
       id="path1-7-1-9-7-8-5"
       style="fill:#ffffff;stroke:#000000;stroke-width:0.265;stroke-dasharray:none"
       d="m 5.3674401,15.641407 c 0.207214,0 0.738307,0.227855 0.738307,0.588877 0,0.361023 -0.541773,0.627766 -0.748987,0.627766 -0.207213,0 -0.385875,0.07027 -0.364515,-0.627766 0.02136,-0.69804 0.167981,-0.588877 0.375195,-0.588877 z"
       sodipodi:nodetypes="ssszs" /><ellipse
       style="fill:#ffffff;fill-opacity:1;stroke:#000000;stroke-width:0.265;stroke-dasharray:none;stroke-opacity:1"
       id="path1-7-2-9-9-1-4"
       cx="-19.927298"
       cy="0.17793734"
       rx="0.65429264"
       ry="0.80279088"
       transform="rotate(-135)" /><ellipse
       style="fill:#ffffff;fill-opacity:1;stroke:#000000;stroke-width:0.265;stroke-dasharray:none;stroke-opacity:1"
       id="path1-7-2-9-9-1"
       cx="4.8214335"
       cy="-24.570803"
       rx="0.65429264"
       ry="0.80279088"
       transform="rotate(135)" /></g></svg>
