<?xml version="1.0" encoding="UTF-8" standalone="no"?>
<!-- Created with Inkscape (http://www.inkscape.org/) -->

<svg
   width="35mm"
   height="35mm"
   viewBox="0 0 35 35"
   version="1.1"
   id="svg1"
   xml:space="preserve"
   inkscape:version="1.4.2 (ebf0e940d0, 2025-05-08)"
   sodipodi:docname="13_v1_inter.svg"
   xmlns:inkscape="http://www.inkscape.org/namespaces/inkscape"
   xmlns:sodipodi="http://sodipodi.sourceforge.net/DTD/sodipodi-0.dtd"
   xmlns:xlink="http://www.w3.org/1999/xlink"
   xmlns="http://www.w3.org/2000/svg"
   xmlns:svg="http://www.w3.org/2000/svg"><sodipodi:namedview
     id="namedview1"
     pagecolor="#ffffff"
     bordercolor="#000000"
     borderopacity="0.25"
     inkscape:showpageshadow="2"
     inkscape:pageopacity="0.0"
     inkscape:pagecheckerboard="0"
     inkscape:deskcolor="#d1d1d1"
     inkscape:document-units="mm"
     inkscape:zoom="6.07664"
     inkscape:cx="45.831249"
     inkscape:cy="57.59762"
     inkscape:window-width="1916"
     inkscape:window-height="1021"
     inkscape:window-x="0"
     inkscape:window-y="0"
     inkscape:window-maximized="0"
     inkscape:current-layer="layer1" /><defs
     id="defs1"><linearGradient
       id="linearGradient8"
       inkscape:collect="always"><stop
         style="stop-color:#4d4d4d;stop-opacity:0.74901962;"
         offset="0"
         id="stop7" /><stop
         style="stop-color:#4d4d4d;stop-opacity:0;"
         offset="1"
         id="stop8" /></linearGradient><linearGradient
       id="linearGradient6"
       inkscape:collect="always"><stop
         style="stop-color:#ff6666;stop-opacity:0.74901962;"
         offset="0"
         id="stop3" /><stop
         style="stop-color:#ff6666;stop-opacity:0;"
         offset="1"
         id="stop6" /></linearGradient><linearGradient
       id="linearGradient10"
       inkscape:collect="always"><stop
         style="stop-color:#66ff66;stop-opacity:0.74901962;"
         offset="0"
         id="stop9" /><stop
         style="stop-color:#66ff66;stop-opacity:0;"
         offset="1"
         id="stop10" /></linearGradient><linearGradient
       id="linearGradient5"
       inkscape:collect="always"><stop
         style="stop-color:#6666ff;stop-opacity:0.74901962;"
         offset="0"
         id="stop4" /><stop
         style="stop-color:#6666ff;stop-opacity:0;"
         offset="1"
         id="stop5" /></linearGradient><inkscape:path-effect
       effect="mirror_symmetry"
       start_point="17.297909,16.234992"
       end_point="17.313303,7.810326"
       center_point="17.305606,12.022659"
       id="path-effect5"
       is_visible="true"
       lpeversion="1.2"
       lpesatellites=""
       mode="free"
       discard_orig_path="false"
       fuse_paths="true"
       oposite_fuse="false"
       split_items="false"
       split_open="false"
       link_styles="false" /><inkscape:path-effect
       effect="mirror_symmetry"
       start_point="17.297909,16.234992"
       end_point="17.313303,7.810326"
       center_point="17.305606,12.022659"
       id="path-effect5-7"
       is_visible="true"
       lpeversion="1.2"
       lpesatellites=""
       mode="free"
       discard_orig_path="false"
       fuse_paths="true"
       oposite_fuse="false"
       split_items="false"
       split_open="false"
       link_styles="false" /><inkscape:path-effect
       effect="mirror_symmetry"
       start_point="17.297909,16.234992"
       end_point="17.313303,7.810326"
       center_point="17.305606,12.022659"
       id="path-effect5-6"
       is_visible="true"
       lpeversion="1.2"
       lpesatellites=""
       mode="free"
       discard_orig_path="false"
       fuse_paths="true"
       oposite_fuse="false"
       split_items="false"
       split_open="false"
       link_styles="false" /><inkscape:path-effect
       effect="mirror_symmetry"
       start_point="17.297909,16.234992"
       end_point="17.313303,7.810326"
       center_point="17.305606,12.022659"
       id="path-effect5-3"
       is_visible="true"
       lpeversion="1.2"
       lpesatellites=""
       mode="free"
       discard_orig_path="false"
       fuse_paths="true"
       oposite_fuse="false"
       split_items="false"
       split_open="false"
       link_styles="false" /><inkscape:path-effect
       effect="mirror_symmetry"
       start_point="17.297909,16.234992"
       end_point="17.313303,7.810326"
       center_point="17.305606,12.022659"
       id="path-effect5-66"
       is_visible="true"
       lpeversion="1.2"
       lpesatellites=""
       mode="free"
       discard_orig_path="false"
       fuse_paths="true"
       oposite_fuse="false"
       split_items="false"
       split_open="false"
       link_styles="false" /><inkscape:path-effect
       effect="mirror_symmetry"
       start_point="17.297909,16.234992"
       end_point="17.313303,7.810326"
       center_point="17.305606,12.022659"
       id="path-effect5-4"
       is_visible="true"
       lpeversion="1.2"
       lpesatellites=""
       mode="free"
       discard_orig_path="false"
       fuse_paths="true"
       oposite_fuse="false"
       split_items="false"
       split_open="false"
       link_styles="false" /><inkscape:path-effect
       effect="mirror_symmetry"
       start_point="17.297909,16.234992"
       end_point="17.313303,7.810326"
       center_point="17.305606,12.022659"
       id="path-effect5-4-7"
       is_visible="true"
       lpeversion="1.2"
       lpesatellites=""
       mode="free"
       discard_orig_path="false"
       fuse_paths="true"
       oposite_fuse="false"
       split_items="false"
       split_open="false"
       link_styles="false" /><inkscape:path-effect
       effect="mirror_symmetry"
       start_point="17.297909,16.234992"
       end_point="17.313303,7.810326"
       center_point="17.305606,12.022659"
       id="path-effect5-41"
       is_visible="true"
       lpeversion="1.2"
       lpesatellites=""
       mode="free"
       discard_orig_path="false"
       fuse_paths="true"
       oposite_fuse="false"
       split_items="false"
       split_open="false"
       link_styles="false" /><linearGradient
       inkscape:collect="always"
       xlink:href="#linearGradient10"
       id="linearGradient1"
       gradientUnits="userSpaceOnUse"
       gradientTransform="matrix(0.8660254,0.5,-0.5412996,0.93755841,16.429746,4.5715426)"
       x1="10.647268"
       y1="16.557198"
       x2="14.696174"
       y2="14.776537" /><linearGradient
       inkscape:collect="always"
       xlink:href="#linearGradient5"
       id="linearGradient4"
       gradientUnits="userSpaceOnUse"
       gradientTransform="matrix(-0.96592582,-0.25881904,0.28019729,-1.0457105,25.849602,39.394691)"
       x1="10.647268"
       y1="16.557198"
       x2="17.939503"
       y2="14.395561" /><marker
       style="overflow:visible"
       id="RoundedArrow"
       refX="0"
       refY="0"
       orient="auto-start-reverse"
       inkscape:stockid="Rounded arrow"
       markerWidth="1"
       markerHeight="1"
       viewBox="0 0 1 1"
       inkscape:isstock="true"
       inkscape:collect="always"
       preserveAspectRatio="xMidYMid"><path
         transform="scale(0.7)"
         d="m -0.21114562,-4.1055728 6.42229122,3.21114561 a 1,1 90 0 1 0,1.78885438 L -0.21114562,4.1055728 A 1.236068,1.236068 31.717474 0 1 -2,3 v -6 a 1.236068,1.236068 148.28253 0 1 1.78885438,-1.1055728 z"
         style="fill:context-stroke;fill-rule:evenodd;stroke:none"
         id="path8" /></marker><marker
       style="overflow:visible"
       id="RoundedArrow-9"
       refX="0"
       refY="0"
       orient="auto-start-reverse"
       inkscape:stockid="Rounded arrow"
       markerWidth="1"
       markerHeight="1"
       viewBox="0 0 1 1"
       inkscape:isstock="true"
       inkscape:collect="always"
       preserveAspectRatio="xMidYMid"><path
         transform="scale(0.7)"
         d="m -0.21114562,-4.1055728 6.42229122,3.21114561 a 1,1 90 0 1 0,1.78885438 L -0.21114562,4.1055728 A 1.236068,1.236068 31.717474 0 1 -2,3 v -6 a 1.236068,1.236068 148.28253 0 1 1.78885438,-1.1055728 z"
         style="fill:context-stroke;fill-rule:evenodd;stroke:none"
         id="path8-4" /></marker><linearGradient
       inkscape:collect="always"
       xlink:href="#linearGradient8"
       id="linearGradient2"
       gradientUnits="userSpaceOnUse"
       gradientTransform="matrix(-0.8660254,-0.5,0.5412996,-0.93755841,18.570254,30.428457)"
       x1="10.647268"
       y1="16.557198"
       x2="14.696174"
       y2="14.776537" /><linearGradient
       inkscape:collect="always"
       xlink:href="#linearGradient6"
       id="linearGradient3"
       gradientUnits="userSpaceOnUse"
       gradientTransform="matrix(0.96592582,0.25881904,-0.28019729,1.0457105,9.150398,-4.394691)"
       x1="10.647268"
       y1="16.557198"
       x2="17.939503"
       y2="14.395561" /></defs><g
     inkscape:label="Layer 1"
     inkscape:groupmode="layer"
     id="layer1"><path
       style="fill:#999999;fill-opacity:1;stroke:none;stroke-width:0.264999;stroke-dasharray:none;stroke-opacity:1"
       d="m 15.859172,31.77455 c 0.252366,0.07176 0.521852,0.05452 0.558246,-0.121368 0.254176,-1.228481 0.847653,-3.476135 0.667741,-4.461622 0.598701,-0.542608 1.357587,0.538605 2.079674,-0.141908 0.62625,-0.590194 0.201359,-2.101259 -0.212624,-2.48344 -0.206868,-0.190981 -1.124846,0.187943 -0.963449,0.418645 0.374503,0.53531 0.331795,0.567888 0.42788,1.134559 -0.503161,0.104128 -1.553174,-1.084286 -2.191407,-0.502925 -0.566973,-0.157303 -0.843244,-1.115783 -1.297904,-1.809644 0.543104,-0.385402 1.967358,-0.810106 2.588002,-0.889529 0.04854,-0.27734 0.395465,-0.990046 0.113946,-0.993444 -0.968472,-0.01169 -3.516099,0.598401 -3.814887,1.483947 -0.259199,0.768206 0.631966,2.365913 0.876339,3.136076 -0.65134,0.761126 -1.271043,3.003663 -1.669512,4.193198 -0.114099,0.34063 0.897354,0.598455 1.023671,0.262159 0.363836,-0.96865 0.916265,-2.594973 1.165353,-2.696517 0.140754,-0.05738 0.233962,-0.05756 0.297076,-0.02959 0.06862,0.0076 0.151098,0.05614 0.243863,0.176556 0.164165,0.213094 -0.175506,1.895243 -0.348468,2.915411 -0.03003,0.177087 0.204087,0.3377 0.456459,0.409435 z"
       id="path4-4-5-2-0"
       sodipodi:nodetypes="ssscssccccsscscscsss" /><path
       id="path1-9-9-4-2"
       style="fill:#66ff66;fill-opacity:1;stroke:#000000;stroke-width:0.265"
       d="m 17.682323,26.617463 c 0.237649,-0.886921 -0.187265,-2.177082 -1.074187,-2.414732 -0.88692,-0.23765 -1.899987,0.667207 -2.137635,1.554127 -0.237649,0.886918 0.288688,1.798561 1.175607,2.036211 0.88692,0.237649 1.798565,-0.288687 2.036215,-1.175606 z"
       sodipodi:nodetypes="zzzzz" /><path
       id="path1-7-1-2-6-0-1"
       style="fill:#ffffff;stroke:#000000;stroke-width:0.265;stroke-dasharray:none"
       d="m 13.986882,31.448413 c 0.05363,-0.200153 -0.029,-0.772123 -0.377723,-0.865561 -0.348722,-0.09344 -0.746597,0.360834 -0.800228,0.560987 -0.05363,0.200154 -0.167748,0.354542 0.512032,0.514574 0.679782,0.160034 0.612288,-0.0098 0.665919,-0.21 z"
       sodipodi:nodetypes="ssszs" /><path
       id="path1-7-1-9-0-2-5-0"
       style="fill:#ffffff;stroke:#000000;stroke-width:0.265;stroke-dasharray:none"
       d="m 16.389072,32.06954 c 0.05363,-0.200153 -0.029,-0.772123 -0.377723,-0.865562 -0.348722,-0.09344 -0.746596,0.360835 -0.800227,0.560988 -0.05363,0.200153 -0.167748,0.354541 0.512032,0.514573 0.679782,0.160034 0.612287,-0.0098 0.665918,-0.209999 z"
       sodipodi:nodetypes="ssszs" /><ellipse
       style="fill:#ffffff;fill-opacity:1;stroke:#000000;stroke-width:0.265;stroke-dasharray:none;stroke-opacity:1"
       id="path1-7-2-9-9-1-6-1-9-5"
       cx="-5.0318689"
       cy="-30.162142"
       rx="0.65429264"
       ry="0.80279088"
       transform="rotate(152.61241)" /><path
       style="fill:#999999;fill-opacity:1;stroke:none;stroke-width:0.264999;stroke-dasharray:none;stroke-opacity:1"
       d="m 24.562748,16.107789 c 0.188331,0.182673 0.308146,0.424678 0.174016,0.544141 -0.936808,0.834361 -2.586595,2.472156 -3.530008,2.80909 -0.170565,0.789793 1.145239,0.906404 0.916943,1.872006 -0.197994,0.837445 -1.719065,1.225011 -2.257036,1.057582 -0.268825,-0.08367 -0.399659,-1.068119 -0.119166,-1.043695 0.650842,0.05667 0.657703,0.0034 1.196496,-0.196724 -0.161402,-0.487815 -1.715606,-0.802945 -1.531248,-1.64635 -0.419716,-0.412364 -1.387918,-0.17238 -2.216151,-0.219197 -0.06222,0.663043 0.282107,2.108834 0.523646,2.686039 -0.215916,0.180701 -0.659672,0.837507 -0.803375,0.595402 -0.494362,-0.832875 -1.239818,-3.344231 -0.622307,-4.045763 0.535686,-0.608575 2.364923,-0.635656 3.154091,-0.809105 0.333484,-0.944639 1.965728,-2.602588 2.79666,-3.542437 0.237946,-0.26913 0.966953,0.477907 0.738871,0.755445 -0.656956,0.799414 -1.789179,2.090994 -1.752574,2.357481 0.02069,0.150585 0.06714,0.231396 0.122915,0.272072 0.04088,0.05561 0.124167,0.102789 0.274833,0.12291 0.266627,0.03562 1.553576,-1.099616 2.350585,-1.759489 0.13835,-0.114548 0.394501,0.0079 0.582812,0.190587 z"
       id="path4-4-5-2-0-5"
       sodipodi:nodetypes="ssscssccccsscscscsss" /><path
       id="path1-9-9-4-2-8"
       style="fill:#6666ff;fill-opacity:1;stroke:#000000;stroke-width:0.265"
       d="m 21.008155,20.265227 c -0.64927,0.649273 -1.97904,0.926367 -2.628311,0.277095 -0.649272,-0.64927 -0.372176,-1.979041 0.277095,-2.62831 0.649268,-0.649269 1.701945,-0.649271 2.351214,0 0.649271,0.64927 0.649273,1.701945 2e-6,2.351215 z"
       sodipodi:nodetypes="zzzzz" /><path
       id="path1-7-1-2-6-0-1-6"
       style="fill:#ffffff;stroke:#000000;stroke-width:0.265;stroke-dasharray:none"
       d="m 23.344161,14.649409 c -0.146522,0.146521 -0.683179,0.360943 -0.93846,0.105662 -0.255282,-0.255283 -0.06081,-0.826988 0.08572,-0.973511 0.146524,-0.146524 0.223168,-0.322545 0.701651,0.186143 0.478484,0.508692 0.297618,0.535179 0.151094,0.681705 z"
       sodipodi:nodetypes="ssszs" /><path
       id="path1-7-1-9-0-2-5-0-2"
       style="fill:#ffffff;stroke:#000000;stroke-width:0.265;stroke-dasharray:none"
       d="m 25.083168,16.419202 c -0.146521,0.146522 -0.68318,0.360945 -0.938461,0.105664 -0.255281,-0.255282 -0.06081,-0.82699 0.08572,-0.973513 0.146522,-0.146522 0.223167,-0.322543 0.70165,0.186144 0.478484,0.508693 0.297617,0.535178 0.151095,0.681702 z"
       sodipodi:nodetypes="ssszs" /><ellipse
       style="fill:#ffffff;fill-opacity:1;stroke:#000000;stroke-width:0.265;stroke-dasharray:none;stroke-opacity:1"
       id="path1-7-2-9-9-1-6-1-9-5-8"
       cx="-22.777399"
       cy="-18.456741"
       rx="0.65429264"
       ry="0.80279088"
       transform="matrix(-0.04557935,-0.99896072,-0.99896072,0.04557935,0,0)" /><ellipse
       style="fill:#ffffff;fill-opacity:1;stroke:#000000;stroke-width:0.265;stroke-dasharray:none;stroke-opacity:1"
       id="path1-7-2-9-9"
       cx="-3.8279159"
       cy="-28.076424"
       rx="0.65429264"
       ry="0.80279088"
       transform="rotate(150)" /><path
       id="path1-3-1-5-8-0-8-0-6-0"
       style="fill:url(#linearGradient1);fill-opacity:1;stroke:none;stroke-width:0.265"
       d="m 20.31597,25.119261 c -2.827765,-0.09516 -2.344841,-0.467078 -3.968173,-0.823122 -0.913731,0.284091 -0.808834,2.483952 -0.597998,3.417316 1.980619,0.07444 3.670747,-0.422169 4.552971,-0.913404 0.882224,-0.491235 3.24896,-1.668313 0.0132,-1.68079 z"
       sodipodi:nodetypes="zcczz" /><path
       id="path1-3-1-5-8-0-8-0-4"
       style="fill:url(#linearGradient4);fill-opacity:1;stroke:none;stroke-width:0.265"
       d="m 12.884493,20.664449 c 2.533434,0.0071 5.363497,-0.102866 6.849501,0.12256 0.809069,-0.510902 0.173745,-2.33468 -0.27148,-3.181671 -2.038123,-0.07281 -5.436919,0.05823 -7.045967,1.145045 -0.352364,0.238 -2.096277,2.291797 0.467946,1.914068 0,0 -2.533434,-0.0071 0,-2e-6 z"
       sodipodi:nodetypes="zcczzz" /><path
       id="path2"
       style="fill:none;stroke:#000000;stroke-width:0.2;stroke-dasharray:none;stroke-opacity:1;marker-end:url(#RoundedArrow)"
       d="m 25.815684,21.701026 c 0.124222,1.330102 -0.418475,4.889444 -3.923791,6.567558"
       sodipodi:nodetypes="cc" /><text
       xml:space="preserve"
       style="font-size:3.175px;text-align:start;writing-mode:lr-tb;direction:ltr;text-anchor:start;fill:#000000;fill-opacity:1;stroke:none;stroke-width:0.2;stroke-dasharray:none;stroke-opacity:1"
       x="24.748079"
       y="20.861242"
       id="text5"><tspan
         sodipodi:role="line"
         id="tspan5"
         style="font-style:normal;font-variant:normal;font-weight:bold;font-stretch:normal;font-family:'Bitstream Vera Sans';-inkscape-font-specification:'Bitstream Vera Sans Bold';fill:#000000;fill-opacity:1;stroke:none;stroke-width:0.2"
         x="24.748079"
         y="20.861242">360</tspan></text><path
       style="fill:#999999;fill-opacity:1;stroke:none;stroke-width:0.264999;stroke-dasharray:none;stroke-opacity:1"
       d="M 19.140828,3.22545 C 18.888462,3.15369 18.618976,3.17093 18.582582,3.346818 18.328406,4.575299 17.734929,6.822953 17.914841,7.80844 17.31614,8.351048 16.557254,7.269835 15.835167,7.950348 c -0.62625,0.590194 -0.201359,2.101259 0.212624,2.48344 0.206868,0.190981 1.124846,-0.187943 0.963449,-0.418645 -0.374503,-0.53531 -0.331795,-0.567888 -0.42788,-1.134559 0.503161,-0.104128 1.553174,1.084286 2.191407,0.502925 0.566973,0.157303 0.843244,1.115783 1.297904,1.809644 -0.543104,0.385402 -1.967358,0.810106 -2.588002,0.889529 -0.04854,0.27734 -0.395465,0.990046 -0.113946,0.993444 0.968472,0.01169 3.516099,-0.598401 3.814887,-1.483947 0.259199,-0.768206 -0.631966,-2.365913 -0.876339,-3.136076 0.65134,-0.761126 1.271043,-3.003663 1.669512,-4.193198 0.114099,-0.34063 -0.897354,-0.598455 -1.023671,-0.262159 -0.363836,0.96865 -0.916265,2.594973 -1.165353,2.696517 -0.140754,0.05738 -0.233962,0.05756 -0.297076,0.02959 -0.06862,-0.0076 -0.151098,-0.05614 -0.243863,-0.176556 -0.164165,-0.213094 0.175506,-1.895243 0.348468,-2.915411 0.03003,-0.177087 -0.204087,-0.3377 -0.456459,-0.409435 z"
       id="path4-4-5-2-0-7"
       sodipodi:nodetypes="ssscssccccsscscscsss" /><path
       id="path1-9-9-4-2-5"
       style="fill:#4d4d4d;fill-opacity:1;stroke:#000000;stroke-width:0.265"
       d="m 17.317677,8.382537 c -0.237649,0.886921 0.187265,2.177082 1.074187,2.414732 0.88692,0.23765 1.899987,-0.667207 2.137635,-1.554127 0.237649,-0.886918 -0.288688,-1.798561 -1.175607,-2.036211 -0.88692,-0.237649 -1.798565,0.288687 -2.036215,1.175606 z"
       sodipodi:nodetypes="zzzzz" /><path
       id="path1-7-1-2-6-0-1-4"
       style="fill:#ffffff;stroke:#000000;stroke-width:0.265;stroke-dasharray:none"
       d="m 21.013118,3.551587 c -0.05363,0.200153 0.029,0.772123 0.377723,0.865561 0.348722,0.09344 0.746597,-0.360834 0.800228,-0.560987 0.05363,-0.200154 0.167748,-0.354542 -0.512032,-0.514574 -0.679782,-0.160034 -0.612288,0.0098 -0.665919,0.21 z"
       sodipodi:nodetypes="ssszs" /><path
       id="path1-7-1-9-0-2-5-0-8"
       style="fill:#ffffff;stroke:#000000;stroke-width:0.265;stroke-dasharray:none"
       d="m 18.610928,2.93046 c -0.05363,0.200153 0.029,0.772123 0.377723,0.865562 0.348722,0.09344 0.746596,-0.360835 0.800227,-0.560988 0.05363,-0.200153 0.167748,-0.354541 -0.512032,-0.514573 -0.679782,-0.160034 -0.612287,0.0098 -0.665918,0.209999 z"
       sodipodi:nodetypes="ssszs" /><ellipse
       style="fill:#ffffff;fill-opacity:1;stroke:#000000;stroke-width:0.265;stroke-dasharray:none;stroke-opacity:1"
       id="path1-7-2-9-9-1-6-1-9-5-1"
       cx="9.9448967"
       cy="17.015146"
       rx="0.65429264"
       ry="0.80279088"
       transform="rotate(-27.38759)" /><path
       style="fill:#999999;fill-opacity:1;stroke:none;stroke-width:0.264999;stroke-dasharray:none;stroke-opacity:1"
       d="m 10.437252,18.892211 c -0.188331,-0.182673 -0.308146,-0.424678 -0.174016,-0.544141 0.936808,-0.834361 2.586595,-2.472156 3.530008,-2.80909 0.170565,-0.789793 -1.145239,-0.906404 -0.916943,-1.872006 0.197994,-0.837445 1.719065,-1.225011 2.257036,-1.057582 0.268825,0.08367 0.399659,1.068119 0.119166,1.043695 -0.650842,-0.05667 -0.657703,-0.0034 -1.196496,0.196724 0.161402,0.487815 1.715606,0.802945 1.531248,1.64635 0.419716,0.412364 1.387918,0.17238 2.216151,0.219197 0.06222,-0.663043 -0.282107,-2.108834 -0.523646,-2.686039 0.215916,-0.180701 0.659672,-0.837507 0.803375,-0.595402 0.494362,0.832875 1.239818,3.344231 0.622307,4.045763 -0.535686,0.608575 -2.364923,0.635656 -3.154091,0.809105 -0.333484,0.944639 -1.965728,2.602588 -2.79666,3.542437 -0.237946,0.26913 -0.966953,-0.477907 -0.738871,-0.755445 0.656956,-0.799414 1.789179,-2.090994 1.752574,-2.357481 -0.02069,-0.150585 -0.06714,-0.231396 -0.122915,-0.272072 -0.04088,-0.05561 -0.124167,-0.102789 -0.274833,-0.12291 -0.266627,-0.03562 -1.553576,1.099616 -2.350585,1.759489 -0.13835,0.114548 -0.394501,-0.0079 -0.582812,-0.190587 z"
       id="path4-4-5-2-0-5-2"
       sodipodi:nodetypes="ssscssccccsscscscsss" /><path
       id="path1-9-9-4-2-8-8"
       style="fill:#ff6666;fill-opacity:1;stroke:#000000;stroke-width:0.265"
       d="m 13.991845,14.734773 c 0.64927,-0.649273 1.97904,-0.926367 2.628311,-0.277095 0.649272,0.64927 0.372176,1.979041 -0.277095,2.62831 -0.649268,0.649269 -1.701945,0.649271 -2.351214,0 -0.649271,-0.64927 -0.649273,-1.701945 -2e-6,-2.351215 z"
       sodipodi:nodetypes="zzzzz" /><path
       id="path1-7-1-2-6-0-1-6-9"
       style="fill:#ffffff;stroke:#000000;stroke-width:0.265;stroke-dasharray:none"
       d="m 11.655839,20.350591 c 0.146522,-0.146521 0.683179,-0.360943 0.93846,-0.105662 0.255282,0.255283 0.06081,0.826988 -0.08572,0.973511 -0.146524,0.146524 -0.223168,0.322545 -0.701651,-0.186143 -0.478484,-0.508692 -0.297618,-0.535179 -0.151094,-0.681705 z"
       sodipodi:nodetypes="ssszs" /><path
       id="path1-7-1-9-0-2-5-0-2-3"
       style="fill:#ffffff;stroke:#000000;stroke-width:0.265;stroke-dasharray:none"
       d="m 9.916832,18.580798 c 0.146521,-0.146522 0.68318,-0.360945 0.938461,-0.105664 0.255281,0.255282 0.06081,0.82699 -0.08572,0.973513 -0.146522,0.146522 -0.223167,0.322543 -0.70165,-0.186144 C 9.589439,18.75381 9.770306,18.727325 9.916828,18.580801 Z"
       sodipodi:nodetypes="ssszs" /><ellipse
       style="fill:#ffffff;fill-opacity:1;stroke:#000000;stroke-width:0.265;stroke-dasharray:none;stroke-opacity:1"
       id="path1-7-2-9-9-1-6-1-9-5-8-6"
       cx="13.781504"
       cy="14.911607"
       rx="0.65429264"
       ry="0.80279088"
       transform="matrix(0.04557935,0.99896072,0.99896072,-0.04557935,0,0)" /><ellipse
       style="fill:#ffffff;fill-opacity:1;stroke:#000000;stroke-width:0.265;stroke-dasharray:none;stroke-opacity:1"
       id="path1-7-2-9-9-8"
       cx="8.9829731"
       cy="19.734465"
       rx="0.65429264"
       ry="0.80279088"
       transform="rotate(-30)" /><path
       id="path1-3-1-5-8-0-8-0-6-0-0"
       style="fill:url(#linearGradient2);fill-opacity:1;stroke:none;stroke-width:0.265"
       d="m 14.68403,9.880739 c 2.827765,0.09516 2.344841,0.467078 3.968173,0.823122 0.913731,-0.284091 0.808834,-2.483952 0.597998,-3.417316 -1.980619,-0.07444 -3.670747,0.422169 -4.552971,0.913404 -0.882224,0.491235 -3.24896,1.668313 -0.0132,1.68079 z"
       sodipodi:nodetypes="zcczz" /><path
       id="path1-3-1-5-8-0-8-0-4-2"
       style="fill:url(#linearGradient3);fill-opacity:1;stroke:none;stroke-width:0.265"
       d="m 22.115507,14.335551 c -2.533434,-0.0071 -5.363497,0.102866 -6.849501,-0.12256 -0.809069,0.510902 -0.173745,2.33468 0.27148,3.181671 2.038123,0.07281 5.436919,-0.05823 7.045967,-1.145045 0.352364,-0.238 2.096277,-2.291797 -0.467946,-1.914068 0,0 2.533434,0.0071 0,2e-6 z"
       sodipodi:nodetypes="zcczzz" /><path
       id="path2-1"
       style="fill:none;stroke:#000000;stroke-width:0.2;stroke-dasharray:none;stroke-opacity:1;marker-end:url(#RoundedArrow-9)"
       d="M 9.184316,13.298974 C 9.060094,11.968872 9.602791,8.40953 13.108107,6.731416"
       sodipodi:nodetypes="cc" /><text
       xml:space="preserve"
       style="font-size:3.175px;text-align:start;writing-mode:lr-tb;direction:ltr;text-anchor:start;fill:#000000;fill-opacity:1;stroke:none;stroke-width:0.2;stroke-dasharray:none;stroke-opacity:1"
       x="3.5639575"
       y="16.450245"
       id="text5-0"><tspan
         sodipodi:role="line"
         id="tspan5-5"
         style="font-style:normal;font-variant:normal;font-weight:bold;font-stretch:normal;font-family:'Bitstream Vera Sans';-inkscape-font-specification:'Bitstream Vera Sans Bold';fill:#000000;fill-opacity:1;stroke:none;stroke-width:0.2"
         x="3.5639575"
         y="16.450245">360</tspan></text></g></svg>
