<?xml version="1.0" encoding="UTF-8" standalone="no"?>
<!-- Created with Inkscape (http://www.inkscape.org/) -->

<svg
   width="35mm"
   height="35mm"
   viewBox="0 0 35 35"
   version="1.1"
   id="svg1"
   xml:space="preserve"
   inkscape:version="1.4 (e7c3feb100, 2024-10-09)"
   sodipodi:docname="13_v2_inter.svg"
   xmlns:inkscape="http://www.inkscape.org/namespaces/inkscape"
   xmlns:sodipodi="http://sodipodi.sourceforge.net/DTD/sodipodi-0.dtd"
   xmlns:xlink="http://www.w3.org/1999/xlink"
   xmlns="http://www.w3.org/2000/svg"
   xmlns:svg="http://www.w3.org/2000/svg"><sodipodi:namedview
     id="namedview1"
     pagecolor="#ffffff"
     bordercolor="#000000"
     borderopacity="0.25"
     inkscape:showpageshadow="2"
     inkscape:pageopacity="0.0"
     inkscape:pagecheckerboard="0"
     inkscape:deskcolor="#d1d1d1"
     inkscape:document-units="mm"
     inkscape:zoom="4.2968333"
     inkscape:cx="72.727978"
     inkscape:cy="71.79706"
     inkscape:window-width="1920"
     inkscape:window-height="1080"
     inkscape:window-x="0"
     inkscape:window-y="0"
     inkscape:window-maximized="0"
     inkscape:current-layer="layer1" /><defs
     id="defs1"><linearGradient
       id="linearGradient8"
       inkscape:collect="always"><stop
         style="stop-color:#ff6666;stop-opacity:0.74901962;"
         offset="0"
         id="stop7" /><stop
         style="stop-color:#ff6666;stop-opacity:0;"
         offset="1"
         id="stop8" /></linearGradient><linearGradient
       id="linearGradient6"
       inkscape:collect="always"><stop
         style="stop-color:#4d4d4d;stop-opacity:0.74901962;"
         offset="0"
         id="stop3" /><stop
         style="stop-color:#4d4d4d;stop-opacity:0;"
         offset="1"
         id="stop6" /></linearGradient><linearGradient
       id="linearGradient10"
       inkscape:collect="always"><stop
         style="stop-color:#6666ff;stop-opacity:0.74901962;"
         offset="0"
         id="stop9" /><stop
         style="stop-color:#6666ff;stop-opacity:0;"
         offset="1"
         id="stop10" /></linearGradient><linearGradient
       id="linearGradient5"
       inkscape:collect="always"><stop
         style="stop-color:#66ff66;stop-opacity:0.74901962;"
         offset="0"
         id="stop4" /><stop
         style="stop-color:#66ff66;stop-opacity:0;"
         offset="1"
         id="stop5" /></linearGradient><inkscape:path-effect
       effect="mirror_symmetry"
       start_point="17.297909,16.234992"
       end_point="17.313303,7.810326"
       center_point="17.305606,12.022659"
       id="path-effect5"
       is_visible="true"
       lpeversion="1.2"
       lpesatellites=""
       mode="free"
       discard_orig_path="false"
       fuse_paths="true"
       oposite_fuse="false"
       split_items="false"
       split_open="false"
       link_styles="false" /><inkscape:path-effect
       effect="mirror_symmetry"
       start_point="17.297909,16.234992"
       end_point="17.313303,7.810326"
       center_point="17.305606,12.022659"
       id="path-effect5-7"
       is_visible="true"
       lpeversion="1.2"
       lpesatellites=""
       mode="free"
       discard_orig_path="false"
       fuse_paths="true"
       oposite_fuse="false"
       split_items="false"
       split_open="false"
       link_styles="false" /><inkscape:path-effect
       effect="mirror_symmetry"
       start_point="17.297909,16.234992"
       end_point="17.313303,7.810326"
       center_point="17.305606,12.022659"
       id="path-effect5-6"
       is_visible="true"
       lpeversion="1.2"
       lpesatellites=""
       mode="free"
       discard_orig_path="false"
       fuse_paths="true"
       oposite_fuse="false"
       split_items="false"
       split_open="false"
       link_styles="false" /><inkscape:path-effect
       effect="mirror_symmetry"
       start_point="17.297909,16.234992"
       end_point="17.313303,7.810326"
       center_point="17.305606,12.022659"
       id="path-effect5-3"
       is_visible="true"
       lpeversion="1.2"
       lpesatellites=""
       mode="free"
       discard_orig_path="false"
       fuse_paths="true"
       oposite_fuse="false"
       split_items="false"
       split_open="false"
       link_styles="false" /><inkscape:path-effect
       effect="mirror_symmetry"
       start_point="17.297909,16.234992"
       end_point="17.313303,7.810326"
       center_point="17.305606,12.022659"
       id="path-effect5-66"
       is_visible="true"
       lpeversion="1.2"
       lpesatellites=""
       mode="free"
       discard_orig_path="false"
       fuse_paths="true"
       oposite_fuse="false"
       split_items="false"
       split_open="false"
       link_styles="false" /><inkscape:path-effect
       effect="mirror_symmetry"
       start_point="17.297909,16.234992"
       end_point="17.313303,7.810326"
       center_point="17.305606,12.022659"
       id="path-effect5-4"
       is_visible="true"
       lpeversion="1.2"
       lpesatellites=""
       mode="free"
       discard_orig_path="false"
       fuse_paths="true"
       oposite_fuse="false"
       split_items="false"
       split_open="false"
       link_styles="false" /><inkscape:path-effect
       effect="mirror_symmetry"
       start_point="17.297909,16.234992"
       end_point="17.313303,7.810326"
       center_point="17.305606,12.022659"
       id="path-effect5-4-7"
       is_visible="true"
       lpeversion="1.2"
       lpesatellites=""
       mode="free"
       discard_orig_path="false"
       fuse_paths="true"
       oposite_fuse="false"
       split_items="false"
       split_open="false"
       link_styles="false" /><inkscape:path-effect
       effect="mirror_symmetry"
       start_point="17.297909,16.234992"
       end_point="17.313303,7.810326"
       center_point="17.305606,12.022659"
       id="path-effect5-41"
       is_visible="true"
       lpeversion="1.2"
       lpesatellites=""
       mode="free"
       discard_orig_path="false"
       fuse_paths="true"
       oposite_fuse="false"
       split_items="false"
       split_open="false"
       link_styles="false" /><linearGradient
       inkscape:collect="always"
       xlink:href="#linearGradient10"
       id="linearGradient1"
       gradientUnits="userSpaceOnUse"
       gradientTransform="matrix(-0.5,-0.8660254,-0.93755841,0.5412996,30.428457,18.570254)"
       x1="10.647268"
       y1="16.557198"
       x2="14.696174"
       y2="14.776537" /><linearGradient
       inkscape:collect="always"
       xlink:href="#linearGradient5"
       id="linearGradient4"
       gradientUnits="userSpaceOnUse"
       gradientTransform="matrix(0.25881904,0.96592582,1.0457105,-0.28019729,-4.3946908,9.150398)"
       x1="10.647268"
       y1="16.557198"
       x2="17.939503"
       y2="14.395561" /><marker
       style="overflow:visible"
       id="RoundedArrow"
       refX="0"
       refY="0"
       orient="auto-start-reverse"
       inkscape:stockid="Rounded arrow"
       markerWidth="1"
       markerHeight="1"
       viewBox="0 0 1 1"
       inkscape:isstock="true"
       inkscape:collect="always"
       preserveAspectRatio="xMidYMid"><path
         transform="scale(0.7)"
         d="m -0.21114562,-4.1055728 6.42229122,3.21114561 a 1,1 90 0 1 0,1.78885438 L -0.21114562,4.1055728 A 1.236068,1.236068 31.717474 0 1 -2,3 v -6 a 1.236068,1.236068 148.28253 0 1 1.78885438,-1.1055728 z"
         style="fill:context-stroke;fill-rule:evenodd;stroke:none"
         id="path8" /></marker><marker
       style="overflow:visible"
       id="RoundedArrow-9"
       refX="0"
       refY="0"
       orient="auto-start-reverse"
       inkscape:stockid="Rounded arrow"
       markerWidth="1"
       markerHeight="1"
       viewBox="0 0 1 1"
       inkscape:isstock="true"
       inkscape:collect="always"
       preserveAspectRatio="xMidYMid"><path
         transform="scale(0.7)"
         d="m -0.21114562,-4.1055728 6.42229122,3.21114561 a 1,1 90 0 1 0,1.78885438 L -0.21114562,4.1055728 A 1.236068,1.236068 31.717474 0 1 -2,3 v -6 a 1.236068,1.236068 148.28253 0 1 1.78885438,-1.1055728 z"
         style="fill:context-stroke;fill-rule:evenodd;stroke:none"
         id="path8-4" /></marker><linearGradient
       inkscape:collect="always"
       xlink:href="#linearGradient8"
       id="linearGradient2"
       gradientUnits="userSpaceOnUse"
       gradientTransform="matrix(0.5,0.8660254,0.93755841,-0.5412996,4.5715432,16.429746)"
       x1="10.647268"
       y1="16.557198"
       x2="14.696174"
       y2="14.776537" /><linearGradient
       inkscape:collect="always"
       xlink:href="#linearGradient6"
       id="linearGradient3"
       gradientUnits="userSpaceOnUse"
       gradientTransform="matrix(-0.25881904,-0.96592582,-1.0457105,0.28019729,39.394691,25.849602)"
       x1="10.647268"
       y1="16.557198"
       x2="17.939503"
       y2="14.395561" /></defs><g
     inkscape:label="Layer 1"
     inkscape:groupmode="layer"
     id="layer1"><path
       style="fill:#999999;fill-opacity:1;stroke:none;stroke-width:0.264999;stroke-dasharray:none;stroke-opacity:1"
       d="m 3.2254502,19.140828 c -0.07176,-0.252366 -0.05452,-0.521852 0.121368,-0.558246 1.228481,-0.254176 3.476135,-0.847653 4.461622,-0.667741 0.542608,-0.598701 -0.538605,-1.357587 0.141908,-2.079674 0.590194,-0.62625 2.1012588,-0.201359 2.4834398,0.212624 0.190981,0.206868 -0.187943,1.124846 -0.418645,0.963449 -0.5353098,-0.374503 -0.5678878,-0.331795 -1.1345588,-0.42788 -0.104128,0.503161 1.084286,1.553174 0.502925,2.191407 0.157303,0.566973 1.1157828,0.843244 1.8096438,1.297904 0.385402,-0.543104 0.810106,-1.967358 0.889529,-2.588002 0.27734,-0.04854 0.990046,-0.395465 0.993444,-0.113946 0.01169,0.968472 -0.598401,3.516099 -1.483947,3.814887 -0.768206,0.259199 -2.3659128,-0.631966 -3.1360758,-0.876339 -0.761126,0.65134 -3.003663,1.271043 -4.193198,1.669512 -0.34063,0.114099 -0.598455,-0.897354 -0.262159,-1.023671 0.96865,-0.363836 2.594973,-0.916265 2.696517,-1.165353 0.05738,-0.140754 0.05756,-0.233962 0.02959,-0.297076 -0.0076,-0.06862 -0.05614,-0.151098 -0.176556,-0.243863 -0.213094,-0.164165 -1.895243,0.175506 -2.915411,0.348468 -0.177087,0.03003 -0.3377,-0.204087 -0.409435,-0.456459 z"
       id="path4-4-5-2-0"
       sodipodi:nodetypes="ssscssccccsscscscsss" /><path
       id="path1-9-9-4-2"
       style="fill:#6666ff;fill-opacity:1;stroke:#000000;stroke-width:0.265"
       d="m 8.3825372,17.317677 c 0.886921,-0.237649 2.1770818,0.187265 2.4147318,1.074187 0.23765,0.88692 -0.667207,1.899987 -1.5541268,2.137635 -0.886918,0.237649 -1.798561,-0.288688 -2.036211,-1.175607 -0.237649,-0.88692 0.288687,-1.798565 1.175606,-2.036215 z"
       sodipodi:nodetypes="zzzzz" /><path
       id="path1-7-1-2-6-0-1"
       style="fill:#ffffff;stroke:#000000;stroke-width:0.265;stroke-dasharray:none"
       d="m 3.5515872,21.013118 c 0.200153,-0.05363 0.772123,0.029 0.865561,0.377723 0.09344,0.348722 -0.360834,0.746597 -0.560987,0.800228 -0.200154,0.05363 -0.354542,0.167748 -0.514574,-0.512032 -0.160034,-0.679782 0.0098,-0.612288 0.21,-0.665919 z"
       sodipodi:nodetypes="ssszs" /><path
       id="path1-7-1-9-0-2-5-0"
       style="fill:#ffffff;stroke:#000000;stroke-width:0.265;stroke-dasharray:none"
       d="m 2.9304602,18.610928 c 0.200153,-0.05363 0.772123,0.029 0.865562,0.377723 0.09344,0.348722 -0.360835,0.746596 -0.560988,0.800227 -0.200153,0.05363 -0.354541,0.167748 -0.514573,-0.512032 -0.160034,-0.679782 0.0098,-0.612287 0.209999,-0.665918 z"
       sodipodi:nodetypes="ssszs" /><ellipse
       style="fill:#ffffff;fill-opacity:1;stroke:#000000;stroke-width:0.265;stroke-dasharray:none;stroke-opacity:1"
       id="path1-7-2-9-9-1-6-1-9-5"
       cx="9.9448948"
       cy="17.015146"
       rx="0.65429264"
       ry="0.80279088"
       transform="matrix(-0.46000748,0.88791504,0.88791504,0.46000748,0,0)" /><path
       style="fill:#999999;fill-opacity:1;stroke:none;stroke-width:0.264999;stroke-dasharray:none;stroke-opacity:1"
       d="m 18.892211,10.437252 c -0.182673,-0.188331 -0.424678,-0.308146 -0.544141,-0.174016 -0.834361,0.936808 -2.472156,2.586595 -2.80909,3.530008 -0.789793,0.170565 -0.906404,-1.145239 -1.872006,-0.916943 -0.837445,0.197994 -1.225011,1.719065 -1.057582,2.257036 0.08367,0.268825 1.068119,0.399659 1.043695,0.119166 -0.05667,-0.650842 -0.0034,-0.657703 0.196724,-1.196496 0.487815,0.161402 0.802945,1.715606 1.64635,1.531248 0.412364,0.419716 0.17238,1.387918 0.219197,2.216151 -0.663043,0.06222 -2.108834,-0.282107 -2.686039,-0.523646 -0.180701,0.215916 -0.837507,0.659672 -0.595402,0.803375 0.832875,0.494362 3.344231,1.239818 4.045763,0.622307 0.608575,-0.535686 0.635656,-2.364923 0.809105,-3.154091 0.944639,-0.333484 2.602588,-1.965728 3.542437,-2.79666 0.26913,-0.237946 -0.477907,-0.966953 -0.755445,-0.738871 -0.799414,0.656956 -2.090994,1.789179 -2.357481,1.752574 -0.150585,-0.02069 -0.231396,-0.06714 -0.272072,-0.122915 -0.05561,-0.04088 -0.102789,-0.124167 -0.12291,-0.274833 -0.03562,-0.266627 1.099616,-1.553576 1.759489,-2.350585 0.114548,-0.13835 -0.0079,-0.394501 -0.190587,-0.582812 z"
       id="path4-4-5-2-0-5"
       sodipodi:nodetypes="ssscssccccsscscscsss" /><path
       id="path1-9-9-4-2-8"
       style="fill:#66ff66;fill-opacity:1;stroke:#000000;stroke-width:0.265"
       d="m 14.734773,13.991845 c -0.649273,0.64927 -0.926367,1.97904 -0.277095,2.628311 0.64927,0.649272 1.979041,0.372176 2.62831,-0.277095 0.649269,-0.649268 0.649271,-1.701945 0,-2.351214 -0.64927,-0.649271 -1.701945,-0.649273 -2.351215,-2e-6 z"
       sodipodi:nodetypes="zzzzz" /><path
       id="path1-7-1-2-6-0-1-6"
       style="fill:#ffffff;stroke:#000000;stroke-width:0.265;stroke-dasharray:none"
       d="m 20.350591,11.655839 c -0.146521,0.146522 -0.360943,0.683179 -0.105662,0.93846 0.255283,0.255282 0.826988,0.06081 0.973511,-0.08572 0.146524,-0.146524 0.322545,-0.223168 -0.186143,-0.701651 -0.508692,-0.478484 -0.535179,-0.297618 -0.681705,-0.151094 z"
       sodipodi:nodetypes="ssszs" /><path
       id="path1-7-1-9-0-2-5-0-2"
       style="fill:#ffffff;stroke:#000000;stroke-width:0.265;stroke-dasharray:none"
       d="m 18.580798,9.916832 c -0.146522,0.146521 -0.360945,0.68318 -0.105664,0.938461 0.255282,0.255281 0.82699,0.06081 0.973513,-0.08572 0.146522,-0.146522 0.322543,-0.223167 -0.186144,-0.70165 C 18.75381,9.589439 18.727325,9.770306 18.580801,9.916828 Z"
       sodipodi:nodetypes="ssszs" /><ellipse
       style="fill:#ffffff;fill-opacity:1;stroke:#000000;stroke-width:0.265;stroke-dasharray:none;stroke-opacity:1"
       id="path1-7-2-9-9-1-6-1-9-5-8"
       cx="13.781504"
       cy="14.911606"
       rx="0.65429264"
       ry="0.80279088"
       transform="rotate(2.61241)" /><ellipse
       style="fill:#ffffff;fill-opacity:1;stroke:#000000;stroke-width:0.265;stroke-dasharray:none;stroke-opacity:1"
       id="path1-7-2-9-9"
       cx="8.9829741"
       cy="19.734467"
       rx="0.65429264"
       ry="0.80279088"
       transform="matrix(-0.5,0.8660254,0.8660254,0.5,0,0)" /><path
       id="path1-3-1-5-8-0-8-0-6-0"
       style="fill:url(#linearGradient1);fill-opacity:1;stroke:none;stroke-width:0.265"
       d="m 9.8807392,14.68403 c 0.09516,2.827765 0.4670778,2.344841 0.8231218,3.968173 -0.284091,0.913731 -2.4839518,0.808834 -3.4173158,0.597998 -0.07444,-1.980619 0.422169,-3.670747 0.913404,-4.552971 0.491235,-0.882224 1.668313,-3.24896 1.68079,-0.0132 z"
       sodipodi:nodetypes="zcczz" /><path
       id="path1-3-1-5-8-0-8-0-4"
       style="fill:url(#linearGradient4);fill-opacity:1;stroke:none;stroke-width:0.265"
       d="m 14.335551,22.115507 c -0.0071,-2.533434 0.102866,-5.363497 -0.12256,-6.849501 0.510902,-0.809069 2.33468,-0.173745 3.181671,0.27148 0.07281,2.038123 -0.05823,5.436919 -1.145045,7.045967 -0.238,0.352364 -2.291797,2.096277 -1.914068,-0.467946 0,0 0.0071,2.533434 2e-6,0 z"
       sodipodi:nodetypes="zcczzz" /><path
       id="path2"
       style="fill:none;stroke:#000000;stroke-width:0.2;stroke-dasharray:none;stroke-opacity:1;marker-end:url(#RoundedArrow)"
       d="M 13.298974,9.184316 C 11.968872,9.060094 8.4095302,9.602791 6.7314162,13.108107"
       sodipodi:nodetypes="cc" /><text
       xml:space="preserve"
       style="font-size:3.175px;text-align:start;writing-mode:lr-tb;direction:ltr;text-anchor:start;fill:#000000;fill-opacity:1;stroke:none;stroke-width:0.2;stroke-dasharray:none;stroke-opacity:1"
       x="10.627604"
       y="8.5928516"
       id="text5"><tspan
         sodipodi:role="line"
         id="tspan5"
         style="font-style:normal;font-variant:normal;font-weight:bold;font-stretch:normal;font-family:'Bitstream Vera Sans';-inkscape-font-specification:'Bitstream Vera Sans Bold';fill:#000000;fill-opacity:1;stroke:none;stroke-width:0.2"
         x="10.627604"
         y="8.5928516">360</tspan></text><path
       style="fill:#999999;fill-opacity:1;stroke:none;stroke-width:0.264999;stroke-dasharray:none;stroke-opacity:1"
       d="m 31.77455,15.859172 c 0.07176,0.252366 0.05452,0.521852 -0.121368,0.558246 -1.228481,0.254176 -3.476135,0.847653 -4.461622,0.667741 -0.542608,0.598701 0.538605,1.357587 -0.141908,2.079674 -0.590194,0.62625 -2.101259,0.201359 -2.48344,-0.212624 -0.190981,-0.206868 0.187943,-1.124846 0.418645,-0.963449 0.53531,0.374503 0.567888,0.331795 1.134559,0.42788 0.104128,-0.503161 -1.084286,-1.553174 -0.502925,-2.191407 -0.157303,-0.566973 -1.115783,-0.843244 -1.809644,-1.297904 -0.385402,0.543104 -0.810106,1.967358 -0.889529,2.588002 -0.27734,0.04854 -0.990046,0.395465 -0.993444,0.113946 -0.01169,-0.968472 0.598401,-3.516099 1.483947,-3.814887 0.768206,-0.259199 2.365913,0.631966 3.136076,0.876339 0.761126,-0.65134 3.003663,-1.271043 4.193198,-1.669512 0.34063,-0.114099 0.598455,0.897354 0.262159,1.023671 -0.96865,0.363836 -2.594973,0.916265 -2.696517,1.165353 -0.05738,0.140754 -0.05756,0.233962 -0.02959,0.297076 0.0076,0.06862 0.05614,0.151098 0.176556,0.243863 0.213094,0.164165 1.895243,-0.175506 2.915411,-0.348468 0.177087,-0.03003 0.3377,0.204087 0.409435,0.456459 z"
       id="path4-4-5-2-0-7"
       sodipodi:nodetypes="ssscssccccsscscscsss" /><path
       id="path1-9-9-4-2-5"
       style="fill:#ff6666;fill-opacity:1;stroke:#000000;stroke-width:0.265"
       d="m 26.617463,17.682323 c -0.886921,0.237649 -2.177082,-0.187265 -2.414732,-1.074187 -0.23765,-0.88692 0.667207,-1.899987 1.554127,-2.137635 0.886918,-0.237649 1.798561,0.288688 2.036211,1.175607 0.237649,0.88692 -0.288687,1.798565 -1.175606,2.036215 z"
       sodipodi:nodetypes="zzzzz" /><path
       id="path1-7-1-2-6-0-1-4"
       style="fill:#ffffff;stroke:#000000;stroke-width:0.265;stroke-dasharray:none"
       d="m 31.448413,13.986882 c -0.200153,0.05363 -0.772123,-0.029 -0.865561,-0.377723 -0.09344,-0.348722 0.360834,-0.746597 0.560987,-0.800228 0.200154,-0.05363 0.354542,-0.167748 0.514574,0.512032 0.160034,0.679782 -0.0098,0.612288 -0.21,0.665919 z"
       sodipodi:nodetypes="ssszs" /><path
       id="path1-7-1-9-0-2-5-0-8"
       style="fill:#ffffff;stroke:#000000;stroke-width:0.265;stroke-dasharray:none"
       d="m 32.06954,16.389072 c -0.200153,0.05363 -0.772123,-0.029 -0.865562,-0.377723 -0.09344,-0.348722 0.360835,-0.746596 0.560988,-0.800227 0.200153,-0.05363 0.354541,-0.167748 0.514573,0.512032 0.160034,0.679782 -0.0098,0.612287 -0.209999,0.665918 z"
       sodipodi:nodetypes="ssszs" /><ellipse
       style="fill:#ffffff;fill-opacity:1;stroke:#000000;stroke-width:0.265;stroke-dasharray:none;stroke-opacity:1"
       id="path1-7-2-9-9-1-6-1-9-5-1"
       cx="-5.031868"
       cy="-30.162142"
       rx="0.65429264"
       ry="0.80279088"
       transform="matrix(0.46000748,-0.88791504,-0.88791504,-0.46000748,0,0)" /><path
       style="fill:#999999;fill-opacity:1;stroke:none;stroke-width:0.264999;stroke-dasharray:none;stroke-opacity:1"
       d="m 16.107789,24.562748 c 0.182673,0.188331 0.424678,0.308146 0.544141,0.174016 0.834361,-0.936808 2.472156,-2.586595 2.80909,-3.530008 0.789793,-0.170565 0.906404,1.145239 1.872006,0.916943 0.837445,-0.197994 1.225011,-1.719065 1.057582,-2.257036 -0.08367,-0.268825 -1.068119,-0.399659 -1.043695,-0.119166 0.05667,0.650842 0.0034,0.657703 -0.196724,1.196496 -0.487815,-0.161402 -0.802945,-1.715606 -1.64635,-1.531248 -0.412364,-0.419716 -0.17238,-1.387918 -0.219197,-2.216151 0.663043,-0.06222 2.108834,0.282107 2.686039,0.523646 0.180701,-0.215916 0.837507,-0.659672 0.595402,-0.803375 -0.832875,-0.494362 -3.344231,-1.239818 -4.045763,-0.622307 -0.608575,0.535686 -0.635656,2.364923 -0.809105,3.154091 -0.944639,0.333484 -2.602588,1.965728 -3.542437,2.79666 -0.26913,0.237946 0.477907,0.966953 0.755445,0.738871 0.799414,-0.656956 2.090994,-1.789179 2.357481,-1.752574 0.150585,0.02069 0.231396,0.06714 0.272072,0.122915 0.05561,0.04088 0.102789,0.124167 0.12291,0.274833 0.03562,0.266627 -1.099616,1.553576 -1.759489,2.350585 -0.114548,0.13835 0.0079,0.394501 0.190587,0.582812 z"
       id="path4-4-5-2-0-5-2"
       sodipodi:nodetypes="ssscssccccsscscscsss" /><path
       id="path1-9-9-4-2-8-8"
       style="fill:#4d4d4d;fill-opacity:1;stroke:#000000;stroke-width:0.265"
       d="m 20.265227,21.008155 c 0.649273,-0.64927 0.926367,-1.97904 0.277095,-2.628311 -0.64927,-0.649272 -1.979041,-0.372176 -2.62831,0.277095 -0.649269,0.649268 -0.649271,1.701945 0,2.351214 0.64927,0.649271 1.701945,0.649273 2.351215,2e-6 z"
       sodipodi:nodetypes="zzzzz" /><path
       id="path1-7-1-2-6-0-1-6-9"
       style="fill:#ffffff;stroke:#000000;stroke-width:0.265;stroke-dasharray:none"
       d="m 14.649409,23.344161 c 0.146521,-0.146522 0.360943,-0.683179 0.105662,-0.93846 -0.255283,-0.255282 -0.826988,-0.06081 -0.973511,0.08572 -0.146524,0.146524 -0.322545,0.223168 0.186143,0.701651 0.508692,0.478484 0.535179,0.297618 0.681705,0.151094 z"
       sodipodi:nodetypes="ssszs" /><path
       id="path1-7-1-9-0-2-5-0-2-3"
       style="fill:#ffffff;stroke:#000000;stroke-width:0.265;stroke-dasharray:none"
       d="m 16.419202,25.083168 c 0.146522,-0.146521 0.360945,-0.68318 0.105664,-0.938461 -0.255282,-0.255281 -0.82699,-0.06081 -0.973513,0.08572 -0.146522,0.146522 -0.322543,0.223167 0.186144,0.70165 0.508693,0.478484 0.535178,0.297617 0.681702,0.151095 z"
       sodipodi:nodetypes="ssszs" /><ellipse
       style="fill:#ffffff;fill-opacity:1;stroke:#000000;stroke-width:0.265;stroke-dasharray:none;stroke-opacity:1"
       id="path1-7-2-9-9-1-6-1-9-5-8-6"
       cx="-22.777399"
       cy="-18.456741"
       rx="0.65429264"
       ry="0.80279088"
       transform="rotate(-177.38759)" /><ellipse
       style="fill:#ffffff;fill-opacity:1;stroke:#000000;stroke-width:0.265;stroke-dasharray:none;stroke-opacity:1"
       id="path1-7-2-9-9-8"
       cx="-3.8279161"
       cy="-28.076424"
       rx="0.65429264"
       ry="0.80279088"
       transform="matrix(0.5,-0.8660254,-0.8660254,-0.5,0,0)" /><path
       id="path1-3-1-5-8-0-8-0-6-0-0"
       style="fill:url(#linearGradient2);fill-opacity:1;stroke:none;stroke-width:0.265"
       d="m 25.119261,20.31597 c -0.09516,-2.827765 -0.467078,-2.344841 -0.823122,-3.968173 0.284091,-0.913731 2.483952,-0.808834 3.417316,-0.597998 0.07444,1.980619 -0.422169,3.670747 -0.913404,4.552971 -0.491235,0.882224 -1.668313,3.24896 -1.68079,0.0132 z"
       sodipodi:nodetypes="zcczz" /><path
       id="path1-3-1-5-8-0-8-0-4-2"
       style="fill:url(#linearGradient3);fill-opacity:1;stroke:none;stroke-width:0.265"
       d="m 20.664449,12.884493 c 0.0071,2.533434 -0.102866,5.363497 0.12256,6.849501 -0.510902,0.809069 -2.33468,0.173745 -3.181671,-0.27148 -0.07281,-2.038123 0.05823,-5.436919 1.145045,-7.045967 0.238,-0.352364 2.291797,-2.096277 1.914068,0.467946 0,0 -0.0071,-2.533434 -2e-6,0 z"
       sodipodi:nodetypes="zcczzz" /><path
       id="path2-1"
       style="fill:none;stroke:#000000;stroke-width:0.2;stroke-dasharray:none;stroke-opacity:1;marker-end:url(#RoundedArrow-9)"
       d="m 21.701026,25.815684 c 1.330102,0.124222 4.889444,-0.418475 6.567558,-3.923791"
       sodipodi:nodetypes="cc" /><text
       xml:space="preserve"
       style="font-size:3.175px;text-align:start;writing-mode:lr-tb;direction:ltr;text-anchor:start;fill:#000000;fill-opacity:1;stroke:none;stroke-width:0.2;stroke-dasharray:none;stroke-opacity:1"
       x="17.684435"
       y="28.718637"
       id="text5-0"><tspan
         sodipodi:role="line"
         id="tspan5-5"
         style="font-style:normal;font-variant:normal;font-weight:bold;font-stretch:normal;font-family:'Bitstream Vera Sans';-inkscape-font-specification:'Bitstream Vera Sans Bold';fill:#000000;fill-opacity:1;stroke:none;stroke-width:0.2"
         x="17.684435"
         y="28.718637">360</tspan></text></g></svg>
