<?xml version="1.0" encoding="UTF-8" standalone="no"?>
<!-- Created with Inkscape (http://www.inkscape.org/) -->

<svg
   width="35mm"
   height="35mm"
   viewBox="0 0 35 35"
   version="1.1"
   id="svg1"
   xml:space="preserve"
   inkscape:version="1.4.2 (ebf0e940d0, 2025-05-08)"
   sodipodi:docname="14_v2_inter.svg"
   xmlns:inkscape="http://www.inkscape.org/namespaces/inkscape"
   xmlns:sodipodi="http://sodipodi.sourceforge.net/DTD/sodipodi-0.dtd"
   xmlns:xlink="http://www.w3.org/1999/xlink"
   xmlns="http://www.w3.org/2000/svg"
   xmlns:svg="http://www.w3.org/2000/svg"><sodipodi:namedview
     id="namedview1"
     pagecolor="#ffffff"
     bordercolor="#000000"
     borderopacity="0.25"
     inkscape:showpageshadow="2"
     inkscape:pageopacity="0.0"
     inkscape:pagecheckerboard="0"
     inkscape:deskcolor="#d1d1d1"
     inkscape:document-units="mm"
     inkscape:zoom="4.2968333"
     inkscape:cx="22.691129"
     inkscape:cy="68.655212"
     inkscape:window-width="1916"
     inkscape:window-height="1021"
     inkscape:window-x="0"
     inkscape:window-y="0"
     inkscape:window-maximized="0"
     inkscape:current-layer="layer1"
     showgrid="false"><sodipodi:guide
       position="25.431035,17.543103"
       orientation="0,132.28346"
       id="guide5"
       inkscape:locked="false" /><sodipodi:guide
       position="35.000001,35.000001"
       orientation="132.28346,0"
       id="guide6"
       inkscape:locked="false" /><sodipodi:guide
       position="35.000001,0"
       orientation="0,-132.28346"
       id="guide7"
       inkscape:locked="false" /><sodipodi:guide
       position="17.503506,35.914363"
       orientation="-132.28346,0"
       id="guide8"
       inkscape:locked="false" /></sodipodi:namedview><defs
     id="defs1"><linearGradient
       id="linearGradient12"
       inkscape:collect="always"><stop
         style="stop-color:#4d4d4d;stop-opacity:0.74901962;"
         offset="0"
         id="stop11" /><stop
         style="stop-color:#4d4d4d;stop-opacity:0;"
         offset="1"
         id="stop12" /></linearGradient><linearGradient
       id="linearGradient10"
       inkscape:collect="always"><stop
         style="stop-color:#ff6666;stop-opacity:0.74901962;"
         offset="0"
         id="stop9" /><stop
         style="stop-color:#ff6666;stop-opacity:0;"
         offset="1"
         id="stop10" /></linearGradient><inkscape:path-effect
       effect="mirror_symmetry"
       start_point="17.297909,16.234992"
       end_point="17.313303,7.810326"
       center_point="17.305606,12.022659"
       id="path-effect5"
       is_visible="true"
       lpeversion="1.2"
       lpesatellites=""
       mode="free"
       discard_orig_path="false"
       fuse_paths="true"
       oposite_fuse="false"
       split_items="false"
       split_open="false"
       link_styles="false" /><inkscape:path-effect
       effect="mirror_symmetry"
       start_point="17.297909,16.234992"
       end_point="17.313303,7.810326"
       center_point="17.305606,12.022659"
       id="path-effect5-7"
       is_visible="true"
       lpeversion="1.2"
       lpesatellites=""
       mode="free"
       discard_orig_path="false"
       fuse_paths="true"
       oposite_fuse="false"
       split_items="false"
       split_open="false"
       link_styles="false" /><inkscape:path-effect
       effect="mirror_symmetry"
       start_point="17.297909,16.234992"
       end_point="17.313303,7.810326"
       center_point="17.305606,12.022659"
       id="path-effect5-6"
       is_visible="true"
       lpeversion="1.2"
       lpesatellites=""
       mode="free"
       discard_orig_path="false"
       fuse_paths="true"
       oposite_fuse="false"
       split_items="false"
       split_open="false"
       link_styles="false" /><inkscape:path-effect
       effect="mirror_symmetry"
       start_point="17.297909,16.234992"
       end_point="17.313303,7.810326"
       center_point="17.305606,12.022659"
       id="path-effect5-3"
       is_visible="true"
       lpeversion="1.2"
       lpesatellites=""
       mode="free"
       discard_orig_path="false"
       fuse_paths="true"
       oposite_fuse="false"
       split_items="false"
       split_open="false"
       link_styles="false" /><inkscape:path-effect
       effect="mirror_symmetry"
       start_point="17.297909,16.234992"
       end_point="17.313303,7.810326"
       center_point="17.305606,12.022659"
       id="path-effect5-66"
       is_visible="true"
       lpeversion="1.2"
       lpesatellites=""
       mode="free"
       discard_orig_path="false"
       fuse_paths="true"
       oposite_fuse="false"
       split_items="false"
       split_open="false"
       link_styles="false" /><inkscape:path-effect
       effect="mirror_symmetry"
       start_point="17.297909,16.234992"
       end_point="17.313303,7.810326"
       center_point="17.305606,12.022659"
       id="path-effect5-4"
       is_visible="true"
       lpeversion="1.2"
       lpesatellites=""
       mode="free"
       discard_orig_path="false"
       fuse_paths="true"
       oposite_fuse="false"
       split_items="false"
       split_open="false"
       link_styles="false" /><inkscape:path-effect
       effect="mirror_symmetry"
       start_point="17.297909,16.234992"
       end_point="17.313303,7.810326"
       center_point="17.305606,12.022659"
       id="path-effect5-4-7"
       is_visible="true"
       lpeversion="1.2"
       lpesatellites=""
       mode="free"
       discard_orig_path="false"
       fuse_paths="true"
       oposite_fuse="false"
       split_items="false"
       split_open="false"
       link_styles="false" /><inkscape:path-effect
       effect="mirror_symmetry"
       start_point="17.297909,16.234992"
       end_point="17.313303,7.810326"
       center_point="17.305606,12.022659"
       id="path-effect5-41"
       is_visible="true"
       lpeversion="1.2"
       lpesatellites=""
       mode="free"
       discard_orig_path="false"
       fuse_paths="true"
       oposite_fuse="false"
       split_items="false"
       split_open="false"
       link_styles="false" /><inkscape:path-effect
       effect="mirror_symmetry"
       start_point="17.297909,16.234992"
       end_point="17.313303,7.810326"
       center_point="17.305606,12.022659"
       id="path-effect5-4-0"
       is_visible="true"
       lpeversion="1.2"
       lpesatellites=""
       mode="free"
       discard_orig_path="false"
       fuse_paths="true"
       oposite_fuse="false"
       split_items="false"
       split_open="false"
       link_styles="false" /><inkscape:path-effect
       effect="mirror_symmetry"
       start_point="17.493844,16.300304"
       end_point="17.509238,7.875638"
       center_point="17.501541,12.087971"
       id="path-effect5-4-0-9"
       is_visible="true"
       lpeversion="1.2"
       lpesatellites=""
       mode="free"
       discard_orig_path="false"
       fuse_paths="true"
       oposite_fuse="false"
       split_items="false"
       split_open="false"
       link_styles="false" /><inkscape:path-effect
       effect="mirror_symmetry"
       start_point="17.297909,16.234992"
       end_point="17.313303,7.810326"
       center_point="17.305606,12.022659"
       id="path-effect5-4-0-0"
       is_visible="true"
       lpeversion="1.2"
       lpesatellites=""
       mode="free"
       discard_orig_path="false"
       fuse_paths="true"
       oposite_fuse="false"
       split_items="false"
       split_open="false"
       link_styles="false" /><inkscape:path-effect
       effect="mirror_symmetry"
       start_point="17.493844,16.300304"
       end_point="17.509238,7.875638"
       center_point="17.501541,12.087971"
       id="path-effect5-4-0-9-7"
       is_visible="true"
       lpeversion="1.2"
       lpesatellites=""
       mode="free"
       discard_orig_path="false"
       fuse_paths="true"
       oposite_fuse="false"
       split_items="false"
       split_open="false"
       link_styles="false" /><inkscape:path-effect
       effect="mirror_symmetry"
       start_point="17.493844,16.300304"
       end_point="17.509238,7.875638"
       center_point="17.501541,12.087971"
       id="path-effect5-4-0-9-3"
       is_visible="true"
       lpeversion="1.2"
       lpesatellites=""
       mode="free"
       discard_orig_path="false"
       fuse_paths="true"
       oposite_fuse="false"
       split_items="false"
       split_open="false"
       link_styles="false" /><inkscape:path-effect
       effect="mirror_symmetry"
       start_point="17.493844,16.300304"
       end_point="17.509238,7.875638"
       center_point="17.501541,12.087971"
       id="path-effect5-4-0-9-5"
       is_visible="true"
       lpeversion="1.2"
       lpesatellites=""
       mode="free"
       discard_orig_path="false"
       fuse_paths="true"
       oposite_fuse="false"
       split_items="false"
       split_open="false"
       link_styles="false" /><inkscape:path-effect
       effect="mirror_symmetry"
       start_point="17.297909,16.234992"
       end_point="17.313303,7.810326"
       center_point="17.305606,12.022659"
       id="path-effect5-4-6-1"
       is_visible="true"
       lpeversion="1.2"
       lpesatellites=""
       mode="free"
       discard_orig_path="false"
       fuse_paths="true"
       oposite_fuse="false"
       split_items="false"
       split_open="false"
       link_styles="false" /><inkscape:path-effect
       effect="mirror_symmetry"
       start_point="17.493844,16.300304"
       end_point="17.509238,7.875638"
       center_point="17.501541,12.087971"
       id="path-effect5-4-0-9-5-9"
       is_visible="true"
       lpeversion="1.2"
       lpesatellites=""
       mode="free"
       discard_orig_path="false"
       fuse_paths="true"
       oposite_fuse="false"
       split_items="false"
       split_open="false"
       link_styles="false" /><inkscape:path-effect
       effect="mirror_symmetry"
       start_point="17.297909,16.234992"
       end_point="17.313303,7.810326"
       center_point="17.305606,12.022659"
       id="path-effect5-61"
       is_visible="true"
       lpeversion="1.2"
       lpesatellites=""
       mode="free"
       discard_orig_path="false"
       fuse_paths="true"
       oposite_fuse="false"
       split_items="false"
       split_open="false"
       link_styles="false" /><inkscape:path-effect
       effect="mirror_symmetry"
       start_point="17.297909,16.234992"
       end_point="17.313303,7.810326"
       center_point="17.305606,12.022659"
       id="path-effect5-4-3"
       is_visible="true"
       lpeversion="1.2"
       lpesatellites=""
       mode="free"
       discard_orig_path="false"
       fuse_paths="true"
       oposite_fuse="false"
       split_items="false"
       split_open="false"
       link_styles="false" /><inkscape:path-effect
       effect="mirror_symmetry"
       start_point="17.297909,16.234992"
       end_point="17.313303,7.810326"
       center_point="17.305606,12.022659"
       id="path-effect5-4-3-6"
       is_visible="true"
       lpeversion="1.2"
       lpesatellites=""
       mode="free"
       discard_orig_path="false"
       fuse_paths="true"
       oposite_fuse="false"
       split_items="false"
       split_open="false"
       link_styles="false" /><inkscape:path-effect
       effect="mirror_symmetry"
       start_point="17.297909,16.234992"
       end_point="17.313303,7.810326"
       center_point="17.305606,12.022659"
       id="path-effect5-61-8"
       is_visible="true"
       lpeversion="1.2"
       lpesatellites=""
       mode="free"
       discard_orig_path="false"
       fuse_paths="true"
       oposite_fuse="false"
       split_items="false"
       split_open="false"
       link_styles="false" /><inkscape:path-effect
       effect="mirror_symmetry"
       start_point="17.297909,16.234992"
       end_point="17.313303,7.810326"
       center_point="17.305606,12.022659"
       id="path-effect5-61-3"
       is_visible="true"
       lpeversion="1.2"
       lpesatellites=""
       mode="free"
       discard_orig_path="false"
       fuse_paths="true"
       oposite_fuse="false"
       split_items="false"
       split_open="false"
       link_styles="false" /><inkscape:path-effect
       effect="mirror_symmetry"
       start_point="17.297909,16.234992"
       end_point="17.313303,7.810326"
       center_point="17.305606,12.022659"
       id="path-effect5-4-9-1"
       is_visible="true"
       lpeversion="1.2"
       lpesatellites=""
       mode="free"
       discard_orig_path="false"
       fuse_paths="true"
       oposite_fuse="false"
       split_items="false"
       split_open="false"
       link_styles="false" /><linearGradient
       inkscape:collect="always"
       xlink:href="#linearGradient8"
       id="linearGradient2"
       gradientUnits="userSpaceOnUse"
       gradientTransform="matrix(1,0,0,-1.0825992,-1.5174719,34.057014)"
       x1="10.888926"
       y1="17.412872"
       x2="11.903366"
       y2="11.978036" /><linearGradient
       id="linearGradient8"
       inkscape:collect="always"><stop
         style="stop-color:#6666ff;stop-opacity:0.74901962;"
         offset="0"
         id="stop7" /><stop
         style="stop-color:#6666ff;stop-opacity:0;"
         offset="1"
         id="stop8" /></linearGradient><marker
       style="overflow:visible"
       id="RoundedArrow-6-9"
       refX="0"
       refY="0"
       orient="auto-start-reverse"
       inkscape:stockid="Rounded arrow"
       markerWidth="1"
       markerHeight="1"
       viewBox="0 0 1 1"
       inkscape:isstock="true"
       inkscape:collect="always"
       preserveAspectRatio="xMidYMid"><path
         transform="scale(0.7)"
         d="m -0.21114562,-4.1055728 6.42229122,3.21114561 a 1,1 90 0 1 0,1.78885438 L -0.21114562,4.1055728 A 1.236068,1.236068 31.717474 0 1 -2,3 v -6 a 1.236068,1.236068 148.28253 0 1 1.78885438,-1.1055728 z"
         style="fill:context-stroke;fill-rule:evenodd;stroke:none"
         id="path8-9-9" /></marker><inkscape:path-effect
       effect="mirror_symmetry"
       start_point="17.297909,16.234992"
       end_point="17.313303,7.810326"
       center_point="17.305606,12.022659"
       id="path-effect5-4-9-64"
       is_visible="true"
       lpeversion="1.2"
       lpesatellites=""
       mode="free"
       discard_orig_path="false"
       fuse_paths="true"
       oposite_fuse="false"
       split_items="false"
       split_open="false"
       link_styles="false" /><linearGradient
       inkscape:collect="always"
       xlink:href="#linearGradient6"
       id="linearGradient3"
       gradientUnits="userSpaceOnUse"
       gradientTransform="matrix(0,-1,-1.0825992,0,33.991697,36.517472)"
       x1="10.888926"
       y1="17.412872"
       x2="11.903366"
       y2="11.978036" /><linearGradient
       id="linearGradient6"
       inkscape:collect="always"><stop
         style="stop-color:#66ff66;stop-opacity:0.74901962;"
         offset="0"
         id="stop3" /><stop
         style="stop-color:#66ff66;stop-opacity:0;"
         offset="1"
         id="stop6" /></linearGradient><marker
       style="overflow:visible"
       id="RoundedArrow-6-3"
       refX="0"
       refY="0"
       orient="auto-start-reverse"
       inkscape:stockid="Rounded arrow"
       markerWidth="1"
       markerHeight="1"
       viewBox="0 0 1 1"
       inkscape:isstock="true"
       inkscape:collect="always"
       preserveAspectRatio="xMidYMid"><path
         transform="scale(0.7)"
         d="m -0.21114562,-4.1055728 6.42229122,3.21114561 a 1,1 90 0 1 0,1.78885438 L -0.21114562,4.1055728 A 1.236068,1.236068 31.717474 0 1 -2,3 v -6 a 1.236068,1.236068 148.28253 0 1 1.78885438,-1.1055728 z"
         style="fill:context-stroke;fill-rule:evenodd;stroke:none"
         id="path8-9-80" /></marker><linearGradient
       inkscape:collect="always"
       xlink:href="#linearGradient10"
       id="linearGradient4"
       gradientUnits="userSpaceOnUse"
       gradientTransform="matrix(0.96592582,0.25881905,0.28019729,-1.0457105,9.0985591,25.830929)"
       x1="10.647268"
       y1="16.557198"
       x2="12.444862"
       y2="11.077363" /><linearGradient
       inkscape:collect="always"
       xlink:href="#linearGradient12"
       id="linearGradient11"
       gradientUnits="userSpaceOnUse"
       gradientTransform="matrix(-0.96592582,-0.25881905,-0.28019729,1.0457105,34.241037,0.57982991)"
       x1="10.647268"
       y1="16.557198"
       x2="12.444862"
       y2="11.077363" /><marker
       style="overflow:visible"
       id="RoundedArrow-6-9-9"
       refX="0"
       refY="0"
       orient="auto-start-reverse"
       inkscape:stockid="Rounded arrow"
       markerWidth="1"
       markerHeight="1"
       viewBox="0 0 1 1"
       inkscape:isstock="true"
       inkscape:collect="always"
       preserveAspectRatio="xMidYMid"><path
         transform="scale(0.7)"
         d="m -0.21114562,-4.1055728 6.42229122,3.21114561 a 1,1 90 0 1 0,1.78885438 L -0.21114562,4.1055728 A 1.236068,1.236068 31.717474 0 1 -2,3 v -6 a 1.236068,1.236068 148.28253 0 1 1.78885438,-1.1055728 z"
         style="fill:context-stroke;fill-rule:evenodd;stroke:none"
         id="path8-9-9-6" /></marker></defs><g
     inkscape:label="Layer 1"
     inkscape:groupmode="layer"
     id="layer1"><text
       xml:space="preserve"
       style="font-size:3.175px;text-align:start;writing-mode:lr-tb;direction:ltr;text-anchor:start;fill:#000000;fill-opacity:1;stroke:none;stroke-width:0.2;stroke-dasharray:none;stroke-opacity:1"
       x="0.78345072"
       y="10.567054"
       id="text5-8-9"><tspan
         sodipodi:role="line"
         id="tspan5-2-6"
         style="font-style:normal;font-variant:normal;font-weight:bold;font-stretch:normal;font-family:'Bitstream Vera Sans';-inkscape-font-specification:'Bitstream Vera Sans Bold';fill:#000000;fill-opacity:1;stroke:none;stroke-width:0.2"
         x="0.78345072"
         y="10.567054">360</tspan></text><text
       xml:space="preserve"
       style="font-size:3.175px;text-align:start;writing-mode:lr-tb;direction:ltr;text-anchor:start;fill:#000000;fill-opacity:1;stroke:none;stroke-width:0.2;stroke-dasharray:none;stroke-opacity:1"
       x="26.577883"
       y="23.960592"
       id="text5-8-9-7"><tspan
         sodipodi:role="line"
         id="tspan5-2-6-6"
         style="font-style:normal;font-variant:normal;font-weight:bold;font-stretch:normal;font-family:'Bitstream Vera Sans';-inkscape-font-specification:'Bitstream Vera Sans Bold';fill:#000000;fill-opacity:1;stroke:none;stroke-width:0.2"
         x="26.577883"
         y="23.960592">360</tspan></text><text
       xml:space="preserve"
       style="font-size:3.175px;text-align:start;writing-mode:lr-tb;direction:ltr;text-anchor:start;fill:#000000;fill-opacity:1;stroke:none;stroke-width:0.2;stroke-dasharray:none;stroke-opacity:1"
       x="6.0008101"
       y="31.862961"
       id="text5-8-2"><tspan
         sodipodi:role="line"
         id="tspan5-2-8"
         style="font-style:normal;font-variant:normal;font-weight:bold;font-stretch:normal;font-family:'Bitstream Vera Sans';-inkscape-font-specification:'Bitstream Vera Sans Bold';fill:#000000;fill-opacity:1;stroke:none;stroke-width:0.2"
         x="6.0008101"
         y="31.862961">360</tspan></text><path
       style="fill:#999999;fill-opacity:1;stroke:none;stroke-width:0.264999;stroke-dasharray:none;stroke-opacity:1"
       d="m 16.0625,7.5585937 c -0.262338,-0.00397 -0.518182,0.082402 -0.507812,0.2617188 0.07244,1.2524069 0.219591,3.9930925 0.648437,4.8984375 -0.607199,0.176352 -1.617318,-0.230935 -2.138672,0.613281 -0.452157,0.732168 -0.03637,1.866595 0.201172,3.042969 0.05573,0.275974 0.796346,0.47567 0.822266,0.195312 0.109284,-1.182109 -0.0293,-2.300781 -0.0293,-2.300781 0.939531,-0.154019 1.74768,-0.436693 2.24414,-0.638672 0.495719,0.203792 1.303226,0.489033 2.242188,0.646485 0,0 -0.142073,1.11828 -0.03711,2.300781 0.0249,0.280451 0.76553,0.08241 0.822266,-0.193359 0.241842,-1.175498 0.662369,-2.305247 0.212891,-3.039063 -0.518266,-0.846116 -1.530169,-0.444477 -2.136719,-0.623047 0.432152,-0.903771 0.589,-3.6443503 0.666016,-4.8964841 0.02205,-0.3585544 -1.02167,-0.3458071 -1.056641,0.011719 -0.100734,1.0298107 -0.213416,2.7436984 -0.427734,2.9062504 -0.121107,0.09185 -0.211094,0.116149 -0.279297,0.105468 -0.06824,0.01043 -0.16048,-0.01512 -0.28125,-0.107421 C 16.813621,10.578854 16.706345,8.8661094 16.609375,7.8359375 16.592543,7.6571119 16.324838,7.5625647 16.0625,7.5585937 Z"
       id="path4-1-6"
       sodipodi:nodetypes="ssscssscccs"
       transform="matrix(-0.70710678,-0.70710678,-0.70710678,0.70710678,45.873072,13.555573)"
       inkscape:original-d="m 15.087222,16.570462 c -0.02592,0.280358 -0.765893,0.08004 -0.821621,-0.195934 -0.237544,-1.176374 -0.653562,-2.309422 -0.201405,-3.04159 0.521354,-0.844216 1.531751,-0.437333 2.13895,-0.613685 -0.428846,-0.905345 -0.576305,-3.6466491 -0.648744,-4.899056 -0.02074,-0.3586326 1.022152,-0.3422582 1.055816,0.015393 0.09697,1.0301719 0.203913,2.743905 0.417636,2.907239 0.427544,0.326742 0.480507,-0.179347 0.480507,-0.179347 l 0.318037,2.834014 c 0,0 -1.201503,0.615766 -2.767965,0.872559 0,0 0.138074,1.118297 0.02879,2.300407 z"
       inkscape:path-effect="#path-effect5-61-8" /><path
       style="fill:#999999;fill-opacity:1;stroke:none;stroke-width:0.264999;stroke-dasharray:none;stroke-opacity:1"
       d="m 16.0625,7.5585937 c -0.262338,-0.00397 -0.518182,0.082402 -0.507812,0.2617188 0.07244,1.2524069 0.219591,3.9930925 0.648437,4.8984375 -0.607199,0.176352 -1.617318,-0.230935 -2.138672,0.613281 -0.452157,0.732168 -0.03637,1.866595 0.201172,3.042969 0.05573,0.275974 0.796346,0.47567 0.822266,0.195312 0.109284,-1.182109 -0.0293,-2.300781 -0.0293,-2.300781 0.939531,-0.154019 1.74768,-0.436693 2.24414,-0.638672 0.495719,0.203792 1.303226,0.489033 2.242188,0.646485 0,0 -0.142073,1.11828 -0.03711,2.300781 0.0249,0.280451 0.76553,0.08241 0.822266,-0.193359 0.241842,-1.175498 0.662369,-2.305247 0.212891,-3.039063 -0.518266,-0.846116 -1.530169,-0.444477 -2.136719,-0.623047 0.432152,-0.903771 0.589,-3.6443503 0.666016,-4.8964841 0.02205,-0.3585544 -1.02167,-0.3458071 -1.056641,0.011719 -0.100734,1.0298107 -0.213416,2.7436984 -0.427734,2.9062504 -0.121107,0.09185 -0.211094,0.116149 -0.279297,0.105468 -0.06824,0.01043 -0.16048,-0.01512 -0.28125,-0.107421 C 16.813621,10.578854 16.706345,8.8661094 16.609375,7.8359375 16.592543,7.6571119 16.324838,7.5625647 16.0625,7.5585937 Z"
       id="path4-1"
       sodipodi:nodetypes="ssscssscccs"
       transform="rotate(-135,18.758243,14.14225)"
       inkscape:original-d="m 15.087222,16.570462 c -0.02592,0.280358 -0.765893,0.08004 -0.821621,-0.195934 -0.237544,-1.176374 -0.653562,-2.309422 -0.201405,-3.04159 0.521354,-0.844216 1.531751,-0.437333 2.13895,-0.613685 -0.428846,-0.905345 -0.576305,-3.6466491 -0.648744,-4.899056 -0.02074,-0.3586326 1.022152,-0.3422582 1.055816,0.015393 0.09697,1.0301719 0.203913,2.743905 0.417636,2.907239 0.427544,0.326742 0.480507,-0.179347 0.480507,-0.179347 l 0.318037,2.834014 c 0,0 -1.201503,0.615766 -2.767965,0.872559 0,0 0.138074,1.118297 0.02879,2.300407 z"
       inkscape:path-effect="#path-effect5-61-3" /><path
       id="path1-5"
       style="fill:#4d4d4d;fill-opacity:1;stroke:#000000;stroke-width:0.265"
       d="m 17.817444,14.758159 c 0.649274,-0.649272 1.97904,-0.926365 2.628313,-0.277093 0.64927,0.649271 0.372175,1.97904 -0.277096,2.62831 -0.64927,0.64927 -1.701945,0.649271 -2.351215,0 -0.649273,-0.649269 -0.649273,-1.701946 -2e-6,-2.351217 z"
       sodipodi:nodetypes="zzzzz" /><path
       id="path1-7-1-99"
       style="fill:#ffffff;stroke:#000000;stroke-width:0.265;stroke-dasharray:none"
       d="m 15.47153,20.406027 c 0.146523,-0.146523 0.68318,-0.360942 0.93846,-0.105662 0.255281,0.255282 0.06081,0.826988 -0.08572,0.973512 -0.146523,0.146523 -0.223167,0.322543 -0.701648,-0.186143 -0.478486,-0.508693 -0.29762,-0.535179 -0.151096,-0.681702 z"
       sodipodi:nodetypes="ssszs" /><path
       id="path1-7-1-9-1"
       style="fill:#ffffff;stroke:#000000;stroke-width:0.265;stroke-dasharray:none"
       d="m 13.732522,18.636233 c 0.146523,-0.146523 0.68318,-0.360944 0.938462,-0.105662 0.255281,0.255281 0.06081,0.826988 -0.08572,0.973511 -0.146522,0.146521 -0.223167,0.322544 -0.701648,-0.186143 -0.478485,-0.508693 -0.29762,-0.53518 -0.151096,-0.681702 z"
       sodipodi:nodetypes="ssszs" /><ellipse
       style="fill:#ffffff;fill-opacity:1;stroke:#000000;stroke-width:0.265;stroke-dasharray:none;stroke-opacity:1"
       id="path1-7-2-9-9-1-9-8"
       cx="-27.282444"
       cy="5.9586725"
       rx="0.65429264"
       ry="0.80279088"
       transform="rotate(-135)" /><ellipse
       style="fill:#ffffff;fill-opacity:1;stroke:#000000;stroke-width:0.265;stroke-dasharray:none;stroke-opacity:1"
       id="path1-7-2-9-9-5-0"
       cx="-22.178253"
       cy="5.9586725"
       rx="0.65429264"
       ry="0.80279088"
       transform="rotate(-135)" /><path
       id="path1-7-1-99-1"
       style="fill:#ffffff;stroke:#000000;stroke-width:0.265;stroke-dasharray:none"
       d="m 28.872693,7.0048639 c -0.146524,0.146522 -0.360944,0.683177 -0.105663,0.93846 0.255281,0.255281 0.826991,0.06081 0.973512,-0.08572 0.146522,-0.146521 0.322543,-0.223165 -0.186142,-0.701648 -0.508694,-0.478485 -0.535179,-0.29762 -0.681703,-0.151096 z"
       sodipodi:nodetypes="ssszs" /><path
       id="path1-7-1-9-1-5"
       style="fill:#ffffff;stroke:#000000;stroke-width:0.265;stroke-dasharray:none"
       d="m 27.102898,5.2658569 c -0.146521,0.146521 -0.360942,0.683179 -0.105661,0.938461 0.255281,0.255281 0.826988,0.06081 0.97351,-0.08572 0.146524,-0.146521 0.322544,-0.223168 -0.186143,-0.701649 -0.508693,-0.478486 -0.53518,-0.297619 -0.681702,-0.151097 z"
       sodipodi:nodetypes="ssszs" /><path
       id="path1-5-1"
       style="fill:#ff6666;fill-opacity:1;stroke:#000000;stroke-width:0.265"
       d="m 23.224824,9.3507769 c -0.649268,0.6492741 -0.926362,1.9790411 -0.277093,2.6283111 0.649272,0.649273 1.979042,0.37218 2.62831,-0.277092 0.649272,-0.649271 0.649271,-1.701946 1e-6,-2.3512181 -0.64927,-0.649272 -1.701948,-0.649272 -2.351218,-1e-6 z"
       sodipodi:nodetypes="zzzzz" /><path
       style="fill:#999999;fill-opacity:1;stroke:none;stroke-width:0.264999;stroke-dasharray:none;stroke-opacity:1"
       d="m 16.0625,7.5585937 c -0.262338,-0.00397 -0.518182,0.082402 -0.507812,0.2617188 0.07244,1.2524069 0.08092,3.5770765 0.509765,4.4824215 -0.619107,-0.0056 -1.745052,-0.18892 -2.05664,0.253907 -0.258596,0.367514 0.03999,1.846533 0.660156,2.78125 0.155655,0.234603 0.898838,-0.168222 0.861328,-0.447266 -0.09347,-0.695437 -0.159096,-0.867894 -0.402344,-1.509766 0.953116,0.03675 1.708696,0.03609 2.175781,0.0293 0.467058,0.0085 1.224491,0.01178 2.177735,-0.02148 -0.245592,0.640979 -0.314145,0.812722 -0.410157,1.507812 -0.03853,0.278905 0.704817,0.685205 0.861329,0.451172 0.623579,-0.932444 0.927173,-2.41084 0.669921,-2.779297 -0.309967,-0.443962 -1.437517,-0.263124 -2.05664,-0.259765 0.432152,-0.903772 0.450328,-3.2302883 0.527344,-4.4824221 0.02205,-0.3585544 -1.02167,-0.3458071 -1.056641,0.011719 -0.100734,1.0298107 -0.213416,2.7436984 -0.427734,2.9062504 -0.121107,0.09185 -0.211094,0.116149 -0.279297,0.105468 -0.06824,0.01043 -0.16048,-0.01512 -0.28125,-0.107421 C 16.813621,10.578854 16.706345,8.8661094 16.609375,7.8359375 16.592543,7.6571119 16.324839,7.5625647 16.0625,7.5585937 Z"
       id="path4-6-1"
       sodipodi:nodetypes="ssscssscccs"
       transform="rotate(180,13.343005,14.662861)"
       inkscape:original-d="m 15.53026,14.890015 c 0.03751,0.279044 -0.706242,0.683088 -0.861897,0.448485 -0.620168,-0.934717 -0.918433,-2.414328 -0.659837,-2.781842 0.311588,-0.442827 1.436966,-0.258666 2.056073,-0.253045 -0.428846,-0.905345 -0.437758,-3.2310091 -0.510197,-4.483416 -0.02074,-0.3586326 1.022152,-0.3422582 1.055816,0.015393 0.09697,1.0301719 0.203913,2.743905 0.417636,2.907239 0.427544,0.326742 0.480507,-0.179347 0.480507,-0.179347 l 0.318037,2.834014 c 0,0 -1.059289,0.04685 -2.700397,-0.01643 0.243248,0.641872 0.310788,0.813517 0.404259,1.508954 z"
       inkscape:path-effect="#path-effect5-4-9-1" /><path
       id="path1-9-9-0"
       style="fill:#6666ff;fill-opacity:1;stroke:#000000;stroke-width:0.265"
       d="m 7.7008041,16.177622 c 0,-0.918208 0.744354,-2.054432 1.662562,-2.054432 0.9182079,0 1.6625609,1.136225 1.6625609,2.054432 0,0.918206 -0.744354,1.66256 -1.6625609,1.66256 -0.918207,0 -1.662562,-0.744353 -1.662562,-1.66256 z"
       sodipodi:nodetypes="zzzzz" /><path
       id="path1-7-1-2-6-3"
       style="fill:#ffffff;stroke:#000000;stroke-width:0.265;stroke-dasharray:none"
       d="m 10.019983,21.800413 c 0,-0.207214 0.227855,-0.738307 0.588877,-0.738307 0.361023,0 0.627766,0.541773 0.627766,0.748987 0,0.207215 0.07027,0.385877 -0.627766,0.364517 -0.6980399,-0.02136 -0.588877,-0.167981 -0.588877,-0.375197 z"
       sodipodi:nodetypes="ssszs" /><path
       id="path1-7-1-9-0-2-4"
       style="fill:#ffffff;stroke:#000000;stroke-width:0.265;stroke-dasharray:none"
       d="m 7.5388861,21.778643 c 0,-0.207214 0.227855,-0.738307 0.588877,-0.738307 0.361023,0 0.627766,0.541773 0.627766,0.748987 0,0.207214 0.07027,0.385876 -0.627766,0.364516 -0.69804,-0.02136 -0.588877,-0.167981 -0.588877,-0.375196 z"
       sodipodi:nodetypes="ssszs" /><ellipse
       style="fill:#ffffff;fill-opacity:1;stroke:#000000;stroke-width:0.265;stroke-dasharray:none;stroke-opacity:1"
       id="path1-7-2-9-9-1-6-1-0"
       cx="10.073628"
       cy="-11.943738"
       rx="0.65429264"
       ry="0.80279088"
       transform="matrix(0.97671876,0.21452379,0.21452379,-0.97671876,0,0)" /><ellipse
       style="fill:#ffffff;fill-opacity:1;stroke:#000000;stroke-width:0.265;stroke-dasharray:none;stroke-opacity:1"
       id="path1-7-2-9-9-1-6-1-2-3"
       cx="6.7652683"
       cy="-16.654381"
       rx="0.65429264"
       ry="0.80279088"
       transform="matrix(0.95312516,-0.30257633,-0.30257633,-0.95312516,0,0)" /><path
       id="path1-3-1-5-8-0-9"
       style="fill:url(#linearGradient2);fill-opacity:1;stroke:none;stroke-width:0.265"
       d="m 11.768328,20.14043 c -0.75229,0.945311 -1.7982759,0.274069 -1.244641,-0.438968 0.553635,-0.713036 0.428368,-2.01597 -1.0452069,-2.041865 -0.64927,-0.702897 -0.88297,-2.669567 -0.233698,-3.372466 2.4577219,0.12635 5.4674299,2.154079 2.5235459,5.853299 z"
       sodipodi:nodetypes="szccs" /><path
       id="path2-2-1"
       style="fill:none;stroke:#000000;stroke-width:0.2;stroke-dasharray:none;stroke-opacity:1;marker-end:url(#RoundedArrow-6-9)"
       d="m 5.1139571,13.306149 c -0.77263,1.089791 -2.082312,4.44362 0.114324,7.649568"
       sodipodi:nodetypes="cc" /><path
       id="path2-2-1-2"
       style="fill:none;stroke:#000000;stroke-width:0.2;stroke-dasharray:none;stroke-opacity:1;marker-end:url(#RoundedArrow-6-9-9)"
       d="m 24.453057,21.595416 c 1.31693,-0.224267 4.614531,-1.669697 5.328222,-5.489901"
       sodipodi:nodetypes="cc" /><path
       style="fill:#999999;fill-opacity:1;stroke:none;stroke-width:0.264999;stroke-dasharray:none;stroke-opacity:1"
       d="m 16.0625,7.5585937 c -0.262338,-0.00397 -0.518182,0.082402 -0.507812,0.2617188 0.07244,1.2524069 0.08092,3.5770765 0.509765,4.4824215 -0.619107,-0.0056 -1.745052,-0.18892 -2.05664,0.253907 -0.258596,0.367514 0.03999,1.846533 0.660156,2.78125 0.155655,0.234603 0.898838,-0.168222 0.861328,-0.447266 -0.09347,-0.695437 -0.159096,-0.867894 -0.402344,-1.509766 0.953116,0.03675 1.708696,0.03609 2.175781,0.0293 0.467058,0.0085 1.224491,0.01178 2.177735,-0.02148 -0.245592,0.640979 -0.314145,0.812722 -0.410157,1.507812 -0.03853,0.278905 0.704817,0.685205 0.861329,0.451172 0.623579,-0.932444 0.927173,-2.41084 0.669921,-2.779297 -0.309967,-0.443962 -1.437517,-0.263124 -2.05664,-0.259765 0.432152,-0.903772 0.450328,-3.2302883 0.527344,-4.4824221 0.02205,-0.3585544 -1.02167,-0.3458071 -1.056641,0.011719 -0.100734,1.0298107 -0.213416,2.7436984 -0.427734,2.9062504 -0.121107,0.09185 -0.211094,0.116149 -0.279297,0.105468 -0.06824,0.01043 -0.16048,-0.01512 -0.28125,-0.107421 C 16.813621,10.578854 16.706345,8.8661094 16.609375,7.8359375 16.592543,7.6571119 16.324839,7.5625647 16.0625,7.5585937 Z"
       id="path4-6-4"
       sodipodi:nodetypes="ssscssscccs"
       transform="rotate(90,10.505864,18.819854)"
       inkscape:original-d="m 15.53026,14.890015 c 0.03751,0.279044 -0.706242,0.683088 -0.861897,0.448485 -0.620168,-0.934717 -0.918433,-2.414328 -0.659837,-2.781842 0.311588,-0.442827 1.436966,-0.258666 2.056073,-0.253045 -0.428846,-0.905345 -0.437758,-3.2310091 -0.510197,-4.483416 -0.02074,-0.3586326 1.022152,-0.3422582 1.055816,0.015393 0.09697,1.0301719 0.203913,2.743905 0.417636,2.907239 0.427544,0.326742 0.480507,-0.179347 0.480507,-0.179347 l 0.318037,2.834014 c 0,0 -1.059289,0.04685 -2.700397,-0.01643 0.243248,0.641872 0.310788,0.813517 0.404259,1.508954 z"
       inkscape:path-effect="#path-effect5-4-9-64" /><path
       id="path1-9-9-6"
       style="fill:#66ff66;fill-opacity:1;stroke:#000000;stroke-width:0.265"
       d="m 16.177618,27.299196 c -0.918208,0 -2.054432,-0.744354 -2.054432,-1.662562 0,-0.918208 1.136225,-1.662561 2.054432,-1.662561 0.918206,0 1.66256,0.744354 1.66256,1.662561 0,0.918207 -0.744353,1.662562 -1.66256,1.662562 z"
       sodipodi:nodetypes="zzzzz" /><path
       id="path1-7-1-2-6-2"
       style="fill:#ffffff;stroke:#000000;stroke-width:0.265;stroke-dasharray:none"
       d="m 21.800409,24.980017 c -0.207214,0 -0.738307,-0.227855 -0.738307,-0.588877 0,-0.361023 0.541773,-0.627766 0.748987,-0.627766 0.207215,0 0.385877,-0.07027 0.364517,0.627766 -0.02136,0.69804 -0.167981,0.588877 -0.375197,0.588877 z"
       sodipodi:nodetypes="ssszs" /><path
       id="path1-7-1-9-0-2-67"
       style="fill:#ffffff;stroke:#000000;stroke-width:0.265;stroke-dasharray:none"
       d="m 21.778639,27.461114 c -0.207214,0 -0.738307,-0.227855 -0.738307,-0.588877 0,-0.361023 0.541773,-0.627766 0.748987,-0.627766 0.207214,0 0.385876,-0.07027 0.364516,0.627766 -0.02136,0.69804 -0.167981,0.588877 -0.375196,0.588877 z"
       sodipodi:nodetypes="ssszs" /><ellipse
       style="fill:#ffffff;fill-opacity:1;stroke:#000000;stroke-width:0.265;stroke-dasharray:none;stroke-opacity:1"
       id="path1-7-2-9-9-1-6-1-5"
       cx="-24.11153"
       cy="-19.452066"
       rx="0.65429264"
       ry="0.80279088"
       transform="matrix(0.21452379,-0.97671876,-0.97671876,-0.21452379,0,0)" /><ellipse
       style="fill:#ffffff;fill-opacity:1;stroke:#000000;stroke-width:0.265;stroke-dasharray:none;stroke-opacity:1"
       id="path1-7-2-9-9-1-6-1-2-6"
       cx="-26.59411"
       cy="-6.0642052"
       rx="0.65429264"
       ry="0.80279088"
       transform="matrix(-0.30257633,-0.95312516,-0.95312516,0.30257633,0,0)" /><path
       id="path1-3-1-5-8-0-98"
       style="fill:url(#linearGradient3);fill-opacity:1;stroke:none;stroke-width:0.265"
       d="m 20.075113,23.231672 c 0.945311,0.75229 0.274069,1.798276 -0.438968,1.244641 -0.713036,-0.553635 -2.01597,-0.428368 -2.041865,1.045207 -0.702897,0.64927 -2.669567,0.88297 -3.372466,0.233698 0.12635,-2.457722 2.154079,-5.46743 5.853299,-2.523546 z"
       sodipodi:nodetypes="szccs" /><path
       id="path2-2-7"
       style="fill:none;stroke:#000000;stroke-width:0.2;stroke-dasharray:none;stroke-opacity:1;marker-end:url(#RoundedArrow-6-3)"
       d="m 13.306145,29.886043 c 1.089791,0.77263 4.44362,2.082312 7.649568,-0.114324"
       sodipodi:nodetypes="cc" /><path
       id="path1-3-1-5-8-0-8-0-6-3-5"
       style="fill:url(#linearGradient4);fill-opacity:1;stroke:none;stroke-width:0.265"
       d="m 25.384978,16.260455 c 0.324358,-1.992273 -0.976174,-3.790837 -2.252652,-4.286699 -0.445221,-0.846987 1.503407,-2.0337311 2.312479,-2.5446371 1.514719,1.2863011 2.285535,2.9689721 2.042982,5.9105991 -0.242552,2.941627 -2.427166,2.91301 -2.102809,0.920737 z"
       sodipodi:nodetypes="zcczz" /><path
       id="path1-3-1-5-8-0-8-0-6-3-5-8"
       style="fill:url(#linearGradient11);fill-opacity:1;stroke:none;stroke-width:0.265"
       d="m 17.954617,10.150304 c -0.324357,1.992273 0.976175,3.790837 2.252653,4.286699 0.445221,0.846987 -1.503407,2.033731 -2.312479,2.544637 -1.514719,-1.286301 -2.285535,-2.968972 -2.042982,-5.910599 0.242552,-2.9416271 2.427166,-2.9130101 2.102808,-0.920737 z"
       sodipodi:nodetypes="zcczz" /></g></svg>
