<?xml version="1.0" encoding="UTF-8" standalone="no"?>
<!-- Created with Inkscape (http://www.inkscape.org/) -->

<svg
   width="35mm"
   height="35mm"
   viewBox="0 0 35 35"
   version="1.1"
   id="svg1"
   xml:space="preserve"
   inkscape:version="1.4.2 (ebf0e940d0, 2025-05-08)"
   sodipodi:docname="14_v1_inter.svg"
   xmlns:inkscape="http://www.inkscape.org/namespaces/inkscape"
   xmlns:sodipodi="http://sodipodi.sourceforge.net/DTD/sodipodi-0.dtd"
   xmlns:xlink="http://www.w3.org/1999/xlink"
   xmlns="http://www.w3.org/2000/svg"
   xmlns:svg="http://www.w3.org/2000/svg"><sodipodi:namedview
     id="namedview1"
     pagecolor="#ffffff"
     bordercolor="#000000"
     borderopacity="0.25"
     inkscape:showpageshadow="2"
     inkscape:pageopacity="0.0"
     inkscape:pagecheckerboard="0"
     inkscape:deskcolor="#d1d1d1"
     inkscape:document-units="mm"
     inkscape:zoom="6.0766399"
     inkscape:cx="50.027647"
     inkscape:cy="55.951974"
     inkscape:window-width="1916"
     inkscape:window-height="1021"
     inkscape:window-x="0"
     inkscape:window-y="0"
     inkscape:window-maximized="0"
     inkscape:current-layer="layer1"
     showgrid="false"><sodipodi:guide
       position="25.431035,17.543103"
       orientation="0,132.28346"
       id="guide5"
       inkscape:locked="false" /><sodipodi:guide
       position="35.000001,35.000001"
       orientation="132.28346,0"
       id="guide6"
       inkscape:locked="false" /><sodipodi:guide
       position="35.000001,0"
       orientation="0,-132.28346"
       id="guide7"
       inkscape:locked="false" /><sodipodi:guide
       position="17.503506,35.914363"
       orientation="-132.28346,0"
       id="guide8"
       inkscape:locked="false" /></sodipodi:namedview><defs
     id="defs1"><linearGradient
       id="linearGradient12"
       inkscape:collect="always"><stop
         style="stop-color:#66ff66;stop-opacity:0.74901962;"
         offset="0"
         id="stop11" /><stop
         style="stop-color:#66ff66;stop-opacity:0;"
         offset="1"
         id="stop12" /></linearGradient><linearGradient
       id="linearGradient10"
       inkscape:collect="always"><stop
         style="stop-color:#6666ff;stop-opacity:0.74901962;"
         offset="0"
         id="stop9" /><stop
         style="stop-color:#6666ff;stop-opacity:0;"
         offset="1"
         id="stop10" /></linearGradient><inkscape:path-effect
       effect="mirror_symmetry"
       start_point="17.297909,16.234992"
       end_point="17.313303,7.810326"
       center_point="17.305606,12.022659"
       id="path-effect5"
       is_visible="true"
       lpeversion="1.2"
       lpesatellites=""
       mode="free"
       discard_orig_path="false"
       fuse_paths="true"
       oposite_fuse="false"
       split_items="false"
       split_open="false"
       link_styles="false" /><inkscape:path-effect
       effect="mirror_symmetry"
       start_point="17.297909,16.234992"
       end_point="17.313303,7.810326"
       center_point="17.305606,12.022659"
       id="path-effect5-7"
       is_visible="true"
       lpeversion="1.2"
       lpesatellites=""
       mode="free"
       discard_orig_path="false"
       fuse_paths="true"
       oposite_fuse="false"
       split_items="false"
       split_open="false"
       link_styles="false" /><inkscape:path-effect
       effect="mirror_symmetry"
       start_point="17.297909,16.234992"
       end_point="17.313303,7.810326"
       center_point="17.305606,12.022659"
       id="path-effect5-6"
       is_visible="true"
       lpeversion="1.2"
       lpesatellites=""
       mode="free"
       discard_orig_path="false"
       fuse_paths="true"
       oposite_fuse="false"
       split_items="false"
       split_open="false"
       link_styles="false" /><inkscape:path-effect
       effect="mirror_symmetry"
       start_point="17.297909,16.234992"
       end_point="17.313303,7.810326"
       center_point="17.305606,12.022659"
       id="path-effect5-3"
       is_visible="true"
       lpeversion="1.2"
       lpesatellites=""
       mode="free"
       discard_orig_path="false"
       fuse_paths="true"
       oposite_fuse="false"
       split_items="false"
       split_open="false"
       link_styles="false" /><inkscape:path-effect
       effect="mirror_symmetry"
       start_point="17.297909,16.234992"
       end_point="17.313303,7.810326"
       center_point="17.305606,12.022659"
       id="path-effect5-66"
       is_visible="true"
       lpeversion="1.2"
       lpesatellites=""
       mode="free"
       discard_orig_path="false"
       fuse_paths="true"
       oposite_fuse="false"
       split_items="false"
       split_open="false"
       link_styles="false" /><inkscape:path-effect
       effect="mirror_symmetry"
       start_point="17.297909,16.234992"
       end_point="17.313303,7.810326"
       center_point="17.305606,12.022659"
       id="path-effect5-4"
       is_visible="true"
       lpeversion="1.2"
       lpesatellites=""
       mode="free"
       discard_orig_path="false"
       fuse_paths="true"
       oposite_fuse="false"
       split_items="false"
       split_open="false"
       link_styles="false" /><inkscape:path-effect
       effect="mirror_symmetry"
       start_point="17.297909,16.234992"
       end_point="17.313303,7.810326"
       center_point="17.305606,12.022659"
       id="path-effect5-4-7"
       is_visible="true"
       lpeversion="1.2"
       lpesatellites=""
       mode="free"
       discard_orig_path="false"
       fuse_paths="true"
       oposite_fuse="false"
       split_items="false"
       split_open="false"
       link_styles="false" /><inkscape:path-effect
       effect="mirror_symmetry"
       start_point="17.297909,16.234992"
       end_point="17.313303,7.810326"
       center_point="17.305606,12.022659"
       id="path-effect5-41"
       is_visible="true"
       lpeversion="1.2"
       lpesatellites=""
       mode="free"
       discard_orig_path="false"
       fuse_paths="true"
       oposite_fuse="false"
       split_items="false"
       split_open="false"
       link_styles="false" /><inkscape:path-effect
       effect="mirror_symmetry"
       start_point="17.297909,16.234992"
       end_point="17.313303,7.810326"
       center_point="17.305606,12.022659"
       id="path-effect5-4-0"
       is_visible="true"
       lpeversion="1.2"
       lpesatellites=""
       mode="free"
       discard_orig_path="false"
       fuse_paths="true"
       oposite_fuse="false"
       split_items="false"
       split_open="false"
       link_styles="false" /><inkscape:path-effect
       effect="mirror_symmetry"
       start_point="17.493844,16.300304"
       end_point="17.509238,7.875638"
       center_point="17.501541,12.087971"
       id="path-effect5-4-0-9"
       is_visible="true"
       lpeversion="1.2"
       lpesatellites=""
       mode="free"
       discard_orig_path="false"
       fuse_paths="true"
       oposite_fuse="false"
       split_items="false"
       split_open="false"
       link_styles="false" /><inkscape:path-effect
       effect="mirror_symmetry"
       start_point="17.297909,16.234992"
       end_point="17.313303,7.810326"
       center_point="17.305606,12.022659"
       id="path-effect5-4-0-0"
       is_visible="true"
       lpeversion="1.2"
       lpesatellites=""
       mode="free"
       discard_orig_path="false"
       fuse_paths="true"
       oposite_fuse="false"
       split_items="false"
       split_open="false"
       link_styles="false" /><inkscape:path-effect
       effect="mirror_symmetry"
       start_point="17.493844,16.300304"
       end_point="17.509238,7.875638"
       center_point="17.501541,12.087971"
       id="path-effect5-4-0-9-7"
       is_visible="true"
       lpeversion="1.2"
       lpesatellites=""
       mode="free"
       discard_orig_path="false"
       fuse_paths="true"
       oposite_fuse="false"
       split_items="false"
       split_open="false"
       link_styles="false" /><inkscape:path-effect
       effect="mirror_symmetry"
       start_point="17.493844,16.300304"
       end_point="17.509238,7.875638"
       center_point="17.501541,12.087971"
       id="path-effect5-4-0-9-3"
       is_visible="true"
       lpeversion="1.2"
       lpesatellites=""
       mode="free"
       discard_orig_path="false"
       fuse_paths="true"
       oposite_fuse="false"
       split_items="false"
       split_open="false"
       link_styles="false" /><inkscape:path-effect
       effect="mirror_symmetry"
       start_point="17.493844,16.300304"
       end_point="17.509238,7.875638"
       center_point="17.501541,12.087971"
       id="path-effect5-4-0-9-5"
       is_visible="true"
       lpeversion="1.2"
       lpesatellites=""
       mode="free"
       discard_orig_path="false"
       fuse_paths="true"
       oposite_fuse="false"
       split_items="false"
       split_open="false"
       link_styles="false" /><inkscape:path-effect
       effect="mirror_symmetry"
       start_point="17.297909,16.234992"
       end_point="17.313303,7.810326"
       center_point="17.305606,12.022659"
       id="path-effect5-4-6-1"
       is_visible="true"
       lpeversion="1.2"
       lpesatellites=""
       mode="free"
       discard_orig_path="false"
       fuse_paths="true"
       oposite_fuse="false"
       split_items="false"
       split_open="false"
       link_styles="false" /><inkscape:path-effect
       effect="mirror_symmetry"
       start_point="17.493844,16.300304"
       end_point="17.509238,7.875638"
       center_point="17.501541,12.087971"
       id="path-effect5-4-0-9-5-9"
       is_visible="true"
       lpeversion="1.2"
       lpesatellites=""
       mode="free"
       discard_orig_path="false"
       fuse_paths="true"
       oposite_fuse="false"
       split_items="false"
       split_open="false"
       link_styles="false" /><inkscape:path-effect
       effect="mirror_symmetry"
       start_point="17.297909,16.234992"
       end_point="17.313303,7.810326"
       center_point="17.305606,12.022659"
       id="path-effect5-61"
       is_visible="true"
       lpeversion="1.2"
       lpesatellites=""
       mode="free"
       discard_orig_path="false"
       fuse_paths="true"
       oposite_fuse="false"
       split_items="false"
       split_open="false"
       link_styles="false" /><inkscape:path-effect
       effect="mirror_symmetry"
       start_point="17.297909,16.234992"
       end_point="17.313303,7.810326"
       center_point="17.305606,12.022659"
       id="path-effect5-4-3"
       is_visible="true"
       lpeversion="1.2"
       lpesatellites=""
       mode="free"
       discard_orig_path="false"
       fuse_paths="true"
       oposite_fuse="false"
       split_items="false"
       split_open="false"
       link_styles="false" /><inkscape:path-effect
       effect="mirror_symmetry"
       start_point="17.297909,16.234992"
       end_point="17.313303,7.810326"
       center_point="17.305606,12.022659"
       id="path-effect5-4-3-6"
       is_visible="true"
       lpeversion="1.2"
       lpesatellites=""
       mode="free"
       discard_orig_path="false"
       fuse_paths="true"
       oposite_fuse="false"
       split_items="false"
       split_open="false"
       link_styles="false" /><inkscape:path-effect
       effect="mirror_symmetry"
       start_point="17.297909,16.234992"
       end_point="17.313303,7.810326"
       center_point="17.305606,12.022659"
       id="path-effect5-61-8"
       is_visible="true"
       lpeversion="1.2"
       lpesatellites=""
       mode="free"
       discard_orig_path="false"
       fuse_paths="true"
       oposite_fuse="false"
       split_items="false"
       split_open="false"
       link_styles="false" /><inkscape:path-effect
       effect="mirror_symmetry"
       start_point="17.297909,16.234992"
       end_point="17.313303,7.810326"
       center_point="17.305606,12.022659"
       id="path-effect5-61-3"
       is_visible="true"
       lpeversion="1.2"
       lpesatellites=""
       mode="free"
       discard_orig_path="false"
       fuse_paths="true"
       oposite_fuse="false"
       split_items="false"
       split_open="false"
       link_styles="false" /><inkscape:path-effect
       effect="mirror_symmetry"
       start_point="17.297909,16.234992"
       end_point="17.313303,7.810326"
       center_point="17.305606,12.022659"
       id="path-effect5-4-9-1"
       is_visible="true"
       lpeversion="1.2"
       lpesatellites=""
       mode="free"
       discard_orig_path="false"
       fuse_paths="true"
       oposite_fuse="false"
       split_items="false"
       split_open="false"
       link_styles="false" /><linearGradient
       inkscape:collect="always"
       xlink:href="#linearGradient8"
       id="linearGradient2"
       gradientUnits="userSpaceOnUse"
       gradientTransform="matrix(-1,0,0,1.0825992,36.51747,0.91593646)"
       x1="10.888926"
       y1="17.412872"
       x2="11.903366"
       y2="11.978036" /><linearGradient
       id="linearGradient8"
       inkscape:collect="always"><stop
         style="stop-color:#ff6666;stop-opacity:0.74901962;"
         offset="0"
         id="stop7" /><stop
         style="stop-color:#ff6666;stop-opacity:0;"
         offset="1"
         id="stop8" /></linearGradient><marker
       style="overflow:visible"
       id="RoundedArrow-6-9"
       refX="0"
       refY="0"
       orient="auto-start-reverse"
       inkscape:stockid="Rounded arrow"
       markerWidth="1"
       markerHeight="1"
       viewBox="0 0 1 1"
       inkscape:isstock="true"
       inkscape:collect="always"
       preserveAspectRatio="xMidYMid"><path
         transform="scale(0.7)"
         d="m -0.21114562,-4.1055728 6.42229122,3.21114561 a 1,1 90 0 1 0,1.78885438 L -0.21114562,4.1055728 A 1.236068,1.236068 31.717474 0 1 -2,3 v -6 a 1.236068,1.236068 148.28253 0 1 1.78885438,-1.1055728 z"
         style="fill:context-stroke;fill-rule:evenodd;stroke:none"
         id="path8-9-9" /></marker><inkscape:path-effect
       effect="mirror_symmetry"
       start_point="17.297909,16.234992"
       end_point="17.313303,7.810326"
       center_point="17.305606,12.022659"
       id="path-effect5-4-9-64"
       is_visible="true"
       lpeversion="1.2"
       lpesatellites=""
       mode="free"
       discard_orig_path="false"
       fuse_paths="true"
       oposite_fuse="false"
       split_items="false"
       split_open="false"
       link_styles="false" /><linearGradient
       inkscape:collect="always"
       xlink:href="#linearGradient6"
       id="linearGradient3"
       gradientUnits="userSpaceOnUse"
       gradientTransform="matrix(0,1,1.0825992,0,1.008301,-1.51747)"
       x1="10.888926"
       y1="17.412872"
       x2="11.903366"
       y2="11.978036" /><linearGradient
       id="linearGradient6"
       inkscape:collect="always"><stop
         style="stop-color:#4d4d4d;stop-opacity:0.74901962;"
         offset="0"
         id="stop3" /><stop
         style="stop-color:#4d4d4d;stop-opacity:0;"
         offset="1"
         id="stop6" /></linearGradient><marker
       style="overflow:visible"
       id="RoundedArrow-6-3"
       refX="0"
       refY="0"
       orient="auto-start-reverse"
       inkscape:stockid="Rounded arrow"
       markerWidth="1"
       markerHeight="1"
       viewBox="0 0 1 1"
       inkscape:isstock="true"
       inkscape:collect="always"
       preserveAspectRatio="xMidYMid"><path
         transform="scale(0.7)"
         d="m -0.21114562,-4.1055728 6.42229122,3.21114561 a 1,1 90 0 1 0,1.78885438 L -0.21114562,4.1055728 A 1.236068,1.236068 31.717474 0 1 -2,3 v -6 a 1.236068,1.236068 148.28253 0 1 1.78885438,-1.1055728 z"
         style="fill:context-stroke;fill-rule:evenodd;stroke:none"
         id="path8-9-80" /></marker><linearGradient
       inkscape:collect="always"
       xlink:href="#linearGradient10"
       id="linearGradient4"
       gradientUnits="userSpaceOnUse"
       gradientTransform="matrix(-0.96592582,-0.25881905,-0.28019729,1.0457105,25.901439,9.1690725)"
       x1="10.647268"
       y1="16.557198"
       x2="12.444862"
       y2="11.077363" /><linearGradient
       inkscape:collect="always"
       xlink:href="#linearGradient12"
       id="linearGradient11"
       gradientUnits="userSpaceOnUse"
       gradientTransform="matrix(0.96592582,0.25881905,0.28019729,-1.0457105,0.7589607,34.420172)"
       x1="10.647268"
       y1="16.557198"
       x2="12.444862"
       y2="11.077363" /><marker
       style="overflow:visible"
       id="RoundedArrow-6-9-9"
       refX="0"
       refY="0"
       orient="auto-start-reverse"
       inkscape:stockid="Rounded arrow"
       markerWidth="1"
       markerHeight="1"
       viewBox="0 0 1 1"
       inkscape:isstock="true"
       inkscape:collect="always"
       preserveAspectRatio="xMidYMid"><path
         transform="scale(0.7)"
         d="m -0.21114562,-4.1055728 6.42229122,3.21114561 a 1,1 90 0 1 0,1.78885438 L -0.21114562,4.1055728 A 1.236068,1.236068 31.717474 0 1 -2,3 v -6 a 1.236068,1.236068 148.28253 0 1 1.78885438,-1.1055728 z"
         style="fill:context-stroke;fill-rule:evenodd;stroke:none"
         id="path8-9-9-6" /></marker></defs><g
     inkscape:label="Layer 1"
     inkscape:groupmode="layer"
     id="layer1"><path
       style="fill:#999999;fill-opacity:1;stroke:none;stroke-width:0.264999;stroke-dasharray:none;stroke-opacity:1"
       d="m 16.0625,7.5585937 c -0.262338,-0.00397 -0.518182,0.082402 -0.507812,0.2617188 0.07244,1.2524069 0.219591,3.9930925 0.648437,4.8984375 -0.607199,0.176352 -1.617318,-0.230935 -2.138672,0.613281 -0.452157,0.732168 -0.03637,1.866595 0.201172,3.042969 0.05573,0.275974 0.796346,0.47567 0.822266,0.195312 0.109284,-1.182109 -0.0293,-2.300781 -0.0293,-2.300781 0.939531,-0.154019 1.74768,-0.436693 2.24414,-0.638672 0.495719,0.203792 1.303226,0.489033 2.242188,0.646485 0,0 -0.142073,1.11828 -0.03711,2.300781 0.0249,0.280451 0.76553,0.08241 0.822266,-0.193359 0.241842,-1.175498 0.662369,-2.305247 0.212891,-3.039063 -0.518266,-0.846116 -1.530169,-0.444477 -2.136719,-0.623047 0.432152,-0.903771 0.589,-3.6443503 0.666016,-4.8964841 0.02205,-0.3585544 -1.02167,-0.3458071 -1.056641,0.011719 -0.100734,1.0298107 -0.213416,2.7436984 -0.427734,2.9062504 -0.121107,0.09185 -0.211094,0.116149 -0.279297,0.105468 -0.06824,0.01043 -0.16048,-0.01512 -0.28125,-0.107421 C 16.813621,10.578854 16.706345,8.8661094 16.609375,7.8359375 16.592543,7.6571119 16.324838,7.5625647 16.0625,7.5585937 Z"
       id="path4-1-6"
       sodipodi:nodetypes="ssscssscccs"
       transform="matrix(0.70710678,0.70710678,0.70710678,-0.70710678,-10.873074,21.444429)"
       inkscape:original-d="m 15.087222,16.570462 c -0.02592,0.280358 -0.765893,0.08004 -0.821621,-0.195934 -0.237544,-1.176374 -0.653562,-2.309422 -0.201405,-3.04159 0.521354,-0.844216 1.531751,-0.437333 2.13895,-0.613685 -0.428846,-0.905345 -0.576305,-3.6466491 -0.648744,-4.899056 -0.02074,-0.3586326 1.022152,-0.3422582 1.055816,0.015393 0.09697,1.0301719 0.203913,2.743905 0.417636,2.907239 0.427544,0.326742 0.480507,-0.179347 0.480507,-0.179347 l 0.318037,2.834014 c 0,0 -1.201503,0.615766 -2.767965,0.872559 0,0 0.138074,1.118297 0.02879,2.300407 z"
       inkscape:path-effect="#path-effect5-61-8" /><path
       style="fill:#999999;fill-opacity:1;stroke:none;stroke-width:0.264999;stroke-dasharray:none;stroke-opacity:1"
       d="m 16.0625,7.5585937 c -0.262338,-0.00397 -0.518182,0.082402 -0.507812,0.2617188 0.07244,1.2524069 0.219591,3.9930925 0.648437,4.8984375 -0.607199,0.176352 -1.617318,-0.230935 -2.138672,0.613281 -0.452157,0.732168 -0.03637,1.866595 0.201172,3.042969 0.05573,0.275974 0.796346,0.47567 0.822266,0.195312 0.109284,-1.182109 -0.0293,-2.300781 -0.0293,-2.300781 0.939531,-0.154019 1.74768,-0.436693 2.24414,-0.638672 0.495719,0.203792 1.303226,0.489033 2.242188,0.646485 0,0 -0.142073,1.11828 -0.03711,2.300781 0.0249,0.280451 0.76553,0.08241 0.822266,-0.193359 0.241842,-1.175498 0.662369,-2.305247 0.212891,-3.039063 -0.518266,-0.846116 -1.530169,-0.444477 -2.136719,-0.623047 0.432152,-0.903771 0.589,-3.6443503 0.666016,-4.8964841 0.02205,-0.3585544 -1.02167,-0.3458071 -1.056641,0.011719 -0.100734,1.0298107 -0.213416,2.7436984 -0.427734,2.9062504 -0.121107,0.09185 -0.211094,0.116149 -0.279297,0.105468 -0.06824,0.01043 -0.16048,-0.01512 -0.28125,-0.107421 C 16.813621,10.578854 16.706345,8.8661094 16.609375,7.8359375 16.592543,7.6571119 16.324838,7.5625647 16.0625,7.5585937 Z"
       id="path4-1"
       sodipodi:nodetypes="ssscssscccs"
       transform="rotate(45,9.3936723,14.462331)"
       inkscape:original-d="m 15.087222,16.570462 c -0.02592,0.280358 -0.765893,0.08004 -0.821621,-0.195934 -0.237544,-1.176374 -0.653562,-2.309422 -0.201405,-3.04159 0.521354,-0.844216 1.531751,-0.437333 2.13895,-0.613685 -0.428846,-0.905345 -0.576305,-3.6466491 -0.648744,-4.899056 -0.02074,-0.3586326 1.022152,-0.3422582 1.055816,0.015393 0.09697,1.0301719 0.203913,2.743905 0.417636,2.907239 0.427544,0.326742 0.480507,-0.179347 0.480507,-0.179347 l 0.318037,2.834014 c 0,0 -1.201503,0.615766 -2.767965,0.872559 0,0 0.138074,1.118297 0.02879,2.300407 z"
       inkscape:path-effect="#path-effect5-61-3" /><path
       id="path1-5"
       style="fill:#66ff66;fill-opacity:1;stroke:#000000;stroke-width:0.265"
       d="m 17.182554,20.241843 c -0.649274,0.649272 -1.97904,0.926365 -2.628313,0.277093 -0.64927,-0.649271 -0.372175,-1.97904 0.277096,-2.62831 0.64927,-0.64927 1.701945,-0.649271 2.351215,0 0.649273,0.649269 0.649273,1.701946 2e-6,2.351217 z"
       sodipodi:nodetypes="zzzzz" /><path
       id="path1-7-1-99"
       style="fill:#ffffff;stroke:#000000;stroke-width:0.265;stroke-dasharray:none"
       d="m 19.528468,14.593975 c -0.146523,0.146523 -0.68318,0.360942 -0.93846,0.105662 -0.255281,-0.255282 -0.06081,-0.826988 0.08572,-0.973512 0.146523,-0.146523 0.223167,-0.322543 0.701648,0.186143 0.478486,0.508693 0.29762,0.535179 0.151096,0.681702 z"
       sodipodi:nodetypes="ssszs" /><path
       id="path1-7-1-9-1"
       style="fill:#ffffff;stroke:#000000;stroke-width:0.265;stroke-dasharray:none"
       d="m 21.267476,16.363769 c -0.146523,0.146523 -0.68318,0.360944 -0.938462,0.105662 -0.255281,-0.255281 -0.06081,-0.826988 0.08572,-0.973511 0.146522,-0.146521 0.223167,-0.322544 0.701648,0.186143 0.478485,0.508693 0.29762,0.53518 0.151096,0.681702 z"
       sodipodi:nodetypes="ssszs" /><ellipse
       style="fill:#ffffff;fill-opacity:1;stroke:#000000;stroke-width:0.265;stroke-dasharray:none;stroke-opacity:1"
       id="path1-7-2-9-9-1-9-8"
       cx="22.215031"
       cy="5.9586759"
       rx="0.65429264"
       ry="0.80279088"
       transform="rotate(45)" /><ellipse
       style="fill:#ffffff;fill-opacity:1;stroke:#000000;stroke-width:0.265;stroke-dasharray:none;stroke-opacity:1"
       id="path1-7-2-9-9-5-0"
       cx="27.319221"
       cy="5.9586759"
       rx="0.65429264"
       ry="0.80279088"
       transform="rotate(45)" /><path
       id="path1-7-1-99-1"
       style="fill:#ffffff;stroke:#000000;stroke-width:0.265;stroke-dasharray:none"
       d="m 6.1273054,27.995138 c 0.146524,-0.146522 0.3609437,-0.683177 0.105663,-0.93846 -0.255281,-0.255281 -0.8269909,-0.06081 -0.9735126,0.08572 -0.146522,0.146521 -0.322543,0.223165 0.1861427,0.701648 0.5086939,0.478485 0.5351789,0.29762 0.6817029,0.151096 z"
       sodipodi:nodetypes="ssszs" /><path
       id="path1-7-1-9-1-5"
       style="fill:#ffffff;stroke:#000000;stroke-width:0.265;stroke-dasharray:none"
       d="m 7.8971002,29.734145 c 0.146521,-0.146521 0.360942,-0.683179 0.105661,-0.938461 -0.2552807,-0.255281 -0.8269884,-0.06081 -0.9735104,0.08572 -0.146524,0.146521 -0.3225437,0.223168 0.186143,0.701649 0.5086937,0.478486 0.5351807,0.297619 0.6817024,0.151097 z"
       sodipodi:nodetypes="ssszs" /><path
       id="path1-5-1"
       style="fill:#6666ff;fill-opacity:1;stroke:#000000;stroke-width:0.265"
       d="m 11.775174,25.649225 c 0.649268,-0.649274 0.926362,-1.979041 0.277093,-2.628311 -0.649272,-0.649273 -1.979042,-0.37218 -2.6283104,0.277092 -0.6492717,0.649271 -0.6492707,1.701946 -1e-6,2.351218 0.6492704,0.649272 1.7019484,0.649272 2.3512184,1e-6 z"
       sodipodi:nodetypes="zzzzz" /><path
       style="fill:#999999;fill-opacity:1;stroke:none;stroke-width:0.264999;stroke-dasharray:none;stroke-opacity:1"
       d="m 16.0625,7.5585937 c -0.262338,-0.00397 -0.518182,0.082402 -0.507812,0.2617188 0.07244,1.2524069 0.08092,3.5770765 0.509765,4.4824215 -0.619107,-0.0056 -1.745052,-0.18892 -2.05664,0.253907 -0.258596,0.367514 0.03999,1.846533 0.660156,2.78125 0.155655,0.234603 0.898838,-0.168222 0.861328,-0.447266 -0.09347,-0.695437 -0.159096,-0.867894 -0.402344,-1.509766 0.953116,0.03675 1.708696,0.03609 2.175781,0.0293 0.467058,0.0085 1.224491,0.01178 2.177735,-0.02148 -0.245592,0.640979 -0.314145,0.812722 -0.410157,1.507812 -0.03853,0.278905 0.704817,0.685205 0.861329,0.451172 0.623579,-0.932444 0.927173,-2.41084 0.669921,-2.779297 -0.309967,-0.443962 -1.437517,-0.263124 -2.05664,-0.259765 0.432152,-0.903772 0.450328,-3.2302883 0.527344,-4.4824221 0.02205,-0.3585544 -1.02167,-0.3458071 -1.056641,0.011719 -0.100734,1.0298107 -0.213416,2.7436984 -0.427734,2.9062504 -0.121107,0.09185 -0.211094,0.116149 -0.279297,0.105468 -0.06824,0.01043 -0.16048,-0.01512 -0.28125,-0.107421 C 16.813621,10.578854 16.706345,8.8661094 16.609375,7.8359375 16.592543,7.6571119 16.324839,7.5625647 16.0625,7.5585937 Z"
       id="path4-6-1"
       sodipodi:nodetypes="ssscssscccs"
       transform="translate(8.313988,5.67428)"
       inkscape:original-d="m 15.53026,14.890015 c 0.03751,0.279044 -0.706242,0.683088 -0.861897,0.448485 -0.620168,-0.934717 -0.918433,-2.414328 -0.659837,-2.781842 0.311588,-0.442827 1.436966,-0.258666 2.056073,-0.253045 -0.428846,-0.905345 -0.437758,-3.2310091 -0.510197,-4.483416 -0.02074,-0.3586326 1.022152,-0.3422582 1.055816,0.015393 0.09697,1.0301719 0.203913,2.743905 0.417636,2.907239 0.427544,0.326742 0.480507,-0.179347 0.480507,-0.179347 l 0.318037,2.834014 c 0,0 -1.059289,0.04685 -2.700397,-0.01643 0.243248,0.641872 0.310788,0.813517 0.404259,1.508954 z"
       inkscape:path-effect="#path-effect5-4-9-1" /><path
       id="path1-9-9-0"
       style="fill:#ff6666;fill-opacity:1;stroke:#000000;stroke-width:0.265"
       d="m 27.299194,18.82238 c 0,0.918208 -0.744354,2.054432 -1.662562,2.054432 -0.918208,0 -1.662561,-1.136225 -1.662561,-2.054432 0,-0.918206 0.744354,-1.66256 1.662561,-1.66256 0.918207,0 1.662562,0.744353 1.662562,1.66256 z"
       sodipodi:nodetypes="zzzzz" /><path
       id="path1-7-1-2-6-3"
       style="fill:#ffffff;stroke:#000000;stroke-width:0.265;stroke-dasharray:none"
       d="m 24.980015,13.199589 c 0,0.207214 -0.227855,0.738307 -0.588877,0.738307 -0.361023,0 -0.627766,-0.541773 -0.627766,-0.748987 0,-0.207215 -0.07027,-0.385877 0.627766,-0.364517 0.69804,0.02136 0.588877,0.167981 0.588877,0.375197 z"
       sodipodi:nodetypes="ssszs" /><path
       id="path1-7-1-9-0-2-4"
       style="fill:#ffffff;stroke:#000000;stroke-width:0.265;stroke-dasharray:none"
       d="m 27.461112,13.221359 c 0,0.207214 -0.227855,0.738307 -0.588877,0.738307 -0.361023,0 -0.627766,-0.541773 -0.627766,-0.748987 0,-0.207214 -0.07027,-0.385876 0.627766,-0.364516 0.69804,0.02136 0.588877,0.167981 0.588877,0.375196 z"
       sodipodi:nodetypes="ssszs" /><ellipse
       style="fill:#ffffff;fill-opacity:1;stroke:#000000;stroke-width:0.265;stroke-dasharray:none;stroke-opacity:1"
       id="path1-7-2-9-9-1-6-1-0"
       cx="-31.61986"
       cy="14.733088"
       rx="0.65429264"
       ry="0.80279088"
       transform="matrix(-0.97671876,-0.21452379,-0.21452379,0.97671876,0,0)" /><ellipse
       style="fill:#ffffff;fill-opacity:1;stroke:#000000;stroke-width:0.265;stroke-dasharray:none;stroke-opacity:1"
       id="path1-7-2-9-9-1-6-1-2-3"
       cx="-16.003939"
       cy="27.295174"
       rx="0.65429264"
       ry="0.80279088"
       transform="matrix(-0.95312516,0.30257633,0.30257633,0.95312516,0,0)" /><path
       id="path1-3-1-5-8-0-9"
       style="fill:url(#linearGradient2);fill-opacity:1;stroke:none;stroke-width:0.265"
       d="m 23.23167,14.832521 c 0.75229,-0.945311 1.798276,-0.274069 1.244641,0.438968 -0.553635,0.713036 -0.428368,2.01597 1.045207,2.041865 0.64927,0.702897 0.88297,2.669567 0.233698,3.372466 -2.457722,-0.12635 -5.46743,-2.154079 -2.523546,-5.853299 z"
       sodipodi:nodetypes="szccs" /><path
       id="path2-2-1"
       style="fill:none;stroke:#000000;stroke-width:0.2;stroke-dasharray:none;stroke-opacity:1;marker-end:url(#RoundedArrow-6-9)"
       d="m 29.886041,21.693853 c 0.77263,-1.089791 2.082312,-4.44362 -0.114324,-7.649568"
       sodipodi:nodetypes="cc" /><text
       xml:space="preserve"
       style="font-size:3.175px;text-align:start;writing-mode:lr-tb;direction:ltr;text-anchor:start;fill:#000000;fill-opacity:1;stroke:none;stroke-width:0.2;stroke-dasharray:none;stroke-opacity:1"
       x="27.528585"
       y="26.744432"
       id="text5-8-9"><tspan
         sodipodi:role="line"
         id="tspan5-2-6"
         style="font-style:normal;font-variant:normal;font-weight:bold;font-stretch:normal;font-family:'Bitstream Vera Sans';-inkscape-font-specification:'Bitstream Vera Sans Bold';fill:#000000;fill-opacity:1;stroke:none;stroke-width:0.2"
         x="27.528585"
         y="26.744432">360</tspan></text><path
       id="path2-2-1-2"
       style="fill:none;stroke:#000000;stroke-width:0.2;stroke-dasharray:none;stroke-opacity:1;marker-end:url(#RoundedArrow-6-9-9)"
       d="M 10.546941,13.404586 C 9.2300106,13.628853 5.9324104,15.074283 5.2187189,18.894487"
       sodipodi:nodetypes="cc" /><text
       xml:space="preserve"
       style="font-size:3.175px;text-align:start;writing-mode:lr-tb;direction:ltr;text-anchor:start;fill:#000000;fill-opacity:1;stroke:none;stroke-width:0.2;stroke-dasharray:none;stroke-opacity:1"
       x="1.7341533"
       y="13.350894"
       id="text5-8-9-7"><tspan
         sodipodi:role="line"
         id="tspan5-2-6-6"
         style="font-style:normal;font-variant:normal;font-weight:bold;font-stretch:normal;font-family:'Bitstream Vera Sans';-inkscape-font-specification:'Bitstream Vera Sans Bold';fill:#000000;fill-opacity:1;stroke:none;stroke-width:0.2"
         x="1.7341533"
         y="13.350894">360</tspan></text><path
       style="fill:#999999;fill-opacity:1;stroke:none;stroke-width:0.264999;stroke-dasharray:none;stroke-opacity:1"
       d="m 16.0625,7.5585937 c -0.262338,-0.00397 -0.518182,0.082402 -0.507812,0.2617188 0.07244,1.2524069 0.08092,3.5770765 0.509765,4.4824215 -0.619107,-0.0056 -1.745052,-0.18892 -2.05664,0.253907 -0.258596,0.367514 0.03999,1.846533 0.660156,2.78125 0.155655,0.234603 0.898838,-0.168222 0.861328,-0.447266 -0.09347,-0.695437 -0.159096,-0.867894 -0.402344,-1.509766 0.953116,0.03675 1.708696,0.03609 2.175781,0.0293 0.467058,0.0085 1.224491,0.01178 2.177735,-0.02148 -0.245592,0.640979 -0.314145,0.812722 -0.410157,1.507812 -0.03853,0.278905 0.704817,0.685205 0.861329,0.451172 0.623579,-0.932444 0.927173,-2.41084 0.669921,-2.779297 -0.309967,-0.443962 -1.437517,-0.263124 -2.05664,-0.259765 0.432152,-0.903772 0.450328,-3.2302883 0.527344,-4.4824221 0.02205,-0.3585544 -1.02167,-0.3458071 -1.056641,0.011719 -0.100734,1.0298107 -0.213416,2.7436984 -0.427734,2.9062504 -0.121107,0.09185 -0.211094,0.116149 -0.279297,0.105468 -0.06824,0.01043 -0.16048,-0.01512 -0.28125,-0.107421 C 16.813621,10.578854 16.706345,8.8661094 16.609375,7.8359375 16.592543,7.6571119 16.324839,7.5625647 16.0625,7.5585937 Z"
       id="path4-6-4"
       sodipodi:nodetypes="ssscssscccs"
       transform="rotate(-90,16.180146,10.505866)"
       inkscape:original-d="m 15.53026,14.890015 c 0.03751,0.279044 -0.706242,0.683088 -0.861897,0.448485 -0.620168,-0.934717 -0.918433,-2.414328 -0.659837,-2.781842 0.311588,-0.442827 1.436966,-0.258666 2.056073,-0.253045 -0.428846,-0.905345 -0.437758,-3.2310091 -0.510197,-4.483416 -0.02074,-0.3586326 1.022152,-0.3422582 1.055816,0.015393 0.09697,1.0301719 0.203913,2.743905 0.417636,2.907239 0.427544,0.326742 0.480507,-0.179347 0.480507,-0.179347 l 0.318037,2.834014 c 0,0 -1.059289,0.04685 -2.700397,-0.01643 0.243248,0.641872 0.310788,0.813517 0.404259,1.508954 z"
       inkscape:path-effect="#path-effect5-4-9-64" /><path
       id="path1-9-9-6"
       style="fill:#4d4d4d;fill-opacity:1;stroke:#000000;stroke-width:0.265"
       d="m 18.82238,7.700806 c 0.918208,0 2.054432,0.744354 2.054432,1.662562 0,0.918208 -1.136225,1.662561 -2.054432,1.662561 -0.918206,0 -1.66256,-0.744354 -1.66256,-1.662561 0,-0.918207 0.744353,-1.662562 1.66256,-1.662562 z"
       sodipodi:nodetypes="zzzzz" /><path
       id="path1-7-1-2-6-2"
       style="fill:#ffffff;stroke:#000000;stroke-width:0.265;stroke-dasharray:none"
       d="m 13.199589,10.019985 c 0.207214,0 0.738307,0.227855 0.738307,0.588877 0,0.361023 -0.541773,0.627766 -0.748987,0.627766 -0.207215,0 -0.385877,0.07027 -0.364517,-0.627766 0.02136,-0.69804 0.167981,-0.588877 0.375197,-0.588877 z"
       sodipodi:nodetypes="ssszs" /><path
       id="path1-7-1-9-0-2-67"
       style="fill:#ffffff;stroke:#000000;stroke-width:0.265;stroke-dasharray:none"
       d="m 13.221359,7.538888 c 0.207214,0 0.738307,0.227855 0.738307,0.588877 0,0.361023 -0.541773,0.627766 -0.748987,0.627766 -0.207214,0 -0.385876,0.07027 -0.364516,-0.627766 0.02136,-0.69804 0.167981,-0.588877 0.375196,-0.588877 z"
       sodipodi:nodetypes="ssszs" /><ellipse
       style="fill:#ffffff;fill-opacity:1;stroke:#000000;stroke-width:0.265;stroke-dasharray:none;stroke-opacity:1"
       id="path1-7-2-9-9-1-6-1-5"
       cx="2.5652971"
       cy="22.241421"
       rx="0.65429264"
       ry="0.80279088"
       transform="matrix(-0.21452379,0.97671876,0.97671876,0.21452379,0,0)" /><ellipse
       style="fill:#ffffff;fill-opacity:1;stroke:#000000;stroke-width:0.265;stroke-dasharray:none;stroke-opacity:1"
       id="path1-7-2-9-9-1-6-1-2-6"
       cx="17.355442"
       cy="16.705002"
       rx="0.65429264"
       ry="0.80279088"
       transform="matrix(0.30257633,0.95312516,0.95312516,-0.30257633,0,0)" /><path
       id="path1-3-1-5-8-0-98"
       style="fill:url(#linearGradient3);fill-opacity:1;stroke:none;stroke-width:0.265"
       d="m 14.924885,11.76833 c -0.945311,-0.75229 -0.274069,-1.798276 0.438968,-1.244641 0.713036,0.553635 2.01597,0.428368 2.041865,-1.045207 0.702897,-0.64927 2.669567,-0.88297 3.372466,-0.233698 -0.12635,2.457722 -2.154079,5.46743 -5.853299,2.523546 z"
       sodipodi:nodetypes="szccs" /><path
       id="path2-2-7"
       style="fill:none;stroke:#000000;stroke-width:0.2;stroke-dasharray:none;stroke-opacity:1;marker-end:url(#RoundedArrow-6-3)"
       d="M 21.693853,5.113959 C 20.604062,4.341329 17.250233,3.031647 14.044285,5.228283"
       sodipodi:nodetypes="cc" /><text
       xml:space="preserve"
       style="font-size:3.175px;text-align:start;writing-mode:lr-tb;direction:ltr;text-anchor:start;fill:#000000;fill-opacity:1;stroke:none;stroke-width:0.2;stroke-dasharray:none;stroke-opacity:1"
       x="22.311226"
       y="5.4485254"
       id="text5-8-2"><tspan
         sodipodi:role="line"
         id="tspan5-2-8"
         style="font-style:normal;font-variant:normal;font-weight:bold;font-stretch:normal;font-family:'Bitstream Vera Sans';-inkscape-font-specification:'Bitstream Vera Sans Bold';fill:#000000;fill-opacity:1;stroke:none;stroke-width:0.2"
         x="22.311226"
         y="5.4485254">360</tspan></text><path
       id="path1-3-1-5-8-0-8-0-6-3-5"
       style="fill:url(#linearGradient4);fill-opacity:1;stroke:none;stroke-width:0.265"
       d="m 9.6150199,18.739547 c -0.3243575,1.992273 0.9761741,3.790837 2.2526521,4.286699 0.445221,0.846987 -1.503407,2.033731 -2.3124788,2.544637 -1.514719,-1.286301 -2.2855347,-2.968972 -2.0429823,-5.910599 0.2425524,-2.941627 2.4271665,-2.91301 2.102809,-0.920737 z"
       sodipodi:nodetypes="zcczz" /><path
       id="path1-3-1-5-8-0-8-0-6-3-5-8"
       style="fill:url(#linearGradient11);fill-opacity:1;stroke:none;stroke-width:0.265"
       d="m 17.045381,24.849698 c 0.324357,-1.992273 -0.976175,-3.790837 -2.252653,-4.286699 -0.445221,-0.846987 1.503407,-2.033731 2.312479,-2.544637 1.514719,1.286301 2.285535,2.968972 2.042982,5.910599 -0.242552,2.941627 -2.427166,2.91301 -2.102808,0.920737 z"
       sodipodi:nodetypes="zcczz" /></g></svg>
