<?xml version="1.0" encoding="UTF-8" standalone="no"?>
<!-- Created with Inkscape (http://www.inkscape.org/) -->

<svg
   width="35mm"
   height="35mm"
   viewBox="0 0 35 35"
   version="1.1"
   id="svg1"
   xml:space="preserve"
   inkscape:version="1.4 (e7c3feb100, 2024-10-09)"
   sodipodi:docname="14_v1.svg"
   xmlns:inkscape="http://www.inkscape.org/namespaces/inkscape"
   xmlns:sodipodi="http://sodipodi.sourceforge.net/DTD/sodipodi-0.dtd"
   xmlns="http://www.w3.org/2000/svg"
   xmlns:svg="http://www.w3.org/2000/svg"><sodipodi:namedview
     id="namedview1"
     pagecolor="#ffffff"
     bordercolor="#000000"
     borderopacity="0.25"
     inkscape:showpageshadow="2"
     inkscape:pageopacity="0.0"
     inkscape:pagecheckerboard="0"
     inkscape:deskcolor="#d1d1d1"
     inkscape:document-units="mm"
     inkscape:zoom="4.2968333"
     inkscape:cx="96.233662"
     inkscape:cy="75.637098"
     inkscape:window-width="1916"
     inkscape:window-height="1023"
     inkscape:window-x="0"
     inkscape:window-y="0"
     inkscape:window-maximized="0"
     inkscape:current-layer="layer1"
     showgrid="false"><sodipodi:guide
       position="25.431035,17.543103"
       orientation="0,132.28346"
       id="guide5"
       inkscape:locked="false" /><sodipodi:guide
       position="35.000001,35.000001"
       orientation="132.28346,0"
       id="guide6"
       inkscape:locked="false" /><sodipodi:guide
       position="35.000001,0"
       orientation="0,-132.28346"
       id="guide7"
       inkscape:locked="false" /><sodipodi:guide
       position="17.503506,35.914363"
       orientation="-132.28346,0"
       id="guide8"
       inkscape:locked="false" /></sodipodi:namedview><defs
     id="defs1"><inkscape:path-effect
       effect="mirror_symmetry"
       start_point="17.297909,16.234992"
       end_point="17.313303,7.810326"
       center_point="17.305606,12.022659"
       id="path-effect5"
       is_visible="true"
       lpeversion="1.2"
       lpesatellites=""
       mode="free"
       discard_orig_path="false"
       fuse_paths="true"
       oposite_fuse="false"
       split_items="false"
       split_open="false"
       link_styles="false" /><inkscape:path-effect
       effect="mirror_symmetry"
       start_point="17.297909,16.234992"
       end_point="17.313303,7.810326"
       center_point="17.305606,12.022659"
       id="path-effect5-7"
       is_visible="true"
       lpeversion="1.2"
       lpesatellites=""
       mode="free"
       discard_orig_path="false"
       fuse_paths="true"
       oposite_fuse="false"
       split_items="false"
       split_open="false"
       link_styles="false" /><inkscape:path-effect
       effect="mirror_symmetry"
       start_point="17.297909,16.234992"
       end_point="17.313303,7.810326"
       center_point="17.305606,12.022659"
       id="path-effect5-6"
       is_visible="true"
       lpeversion="1.2"
       lpesatellites=""
       mode="free"
       discard_orig_path="false"
       fuse_paths="true"
       oposite_fuse="false"
       split_items="false"
       split_open="false"
       link_styles="false" /><inkscape:path-effect
       effect="mirror_symmetry"
       start_point="17.297909,16.234992"
       end_point="17.313303,7.810326"
       center_point="17.305606,12.022659"
       id="path-effect5-3"
       is_visible="true"
       lpeversion="1.2"
       lpesatellites=""
       mode="free"
       discard_orig_path="false"
       fuse_paths="true"
       oposite_fuse="false"
       split_items="false"
       split_open="false"
       link_styles="false" /><inkscape:path-effect
       effect="mirror_symmetry"
       start_point="17.297909,16.234992"
       end_point="17.313303,7.810326"
       center_point="17.305606,12.022659"
       id="path-effect5-66"
       is_visible="true"
       lpeversion="1.2"
       lpesatellites=""
       mode="free"
       discard_orig_path="false"
       fuse_paths="true"
       oposite_fuse="false"
       split_items="false"
       split_open="false"
       link_styles="false" /><inkscape:path-effect
       effect="mirror_symmetry"
       start_point="17.297909,16.234992"
       end_point="17.313303,7.810326"
       center_point="17.305606,12.022659"
       id="path-effect5-4"
       is_visible="true"
       lpeversion="1.2"
       lpesatellites=""
       mode="free"
       discard_orig_path="false"
       fuse_paths="true"
       oposite_fuse="false"
       split_items="false"
       split_open="false"
       link_styles="false" /><inkscape:path-effect
       effect="mirror_symmetry"
       start_point="17.297909,16.234992"
       end_point="17.313303,7.810326"
       center_point="17.305606,12.022659"
       id="path-effect5-4-7"
       is_visible="true"
       lpeversion="1.2"
       lpesatellites=""
       mode="free"
       discard_orig_path="false"
       fuse_paths="true"
       oposite_fuse="false"
       split_items="false"
       split_open="false"
       link_styles="false" /><inkscape:path-effect
       effect="mirror_symmetry"
       start_point="17.297909,16.234992"
       end_point="17.313303,7.810326"
       center_point="17.305606,12.022659"
       id="path-effect5-41"
       is_visible="true"
       lpeversion="1.2"
       lpesatellites=""
       mode="free"
       discard_orig_path="false"
       fuse_paths="true"
       oposite_fuse="false"
       split_items="false"
       split_open="false"
       link_styles="false" /><inkscape:path-effect
       effect="mirror_symmetry"
       start_point="17.297909,16.234992"
       end_point="17.313303,7.810326"
       center_point="17.305606,12.022659"
       id="path-effect5-4-0"
       is_visible="true"
       lpeversion="1.2"
       lpesatellites=""
       mode="free"
       discard_orig_path="false"
       fuse_paths="true"
       oposite_fuse="false"
       split_items="false"
       split_open="false"
       link_styles="false" /><inkscape:path-effect
       effect="mirror_symmetry"
       start_point="17.493844,16.300304"
       end_point="17.509238,7.875638"
       center_point="17.501541,12.087971"
       id="path-effect5-4-0-9"
       is_visible="true"
       lpeversion="1.2"
       lpesatellites=""
       mode="free"
       discard_orig_path="false"
       fuse_paths="true"
       oposite_fuse="false"
       split_items="false"
       split_open="false"
       link_styles="false" /><inkscape:path-effect
       effect="mirror_symmetry"
       start_point="17.297909,16.234992"
       end_point="17.313303,7.810326"
       center_point="17.305606,12.022659"
       id="path-effect5-4-0-0"
       is_visible="true"
       lpeversion="1.2"
       lpesatellites=""
       mode="free"
       discard_orig_path="false"
       fuse_paths="true"
       oposite_fuse="false"
       split_items="false"
       split_open="false"
       link_styles="false" /><inkscape:path-effect
       effect="mirror_symmetry"
       start_point="17.493844,16.300304"
       end_point="17.509238,7.875638"
       center_point="17.501541,12.087971"
       id="path-effect5-4-0-9-7"
       is_visible="true"
       lpeversion="1.2"
       lpesatellites=""
       mode="free"
       discard_orig_path="false"
       fuse_paths="true"
       oposite_fuse="false"
       split_items="false"
       split_open="false"
       link_styles="false" /><inkscape:path-effect
       effect="mirror_symmetry"
       start_point="17.493844,16.300304"
       end_point="17.509238,7.875638"
       center_point="17.501541,12.087971"
       id="path-effect5-4-0-9-3"
       is_visible="true"
       lpeversion="1.2"
       lpesatellites=""
       mode="free"
       discard_orig_path="false"
       fuse_paths="true"
       oposite_fuse="false"
       split_items="false"
       split_open="false"
       link_styles="false" /><inkscape:path-effect
       effect="mirror_symmetry"
       start_point="17.493844,16.300304"
       end_point="17.509238,7.875638"
       center_point="17.501541,12.087971"
       id="path-effect5-4-0-9-5"
       is_visible="true"
       lpeversion="1.2"
       lpesatellites=""
       mode="free"
       discard_orig_path="false"
       fuse_paths="true"
       oposite_fuse="false"
       split_items="false"
       split_open="false"
       link_styles="false" /><inkscape:path-effect
       effect="mirror_symmetry"
       start_point="17.297909,16.234992"
       end_point="17.313303,7.810326"
       center_point="17.305606,12.022659"
       id="path-effect5-4-6-1"
       is_visible="true"
       lpeversion="1.2"
       lpesatellites=""
       mode="free"
       discard_orig_path="false"
       fuse_paths="true"
       oposite_fuse="false"
       split_items="false"
       split_open="false"
       link_styles="false" /><inkscape:path-effect
       effect="mirror_symmetry"
       start_point="17.493844,16.300304"
       end_point="17.509238,7.875638"
       center_point="17.501541,12.087971"
       id="path-effect5-4-0-9-5-9"
       is_visible="true"
       lpeversion="1.2"
       lpesatellites=""
       mode="free"
       discard_orig_path="false"
       fuse_paths="true"
       oposite_fuse="false"
       split_items="false"
       split_open="false"
       link_styles="false" /><inkscape:path-effect
       effect="mirror_symmetry"
       start_point="17.297909,16.234992"
       end_point="17.313303,7.810326"
       center_point="17.305606,12.022659"
       id="path-effect5-61"
       is_visible="true"
       lpeversion="1.2"
       lpesatellites=""
       mode="free"
       discard_orig_path="false"
       fuse_paths="true"
       oposite_fuse="false"
       split_items="false"
       split_open="false"
       link_styles="false" /><inkscape:path-effect
       effect="mirror_symmetry"
       start_point="17.297909,16.234992"
       end_point="17.313303,7.810326"
       center_point="17.305606,12.022659"
       id="path-effect5-4-3"
       is_visible="true"
       lpeversion="1.2"
       lpesatellites=""
       mode="free"
       discard_orig_path="false"
       fuse_paths="true"
       oposite_fuse="false"
       split_items="false"
       split_open="false"
       link_styles="false" /><inkscape:path-effect
       effect="mirror_symmetry"
       start_point="17.297909,16.234992"
       end_point="17.313303,7.810326"
       center_point="17.305606,12.022659"
       id="path-effect5-4-3-6"
       is_visible="true"
       lpeversion="1.2"
       lpesatellites=""
       mode="free"
       discard_orig_path="false"
       fuse_paths="true"
       oposite_fuse="false"
       split_items="false"
       split_open="false"
       link_styles="false" /></defs><g
     inkscape:label="Layer 1"
     inkscape:groupmode="layer"
     id="layer1"><path
       style="fill:#999999;fill-opacity:1;stroke:none;stroke-width:0.264999;stroke-dasharray:none;stroke-opacity:1"
       d="m 16.0625,7.5585937 c -0.262338,-0.00397 -0.518182,0.082402 -0.507812,0.2617188 0.07244,1.2524069 0.08092,3.5770765 0.509765,4.4824215 -0.437864,0.679074 -1.494271,1.202659 -2.015625,2.046875 -0.452157,0.732168 -0.02075,1.907611 0.216797,3.083985 0.05573,0.275974 0.796346,0.47567 0.822266,0.195312 0.10928,-1.18211 0.09766,-2.857422 0.09766,-2.857422 0.891495,-0.529723 1.646191,-0.910531 2.117187,-1.134765 0.470175,0.225954 1.221775,0.607646 2.111328,1.140625 0,0 -0.01512,1.676873 0.08984,2.859375 0.0249,0.280451 0.76553,0.08241 0.822266,-0.19336 0.241841,-1.175498 0.677994,-2.348215 0.228515,-3.082031 -0.518265,-0.846116 -1.574386,-1.372065 -2.009765,-2.052734 0.432152,-0.903772 0.450328,-3.2302883 0.527344,-4.4824221 0.02205,-0.3585544 -1.02167,-0.3458071 -1.056641,0.011719 -0.100734,1.0298107 -0.213416,2.7436984 -0.427734,2.9062504 -0.121107,0.09185 -0.211094,0.116149 -0.279297,0.105468 -0.06824,0.01043 -0.16048,-0.01512 -0.28125,-0.107421 C 16.813621,10.578854 16.706345,8.8661094 16.609375,7.8359375 16.592543,7.6571119 16.324839,7.5625647 16.0625,7.5585937 Z"
       id="path4-6-4-8"
       sodipodi:nodetypes="ssscssscccs"
       transform="matrix(0.70710678,-0.70710678,-0.70710678,-0.70710678,14.787488,45.6037)"
       inkscape:original-d="m 15.087222,17.628795 c -0.02592,0.280358 -0.765893,0.08004 -0.821621,-0.195934 -0.237544,-1.176374 -0.668956,-2.351745 -0.216799,-3.083913 0.521354,-0.844216 1.577933,-1.366261 2.015797,-2.045335 -0.428846,-0.905345 -0.437758,-3.2310091 -0.510197,-4.483416 -0.02074,-0.3586326 1.022152,-0.3422582 1.055816,0.015393 0.09697,1.0301719 0.203913,2.743905 0.417636,2.907239 0.427544,0.326742 0.480507,-0.179347 0.480507,-0.179347 l 0.318037,2.834014 c 0,0 -1.119704,0.469749 -2.639983,1.373094 0,0 0.01009,1.676095 -0.09919,2.858205 z"
       inkscape:path-effect="#path-effect5-4-3-6" /><path
       id="path1-3-1-4"
       style="fill:#66ff66;fill-opacity:1;stroke:#000000;stroke-width:0.265"
       d="m 19.343855,24.227235 c 0,-0.918208 -0.744355,-2.054432 -1.662562,-2.054432 -0.918206,0 -1.66256,1.136225 -1.66256,2.054431 0,0.918207 0.744355,1.662562 1.662561,1.662562 0.918207,0 1.662561,-0.744355 1.662561,-1.662561 z"
       sodipodi:nodetypes="zzzzz" /><path
       id="path1-7-1-1-0-72"
       style="fill:#ffffff;stroke:#000000;stroke-width:0.265;stroke-dasharray:none"
       d="m 21.331918,28.57881 c -0.146523,-0.146523 -0.683179,-0.360944 -0.938462,-0.105663 -0.255282,0.255282 -0.06081,0.826988 0.08572,0.97351 0.146521,0.146523 0.223167,0.322544 0.701648,-0.186145 0.478485,-0.508693 0.297619,-0.535178 0.151096,-0.681702 z"
       sodipodi:nodetypes="ssszs" /><path
       id="path1-7-1-9-7-7-4"
       style="fill:#ffffff;stroke:#000000;stroke-width:0.265;stroke-dasharray:none"
       d="m 23.070923,26.809016 c -0.146522,-0.146523 -0.683179,-0.360943 -0.93846,-0.105662 -0.255282,0.255282 -0.06081,0.826987 0.08572,0.97351 0.146521,0.146521 0.223167,0.322543 0.701648,-0.186146 0.478485,-0.508692 0.297619,-0.535179 0.151096,-0.681702 z"
       sodipodi:nodetypes="ssszs" /><path
       style="fill:#999999;fill-opacity:1;stroke:none;stroke-width:0.264999;stroke-dasharray:none;stroke-opacity:1"
       d="m 16.0625,7.5585937 c -0.262338,-0.00397 -0.518182,0.082402 -0.507812,0.2617188 0.07244,1.2524069 0.08092,3.5770765 0.509765,4.4824215 -0.437864,0.679074 -1.494271,1.202659 -2.015625,2.046875 -0.452157,0.732168 -0.02075,1.907611 0.216797,3.083985 0.05573,0.275974 0.796346,0.47567 0.822266,0.195312 0.10928,-1.18211 0.09766,-2.857422 0.09766,-2.857422 0.891495,-0.529723 1.646191,-0.910531 2.117187,-1.134765 0.470175,0.225954 1.221775,0.607646 2.111328,1.140625 0,0 -0.01512,1.676873 0.08984,2.859375 0.0249,0.280451 0.76553,0.08241 0.822266,-0.19336 0.241841,-1.175498 0.677994,-2.348215 0.228515,-3.082031 -0.518265,-0.846116 -1.574386,-1.372065 -2.009765,-2.052734 0.432152,-0.903772 0.450328,-3.2302883 0.527344,-4.4824221 0.02205,-0.3585544 -1.02167,-0.3458071 -1.056641,0.011719 -0.100734,1.0298107 -0.213416,2.7436984 -0.427734,2.9062504 -0.121107,0.09185 -0.211094,0.116149 -0.279297,0.105468 -0.06824,0.01043 -0.16048,-0.01512 -0.28125,-0.107421 C 16.813621,10.578854 16.706345,8.8661094 16.609375,7.8359375 16.592543,7.6571119 16.324839,7.5625647 16.0625,7.5585937 Z"
       id="path4-6-4"
       sodipodi:nodetypes="ssscssscccs"
       transform="rotate(-45,19.096813,22.90605)"
       inkscape:original-d="m 15.087222,17.628795 c -0.02592,0.280358 -0.765893,0.08004 -0.821621,-0.195934 -0.237544,-1.176374 -0.668956,-2.351745 -0.216799,-3.083913 0.521354,-0.844216 1.577933,-1.366261 2.015797,-2.045335 -0.428846,-0.905345 -0.437758,-3.2310091 -0.510197,-4.483416 -0.02074,-0.3586326 1.022152,-0.3422582 1.055816,0.015393 0.09697,1.0301719 0.203913,2.743905 0.417636,2.907239 0.427544,0.326742 0.480507,-0.179347 0.480507,-0.179347 l 0.318037,2.834014 c 0,0 -1.119704,0.469749 -2.639983,1.373094 0,0 0.01009,1.676095 -0.09919,2.858205 z"
       inkscape:path-effect="#path-effect5-4-3" /><ellipse
       style="fill:#ffffff;fill-opacity:1;stroke:#000000;stroke-width:0.265;stroke-dasharray:none;stroke-opacity:1"
       id="path1-7-2-9-9-1-9"
       cx="1.9298655"
       cy="-24.767807"
       rx="0.65429264"
       ry="0.80279088"
       transform="rotate(135)" /><path
       id="path1-3-1"
       style="fill:#6666ff;fill-opacity:1;stroke:#000000;stroke-width:0.265"
       d="m 10.772765,15.656145 c 0.918208,0 2.054432,0.744355 2.054432,1.662562 0,0.918206 -1.136225,1.66256 -2.054431,1.66256 -0.9182067,0 -1.6625614,-0.744355 -1.6625614,-1.662561 0,-0.918207 0.7443547,-1.662561 1.6625604,-1.662561 z"
       sodipodi:nodetypes="zzzzz" /><path
       id="path1-7-1-1-0"
       style="fill:#ffffff;stroke:#000000;stroke-width:0.265;stroke-dasharray:none"
       d="m 6.4211912,13.668082 c 0.1465232,0.146523 0.3609446,0.683179 0.1056635,0.938461 -0.2552818,0.255282 -0.826988,0.06081 -0.9735097,-0.08572 -0.146523,-0.146521 -0.3225438,-0.223167 0.1861453,-0.701648 0.5086926,-0.478485 0.535178,-0.297619 0.6817009,-0.151096 z"
       sodipodi:nodetypes="ssszs" /><path
       id="path1-7-1-9-7-7"
       style="fill:#ffffff;stroke:#000000;stroke-width:0.265;stroke-dasharray:none"
       d="m 8.1909852,11.929076 c 0.146523,0.146521 0.3609437,0.68318 0.105662,0.938461 -0.255281,0.255282 -0.8269877,0.06081 -0.9735094,-0.08572 -0.146521,-0.146522 -0.322543,-0.223168 0.1861457,-0.701649 0.5086917,-0.478485 0.5351787,-0.297619 0.6817017,-0.151097 z"
       sodipodi:nodetypes="ssszs" /><ellipse
       style="fill:#ffffff;fill-opacity:1;stroke:#000000;stroke-width:0.265;stroke-dasharray:none;stroke-opacity:1"
       id="path1-7-2-9-9-5"
       cx="7.0340667"
       cy="24.729668"
       rx="0.65429264"
       ry="0.80279088"
       transform="matrix(-0.70710678,0.70710678,0.70710678,0.70710678,0,0)" /><path
       style="fill:#999999;fill-opacity:1;stroke:none;stroke-width:0.264999;stroke-dasharray:none;stroke-opacity:1"
       d="m 16.689807,6.1130155 c 0.252363,-0.071762 0.521852,-0.054524 0.558245,0.1213694 0.254175,1.2284797 0.847653,3.4761334 0.667742,4.4616231 0.499982,-0.331389 1.081579,-0.9979737 1.926598,-0.8355317 0.710099,0.136508 0.945661,1.8729187 0.783154,3.0466807 -0.03861,0.278886 -1.098168,0.476184 -1.101919,0.194661 -0.01159,-0.870087 -0.168198,-1.231786 -0.0088,-1.856201 -0.538557,0.289983 -1.936882,1.15411 -2.449864,1.059419 -0.395675,0.339945 -1.729767,1.204369 -2.131902,1.832028 0,0 0.71908,2.095809 0.71222,2.895889 0.04853,0.277339 -0.791104,0.221293 -0.889249,-0.04259 -0.309667,-0.832609 -1.188755,-2.249709 -1.014846,-3.215009 0.175934,-0.976505 1.5358,-1.661524 1.780173,-2.431686 -0.65134,-0.761127 -1.271043,-3.0036651 -1.66951,-4.1932002 -0.1141,-0.3406308 0.897356,-0.5984521 1.023669,-0.2621589 0.363836,0.9686496 0.916265,2.5949734 1.165353,2.6965154 0.140754,0.05737 0.233965,0.05755 0.297076,0.02959 0.06862,-0.0076 0.151099,-0.05614 0.243864,-0.1765534 0.164169,-0.2130905 -0.1755,-1.8952401 -0.348463,-2.9154066 -0.03003,-0.177089 0.204091,-0.3376978 0.45646,-0.4094357 z"
       id="path4-6-3"
       sodipodi:nodetypes="sscsssccccsscscscssss" /><path
       id="path1-3-3"
       style="fill:#4d4d4d;fill-opacity:1;stroke:#000000;stroke-width:0.265"
       d="m 15.255223,11.705752 c 10e-7,0.918208 0.744354,2.054431 1.662562,2.054432 0.918208,10e-7 1.66256,-1.136225 1.662562,-2.054432 -1e-6,-0.918208 -0.744357,-1.662562 -1.662562,-1.662563 -0.918207,10e-7 -1.662562,0.744353 -1.662562,1.662563 z"
       sodipodi:nodetypes="zzzzz" /><path
       id="path1-7-1-1-0-7"
       style="fill:#ffffff;stroke:#000000;stroke-width:0.265;stroke-dasharray:none"
       d="m 16.068594,6.1264651 c 0.05363,0.2001526 0.411177,0.654176 0.759898,0.5607367 0.348721,-0.09344 0.466157,-0.6857885 0.41252,-0.885946 -0.05363,-0.200153 -0.032,-0.3909158 -0.700718,-0.1896205 -0.668727,0.2012985 -0.525333,0.3146696 -0.471704,0.5148246 z"
       sodipodi:nodetypes="ssszs" /><path
       id="path1-7-1-9-7-9"
       style="fill:#ffffff;stroke:#000000;stroke-width:0.265;stroke-dasharray:none"
       d="m 13.677673,6.7896486 c 0.05363,0.2001528 0.411178,0.6541764 0.759899,0.5607369 0.348721,-0.09344 0.466157,-0.6857884 0.41252,-0.8859459 -0.05363,-0.2001513 -0.032,-0.3909144 -0.700718,-0.1896205 -0.668725,0.2012989 -0.525335,0.3146693 -0.471703,0.5148232 z"
       sodipodi:nodetypes="ssszs" /><ellipse
       style="fill:#ffffff;fill-opacity:1;stroke:#000000;stroke-width:0.265;stroke-dasharray:none;stroke-opacity:1"
       id="path1-7-2-9-9-5-3"
       cx="20.027733"
       cy="-13.315356"
       rx="0.65429264"
       ry="0.80279088"
       transform="scale(1,-1)" /><ellipse
       style="fill:#ffffff;fill-opacity:1;stroke:#000000;stroke-width:0.265;stroke-dasharray:none;stroke-opacity:1"
       id="path1-7-2-9-9-1"
       cx="-10.228618"
       cy="20.163252"
       rx="0.65429264"
       ry="0.80279088"
       transform="matrix(-0.96592583,0.25881905,0.25881905,0.96592583,0,0)" /><path
       style="fill:#999999;fill-opacity:1;stroke:none;stroke-width:0.264999;stroke-dasharray:none;stroke-opacity:1"
       d="m 28.886984,18.310194 c 0.07176,-0.252363 0.05452,-0.521852 -0.12137,-0.558245 -1.228479,-0.254175 -3.476133,-0.847653 -4.461623,-0.667742 0.331389,-0.499982 0.997974,-1.081579 0.835532,-1.926598 -0.136508,-0.710099 -1.872919,-0.945661 -3.046681,-0.783154 -0.278886,0.03861 -0.476184,1.098168 -0.194661,1.101919 0.870087,0.01159 1.231786,0.168198 1.856201,0.0088 -0.289983,0.538557 -1.15411,1.936882 -1.059419,2.449864 -0.339945,0.395675 -1.204369,1.729767 -1.832028,2.131902 0,0 -2.095809,-0.71908 -2.895889,-0.71222 -0.277339,-0.04853 -0.221293,0.791104 0.04259,0.889249 0.832609,0.309667 2.249709,1.188755 3.215009,1.014846 0.976505,-0.175934 1.661524,-1.5358 2.431686,-1.780173 0.761127,0.65134 3.003665,1.271043 4.193201,1.66951 0.34063,0.1141 0.598452,-0.897356 0.262158,-1.023669 -0.968649,-0.363836 -2.594973,-0.916265 -2.696515,-1.165353 -0.05737,-0.140754 -0.05755,-0.233965 -0.02959,-0.297076 0.0076,-0.06862 0.05614,-0.151099 0.176553,-0.243864 0.213091,-0.164169 1.895241,0.1755 2.915407,0.348463 0.177089,0.03003 0.337698,-0.204091 0.409436,-0.45646 z"
       id="path4-6-3-9"
       sodipodi:nodetypes="sscsssccccsscscscssss" /><path
       id="path1-3-3-9"
       style="fill:#ff6666;fill-opacity:1;stroke:#000000;stroke-width:0.265"
       d="m 23.294247,19.744778 c -0.918208,-1e-6 -2.054431,-0.744354 -2.054432,-1.662562 -1e-6,-0.918208 1.136225,-1.66256 2.054432,-1.662562 0.918208,10e-7 1.662562,0.744357 1.662563,1.662562 -1e-6,0.918207 -0.744353,1.662562 -1.662563,1.662562 z"
       sodipodi:nodetypes="zzzzz" /><path
       id="path1-7-1-1-0-7-0"
       style="fill:#ffffff;stroke:#000000;stroke-width:0.265;stroke-dasharray:none"
       d="m 28.873534,18.931407 c -0.200152,-0.05363 -0.654176,-0.411177 -0.560736,-0.759898 0.09344,-0.348721 0.685788,-0.466157 0.885946,-0.41252 0.200153,0.05363 0.390915,0.032 0.18962,0.700718 -0.201298,0.668727 -0.31467,0.525333 -0.514825,0.471704 z"
       sodipodi:nodetypes="ssszs" /><path
       id="path1-7-1-9-7-9-8"
       style="fill:#ffffff;stroke:#000000;stroke-width:0.265;stroke-dasharray:none"
       d="m 28.210351,21.322328 c -0.200153,-0.05363 -0.654177,-0.411178 -0.560737,-0.759899 0.09344,-0.348721 0.685788,-0.466157 0.885946,-0.41252 0.200151,0.05363 0.390914,0.032 0.18962,0.700718 -0.201299,0.668725 -0.314669,0.525335 -0.514823,0.471703 z"
       sodipodi:nodetypes="ssszs" /><ellipse
       style="fill:#ffffff;fill-opacity:1;stroke:#000000;stroke-width:0.265;stroke-dasharray:none;stroke-opacity:1"
       id="path1-7-2-9-9-5-3-1"
       cx="-14.972269"
       cy="21.684643"
       rx="0.65429264"
       ry="0.80279088"
       transform="rotate(-90)" /><ellipse
       style="fill:#ffffff;fill-opacity:1;stroke:#000000;stroke-width:0.265;stroke-dasharray:none;stroke-opacity:1"
       id="path1-7-2-9-9-1-3"
       cx="14.520119"
       cy="-22.702818"
       rx="0.65429264"
       ry="0.80279088"
       transform="rotate(105)" /></g></svg>
