<?xml version="1.0" encoding="UTF-8" standalone="no"?>
<!-- Created with Inkscape (http://www.inkscape.org/) -->

<svg
   width="35mm"
   height="35mm"
   viewBox="0 0 35 35"
   version="1.1"
   id="svg1"
   xml:space="preserve"
   inkscape:version="1.4 (e7c3feb100, 2024-10-09)"
   sodipodi:docname="15_v1.svg"
   xmlns:inkscape="http://www.inkscape.org/namespaces/inkscape"
   xmlns:sodipodi="http://sodipodi.sourceforge.net/DTD/sodipodi-0.dtd"
   xmlns="http://www.w3.org/2000/svg"
   xmlns:svg="http://www.w3.org/2000/svg"><sodipodi:namedview
     id="namedview1"
     pagecolor="#ffffff"
     bordercolor="#000000"
     borderopacity="0.25"
     inkscape:showpageshadow="2"
     inkscape:pageopacity="0.0"
     inkscape:pagecheckerboard="0"
     inkscape:deskcolor="#d1d1d1"
     inkscape:document-units="mm"
     inkscape:zoom="6.0766399"
     inkscape:cx="77.756788"
     inkscape:cy="64.015641"
     inkscape:window-width="1916"
     inkscape:window-height="1023"
     inkscape:window-x="0"
     inkscape:window-y="0"
     inkscape:window-maximized="0"
     inkscape:current-layer="layer1"><sodipodi:guide
       position="0.17416423,17.540036"
       orientation="0,132.28346"
       id="guide5"
       inkscape:locked="false" /><sodipodi:guide
       position="35.000001,35.000001"
       orientation="132.28346,0"
       id="guide6"
       inkscape:locked="false" /><sodipodi:guide
       position="35.000001,0"
       orientation="0,-132.28346"
       id="guide7"
       inkscape:locked="false" /><sodipodi:guide
       position="17.503506,35.914363"
       orientation="-132.28346,0"
       id="guide8"
       inkscape:locked="false" /></sodipodi:namedview><defs
     id="defs1"><inkscape:path-effect
       effect="mirror_symmetry"
       start_point="17.297909,16.234992"
       end_point="17.313303,7.810326"
       center_point="17.305606,12.022659"
       id="path-effect5"
       is_visible="true"
       lpeversion="1.2"
       lpesatellites=""
       mode="free"
       discard_orig_path="false"
       fuse_paths="true"
       oposite_fuse="false"
       split_items="false"
       split_open="false"
       link_styles="false" /><inkscape:path-effect
       effect="mirror_symmetry"
       start_point="17.297909,16.234992"
       end_point="17.313303,7.810326"
       center_point="17.305606,12.022659"
       id="path-effect5-7"
       is_visible="true"
       lpeversion="1.2"
       lpesatellites=""
       mode="free"
       discard_orig_path="false"
       fuse_paths="true"
       oposite_fuse="false"
       split_items="false"
       split_open="false"
       link_styles="false" /><inkscape:path-effect
       effect="mirror_symmetry"
       start_point="17.297909,16.234992"
       end_point="17.313303,7.810326"
       center_point="17.305606,12.022659"
       id="path-effect5-6"
       is_visible="true"
       lpeversion="1.2"
       lpesatellites=""
       mode="free"
       discard_orig_path="false"
       fuse_paths="true"
       oposite_fuse="false"
       split_items="false"
       split_open="false"
       link_styles="false" /><inkscape:path-effect
       effect="mirror_symmetry"
       start_point="17.297909,16.234992"
       end_point="17.313303,7.810326"
       center_point="17.305606,12.022659"
       id="path-effect5-3"
       is_visible="true"
       lpeversion="1.2"
       lpesatellites=""
       mode="free"
       discard_orig_path="false"
       fuse_paths="true"
       oposite_fuse="false"
       split_items="false"
       split_open="false"
       link_styles="false" /><inkscape:path-effect
       effect="mirror_symmetry"
       start_point="17.297909,16.234992"
       end_point="17.313303,7.810326"
       center_point="17.305606,12.022659"
       id="path-effect5-66"
       is_visible="true"
       lpeversion="1.2"
       lpesatellites=""
       mode="free"
       discard_orig_path="false"
       fuse_paths="true"
       oposite_fuse="false"
       split_items="false"
       split_open="false"
       link_styles="false" /><inkscape:path-effect
       effect="mirror_symmetry"
       start_point="17.297909,16.234992"
       end_point="17.313303,7.810326"
       center_point="17.305606,12.022659"
       id="path-effect5-4"
       is_visible="true"
       lpeversion="1.2"
       lpesatellites=""
       mode="free"
       discard_orig_path="false"
       fuse_paths="true"
       oposite_fuse="false"
       split_items="false"
       split_open="false"
       link_styles="false" /><inkscape:path-effect
       effect="mirror_symmetry"
       start_point="17.297909,16.234992"
       end_point="17.313303,7.810326"
       center_point="17.305606,12.022659"
       id="path-effect5-4-7"
       is_visible="true"
       lpeversion="1.2"
       lpesatellites=""
       mode="free"
       discard_orig_path="false"
       fuse_paths="true"
       oposite_fuse="false"
       split_items="false"
       split_open="false"
       link_styles="false" /><inkscape:path-effect
       effect="mirror_symmetry"
       start_point="17.297909,16.234992"
       end_point="17.313303,7.810326"
       center_point="17.305606,12.022659"
       id="path-effect5-41"
       is_visible="true"
       lpeversion="1.2"
       lpesatellites=""
       mode="free"
       discard_orig_path="false"
       fuse_paths="true"
       oposite_fuse="false"
       split_items="false"
       split_open="false"
       link_styles="false" /><inkscape:path-effect
       effect="mirror_symmetry"
       start_point="17.297909,16.234992"
       end_point="17.313303,7.810326"
       center_point="17.305606,12.022659"
       id="path-effect5-4-0"
       is_visible="true"
       lpeversion="1.2"
       lpesatellites=""
       mode="free"
       discard_orig_path="false"
       fuse_paths="true"
       oposite_fuse="false"
       split_items="false"
       split_open="false"
       link_styles="false" /><inkscape:path-effect
       effect="mirror_symmetry"
       start_point="17.493844,16.300304"
       end_point="17.509238,7.875638"
       center_point="17.501541,12.087971"
       id="path-effect5-4-0-9"
       is_visible="true"
       lpeversion="1.2"
       lpesatellites=""
       mode="free"
       discard_orig_path="false"
       fuse_paths="true"
       oposite_fuse="false"
       split_items="false"
       split_open="false"
       link_styles="false" /><inkscape:path-effect
       effect="mirror_symmetry"
       start_point="17.297909,16.234992"
       end_point="17.313303,7.810326"
       center_point="17.305606,12.022659"
       id="path-effect5-4-0-0"
       is_visible="true"
       lpeversion="1.2"
       lpesatellites=""
       mode="free"
       discard_orig_path="false"
       fuse_paths="true"
       oposite_fuse="false"
       split_items="false"
       split_open="false"
       link_styles="false" /><inkscape:path-effect
       effect="mirror_symmetry"
       start_point="17.493844,16.300304"
       end_point="17.509238,7.875638"
       center_point="17.501541,12.087971"
       id="path-effect5-4-0-9-7"
       is_visible="true"
       lpeversion="1.2"
       lpesatellites=""
       mode="free"
       discard_orig_path="false"
       fuse_paths="true"
       oposite_fuse="false"
       split_items="false"
       split_open="false"
       link_styles="false" /><inkscape:path-effect
       effect="mirror_symmetry"
       start_point="17.493844,16.300304"
       end_point="17.509238,7.875638"
       center_point="17.501541,12.087971"
       id="path-effect5-4-0-9-3"
       is_visible="true"
       lpeversion="1.2"
       lpesatellites=""
       mode="free"
       discard_orig_path="false"
       fuse_paths="true"
       oposite_fuse="false"
       split_items="false"
       split_open="false"
       link_styles="false" /><inkscape:path-effect
       effect="mirror_symmetry"
       start_point="17.297909,16.234992"
       end_point="17.313303,7.810326"
       center_point="17.305606,12.022659"
       id="path-effect5-4-6"
       is_visible="true"
       lpeversion="1.2"
       lpesatellites=""
       mode="free"
       discard_orig_path="false"
       fuse_paths="true"
       oposite_fuse="false"
       split_items="false"
       split_open="false"
       link_styles="false" /><inkscape:path-effect
       effect="mirror_symmetry"
       start_point="17.493844,16.300304"
       end_point="17.509238,7.875638"
       center_point="17.501541,12.087971"
       id="path-effect5-4-0-9-72"
       is_visible="true"
       lpeversion="1.2"
       lpesatellites=""
       mode="free"
       discard_orig_path="false"
       fuse_paths="true"
       oposite_fuse="false"
       split_items="false"
       split_open="false"
       link_styles="false" /><inkscape:path-effect
       effect="mirror_symmetry"
       start_point="17.493844,16.300304"
       end_point="17.509238,7.875638"
       center_point="17.501541,12.087971"
       id="path-effect5-4-0-9-72-8"
       is_visible="true"
       lpeversion="1.2"
       lpesatellites=""
       mode="free"
       discard_orig_path="false"
       fuse_paths="true"
       oposite_fuse="false"
       split_items="false"
       split_open="false"
       link_styles="false" /><inkscape:path-effect
       effect="mirror_symmetry"
       start_point="17.297909,16.234992"
       end_point="17.313303,7.810326"
       center_point="17.305606,12.022659"
       id="path-effect5-4-6-1"
       is_visible="true"
       lpeversion="1.2"
       lpesatellites=""
       mode="free"
       discard_orig_path="false"
       fuse_paths="true"
       oposite_fuse="false"
       split_items="false"
       split_open="false"
       link_styles="false" /><inkscape:path-effect
       effect="mirror_symmetry"
       start_point="17.297909,16.234992"
       end_point="17.313303,7.810326"
       center_point="17.305606,12.022659"
       id="path-effect5-4-6-2"
       is_visible="true"
       lpeversion="1.2"
       lpesatellites=""
       mode="free"
       discard_orig_path="false"
       fuse_paths="true"
       oposite_fuse="false"
       split_items="false"
       split_open="false"
       link_styles="false" /></defs><g
     inkscape:label="Layer 1"
     inkscape:groupmode="layer"
     id="layer1"><path
       style="fill:#999999;fill-opacity:1;stroke:none;stroke-width:0.1"
       d="m 12.570539,17.414855 c 0,0 -3.0685792,0.37801 -3.0478752,-0.718429 0.017,-0.900156 3.0043342,-0.435412 3.0043342,-0.435412 z"
       id="path2"
       sodipodi:nodetypes="cscc" /><path
       id="path1-7-1-1-6"
       style="fill:#ffffff;stroke:#000000;stroke-width:0.265;stroke-dasharray:none"
       d="m 9.6261338,16.068092 c 0.206071,0.02173 0.7103442,0.304016 0.6724882,0.663049 -0.03786,0.359033 -0.6046142,0.567495 -0.8106852,0.545766 -0.206072,-0.02173 -0.391116,0.02942 -0.29668,-0.662527 0.09444,-0.691952 0.228804,-0.568016 0.434877,-0.546288 z"
       sodipodi:nodetypes="ssszs" /><path
       style="fill:#999999;fill-opacity:1;stroke:none;stroke-width:0.264999;stroke-dasharray:none;stroke-opacity:1"
       d="m 13.230376,14.204347 c -0.111804,-0.695117 0.160589,-2.219573 -0.232046,-2.417437 -0.251424,-0.126702 -0.629765,-0.190554 -0.913739,0.212692 -0.148943,0.211501 -0.168682,1.425663 0.114335,2.14409 -0.185827,0.742303 0.319291,2.838469 0.548508,3.322041 -0.617824,0.883815 -0.543881,1.82388 -0.489056,2.931138 -0.283017,0.936133 -0.3271,1.334652 -0.268682,2.484598 0.437977,0.351458 0.241792,0.459318 0.715853,0.278002 0.549323,-0.2101 0.563752,-1.848217 0.600191,-2.623425 0.03538,-0.752716 -0.02125,-1.465533 0.354632,-1.726748 0.903772,0.432152 3.230287,0.450328 4.482421,0.527344 0.358554,0.02205 0.345807,-1.02167 -0.01172,-1.056641 -1.354223,-0.08962 -3.437481,-0.416734 -4.743513,-0.67096 0.196574,-0.858821 -0.03715,-2.658421 -0.157184,-3.404694 z"
       id="path4-6-8"
       sodipodi:nodetypes="sssccccssccccs" /><ellipse
       style="fill:#ffffff;fill-opacity:1;stroke:#000000;stroke-width:0.265;stroke-dasharray:none;stroke-opacity:1"
       id="path1-7-2-9-9-1-3-1"
       cx="-12.496413"
       cy="-12.251119"
       rx="0.65429264"
       ry="0.80279088"
       transform="scale(-1)" /><path
       id="path1-3-8"
       style="fill:#6666ff;fill-opacity:1;stroke:#000000;stroke-width:0.265"
       d="m 12.95714,19.227155 c -0.918208,0 -2.054432,-0.744354 -2.054432,-1.662562 0,-0.918208 1.136225,-1.662561 2.054432,-1.662561 0.918207,0 1.662561,0.744355 1.662561,1.662561 0,0.918207 -0.744353,1.662562 -1.662561,1.662562 z"
       sodipodi:nodetypes="zzzzz" /><path
       id="path1-7-1-9-7-31"
       style="fill:#ffffff;stroke:#000000;stroke-width:0.265;stroke-dasharray:none"
       d="m 18.53639,19.411496 c -0.207214,0 -0.738307,-0.227855 -0.738307,-0.588877 0,-0.361023 0.541773,-0.627766 0.748987,-0.627766 0.207213,0 0.385875,-0.07027 0.364515,0.627766 -0.02136,0.69804 -0.167981,0.588877 -0.375195,0.588877 z"
       sodipodi:nodetypes="ssszs" /><path
       style="fill:#999999;fill-opacity:1;stroke:none;stroke-width:0.264999;stroke-dasharray:none;stroke-opacity:1"
       d="m 16.273959,5.1384639 c -0.262339,-0.004 -0.518183,0.0824 -0.507812,0.261718 0.07244,1.252407 0.08092,3.577077 0.509765,4.482422 -0.714958,0.2942221 -1.455821,0.4774341 -2.016318,0.9527701 -0.354089,0.300289 -1.100898,1.447451 -1.410357,2.515451 -0.105052,0.362553 0.62333,0.985966 0.790217,0.564984 0.346966,-0.875243 0.927155,-1.565772 1.296614,-2.304688 0.767798,-0.194469 1.915366,-0.416044 2.578125,-0.539062 0.662306,0.125439 2.548006,-0.0179 3.253512,-0.282452 0.508004,0.692734 0.702701,0.905684 1.000174,1.596559 0.445624,0.0806 0.467663,-0.480362 0.836399,-0.561076 -0.312742,-0.85284 -1.036165,-1.82008 -1.494863,-2.0247941 -0.443961,-0.198137 -1.779109,0.02992 -2.353034,0.08816 0.432152,-0.903772 0.450328,-3.230288 0.527344,-4.482422 0.02205,-0.358555 -1.02167,-0.345807 -1.056641,0.01172 -0.100734,1.029811 -0.213416,2.743698 -0.427734,2.90625 -0.121107,0.09185 -0.211094,0.116149 -0.279297,0.105468 -0.06824,0.01043 -0.16048,-0.01512 -0.28125,-0.107421 -0.213723,-0.163327 -0.320999,-1.876072 -0.417969,-2.906244 -0.01683,-0.178825 -0.284536,-0.273372 -0.546875,-0.277344 z"
       id="path4-6-2"
       sodipodi:nodetypes="cscssscccccscscscsscc" /><path
       id="path1-3-2"
       style="fill:#4d4d4d;fill-opacity:1;stroke:#000000;stroke-width:0.265"
       d="m 19.174244,10.591694 c 0,0.918208 -0.744354,2.054432 -1.662562,2.054432 -0.918208,0 -1.662561,-1.136225 -1.662561,-2.054432 0,-0.9182071 0.744355,-1.6625621 1.662561,-1.6625621 0.918207,0 1.662562,0.744354 1.662562,1.6625621 z"
       sodipodi:nodetypes="zzzzz" /><path
       id="path1-7-1-1-2"
       style="fill:#ffffff;stroke:#000000;stroke-width:0.265;stroke-dasharray:none"
       d="m 16.877488,4.9906719 c 0,0.207214 -0.227855,0.738307 -0.588877,0.738307 -0.361023,0 -0.627766,-0.541773 -0.627766,-0.748987 0,-0.207214 -0.07027,-0.385876 0.627766,-0.364516 0.69804,0.02136 0.588877,0.167981 0.588877,0.375196 z"
       sodipodi:nodetypes="ssszs" /><path
       id="path1-7-1-9-7-0"
       style="fill:#ffffff;stroke:#000000;stroke-width:0.265;stroke-dasharray:none"
       d="m 19.358585,5.0124419 c 0,0.207214 -0.227855,0.738307 -0.588877,0.738307 -0.361023,0 -0.627766,-0.541773 -0.627766,-0.748987 0,-0.207213 -0.07027,-0.385875 0.627766,-0.364515 0.69804,0.02136 0.588877,0.167981 0.588877,0.375195 z"
       sodipodi:nodetypes="ssszs" /><path
       style="fill:#999999;fill-opacity:1;stroke:none;stroke-width:0.1"
       d="m 22.429459,17.585147 c 0,0 3.068579,-0.37801 3.047875,0.718429 -0.017,0.900156 -3.004334,0.435412 -3.004334,0.435412 z"
       id="path2-5"
       sodipodi:nodetypes="cscc" /><path
       id="path1-7-1-1-6-5"
       style="fill:#ffffff;stroke:#000000;stroke-width:0.265;stroke-dasharray:none"
       d="m 25.373864,18.93191 c -0.206071,-0.02173 -0.710344,-0.304016 -0.672488,-0.663049 0.03786,-0.359033 0.604614,-0.567495 0.810685,-0.545766 0.206072,0.02173 0.391116,-0.02942 0.29668,0.662527 -0.09444,0.691952 -0.228804,0.568016 -0.434877,0.546288 z"
       sodipodi:nodetypes="ssszs" /><path
       style="fill:#999999;fill-opacity:1;stroke:none;stroke-width:0.264999;stroke-dasharray:none;stroke-opacity:1"
       d="m 21.769622,20.795655 c 0.111804,0.695117 -0.160589,2.219573 0.232046,2.417437 0.251424,0.126702 0.629765,0.190554 0.913739,-0.212692 0.148943,-0.211501 0.168682,-1.425663 -0.114335,-2.14409 0.185827,-0.742303 -0.319291,-2.838469 -0.548508,-3.322041 0.617824,-0.883815 0.543881,-1.82388 0.489056,-2.931138 0.283017,-0.936133 0.3271,-1.334652 0.268682,-2.484598 -0.437977,-0.351458 -0.241792,-0.459318 -0.715853,-0.278002 -0.549323,0.2101 -0.563752,1.848217 -0.600191,2.623425 -0.03538,0.752716 0.02125,1.465533 -0.354632,1.726748 -0.903772,-0.432152 -3.230287,-0.450328 -4.482421,-0.527344 -0.358554,-0.02205 -0.345807,1.02167 0.01172,1.056641 1.354223,0.08962 3.437481,0.416734 4.743513,0.67096 -0.196574,0.858821 0.03715,2.658421 0.157184,3.404694 z"
       id="path4-6-8-2"
       sodipodi:nodetypes="sssccccssccccs" /><ellipse
       style="fill:#ffffff;fill-opacity:1;stroke:#000000;stroke-width:0.265;stroke-dasharray:none;stroke-opacity:1"
       id="path1-7-2-9-9-1-3-1-9"
       cx="22.503584"
       cy="22.748882"
       rx="0.65429264"
       ry="0.80279088" /><path
       id="path1-3-8-0"
       style="fill:#ff6666;fill-opacity:1;stroke:#000000;stroke-width:0.265"
       d="m 22.042858,15.772847 c 0.918208,0 2.054432,0.744354 2.054432,1.662562 0,0.918208 -1.136225,1.662561 -2.054432,1.662561 -0.918207,0 -1.662561,-0.744355 -1.662561,-1.662561 0,-0.918207 0.744353,-1.662562 1.662561,-1.662562 z"
       sodipodi:nodetypes="zzzzz" /><path
       id="path1-7-1-9-7-31-2"
       style="fill:#ffffff;stroke:#000000;stroke-width:0.265;stroke-dasharray:none"
       d="m 16.463608,15.588506 c 0.207214,0 0.738307,0.227855 0.738307,0.588877 0,0.361023 -0.541773,0.627766 -0.748987,0.627766 -0.207213,0 -0.385875,0.07027 -0.364515,-0.627766 0.02136,-0.69804 0.167981,-0.588877 0.375195,-0.588877 z"
       sodipodi:nodetypes="ssszs" /><ellipse
       style="fill:#ffffff;fill-opacity:1;stroke:#000000;stroke-width:0.265;stroke-dasharray:none;stroke-opacity:1"
       id="path1-7-2-9-9-1-9-9-8"
       cx="7.1489134"
       cy="24.480431"
       rx="0.65429264"
       ry="0.80279088"
       transform="rotate(-45)" /><ellipse
       style="fill:#ffffff;fill-opacity:1;stroke:#000000;stroke-width:0.265;stroke-dasharray:none;stroke-opacity:1"
       id="path1-7-2-9-9-1-3"
       cx="-18.200302"
       cy="-5.2074218"
       rx="0.65429264"
       ry="0.80279088"
       transform="rotate(-150)" /><path
       style="fill:#999999;fill-opacity:1;stroke:none;stroke-width:0.264999;stroke-dasharray:none;stroke-opacity:1"
       d="m 18.726039,29.861538 c 0.262339,0.004 0.518183,-0.0824 0.507812,-0.261718 -0.07244,-1.252407 -0.08092,-3.577077 -0.509765,-4.482422 0.714958,-0.294222 1.455821,-0.477434 2.016318,-0.95277 0.354089,-0.300289 1.100898,-1.447451 1.410357,-2.515451 0.105052,-0.362553 -0.62333,-0.985966 -0.790217,-0.564984 -0.346966,0.875243 -0.927155,1.565772 -1.296614,2.304688 -0.767798,0.194469 -1.915366,0.416044 -2.578125,0.539062 -0.662306,-0.125439 -2.548006,0.0179 -3.253512,0.282452 -0.508004,-0.692734 -0.702701,-0.905684 -1.000174,-1.596559 -0.445624,-0.0806 -0.467663,0.480362 -0.836399,0.561076 0.312742,0.85284 1.036165,1.82008 1.494863,2.024794 0.443961,0.198137 1.779109,-0.02992 2.353034,-0.08816 -0.432152,0.903772 -0.450328,3.230288 -0.527344,4.482422 -0.02205,0.358555 1.02167,0.345807 1.056641,-0.01172 0.100734,-1.029811 0.213416,-2.743698 0.427734,-2.90625 0.121107,-0.09185 0.211094,-0.116149 0.279297,-0.105468 0.06824,-0.01043 0.16048,0.01512 0.28125,0.107421 0.213723,0.163327 0.320999,1.876072 0.417969,2.906244 0.01683,0.178825 0.284536,0.273372 0.546875,0.277344 z"
       id="path4-6"
       sodipodi:nodetypes="cscssscccccscscscsscc" /><path
       id="path1-3"
       style="fill:#66ff66;fill-opacity:1;stroke:#000000;stroke-width:0.265"
       d="m 15.825754,24.408308 c 0,-0.918208 0.744354,-2.054432 1.662562,-2.054432 0.918208,0 1.662561,1.136225 1.662561,2.054432 0,0.918207 -0.744355,1.662562 -1.662561,1.662562 -0.918207,0 -1.662562,-0.744354 -1.662562,-1.662562 z"
       sodipodi:nodetypes="zzzzz" /><path
       id="path1-7-1-1"
       style="fill:#ffffff;stroke:#000000;stroke-width:0.265;stroke-dasharray:none"
       d="m 18.12251,30.00933 c 0,-0.207214 0.227855,-0.738307 0.588877,-0.738307 0.361023,0 0.627766,0.541773 0.627766,0.748987 0,0.207214 0.07027,0.385876 -0.627766,0.364516 -0.69804,-0.02136 -0.588877,-0.167981 -0.588877,-0.375196 z"
       sodipodi:nodetypes="ssszs" /><path
       id="path1-7-1-9-7"
       style="fill:#ffffff;stroke:#000000;stroke-width:0.265;stroke-dasharray:none"
       d="m 15.641413,29.98756 c 0,-0.207214 0.227855,-0.738307 0.588877,-0.738307 0.361023,0 0.627766,0.541773 0.627766,0.748987 0,0.207213 0.07027,0.385875 -0.627766,0.364515 -0.69804,-0.02136 -0.588877,-0.167981 -0.588877,-0.375195 z"
       sodipodi:nodetypes="ssszs" /><ellipse
       style="fill:#ffffff;fill-opacity:1;stroke:#000000;stroke-width:0.265;stroke-dasharray:none;stroke-opacity:1"
       id="path1-7-2-9-9-1-9-9"
       cx="7.1489158"
       cy="-25.017044"
       rx="0.65429264"
       ry="0.80279088"
       transform="rotate(135)" /><ellipse
       style="fill:#ffffff;fill-opacity:1;stroke:#000000;stroke-width:0.265;stroke-dasharray:none;stroke-opacity:1"
       id="path1-7-2-9-9-1"
       cx="29.610586"
       cy="7.6034694"
       rx="0.65429264"
       ry="0.80279088"
       transform="rotate(30)" /></g></svg>
