<?xml version="1.0" encoding="UTF-8" standalone="no"?>
<!-- Created with Inkscape (http://www.inkscape.org/) -->

<svg
   width="35mm"
   height="35mm"
   viewBox="0 0 35 35"
   version="1.1"
   id="svg1"
   xml:space="preserve"
   inkscape:version="1.4 (e7c3feb100, 2024-10-09)"
   sodipodi:docname="16_v2.svg"
   xmlns:inkscape="http://www.inkscape.org/namespaces/inkscape"
   xmlns:sodipodi="http://sodipodi.sourceforge.net/DTD/sodipodi-0.dtd"
   xmlns="http://www.w3.org/2000/svg"
   xmlns:svg="http://www.w3.org/2000/svg"><sodipodi:namedview
     id="namedview1"
     pagecolor="#ffffff"
     bordercolor="#000000"
     borderopacity="0.25"
     inkscape:showpageshadow="2"
     inkscape:pageopacity="0.0"
     inkscape:pagecheckerboard="0"
     inkscape:deskcolor="#d1d1d1"
     inkscape:document-units="mm"
     inkscape:zoom="1.51916"
     inkscape:cx="201.09798"
     inkscape:cy="137.57603"
     inkscape:window-width="1290"
     inkscape:window-height="1023"
     inkscape:window-x="0"
     inkscape:window-y="0"
     inkscape:window-maximized="0"
     inkscape:current-layer="layer1" /><defs
     id="defs1"><inkscape:path-effect
       effect="mirror_symmetry"
       start_point="17.297909,16.234992"
       end_point="17.313303,7.810326"
       center_point="17.305606,12.022659"
       id="path-effect5"
       is_visible="true"
       lpeversion="1.2"
       lpesatellites=""
       mode="free"
       discard_orig_path="false"
       fuse_paths="true"
       oposite_fuse="false"
       split_items="false"
       split_open="false"
       link_styles="false" /><inkscape:path-effect
       effect="mirror_symmetry"
       start_point="17.297909,16.234992"
       end_point="17.313303,7.810326"
       center_point="17.305606,12.022659"
       id="path-effect5-7"
       is_visible="true"
       lpeversion="1.2"
       lpesatellites=""
       mode="free"
       discard_orig_path="false"
       fuse_paths="true"
       oposite_fuse="false"
       split_items="false"
       split_open="false"
       link_styles="false" /><inkscape:path-effect
       effect="mirror_symmetry"
       start_point="17.297909,16.234992"
       end_point="17.313303,7.810326"
       center_point="17.305606,12.022659"
       id="path-effect5-6"
       is_visible="true"
       lpeversion="1.2"
       lpesatellites=""
       mode="free"
       discard_orig_path="false"
       fuse_paths="true"
       oposite_fuse="false"
       split_items="false"
       split_open="false"
       link_styles="false" /><inkscape:path-effect
       effect="mirror_symmetry"
       start_point="17.297909,16.234992"
       end_point="17.313303,7.810326"
       center_point="17.305606,12.022659"
       id="path-effect5-3"
       is_visible="true"
       lpeversion="1.2"
       lpesatellites=""
       mode="free"
       discard_orig_path="false"
       fuse_paths="true"
       oposite_fuse="false"
       split_items="false"
       split_open="false"
       link_styles="false" /><inkscape:path-effect
       effect="mirror_symmetry"
       start_point="17.297909,16.234992"
       end_point="17.313303,7.810326"
       center_point="17.305606,12.022659"
       id="path-effect5-66"
       is_visible="true"
       lpeversion="1.2"
       lpesatellites=""
       mode="free"
       discard_orig_path="false"
       fuse_paths="true"
       oposite_fuse="false"
       split_items="false"
       split_open="false"
       link_styles="false" /><inkscape:path-effect
       effect="mirror_symmetry"
       start_point="17.297909,16.234992"
       end_point="17.313303,7.810326"
       center_point="17.305606,12.022659"
       id="path-effect5-4"
       is_visible="true"
       lpeversion="1.2"
       lpesatellites=""
       mode="free"
       discard_orig_path="false"
       fuse_paths="true"
       oposite_fuse="false"
       split_items="false"
       split_open="false"
       link_styles="false" /><inkscape:path-effect
       effect="mirror_symmetry"
       start_point="17.297909,16.234992"
       end_point="17.313303,7.810326"
       center_point="17.305606,12.022659"
       id="path-effect5-4-7"
       is_visible="true"
       lpeversion="1.2"
       lpesatellites=""
       mode="free"
       discard_orig_path="false"
       fuse_paths="true"
       oposite_fuse="false"
       split_items="false"
       split_open="false"
       link_styles="false" /><inkscape:path-effect
       effect="mirror_symmetry"
       start_point="17.297909,16.234992"
       end_point="17.313303,7.810326"
       center_point="17.305606,12.022659"
       id="path-effect5-41"
       is_visible="true"
       lpeversion="1.2"
       lpesatellites=""
       mode="free"
       discard_orig_path="false"
       fuse_paths="true"
       oposite_fuse="false"
       split_items="false"
       split_open="false"
       link_styles="false" /><inkscape:path-effect
       effect="mirror_symmetry"
       start_point="17.297909,16.234992"
       end_point="17.313303,7.810326"
       center_point="17.305606,12.022659"
       id="path-effect5-62"
       is_visible="true"
       lpeversion="1.2"
       lpesatellites=""
       mode="free"
       discard_orig_path="false"
       fuse_paths="true"
       oposite_fuse="false"
       split_items="false"
       split_open="false"
       link_styles="false" /><inkscape:path-effect
       effect="mirror_symmetry"
       start_point="17.297909,16.234992"
       end_point="17.313303,7.810326"
       center_point="17.305606,12.022659"
       id="path-effect5-4-9"
       is_visible="true"
       lpeversion="1.2"
       lpesatellites=""
       mode="free"
       discard_orig_path="false"
       fuse_paths="true"
       oposite_fuse="false"
       split_items="false"
       split_open="false"
       link_styles="false" /><inkscape:path-effect
       effect="mirror_symmetry"
       start_point="17.493844,16.300304"
       end_point="17.509238,7.875638"
       center_point="17.501541,12.087971"
       id="path-effect5-4-0-9-72-8"
       is_visible="true"
       lpeversion="1.2"
       lpesatellites=""
       mode="free"
       discard_orig_path="false"
       fuse_paths="true"
       oposite_fuse="false"
       split_items="false"
       split_open="false"
       link_styles="false" /><inkscape:path-effect
       effect="mirror_symmetry"
       start_point="17.493844,16.300304"
       end_point="17.509238,7.875638"
       center_point="17.501541,12.087971"
       id="path-effect5-4-0-9-72-8-3"
       is_visible="true"
       lpeversion="1.2"
       lpesatellites=""
       mode="free"
       discard_orig_path="false"
       fuse_paths="true"
       oposite_fuse="false"
       split_items="false"
       split_open="false"
       link_styles="false" /><inkscape:path-effect
       effect="mirror_symmetry"
       start_point="17.493844,16.300304"
       end_point="17.509238,7.875638"
       center_point="17.501541,12.087971"
       id="path-effect5-4-0-9-5-7-4"
       is_visible="true"
       lpeversion="1.2"
       lpesatellites=""
       mode="free"
       discard_orig_path="false"
       fuse_paths="true"
       oposite_fuse="false"
       split_items="false"
       split_open="false"
       link_styles="false" /><inkscape:path-effect
       effect="mirror_symmetry"
       start_point="17.493844,16.300304"
       end_point="17.509238,7.875638"
       center_point="17.501541,12.087971"
       id="path-effect5-4-0-9-5-7-4-9"
       is_visible="true"
       lpeversion="1.2"
       lpesatellites=""
       mode="free"
       discard_orig_path="false"
       fuse_paths="true"
       oposite_fuse="false"
       split_items="false"
       split_open="false"
       link_styles="false" /></defs><g
     inkscape:label="Layer 1"
     inkscape:groupmode="layer"
     id="layer1"><path
       style="fill:#999999;fill-opacity:1;stroke:none;stroke-width:0.264999;stroke-dasharray:none;stroke-opacity:1"
       d="m 7.113404,17.320612 c -0.004,-0.262338 0.0824,-0.518182 0.261719,-0.507812 1.252406,0.07244 3.577076,0.08092 4.482421,0.509765 0.679074,-0.437864 1.855144,-1.952325 2.847368,-1.954049 0.958877,-0.0017 1.861428,0.887502 2.729921,1.540689 0.225009,0.169228 0.03008,1.13571 -0.220329,1.006995 -1.105139,-0.56806 -2.410993,-1.426355 -2.410993,-1.426355 -0.837605,0.737554 -1.757206,1.507644 -1.611982,2.071005 0.225954,0.470175 0.700011,2.206996 0.986684,3.127338 0.561353,0.01046 1.51115,-0.07393 2.624604,0.109098 0.280451,0.0249 0.08605,0.833824 -0.193359,0.868447 -1.206286,0.149477 -2.633842,0.422144 -3.401448,-0.175635 -0.715167,-0.5569 -0.663937,-2.251727 -1.344606,-2.687106 -0.903772,0.432152 -3.230288,0.450328 -4.482422,0.527344 -0.358554,0.02205 -0.345807,-1.02167 0.01172,-1.056641 1.029811,-0.100734 2.743698,-0.213416 2.90625,-0.427734 0.09185,-0.121107 0.116149,-0.211094 0.105468,-0.279297 0.01043,-0.06824 -0.01512,-0.16048 -0.107422,-0.28125 C 10.133665,18.071687 8.42092,17.964411 7.390749,17.867441 7.211923,17.850611 7.117376,17.582905 7.113404,17.320566 Z"
       id="path4-6-5-8"
       sodipodi:nodetypes="ssssssscccsscscscssss" /><path
       id="path1-3"
       style="fill:#6666ff;fill-opacity:1;stroke:#000000;stroke-width:0.265"
       d="m 12.566633,20.220894 c 0.918208,0 2.054432,-0.744354 2.054432,-1.662562 0,-0.918208 -1.136225,-1.662561 -2.054432,-1.662561 -0.918207,0 -1.662561,0.744355 -1.662561,1.662561 0,0.918207 0.744353,1.662562 1.662561,1.662562 z"
       sodipodi:nodetypes="zzzzz" /><path
       id="path1-7-1-1"
       style="fill:#ffffff;stroke:#000000;stroke-width:0.265;stroke-dasharray:none"
       d="m 6.965612,17.924138 c 0.207214,0 0.738307,-0.227855 0.738307,-0.588877 0,-0.361023 -0.541773,-0.627766 -0.748987,-0.627766 -0.207214,0 -0.385876,-0.07027 -0.364516,0.627766 0.02136,0.69804 0.167981,0.588877 0.375196,0.588877 z"
       sodipodi:nodetypes="ssszs" /><path
       id="path1-7-1-9-7"
       style="fill:#ffffff;stroke:#000000;stroke-width:0.265;stroke-dasharray:none"
       d="m 6.987382,20.405235 c 0.207214,0 0.738307,-0.227855 0.738307,-0.588877 0,-0.361023 -0.541773,-0.627766 -0.748987,-0.627766 -0.207213,0 -0.385875,-0.07027 -0.364515,0.627766 0.02136,0.69804 0.167981,0.588877 0.375195,0.588877 z"
       sodipodi:nodetypes="ssszs" /><path
       style="fill:#999999;fill-opacity:1;stroke:none;stroke-width:0.264999;stroke-dasharray:none;stroke-opacity:1"
       d="m 27.886596,17.679388 c 0.004,0.262338 -0.0824,0.518182 -0.261719,0.507812 -1.252406,-0.07244 -3.577076,-0.08092 -4.482421,-0.509765 -0.679074,0.437864 -1.855144,1.952325 -2.847368,1.954049 -0.958877,0.0017 -1.861428,-0.887502 -2.729921,-1.540689 -0.225009,-0.169228 -0.03008,-1.13571 0.220329,-1.006995 1.105139,0.56806 2.410993,1.426355 2.410993,1.426355 0.837605,-0.737554 1.757206,-1.507644 1.611982,-2.071005 -0.225954,-0.470175 -0.700011,-2.206996 -0.986684,-3.127338 -0.561353,-0.01046 -1.51115,0.07393 -2.624604,-0.109098 -0.280451,-0.0249 -0.08605,-0.833824 0.193359,-0.868447 1.206286,-0.149477 2.633842,-0.422144 3.401448,0.175635 0.715167,0.5569 0.663937,2.251727 1.344606,2.687106 0.903772,-0.432152 3.230288,-0.450328 4.482422,-0.527344 0.358554,-0.02205 0.345807,1.02167 -0.01172,1.056641 -1.029811,0.100734 -2.743698,0.213416 -2.90625,0.427734 -0.09185,0.121107 -0.116149,0.211094 -0.105468,0.279297 -0.01043,0.06824 0.01512,0.16048 0.107422,0.28125 0.163333,0.213727 1.876078,0.321003 2.906249,0.417973 0.178826,0.01683 0.273373,0.284536 0.277345,0.546875 z"
       id="path4-6-5"
       sodipodi:nodetypes="ssssssscccsscscscssss" /><path
       id="path1-3-6"
       style="fill:#ff6666;fill-opacity:1;stroke:#000000;stroke-width:0.265"
       d="m 22.433367,14.779106 c -0.918208,0 -2.054432,0.744354 -2.054432,1.662562 0,0.918208 1.136225,1.662561 2.054432,1.662561 0.918207,0 1.662561,-0.744355 1.662561,-1.662561 0,-0.918207 -0.744353,-1.662562 -1.662561,-1.662562 z"
       sodipodi:nodetypes="zzzzz" /><path
       id="path1-7-1-1-6"
       style="fill:#ffffff;stroke:#000000;stroke-width:0.265;stroke-dasharray:none"
       d="m 28.034388,17.075862 c -0.207214,0 -0.738307,0.227855 -0.738307,0.588877 0,0.361023 0.541773,0.627766 0.748987,0.627766 0.207214,0 0.385876,0.07027 0.364516,-0.627766 -0.02136,-0.69804 -0.167981,-0.588877 -0.375196,-0.588877 z"
       sodipodi:nodetypes="ssszs" /><path
       id="path1-7-1-9-7-4"
       style="fill:#ffffff;stroke:#000000;stroke-width:0.265;stroke-dasharray:none"
       d="m 28.012618,14.594765 c -0.207214,0 -0.738307,0.227855 -0.738307,0.588877 0,0.361023 0.541773,0.627766 0.748987,0.627766 0.207213,0 0.385875,0.07027 0.364515,-0.627766 -0.02136,-0.69804 -0.167981,-0.588877 -0.375195,-0.588877 z"
       sodipodi:nodetypes="ssszs" /><ellipse
       style="fill:#ffffff;fill-opacity:1;stroke:#000000;stroke-width:0.265;stroke-dasharray:none;stroke-opacity:1"
       id="path1-7-2-9-9"
       cx="-17.5"
       cy="-17.5"
       rx="0.65429264"
       ry="0.80279088"
       transform="matrix(0,-1,-1,0,0,0)" /><path
       style="fill:#999999;fill-opacity:1;stroke:none;stroke-width:0.264999;stroke-dasharray:none;stroke-opacity:1"
       d="m 18.641705,3.231408 c 0.262339,-0.004 0.518183,0.0824 0.507812,0.261718 -0.07244,1.252407 -0.08092,3.577077 -0.509765,4.48242 0.437864,0.679074 1.45073,-0.168883 1.972084,0.675332 0.452157,0.732168 -0.349349,2.081774 -0.848142,2.343786 -0.249249,0.130928 -1.037875,-0.472671 -0.822266,-0.653739 0.500289,-0.420141 0.467469,-0.462663 0.706945,-0.985155 -0.459065,-0.230808 -1.657732,0.460619 -2.246902,-0.08139 -0.588368,0.0052 -1.103297,0.859515 -1.722051,1.412059 0.424849,0.512835 1.690651,1.291692 2.269591,1.529043 -0.0249,0.280451 0.125747,1.058665 -0.147059,0.989085 -0.938498,-0.239365 -3.241413,-1.488045 -3.300824,-2.420749 -0.05154,-0.809115 1.222776,-2.12173 1.658155,-2.802402 -0.432152,-0.90377 -0.450328,-3.230286 -0.527344,-4.48242 -0.02205,-0.358555 1.02167,-0.345807 1.056641,0.01172 0.100734,1.029811 0.213416,2.743698 0.427734,2.90625 0.121107,0.09185 0.211094,0.116149 0.279297,0.105468 0.06824,0.01043 0.16048,-0.01512 0.28125,-0.107421 C 17.890584,6.251669 17.99786,4.538924 18.09483,3.508752 18.11166,3.329927 18.379366,3.23538 18.641705,3.231408 Z"
       id="path4-4-5-2"
       sodipodi:nodetypes="ssscssccccsscscscsss" /><ellipse
       style="fill:#ffffff;fill-opacity:1;stroke:#000000;stroke-width:0.265;stroke-dasharray:none;stroke-opacity:1"
       id="path1-7-2-9-9-5"
       cx="-7.6458001"
       cy="20.643036"
       rx="0.65429264"
       ry="0.80279088"
       transform="rotate(-75)" /><path
       id="path1-9-9-4"
       style="fill:#4d4d4d;fill-opacity:1;stroke:#000000;stroke-width:0.265"
       d="m 19.067981,8.684638 c 0,0.918207 -0.744354,2.054431 -1.662562,2.054431 -0.918208,0 -1.662561,-1.136225 -1.662561,-2.054431 0,-0.918205 0.744354,-1.662559 1.662561,-1.662559 0.918207,0 1.662562,0.744353 1.662562,1.662559 z"
       sodipodi:nodetypes="zzzzz" /><path
       id="path1-7-1-2-6-0"
       style="fill:#ffffff;stroke:#000000;stroke-width:0.265;stroke-dasharray:none"
       d="m 16.748802,3.061848 c 0,0.207214 -0.227855,0.738307 -0.588877,0.738307 -0.361023,0 -0.627766,-0.541773 -0.627766,-0.748987 0,-0.207215 -0.07027,-0.385877 0.627766,-0.364517 0.69804,0.02136 0.588877,0.167981 0.588877,0.375197 z"
       sodipodi:nodetypes="ssszs" /><path
       id="path1-7-1-9-0-2-5"
       style="fill:#ffffff;stroke:#000000;stroke-width:0.265;stroke-dasharray:none"
       d="m 19.229899,3.083618 c 0,0.207214 -0.227855,0.738307 -0.588877,0.738307 -0.361023,0 -0.627766,-0.541773 -0.627766,-0.748987 0,-0.207214 -0.07027,-0.385876 0.627766,-0.364516 0.69804,0.02136 0.588877,0.167981 0.588877,0.375196 z"
       sodipodi:nodetypes="ssszs" /><ellipse
       style="fill:#ffffff;fill-opacity:1;stroke:#000000;stroke-width:0.265;stroke-dasharray:none;stroke-opacity:1"
       id="path1-7-2-9-9-1-6-1-9"
       cx="-21.514017"
       cy="-4.834146"
       rx="0.65429264"
       ry="0.80279088"
       transform="matrix(-0.73860137,-0.67414243,-0.67414243,0.73860137,0,0)" /><path
       id="path1-3-0-4-6"
       style="fill:#66ff66;fill-opacity:1;stroke:#000000;stroke-width:0.265"
       d="m 13.892979,27.067175 c 0,-0.918208 0.744355,-2.054432 1.662563,-2.054431 0.918207,0 1.66256,1.136225 1.66256,2.05443 0,0.91821 -0.744354,1.662563 -1.662561,1.662564 -0.918207,0 -1.662561,-0.744354 -1.662562,-1.662563 z"
       sodipodi:nodetypes="zzzzz" /><path
       style="fill:#999999;fill-opacity:1;stroke:none;stroke-width:0.264999;stroke-dasharray:none;stroke-opacity:1"
       d="m 16.788273,25.852241 c 0.231965,-0.518456 0.248785,-0.890995 0.228457,-1.412895 -0.181861,-0.961538 -0.610763,-1.921386 -0.05472,-2.223683 0.373093,-0.202835 0.949978,1.684992 1.06181,2.120357 0.150642,0.586545 0.245255,1.831277 -0.06236,2.372467 -0.23591,0.415009 -1.245002,0.990753 -1.796438,1.283001 -0.527598,0.333361 -1.531432,0.92446 -2.00881,0.922983 -0.6225,-0.0019 -1.653763,-0.702065 -2.087938,-1.124227 -0.32227,-0.313354 -1.676207,-1.75353 -1.314812,-1.976542 0.538604,-0.33237 1.16008,0.518087 1.904193,1.153635 0.44283,0.276938 0.774074,0.446986 1.339262,0.503262 -0.273459,-0.932936 -1.504365,-2.13076 -2.19713,-3.176633 -0.198373,-0.299492 0.671135,-0.876993 0.88018,-0.584855 0.301068,0.42074 0.473324,0.451061 0.679614,0.942747 0.414627,0.283506 0.973637,0.663352 1.336275,1.138719 0.06224,-0.01047 0.114045,-0.0317 0.158425,-0.05763 0.04457,-0.02562 0.06892,-0.956623 0.108887,-1.005504 0.4679,-0.41021 1.142042,0.369375 1.825103,1.124806 z"
       id="path4-6-3-2-0-4"
       sodipodi:nodetypes="cscccccssscsscccccc" /><ellipse
       style="fill:#ffffff;fill-opacity:1;stroke:#000000;stroke-width:0.265;stroke-dasharray:none;stroke-opacity:1"
       id="path1-7-2-9-9-1-3-3"
       cx="22.416311"
       cy="-17.424397"
       rx="0.65429264"
       ry="0.80279088"
       transform="rotate(105)" /><path
       id="path1-7-1-1-4-1-0"
       style="fill:#ffffff;stroke:#000000;stroke-width:0.265;stroke-dasharray:none"
       d="m 15.014692,24.16045 c -0.615387,0.299452 0.115018,1.207006 0.220521,1.38535 0.105504,0.178342 0.240916,1.20917 0.982351,0.774554 0.899389,-0.527228 -0.64863,-2.429605 -1.202875,-2.159903 z"
       sodipodi:nodetypes="sszs" /><path
       id="path1-7-1-1-4-5-9-3"
       style="fill:#ffffff;stroke:#000000;stroke-width:0.265;stroke-dasharray:none"
       d="m 11.40212,22.459973 c 0.567028,-0.383215 0.987791,0.703112 1.089491,0.883652 0.101693,0.180542 0.926715,0.813221 0.179608,1.238019 -0.906289,0.515278 -1.779797,-1.776525 -1.269093,-2.121672 z"
       sodipodi:nodetypes="sszs" /><ellipse
       style="fill:#ffffff;fill-opacity:1;stroke:#000000;stroke-width:0.265;stroke-dasharray:none;stroke-opacity:1"
       id="path1-7-2-9-9-1-3-9-9-8-5-4"
       cx="5.7787046"
       cy="-27.342974"
       rx="0.65429264"
       ry="0.80279088"
       transform="rotate(130.72808)" /></g></svg>
