<?xml version="1.0" encoding="UTF-8" standalone="no"?>
<!-- Created with Inkscape (http://www.inkscape.org/) -->

<svg
   width="35mm"
   height="35mm"
   viewBox="0 0 35 35"
   version="1.1"
   id="svg1"
   xml:space="preserve"
   inkscape:version="1.4 (e7c3feb100, 2024-10-09)"
   sodipodi:docname="16_v1_inter.svg"
   xmlns:inkscape="http://www.inkscape.org/namespaces/inkscape"
   xmlns:sodipodi="http://sodipodi.sourceforge.net/DTD/sodipodi-0.dtd"
   xmlns:xlink="http://www.w3.org/1999/xlink"
   xmlns="http://www.w3.org/2000/svg"
   xmlns:svg="http://www.w3.org/2000/svg"><sodipodi:namedview
     id="namedview1"
     pagecolor="#ffffff"
     bordercolor="#000000"
     borderopacity="0.25"
     inkscape:showpageshadow="2"
     inkscape:pageopacity="0.0"
     inkscape:pagecheckerboard="0"
     inkscape:deskcolor="#d1d1d1"
     inkscape:document-units="mm"
     inkscape:zoom="3.03832"
     inkscape:cx="75.864294"
     inkscape:cy="44.761579"
     inkscape:window-width="1290"
     inkscape:window-height="1023"
     inkscape:window-x="0"
     inkscape:window-y="0"
     inkscape:window-maximized="0"
     inkscape:current-layer="layer1" /><defs
     id="defs1"><linearGradient
       id="linearGradient2"
       inkscape:collect="always"><stop
         style="stop-color:#ff6666;stop-opacity:0.74901962;"
         offset="0"
         id="stop1" /><stop
         style="stop-color:#ff6666;stop-opacity:0;"
         offset="1"
         id="stop2" /></linearGradient><inkscape:path-effect
       effect="mirror_symmetry"
       start_point="17.297909,16.234992"
       end_point="17.313303,7.810326"
       center_point="17.305606,12.022659"
       id="path-effect5"
       is_visible="true"
       lpeversion="1.2"
       lpesatellites=""
       mode="free"
       discard_orig_path="false"
       fuse_paths="true"
       oposite_fuse="false"
       split_items="false"
       split_open="false"
       link_styles="false" /><inkscape:path-effect
       effect="mirror_symmetry"
       start_point="17.297909,16.234992"
       end_point="17.313303,7.810326"
       center_point="17.305606,12.022659"
       id="path-effect5-7"
       is_visible="true"
       lpeversion="1.2"
       lpesatellites=""
       mode="free"
       discard_orig_path="false"
       fuse_paths="true"
       oposite_fuse="false"
       split_items="false"
       split_open="false"
       link_styles="false" /><inkscape:path-effect
       effect="mirror_symmetry"
       start_point="17.297909,16.234992"
       end_point="17.313303,7.810326"
       center_point="17.305606,12.022659"
       id="path-effect5-6"
       is_visible="true"
       lpeversion="1.2"
       lpesatellites=""
       mode="free"
       discard_orig_path="false"
       fuse_paths="true"
       oposite_fuse="false"
       split_items="false"
       split_open="false"
       link_styles="false" /><inkscape:path-effect
       effect="mirror_symmetry"
       start_point="17.297909,16.234992"
       end_point="17.313303,7.810326"
       center_point="17.305606,12.022659"
       id="path-effect5-3"
       is_visible="true"
       lpeversion="1.2"
       lpesatellites=""
       mode="free"
       discard_orig_path="false"
       fuse_paths="true"
       oposite_fuse="false"
       split_items="false"
       split_open="false"
       link_styles="false" /><inkscape:path-effect
       effect="mirror_symmetry"
       start_point="17.297909,16.234992"
       end_point="17.313303,7.810326"
       center_point="17.305606,12.022659"
       id="path-effect5-66"
       is_visible="true"
       lpeversion="1.2"
       lpesatellites=""
       mode="free"
       discard_orig_path="false"
       fuse_paths="true"
       oposite_fuse="false"
       split_items="false"
       split_open="false"
       link_styles="false" /><inkscape:path-effect
       effect="mirror_symmetry"
       start_point="17.297909,16.234992"
       end_point="17.313303,7.810326"
       center_point="17.305606,12.022659"
       id="path-effect5-4"
       is_visible="true"
       lpeversion="1.2"
       lpesatellites=""
       mode="free"
       discard_orig_path="false"
       fuse_paths="true"
       oposite_fuse="false"
       split_items="false"
       split_open="false"
       link_styles="false" /><inkscape:path-effect
       effect="mirror_symmetry"
       start_point="17.297909,16.234992"
       end_point="17.313303,7.810326"
       center_point="17.305606,12.022659"
       id="path-effect5-4-7"
       is_visible="true"
       lpeversion="1.2"
       lpesatellites=""
       mode="free"
       discard_orig_path="false"
       fuse_paths="true"
       oposite_fuse="false"
       split_items="false"
       split_open="false"
       link_styles="false" /><inkscape:path-effect
       effect="mirror_symmetry"
       start_point="17.297909,16.234992"
       end_point="17.313303,7.810326"
       center_point="17.305606,12.022659"
       id="path-effect5-41"
       is_visible="true"
       lpeversion="1.2"
       lpesatellites=""
       mode="free"
       discard_orig_path="false"
       fuse_paths="true"
       oposite_fuse="false"
       split_items="false"
       split_open="false"
       link_styles="false" /><inkscape:path-effect
       effect="mirror_symmetry"
       start_point="17.297909,16.234992"
       end_point="17.313303,7.810326"
       center_point="17.305606,12.022659"
       id="path-effect5-62"
       is_visible="true"
       lpeversion="1.2"
       lpesatellites=""
       mode="free"
       discard_orig_path="false"
       fuse_paths="true"
       oposite_fuse="false"
       split_items="false"
       split_open="false"
       link_styles="false" /><inkscape:path-effect
       effect="mirror_symmetry"
       start_point="17.297909,16.234992"
       end_point="17.313303,7.810326"
       center_point="17.305606,12.022659"
       id="path-effect5-4-9"
       is_visible="true"
       lpeversion="1.2"
       lpesatellites=""
       mode="free"
       discard_orig_path="false"
       fuse_paths="true"
       oposite_fuse="false"
       split_items="false"
       split_open="false"
       link_styles="false" /><inkscape:path-effect
       effect="mirror_symmetry"
       start_point="17.493844,16.300304"
       end_point="17.509238,7.875638"
       center_point="17.501541,12.087971"
       id="path-effect5-4-0-9-72-8"
       is_visible="true"
       lpeversion="1.2"
       lpesatellites=""
       mode="free"
       discard_orig_path="false"
       fuse_paths="true"
       oposite_fuse="false"
       split_items="false"
       split_open="false"
       link_styles="false" /><inkscape:path-effect
       effect="mirror_symmetry"
       start_point="17.493844,16.300304"
       end_point="17.509238,7.875638"
       center_point="17.501541,12.087971"
       id="path-effect5-4-0-9-72-8-3"
       is_visible="true"
       lpeversion="1.2"
       lpesatellites=""
       mode="free"
       discard_orig_path="false"
       fuse_paths="true"
       oposite_fuse="false"
       split_items="false"
       split_open="false"
       link_styles="false" /><inkscape:path-effect
       effect="mirror_symmetry"
       start_point="17.493844,16.300304"
       end_point="17.509238,7.875638"
       center_point="17.501541,12.087971"
       id="path-effect5-4-0-9-5-7-4"
       is_visible="true"
       lpeversion="1.2"
       lpesatellites=""
       mode="free"
       discard_orig_path="false"
       fuse_paths="true"
       oposite_fuse="false"
       split_items="false"
       split_open="false"
       link_styles="false" /><inkscape:path-effect
       effect="mirror_symmetry"
       start_point="17.493844,16.300304"
       end_point="17.509238,7.875638"
       center_point="17.501541,12.087971"
       id="path-effect5-4-0-9-5-7-4-9"
       is_visible="true"
       lpeversion="1.2"
       lpesatellites=""
       mode="free"
       discard_orig_path="false"
       fuse_paths="true"
       oposite_fuse="false"
       split_items="false"
       split_open="false"
       link_styles="false" /><linearGradient
       inkscape:collect="always"
       xlink:href="#linearGradient13"
       id="linearGradient9"
       gradientUnits="userSpaceOnUse"
       x1="12.777093"
       y1="8.7900248"
       x2="18.288177"
       y2="7.6816502"
       gradientTransform="matrix(1,0,0,-1,0,36.058336)" /><linearGradient
       id="linearGradient13"
       inkscape:collect="always"><stop
         style="stop-color:#66ff66;stop-opacity:0.74901962;"
         offset="0"
         id="stop12" /><stop
         style="stop-color:#66ff66;stop-opacity:0;"
         offset="1"
         id="stop13" /></linearGradient><linearGradient
       inkscape:collect="always"
       xlink:href="#linearGradient6"
       id="linearGradient7"
       x1="12.777093"
       y1="8.7900248"
       x2="18.288177"
       y2="7.6816502"
       gradientUnits="userSpaceOnUse"
       gradientTransform="matrix(-1,0,0,1,35,-1.0583334)" /><linearGradient
       id="linearGradient6"
       inkscape:collect="always"><stop
         style="stop-color:#4d4d4d;stop-opacity:0.74901962;"
         offset="0"
         id="stop6" /><stop
         style="stop-color:#4d4d4d;stop-opacity:0;"
         offset="1"
         id="stop7" /></linearGradient><linearGradient
       inkscape:collect="always"
       xlink:href="#linearGradient2"
       id="linearGradient11"
       gradientUnits="userSpaceOnUse"
       gradientTransform="matrix(-0.49999999,-0.8660254,-0.93755839,0.54129958,35.05571,17.252425)"
       x1="10.647268"
       y1="16.557198"
       x2="12.444862"
       y2="11.077363" /><linearGradient
       id="linearGradient12"
       inkscape:collect="always"><stop
         style="stop-color:#6666ff;stop-opacity:0.74901962;"
         offset="0"
         id="stop11" /><stop
         style="stop-color:#6666ff;stop-opacity:0;"
         offset="1"
         id="stop12-1" /></linearGradient><linearGradient
       inkscape:collect="always"
       xlink:href="#linearGradient12"
       id="linearGradient1"
       gradientUnits="userSpaceOnUse"
       gradientTransform="matrix(0.49999999,0.8660254,0.93755839,-0.54129958,-0.0557106,17.747575)"
       x1="10.647268"
       y1="16.557198"
       x2="12.444862"
       y2="11.077363" /><marker
       style="overflow:visible"
       id="RoundedArrow-6-9"
       refX="0"
       refY="0"
       orient="auto-start-reverse"
       inkscape:stockid="Rounded arrow"
       markerWidth="1"
       markerHeight="1"
       viewBox="0 0 1 1"
       inkscape:isstock="true"
       inkscape:collect="always"
       preserveAspectRatio="xMidYMid"><path
         transform="scale(0.7)"
         d="m -0.21114562,-4.1055728 6.42229122,3.21114561 a 1,1 90 0 1 0,1.78885438 L -0.21114562,4.1055728 A 1.236068,1.236068 31.717474 0 1 -2,3 v -6 a 1.236068,1.236068 148.28253 0 1 1.78885438,-1.1055728 z"
         style="fill:context-stroke;fill-rule:evenodd;stroke:none"
         id="path8-9-9" /></marker></defs><g
     inkscape:label="Layer 1"
     inkscape:groupmode="layer"
     id="layer1"><path
       style="fill:#999999;fill-opacity:1;stroke-width:0.68;stroke-linecap:round"
       d="m 14.265556,6.7867742 0.769703,1.600985 c 0,0 0.494587,-1.2368698 1.385469,-1.600985 0.890882,-0.3641152 4.241674,0.1635993 4.241674,0.1635993 l -0.0531,1.5615934 -1.05455,-0.04943 -0.686357,1.2337144 0.477217,1.4316507 -1.077587,-0.123152 c 0,0 -0.55726,-0.757916 -0.569581,-1.2007397 -0.01171,-0.4210147 0.4682,-1.1774204 0.4682,-1.1774204 l -1.389204,-0.16933 c 0,0 -1.399579,1.6877851 -2.050055,1.6546371 -0.623694,-0.03178 -1.385468,-2.8632995 -1.385468,-2.8632995 z"
       id="path2"
       sodipodi:nodetypes="cczccccccsccscc" /><path
       style="fill:#ffffff;fill-opacity:1;stroke:#000000;stroke-width:0.265;stroke-linecap:round;stroke-dasharray:none;stroke-opacity:1"
       d="m 14.065951,6.2674746 c 0.428529,0.012361 0.569668,0.9273903 0.564625,1.1555545 -0.0048,0.2159307 -0.470078,0.4914191 -0.769728,0.6365501 -0.2732,0.132321 -0.522499,-0.06878 -0.951858,0.04626 -0.429358,0.115046 -0.688207,0.237919 -0.979126,-0.07459 -0.283206,-0.3042225 1.593521,-1.7794311 2.136087,-1.7637806 z"
       id="path3"
       sodipodi:nodetypes="ssssss" /><path
       style="fill:#4d4d4d;fill-opacity:1;stroke:#000000;stroke-width:0.264998;stroke-linecap:round;stroke-dasharray:none;stroke-opacity:1"
       d="m 19.708037,9.4381466 c -0.218188,-0.454583 0.584927,-2.3027523 0.843538,-2.6143872 0.258608,-0.3116354 1.328328,-0.5019681 1.86964,-0.180135 0.541315,0.3218335 0.923155,1.5621658 0.483242,2.2894885 -0.439913,0.7273244 -1.104763,0.8291924 -1.857337,0.9271844 -0.752576,0.098 -1.120896,0.03243 -1.339083,-0.4221507 z"
       id="path5"
       sodipodi:nodetypes="zzzzzz" /><ellipse
       style="fill:#ffffff;fill-opacity:1;stroke:#000000;stroke-width:0.265;stroke-dasharray:none;stroke-opacity:1"
       id="path1-7-2-9-9-1-7"
       cx="18.895538"
       cy="-11.287572"
       rx="0.65429264"
       ry="0.80279088"
       transform="scale(1,-1)" /><path
       style="fill:url(#linearGradient7);stroke:none;stroke-width:0.264999;stroke-linecap:round;stroke-dasharray:none;stroke-opacity:1"
       d="M 22.561577,6.992775 C 23.177341,7.9933912 19.921491,9.5481933 19.921491,9.5481933 19.028634,7.5161737 16.215524,7.9076262 16.403941,6.4231934 16.592358,4.9387602 21.868153,5.8659617 22.561577,6.992775 Z"
       id="path6"
       sodipodi:nodetypes="zczz" /><path
       style="fill:#999999;fill-opacity:1;stroke-width:0.68;stroke-linecap:round"
       d="m 20.734444,28.213226 -0.769703,-1.600985 c 0,0 -0.494587,1.23687 -1.385469,1.600985 -0.890882,0.364116 -4.241674,-0.163599 -4.241674,-0.163599 l 0.0531,-1.561594 1.05455,0.04942 0.686357,-1.233714 -0.477217,-1.431651 1.077587,0.123152 c 0,0 0.55726,0.757916 0.569581,1.20074 0.01171,0.421015 -0.4682,1.177421 -0.4682,1.177421 l 1.389204,0.169335 c 0,0 1.399579,-1.687786 2.050055,-1.654638 0.623694,0.03178 1.385468,2.8633 1.385468,2.8633 z"
       id="path2-0"
       sodipodi:nodetypes="cczccccccsccscc" /><path
       style="fill:#ffffff;fill-opacity:1;stroke:#000000;stroke-width:0.265;stroke-linecap:round;stroke-dasharray:none;stroke-opacity:1"
       d="m 20.934049,28.732526 c -0.428529,-0.01236 -0.569668,-0.92739 -0.564625,-1.155555 0.0048,-0.21593 0.470078,-0.491418 0.769728,-0.63655 0.2732,-0.132321 0.522499,0.06878 0.951858,-0.04626 0.429358,-0.115046 0.688207,-0.237919 0.979126,0.07459 0.283206,0.304223 -1.593521,1.779431 -2.136087,1.763781 z"
       id="path3-4"
       sodipodi:nodetypes="ssssss" /><path
       style="fill:#66ff66;fill-opacity:1;stroke:#000000;stroke-width:0.264998;stroke-linecap:round;stroke-dasharray:none;stroke-opacity:1"
       d="m 15.291963,25.561854 c 0.218188,0.454583 -0.584927,2.302752 -0.843538,2.614387 -0.258608,0.311636 -1.328328,0.501968 -1.86964,0.180135 -0.541315,-0.321833 -0.923155,-1.562165 -0.483242,-2.289489 0.439913,-0.727324 1.104763,-0.829192 1.857337,-0.927184 0.752576,-0.098 1.120896,-0.03243 1.339083,0.422151 z"
       id="path5-1"
       sodipodi:nodetypes="zzzzzz" /><ellipse
       style="fill:#ffffff;fill-opacity:1;stroke:#000000;stroke-width:0.265;stroke-dasharray:none;stroke-opacity:1"
       id="path1-7-2-9-9-1-7-0"
       cx="-16.104462"
       cy="23.712429"
       rx="0.65429264"
       ry="0.80279088"
       transform="scale(-1,1)" /><path
       style="fill:url(#linearGradient9);stroke:none;stroke-width:0.264999;stroke-linecap:round;stroke-dasharray:none;stroke-opacity:1"
       d="m 12.438423,28.007226 c -0.615764,-1.000616 2.640086,-2.555419 2.640086,-2.555419 0.892857,2.03202 3.705967,1.640567 3.51755,3.125 -0.188417,1.484433 -5.464212,0.557232 -6.157636,-0.569581 z"
       id="path6-4"
       sodipodi:nodetypes="zczz" /><path
       style="fill:#999999;fill-opacity:1;stroke:none;stroke-width:0.264999;stroke-dasharray:none;stroke-opacity:1"
       d="m 27.0359,16.480738 c 0.004,-0.262339 -0.0824,-0.518185 -0.261718,-0.507814 -1.252406,0.07244 -3.577079,0.08092 -4.482421,0.509766 -0.679076,-0.43786 0.168882,-1.45073 -0.675332,-1.972084 -0.732166,-0.452161 -2.081776,0.349349 -2.343788,0.848142 -0.130925,0.249251 0.472672,1.037875 0.65374,0.822267 0.420143,-0.500287 0.462662,-0.467471 0.985156,-0.706946 0.230808,0.459066 -0.645349,1.780884 0.08139,2.246901 -0.0052,0.588369 -0.859515,1.103297 -1.41206,1.722051 -0.512838,-0.424846 -1.291691,-1.69065 -1.529043,-2.26959 -0.28045,0.0249 -1.058665,-0.125748 -0.989084,0.147059 0.239365,0.938499 1.488044,3.241412 2.420749,3.300824 0.809114,0.05154 2.121729,-1.222776 2.802403,-1.658155 0.903769,0.432152 3.230289,0.450328 4.48242,0.527344 0.358557,0.02205 0.345808,-1.021671 -0.01172,-1.056641 -1.029809,-0.100733 -2.743698,-0.213416 -2.906249,-0.427734 -0.09185,-0.12111 -0.116147,-0.211097 -0.10547,-0.279298 -0.01042,-0.06823 0.01512,-0.160482 0.107425,-0.281247 0.163347,-0.213721 1.876093,-0.320998 2.906264,-0.417968 0.178826,-0.01683 0.273368,-0.28454 0.277345,-0.546876 z"
       id="path4-4-5-2-0-5-6"
       sodipodi:nodetypes="ssscssccccsscscscsss" /><path
       id="path1-9-9-4-2-8-5"
       style="fill:#6666ff;fill-opacity:1;stroke:#000000;stroke-width:0.265"
       d="m 21.582669,16.054462 c -0.918209,-2e-6 -2.054433,0.744352 -2.054433,1.662561 -1e-6,0.918208 1.136225,1.662562 2.054432,1.66256 0.918204,1e-6 1.662561,-0.744353 1.662559,-1.662559 1e-6,-0.918207 -0.744351,-1.662562 -1.662558,-1.662562 z"
       sodipodi:nodetypes="zzzzz" /><path
       id="path1-7-1-2-6-0-1-6-2"
       style="fill:#ffffff;stroke:#000000;stroke-width:0.265;stroke-dasharray:none"
       d="m 27.205459,18.37364 c -0.207212,0 -0.738306,0.227855 -0.738306,0.588877 1e-6,0.361024 0.54177,0.627768 0.74899,0.627763 0.207216,0 0.385877,0.07027 0.364519,-0.627765 -0.02136,-0.698039 -0.167981,-0.588877 -0.375199,-0.588878 z"
       sodipodi:nodetypes="ssszs" /><path
       id="path1-7-1-9-0-2-5-0-2-6"
       style="fill:#ffffff;stroke:#000000;stroke-width:0.265;stroke-dasharray:none"
       d="m 27.18369,15.892543 c -0.207212,0 -0.738308,0.227855 -0.738308,0.588877 1e-6,0.361022 0.541771,0.627769 0.748991,0.627764 0.207214,0 0.385875,0.07027 0.364518,-0.627765 -0.02136,-0.69804 -0.167981,-0.588875 -0.375196,-0.588876 z"
       sodipodi:nodetypes="ssszs" /><ellipse
       style="fill:#ffffff;fill-opacity:1;stroke:#000000;stroke-width:0.265;stroke-dasharray:none;stroke-opacity:1"
       id="path1-7-2-9-9-1-6-1-9-5-8-5"
       cx="24.831945"
       cy="-3.5120933"
       rx="0.65429264"
       ry="0.80279088"
       transform="rotate(47.61241)" /><path
       style="fill:#999999;fill-opacity:1;stroke:none;stroke-width:0.264999;stroke-dasharray:none;stroke-opacity:1"
       d="m 7.9641004,18.519261 c -0.004,0.262339 0.0824,0.518185 0.261718,0.507814 1.252406,-0.07244 3.5770796,-0.08092 4.4824216,-0.509766 0.679076,0.43786 -0.168882,1.45073 0.675332,1.972084 0.732166,0.452161 2.081776,-0.349349 2.343788,-0.848142 0.130925,-0.249251 -0.472672,-1.037875 -0.65374,-0.822267 -0.420143,0.500287 -0.462662,0.467471 -0.985156,0.706946 -0.230808,-0.459066 0.645349,-1.780884 -0.08139,-2.246901 0.0052,-0.588369 0.859515,-1.103297 1.41206,-1.722051 0.512838,0.424846 1.291691,1.69065 1.529043,2.26959 0.28045,-0.0249 1.058665,0.125748 0.989084,-0.147059 -0.239365,-0.938499 -1.488044,-3.241412 -2.420749,-3.300824 -0.809114,-0.05154 -2.121729,1.222776 -2.802403,1.658155 -0.903769,-0.432152 -3.2302896,-0.450328 -4.4824206,-0.527344 -0.358557,-0.02205 -0.345808,1.021671 0.01172,1.056641 1.029809,0.100733 2.7436986,0.213416 2.9062496,0.427734 0.09185,0.12111 0.116147,0.211097 0.10547,0.279298 0.01042,0.06823 -0.01512,0.160482 -0.107425,0.281247 -0.163347,0.213721 -1.8760936,0.320998 -2.9062646,0.417968 -0.178826,0.01683 -0.273368,0.28454 -0.277345,0.546876 z"
       id="path4-4-5-2-0-5"
       sodipodi:nodetypes="ssscssccccsscscscsss" /><path
       id="path1-9-9-4-2-8"
       style="fill:#ff6666;fill-opacity:1;stroke:#000000;stroke-width:0.265"
       d="m 13.417332,18.945537 c 0.918209,2e-6 2.054433,-0.744352 2.054433,-1.662561 1e-6,-0.918208 -1.136225,-1.662562 -2.054432,-1.66256 -0.918204,-1e-6 -1.662561,0.744353 -1.662559,1.662559 -10e-7,0.918207 0.744351,1.662562 1.662558,1.662562 z"
       sodipodi:nodetypes="zzzzz" /><path
       id="path1-7-1-2-6-0-1-6"
       style="fill:#ffffff;stroke:#000000;stroke-width:0.265;stroke-dasharray:none"
       d="m 7.7945414,16.626359 c 0.207212,0 0.738306,-0.227855 0.738306,-0.588877 -10e-7,-0.361024 -0.54177,-0.627768 -0.74899,-0.627763 -0.207216,0 -0.385877,-0.07027 -0.364519,0.627765 0.02136,0.698039 0.167981,0.588877 0.375199,0.588878 z"
       sodipodi:nodetypes="ssszs" /><path
       id="path1-7-1-9-0-2-5-0-2"
       style="fill:#ffffff;stroke:#000000;stroke-width:0.265;stroke-dasharray:none"
       d="m 7.8163104,19.107456 c 0.207212,0 0.738308,-0.227855 0.738308,-0.588877 -1e-6,-0.361022 -0.541771,-0.627769 -0.748991,-0.627764 -0.207214,0 -0.385875,-0.07027 -0.364518,0.627765 0.02136,0.69804 0.167981,0.588875 0.375196,0.588876 z"
       sodipodi:nodetypes="ssszs" /><ellipse
       style="fill:#ffffff;fill-opacity:1;stroke:#000000;stroke-width:0.265;stroke-dasharray:none;stroke-opacity:1"
       id="path1-7-2-9-9-1-6-1-9-5-8"
       cx="-24.614088"
       cy="-1.2560284"
       rx="0.65429264"
       ry="0.80279088"
       transform="rotate(-132.38759)" /><ellipse
       style="fill:#ffffff;fill-opacity:1;stroke:#000000;stroke-width:0.265;stroke-dasharray:none;stroke-opacity:1"
       id="path1-7-2-9-9-8"
       cx="-2.8916679e-07"
       cy="24.748737"
       rx="0.65429264"
       ry="0.80279088"
       transform="matrix(-0.70710678,0.70710678,0.70710678,0.70710678,0,0)" /><path
       id="path1-3-1-5-8-0-8-0-6-3-5-8"
       style="fill:url(#linearGradient11);fill-opacity:1;stroke:none;stroke-width:0.265"
       d="m 16.772125,12.503534 c -1.638105,1.179395 -1.551535,3.686366 -1.438288,4.62402 -0.284091,0.913729 -2.501134,0.374996 -3.434499,0.164161 -0.161516,-1.98062 0.483263,-3.715498 2.734818,-5.624031 2.251554,-1.9085337 3.776075,-0.343544 2.137969,0.83585 z"
       sodipodi:nodetypes="zcczz" /><path
       id="path1-3-1-5-8-0-8-0-6-3-5-8-9"
       style="fill:url(#linearGradient1);fill-opacity:1;stroke:none;stroke-width:0.265"
       d="m 18.227875,22.496466 c 1.638105,-1.179395 1.551535,-3.686366 1.438288,-4.62402 0.284091,-0.913729 2.501134,-0.374996 3.434499,-0.164161 0.161516,1.98062 -0.483263,3.715498 -2.734818,5.624031 -2.251554,1.908534 -3.776075,0.343544 -2.137969,-0.83585 z"
       sodipodi:nodetypes="zcczz" /><path
       id="path2-2-1"
       style="fill:none;stroke:#000000;stroke-width:0.2;stroke-dasharray:none;stroke-opacity:1;marker-end:url(#RoundedArrow-6-9)"
       d="m 28.29854,21.693853 c 0.77263,-1.089791 2.082312,-4.44362 -0.114324,-7.649568"
       sodipodi:nodetypes="cc" /><text
       xml:space="preserve"
       style="font-size:3.175px;text-align:start;writing-mode:lr-tb;direction:ltr;text-anchor:start;fill:#000000;fill-opacity:1;stroke:none;stroke-width:0.2;stroke-dasharray:none;stroke-opacity:1"
       x="24.353582"
       y="25.156931"
       id="text5-8-9"><tspan
         sodipodi:role="line"
         id="tspan5-2-6"
         style="font-style:normal;font-variant:normal;font-weight:bold;font-stretch:normal;font-family:'Bitstream Vera Sans';-inkscape-font-specification:'Bitstream Vera Sans Bold';fill:#000000;fill-opacity:1;stroke:none;stroke-width:0.2"
         x="24.353582"
         y="25.156931">360</tspan></text></g></svg>
