<?xml version="1.0" encoding="UTF-8" standalone="no"?>
<!-- Created with Inkscape (http://www.inkscape.org/) -->

<svg
   width="35mm"
   height="35mm"
   viewBox="0 0 35 35"
   version="1.1"
   id="svg1"
   xml:space="preserve"
   inkscape:version="1.4 (e7c3feb100, 2024-10-09)"
   sodipodi:docname="16_v4.svg"
   xmlns:inkscape="http://www.inkscape.org/namespaces/inkscape"
   xmlns:sodipodi="http://sodipodi.sourceforge.net/DTD/sodipodi-0.dtd"
   xmlns="http://www.w3.org/2000/svg"
   xmlns:svg="http://www.w3.org/2000/svg"><sodipodi:namedview
     id="namedview1"
     pagecolor="#ffffff"
     bordercolor="#000000"
     borderopacity="0.25"
     inkscape:showpageshadow="2"
     inkscape:pageopacity="0.0"
     inkscape:pagecheckerboard="0"
     inkscape:deskcolor="#d1d1d1"
     inkscape:document-units="mm"
     inkscape:zoom="4.2968333"
     inkscape:cx="82.03716"
     inkscape:cy="68.189753"
     inkscape:window-width="1916"
     inkscape:window-height="1023"
     inkscape:window-x="0"
     inkscape:window-y="0"
     inkscape:window-maximized="0"
     inkscape:current-layer="layer1" /><defs
     id="defs1"><inkscape:path-effect
       effect="mirror_symmetry"
       start_point="17.297909,16.234992"
       end_point="17.313303,7.810326"
       center_point="17.305606,12.022659"
       id="path-effect5"
       is_visible="true"
       lpeversion="1.2"
       lpesatellites=""
       mode="free"
       discard_orig_path="false"
       fuse_paths="true"
       oposite_fuse="false"
       split_items="false"
       split_open="false"
       link_styles="false" /><inkscape:path-effect
       effect="mirror_symmetry"
       start_point="17.297909,16.234992"
       end_point="17.313303,7.810326"
       center_point="17.305606,12.022659"
       id="path-effect5-7"
       is_visible="true"
       lpeversion="1.2"
       lpesatellites=""
       mode="free"
       discard_orig_path="false"
       fuse_paths="true"
       oposite_fuse="false"
       split_items="false"
       split_open="false"
       link_styles="false" /><inkscape:path-effect
       effect="mirror_symmetry"
       start_point="17.297909,16.234992"
       end_point="17.313303,7.810326"
       center_point="17.305606,12.022659"
       id="path-effect5-6"
       is_visible="true"
       lpeversion="1.2"
       lpesatellites=""
       mode="free"
       discard_orig_path="false"
       fuse_paths="true"
       oposite_fuse="false"
       split_items="false"
       split_open="false"
       link_styles="false" /><inkscape:path-effect
       effect="mirror_symmetry"
       start_point="17.297909,16.234992"
       end_point="17.313303,7.810326"
       center_point="17.305606,12.022659"
       id="path-effect5-3"
       is_visible="true"
       lpeversion="1.2"
       lpesatellites=""
       mode="free"
       discard_orig_path="false"
       fuse_paths="true"
       oposite_fuse="false"
       split_items="false"
       split_open="false"
       link_styles="false" /><inkscape:path-effect
       effect="mirror_symmetry"
       start_point="17.297909,16.234992"
       end_point="17.313303,7.810326"
       center_point="17.305606,12.022659"
       id="path-effect5-66"
       is_visible="true"
       lpeversion="1.2"
       lpesatellites=""
       mode="free"
       discard_orig_path="false"
       fuse_paths="true"
       oposite_fuse="false"
       split_items="false"
       split_open="false"
       link_styles="false" /><inkscape:path-effect
       effect="mirror_symmetry"
       start_point="17.297909,16.234992"
       end_point="17.313303,7.810326"
       center_point="17.305606,12.022659"
       id="path-effect5-4"
       is_visible="true"
       lpeversion="1.2"
       lpesatellites=""
       mode="free"
       discard_orig_path="false"
       fuse_paths="true"
       oposite_fuse="false"
       split_items="false"
       split_open="false"
       link_styles="false" /><inkscape:path-effect
       effect="mirror_symmetry"
       start_point="17.297909,16.234992"
       end_point="17.313303,7.810326"
       center_point="17.305606,12.022659"
       id="path-effect5-4-7"
       is_visible="true"
       lpeversion="1.2"
       lpesatellites=""
       mode="free"
       discard_orig_path="false"
       fuse_paths="true"
       oposite_fuse="false"
       split_items="false"
       split_open="false"
       link_styles="false" /><inkscape:path-effect
       effect="mirror_symmetry"
       start_point="17.297909,16.234992"
       end_point="17.313303,7.810326"
       center_point="17.305606,12.022659"
       id="path-effect5-41"
       is_visible="true"
       lpeversion="1.2"
       lpesatellites=""
       mode="free"
       discard_orig_path="false"
       fuse_paths="true"
       oposite_fuse="false"
       split_items="false"
       split_open="false"
       link_styles="false" /><inkscape:path-effect
       effect="mirror_symmetry"
       start_point="17.297909,16.234992"
       end_point="17.313303,7.810326"
       center_point="17.305606,12.022659"
       id="path-effect5-62"
       is_visible="true"
       lpeversion="1.2"
       lpesatellites=""
       mode="free"
       discard_orig_path="false"
       fuse_paths="true"
       oposite_fuse="false"
       split_items="false"
       split_open="false"
       link_styles="false" /><inkscape:path-effect
       effect="mirror_symmetry"
       start_point="17.297909,16.234992"
       end_point="17.313303,7.810326"
       center_point="17.305606,12.022659"
       id="path-effect5-4-9"
       is_visible="true"
       lpeversion="1.2"
       lpesatellites=""
       mode="free"
       discard_orig_path="false"
       fuse_paths="true"
       oposite_fuse="false"
       split_items="false"
       split_open="false"
       link_styles="false" /><inkscape:path-effect
       effect="mirror_symmetry"
       start_point="17.493844,16.300304"
       end_point="17.509238,7.875638"
       center_point="17.501541,12.087971"
       id="path-effect5-4-0-9-72-8"
       is_visible="true"
       lpeversion="1.2"
       lpesatellites=""
       mode="free"
       discard_orig_path="false"
       fuse_paths="true"
       oposite_fuse="false"
       split_items="false"
       split_open="false"
       link_styles="false" /><inkscape:path-effect
       effect="mirror_symmetry"
       start_point="17.493844,16.300304"
       end_point="17.509238,7.875638"
       center_point="17.501541,12.087971"
       id="path-effect5-4-0-9-72-8-3"
       is_visible="true"
       lpeversion="1.2"
       lpesatellites=""
       mode="free"
       discard_orig_path="false"
       fuse_paths="true"
       oposite_fuse="false"
       split_items="false"
       split_open="false"
       link_styles="false" /><inkscape:path-effect
       effect="mirror_symmetry"
       start_point="17.493844,16.300304"
       end_point="17.509238,7.875638"
       center_point="17.501541,12.087971"
       id="path-effect5-4-0-9-5-7-4"
       is_visible="true"
       lpeversion="1.2"
       lpesatellites=""
       mode="free"
       discard_orig_path="false"
       fuse_paths="true"
       oposite_fuse="false"
       split_items="false"
       split_open="false"
       link_styles="false" /><inkscape:path-effect
       effect="mirror_symmetry"
       start_point="17.493844,16.300304"
       end_point="17.509238,7.875638"
       center_point="17.501541,12.087971"
       id="path-effect5-4-0-9-5-7-4-9"
       is_visible="true"
       lpeversion="1.2"
       lpesatellites=""
       mode="free"
       discard_orig_path="false"
       fuse_paths="true"
       oposite_fuse="false"
       split_items="false"
       split_open="false"
       link_styles="false" /></defs><g
     inkscape:label="Layer 1"
     inkscape:groupmode="layer"
     id="layer1"><path
       style="fill:#999999;fill-opacity:1;stroke:none;stroke-width:0.264999;stroke-dasharray:none;stroke-opacity:1"
       d="m 17.679388,27.886596 c 0.262338,0.004 0.518182,-0.0824 0.507812,-0.261719 -0.07244,-1.252406 -0.08092,-3.577076 -0.509765,-4.482421 0.437864,-0.679074 1.952325,-1.855144 1.954049,-2.847368 0.0017,-0.958877 -0.887502,-1.861428 -1.540689,-2.729921 -0.169228,-0.225009 -1.13571,-0.03008 -1.006995,0.220329 0.56806,1.105139 1.426355,2.410993 1.426355,2.410993 -0.737554,0.837605 -1.507644,1.757206 -2.071005,1.611982 -0.470175,-0.225954 -2.206996,-0.700011 -3.127338,-0.986684 -0.01046,-0.561353 0.07393,-1.51115 -0.109098,-2.624604 -0.0249,-0.280451 -0.833824,-0.08605 -0.868447,0.193359 -0.149477,1.206286 -0.422144,2.633842 0.175635,3.401448 0.5569,0.715167 2.251727,0.663937 2.687106,1.344606 -0.432152,0.903772 -0.450328,3.230288 -0.527344,4.482422 -0.02205,0.358554 1.02167,0.345807 1.056641,-0.01172 0.100734,-1.029811 0.213416,-2.743698 0.427734,-2.90625 0.121107,-0.09185 0.211094,-0.116149 0.279297,-0.105468 0.06824,-0.01043 0.16048,0.01512 0.28125,0.107422 0.213727,0.163333 0.321003,1.876078 0.417973,2.906249 0.01683,0.178826 0.284536,0.273373 0.546875,0.277345 z"
       id="path4-6-5-8"
       sodipodi:nodetypes="ssssssscccsscscscssss" /><path
       id="path1-3"
       style="fill:#66ff66;fill-opacity:1;stroke:#000000;stroke-width:0.265"
       d="m 14.779106,22.433367 c 0,-0.918208 0.744354,-2.054432 1.662562,-2.054432 0.918208,0 1.662561,1.136225 1.662561,2.054432 0,0.918207 -0.744355,1.662561 -1.662561,1.662561 -0.918207,0 -1.662562,-0.744353 -1.662562,-1.662561 z"
       sodipodi:nodetypes="zzzzz" /><path
       id="path1-7-1-1"
       style="fill:#ffffff;stroke:#000000;stroke-width:0.265;stroke-dasharray:none"
       d="m 17.075862,28.034388 c 0,-0.207214 0.227855,-0.738307 0.588877,-0.738307 0.361023,0 0.627766,0.541773 0.627766,0.748987 0,0.207214 0.07027,0.385876 -0.627766,0.364516 -0.69804,-0.02136 -0.588877,-0.167981 -0.588877,-0.375196 z"
       sodipodi:nodetypes="ssszs" /><path
       id="path1-7-1-9-7"
       style="fill:#ffffff;stroke:#000000;stroke-width:0.265;stroke-dasharray:none"
       d="m 14.594765,28.012618 c 0,-0.207214 0.227855,-0.738307 0.588877,-0.738307 0.361023,0 0.627766,0.541773 0.627766,0.748987 0,0.207213 0.07027,0.385875 -0.627766,0.364515 -0.69804,-0.02136 -0.588877,-0.167981 -0.588877,-0.375195 z"
       sodipodi:nodetypes="ssszs" /><path
       style="fill:#999999;fill-opacity:1;stroke:none;stroke-width:0.264999;stroke-dasharray:none;stroke-opacity:1"
       d="m 17.320612,7.113404 c -0.262338,-0.004 -0.518182,0.0824 -0.507812,0.261719 0.07244,1.252406 0.08092,3.577076 0.509765,4.482421 -0.437864,0.679074 -1.952325,1.855144 -1.954049,2.847368 -0.0017,0.958877 0.887502,1.861428 1.540689,2.729921 0.169228,0.225009 1.13571,0.03008 1.006995,-0.220329 -0.56806,-1.105139 -1.426355,-2.410993 -1.426355,-2.410993 0.737554,-0.837605 1.507644,-1.757206 2.071005,-1.611982 0.470175,0.225954 2.206996,0.700011 3.127338,0.986684 0.01046,0.561353 -0.07393,1.51115 0.109098,2.624604 0.0249,0.280451 0.833824,0.08605 0.868447,-0.193359 0.149477,-1.206286 0.422144,-2.633842 -0.175635,-3.401448 -0.5569,-0.715167 -2.251727,-0.663937 -2.687106,-1.344606 0.432152,-0.903772 0.450328,-3.230288 0.527344,-4.482422 0.02205,-0.358554 -1.02167,-0.345807 -1.056641,0.01172 -0.100734,1.029811 -0.213416,2.743698 -0.427734,2.90625 -0.121107,0.09185 -0.211094,0.116149 -0.279297,0.105468 -0.06824,0.01043 -0.16048,-0.01512 -0.28125,-0.107422 C 18.071687,10.133665 17.964411,8.42092 17.867441,7.390749 17.850611,7.211923 17.582905,7.117376 17.320566,7.113404 Z"
       id="path4-6-5"
       sodipodi:nodetypes="ssssssscccsscscscssss" /><path
       id="path1-3-6"
       style="fill:#4d4d4d;fill-opacity:1;stroke:#000000;stroke-width:0.265"
       d="m 20.220894,12.566633 c 0,0.918208 -0.744354,2.054432 -1.662562,2.054432 -0.918208,0 -1.662561,-1.136225 -1.662561,-2.054432 0,-0.918207 0.744355,-1.662561 1.662561,-1.662561 0.918207,0 1.662562,0.744353 1.662562,1.662561 z"
       sodipodi:nodetypes="zzzzz" /><path
       id="path1-7-1-1-6"
       style="fill:#ffffff;stroke:#000000;stroke-width:0.265;stroke-dasharray:none"
       d="m 17.924138,6.965612 c 0,0.207214 -0.227855,0.738307 -0.588877,0.738307 -0.361023,0 -0.627766,-0.541773 -0.627766,-0.748987 0,-0.207214 -0.07027,-0.385876 0.627766,-0.364516 0.69804,0.02136 0.588877,0.167981 0.588877,0.375196 z"
       sodipodi:nodetypes="ssszs" /><path
       id="path1-7-1-9-7-4"
       style="fill:#ffffff;stroke:#000000;stroke-width:0.265;stroke-dasharray:none"
       d="m 20.405235,6.987382 c 0,0.207214 -0.227855,0.738307 -0.588877,0.738307 -0.361023,0 -0.627766,-0.541773 -0.627766,-0.748987 0,-0.207213 -0.07027,-0.385875 0.627766,-0.364515 0.69804,0.02136 0.588877,0.167981 0.588877,0.375195 z"
       sodipodi:nodetypes="ssszs" /><ellipse
       style="fill:#ffffff;fill-opacity:1;stroke:#000000;stroke-width:0.265;stroke-dasharray:none;stroke-opacity:1"
       id="path1-7-2-9-9"
       cx="17.5"
       cy="17.5"
       rx="0.65429264"
       ry="0.80279088" /><path
       style="fill:#999999;fill-opacity:1;stroke:none;stroke-width:0.264999;stroke-dasharray:none;stroke-opacity:1"
       d="m 31.768592,16.358295 c 0.004,-0.262339 -0.0824,-0.518183 -0.261718,-0.507812 -1.252407,0.07244 -3.577077,0.08092 -4.48242,0.509765 -0.679074,-0.437864 0.168883,-1.45073 -0.675332,-1.972084 -0.732168,-0.452157 -2.081774,0.349349 -2.343786,0.848142 -0.130928,0.249249 0.472671,1.037875 0.653739,0.822266 0.420141,-0.500289 0.462663,-0.467469 0.985155,-0.706945 0.230808,0.459065 -0.460619,1.657732 0.08139,2.246902 -0.0052,0.588368 -0.859515,1.103297 -1.412059,1.722051 -0.512835,-0.424849 -1.291692,-1.690651 -1.529043,-2.269591 -0.280451,0.0249 -1.058665,-0.125747 -0.989085,0.147059 0.239365,0.938498 1.488045,3.241413 2.420749,3.300824 0.809115,0.05154 2.12173,-1.222776 2.802402,-1.658155 0.90377,0.432152 3.230286,0.450328 4.48242,0.527344 0.358555,0.02205 0.345807,-1.02167 -0.01172,-1.056641 -1.029811,-0.100734 -2.743698,-0.213416 -2.90625,-0.427734 -0.09185,-0.121107 -0.116149,-0.211094 -0.105468,-0.279297 -0.01043,-0.06824 0.01512,-0.16048 0.107421,-0.28125 0.163344,-0.213723 1.876089,-0.320999 2.906261,-0.417969 0.178825,-0.01683 0.273372,-0.284536 0.277344,-0.546875 z"
       id="path4-4-5-2"
       sodipodi:nodetypes="ssscssccccsscscscsss" /><ellipse
       style="fill:#ffffff;fill-opacity:1;stroke:#000000;stroke-width:0.265;stroke-dasharray:none;stroke-opacity:1"
       id="path1-7-2-9-9-5"
       cx="17.102938"
       cy="-22.223034"
       rx="0.65429264"
       ry="0.80279088"
       transform="matrix(0.96592583,-0.25881905,-0.25881905,-0.96592583,0,0)" /><path
       id="path1-9-9-4"
       style="fill:#ff6666;fill-opacity:1;stroke:#000000;stroke-width:0.265"
       d="m 26.315362,15.932019 c -0.918207,0 -2.054431,0.744354 -2.054431,1.662562 0,0.918208 1.136225,1.662561 2.054431,1.662561 0.918205,0 1.662559,-0.744354 1.662559,-1.662561 0,-0.918207 -0.744353,-1.662562 -1.662559,-1.662562 z"
       sodipodi:nodetypes="zzzzz" /><path
       id="path1-7-1-2-6-0"
       style="fill:#ffffff;stroke:#000000;stroke-width:0.265;stroke-dasharray:none"
       d="m 31.938152,18.251198 c -0.207214,0 -0.738307,0.227855 -0.738307,0.588877 0,0.361023 0.541773,0.627766 0.748987,0.627766 0.207215,0 0.385877,0.07027 0.364517,-0.627766 -0.02136,-0.69804 -0.167981,-0.588877 -0.375197,-0.588877 z"
       sodipodi:nodetypes="ssszs" /><path
       id="path1-7-1-9-0-2-5"
       style="fill:#ffffff;stroke:#000000;stroke-width:0.265;stroke-dasharray:none"
       d="m 31.916382,15.770101 c -0.207214,0 -0.738307,0.227855 -0.738307,0.588877 0,0.361023 0.541773,0.627766 0.748987,0.627766 0.207214,0 0.385876,0.07027 0.364516,-0.627766 -0.02136,-0.69804 -0.167981,-0.588877 -0.375196,-0.588877 z"
       sodipodi:nodetypes="ssszs" /><ellipse
       style="fill:#ffffff;fill-opacity:1;stroke:#000000;stroke-width:0.265;stroke-dasharray:none;stroke-opacity:1"
       id="path1-7-2-9-9-1-6-1-9"
       cx="27.932016"
       cy="-7.0902085"
       rx="0.65429264"
       ry="0.80279088"
       transform="rotate(47.61241)" /><path
       id="path1-3-0-4-6"
       style="fill:#6666ff;fill-opacity:1;stroke:#000000;stroke-width:0.265"
       d="m 7.932825,21.107021 c 0.918208,0 2.054432,-0.744355 2.054431,-1.662563 0,-0.918207 -1.136225,-1.66256 -2.05443,-1.66256 -0.91821,0 -1.662563,0.744354 -1.662564,1.662561 0,0.918207 0.744354,1.662561 1.662563,1.662562 z"
       sodipodi:nodetypes="zzzzz" /><path
       style="fill:#999999;fill-opacity:1;stroke:none;stroke-width:0.264999;stroke-dasharray:none;stroke-opacity:1"
       d="m 9.147759,18.211727 c 0.518456,-0.231965 0.890995,-0.248785 1.412895,-0.228457 0.961538,0.181861 1.921386,0.610763 2.223683,0.05472 0.202835,-0.373093 -1.684992,-0.949978 -2.120357,-1.06181 -0.586545,-0.150642 -1.831277,-0.245255 -2.372467,0.06236 -0.415009,0.23591 -0.990753,1.245002 -1.283001,1.796438 -0.333361,0.527598 -0.92446,1.531432 -0.922983,2.00881 0.0019,0.6225 0.702065,1.653763 1.124227,2.087938 0.313354,0.32227 1.75353,1.676207 1.976542,1.314812 0.33237,-0.538604 -0.518087,-1.16008 -1.153635,-1.904193 -0.276938,-0.44283 -0.446986,-0.774074 -0.503262,-1.339262 0.932936,0.273459 2.13076,1.504365 3.176633,2.19713 0.299492,0.198373 0.876993,-0.671135 0.584855,-0.88018 -0.42074,-0.301068 -0.451061,-0.473324 -0.942747,-0.679614 -0.283506,-0.414627 -0.663352,-0.973637 -1.138719,-1.336275 0.01047,-0.06224 0.0317,-0.114045 0.05763,-0.158425 0.02562,-0.04457 0.956623,-0.06892 1.005504,-0.108887 0.41021,-0.4679 -0.369375,-1.142042 -1.124806,-1.825103 z"
       id="path4-6-3-2-0-4"
       sodipodi:nodetypes="cscccccssscsscccccc" /><ellipse
       style="fill:#ffffff;fill-opacity:1;stroke:#000000;stroke-width:0.265;stroke-dasharray:none;stroke-opacity:1"
       id="path1-7-2-9-9-1-3-3"
       cx="-2.3324263"
       cy="25.441673"
       rx="0.65429264"
       ry="0.80279088"
       transform="matrix(-0.96592583,0.25881905,0.25881905,0.96592583,0,0)" /><path
       id="path1-7-1-1-4-1-0"
       style="fill:#ffffff;stroke:#000000;stroke-width:0.265;stroke-dasharray:none"
       d="M 10.83955,19.985308 C 10.540098,20.600695 9.632544,19.87029 9.4542,19.764787 9.275858,19.659283 8.24503,19.523871 8.679646,18.782436 c 0.527228,-0.899389 2.429605,0.64863 2.159903,1.202875 z"
       sodipodi:nodetypes="sszs" /><path
       id="path1-7-1-1-4-5-9-3"
       style="fill:#ffffff;stroke:#000000;stroke-width:0.265;stroke-dasharray:none"
       d="m 12.540027,23.59788 c 0.383215,-0.567028 -0.703112,-0.987791 -0.883652,-1.089491 -0.180542,-0.101693 -0.813221,-0.926715 -1.238019,-0.179608 -0.515278,0.906289 1.776525,1.779797 2.121672,1.269093 z"
       sodipodi:nodetypes="sszs" /><ellipse
       style="fill:#ffffff;fill-opacity:1;stroke:#000000;stroke-width:0.265;stroke-dasharray:none;stroke-opacity:1"
       id="path1-7-2-9-9-1-3-9-9-8-5-4"
       cx="2.0916374"
       cy="22.016985"
       rx="0.65429264"
       ry="0.80279088"
       transform="matrix(-0.75781466,0.65246988,0.65246988,0.75781466,0,0)" /></g></svg>
