<?xml version="1.0" encoding="UTF-8" standalone="no"?>
<!-- Created with Inkscape (http://www.inkscape.org/) -->

<svg
   width="35mm"
   height="35mm"
   viewBox="0 0 35 35"
   version="1.1"
   id="svg1"
   xml:space="preserve"
   inkscape:version="1.4.2 (ebf0e940d0, 2025-05-08)"
   sodipodi:docname="16_v34_inter.svg"
   xmlns:inkscape="http://www.inkscape.org/namespaces/inkscape"
   xmlns:sodipodi="http://sodipodi.sourceforge.net/DTD/sodipodi-0.dtd"
   xmlns:xlink="http://www.w3.org/1999/xlink"
   xmlns="http://www.w3.org/2000/svg"
   xmlns:svg="http://www.w3.org/2000/svg"><sodipodi:namedview
     id="namedview1"
     pagecolor="#ffffff"
     bordercolor="#000000"
     borderopacity="0.25"
     inkscape:showpageshadow="2"
     inkscape:pageopacity="0.0"
     inkscape:pagecheckerboard="0"
     inkscape:deskcolor="#d1d1d1"
     inkscape:document-units="mm"
     inkscape:zoom="4.2968333"
     inkscape:cx="92.626353"
     inkscape:cy="63.302433"
     inkscape:window-width="1916"
     inkscape:window-height="1021"
     inkscape:window-x="0"
     inkscape:window-y="0"
     inkscape:window-maximized="0"
     inkscape:current-layer="layer1" /><defs
     id="defs1"><linearGradient
       id="linearGradient2"
       inkscape:collect="always"><stop
         style="stop-color:#66ff66;stop-opacity:0.74901962;"
         offset="0"
         id="stop1" /><stop
         style="stop-color:#66ff66;stop-opacity:0;"
         offset="1"
         id="stop2" /></linearGradient><inkscape:path-effect
       effect="mirror_symmetry"
       start_point="17.297909,16.234992"
       end_point="17.313303,7.810326"
       center_point="17.305606,12.022659"
       id="path-effect5"
       is_visible="true"
       lpeversion="1.2"
       lpesatellites=""
       mode="free"
       discard_orig_path="false"
       fuse_paths="true"
       oposite_fuse="false"
       split_items="false"
       split_open="false"
       link_styles="false" /><inkscape:path-effect
       effect="mirror_symmetry"
       start_point="17.297909,16.234992"
       end_point="17.313303,7.810326"
       center_point="17.305606,12.022659"
       id="path-effect5-7"
       is_visible="true"
       lpeversion="1.2"
       lpesatellites=""
       mode="free"
       discard_orig_path="false"
       fuse_paths="true"
       oposite_fuse="false"
       split_items="false"
       split_open="false"
       link_styles="false" /><inkscape:path-effect
       effect="mirror_symmetry"
       start_point="17.297909,16.234992"
       end_point="17.313303,7.810326"
       center_point="17.305606,12.022659"
       id="path-effect5-6"
       is_visible="true"
       lpeversion="1.2"
       lpesatellites=""
       mode="free"
       discard_orig_path="false"
       fuse_paths="true"
       oposite_fuse="false"
       split_items="false"
       split_open="false"
       link_styles="false" /><inkscape:path-effect
       effect="mirror_symmetry"
       start_point="17.297909,16.234992"
       end_point="17.313303,7.810326"
       center_point="17.305606,12.022659"
       id="path-effect5-3"
       is_visible="true"
       lpeversion="1.2"
       lpesatellites=""
       mode="free"
       discard_orig_path="false"
       fuse_paths="true"
       oposite_fuse="false"
       split_items="false"
       split_open="false"
       link_styles="false" /><inkscape:path-effect
       effect="mirror_symmetry"
       start_point="17.297909,16.234992"
       end_point="17.313303,7.810326"
       center_point="17.305606,12.022659"
       id="path-effect5-66"
       is_visible="true"
       lpeversion="1.2"
       lpesatellites=""
       mode="free"
       discard_orig_path="false"
       fuse_paths="true"
       oposite_fuse="false"
       split_items="false"
       split_open="false"
       link_styles="false" /><inkscape:path-effect
       effect="mirror_symmetry"
       start_point="17.297909,16.234992"
       end_point="17.313303,7.810326"
       center_point="17.305606,12.022659"
       id="path-effect5-4"
       is_visible="true"
       lpeversion="1.2"
       lpesatellites=""
       mode="free"
       discard_orig_path="false"
       fuse_paths="true"
       oposite_fuse="false"
       split_items="false"
       split_open="false"
       link_styles="false" /><inkscape:path-effect
       effect="mirror_symmetry"
       start_point="17.297909,16.234992"
       end_point="17.313303,7.810326"
       center_point="17.305606,12.022659"
       id="path-effect5-4-7"
       is_visible="true"
       lpeversion="1.2"
       lpesatellites=""
       mode="free"
       discard_orig_path="false"
       fuse_paths="true"
       oposite_fuse="false"
       split_items="false"
       split_open="false"
       link_styles="false" /><inkscape:path-effect
       effect="mirror_symmetry"
       start_point="17.297909,16.234992"
       end_point="17.313303,7.810326"
       center_point="17.305606,12.022659"
       id="path-effect5-41"
       is_visible="true"
       lpeversion="1.2"
       lpesatellites=""
       mode="free"
       discard_orig_path="false"
       fuse_paths="true"
       oposite_fuse="false"
       split_items="false"
       split_open="false"
       link_styles="false" /><inkscape:path-effect
       effect="mirror_symmetry"
       start_point="17.297909,16.234992"
       end_point="17.313303,7.810326"
       center_point="17.305606,12.022659"
       id="path-effect5-62"
       is_visible="true"
       lpeversion="1.2"
       lpesatellites=""
       mode="free"
       discard_orig_path="false"
       fuse_paths="true"
       oposite_fuse="false"
       split_items="false"
       split_open="false"
       link_styles="false" /><inkscape:path-effect
       effect="mirror_symmetry"
       start_point="17.297909,16.234992"
       end_point="17.313303,7.810326"
       center_point="17.305606,12.022659"
       id="path-effect5-4-9"
       is_visible="true"
       lpeversion="1.2"
       lpesatellites=""
       mode="free"
       discard_orig_path="false"
       fuse_paths="true"
       oposite_fuse="false"
       split_items="false"
       split_open="false"
       link_styles="false" /><inkscape:path-effect
       effect="mirror_symmetry"
       start_point="17.493844,16.300304"
       end_point="17.509238,7.875638"
       center_point="17.501541,12.087971"
       id="path-effect5-4-0-9-72-8"
       is_visible="true"
       lpeversion="1.2"
       lpesatellites=""
       mode="free"
       discard_orig_path="false"
       fuse_paths="true"
       oposite_fuse="false"
       split_items="false"
       split_open="false"
       link_styles="false" /><inkscape:path-effect
       effect="mirror_symmetry"
       start_point="17.493844,16.300304"
       end_point="17.509238,7.875638"
       center_point="17.501541,12.087971"
       id="path-effect5-4-0-9-72-8-3"
       is_visible="true"
       lpeversion="1.2"
       lpesatellites=""
       mode="free"
       discard_orig_path="false"
       fuse_paths="true"
       oposite_fuse="false"
       split_items="false"
       split_open="false"
       link_styles="false" /><inkscape:path-effect
       effect="mirror_symmetry"
       start_point="17.493844,16.300304"
       end_point="17.509238,7.875638"
       center_point="17.501541,12.087971"
       id="path-effect5-4-0-9-5-7-4"
       is_visible="true"
       lpeversion="1.2"
       lpesatellites=""
       mode="free"
       discard_orig_path="false"
       fuse_paths="true"
       oposite_fuse="false"
       split_items="false"
       split_open="false"
       link_styles="false" /><inkscape:path-effect
       effect="mirror_symmetry"
       start_point="17.493844,16.300304"
       end_point="17.509238,7.875638"
       center_point="17.501541,12.087971"
       id="path-effect5-4-0-9-5-7-4-9"
       is_visible="true"
       lpeversion="1.2"
       lpesatellites=""
       mode="free"
       discard_orig_path="false"
       fuse_paths="true"
       oposite_fuse="false"
       split_items="false"
       split_open="false"
       link_styles="false" /><linearGradient
       inkscape:collect="always"
       xlink:href="#linearGradient13"
       id="linearGradient9"
       gradientUnits="userSpaceOnUse"
       x1="12.777093"
       y1="8.7900248"
       x2="18.288177"
       y2="7.6816502"
       gradientTransform="rotate(-90,16.970832,18.029168)" /><linearGradient
       id="linearGradient13"
       inkscape:collect="always"><stop
         style="stop-color:#6666ff;stop-opacity:0.74901962;"
         offset="0"
         id="stop12" /><stop
         style="stop-color:#6666ff;stop-opacity:0;"
         offset="1"
         id="stop13" /></linearGradient><linearGradient
       inkscape:collect="always"
       xlink:href="#linearGradient6"
       id="linearGradient7"
       x1="12.777093"
       y1="8.7900248"
       x2="18.288177"
       y2="7.6816502"
       gradientUnits="userSpaceOnUse"
       gradientTransform="rotate(90,18.029167,18.029167)" /><linearGradient
       id="linearGradient6"
       inkscape:collect="always"><stop
         style="stop-color:#ff6666;stop-opacity:0.74901962;"
         offset="0"
         id="stop6" /><stop
         style="stop-color:#ff6666;stop-opacity:0;"
         offset="1"
         id="stop7" /></linearGradient><linearGradient
       inkscape:collect="always"
       xlink:href="#linearGradient2"
       id="linearGradient11"
       gradientUnits="userSpaceOnUse"
       gradientTransform="matrix(-0.8660254,-0.49999999,0.54129958,-0.93755839,17.252425,35.055709)"
       x1="10.647268"
       y1="16.557198"
       x2="12.444862"
       y2="11.077363" /><linearGradient
       id="linearGradient12"
       inkscape:collect="always"><stop
         style="stop-color:#4d4d4d;stop-opacity:0.74901962;"
         offset="0"
         id="stop11" /><stop
         style="stop-color:#4d4d4d;stop-opacity:0;"
         offset="1"
         id="stop12-1" /></linearGradient><linearGradient
       inkscape:collect="always"
       xlink:href="#linearGradient12"
       id="linearGradient1"
       gradientUnits="userSpaceOnUse"
       gradientTransform="matrix(0.8660254,0.49999999,-0.54129958,0.93755839,17.747576,-0.05571211)"
       x1="10.647268"
       y1="16.557198"
       x2="12.444862"
       y2="11.077363" /><marker
       style="overflow:visible"
       id="RoundedArrow-6-9"
       refX="0"
       refY="0"
       orient="auto-start-reverse"
       inkscape:stockid="Rounded arrow"
       markerWidth="1"
       markerHeight="1"
       viewBox="0 0 1 1"
       inkscape:isstock="true"
       inkscape:collect="always"
       preserveAspectRatio="xMidYMid"><path
         transform="scale(0.7)"
         d="m -0.21114562,-4.1055728 6.42229122,3.21114561 a 1,1 90 0 1 0,1.78885438 L -0.21114562,4.1055728 A 1.236068,1.236068 31.717474 0 1 -2,3 v -6 a 1.236068,1.236068 148.28253 0 1 1.78885438,-1.1055728 z"
         style="fill:context-stroke;fill-rule:evenodd;stroke:none"
         id="path8-9-9" /></marker></defs><g
     inkscape:label="Layer 1"
     inkscape:groupmode="layer"
     id="layer1"><path
       style="fill:#999999;fill-opacity:1;stroke-width:0.68;stroke-linecap:round"
       d="m 28.213226,20.734444 -1.600985,-0.769703 c 0,0 1.23687,-0.494587 1.600985,-1.385469 0.364115,-0.890882 -0.1636,-4.241674 -0.1636,-4.241674 l -1.561593,0.0531 0.04943,1.05455 -1.233714,0.686357 -1.431651,-0.477217 0.123152,1.077587 c 0,0 0.757916,0.55726 1.20074,0.569581 0.421014,0.01171 1.17742,-0.4682 1.17742,-0.4682 l 0.16933,1.389204 c 0,0 -1.687785,1.399579 -1.654637,2.050055 0.03178,0.623694 2.863299,1.385468 2.863299,1.385468 z"
       id="path2"
       sodipodi:nodetypes="cczccccccsccscc" /><path
       style="fill:#ffffff;fill-opacity:1;stroke:#000000;stroke-width:0.265;stroke-linecap:round;stroke-dasharray:none;stroke-opacity:1"
       d="m 28.732525,20.934049 c -0.01236,-0.428529 -0.92739,-0.569668 -1.155554,-0.564625 -0.215931,0.0048 -0.491419,0.470078 -0.63655,0.769728 -0.132321,0.2732 0.06878,0.522499 -0.04626,0.951858 -0.115046,0.429358 -0.237919,0.688207 0.07459,0.979126 0.304222,0.283206 1.779431,-1.593521 1.76378,-2.136087 z"
       id="path3"
       sodipodi:nodetypes="ssssss" /><path
       style="fill:#ff6666;fill-opacity:1;stroke:#000000;stroke-width:0.264998;stroke-linecap:round;stroke-dasharray:none;stroke-opacity:1"
       d="m 25.561853,15.291963 c 0.454583,0.218188 2.302753,-0.584927 2.614388,-0.843538 0.311635,-0.258608 0.501968,-1.328328 0.180135,-1.86964 -0.321834,-0.541315 -1.562166,-0.923155 -2.289489,-0.483242 -0.727324,0.439913 -0.829192,1.104763 -0.927184,1.857337 -0.098,0.752576 -0.03243,1.120896 0.42215,1.339083 z"
       id="path5"
       sodipodi:nodetypes="zzzzzz" /><ellipse
       style="fill:#ffffff;fill-opacity:1;stroke:#000000;stroke-width:0.265;stroke-dasharray:none;stroke-opacity:1"
       id="path1-7-2-9-9-1-7"
       cx="-16.104462"
       cy="23.712429"
       rx="0.65429264"
       ry="0.80279088"
       transform="rotate(-90)" /><path
       style="fill:url(#linearGradient7);stroke:none;stroke-width:0.264999;stroke-linecap:round;stroke-dasharray:none;stroke-opacity:1"
       d="m 28.007225,12.438423 c -1.000616,-0.615764 -2.555418,2.640086 -2.555418,2.640086 2.032019,0.892857 1.640567,3.705967 3.125,3.51755 1.484433,-0.188417 0.557231,-5.464212 -0.569582,-6.157636 z"
       id="path6"
       sodipodi:nodetypes="zczz" /><path
       style="fill:#999999;fill-opacity:1;stroke-width:0.68;stroke-linecap:round"
       d="m 6.786774,14.265556 1.600985,0.769703 c 0,0 -1.23687,0.494587 -1.600985,1.385469 -0.364116,0.890882 0.163599,4.241674 0.163599,4.241674 l 1.561594,-0.0531 -0.04942,-1.05455 1.233714,-0.686357 1.431651,0.477217 -0.123152,-1.077587 c 0,0 -0.757916,-0.55726 -1.20074,-0.569581 -0.421015,-0.01171 -1.177421,0.4682 -1.177421,0.4682 L 8.457264,16.77744 c 0,0 1.687786,-1.399579 1.654638,-2.050055 -0.03178,-0.623694 -2.8633,-1.385468 -2.8633,-1.385468 z"
       id="path2-0"
       sodipodi:nodetypes="cczccccccsccscc" /><path
       style="fill:#ffffff;fill-opacity:1;stroke:#000000;stroke-width:0.265;stroke-linecap:round;stroke-dasharray:none;stroke-opacity:1"
       d="m 6.267474,14.065951 c 0.01236,0.428529 0.92739,0.569668 1.155555,0.564625 0.21593,-0.0048 0.491418,-0.470078 0.63655,-0.769728 0.132321,-0.2732 -0.06878,-0.522499 0.04626,-0.951858 0.115046,-0.429358 0.237919,-0.688207 -0.07459,-0.979126 -0.304223,-0.283206 -1.779431,1.593521 -1.763781,2.136087 z"
       id="path3-4"
       sodipodi:nodetypes="ssssss" /><path
       style="fill:#6666ff;fill-opacity:1;stroke:#000000;stroke-width:0.264998;stroke-linecap:round;stroke-dasharray:none;stroke-opacity:1"
       d="m 9.438146,19.708037 c -0.454583,-0.218188 -2.302752,0.584927 -2.614387,0.843538 -0.311636,0.258608 -0.501968,1.328328 -0.180135,1.86964 0.321833,0.541315 1.562165,0.923155 2.289489,0.483242 0.727324,-0.439913 0.829192,-1.104763 0.927184,-1.857337 0.098,-0.752576 0.03243,-1.120896 -0.422151,-1.339083 z"
       id="path5-1"
       sodipodi:nodetypes="zzzzzz" /><ellipse
       style="fill:#ffffff;fill-opacity:1;stroke:#000000;stroke-width:0.265;stroke-dasharray:none;stroke-opacity:1"
       id="path1-7-2-9-9-1-7-0"
       cx="18.895538"
       cy="-11.287571"
       rx="0.65429264"
       ry="0.80279088"
       transform="rotate(90)" /><path
       style="fill:url(#linearGradient9);stroke:none;stroke-width:0.264999;stroke-linecap:round;stroke-dasharray:none;stroke-opacity:1"
       d="m 6.992774,22.561577 c 1.000616,0.615764 2.555419,-2.640086 2.555419,-2.640086 -2.03202,-0.892857 -1.640567,-3.705967 -3.125,-3.51755 -1.484433,0.188417 -0.557232,5.464212 0.569581,6.157636 z"
       id="path6-4"
       sodipodi:nodetypes="zczz" /><path
       style="fill:#999999;fill-opacity:1;stroke:none;stroke-width:0.264999;stroke-dasharray:none;stroke-opacity:1"
       d="m 18.519262,7.9641 c 0.262339,-0.004 0.518185,0.0824 0.507814,0.261718 -0.07244,1.252406 -0.08092,3.577079 -0.509766,4.482421 0.43786,0.679076 1.45073,-0.168882 1.972084,0.675332 0.452161,0.732166 -0.349349,2.081776 -0.848142,2.343788 -0.249251,0.130925 -1.037875,-0.472672 -0.822267,-0.65374 0.500287,-0.420143 0.467471,-0.462662 0.706946,-0.985156 -0.459066,-0.230808 -1.780884,0.645349 -2.246901,-0.08139 -0.588369,0.0052 -1.103297,0.859515 -1.722051,1.41206 0.424846,0.512838 1.69065,1.291691 2.26959,1.529043 -0.0249,0.28045 0.125748,1.058665 -0.147059,0.989084 -0.938499,-0.239365 -3.241412,-1.488044 -3.300824,-2.420749 -0.05154,-0.809114 1.222776,-2.121729 1.658155,-2.802403 -0.432152,-0.903769 -0.450328,-3.230289 -0.527344,-4.48242 -0.02205,-0.358557 1.021671,-0.345808 1.056641,0.01172 0.100733,1.029809 0.213416,2.743698 0.427734,2.906249 0.12111,0.09185 0.211097,0.116147 0.279298,0.10547 0.06823,0.01042 0.160482,-0.01512 0.281247,-0.107425 0.213721,-0.163347 0.320998,-1.876093 0.417968,-2.906264 0.01683,-0.178826 0.28454,-0.273368 0.546876,-0.277345 z"
       id="path4-4-5-2-0-5-6"
       sodipodi:nodetypes="ssscssccccsscscscsss" /><path
       id="path1-7-1-2-6-0-1-6-2"
       style="fill:#ffffff;stroke:#000000;stroke-width:0.265;stroke-dasharray:none"
       d="m 16.62636,7.794541 c 0,0.207212 -0.227855,0.738306 -0.588877,0.738306 -0.361024,-1e-6 -0.627768,-0.54177 -0.627763,-0.74899 0,-0.207216 -0.07027,-0.385877 0.627765,-0.364519 0.698039,0.02136 0.588877,0.167981 0.588878,0.375199 z"
       sodipodi:nodetypes="ssszs" /><path
       id="path1-7-1-9-0-2-5-0-2-6"
       style="fill:#ffffff;stroke:#000000;stroke-width:0.265;stroke-dasharray:none"
       d="m 19.107457,7.81631 c 0,0.207212 -0.227855,0.738308 -0.588877,0.738308 -0.361022,-10e-7 -0.627769,-0.541771 -0.627764,-0.748991 0,-0.207214 -0.07027,-0.385875 0.627765,-0.364518 0.69804,0.02136 0.588875,0.167981 0.588876,0.375196 z"
       sodipodi:nodetypes="ssszs" /><ellipse
       style="fill:#ffffff;fill-opacity:1;stroke:#000000;stroke-width:0.265;stroke-dasharray:none;stroke-opacity:1"
       id="path1-7-2-9-9-1-6-1-9-5-8-5"
       cx="-24.614088"
       cy="-1.25603"
       rx="0.65429264"
       ry="0.80279088"
       transform="matrix(-0.73860137,-0.67414243,-0.67414243,0.73860137,0,0)" /><path
       style="fill:#999999;fill-opacity:1;stroke:none;stroke-width:0.264999;stroke-dasharray:none;stroke-opacity:1"
       d="m 16.480739,27.0359 c -0.262339,0.004 -0.518185,-0.0824 -0.507814,-0.261718 0.07244,-1.252406 0.08092,-3.57708 0.509766,-4.482422 -0.43786,-0.679076 -1.45073,0.168882 -1.972084,-0.675332 -0.452161,-0.732166 0.349349,-2.081776 0.848142,-2.343788 0.249251,-0.130925 1.037875,0.472672 0.822267,0.65374 -0.500287,0.420143 -0.467471,0.462662 -0.706946,0.985156 0.459066,0.230808 1.780884,-0.645349 2.246901,0.08139 0.588369,-0.0052 1.103297,-0.859515 1.722051,-1.41206 -0.424846,-0.512838 -1.69065,-1.291691 -2.26959,-1.529043 0.0249,-0.28045 -0.125748,-1.058665 0.147059,-0.989084 0.938499,0.239365 3.241412,1.488044 3.300824,2.420749 0.05154,0.809114 -1.222776,2.121729 -1.658155,2.802403 0.432152,0.903769 0.450328,3.23029 0.527344,4.482421 0.02205,0.358557 -1.021671,0.345808 -1.056641,-0.01172 -0.100733,-1.029809 -0.213416,-2.743699 -0.427734,-2.90625 -0.12111,-0.09185 -0.211097,-0.116147 -0.279298,-0.10547 -0.06823,-0.01042 -0.160482,0.01512 -0.281247,0.107425 -0.213721,0.163347 -0.320998,1.876094 -0.417968,2.906265 -0.01683,0.178826 -0.28454,0.273368 -0.546876,0.277345 z"
       id="path4-4-5-2-0-5"
       sodipodi:nodetypes="ssscssccccsscscscsss" /><path
       id="path1-7-1-2-6-0-1-6"
       style="fill:#ffffff;stroke:#000000;stroke-width:0.265;stroke-dasharray:none"
       d="m 18.373641,27.205459 c 0,-0.207212 0.227855,-0.738306 0.588877,-0.738306 0.361024,1e-6 0.627768,0.54177 0.627763,0.74899 0,0.207216 0.07027,0.385877 -0.627765,0.364519 -0.698039,-0.02136 -0.588877,-0.167981 -0.588878,-0.375199 z"
       sodipodi:nodetypes="ssszs" /><path
       id="path1-7-1-9-0-2-5-0-2"
       style="fill:#ffffff;stroke:#000000;stroke-width:0.265;stroke-dasharray:none"
       d="m 15.892544,27.18369 c 0,-0.207212 0.227855,-0.738308 0.588877,-0.738308 0.361022,1e-6 0.627769,0.541771 0.627764,0.748991 0,0.207214 0.07027,0.385875 -0.627765,0.364518 -0.69804,-0.02136 -0.588875,-0.167981 -0.588876,-0.375196 z"
       sodipodi:nodetypes="ssszs" /><ellipse
       style="fill:#ffffff;fill-opacity:1;stroke:#000000;stroke-width:0.265;stroke-dasharray:none;stroke-opacity:1"
       id="path1-7-2-9-9-1-6-1-9-5-8"
       cx="24.831945"
       cy="-3.5120916"
       rx="0.65429264"
       ry="0.80279088"
       transform="matrix(0.73860137,0.67414243,0.67414243,-0.73860137,0,0)" /><ellipse
       style="fill:#ffffff;fill-opacity:1;stroke:#000000;stroke-width:0.265;stroke-dasharray:none;stroke-opacity:1"
       id="path1-7-2-9-9-8"
       cx="-4.7853241e-08"
       cy="-24.748737"
       rx="0.65429264"
       ry="0.80279088"
       transform="rotate(135)" /><path
       id="path2-2-1"
       style="fill:none;stroke:#000000;stroke-width:0.2;stroke-dasharray:none;stroke-opacity:1;marker-end:url(#RoundedArrow-6-9)"
       d="m 13.306147,6.70146 c 1.089791,-0.77263 4.44362,-2.082312 7.649568,0.114324"
       sodipodi:nodetypes="cc" /><text
       xml:space="preserve"
       style="font-size:3.175px;text-align:start;writing-mode:lr-tb;direction:ltr;text-anchor:start;fill:#000000;fill-opacity:1;stroke:none;stroke-width:0.2;stroke-dasharray:none;stroke-opacity:1"
       x="6.7476892"
       y="5.6372023"
       id="text5-8-9"><tspan
         sodipodi:role="line"
         id="tspan5-2-6"
         style="font-style:normal;font-variant:normal;font-weight:bold;font-stretch:normal;font-family:'Bitstream Vera Sans';-inkscape-font-specification:'Bitstream Vera Sans Bold';fill:#000000;fill-opacity:1;stroke:none;stroke-width:0.2"
         x="6.7476892"
         y="5.6372023">360</tspan></text><path
       id="path1-9-9-4-2-8-5"
       style="fill:#4d4d4d;fill-opacity:1;stroke:#000000;stroke-width:0.265"
       d="m 16.054463,21.582668 c -2e-6,-0.918209 0.744352,-2.054433 1.662561,-2.054433 0.918208,-10e-7 1.662562,1.136225 1.66256,2.054432 0,0.918204 -0.744354,1.662561 -1.662559,1.662559 -0.918207,1e-6 -1.662562,-0.744351 -1.662562,-1.662558 z"
       sodipodi:nodetypes="zzzzz" /><path
       id="path1-9-9-4-2-8"
       style="fill:#66ff66;fill-opacity:1;stroke:#000000;stroke-width:0.265"
       d="m 18.945538,13.417331 c 2e-6,0.918209 -0.744352,2.054433 -1.662561,2.054433 -0.918208,10e-7 -1.662562,-1.136225 -1.66256,-2.054432 -10e-7,-0.918204 0.744353,-1.662561 1.662559,-1.662559 0.918206,-10e-7 1.662562,0.744351 1.662562,1.662558 z"
       sodipodi:nodetypes="zzzzz" /><path
       id="path1-3-1-5-8-0-8-0-6-3-5-8"
       style="fill:url(#linearGradient11);fill-opacity:1;stroke:none;stroke-width:0.265"
       d="m 12.503534,16.772124 c 1.179395,-1.638105 3.686366,-1.551535 4.62402,-1.438288 0.913729,-0.284091 0.374996,-2.501134 0.164161,-3.434499 -1.98062,-0.161516 -3.715498,0.483263 -5.624031,2.734818 -1.9085336,2.251554 -0.343544,3.776075 0.83585,2.137969 z"
       sodipodi:nodetypes="zcczz" /><path
       id="path1-3-1-5-8-0-8-0-6-3-5-8-9"
       style="fill:url(#linearGradient1);fill-opacity:1;stroke:none;stroke-width:0.265"
       d="m 22.496466,18.227874 c -1.179394,1.638105 -3.686366,1.551535 -4.624019,1.438288 -0.913729,0.284091 -0.374996,2.501134 -0.164161,3.434499 1.98062,0.161516 3.715498,-0.483263 5.62403,-2.734818 1.908535,-2.251554 0.343544,-3.776075 -0.83585,-2.137969 z"
       sodipodi:nodetypes="zcczz" /></g></svg>
