<?xml version="1.0" encoding="UTF-8" standalone="no"?>
<!-- Created with Inkscape (http://www.inkscape.org/) -->

<svg
   width="35mm"
   height="35mm"
   viewBox="0 0 35 35"
   version="1.1"
   id="svg1"
   xml:space="preserve"
   inkscape:version="1.4 (e7c3feb100, 2024-10-09)"
   sodipodi:docname="17_p1.svg"
   xmlns:inkscape="http://www.inkscape.org/namespaces/inkscape"
   xmlns:sodipodi="http://sodipodi.sourceforge.net/DTD/sodipodi-0.dtd"
   xmlns="http://www.w3.org/2000/svg"
   xmlns:svg="http://www.w3.org/2000/svg"><sodipodi:namedview
     id="namedview1"
     pagecolor="#ffffff"
     bordercolor="#000000"
     borderopacity="0.25"
     inkscape:showpageshadow="2"
     inkscape:pageopacity="0.0"
     inkscape:pagecheckerboard="0"
     inkscape:deskcolor="#d1d1d1"
     inkscape:document-units="mm"
     inkscape:zoom="4.2968333"
     inkscape:cx="79.942594"
     inkscape:cy="15.12742"
     inkscape:window-width="1916"
     inkscape:window-height="1023"
     inkscape:window-x="0"
     inkscape:window-y="0"
     inkscape:window-maximized="0"
     inkscape:current-layer="layer1"
     showgrid="false"><sodipodi:guide
       position="25.431035,17.543103"
       orientation="0,132.28346"
       id="guide5"
       inkscape:locked="false" /><sodipodi:guide
       position="35.000001,35.000001"
       orientation="132.28346,0"
       id="guide6"
       inkscape:locked="false" /><sodipodi:guide
       position="35.000001,0"
       orientation="0,-132.28346"
       id="guide7"
       inkscape:locked="false" /><sodipodi:guide
       position="17.503506,35.914363"
       orientation="-132.28346,0"
       id="guide8"
       inkscape:locked="false" /></sodipodi:namedview><defs
     id="defs1"><inkscape:path-effect
       effect="mirror_symmetry"
       start_point="17.297909,16.234992"
       end_point="17.313303,7.810326"
       center_point="17.305606,12.022659"
       id="path-effect5"
       is_visible="true"
       lpeversion="1.2"
       lpesatellites=""
       mode="free"
       discard_orig_path="false"
       fuse_paths="true"
       oposite_fuse="false"
       split_items="false"
       split_open="false"
       link_styles="false" /><inkscape:path-effect
       effect="mirror_symmetry"
       start_point="17.297909,16.234992"
       end_point="17.313303,7.810326"
       center_point="17.305606,12.022659"
       id="path-effect5-7"
       is_visible="true"
       lpeversion="1.2"
       lpesatellites=""
       mode="free"
       discard_orig_path="false"
       fuse_paths="true"
       oposite_fuse="false"
       split_items="false"
       split_open="false"
       link_styles="false" /><inkscape:path-effect
       effect="mirror_symmetry"
       start_point="17.297909,16.234992"
       end_point="17.313303,7.810326"
       center_point="17.305606,12.022659"
       id="path-effect5-6"
       is_visible="true"
       lpeversion="1.2"
       lpesatellites=""
       mode="free"
       discard_orig_path="false"
       fuse_paths="true"
       oposite_fuse="false"
       split_items="false"
       split_open="false"
       link_styles="false" /><inkscape:path-effect
       effect="mirror_symmetry"
       start_point="17.297909,16.234992"
       end_point="17.313303,7.810326"
       center_point="17.305606,12.022659"
       id="path-effect5-3"
       is_visible="true"
       lpeversion="1.2"
       lpesatellites=""
       mode="free"
       discard_orig_path="false"
       fuse_paths="true"
       oposite_fuse="false"
       split_items="false"
       split_open="false"
       link_styles="false" /><inkscape:path-effect
       effect="mirror_symmetry"
       start_point="17.297909,16.234992"
       end_point="17.313303,7.810326"
       center_point="17.305606,12.022659"
       id="path-effect5-66"
       is_visible="true"
       lpeversion="1.2"
       lpesatellites=""
       mode="free"
       discard_orig_path="false"
       fuse_paths="true"
       oposite_fuse="false"
       split_items="false"
       split_open="false"
       link_styles="false" /><inkscape:path-effect
       effect="mirror_symmetry"
       start_point="17.297909,16.234992"
       end_point="17.313303,7.810326"
       center_point="17.305606,12.022659"
       id="path-effect5-4"
       is_visible="true"
       lpeversion="1.2"
       lpesatellites=""
       mode="free"
       discard_orig_path="false"
       fuse_paths="true"
       oposite_fuse="false"
       split_items="false"
       split_open="false"
       link_styles="false" /><inkscape:path-effect
       effect="mirror_symmetry"
       start_point="17.297909,16.234992"
       end_point="17.313303,7.810326"
       center_point="17.305606,12.022659"
       id="path-effect5-4-7"
       is_visible="true"
       lpeversion="1.2"
       lpesatellites=""
       mode="free"
       discard_orig_path="false"
       fuse_paths="true"
       oposite_fuse="false"
       split_items="false"
       split_open="false"
       link_styles="false" /><inkscape:path-effect
       effect="mirror_symmetry"
       start_point="17.297909,16.234992"
       end_point="17.313303,7.810326"
       center_point="17.305606,12.022659"
       id="path-effect5-41"
       is_visible="true"
       lpeversion="1.2"
       lpesatellites=""
       mode="free"
       discard_orig_path="false"
       fuse_paths="true"
       oposite_fuse="false"
       split_items="false"
       split_open="false"
       link_styles="false" /><inkscape:path-effect
       effect="mirror_symmetry"
       start_point="17.297909,16.234992"
       end_point="17.313303,7.810326"
       center_point="17.305606,12.022659"
       id="path-effect5-4-0"
       is_visible="true"
       lpeversion="1.2"
       lpesatellites=""
       mode="free"
       discard_orig_path="false"
       fuse_paths="true"
       oposite_fuse="false"
       split_items="false"
       split_open="false"
       link_styles="false" /><inkscape:path-effect
       effect="mirror_symmetry"
       start_point="17.493844,16.300304"
       end_point="17.509238,7.875638"
       center_point="17.501541,12.087971"
       id="path-effect5-4-0-9"
       is_visible="true"
       lpeversion="1.2"
       lpesatellites=""
       mode="free"
       discard_orig_path="false"
       fuse_paths="true"
       oposite_fuse="false"
       split_items="false"
       split_open="false"
       link_styles="false" /><inkscape:path-effect
       effect="mirror_symmetry"
       start_point="17.297909,16.234992"
       end_point="17.313303,7.810326"
       center_point="17.305606,12.022659"
       id="path-effect5-4-0-0"
       is_visible="true"
       lpeversion="1.2"
       lpesatellites=""
       mode="free"
       discard_orig_path="false"
       fuse_paths="true"
       oposite_fuse="false"
       split_items="false"
       split_open="false"
       link_styles="false" /><inkscape:path-effect
       effect="mirror_symmetry"
       start_point="17.493844,16.300304"
       end_point="17.509238,7.875638"
       center_point="17.501541,12.087971"
       id="path-effect5-4-0-9-7"
       is_visible="true"
       lpeversion="1.2"
       lpesatellites=""
       mode="free"
       discard_orig_path="false"
       fuse_paths="true"
       oposite_fuse="false"
       split_items="false"
       split_open="false"
       link_styles="false" /><inkscape:path-effect
       effect="mirror_symmetry"
       start_point="17.493844,16.300304"
       end_point="17.509238,7.875638"
       center_point="17.501541,12.087971"
       id="path-effect5-4-0-9-3"
       is_visible="true"
       lpeversion="1.2"
       lpesatellites=""
       mode="free"
       discard_orig_path="false"
       fuse_paths="true"
       oposite_fuse="false"
       split_items="false"
       split_open="false"
       link_styles="false" /><inkscape:path-effect
       effect="mirror_symmetry"
       start_point="17.493844,16.300304"
       end_point="17.509238,7.875638"
       center_point="17.501541,12.087971"
       id="path-effect5-4-0-9-5"
       is_visible="true"
       lpeversion="1.2"
       lpesatellites=""
       mode="free"
       discard_orig_path="false"
       fuse_paths="true"
       oposite_fuse="false"
       split_items="false"
       split_open="false"
       link_styles="false" /><inkscape:path-effect
       effect="mirror_symmetry"
       start_point="17.297909,16.234992"
       end_point="17.313303,7.810326"
       center_point="17.305606,12.022659"
       id="path-effect5-4-6-1"
       is_visible="true"
       lpeversion="1.2"
       lpesatellites=""
       mode="free"
       discard_orig_path="false"
       fuse_paths="true"
       oposite_fuse="false"
       split_items="false"
       split_open="false"
       link_styles="false" /><inkscape:path-effect
       effect="mirror_symmetry"
       start_point="17.493844,16.300304"
       end_point="17.509238,7.875638"
       center_point="17.501541,12.087971"
       id="path-effect5-4-0-9-5-9"
       is_visible="true"
       lpeversion="1.2"
       lpesatellites=""
       mode="free"
       discard_orig_path="false"
       fuse_paths="true"
       oposite_fuse="false"
       split_items="false"
       split_open="false"
       link_styles="false" /></defs><g
     inkscape:label="Layer 1"
     inkscape:groupmode="layer"
     id="layer1"><ellipse
       style="fill:#ffffff;fill-opacity:1;stroke:#000000;stroke-width:0.265;stroke-dasharray:none;stroke-opacity:1"
       id="path1-7-2-9-9-5-1"
       cx="29.072399"
       cy="2.3692987"
       rx="0.65429264"
       ry="0.80279088"
       transform="rotate(30)" /><path
       id="path1-3-0-4-12-1"
       style="fill:#ff6666;fill-opacity:1;stroke:#000000;stroke-width:0.265"
       d="m 23.686631,15.767134 c -0.91821,0 -2.054433,0.744353 -2.054433,1.662561 1e-6,0.918205 1.136227,1.66256 2.054432,1.662561 0.918206,-10e-7 1.662562,-0.744356 1.662561,-1.662561 0,-0.91821 -0.744351,-1.662563 -1.66256,-1.662561 z"
       sodipodi:nodetypes="zzzzz" /><path
       style="fill:#999999;fill-opacity:1;stroke:none;stroke-width:0.264999;stroke-dasharray:none;stroke-opacity:1"
       d="m 24.458389,18.826266 c 0.08987,0.560828 -0.277557,0.869724 -0.485161,1.403465 -0.474878,0.420007 -1.862384,1.124616 -1.403531,1.560528 0.562304,0.766179 1.803092,-0.418381 2.259561,-1.000646 0.373621,-0.476589 1.141021,-1.884406 0.983964,-2.486772 -0.120445,-0.461934 -0.94616,-1.279224 -1.403164,-1.704237 -0.423341,-0.458555 -1.239983,-1.289325 -1.701477,-1.411453 -0.601783,-0.15928 -1.779122,0.250119 -2.307766,0.545523 -0.392391,0.219267 -2.072938,1.259947 -1.781578,1.568894 0.434228,0.460448 1.254643,-0.200182 2.137895,-0.621479 0.499418,-0.15289 0.863383,-0.231412 1.42388,-0.139491 -0.505605,0.830372 -2.004587,1.668799 -2.944436,2.499736 -0.269127,0.237943 0.421283,1.020812 0.698817,0.792735 0.399703,-0.328483 0.573937,-0.313189 0.900454,-0.734727 0.473874,-0.166534 1.112149,-0.388754 1.585467,-0.754063 0.05742,0.02623 0.101949,0.06013 0.138118,0.09667 0.03641,0.03629 -0.181022,0.941863 -0.155069,0.999423 0.345787,0.517335 1.198731,-0.06121 2.054038,-0.614106 z"
       id="path4-6-3-2-0-9-9"
       sodipodi:nodetypes="cccscccssscsscccccc" /><ellipse
       style="fill:#ffffff;fill-opacity:1;stroke:#000000;stroke-width:0.265;stroke-dasharray:none;stroke-opacity:1"
       id="path1-7-2-9-9-1-3-3-0"
       cx="-24.241497"
       cy="-7.9151978"
       rx="0.65429264"
       ry="0.80279088"
       transform="matrix(-0.5,-0.8660254,-0.8660254,0.5,0,0)" /><path
       id="path1-7-1-1-4-1-9-5"
       style="fill:#ffffff;stroke:#000000;stroke-width:0.265;stroke-dasharray:none"
       d="m 22.307373,20.001374 c -0.516912,-0.448521 0.423494,-1.136109 0.571562,-1.28107 0.148069,-0.144957 0.545664,-1.105615 1.149349,-0.493912 0.732285,0.742043 -1.255357,2.178942 -1.720913,1.774978 z"
       sodipodi:nodetypes="sszs" /><path
       id="path1-7-1-1-4-5-9-4-6"
       style="fill:#ffffff;stroke:#000000;stroke-width:0.265;stroke-dasharray:none"
       d="m 18.377782,20.708906 c 0.448522,0.516913 1.136111,-0.423496 1.281074,-0.57156 0.144957,-0.148068 1.105615,-0.545662 0.493909,-1.149351 -0.742042,-0.732284 -2.178948,1.255346 -1.77498,1.720915 z"
       sodipodi:nodetypes="sszs" /><ellipse
       style="fill:#ffffff;fill-opacity:1;stroke:#000000;stroke-width:0.265;stroke-dasharray:none;stroke-opacity:1"
       id="path1-7-2-9-9-1-3-9-5-7"
       cx="30.893232"
       cy="-5.5571523"
       rx="0.65429264"
       ry="0.80279088"
       transform="matrix(0.82637437,0.56312112,0.56312112,-0.82637437,0,0)" /><ellipse
       style="fill:#ffffff;fill-opacity:1;stroke:#000000;stroke-width:0.265;stroke-dasharray:none;stroke-opacity:1"
       id="path1-7-2-9-9-1-3-9-5-1-7"
       cx="-30.893236"
       cy="5.5571542"
       rx="0.65429264"
       ry="0.80279088"
       transform="matrix(-0.82637437,-0.56312112,-0.56312112,0.82637437,0,0)" /><path
       style="fill:#999999;fill-opacity:1;stroke:none;stroke-width:0.264999;stroke-dasharray:none;stroke-opacity:1"
       d="m 14.355059,29.713001 c 0.182673,0.188331 0.424675,0.308145 0.544142,0.174014 0.834361,-0.936807 2.472153,-2.586591 2.809092,-3.53001 0.789793,-0.170561 1.1859,0.813163 2.177204,0.7704 0.804788,-0.03472 1.054973,-1.032896 1.06963,-1.913721 0.0063,-0.377414 -0.590626,-0.792504 -0.803041,-0.392558 -0.326984,0.615663 -0.458864,1.168682 -0.458864,1.168682 -0.680427,-0.405405 -1.463827,-0.967817 -2.019456,-1.34947 -0.379621,-0.557021 -0.260926,-1.98963 -0.38675,-2.640744 0.584973,-0.584976 1.140917,-1.113665 1.92851,-1.915783 -0.258111,-0.372096 -0.256714,-0.448203 -0.574522,-0.651865 -0.806438,0.704445 -2.026687,1.426904 -2.369816,2.155704 -0.292691,0.621687 -0.139262,2.222089 -0.312708,3.011254 -0.944642,0.333486 -2.60259,1.965731 -3.54244,2.796666 -0.269128,0.237944 0.477907,0.966951 0.755445,0.738871 0.799416,-0.656957 2.090994,-1.78918 2.35748,-1.752576 0.150586,0.02069 0.231386,0.06718 0.272072,0.122915 0.05563,0.04088 0.102785,0.124168 0.12292,0.274832 0.03562,0.266621 -1.099612,1.553569 -1.759486,2.350579 -0.11455,0.138351 0.0079,0.394502 0.190588,0.58281 z"
       id="path4-6-1"
       sodipodi:nodetypes="cscssscccccscccscssc" /><path
       id="path1-3-1"
       style="fill:#66ff66;fill-opacity:1;stroke:#000000;stroke-width:0.265"
       d="m 15.753797,25.015118 c -2e-6,-0.918208 0.744351,-2.054432 1.662561,-2.054433 0.918207,2e-6 1.66256,1.136227 1.66256,2.054433 2e-6,0.918208 -0.744353,1.662565 -1.662559,1.662565 -0.918209,1e-6 -1.662564,-0.744354 -1.662562,-1.662565 z"
       sodipodi:nodetypes="zzzzz" /><path
       id="path1-7-1-1-0"
       style="fill:#ffffff;stroke:#000000;stroke-width:0.265;stroke-dasharray:none"
       d="m 13.8238,29.390747 c 0.146521,-0.146522 0.683179,-0.360945 0.938458,-0.105663 0.255285,0.255282 0.06081,0.826989 -0.08572,0.973511 -0.146522,0.146522 -0.223167,0.322544 -0.70165,-0.186143 C 13.496403,29.56376 13.67727,29.537273 13.823793,29.39075 Z"
       sodipodi:nodetypes="ssszs" /><path
       id="path1-7-1-9-7-3"
       style="fill:#ffffff;stroke:#000000;stroke-width:0.265;stroke-dasharray:none"
       d="m 12.084793,27.620954 c 0.146523,-0.146524 0.683181,-0.360945 0.938461,-0.105663 0.25528,0.255281 0.06081,0.826987 -0.08572,0.97351 -0.146519,0.146522 -0.223165,0.322542 -0.701646,-0.186142 -0.478484,-0.508692 -0.29762,-0.535178 -0.151095,-0.681701 z"
       sodipodi:nodetypes="ssszs" /><ellipse
       style="fill:#ffffff;fill-opacity:1;stroke:#000000;stroke-width:0.265;stroke-dasharray:none;stroke-opacity:1"
       id="path1-7-2-9-9-1-3-1"
       cx="26.3526"
       cy="18.528292"
       rx="0.65429264"
       ry="0.80279088"
       transform="rotate(15)" /><ellipse
       style="fill:#ffffff;fill-opacity:1;stroke:#000000;stroke-width:0.265;stroke-dasharray:none;stroke-opacity:1"
       id="path1-7-2-9-9-1-3-9-8"
       cx="27.375109"
       cy="1.5238707"
       rx="0.65429264"
       ry="0.80279088"
       transform="matrix(0.65246988,0.75781466,0.75781466,-0.65246988,0,0)" /><path
       id="path1-3-0-4-12-1-6"
       style="fill:#4d4d4d;fill-opacity:1;stroke:#000000;stroke-width:0.265"
       d="m 15.622104,9.969396 c 0,0.918209 0.744353,2.054432 1.66256,2.054432 0.918207,-10e-7 1.662561,-1.136226 1.662563,-2.054431 -2e-6,-0.918207 -0.744356,-1.662563 -1.662563,-1.662562 -0.918209,0 -1.662562,0.744352 -1.66256,1.662561 z"
       sodipodi:nodetypes="zzzzz" /><path
       style="fill:#999999;fill-opacity:1;stroke:none;stroke-width:0.264999;stroke-dasharray:none;stroke-opacity:1"
       d="m 18.25236,11.561902 c 0.08987,0.560829 -0.277558,0.869725 -0.485161,1.403466 -0.474878,0.420007 -1.862385,1.124616 -1.403531,1.560528 0.562304,0.766179 1.803092,-0.418382 2.259561,-1.000647 0.373621,-0.476589 1.14102,-1.884405 0.983963,-2.486772 C 19.486748,10.576543 18.661032,9.759253 18.204029,9.33424 17.780687,8.875685 16.964046,8.044915 16.502552,7.922787 15.900769,7.763507 14.72343,8.172906 14.194786,8.468311 c -0.39239,0.219266 -2.072938,1.259946 -1.781577,1.568894 0.434227,0.460447 1.254642,-0.200183 2.137894,-0.62148 0.499418,-0.15289 0.863383,-0.231412 1.42388,-0.139491 -0.505605,0.830372 -2.004587,1.668799 -2.944437,2.499737 -0.269127,0.237943 0.421283,1.020811 0.698818,0.792735 0.399703,-0.328484 0.573937,-0.313189 0.900454,-0.734727 0.473874,-0.166534 1.112149,-0.388755 1.585466,-0.754063 0.05742,0.02623 0.10195,0.06013 0.138119,0.09667 0.03641,0.03629 -0.181022,0.941863 -0.155069,0.999422 0.345787,0.517336 1.198731,-0.06121 2.054037,-0.614105 z"
       id="path4-6-3-2-0-9-9-0"
       sodipodi:nodetypes="cccscccssscsscccccc" /><ellipse
       style="fill:#ffffff;fill-opacity:1;stroke:#000000;stroke-width:0.265;stroke-dasharray:none;stroke-opacity:1"
       id="path1-7-2-9-9-1-3-3-0-4"
       cx="-14.847365"
       cy="-6.172791"
       rx="0.65429264"
       ry="0.80279088"
       transform="matrix(-0.5,-0.8660254,-0.8660254,0.5,0,0)" /><path
       id="path1-7-1-1-4-1-9-5-6"
       style="fill:#ffffff;stroke:#000000;stroke-width:0.265;stroke-dasharray:none"
       d="m 16.101344,12.737011 c -0.516912,-0.448521 0.423494,-1.136109 0.571562,-1.28107 0.148068,-0.144958 0.545663,-1.105617 1.149349,-0.493913 0.732284,0.742044 -1.255357,2.178943 -1.720913,1.774979 z"
       sodipodi:nodetypes="sszs" /><path
       id="path1-7-1-1-4-5-9-4-6-7"
       style="fill:#ffffff;stroke:#000000;stroke-width:0.265;stroke-dasharray:none"
       d="m 12.171753,13.444542 c 0.448522,0.516914 1.136111,-0.423495 1.281073,-0.571559 0.144958,-0.148069 1.105616,-0.545662 0.49391,-1.149351 -0.742043,-0.732285 -2.178949,1.255346 -1.77498,1.720915 z"
       sodipodi:nodetypes="sszs" /><ellipse
       style="fill:#ffffff;fill-opacity:1;stroke:#000000;stroke-width:0.265;stroke-dasharray:none;stroke-opacity:1"
       id="path1-7-2-9-9-1-3-9-5-7-6"
       cx="21.674007"
       cy="-3.048821"
       rx="0.65429264"
       ry="0.80279088"
       transform="matrix(0.82637437,0.56312112,0.56312112,-0.82637437,0,0)" /><ellipse
       style="fill:#ffffff;fill-opacity:1;stroke:#000000;stroke-width:0.265;stroke-dasharray:none;stroke-opacity:1"
       id="path1-7-2-9-9-1-3-9-5-1-7-0"
       cx="-21.674011"
       cy="3.0488229"
       rx="0.65429264"
       ry="0.80279088"
       transform="matrix(-0.82637437,-0.56312112,-0.56312112,0.82637437,0,0)" /><path
       style="fill:#999999;fill-opacity:1;stroke:none;stroke-width:0.264999;stroke-dasharray:none;stroke-opacity:1"
       d="m 8.1490298,22.448638 c 0.182673,0.18833 0.424675,0.308145 0.544142,0.174014 0.834361,-0.936807 2.4721532,-2.586592 2.8090922,-3.53001 0.789793,-0.170561 1.1859,0.813163 2.177204,0.7704 0.804788,-0.03472 1.054972,-1.032896 1.06963,-1.913722 0.0063,-0.377414 -0.590627,-0.792504 -0.803041,-0.392557 -0.326984,0.615663 -0.458865,1.168682 -0.458865,1.168682 -0.680426,-0.405406 -1.463827,-0.967817 -2.019455,-1.34947 -0.379621,-0.557021 -0.260927,-1.98963 -0.386751,-2.640744 0.584974,-0.584976 1.140917,-1.113665 1.928511,-1.915783 -0.258111,-0.372097 -0.256714,-0.448203 -0.574522,-0.651865 -0.806438,0.704445 -2.026688,1.426904 -2.369816,2.155704 -0.2926912,0.621687 -0.1392622,2.222089 -0.3127082,3.011254 -0.944642,0.333485 -2.60259,1.965731 -3.54244,2.796666 -0.269128,0.237944 0.477907,0.96695 0.755445,0.73887 0.799416,-0.656956 2.090994,-1.78918 2.35748,-1.752575 0.150585,0.02069 0.231386,0.06718 0.272072,0.122915 0.05563,0.04088 0.102785,0.124168 0.12292,0.274832 0.03562,0.26662 -1.099612,1.553569 -1.759486,2.350579 -0.11455,0.138351 0.0079,0.394501 0.190588,0.58281 z"
       id="path4-6-1-9"
       sodipodi:nodetypes="cscssscccccscccscssc" /><path
       id="path1-3-1-7"
       style="fill:#6666ff;fill-opacity:1;stroke:#000000;stroke-width:0.265"
       d="m 11.014394,15.89226 c 0.918208,-1e-6 2.054432,0.744352 2.054433,1.662562 -2e-6,0.918207 -1.136226,1.66256 -2.054433,1.66256 -0.918207,1e-6 -1.6625642,-0.744353 -1.6625642,-1.662559 -1e-6,-0.918209 0.7443542,-1.662564 1.6625642,-1.662563 z"
       sodipodi:nodetypes="zzzzz" /><path
       id="path1-7-1-1-0-5"
       style="fill:#ffffff;stroke:#000000;stroke-width:0.265;stroke-dasharray:none"
       d="m 7.6177708,22.126384 c 0.146521,-0.146522 0.683179,-0.360945 0.938458,-0.105663 0.255285,0.255281 0.06081,0.826988 -0.08572,0.973511 -0.146522,0.146522 -0.223167,0.322544 -0.70165,-0.186143 -0.478485,-0.508692 -0.297618,-0.535179 -0.151095,-0.681702 z"
       sodipodi:nodetypes="ssszs" /><path
       id="path1-7-1-9-7-3-9"
       style="fill:#ffffff;stroke:#000000;stroke-width:0.265;stroke-dasharray:none"
       d="m 5.8787638,20.356591 c 0.146523,-0.146524 0.683181,-0.360945 0.938461,-0.105663 0.25528,0.255281 0.06081,0.826987 -0.08572,0.97351 -0.146519,0.146522 -0.223165,0.322542 -0.701646,-0.186142 -0.478484,-0.508692 -0.29762,-0.535178 -0.151095,-0.681701 z"
       sodipodi:nodetypes="ssszs" /><ellipse
       style="fill:#ffffff;fill-opacity:1;stroke:#000000;stroke-width:0.265;stroke-dasharray:none;stroke-opacity:1"
       id="path1-7-2-9-9-1-3-1-7"
       cx="18.4779"
       cy="13.1177"
       rx="0.65429264"
       ry="0.80279088"
       transform="rotate(15)" /><ellipse
       style="fill:#ffffff;fill-opacity:1;stroke:#000000;stroke-width:0.265;stroke-dasharray:none;stroke-opacity:1"
       id="path1-7-2-9-9-1-3-9-8-8"
       cx="17.820824"
       cy="1.5606349"
       rx="0.65429264"
       ry="0.80279088"
       transform="matrix(0.65246988,0.75781466,0.75781466,-0.65246988,0,0)" /></g></svg>
