<?xml version="1.0" encoding="UTF-8" standalone="no"?>
<!-- Created with Inkscape (http://www.inkscape.org/) -->

<svg
   width="35mm"
   height="35mm"
   viewBox="0 0 35 35"
   version="1.1"
   id="svg1"
   xml:space="preserve"
   inkscape:version="1.4 (e7c3feb100, 2024-10-09)"
   sodipodi:docname="17_p2.svg"
   xmlns:inkscape="http://www.inkscape.org/namespaces/inkscape"
   xmlns:sodipodi="http://sodipodi.sourceforge.net/DTD/sodipodi-0.dtd"
   xmlns="http://www.w3.org/2000/svg"
   xmlns:svg="http://www.w3.org/2000/svg"><sodipodi:namedview
     id="namedview1"
     pagecolor="#ffffff"
     bordercolor="#000000"
     borderopacity="0.25"
     inkscape:showpageshadow="2"
     inkscape:pageopacity="0.0"
     inkscape:pagecheckerboard="0"
     inkscape:deskcolor="#d1d1d1"
     inkscape:document-units="mm"
     inkscape:zoom="3.03832"
     inkscape:cx="84.750784"
     inkscape:cy="5.9243267"
     inkscape:window-width="1916"
     inkscape:window-height="1023"
     inkscape:window-x="0"
     inkscape:window-y="0"
     inkscape:window-maximized="0"
     inkscape:current-layer="layer1"
     showgrid="false"><sodipodi:guide
       position="25.431035,17.543103"
       orientation="0,132.28346"
       id="guide5"
       inkscape:locked="false" /><sodipodi:guide
       position="35.000001,35.000001"
       orientation="132.28346,0"
       id="guide6"
       inkscape:locked="false" /><sodipodi:guide
       position="35.000001,0"
       orientation="0,-132.28346"
       id="guide7"
       inkscape:locked="false" /><sodipodi:guide
       position="17.503506,35.914363"
       orientation="-132.28346,0"
       id="guide8"
       inkscape:locked="false" /></sodipodi:namedview><defs
     id="defs1"><inkscape:path-effect
       effect="mirror_symmetry"
       start_point="17.297909,16.234992"
       end_point="17.313303,7.810326"
       center_point="17.305606,12.022659"
       id="path-effect5"
       is_visible="true"
       lpeversion="1.2"
       lpesatellites=""
       mode="free"
       discard_orig_path="false"
       fuse_paths="true"
       oposite_fuse="false"
       split_items="false"
       split_open="false"
       link_styles="false" /><inkscape:path-effect
       effect="mirror_symmetry"
       start_point="17.297909,16.234992"
       end_point="17.313303,7.810326"
       center_point="17.305606,12.022659"
       id="path-effect5-7"
       is_visible="true"
       lpeversion="1.2"
       lpesatellites=""
       mode="free"
       discard_orig_path="false"
       fuse_paths="true"
       oposite_fuse="false"
       split_items="false"
       split_open="false"
       link_styles="false" /><inkscape:path-effect
       effect="mirror_symmetry"
       start_point="17.297909,16.234992"
       end_point="17.313303,7.810326"
       center_point="17.305606,12.022659"
       id="path-effect5-6"
       is_visible="true"
       lpeversion="1.2"
       lpesatellites=""
       mode="free"
       discard_orig_path="false"
       fuse_paths="true"
       oposite_fuse="false"
       split_items="false"
       split_open="false"
       link_styles="false" /><inkscape:path-effect
       effect="mirror_symmetry"
       start_point="17.297909,16.234992"
       end_point="17.313303,7.810326"
       center_point="17.305606,12.022659"
       id="path-effect5-3"
       is_visible="true"
       lpeversion="1.2"
       lpesatellites=""
       mode="free"
       discard_orig_path="false"
       fuse_paths="true"
       oposite_fuse="false"
       split_items="false"
       split_open="false"
       link_styles="false" /><inkscape:path-effect
       effect="mirror_symmetry"
       start_point="17.297909,16.234992"
       end_point="17.313303,7.810326"
       center_point="17.305606,12.022659"
       id="path-effect5-66"
       is_visible="true"
       lpeversion="1.2"
       lpesatellites=""
       mode="free"
       discard_orig_path="false"
       fuse_paths="true"
       oposite_fuse="false"
       split_items="false"
       split_open="false"
       link_styles="false" /><inkscape:path-effect
       effect="mirror_symmetry"
       start_point="17.297909,16.234992"
       end_point="17.313303,7.810326"
       center_point="17.305606,12.022659"
       id="path-effect5-4"
       is_visible="true"
       lpeversion="1.2"
       lpesatellites=""
       mode="free"
       discard_orig_path="false"
       fuse_paths="true"
       oposite_fuse="false"
       split_items="false"
       split_open="false"
       link_styles="false" /><inkscape:path-effect
       effect="mirror_symmetry"
       start_point="17.297909,16.234992"
       end_point="17.313303,7.810326"
       center_point="17.305606,12.022659"
       id="path-effect5-4-7"
       is_visible="true"
       lpeversion="1.2"
       lpesatellites=""
       mode="free"
       discard_orig_path="false"
       fuse_paths="true"
       oposite_fuse="false"
       split_items="false"
       split_open="false"
       link_styles="false" /><inkscape:path-effect
       effect="mirror_symmetry"
       start_point="17.297909,16.234992"
       end_point="17.313303,7.810326"
       center_point="17.305606,12.022659"
       id="path-effect5-41"
       is_visible="true"
       lpeversion="1.2"
       lpesatellites=""
       mode="free"
       discard_orig_path="false"
       fuse_paths="true"
       oposite_fuse="false"
       split_items="false"
       split_open="false"
       link_styles="false" /><inkscape:path-effect
       effect="mirror_symmetry"
       start_point="17.297909,16.234992"
       end_point="17.313303,7.810326"
       center_point="17.305606,12.022659"
       id="path-effect5-4-0"
       is_visible="true"
       lpeversion="1.2"
       lpesatellites=""
       mode="free"
       discard_orig_path="false"
       fuse_paths="true"
       oposite_fuse="false"
       split_items="false"
       split_open="false"
       link_styles="false" /><inkscape:path-effect
       effect="mirror_symmetry"
       start_point="17.493844,16.300304"
       end_point="17.509238,7.875638"
       center_point="17.501541,12.087971"
       id="path-effect5-4-0-9"
       is_visible="true"
       lpeversion="1.2"
       lpesatellites=""
       mode="free"
       discard_orig_path="false"
       fuse_paths="true"
       oposite_fuse="false"
       split_items="false"
       split_open="false"
       link_styles="false" /><inkscape:path-effect
       effect="mirror_symmetry"
       start_point="17.297909,16.234992"
       end_point="17.313303,7.810326"
       center_point="17.305606,12.022659"
       id="path-effect5-4-0-0"
       is_visible="true"
       lpeversion="1.2"
       lpesatellites=""
       mode="free"
       discard_orig_path="false"
       fuse_paths="true"
       oposite_fuse="false"
       split_items="false"
       split_open="false"
       link_styles="false" /><inkscape:path-effect
       effect="mirror_symmetry"
       start_point="17.493844,16.300304"
       end_point="17.509238,7.875638"
       center_point="17.501541,12.087971"
       id="path-effect5-4-0-9-7"
       is_visible="true"
       lpeversion="1.2"
       lpesatellites=""
       mode="free"
       discard_orig_path="false"
       fuse_paths="true"
       oposite_fuse="false"
       split_items="false"
       split_open="false"
       link_styles="false" /><inkscape:path-effect
       effect="mirror_symmetry"
       start_point="17.493844,16.300304"
       end_point="17.509238,7.875638"
       center_point="17.501541,12.087971"
       id="path-effect5-4-0-9-3"
       is_visible="true"
       lpeversion="1.2"
       lpesatellites=""
       mode="free"
       discard_orig_path="false"
       fuse_paths="true"
       oposite_fuse="false"
       split_items="false"
       split_open="false"
       link_styles="false" /><inkscape:path-effect
       effect="mirror_symmetry"
       start_point="17.493844,16.300304"
       end_point="17.509238,7.875638"
       center_point="17.501541,12.087971"
       id="path-effect5-4-0-9-5"
       is_visible="true"
       lpeversion="1.2"
       lpesatellites=""
       mode="free"
       discard_orig_path="false"
       fuse_paths="true"
       oposite_fuse="false"
       split_items="false"
       split_open="false"
       link_styles="false" /><inkscape:path-effect
       effect="mirror_symmetry"
       start_point="17.297909,16.234992"
       end_point="17.313303,7.810326"
       center_point="17.305606,12.022659"
       id="path-effect5-4-6-1"
       is_visible="true"
       lpeversion="1.2"
       lpesatellites=""
       mode="free"
       discard_orig_path="false"
       fuse_paths="true"
       oposite_fuse="false"
       split_items="false"
       split_open="false"
       link_styles="false" /><inkscape:path-effect
       effect="mirror_symmetry"
       start_point="17.493844,16.300304"
       end_point="17.509238,7.875638"
       center_point="17.501541,12.087971"
       id="path-effect5-4-0-9-5-9"
       is_visible="true"
       lpeversion="1.2"
       lpesatellites=""
       mode="free"
       discard_orig_path="false"
       fuse_paths="true"
       oposite_fuse="false"
       split_items="false"
       split_open="false"
       link_styles="false" /></defs><g
     inkscape:label="Layer 1"
     inkscape:groupmode="layer"
     id="layer1"><ellipse
       style="fill:#ffffff;fill-opacity:1;stroke:#000000;stroke-width:0.265;stroke-dasharray:none;stroke-opacity:1"
       id="path1-7-2-9-9-5-1"
       cx="29.072399"
       cy="2.3693006"
       rx="0.65429264"
       ry="0.80279088"
       transform="matrix(0.5,0.86602541,0.86602541,-0.5,0,0)" /><path
       id="path1-3-0-4-12-1"
       style="fill:#66ff66;fill-opacity:1;stroke:#000000;stroke-width:0.265"
       d="m 15.767134,23.686631 c 0,-0.91821 0.744353,-2.054433 1.662561,-2.054433 0.918205,1e-6 1.66256,1.136227 1.662561,2.054432 -10e-7,0.918206 -0.744356,1.662562 -1.662561,1.662561 -0.91821,0 -1.662563,-0.744351 -1.662561,-1.66256 z"
       sodipodi:nodetypes="zzzzz" /><path
       style="fill:#999999;fill-opacity:1;stroke:none;stroke-width:0.264999;stroke-dasharray:none;stroke-opacity:1"
       d="m 18.826266,24.458389 c 0.560828,0.08987 0.869724,-0.277557 1.403465,-0.485161 0.420007,-0.474878 1.124616,-1.862384 1.560528,-1.403531 0.766179,0.562304 -0.418381,1.803092 -1.000646,2.259561 -0.476589,0.373621 -1.884406,1.141021 -2.486772,0.983964 -0.461934,-0.120445 -1.279224,-0.94616 -1.704237,-1.403164 -0.458555,-0.423341 -1.289325,-1.239983 -1.411453,-1.701477 -0.15928,-0.601783 0.250119,-1.779122 0.545523,-2.307766 0.219267,-0.392391 1.259947,-2.072938 1.568894,-1.781578 0.460448,0.434228 -0.200182,1.254643 -0.621479,2.137895 -0.15289,0.499418 -0.231412,0.863383 -0.139491,1.42388 0.830372,-0.505605 1.668799,-2.004587 2.499736,-2.944436 0.237943,-0.269127 1.020812,0.421283 0.792735,0.698817 -0.328483,0.399703 -0.313189,0.573937 -0.734727,0.900454 -0.166534,0.473874 -0.388754,1.112149 -0.754063,1.585467 0.02623,0.05742 0.06013,0.101949 0.09667,0.138118 0.03629,0.03641 0.941863,-0.181022 0.999423,-0.155069 0.517335,0.345787 -0.06121,1.198731 -0.614106,2.054038 z"
       id="path4-6-3-2-0-9-9"
       sodipodi:nodetypes="cccscccssscsscccccc" /><ellipse
       style="fill:#ffffff;fill-opacity:1;stroke:#000000;stroke-width:0.265;stroke-dasharray:none;stroke-opacity:1"
       id="path1-7-2-9-9-1-3-3-0"
       cx="-24.241497"
       cy="-7.9151969"
       rx="0.65429264"
       ry="0.80279088"
       transform="rotate(-150)" /><path
       id="path1-7-1-1-4-1-9-5"
       style="fill:#ffffff;stroke:#000000;stroke-width:0.265;stroke-dasharray:none"
       d="m 20.001374,22.307373 c -0.448521,-0.516912 -1.136109,0.423494 -1.28107,0.571562 -0.144957,0.148069 -1.105615,0.545664 -0.493912,1.149349 0.742043,0.732285 2.178942,-1.255357 1.774978,-1.720913 z"
       sodipodi:nodetypes="sszs" /><path
       id="path1-7-1-1-4-5-9-4-6"
       style="fill:#ffffff;stroke:#000000;stroke-width:0.265;stroke-dasharray:none"
       d="m 20.708906,18.377782 c 0.516913,0.448522 -0.423496,1.136111 -0.57156,1.281074 -0.148068,0.144957 -0.545662,1.105615 -1.149351,0.493909 -0.732284,-0.742042 1.255346,-2.178948 1.720915,-1.77498 z"
       sodipodi:nodetypes="sszs" /><ellipse
       style="fill:#ffffff;fill-opacity:1;stroke:#000000;stroke-width:0.265;stroke-dasharray:none;stroke-opacity:1"
       id="path1-7-2-9-9-1-3-9-5-7"
       cx="30.893232"
       cy="-5.5571523"
       rx="0.65429264"
       ry="0.80279088"
       transform="rotate(55.72808)" /><ellipse
       style="fill:#ffffff;fill-opacity:1;stroke:#000000;stroke-width:0.265;stroke-dasharray:none;stroke-opacity:1"
       id="path1-7-2-9-9-1-3-9-5-1-7"
       cx="-30.893236"
       cy="5.5571532"
       rx="0.65429264"
       ry="0.80279088"
       transform="rotate(-124.27192)" /><path
       style="fill:#999999;fill-opacity:1;stroke:none;stroke-width:0.264999;stroke-dasharray:none;stroke-opacity:1"
       d="m 29.713001,14.355059 c 0.188331,0.182673 0.308145,0.424675 0.174014,0.544142 -0.936807,0.834361 -2.586591,2.472153 -3.53001,2.809092 -0.170561,0.789793 0.813163,1.1859 0.7704,2.177204 -0.03472,0.804788 -1.032896,1.054973 -1.913721,1.06963 -0.377414,0.0063 -0.792504,-0.590626 -0.392558,-0.803041 0.615663,-0.326984 1.168682,-0.458864 1.168682,-0.458864 -0.405405,-0.680427 -0.967817,-1.463827 -1.34947,-2.019456 -0.557021,-0.379621 -1.98963,-0.260926 -2.640744,-0.38675 -0.584976,0.584973 -1.113665,1.140917 -1.915783,1.92851 -0.372096,-0.258111 -0.448203,-0.256714 -0.651865,-0.574522 0.704445,-0.806438 1.426904,-2.026687 2.155704,-2.369816 0.621687,-0.292691 2.222089,-0.139262 3.011254,-0.312708 0.333486,-0.944642 1.965731,-2.60259 2.796666,-3.54244 0.237944,-0.269128 0.966951,0.477907 0.738871,0.755445 -0.656957,0.799416 -1.78918,2.090994 -1.752576,2.35748 0.02069,0.150586 0.06718,0.231386 0.122915,0.272072 0.04088,0.05563 0.124168,0.102785 0.274832,0.12292 0.266621,0.03562 1.553569,-1.099612 2.350579,-1.759486 0.138351,-0.11455 0.394502,0.0079 0.58281,0.190588 z"
       id="path4-6-1"
       sodipodi:nodetypes="cscssscccccscccscssc" /><path
       id="path1-3-1"
       style="fill:#ff6666;fill-opacity:1;stroke:#000000;stroke-width:0.265"
       d="m 25.015118,15.753797 c -0.918208,-2e-6 -2.054432,0.744351 -2.054433,1.662561 2e-6,0.918207 1.136227,1.66256 2.054433,1.66256 0.918208,2e-6 1.662565,-0.744353 1.662565,-1.662559 1e-6,-0.918209 -0.744354,-1.662564 -1.662565,-1.662562 z"
       sodipodi:nodetypes="zzzzz" /><path
       id="path1-7-1-1-0"
       style="fill:#ffffff;stroke:#000000;stroke-width:0.265;stroke-dasharray:none"
       d="m 29.390747,13.8238 c -0.146522,0.146521 -0.360945,0.683179 -0.105663,0.938458 0.255282,0.255285 0.826989,0.06081 0.973511,-0.08572 0.146522,-0.146522 0.322544,-0.223167 -0.186143,-0.70165 C 29.56376,13.496403 29.537273,13.67727 29.39075,13.823793 Z"
       sodipodi:nodetypes="ssszs" /><path
       id="path1-7-1-9-7-3"
       style="fill:#ffffff;stroke:#000000;stroke-width:0.265;stroke-dasharray:none"
       d="m 27.620954,12.084793 c -0.146524,0.146523 -0.360945,0.683181 -0.105663,0.938461 0.255281,0.25528 0.826987,0.06081 0.97351,-0.08572 0.146522,-0.146519 0.322542,-0.223165 -0.186142,-0.701646 -0.508692,-0.478484 -0.535178,-0.29762 -0.681701,-0.151095 z"
       sodipodi:nodetypes="ssszs" /><ellipse
       style="fill:#ffffff;fill-opacity:1;stroke:#000000;stroke-width:0.265;stroke-dasharray:none;stroke-opacity:1"
       id="path1-7-2-9-9-1-3-1"
       cx="26.3526"
       cy="18.528294"
       rx="0.65429264"
       ry="0.80279088"
       transform="matrix(0.25881903,0.96592583,0.96592583,-0.25881903,0,0)" /><ellipse
       style="fill:#ffffff;fill-opacity:1;stroke:#000000;stroke-width:0.265;stroke-dasharray:none;stroke-opacity:1"
       id="path1-7-2-9-9-1-3-9-8"
       cx="27.375109"
       cy="1.5238724"
       rx="0.65429264"
       ry="0.80279088"
       transform="rotate(40.728078)" /><path
       id="path1-3-0-4-12-1-6"
       style="fill:#6666ff;fill-opacity:1;stroke:#000000;stroke-width:0.265"
       d="m 9.9693957,15.622104 c 0.9182093,0 2.0544323,0.744353 2.0544323,1.66256 -10e-7,0.918207 -1.136226,1.662561 -2.0544313,1.662563 -0.918207,-2e-6 -1.662563,-0.744356 -1.662562,-1.662563 0,-0.918209 0.744352,-1.662562 1.662561,-1.66256 z"
       sodipodi:nodetypes="zzzzz" /><path
       style="fill:#999999;fill-opacity:1;stroke:none;stroke-width:0.264999;stroke-dasharray:none;stroke-opacity:1"
       d="m 11.561902,18.25236 c 0.560829,0.08987 0.869725,-0.277558 1.403466,-0.485161 0.420007,-0.474878 1.124616,-1.862385 1.560528,-1.403531 0.766179,0.562304 -0.418382,1.803092 -1.000647,2.259561 -0.476589,0.373621 -1.884405,1.14102 -2.486772,0.983963 -0.461934,-0.120444 -1.2792237,-0.94616 -1.7042369,-1.403163 -0.4585552,-0.423342 -1.289325,-1.239983 -1.4114528,-1.701477 -0.1592805,-0.601783 0.250119,-1.779122 0.5455234,-2.307766 0.2192668,-0.39239 1.2599466,-2.072938 1.5688943,-1.781577 0.460447,0.434227 -0.2001827,1.254642 -0.6214798,2.137894 -0.1528899,0.499418 -0.2314122,0.863383 -0.1394911,1.42388 0.8303719,-0.505605 1.6687989,-2.004587 2.4997369,-2.944437 0.237943,-0.269127 1.020811,0.421283 0.792735,0.698818 -0.328484,0.399703 -0.313189,0.573937 -0.734727,0.900454 -0.166534,0.473874 -0.388755,1.112149 -0.754063,1.585466 0.02623,0.05742 0.06013,0.10195 0.09667,0.138119 0.03629,0.03641 0.941863,-0.181022 0.999422,-0.155069 0.517336,0.345787 -0.06121,1.198731 -0.614105,2.054037 z"
       id="path4-6-3-2-0-9-9-0"
       sodipodi:nodetypes="cccscccssscsscccccc" /><ellipse
       style="fill:#ffffff;fill-opacity:1;stroke:#000000;stroke-width:0.265;stroke-dasharray:none;stroke-opacity:1"
       id="path1-7-2-9-9-1-3-3-0-4"
       cx="-14.847366"
       cy="-6.1727901"
       rx="0.65429264"
       ry="0.80279088"
       transform="rotate(-150)" /><path
       id="path1-7-1-1-4-1-9-5-6"
       style="fill:#ffffff;stroke:#000000;stroke-width:0.265;stroke-dasharray:none"
       d="m 12.737011,16.101344 c -0.448521,-0.516912 -1.136109,0.423494 -1.28107,0.571562 -0.144958,0.148068 -1.105617,0.545663 -0.493913,1.149349 0.742044,0.732284 2.178943,-1.255357 1.774979,-1.720913 z"
       sodipodi:nodetypes="sszs" /><path
       id="path1-7-1-1-4-5-9-4-6-7"
       style="fill:#ffffff;stroke:#000000;stroke-width:0.265;stroke-dasharray:none"
       d="m 13.444542,12.171753 c 0.516914,0.448522 -0.423495,1.136111 -0.571559,1.281073 -0.148069,0.144958 -0.545662,1.105616 -1.149351,0.49391 -0.732285,-0.742043 1.255346,-2.178949 1.720915,-1.77498 z"
       sodipodi:nodetypes="sszs" /><ellipse
       style="fill:#ffffff;fill-opacity:1;stroke:#000000;stroke-width:0.265;stroke-dasharray:none;stroke-opacity:1"
       id="path1-7-2-9-9-1-3-9-5-7-6"
       cx="21.674006"
       cy="-3.0488207"
       rx="0.65429264"
       ry="0.80279088"
       transform="rotate(55.72808)" /><ellipse
       style="fill:#ffffff;fill-opacity:1;stroke:#000000;stroke-width:0.265;stroke-dasharray:none;stroke-opacity:1"
       id="path1-7-2-9-9-1-3-9-5-1-7-0"
       cx="-21.674009"
       cy="3.0488226"
       rx="0.65429264"
       ry="0.80279088"
       transform="rotate(-124.27192)" /><path
       style="fill:#999999;fill-opacity:1;stroke:none;stroke-width:0.264999;stroke-dasharray:none;stroke-opacity:1"
       d="m 22.448638,8.1490297 c 0.18833,0.1826733 0.308145,0.4246756 0.174014,0.544142 -0.936807,0.8343615 -2.586592,2.4721533 -3.53001,2.8090923 -0.170561,0.789793 0.813163,1.1859 0.7704,2.177204 -0.03472,0.804788 -1.032896,1.054972 -1.913722,1.06963 -0.377414,0.0063 -0.792504,-0.590627 -0.392557,-0.803041 0.615663,-0.326984 1.168682,-0.458865 1.168682,-0.458865 -0.405406,-0.680426 -0.967817,-1.463827 -1.34947,-2.019455 -0.557021,-0.379621 -1.98963,-0.260927 -2.640744,-0.386751 -0.584976,0.584974 -1.113665,1.140917 -1.915783,1.928511 -0.372097,-0.258111 -0.448203,-0.256714 -0.651865,-0.574522 0.704445,-0.806438 1.426904,-2.026688 2.155704,-2.369816 0.621687,-0.2926912 2.222089,-0.1392622 3.011254,-0.3127082 0.333485,-0.9446421 1.965731,-2.6025896 2.796666,-3.5424401 0.237944,-0.2691275 0.96695,0.4779075 0.73887,0.7554453 -0.656956,0.7994156 -1.78918,2.0909943 -1.752575,2.35748 0.02069,0.1505855 0.06718,0.2313858 0.122915,0.2720721 0.04088,0.055628 0.124168,0.1027847 0.274832,0.1229197 0.26662,0.03562 1.553569,-1.0996123 2.350579,-1.759486 0.138351,-0.1145499 0.394501,0.0079 0.58281,0.1905879 z"
       id="path4-6-1-9"
       sodipodi:nodetypes="cscssscccccscccscssc" /><path
       id="path1-3-1-7"
       style="fill:#4d4d4d;fill-opacity:1;stroke:#000000;stroke-width:0.265"
       d="m 15.89226,11.014394 c -1e-6,0.918208 0.744352,2.054432 1.662562,2.054433 0.918207,-2e-6 1.66256,-1.136226 1.66256,-2.054433 1e-6,-0.918207 -0.744353,-1.6625644 -1.662559,-1.6625644 -0.918209,-1e-6 -1.662564,0.7443544 -1.662563,1.6625644 z"
       sodipodi:nodetypes="zzzzz" /><path
       id="path1-7-1-1-0-5"
       style="fill:#ffffff;stroke:#000000;stroke-width:0.265;stroke-dasharray:none"
       d="M 22.126384,7.6177707 C 21.979862,7.7642915 21.765439,8.30095 22.020721,8.556229 22.276002,8.8115136 22.847709,8.61704 22.994232,8.47051 23.140754,8.3239879 23.316776,8.2473432 22.808089,7.7688596 22.299397,7.2903753 22.27291,7.4712419 22.126387,7.617765 Z"
       sodipodi:nodetypes="ssszs" /><path
       id="path1-7-1-9-7-3-9"
       style="fill:#ffffff;stroke:#000000;stroke-width:0.265;stroke-dasharray:none"
       d="M 20.356591,5.8787639 C 20.210067,6.0252868 19.995646,6.5619446 20.250928,6.817225 20.506209,7.0725047 21.077915,6.878036 21.224438,6.731506 21.37096,6.5849868 21.54698,6.5083407 21.038296,6.0298599 20.529604,5.5513756 20.503118,5.7322401 20.356595,5.8787646 Z"
       sodipodi:nodetypes="ssszs" /><ellipse
       style="fill:#ffffff;fill-opacity:1;stroke:#000000;stroke-width:0.265;stroke-dasharray:none;stroke-opacity:1"
       id="path1-7-2-9-9-1-3-1-7"
       cx="18.477898"
       cy="13.1177"
       rx="0.65429264"
       ry="0.80279088"
       transform="matrix(0.25881903,0.96592583,0.96592583,-0.25881903,0,0)" /><ellipse
       style="fill:#ffffff;fill-opacity:1;stroke:#000000;stroke-width:0.265;stroke-dasharray:none;stroke-opacity:1"
       id="path1-7-2-9-9-1-3-9-8-8"
       cx="17.820824"
       cy="1.5606375"
       rx="0.65429264"
       ry="0.80279088"
       transform="rotate(40.728078)" /></g></svg>
