<?xml version="1.0" encoding="UTF-8" standalone="no"?>
<!-- Created with Inkscape (http://www.inkscape.org/) -->

<svg
   width="35mm"
   height="35mm"
   viewBox="0 0 35 35"
   version="1.1"
   id="svg1"
   xml:space="preserve"
   inkscape:version="1.4 (e7c3feb100, 2024-10-09)"
   sodipodi:docname="17_x2.svg"
   xmlns:inkscape="http://www.inkscape.org/namespaces/inkscape"
   xmlns:sodipodi="http://sodipodi.sourceforge.net/DTD/sodipodi-0.dtd"
   xmlns="http://www.w3.org/2000/svg"
   xmlns:svg="http://www.w3.org/2000/svg"><sodipodi:namedview
     id="namedview1"
     pagecolor="#ffffff"
     bordercolor="#000000"
     borderopacity="0.25"
     inkscape:showpageshadow="2"
     inkscape:pageopacity="0.0"
     inkscape:pagecheckerboard="0"
     inkscape:deskcolor="#d1d1d1"
     inkscape:document-units="mm"
     inkscape:zoom="3.03832"
     inkscape:cx="102.85289"
     inkscape:cy="38.178994"
     inkscape:window-width="1916"
     inkscape:window-height="1023"
     inkscape:window-x="0"
     inkscape:window-y="0"
     inkscape:window-maximized="0"
     inkscape:current-layer="layer1"
     showgrid="false"><sodipodi:guide
       position="25.431035,17.543103"
       orientation="0,132.28346"
       id="guide5"
       inkscape:locked="false" /><sodipodi:guide
       position="35.000001,35.000001"
       orientation="132.28346,0"
       id="guide6"
       inkscape:locked="false" /><sodipodi:guide
       position="35.000001,0"
       orientation="0,-132.28346"
       id="guide7"
       inkscape:locked="false" /><sodipodi:guide
       position="17.503506,35.914363"
       orientation="-132.28346,0"
       id="guide8"
       inkscape:locked="false" /></sodipodi:namedview><defs
     id="defs1"><inkscape:path-effect
       effect="mirror_symmetry"
       start_point="17.297909,16.234992"
       end_point="17.313303,7.810326"
       center_point="17.305606,12.022659"
       id="path-effect5"
       is_visible="true"
       lpeversion="1.2"
       lpesatellites=""
       mode="free"
       discard_orig_path="false"
       fuse_paths="true"
       oposite_fuse="false"
       split_items="false"
       split_open="false"
       link_styles="false" /><inkscape:path-effect
       effect="mirror_symmetry"
       start_point="17.297909,16.234992"
       end_point="17.313303,7.810326"
       center_point="17.305606,12.022659"
       id="path-effect5-7"
       is_visible="true"
       lpeversion="1.2"
       lpesatellites=""
       mode="free"
       discard_orig_path="false"
       fuse_paths="true"
       oposite_fuse="false"
       split_items="false"
       split_open="false"
       link_styles="false" /><inkscape:path-effect
       effect="mirror_symmetry"
       start_point="17.297909,16.234992"
       end_point="17.313303,7.810326"
       center_point="17.305606,12.022659"
       id="path-effect5-6"
       is_visible="true"
       lpeversion="1.2"
       lpesatellites=""
       mode="free"
       discard_orig_path="false"
       fuse_paths="true"
       oposite_fuse="false"
       split_items="false"
       split_open="false"
       link_styles="false" /><inkscape:path-effect
       effect="mirror_symmetry"
       start_point="17.297909,16.234992"
       end_point="17.313303,7.810326"
       center_point="17.305606,12.022659"
       id="path-effect5-3"
       is_visible="true"
       lpeversion="1.2"
       lpesatellites=""
       mode="free"
       discard_orig_path="false"
       fuse_paths="true"
       oposite_fuse="false"
       split_items="false"
       split_open="false"
       link_styles="false" /><inkscape:path-effect
       effect="mirror_symmetry"
       start_point="17.297909,16.234992"
       end_point="17.313303,7.810326"
       center_point="17.305606,12.022659"
       id="path-effect5-66"
       is_visible="true"
       lpeversion="1.2"
       lpesatellites=""
       mode="free"
       discard_orig_path="false"
       fuse_paths="true"
       oposite_fuse="false"
       split_items="false"
       split_open="false"
       link_styles="false" /><inkscape:path-effect
       effect="mirror_symmetry"
       start_point="17.297909,16.234992"
       end_point="17.313303,7.810326"
       center_point="17.305606,12.022659"
       id="path-effect5-4"
       is_visible="true"
       lpeversion="1.2"
       lpesatellites=""
       mode="free"
       discard_orig_path="false"
       fuse_paths="true"
       oposite_fuse="false"
       split_items="false"
       split_open="false"
       link_styles="false" /><inkscape:path-effect
       effect="mirror_symmetry"
       start_point="17.297909,16.234992"
       end_point="17.313303,7.810326"
       center_point="17.305606,12.022659"
       id="path-effect5-4-7"
       is_visible="true"
       lpeversion="1.2"
       lpesatellites=""
       mode="free"
       discard_orig_path="false"
       fuse_paths="true"
       oposite_fuse="false"
       split_items="false"
       split_open="false"
       link_styles="false" /><inkscape:path-effect
       effect="mirror_symmetry"
       start_point="17.297909,16.234992"
       end_point="17.313303,7.810326"
       center_point="17.305606,12.022659"
       id="path-effect5-41"
       is_visible="true"
       lpeversion="1.2"
       lpesatellites=""
       mode="free"
       discard_orig_path="false"
       fuse_paths="true"
       oposite_fuse="false"
       split_items="false"
       split_open="false"
       link_styles="false" /><inkscape:path-effect
       effect="mirror_symmetry"
       start_point="17.297909,16.234992"
       end_point="17.313303,7.810326"
       center_point="17.305606,12.022659"
       id="path-effect5-4-0"
       is_visible="true"
       lpeversion="1.2"
       lpesatellites=""
       mode="free"
       discard_orig_path="false"
       fuse_paths="true"
       oposite_fuse="false"
       split_items="false"
       split_open="false"
       link_styles="false" /><inkscape:path-effect
       effect="mirror_symmetry"
       start_point="17.493844,16.300304"
       end_point="17.509238,7.875638"
       center_point="17.501541,12.087971"
       id="path-effect5-4-0-9"
       is_visible="true"
       lpeversion="1.2"
       lpesatellites=""
       mode="free"
       discard_orig_path="false"
       fuse_paths="true"
       oposite_fuse="false"
       split_items="false"
       split_open="false"
       link_styles="false" /><inkscape:path-effect
       effect="mirror_symmetry"
       start_point="17.297909,16.234992"
       end_point="17.313303,7.810326"
       center_point="17.305606,12.022659"
       id="path-effect5-4-0-0"
       is_visible="true"
       lpeversion="1.2"
       lpesatellites=""
       mode="free"
       discard_orig_path="false"
       fuse_paths="true"
       oposite_fuse="false"
       split_items="false"
       split_open="false"
       link_styles="false" /><inkscape:path-effect
       effect="mirror_symmetry"
       start_point="17.493844,16.300304"
       end_point="17.509238,7.875638"
       center_point="17.501541,12.087971"
       id="path-effect5-4-0-9-7"
       is_visible="true"
       lpeversion="1.2"
       lpesatellites=""
       mode="free"
       discard_orig_path="false"
       fuse_paths="true"
       oposite_fuse="false"
       split_items="false"
       split_open="false"
       link_styles="false" /><inkscape:path-effect
       effect="mirror_symmetry"
       start_point="17.493844,16.300304"
       end_point="17.509238,7.875638"
       center_point="17.501541,12.087971"
       id="path-effect5-4-0-9-3"
       is_visible="true"
       lpeversion="1.2"
       lpesatellites=""
       mode="free"
       discard_orig_path="false"
       fuse_paths="true"
       oposite_fuse="false"
       split_items="false"
       split_open="false"
       link_styles="false" /><inkscape:path-effect
       effect="mirror_symmetry"
       start_point="17.493844,16.300304"
       end_point="17.509238,7.875638"
       center_point="17.501541,12.087971"
       id="path-effect5-4-0-9-5"
       is_visible="true"
       lpeversion="1.2"
       lpesatellites=""
       mode="free"
       discard_orig_path="false"
       fuse_paths="true"
       oposite_fuse="false"
       split_items="false"
       split_open="false"
       link_styles="false" /><inkscape:path-effect
       effect="mirror_symmetry"
       start_point="17.297909,16.234992"
       end_point="17.313303,7.810326"
       center_point="17.305606,12.022659"
       id="path-effect5-4-6-1"
       is_visible="true"
       lpeversion="1.2"
       lpesatellites=""
       mode="free"
       discard_orig_path="false"
       fuse_paths="true"
       oposite_fuse="false"
       split_items="false"
       split_open="false"
       link_styles="false" /><inkscape:path-effect
       effect="mirror_symmetry"
       start_point="17.493844,16.300304"
       end_point="17.509238,7.875638"
       center_point="17.501541,12.087971"
       id="path-effect5-4-0-9-5-9"
       is_visible="true"
       lpeversion="1.2"
       lpesatellites=""
       mode="free"
       discard_orig_path="false"
       fuse_paths="true"
       oposite_fuse="false"
       split_items="false"
       split_open="false"
       link_styles="false" /></defs><g
     inkscape:label="Layer 1"
     inkscape:groupmode="layer"
     id="layer1"><ellipse
       style="fill:#ffffff;fill-opacity:1;stroke:#000000;stroke-width:0.265;stroke-dasharray:none;stroke-opacity:1"
       id="path1-7-2-9-9-5"
       cx="-19.864574"
       cy="4.4507318"
       rx="0.65429264"
       ry="0.80279088"
       transform="matrix(-0.96592583,-0.25881905,-0.25881905,0.96592583,0,0)" /><path
       id="path1-3-0-4-12"
       style="fill:#4d4d4d;fill-opacity:1;stroke:#000000;stroke-width:0.265"
       d="m 19.400179,10.218658 c 0,0.918209 -0.744353,2.054432 -1.662562,2.054431 -0.918205,10e-7 -1.66256,-1.136225 -1.662561,-2.05443 2e-6,-0.9182079 0.744356,-1.6625619 1.662562,-1.6625619 0.918209,-1e-6 1.662562,0.744352 1.662561,1.6625609 z"
       sodipodi:nodetypes="zzzzz" /><path
       style="fill:#999999;fill-opacity:1;stroke:none;stroke-width:0.264999;stroke-dasharray:none;stroke-opacity:1"
       d="m 16.123895,10.693804 c -0.460116,0.333015 -0.418724,0.811251 -0.649338,1.335461 0.0388,0.632779 0.521681,2.112128 -0.111014,2.095906 -0.939379,0.14416 -0.979138,-1.57082 -0.890187,-2.305315 0.07281,-0.601189 0.525652,-2.1392989 1.062646,-2.4541799 0.411803,-0.24147 1.573583,-0.235513 2.197264,-0.212891 0.623595,-0.0249 1.78849,-0.03489 2.201174,0.205078 0.538153,0.312896 1.081168,1.4348899 1.246093,2.0175799 0.122417,0.432507 0.574873,2.356705 0.15039,2.369141 -0.63263,0.01854 -0.745615,-1.028716 -1.072267,-1.951172 -0.245032,-0.461251 -0.446872,-0.774137 -0.908201,-1.10547 -0.229645,0.944678 0.237438,2.597476 0.314451,3.849611 0.02205,0.358553 -1.019714,0.423931 -1.054687,0.06641 -0.05036,-0.514905 -0.184376,-0.627293 -0.117187,-1.156248 -0.217321,-0.452837 -0.511516,-1.061299 -0.58789,-1.654297 -0.05915,-0.02206 -0.114611,-0.02957 -0.166015,-0.02931 -0.05141,-8.8e-5 -0.537997,0.794 -0.597049,0.816349 -0.61032,0.121303 -0.80435,-0.890911 -1.018186,-1.886662 z"
       id="path4-6-3-2-0-9"
       sodipodi:nodetypes="cccscccssscsscccccc" /><ellipse
       style="fill:#ffffff;fill-opacity:1;stroke:#000000;stroke-width:0.265;stroke-dasharray:none;stroke-opacity:1"
       id="path1-7-2-9-9-1-3-3"
       cx="17.098442"
       cy="18.355858"
       rx="0.65429264"
       ry="0.80279088"
       transform="rotate(-15)" /><path
       id="path1-7-1-1-4-1-9"
       style="fill:#ffffff;stroke:#000000;stroke-width:0.265;stroke-dasharray:none"
       d="m 16.813966,13.045729 c 0.682665,0.04836 0.503896,-1.102807 0.501699,-1.310008 -0.0022,-0.207201 0.395946,-1.167631 -0.463464,-1.161961 -1.042507,0.0069 -0.653073,2.428416 -0.03823,2.471968 z"
       sodipodi:nodetypes="sszs" /><path
       id="path1-7-1-1-4-5-9-4"
       style="fill:#ffffff;stroke:#000000;stroke-width:0.265;stroke-dasharray:none"
       d="m 19.092306,16.32467 c -0.682666,0.04836 -0.503895,-1.102808 -0.501701,-1.310009 0.0022,-0.207201 -0.395947,-1.16763 0.463466,-1.161961 1.042508,0.0069 0.653086,2.428413 0.03823,2.471971 z"
       sodipodi:nodetypes="sszs" /><ellipse
       style="fill:#ffffff;fill-opacity:1;stroke:#000000;stroke-width:0.265;stroke-dasharray:none;stroke-opacity:1"
       id="path1-7-2-9-9-1-3-9-5"
       cx="-17.752741"
       cy="-11.278113"
       rx="0.65429264"
       ry="0.80279088"
       transform="rotate(-169.27192)" /><ellipse
       style="fill:#ffffff;fill-opacity:1;stroke:#000000;stroke-width:0.265;stroke-dasharray:none;stroke-opacity:1"
       id="path1-7-2-9-9-1-3-9-5-1"
       cx="17.752739"
       cy="11.278113"
       rx="0.65429264"
       ry="0.80279088"
       transform="rotate(10.72808)" /><path
       style="fill:#999999;fill-opacity:1;stroke:none;stroke-width:0.264999;stroke-dasharray:none;stroke-opacity:1"
       d="m 29.729753,18.747153 c 0.004,0.262339 -0.0824,0.518182 -0.261719,0.507813 -1.252406,-0.07244 -3.577076,-0.08092 -4.482424,-0.509766 -0.679074,0.437864 -0.263565,1.413551 -0.994762,2.084271 -0.593622,0.54452 -1.476346,0.01561 -2.109548,-0.596863 -0.271327,-0.262417 -0.142749,-0.978021 0.290256,-0.845416 0.666553,0.204127 1.15085,0.501917 1.15085,0.501917 0.194468,-0.767799 0.350731,-1.719432 0.47375,-2.38219 -0.12544,-0.662306 -1.222377,-1.591384 -1.593813,-2.140762 -0.82728,-10e-7 -1.594231,0.01927 -2.718327,0.009 -0.0806,-0.445624 -0.135403,-0.498452 -0.05469,-0.867187 1.068356,-0.07212 2.442057,-0.424111 3.200026,-0.1514 0.646563,0.232635 1.669727,1.472781 2.350396,1.90816 0.903773,-0.432153 3.230291,-0.450327 4.482426,-0.527342 0.358554,-0.02205 0.345806,1.021669 -0.01172,1.056641 -1.029811,0.100734 -2.743698,0.213415 -2.90625,0.427733 -0.09185,0.121109 -0.116111,0.211117 -0.10547,0.279297 -0.01043,0.06824 0.01512,0.160481 0.107418,0.281253 0.163343,0.213717 1.876085,0.320996 2.906257,0.417966 0.178828,0.01683 0.273369,0.284541 0.277344,0.546875 z"
       id="path4-6-1"
       sodipodi:nodetypes="cscssscccccscccscssc" /><path
       id="path1-3-1"
       style="fill:#ff6666;fill-opacity:1;stroke:#000000;stroke-width:0.265"
       d="m 24.276518,15.846871 c -0.918208,0 -2.054432,0.744352 -2.054433,1.662562 1e-6,0.918208 1.136226,1.662561 2.054433,1.66256 0.918208,1e-6 1.662565,-0.744353 1.662564,-1.66256 0,-0.918208 -0.744354,-1.662562 -1.662564,-1.662562 z"
       sodipodi:nodetypes="zzzzz" /><path
       id="path1-7-1-1-0"
       style="fill:#ffffff;stroke:#000000;stroke-width:0.265;stroke-dasharray:none"
       d="m 29.877542,18.143628 c -0.207213,-1e-6 -0.738307,0.227854 -0.738306,0.588876 -1e-6,0.361024 0.541771,0.627768 0.74899,0.627763 0.207214,0 0.385876,0.07027 0.364518,-0.627765 -0.02136,-0.698039 -0.167981,-0.588876 -0.375196,-0.588876 z"
       sodipodi:nodetypes="ssszs" /><path
       id="path1-7-1-9-7-3"
       style="fill:#ffffff;stroke:#000000;stroke-width:0.265;stroke-dasharray:none"
       d="m 29.855773,15.662531 c -0.207215,0 -0.738308,0.227856 -0.738308,0.588878 1e-6,0.361021 0.54177,0.627768 0.748989,0.627762 0.207212,2e-6 0.385874,0.07027 0.364517,-0.627761 -0.02136,-0.698039 -0.167979,-0.588877 -0.375195,-0.588876 z"
       sodipodi:nodetypes="ssszs" /><ellipse
       style="fill:#ffffff;fill-opacity:1;stroke:#000000;stroke-width:0.265;stroke-dasharray:none;stroke-opacity:1"
       id="path1-7-2-9-9-1-3-1"
       cx="6.1670208"
       cy="28.663401"
       rx="0.65429264"
       ry="0.80279088"
       transform="matrix(-0.5,0.8660254,0.8660254,0.5,0,0)" /><ellipse
       style="fill:#ffffff;fill-opacity:1;stroke:#000000;stroke-width:0.265;stroke-dasharray:none;stroke-opacity:1"
       id="path1-7-2-9-9-1-3-9-8"
       cx="16.401554"
       cy="-18.218447"
       rx="0.65429264"
       ry="0.80279088"
       transform="rotate(85.728078)" /><ellipse
       style="fill:#ffffff;fill-opacity:1;stroke:#000000;stroke-width:0.265;stroke-dasharray:none;stroke-opacity:1"
       id="path1-7-2-9-9-5-1"
       cx="23.001499"
       cy="-20.298006"
       rx="0.65429264"
       ry="0.80279088"
       transform="matrix(0.96592583,0.25881905,0.25881905,-0.96592583,0,0)" /><path
       id="path1-3-0-4-12-1"
       style="fill:#66ff66;fill-opacity:1;stroke:#000000;stroke-width:0.265"
       d="m 15.59982,24.781342 c 0,-0.918209 0.744353,-2.054432 1.662562,-2.054431 0.918205,-1e-6 1.66256,1.136225 1.662561,2.05443 -2e-6,0.918208 -0.744356,1.662562 -1.662562,1.662562 -0.918209,1e-6 -1.662562,-0.744352 -1.662561,-1.662561 z"
       sodipodi:nodetypes="zzzzz" /><path
       style="fill:#999999;fill-opacity:1;stroke:none;stroke-width:0.264999;stroke-dasharray:none;stroke-opacity:1"
       d="m 18.876104,24.306196 c 0.460116,-0.333015 0.418724,-0.811251 0.649338,-1.335461 -0.0388,-0.632779 -0.521681,-2.112128 0.111014,-2.095906 0.939379,-0.14416 0.979138,1.57082 0.890187,2.305315 -0.07281,0.601189 -0.525652,2.139299 -1.062646,2.45418 -0.411803,0.24147 -1.573583,0.235513 -2.197264,0.212891 -0.623595,0.0249 -1.78849,0.03489 -2.201174,-0.205078 -0.538153,-0.312896 -1.081168,-1.43489 -1.246093,-2.01758 -0.122417,-0.432507 -0.574873,-2.356705 -0.15039,-2.369141 0.63263,-0.01854 0.745615,1.028716 1.072267,1.951172 0.245032,0.461251 0.446872,0.774137 0.908201,1.10547 0.229645,-0.944678 -0.237438,-2.597476 -0.314451,-3.849611 -0.02205,-0.358553 1.019714,-0.423931 1.054687,-0.06641 0.05036,0.514905 0.184376,0.627293 0.117187,1.156248 0.217321,0.452837 0.511516,1.061299 0.58789,1.654297 0.05915,0.02206 0.114611,0.02957 0.166015,0.02931 0.05141,8.8e-5 0.537997,-0.794 0.597049,-0.816349 0.61032,-0.121303 0.80435,0.890911 1.018186,1.886662 z"
       id="path4-6-3-2-0-9-9"
       sodipodi:nodetypes="cccscccssscsscccccc" /><ellipse
       style="fill:#ffffff;fill-opacity:1;stroke:#000000;stroke-width:0.265;stroke-dasharray:none;stroke-opacity:1"
       id="path1-7-2-9-9-1-3-3-0"
       cx="-7.6502957"
       cy="-24.510214"
       rx="0.65429264"
       ry="0.80279088"
       transform="rotate(165)" /><path
       id="path1-7-1-1-4-1-9-5"
       style="fill:#ffffff;stroke:#000000;stroke-width:0.265;stroke-dasharray:none"
       d="m 18.186033,21.954271 c -0.682665,-0.04836 -0.503896,1.102807 -0.501699,1.310008 0.0022,0.207201 -0.395946,1.167631 0.463464,1.161961 1.042507,-0.0069 0.653073,-2.428416 0.03823,-2.471968 z"
       sodipodi:nodetypes="sszs" /><path
       id="path1-7-1-1-4-5-9-4-6"
       style="fill:#ffffff;stroke:#000000;stroke-width:0.265;stroke-dasharray:none"
       d="m 15.907693,18.67533 c 0.682666,-0.04836 0.503895,1.102808 0.501701,1.310009 -0.0022,0.207201 0.395947,1.16763 -0.463466,1.161961 -1.042508,-0.0069 -0.653086,-2.428413 -0.03823,-2.471971 z"
       sodipodi:nodetypes="sszs" /><ellipse
       style="fill:#ffffff;fill-opacity:1;stroke:#000000;stroke-width:0.265;stroke-dasharray:none;stroke-opacity:1"
       id="path1-7-2-9-9-1-3-9-5-7"
       cx="23.150705"
       cy="16.594963"
       rx="0.65429264"
       ry="0.80279088"
       transform="rotate(10.72808)" /><ellipse
       style="fill:#ffffff;fill-opacity:1;stroke:#000000;stroke-width:0.265;stroke-dasharray:none;stroke-opacity:1"
       id="path1-7-2-9-9-1-3-9-5-1-7"
       cx="-23.150709"
       cy="-16.594961"
       rx="0.65429264"
       ry="0.80279088"
       transform="rotate(-169.27192)" /><path
       style="fill:#999999;fill-opacity:1;stroke:none;stroke-width:0.264999;stroke-dasharray:none;stroke-opacity:1"
       d="m 5.2702463,16.252847 c -0.004,-0.262339 0.0824,-0.518182 0.26172,-0.507813 1.252406,0.07244 3.577076,0.08092 4.4824227,0.509766 0.679074,-0.437864 0.263565,-1.413551 0.994762,-2.084271 0.593622,-0.54452 1.476346,-0.01561 2.109548,0.596863 0.271327,0.262417 0.142749,0.978021 -0.290256,0.845416 -0.666553,-0.204127 -1.15085,-0.501917 -1.15085,-0.501917 -0.194468,0.767799 -0.350731,1.719432 -0.47375,2.38219 0.12544,0.662306 1.222377,1.591384 1.593813,2.140762 0.82728,1e-6 1.594231,-0.01927 2.718327,-0.009 0.0806,0.445624 0.135403,0.498452 0.05469,0.867187 -1.068356,0.07212 -2.442057,0.424111 -3.200026,0.1514 -0.646563,-0.232635 -1.669727,-1.472781 -2.350396,-1.90816 -0.9037717,0.432153 -3.2302897,0.450327 -4.4824247,0.527342 -0.358554,0.02205 -0.345806,-1.021669 0.01172,-1.056641 1.029811,-0.100734 2.743698,-0.213415 2.90625,-0.427733 0.09185,-0.121109 0.116111,-0.211117 0.10547,-0.279297 0.01043,-0.06824 -0.01512,-0.160481 -0.107418,-0.281253 -0.163343,-0.213717 -1.876086,-0.320996 -2.906257,-0.417966 -0.178828,-0.01683 -0.273369,-0.284541 -0.277345,-0.546875 z"
       id="path4-6-1-4"
       sodipodi:nodetypes="cscssscccccscccscssc" /><path
       id="path1-3-1-0"
       style="fill:#6666ff;fill-opacity:1;stroke:#000000;stroke-width:0.265"
       d="m 10.723481,19.153129 c 0.918208,0 2.054432,-0.744352 2.054433,-1.662562 -1e-6,-0.918208 -1.136226,-1.662561 -2.054433,-1.66256 -0.9182067,-10e-7 -1.6625637,0.744353 -1.6625627,1.66256 0,0.918208 0.744354,1.662562 1.6625627,1.662562 z"
       sodipodi:nodetypes="zzzzz" /><path
       id="path1-7-1-1-0-6"
       style="fill:#ffffff;stroke:#000000;stroke-width:0.265;stroke-dasharray:none"
       d="m 5.1224583,16.856372 c 0.207213,1e-6 0.738307,-0.227854 0.738306,-0.588876 0,-0.361024 -0.541771,-0.627768 -0.74899,-0.627763 -0.207214,0 -0.385877,-0.07027 -0.364518,0.627765 0.02136,0.698039 0.167981,0.588876 0.375196,0.588876 z"
       sodipodi:nodetypes="ssszs" /><path
       id="path1-7-1-9-7-3-4"
       style="fill:#ffffff;stroke:#000000;stroke-width:0.265;stroke-dasharray:none"
       d="m 5.1442273,19.337469 c 0.207214,0 0.738308,-0.227856 0.738308,-0.588878 -1e-6,-0.361021 -0.54177,-0.627768 -0.74899,-0.627762 -0.207211,-2e-6 -0.385873,-0.07027 -0.364516,0.627761 0.02136,0.698039 0.167979,0.588877 0.375195,0.588876 z"
       sodipodi:nodetypes="ssszs" /><ellipse
       style="fill:#ffffff;fill-opacity:1;stroke:#000000;stroke-width:0.265;stroke-dasharray:none;stroke-opacity:1"
       id="path1-7-2-9-9-1-3-1-7"
       cx="-6.6438694"
       cy="-19.147488"
       rx="0.65429264"
       ry="0.80279088"
       transform="matrix(0.5,-0.8660254,-0.8660254,-0.5,0,0)" /><ellipse
       style="fill:#ffffff;fill-opacity:1;stroke:#000000;stroke-width:0.265;stroke-dasharray:none;stroke-opacity:1"
       id="path1-7-2-9-9-1-3-9-8-4"
       cx="-21.10836"
       cy="14.077158"
       rx="0.65429264"
       ry="0.80279088"
       transform="rotate(-94.27192)" /></g></svg>
