<?xml version="1.0" encoding="UTF-8" standalone="no"?>
<!-- Created with Inkscape (http://www.inkscape.org/) -->

<svg
   width="35mm"
   height="35mm"
   viewBox="0 0 35 35"
   version="1.1"
   id="svg1"
   xml:space="preserve"
   inkscape:version="1.4 (e7c3feb100, 2024-10-09)"
   sodipodi:docname="17_x2_inter.svg"
   xmlns:inkscape="http://www.inkscape.org/namespaces/inkscape"
   xmlns:sodipodi="http://sodipodi.sourceforge.net/DTD/sodipodi-0.dtd"
   xmlns:xlink="http://www.w3.org/1999/xlink"
   xmlns="http://www.w3.org/2000/svg"
   xmlns:svg="http://www.w3.org/2000/svg"><sodipodi:namedview
     id="namedview1"
     pagecolor="#ffffff"
     bordercolor="#000000"
     borderopacity="0.25"
     inkscape:showpageshadow="2"
     inkscape:pageopacity="0.0"
     inkscape:pagecheckerboard="0"
     inkscape:deskcolor="#d1d1d1"
     inkscape:document-units="mm"
     inkscape:zoom="6.07664"
     inkscape:cx="64.920746"
     inkscape:cy="53.318939"
     inkscape:window-width="1290"
     inkscape:window-height="1023"
     inkscape:window-x="0"
     inkscape:window-y="0"
     inkscape:window-maximized="0"
     inkscape:current-layer="layer1" /><defs
     id="defs1"><linearGradient
       id="linearGradient15"
       inkscape:collect="always"><stop
         style="stop-color:#6666ff;stop-opacity:0.74901962;"
         offset="0"
         id="stop14" /><stop
         style="stop-color:#6666ff;stop-opacity:0;"
         offset="1"
         id="stop15" /></linearGradient><linearGradient
       id="linearGradient13"
       inkscape:collect="always"><stop
         style="stop-color:#66ff66;stop-opacity:0.74901962;"
         offset="0"
         id="stop12" /><stop
         style="stop-color:#66ff66;stop-opacity:0;"
         offset="1"
         id="stop13" /></linearGradient><linearGradient
       id="linearGradient11"
       inkscape:collect="always"><stop
         style="stop-color:#ff6666;stop-opacity:0.74901962;"
         offset="0"
         id="stop10" /><stop
         style="stop-color:#ff6666;stop-opacity:0;"
         offset="1"
         id="stop11" /></linearGradient><linearGradient
       id="linearGradient6"
       inkscape:collect="always"><stop
         style="stop-color:#4d4d4d;stop-opacity:0.74901962;"
         offset="0"
         id="stop6" /><stop
         style="stop-color:#4d4d4d;stop-opacity:0;"
         offset="1"
         id="stop7" /></linearGradient><inkscape:path-effect
       effect="mirror_symmetry"
       start_point="17.297909,16.234992"
       end_point="17.313303,7.810326"
       center_point="17.305606,12.022659"
       id="path-effect5"
       is_visible="true"
       lpeversion="1.2"
       lpesatellites=""
       mode="free"
       discard_orig_path="false"
       fuse_paths="true"
       oposite_fuse="false"
       split_items="false"
       split_open="false"
       link_styles="false" /><inkscape:path-effect
       effect="mirror_symmetry"
       start_point="17.297909,16.234992"
       end_point="17.313303,7.810326"
       center_point="17.305606,12.022659"
       id="path-effect5-7"
       is_visible="true"
       lpeversion="1.2"
       lpesatellites=""
       mode="free"
       discard_orig_path="false"
       fuse_paths="true"
       oposite_fuse="false"
       split_items="false"
       split_open="false"
       link_styles="false" /><inkscape:path-effect
       effect="mirror_symmetry"
       start_point="17.297909,16.234992"
       end_point="17.313303,7.810326"
       center_point="17.305606,12.022659"
       id="path-effect5-6"
       is_visible="true"
       lpeversion="1.2"
       lpesatellites=""
       mode="free"
       discard_orig_path="false"
       fuse_paths="true"
       oposite_fuse="false"
       split_items="false"
       split_open="false"
       link_styles="false" /><inkscape:path-effect
       effect="mirror_symmetry"
       start_point="17.297909,16.234992"
       end_point="17.313303,7.810326"
       center_point="17.305606,12.022659"
       id="path-effect5-3"
       is_visible="true"
       lpeversion="1.2"
       lpesatellites=""
       mode="free"
       discard_orig_path="false"
       fuse_paths="true"
       oposite_fuse="false"
       split_items="false"
       split_open="false"
       link_styles="false" /><inkscape:path-effect
       effect="mirror_symmetry"
       start_point="17.297909,16.234992"
       end_point="17.313303,7.810326"
       center_point="17.305606,12.022659"
       id="path-effect5-66"
       is_visible="true"
       lpeversion="1.2"
       lpesatellites=""
       mode="free"
       discard_orig_path="false"
       fuse_paths="true"
       oposite_fuse="false"
       split_items="false"
       split_open="false"
       link_styles="false" /><inkscape:path-effect
       effect="mirror_symmetry"
       start_point="17.297909,16.234992"
       end_point="17.313303,7.810326"
       center_point="17.305606,12.022659"
       id="path-effect5-4"
       is_visible="true"
       lpeversion="1.2"
       lpesatellites=""
       mode="free"
       discard_orig_path="false"
       fuse_paths="true"
       oposite_fuse="false"
       split_items="false"
       split_open="false"
       link_styles="false" /><inkscape:path-effect
       effect="mirror_symmetry"
       start_point="17.297909,16.234992"
       end_point="17.313303,7.810326"
       center_point="17.305606,12.022659"
       id="path-effect5-4-7"
       is_visible="true"
       lpeversion="1.2"
       lpesatellites=""
       mode="free"
       discard_orig_path="false"
       fuse_paths="true"
       oposite_fuse="false"
       split_items="false"
       split_open="false"
       link_styles="false" /><inkscape:path-effect
       effect="mirror_symmetry"
       start_point="17.297909,16.234992"
       end_point="17.313303,7.810326"
       center_point="17.305606,12.022659"
       id="path-effect5-41"
       is_visible="true"
       lpeversion="1.2"
       lpesatellites=""
       mode="free"
       discard_orig_path="false"
       fuse_paths="true"
       oposite_fuse="false"
       split_items="false"
       split_open="false"
       link_styles="false" /><inkscape:path-effect
       effect="mirror_symmetry"
       start_point="17.297909,16.234992"
       end_point="17.313303,7.810326"
       center_point="17.305606,12.022659"
       id="path-effect5-4-0"
       is_visible="true"
       lpeversion="1.2"
       lpesatellites=""
       mode="free"
       discard_orig_path="false"
       fuse_paths="true"
       oposite_fuse="false"
       split_items="false"
       split_open="false"
       link_styles="false" /><inkscape:path-effect
       effect="mirror_symmetry"
       start_point="17.493844,16.300304"
       end_point="17.509238,7.875638"
       center_point="17.501541,12.087971"
       id="path-effect5-4-0-9"
       is_visible="true"
       lpeversion="1.2"
       lpesatellites=""
       mode="free"
       discard_orig_path="false"
       fuse_paths="true"
       oposite_fuse="false"
       split_items="false"
       split_open="false"
       link_styles="false" /><inkscape:path-effect
       effect="mirror_symmetry"
       start_point="17.297909,16.234992"
       end_point="17.313303,7.810326"
       center_point="17.305606,12.022659"
       id="path-effect5-0"
       is_visible="true"
       lpeversion="1.2"
       lpesatellites=""
       mode="free"
       discard_orig_path="false"
       fuse_paths="true"
       oposite_fuse="false"
       split_items="false"
       split_open="false"
       link_styles="false" /><inkscape:path-effect
       effect="mirror_symmetry"
       start_point="17.297909,16.234992"
       end_point="17.313303,7.810326"
       center_point="17.305606,12.022659"
       id="path-effect5-4-2"
       is_visible="true"
       lpeversion="1.2"
       lpesatellites=""
       mode="free"
       discard_orig_path="false"
       fuse_paths="true"
       oposite_fuse="false"
       split_items="false"
       split_open="false"
       link_styles="false" /><inkscape:path-effect
       effect="mirror_symmetry"
       start_point="17.493844,16.300304"
       end_point="17.509238,7.875638"
       center_point="17.501541,12.087971"
       id="path-effect5-4-0-9-4"
       is_visible="true"
       lpeversion="1.2"
       lpesatellites=""
       mode="free"
       discard_orig_path="false"
       fuse_paths="true"
       oposite_fuse="false"
       split_items="false"
       split_open="false"
       link_styles="false" /><linearGradient
       inkscape:collect="always"
       xlink:href="#linearGradient6"
       id="linearGradient7"
       x1="12.777093"
       y1="8.7900245"
       x2="18.288177"
       y2="7.6816502"
       gradientUnits="userSpaceOnUse"
       gradientTransform="translate(0,1.0583333)" /><linearGradient
       inkscape:collect="always"
       xlink:href="#linearGradient15"
       id="linearGradient8"
       gradientUnits="userSpaceOnUse"
       x1="12.777093"
       y1="8.7900245"
       x2="18.288177"
       y2="7.6816502"
       gradientTransform="rotate(-90,18.029166,16.970834)" /><linearGradient
       inkscape:collect="always"
       xlink:href="#linearGradient13"
       id="linearGradient9"
       gradientUnits="userSpaceOnUse"
       x1="12.777093"
       y1="8.7900245"
       x2="18.288177"
       y2="7.6816502"
       gradientTransform="rotate(180,17.5,16.970834)" /><linearGradient
       inkscape:collect="always"
       xlink:href="#linearGradient11"
       id="linearGradient10"
       gradientUnits="userSpaceOnUse"
       x1="12.777093"
       y1="8.7900245"
       x2="18.288177"
       y2="7.6816502"
       gradientTransform="rotate(90,16.970834,16.970834)" /></defs><g
     inkscape:label="Layer 1"
     inkscape:groupmode="layer"
     id="layer1"><path
       style="fill:url(#linearGradient9);stroke:none;stroke-width:0.264999;stroke-linecap:round;stroke-dasharray:none;stroke-opacity:1"
       d="m 22.561577,25.890558 c 0.615764,-1.000616 -2.640086,-2.555419 -2.640086,-2.555419 -0.892857,2.03202 -3.705967,1.640567 -3.51755,3.125 0.188417,1.484433 5.464212,0.557232 6.157636,-0.569581 z"
       id="path6-4"
       sodipodi:nodetypes="zczz" /><path
       style="opacity:1;fill:url(#linearGradient7);stroke:none;stroke-width:0.264999;stroke-linecap:round;stroke-dasharray:none;stroke-opacity:1"
       d="m 12.438423,9.1094418 c -0.615764,1.0006162 2.640086,2.5554192 2.640086,2.5554192 0.892857,-2.0320205 3.705967,-1.640568 3.51755,-3.1250008 C 18.407642,7.055427 13.131847,7.9826285 12.438423,9.1094418 Z"
       id="path6"
       sodipodi:nodetypes="zczz" /><path
       style="fill:#999999;fill-opacity:1;stroke-width:0.68;stroke-linecap:round"
       d="m 20.734444,8.903441 -0.769703,1.600985 c 0,0 -0.494587,-1.2368698 -1.385469,-1.600985 -0.890882,-0.3641152 -4.241674,0.1635993 -4.241674,0.1635993 l 0.0531,1.5615937 1.05455,-0.04943 0.686357,1.233715 -0.477217,1.431651 1.077587,-0.123152 c 0,0 0.55726,-0.757916 0.569581,-1.20074 0.01171,-0.421015 -0.4682,-1.177421 -0.4682,-1.177421 l 1.389204,-0.16933 c 0,0 1.399579,1.687786 2.050055,1.654638 0.623694,-0.03178 1.385468,-2.8633007 1.385468,-2.8633007 z"
       id="path2"
       sodipodi:nodetypes="cczccccccsccscc" /><path
       style="fill:#ffffff;fill-opacity:1;stroke:#000000;stroke-width:0.265;stroke-linecap:round;stroke-dasharray:none;stroke-opacity:1"
       d="m 20.934049,8.3841414 c -0.428529,0.012361 -0.569668,0.9273903 -0.564625,1.1555545 0.0048,0.2159307 0.470078,0.4914191 0.769728,0.6365501 0.2732,0.132321 0.522499,-0.06878 0.951858,0.04626 0.429358,0.115046 0.688207,0.237919 0.979126,-0.07459 0.283206,-0.3042225 -1.593521,-1.7794311 -2.136087,-1.7637806 z"
       id="path3"
       sodipodi:nodetypes="ssssss" /><path
       style="opacity:1;fill:#4d4d4d;fill-opacity:1;stroke:#000000;stroke-width:0.264998;stroke-linecap:round;stroke-dasharray:none;stroke-opacity:1"
       d="M 15.291963,11.554814 C 15.510151,11.100231 14.707036,9.2520611 14.448425,8.9404262 14.189817,8.6287908 13.120097,8.4384581 12.578785,8.7602912 12.03747,9.0821247 11.65563,10.322457 12.095543,11.04978 c 0.439913,0.727325 1.104763,0.829193 1.857337,0.927185 0.752576,0.098 1.120896,0.03243 1.339083,-0.422151 z"
       id="path5"
       sodipodi:nodetypes="zzzzzz" /><ellipse
       style="fill:#ffffff;fill-opacity:1;stroke:#000000;stroke-width:0.265;stroke-dasharray:none;stroke-opacity:1"
       id="path1-7-2-9-9-1-7"
       cx="-16.104462"
       cy="-13.404237"
       rx="0.65429264"
       ry="0.80279088"
       transform="scale(-1)" /><path
       style="fill:#999999;fill-opacity:1;stroke-width:0.68;stroke-linecap:round"
       d="m 8.903441,14.265556 1.600985,0.769703 c 0,0 -1.2368698,0.494587 -1.600985,1.385469 -0.3641152,0.890882 0.1635993,4.241674 0.1635993,4.241674 l 1.5615937,-0.0531 -0.04943,-1.05455 1.233715,-0.686357 1.431651,0.477217 -0.123152,-1.077587 c 0,0 -0.757916,-0.55726 -1.20074,-0.569581 -0.421015,-0.01171 -1.177421,0.4682 -1.177421,0.4682 l -0.16933,-1.389204 c 0,0 1.687786,-1.399579 1.654638,-2.050055 -0.03178,-0.623694 -2.8633007,-1.385468 -2.8633007,-1.385468 z"
       id="path2-3"
       sodipodi:nodetypes="cczccccccsccscc" /><path
       style="fill:#ffffff;fill-opacity:1;stroke:#000000;stroke-width:0.265;stroke-linecap:round;stroke-dasharray:none;stroke-opacity:1"
       d="m 8.3841414,14.065951 c 0.012361,0.428529 0.9273903,0.569668 1.1555545,0.564625 0.2159307,-0.0048 0.4914191,-0.470078 0.6365501,-0.769728 0.132321,-0.2732 -0.06878,-0.522499 0.04626,-0.951858 0.115046,-0.429358 0.237919,-0.688207 -0.07459,-0.979126 -0.3042225,-0.283206 -1.7794311,1.593521 -1.7637806,2.136087 z"
       id="path3-2"
       sodipodi:nodetypes="ssssss" /><path
       style="fill:#6666ff;fill-opacity:1;stroke:#000000;stroke-width:0.264998;stroke-linecap:round;stroke-dasharray:none;stroke-opacity:1"
       d="m 11.554814,19.708037 c -0.454583,-0.218188 -2.3027529,0.584927 -2.6143878,0.843538 -0.3116354,0.258608 -0.5019681,1.328328 -0.180135,1.86964 0.3218335,0.541315 1.5621658,0.923155 2.2894888,0.483242 0.727325,-0.439913 0.829193,-1.104763 0.927185,-1.857337 0.098,-0.752576 0.03243,-1.120896 -0.422151,-1.339083 z"
       id="path5-6"
       sodipodi:nodetypes="zzzzzz" /><ellipse
       style="fill:#ffffff;fill-opacity:1;stroke:#000000;stroke-width:0.265;stroke-dasharray:none;stroke-opacity:1"
       id="path1-7-2-9-9-1-7-5"
       cx="18.895538"
       cy="-13.404237"
       rx="0.65429264"
       ry="0.80279088"
       transform="rotate(90)" /><path
       style="fill:#999999;fill-opacity:1;stroke-width:0.68;stroke-linecap:round"
       d="m 14.265556,26.096558 0.769703,-1.600985 c 0,0 0.494587,1.23687 1.385469,1.600985 0.890882,0.364116 4.241674,-0.163599 4.241674,-0.163599 l -0.0531,-1.561594 -1.05455,0.04942 -0.686357,-1.233714 0.477217,-1.431651 -1.077587,0.123152 c 0,0 -0.55726,0.757916 -0.569581,1.20074 -0.01171,0.421015 0.4682,1.177421 0.4682,1.177421 l -1.389204,0.169335 c 0,0 -1.399579,-1.687786 -2.050055,-1.654638 -0.623694,0.03178 -1.385468,2.8633 -1.385468,2.8633 z"
       id="path2-0"
       sodipodi:nodetypes="cczccccccsccscc" /><path
       style="fill:#ffffff;fill-opacity:1;stroke:#000000;stroke-width:0.265;stroke-linecap:round;stroke-dasharray:none;stroke-opacity:1"
       d="m 14.065951,26.615858 c 0.428529,-0.01236 0.569668,-0.92739 0.564625,-1.155555 -0.0048,-0.21593 -0.470078,-0.491418 -0.769728,-0.63655 -0.2732,-0.132321 -0.522499,0.06878 -0.951858,-0.04626 -0.429358,-0.115046 -0.688207,-0.237919 -0.979126,0.07459 -0.283206,0.304223 1.593521,1.779431 2.136087,1.763781 z"
       id="path3-4"
       sodipodi:nodetypes="ssssss" /><path
       style="fill:#66ff66;fill-opacity:1;stroke:#000000;stroke-width:0.264998;stroke-linecap:round;stroke-dasharray:none;stroke-opacity:1"
       d="m 19.708037,23.445186 c -0.218188,0.454583 0.584927,2.302752 0.843538,2.614387 0.258608,0.311636 1.328328,0.501968 1.86964,0.180135 0.541315,-0.321833 0.923155,-1.562165 0.483242,-2.289489 -0.439913,-0.727324 -1.104763,-0.829192 -1.857337,-0.927184 -0.752576,-0.098 -1.120896,-0.03243 -1.339083,0.422151 z"
       id="path5-1"
       sodipodi:nodetypes="zzzzzz" /><ellipse
       style="fill:#ffffff;fill-opacity:1;stroke:#000000;stroke-width:0.265;stroke-dasharray:none;stroke-opacity:1"
       id="path1-7-2-9-9-1-7-0"
       cx="18.895538"
       cy="21.59576"
       rx="0.65429264"
       ry="0.80279088" /><path
       style="fill:#999999;fill-opacity:1;stroke-width:0.68;stroke-linecap:round"
       d="m 26.096558,20.734444 -1.600985,-0.769703 c 0,0 1.23687,-0.494587 1.600985,-1.385469 0.364116,-0.890882 -0.163599,-4.241674 -0.163599,-4.241674 l -1.561594,0.0531 0.04942,1.05455 -1.233714,0.686357 -1.431651,-0.477217 0.123152,1.077587 c 0,0 0.757916,0.55726 1.20074,0.569581 0.421015,0.01171 1.177421,-0.4682 1.177421,-0.4682 l 0.169335,1.389204 c 0,0 -1.687786,1.399579 -1.654638,2.050055 0.03178,0.623694 2.8633,1.385468 2.8633,1.385468 z"
       id="path2-4"
       sodipodi:nodetypes="cczccccccsccscc" /><path
       style="fill:#ffffff;fill-opacity:1;stroke:#000000;stroke-width:0.265;stroke-linecap:round;stroke-dasharray:none;stroke-opacity:1"
       d="m 26.615858,20.934049 c -0.01236,-0.428529 -0.92739,-0.569668 -1.155555,-0.564625 -0.21593,0.0048 -0.491418,0.470078 -0.63655,0.769728 -0.132321,0.2732 0.06878,0.522499 -0.04626,0.951858 -0.115046,0.429358 -0.237919,0.688207 0.07459,0.979126 0.304223,0.283206 1.779431,-1.593521 1.763781,-2.136087 z"
       id="path3-7"
       sodipodi:nodetypes="ssssss" /><path
       style="fill:#ff6666;fill-opacity:1;stroke:#000000;stroke-width:0.264998;stroke-linecap:round;stroke-dasharray:none;stroke-opacity:1"
       d="m 23.445186,15.291963 c 0.454583,0.218188 2.302752,-0.584927 2.614387,-0.843538 0.311636,-0.258608 0.501968,-1.328328 0.180135,-1.86964 -0.321833,-0.541315 -1.562165,-0.923155 -2.289489,-0.483242 -0.727324,0.439913 -0.829192,1.104763 -0.927184,1.857337 -0.098,0.752576 -0.03243,1.120896 0.422151,1.339083 z"
       id="path5-9"
       sodipodi:nodetypes="zzzzzz" /><ellipse
       style="fill:#ffffff;fill-opacity:1;stroke:#000000;stroke-width:0.265;stroke-dasharray:none;stroke-opacity:1"
       id="path1-7-2-9-9-1-7-3"
       cx="-16.104462"
       cy="21.59576"
       rx="0.65429264"
       ry="0.80279088"
       transform="rotate(-90)" /><path
       style="fill:url(#linearGradient10);stroke:none;stroke-width:0.264999;stroke-linecap:round;stroke-dasharray:none;stroke-opacity:1"
       d="m 25.890558,12.438423 c -1.000616,-0.615764 -2.555419,2.640086 -2.555419,2.640086 2.03202,0.892857 1.640567,3.705967 3.125,3.51755 1.484433,-0.188417 0.557232,-5.464212 -0.569581,-6.157636 z"
       id="path6-9"
       sodipodi:nodetypes="zczz" /><path
       style="fill:url(#linearGradient8);stroke:none;stroke-width:0.264999;stroke-linecap:round;stroke-dasharray:none;stroke-opacity:1"
       d="M 9.1094418,22.561577 C 10.110058,23.177341 11.664861,19.921491 11.664861,19.921491 9.6328405,19.028634 10.024293,16.215524 8.5398602,16.403941 7.055427,16.592358 7.9826285,21.868153 9.1094418,22.561577 Z"
       id="path6-2"
       sodipodi:nodetypes="zczz" /></g></svg>
