<?xml version="1.0" encoding="UTF-8" standalone="no"?>
<!-- Created with Inkscape (http://www.inkscape.org/) -->

<svg
   width="35mm"
   height="35mm"
   viewBox="0 0 35 35"
   version="1.1"
   id="svg1"
   xml:space="preserve"
   inkscape:version="1.4 (e7c3feb100, 2024-10-09)"
   sodipodi:docname="18_v2.svg"
   xmlns:inkscape="http://www.inkscape.org/namespaces/inkscape"
   xmlns:sodipodi="http://sodipodi.sourceforge.net/DTD/sodipodi-0.dtd"
   xmlns="http://www.w3.org/2000/svg"
   xmlns:svg="http://www.w3.org/2000/svg"><sodipodi:namedview
     id="namedview1"
     pagecolor="#ffffff"
     bordercolor="#000000"
     borderopacity="0.25"
     inkscape:showpageshadow="2"
     inkscape:pageopacity="0.0"
     inkscape:pagecheckerboard="0"
     inkscape:deskcolor="#d1d1d1"
     inkscape:document-units="mm"
     inkscape:zoom="3.981732"
     inkscape:cx="48.345795"
     inkscape:cy="72.079186"
     inkscape:window-width="1916"
     inkscape:window-height="1023"
     inkscape:window-x="0"
     inkscape:window-y="0"
     inkscape:window-maximized="0"
     inkscape:current-layer="layer1" /><defs
     id="defs1"><inkscape:path-effect
       effect="mirror_symmetry"
       start_point="17.297909,16.234992"
       end_point="17.313303,7.810326"
       center_point="17.305606,12.022659"
       id="path-effect5"
       is_visible="true"
       lpeversion="1.2"
       lpesatellites=""
       mode="free"
       discard_orig_path="false"
       fuse_paths="true"
       oposite_fuse="false"
       split_items="false"
       split_open="false"
       link_styles="false" /><inkscape:path-effect
       effect="mirror_symmetry"
       start_point="17.297909,16.234992"
       end_point="17.313303,7.810326"
       center_point="17.305606,12.022659"
       id="path-effect5-7"
       is_visible="true"
       lpeversion="1.2"
       lpesatellites=""
       mode="free"
       discard_orig_path="false"
       fuse_paths="true"
       oposite_fuse="false"
       split_items="false"
       split_open="false"
       link_styles="false" /><inkscape:path-effect
       effect="mirror_symmetry"
       start_point="17.297909,16.234992"
       end_point="17.313303,7.810326"
       center_point="17.305606,12.022659"
       id="path-effect5-6"
       is_visible="true"
       lpeversion="1.2"
       lpesatellites=""
       mode="free"
       discard_orig_path="false"
       fuse_paths="true"
       oposite_fuse="false"
       split_items="false"
       split_open="false"
       link_styles="false" /><inkscape:path-effect
       effect="mirror_symmetry"
       start_point="17.297909,16.234992"
       end_point="17.313303,7.810326"
       center_point="17.305606,12.022659"
       id="path-effect5-3"
       is_visible="true"
       lpeversion="1.2"
       lpesatellites=""
       mode="free"
       discard_orig_path="false"
       fuse_paths="true"
       oposite_fuse="false"
       split_items="false"
       split_open="false"
       link_styles="false" /><inkscape:path-effect
       effect="mirror_symmetry"
       start_point="17.297909,16.234992"
       end_point="17.313303,7.810326"
       center_point="17.305606,12.022659"
       id="path-effect5-66"
       is_visible="true"
       lpeversion="1.2"
       lpesatellites=""
       mode="free"
       discard_orig_path="false"
       fuse_paths="true"
       oposite_fuse="false"
       split_items="false"
       split_open="false"
       link_styles="false" /><inkscape:path-effect
       effect="mirror_symmetry"
       start_point="17.297909,16.234992"
       end_point="17.313303,7.810326"
       center_point="17.305606,12.022659"
       id="path-effect5-4"
       is_visible="true"
       lpeversion="1.2"
       lpesatellites=""
       mode="free"
       discard_orig_path="false"
       fuse_paths="true"
       oposite_fuse="false"
       split_items="false"
       split_open="false"
       link_styles="false" /><inkscape:path-effect
       effect="mirror_symmetry"
       start_point="17.297909,16.234992"
       end_point="17.313303,7.810326"
       center_point="17.305606,12.022659"
       id="path-effect5-4-7"
       is_visible="true"
       lpeversion="1.2"
       lpesatellites=""
       mode="free"
       discard_orig_path="false"
       fuse_paths="true"
       oposite_fuse="false"
       split_items="false"
       split_open="false"
       link_styles="false" /><inkscape:path-effect
       effect="mirror_symmetry"
       start_point="17.297909,16.234992"
       end_point="17.313303,7.810326"
       center_point="17.305606,12.022659"
       id="path-effect5-41"
       is_visible="true"
       lpeversion="1.2"
       lpesatellites=""
       mode="free"
       discard_orig_path="false"
       fuse_paths="true"
       oposite_fuse="false"
       split_items="false"
       split_open="false"
       link_styles="false" /><inkscape:path-effect
       effect="mirror_symmetry"
       start_point="17.493844,16.300304"
       end_point="17.509238,7.875638"
       center_point="17.501541,12.087971"
       id="path-effect5-4-0-9-5-7"
       is_visible="true"
       lpeversion="1.2"
       lpesatellites=""
       mode="free"
       discard_orig_path="false"
       fuse_paths="true"
       oposite_fuse="false"
       split_items="false"
       split_open="false"
       link_styles="false" /><inkscape:path-effect
       effect="mirror_symmetry"
       start_point="17.493844,16.300304"
       end_point="17.509238,7.875638"
       center_point="17.501541,12.087971"
       id="path-effect5-4-0-9-5-7-6"
       is_visible="true"
       lpeversion="1.2"
       lpesatellites=""
       mode="free"
       discard_orig_path="false"
       fuse_paths="true"
       oposite_fuse="false"
       split_items="false"
       split_open="false"
       link_styles="false" /></defs><g
     inkscape:label="Layer 1"
     inkscape:groupmode="layer"
     id="layer1"><path
       id="path1-3-0-4-12-3"
       style="fill:#ff6666;fill-opacity:1;stroke:#000000;stroke-width:0.265"
       d="m 23.119868,16.33303 c -0.91821,0 -2.054434,0.744354 -2.054432,1.662563 -10e-7,0.918205 1.136224,1.66256 2.05443,1.662561 0.918207,-2e-6 1.662562,-0.744356 1.662562,-1.662563 1e-6,-0.918208 -0.744352,-1.662563 -1.66256,-1.662561 z"
       sodipodi:nodetypes="zzzzz" /><path
       id="path1-3-0-4-12"
       style="fill:#6666ff;fill-opacity:1;stroke:#000000;stroke-width:0.265"
       d="m 11.880132,18.66697 c 0.91821,0 2.054434,-0.744354 2.054432,-1.662563 10e-7,-0.918205 -1.136224,-1.66256 -2.05443,-1.662561 -0.918207,2e-6 -1.662562,0.744356 -1.662562,1.662563 -1e-6,0.918208 0.744352,1.662563 1.66256,1.662561 z"
       sodipodi:nodetypes="zzzzz" /><path
       style="fill:#999999;fill-opacity:1;stroke:none;stroke-width:0.264999;stroke-dasharray:none;stroke-opacity:1"
       d="m 13.710674,16.904912 c 0.572051,0.0159 1.112463,-0.142831 1.718508,-0.252628 0.627569,0.514081 1.982838,1.605988 2.399397,0.987048 0.333583,-0.495651 -1.573216,-1.800608 -1.90818,-1.984427 -0.39374,-0.216074 -1.410905,-0.181471 -1.985609,-0.185024 -0.535356,0.0252 -1.580919,0.179785 -2.177496,0.363057 -0.608789,0.137347 -1.736578,0.429195 -2.073092,0.767796 -0.438832,0.441518 -0.672952,1.665824 -0.681445,2.271345 -0.0063,0.449454 0.05467,2.42519 0.467913,2.327339 0.615872,-0.145828 0.453957,-1.186643 0.53073,-2.162211 0.117302,-0.508953 0.231284,-0.863419 0.591138,-1.302862 0.466321,0.853052 0.44293,2.570423 0.692616,3.799824 0.0715,0.352042 1.09469,0.145564 1.035939,-0.208825 -0.08462,-0.510394 0.01574,-0.653638 -0.186065,-1.147181 0.09271,-0.493654 0.219402,-1.157526 0.139694,-1.750085 0.05142,-0.03662 0.103052,-0.05823 0.152773,-0.07128 0.04964,-0.0134 0.725168,0.627701 0.787992,0.634005 0.62092,-0.04079 0.546357,-1.068735 0.495187,-2.085902 z"
       id="path4-6-3-2-0-9"
       sodipodi:nodetypes="ccsscccssscsscccccc" /><ellipse
       style="fill:#ffffff;fill-opacity:1;stroke:#000000;stroke-width:0.265;stroke-dasharray:none;stroke-opacity:1"
       id="path1-7-2-9-9-1-3-3-7"
       cx="-9.4189587"
       cy="20.758175"
       rx="0.65429264"
       ry="0.80279088"
       transform="scale(-1,1)" /><path
       id="path1-7-1-1-4-1-9"
       style="fill:#ffffff;stroke:#000000;stroke-width:0.265;stroke-dasharray:none"
       d="m 13.652839,19.3553 c -0.646888,0.223399 -0.772153,-0.934811 -0.823658,-1.135521 -0.05151,-0.200709 -0.684661,-1.025366 0.146933,-1.242321 1.008771,-0.263157 1.259341,2.176641 0.67672,2.377843 z"
       sodipodi:nodetypes="sszs" /><path
       id="path1-7-1-1-4-5-9-4"
       style="fill:#ffffff;stroke:#000000;stroke-width:0.265;stroke-dasharray:none"
       d="m 12.300784,23.112192 c 0.671921,-0.129975 0.201298,-1.195648 0.145551,-1.395221 -0.05575,-0.199571 0.08025,-1.230322 -0.748412,-1.002415 -1.005199,0.276486 -0.0023,2.514699 0.602867,2.397635 z"
       sodipodi:nodetypes="sszs" /><path
       style="fill:#999999;fill-opacity:1;stroke:none;stroke-width:0.264999;stroke-dasharray:none;stroke-opacity:1"
       d="m 17.201106,5.6130569 c 0.26234,-0.004 0.518185,0.082404 0.507814,0.261719 -0.07244,1.2524045 -0.08092,3.577075 -0.509764,4.4824181 0.43786,0.679075 1.450729,-0.168883 1.972083,0.675331 0.452162,0.732167 -0.349348,2.081778 -0.848141,2.34379 -0.249252,0.130922 -1.037875,-0.472672 -0.822266,-0.65374 0.500285,-0.420143 0.467469,-0.462662 0.706945,-0.985156 -0.459066,-0.23081 -1.415413,0.595512 -1.88143,-0.131228 -0.58837,0.0052 -1.291723,1.487372 -1.578229,1.973468 0.550878,0.779206 0.628813,1.047389 0.89461,1.346411 l -0.818414,0.585799 c -0.398696,-0.431921 -1.218354,-1.510875 -1.225322,-2.069713 -0.0091,-0.73225 0.684316,-2.398413 1.119697,-3.079086 -0.432153,-0.9037707 -0.450329,-3.2302873 -0.527344,-4.4824188 -0.02205,-0.3585559 1.02167,-0.3458078 1.056641,0.01172 0.100732,1.0298074 0.213414,2.7436959 0.427734,2.9062465 0.12111,0.091854 0.211098,0.1161436 0.279298,0.1054714 0.06823,0.010414 0.160481,-0.01512 0.281246,-0.1074263 0.213718,-0.1633456 0.320995,-1.8760885 0.417965,-2.90626 0.01683,-0.1788262 0.28454,-0.2733673 0.546875,-0.2773434 z"
       id="path4-4-5-2-0-5-6-4"
       sodipodi:nodetypes="ssscsscccccscscscssss" /><path
       id="path1-9-9-4-2-8-1-4"
       style="fill:#4d4d4d;fill-opacity:1;stroke:#000000;stroke-width:0.265"
       d="m 17.627384,11.066286 c 1e-6,0.91821 -0.744353,2.054435 -1.662562,2.054434 -0.918207,10e-7 -1.66256,-1.136227 -1.662561,-2.054432 1e-6,-0.918205 0.744353,-1.6625617 1.66256,-1.6625602 0.918209,-1.3e-6 1.662563,0.7443512 1.662563,1.6625582 z"
       sodipodi:nodetypes="zzzzz" /><path
       id="path1-7-1-2-6-0-1-6-3-3"
       style="fill:#ffffff;stroke:#000000;stroke-width:0.265;stroke-dasharray:none"
       d="m 15.308205,5.4434976 c 0,0.2072121 -0.227851,0.7383066 -0.588877,0.7383055 -0.361024,-2e-7 -0.627767,-0.5417696 -0.627762,-0.7489893 -1e-6,-0.2072147 -0.07027,-0.3858784 0.627764,-0.364518 0.69804,0.021359 0.588889,0.1679378 0.588879,0.3751973 z"
       sodipodi:nodetypes="ssszs" /><path
       id="path1-7-1-9-0-2-5-0-2-1-0"
       style="fill:#ffffff;stroke:#000000;stroke-width:0.265;stroke-dasharray:none"
       d="m 17.789302,5.4652671 c 0,0.2072113 -0.227853,0.7383079 -0.588876,0.738307 -0.361023,-2e-7 -0.62777,-0.5417703 -0.627766,-0.7489908 0,-0.2072131 -0.07027,-0.3858768 0.627766,-0.3645178 0.69804,0.02136 0.588888,0.1679373 0.588877,0.3751958 z"
       sodipodi:nodetypes="ssszs" /><ellipse
       style="fill:#ffffff;fill-opacity:1;stroke:#000000;stroke-width:0.265;stroke-dasharray:none;stroke-opacity:1"
       id="path1-7-2-9-9-1-6-1-9-5-8-1-7"
       cx="-22.055557"
       cy="-2.1038885"
       rx="0.65429264"
       ry="0.80279088"
       transform="matrix(-0.73860137,-0.67414243,-0.67414243,0.73860137,0,0)" /><ellipse
       style="fill:#ffffff;fill-opacity:1;stroke:#000000;stroke-width:0.265;stroke-dasharray:none;stroke-opacity:1"
       id="path1-7-2-9-9-1-3-3-8"
       cx="-0.013097778"
       cy="-21.670473"
       rx="0.65429264"
       ry="0.80279088"
       transform="matrix(0.70710678,-0.70710678,-0.70710678,-0.70710678,0,0)" /><path
       style="fill:#999999;fill-opacity:1;stroke:none;stroke-width:0.264999;stroke-dasharray:none;stroke-opacity:1"
       d="m 21.289326,18.095088 c -0.572051,-0.0159 -1.112463,0.142831 -1.718508,0.252628 -0.627569,-0.514081 -1.982838,-1.605988 -2.399397,-0.987048 -0.333583,0.495651 1.573216,1.800608 1.90818,1.984427 0.39374,0.216074 1.410905,0.181471 1.985609,0.185024 0.535356,-0.0252 1.580919,-0.179785 2.177496,-0.363057 0.608789,-0.137347 1.736578,-0.429195 2.073092,-0.767796 0.438832,-0.441518 0.672952,-1.665824 0.681445,-2.271345 0.0063,-0.449454 -0.05467,-2.42519 -0.467913,-2.327339 -0.615872,0.145828 -0.453957,1.186643 -0.53073,2.162211 -0.117302,0.508953 -0.231284,0.863419 -0.591138,1.302862 -0.466321,-0.853052 -0.44293,-2.570423 -0.692616,-3.799824 -0.0715,-0.352042 -1.09469,-0.145564 -1.035939,0.208825 0.08462,0.510394 -0.01574,0.653638 0.186065,1.147181 -0.09271,0.493654 -0.219402,1.157526 -0.139694,1.750085 -0.05142,0.03662 -0.103052,0.05823 -0.152773,0.07128 -0.04964,0.0134 -0.725168,-0.627701 -0.787992,-0.634005 -0.62092,0.04079 -0.546357,1.068735 -0.495187,2.085902 z"
       id="path4-6-3-2-0-9-7"
       sodipodi:nodetypes="ccsscccssscsscccccc" /><ellipse
       style="fill:#ffffff;fill-opacity:1;stroke:#000000;stroke-width:0.265;stroke-dasharray:none;stroke-opacity:1"
       id="path1-7-2-9-9-1-3-3-7-1"
       cx="25.581041"
       cy="-14.241825"
       rx="0.65429264"
       ry="0.80279088"
       transform="scale(1,-1)" /><path
       id="path1-7-1-1-4-1-9-3"
       style="fill:#ffffff;stroke:#000000;stroke-width:0.265;stroke-dasharray:none"
       d="m 21.347161,15.6447 c 0.646888,-0.223399 0.772153,0.934811 0.823658,1.135521 0.05151,0.200709 0.684661,1.025366 -0.146933,1.242321 -1.008771,0.263157 -1.259341,-2.176641 -0.67672,-2.377843 z"
       sodipodi:nodetypes="sszs" /><path
       id="path1-7-1-1-4-5-9-4-8"
       style="fill:#ffffff;stroke:#000000;stroke-width:0.265;stroke-dasharray:none"
       d="m 22.699216,11.887808 c -0.671921,0.129975 -0.201298,1.195648 -0.145551,1.395221 0.05575,0.199571 -0.08025,1.230322 0.748412,1.002415 1.005199,-0.276486 0.0023,-2.514699 -0.602867,-2.397635 z"
       sodipodi:nodetypes="sszs" /><path
       style="fill:#999999;fill-opacity:1;stroke:none;stroke-width:0.264999;stroke-dasharray:none;stroke-opacity:1"
       d="m 17.798894,29.386943 c -0.26234,0.004 -0.518185,-0.0824 -0.507814,-0.261719 0.07244,-1.252404 0.08092,-3.577075 0.509764,-4.482418 -0.43786,-0.679075 -1.450729,0.168883 -1.972083,-0.675331 -0.452162,-0.732167 0.349348,-2.081778 0.848141,-2.34379 0.249252,-0.130922 1.037875,0.472672 0.822266,0.65374 -0.500285,0.420143 -0.467469,0.462662 -0.706945,0.985156 0.459066,0.23081 1.415413,-0.595512 1.88143,0.131228 0.58837,-0.0052 1.291723,-1.487372 1.578229,-1.973468 -0.550878,-0.779206 -0.628813,-1.047389 -0.89461,-1.346411 l 0.818414,-0.585799 c 0.398696,0.431921 1.218354,1.510875 1.225322,2.069713 0.0091,0.73225 -0.684316,2.398413 -1.119697,3.079086 0.432153,0.903771 0.450329,3.230288 0.527344,4.482419 0.02205,0.358556 -1.02167,0.345808 -1.056641,-0.01172 -0.100732,-1.029807 -0.213414,-2.743696 -0.427734,-2.906246 -0.12111,-0.09185 -0.211098,-0.116144 -0.279298,-0.105472 -0.06823,-0.01041 -0.160481,0.01512 -0.281246,0.107427 -0.213718,0.163345 -0.320995,1.876088 -0.417965,2.906259 -0.01683,0.178827 -0.28454,0.273368 -0.546875,0.277344 z"
       id="path4-4-5-2-0-5-6-4-0"
       sodipodi:nodetypes="ssscsscccccscscscssss" /><path
       id="path1-9-9-4-2-8-1-4-9"
       style="fill:#66ff66;fill-opacity:1;stroke:#000000;stroke-width:0.265"
       d="m 17.372616,23.933714 c -1e-6,-0.91821 0.744353,-2.054435 1.662562,-2.054434 0.918207,-1e-6 1.66256,1.136227 1.662561,2.054432 -10e-7,0.918205 -0.744353,1.662562 -1.66256,1.66256 -0.918209,2e-6 -1.662563,-0.744351 -1.662563,-1.662558 z"
       sodipodi:nodetypes="zzzzz" /><path
       id="path1-7-1-2-6-0-1-6-3-3-7"
       style="fill:#ffffff;stroke:#000000;stroke-width:0.265;stroke-dasharray:none"
       d="m 19.691795,29.556503 c 0,-0.207212 0.227851,-0.738307 0.588877,-0.738306 0.361024,0 0.627767,0.54177 0.627762,0.748989 1e-6,0.207215 0.07027,0.385879 -0.627764,0.364518 -0.69804,-0.02136 -0.588889,-0.167937 -0.588879,-0.375197 z"
       sodipodi:nodetypes="ssszs" /><path
       id="path1-7-1-9-0-2-5-0-2-1-0-9"
       style="fill:#ffffff;stroke:#000000;stroke-width:0.265;stroke-dasharray:none"
       d="m 17.210698,29.534733 c 0,-0.207211 0.227853,-0.738308 0.588876,-0.738307 0.361023,0 0.62777,0.54177 0.627766,0.748991 0,0.207213 0.07027,0.385877 -0.627766,0.364518 -0.69804,-0.02136 -0.588888,-0.167938 -0.588877,-0.375196 z"
       sodipodi:nodetypes="ssszs" /><ellipse
       style="fill:#ffffff;fill-opacity:1;stroke:#000000;stroke-width:0.265;stroke-dasharray:none;stroke-opacity:1"
       id="path1-7-2-9-9-1-6-1-9-5-8-1-7-9"
       cx="27.390476"
       cy="-4.3599501"
       rx="0.65429264"
       ry="0.80279088"
       transform="matrix(0.73860137,0.67414243,0.67414243,-0.73860137,0,0)" /><ellipse
       style="fill:#ffffff;fill-opacity:1;stroke:#000000;stroke-width:0.265;stroke-dasharray:none;stroke-opacity:1"
       id="path1-7-2-9-9-1-3-3-8-3"
       cx="-0.013097748"
       cy="27.827002"
       rx="0.65429264"
       ry="0.80279088"
       transform="matrix(-0.70710678,0.70710678,0.70710678,0.70710678,0,0)" /><ellipse
       style="fill:#ffffff;fill-opacity:1;stroke:#000000;stroke-width:0.265;stroke-dasharray:none;stroke-opacity:1"
       id="path1-7-2-9-9-1-3-9-5-1-8"
       cx="-1.8435346"
       cy="24.679979"
       rx="0.65429264"
       ry="0.80279088"
       transform="matrix(-0.75781468,0.65246985,0.65246985,0.75781468,0,0)" /></g></svg>
