<?xml version="1.0" encoding="UTF-8" standalone="no"?>
<!-- Created with Inkscape (http://www.inkscape.org/) -->

<svg
   width="35mm"
   height="35mm"
   viewBox="0 0 35 35"
   version="1.1"
   id="svg1"
   xml:space="preserve"
   inkscape:version="1.4 (e7c3feb100, 2024-10-09)"
   sodipodi:docname="18_v1.svg"
   xmlns:inkscape="http://www.inkscape.org/namespaces/inkscape"
   xmlns:sodipodi="http://sodipodi.sourceforge.net/DTD/sodipodi-0.dtd"
   xmlns="http://www.w3.org/2000/svg"
   xmlns:svg="http://www.w3.org/2000/svg"><sodipodi:namedview
     id="namedview1"
     pagecolor="#ffffff"
     bordercolor="#000000"
     borderopacity="0.25"
     inkscape:showpageshadow="2"
     inkscape:pageopacity="0.0"
     inkscape:pagecheckerboard="0"
     inkscape:deskcolor="#d1d1d1"
     inkscape:document-units="mm"
     inkscape:zoom="5.6310194"
     inkscape:cx="67.749722"
     inkscape:cy="70.502332"
     inkscape:window-width="1916"
     inkscape:window-height="1023"
     inkscape:window-x="0"
     inkscape:window-y="0"
     inkscape:window-maximized="0"
     inkscape:current-layer="layer1" /><defs
     id="defs1"><inkscape:path-effect
       effect="mirror_symmetry"
       start_point="17.297909,16.234992"
       end_point="17.313303,7.810326"
       center_point="17.305606,12.022659"
       id="path-effect5"
       is_visible="true"
       lpeversion="1.2"
       lpesatellites=""
       mode="free"
       discard_orig_path="false"
       fuse_paths="true"
       oposite_fuse="false"
       split_items="false"
       split_open="false"
       link_styles="false" /><inkscape:path-effect
       effect="mirror_symmetry"
       start_point="17.297909,16.234992"
       end_point="17.313303,7.810326"
       center_point="17.305606,12.022659"
       id="path-effect5-7"
       is_visible="true"
       lpeversion="1.2"
       lpesatellites=""
       mode="free"
       discard_orig_path="false"
       fuse_paths="true"
       oposite_fuse="false"
       split_items="false"
       split_open="false"
       link_styles="false" /><inkscape:path-effect
       effect="mirror_symmetry"
       start_point="17.297909,16.234992"
       end_point="17.313303,7.810326"
       center_point="17.305606,12.022659"
       id="path-effect5-6"
       is_visible="true"
       lpeversion="1.2"
       lpesatellites=""
       mode="free"
       discard_orig_path="false"
       fuse_paths="true"
       oposite_fuse="false"
       split_items="false"
       split_open="false"
       link_styles="false" /><inkscape:path-effect
       effect="mirror_symmetry"
       start_point="17.297909,16.234992"
       end_point="17.313303,7.810326"
       center_point="17.305606,12.022659"
       id="path-effect5-3"
       is_visible="true"
       lpeversion="1.2"
       lpesatellites=""
       mode="free"
       discard_orig_path="false"
       fuse_paths="true"
       oposite_fuse="false"
       split_items="false"
       split_open="false"
       link_styles="false" /><inkscape:path-effect
       effect="mirror_symmetry"
       start_point="17.297909,16.234992"
       end_point="17.313303,7.810326"
       center_point="17.305606,12.022659"
       id="path-effect5-66"
       is_visible="true"
       lpeversion="1.2"
       lpesatellites=""
       mode="free"
       discard_orig_path="false"
       fuse_paths="true"
       oposite_fuse="false"
       split_items="false"
       split_open="false"
       link_styles="false" /><inkscape:path-effect
       effect="mirror_symmetry"
       start_point="17.297909,16.234992"
       end_point="17.313303,7.810326"
       center_point="17.305606,12.022659"
       id="path-effect5-4"
       is_visible="true"
       lpeversion="1.2"
       lpesatellites=""
       mode="free"
       discard_orig_path="false"
       fuse_paths="true"
       oposite_fuse="false"
       split_items="false"
       split_open="false"
       link_styles="false" /><inkscape:path-effect
       effect="mirror_symmetry"
       start_point="17.297909,16.234992"
       end_point="17.313303,7.810326"
       center_point="17.305606,12.022659"
       id="path-effect5-4-7"
       is_visible="true"
       lpeversion="1.2"
       lpesatellites=""
       mode="free"
       discard_orig_path="false"
       fuse_paths="true"
       oposite_fuse="false"
       split_items="false"
       split_open="false"
       link_styles="false" /><inkscape:path-effect
       effect="mirror_symmetry"
       start_point="17.297909,16.234992"
       end_point="17.313303,7.810326"
       center_point="17.305606,12.022659"
       id="path-effect5-41"
       is_visible="true"
       lpeversion="1.2"
       lpesatellites=""
       mode="free"
       discard_orig_path="false"
       fuse_paths="true"
       oposite_fuse="false"
       split_items="false"
       split_open="false"
       link_styles="false" /><inkscape:path-effect
       effect="mirror_symmetry"
       start_point="17.493844,16.300304"
       end_point="17.509238,7.875638"
       center_point="17.501541,12.087971"
       id="path-effect5-4-0-9-5-7"
       is_visible="true"
       lpeversion="1.2"
       lpesatellites=""
       mode="free"
       discard_orig_path="false"
       fuse_paths="true"
       oposite_fuse="false"
       split_items="false"
       split_open="false"
       link_styles="false" /><inkscape:path-effect
       effect="mirror_symmetry"
       start_point="17.493844,16.300304"
       end_point="17.509238,7.875638"
       center_point="17.501541,12.087971"
       id="path-effect5-4-0-9-5-7-6"
       is_visible="true"
       lpeversion="1.2"
       lpesatellites=""
       mode="free"
       discard_orig_path="false"
       fuse_paths="true"
       oposite_fuse="false"
       split_items="false"
       split_open="false"
       link_styles="false" /></defs><g
     inkscape:label="Layer 1"
     inkscape:groupmode="layer"
     id="layer1"><path
       id="path1-3-0-4-12-3"
       style="fill:#4d4d4d;fill-opacity:1;stroke:#000000;stroke-width:0.265"
       d="m 16.33303,11.880132 c 0,0.91821 0.744354,2.054434 1.662563,2.054432 0.918205,10e-7 1.66256,-1.136224 1.662561,-2.05443 -2e-6,-0.918207 -0.744356,-1.662562 -1.662563,-1.662562 -0.918208,-1e-6 -1.662563,0.744352 -1.662561,1.66256 z"
       sodipodi:nodetypes="zzzzz" /><path
       id="path1-3-0-4-12"
       style="fill:#66ff66;fill-opacity:1;stroke:#000000;stroke-width:0.265"
       d="m 18.66697,23.119868 c 0,-0.91821 -0.744354,-2.054434 -1.662563,-2.054432 -0.918205,-10e-7 -1.66256,1.136224 -1.662561,2.05443 2e-6,0.918207 0.744356,1.662562 1.662563,1.662562 0.918208,1e-6 1.662563,-0.744352 1.662561,-1.66256 z"
       sodipodi:nodetypes="zzzzz" /><path
       style="fill:#999999;fill-opacity:1;stroke:none;stroke-width:0.264999;stroke-dasharray:none;stroke-opacity:1"
       d="m 16.904912,21.289326 c 0.0159,-0.572051 -0.142831,-1.112463 -0.252628,-1.718508 0.514081,-0.627569 1.605988,-1.982838 0.987048,-2.399397 -0.495651,-0.333583 -1.800608,1.573216 -1.984427,1.90818 -0.216074,0.39374 -0.181471,1.410905 -0.185024,1.985609 0.0252,0.535356 0.179785,1.580919 0.363057,2.177496 0.137347,0.608789 0.429195,1.736578 0.767796,2.073092 0.441518,0.438832 1.665824,0.672952 2.271345,0.681445 0.449454,0.0063 2.42519,-0.05467 2.327339,-0.467913 -0.145828,-0.615872 -1.186643,-0.453957 -2.162211,-0.53073 -0.508953,-0.117302 -0.863419,-0.231284 -1.302862,-0.591138 0.853052,-0.466321 2.570423,-0.44293 3.799824,-0.692616 0.352042,-0.0715 0.145564,-1.09469 -0.208825,-1.035939 -0.510394,0.08462 -0.653638,-0.01574 -1.147181,0.186065 -0.493654,-0.09271 -1.157526,-0.219402 -1.750085,-0.139694 -0.03662,-0.05142 -0.05823,-0.103052 -0.07128,-0.152773 -0.0134,-0.04964 0.627701,-0.725168 0.634005,-0.787992 -0.04079,-0.62092 -1.068735,-0.546357 -2.085902,-0.495187 z"
       id="path4-6-3-2-0-9"
       sodipodi:nodetypes="ccsscccssscsscccccc" /><ellipse
       style="fill:#ffffff;fill-opacity:1;stroke:#000000;stroke-width:0.265;stroke-dasharray:none;stroke-opacity:1"
       id="path1-7-2-9-9-1-3-3-7"
       cx="25.581041"
       cy="20.758175"
       rx="0.65429264"
       ry="0.80279088"
       transform="matrix(0,1,1,0,0,0)" /><path
       id="path1-7-1-1-4-1-9"
       style="fill:#ffffff;stroke:#000000;stroke-width:0.265;stroke-dasharray:none"
       d="m 19.3553,21.347161 c 0.223399,0.646888 -0.934811,0.772153 -1.135521,0.823658 -0.200709,0.05151 -1.025366,0.684661 -1.242321,-0.146933 -0.263157,-1.008771 2.176641,-1.259341 2.377843,-0.67672 z"
       sodipodi:nodetypes="sszs" /><path
       id="path1-7-1-1-4-5-9-4"
       style="fill:#ffffff;stroke:#000000;stroke-width:0.265;stroke-dasharray:none"
       d="m 23.112192,22.699216 c -0.129975,-0.671921 -1.195648,-0.201298 -1.395221,-0.145551 -0.199571,0.05575 -1.230322,-0.08025 -1.002415,0.748412 0.276486,1.005199 2.514699,0.0023 2.397635,-0.602867 z"
       sodipodi:nodetypes="sszs" /><path
       style="fill:#999999;fill-opacity:1;stroke:none;stroke-width:0.264999;stroke-dasharray:none;stroke-opacity:1"
       d="m 5.6130569,17.798894 c -0.004,-0.26234 0.082404,-0.518185 0.261719,-0.507814 1.2524045,0.07244 3.577075,0.08092 4.4824181,0.509764 0.679075,-0.43786 -0.168883,-1.450729 0.675331,-1.972083 0.732167,-0.452162 2.081778,0.349348 2.34379,0.848141 0.130922,0.249252 -0.472672,1.037875 -0.65374,0.822266 -0.420143,-0.500285 -0.462662,-0.467469 -0.985156,-0.706945 -0.23081,0.459066 0.595512,1.415413 -0.131228,1.88143 0.0052,0.58837 1.487372,1.291723 1.973468,1.578229 0.779206,-0.550878 1.047389,-0.628813 1.346411,-0.89461 l 0.585799,0.818414 c -0.431921,0.398696 -1.510875,1.218354 -2.069713,1.225322 -0.73225,0.0091 -2.398413,-0.684316 -3.079086,-1.119697 -0.9037707,0.432153 -3.2302873,0.450329 -4.4824188,0.527344 -0.3585559,0.02205 -0.3458078,-1.02167 0.01172,-1.056641 1.0298074,-0.100732 2.7436959,-0.213414 2.9062465,-0.427734 0.091854,-0.12111 0.1161436,-0.211098 0.1054714,-0.279298 0.010414,-0.06823 -0.01512,-0.160481 -0.1074263,-0.281246 -0.1633456,-0.213718 -1.8760885,-0.320995 -2.90626,-0.417965 -0.1788262,-0.01683 -0.2733673,-0.28454 -0.2773434,-0.546875 z"
       id="path4-4-5-2-0-5-6-4"
       sodipodi:nodetypes="ssscsscccccscscscssss" /><path
       id="path1-9-9-4-2-8-1-4"
       style="fill:#6666ff;fill-opacity:1;stroke:#000000;stroke-width:0.265"
       d="m 11.066286,17.372616 c 0.91821,-1e-6 2.054435,0.744353 2.054434,1.662562 10e-7,0.918207 -1.136227,1.66256 -2.054432,1.662561 -0.918205,-10e-7 -1.6625617,-0.744353 -1.6625602,-1.66256 -1.3e-6,-0.918209 0.7443512,-1.662563 1.6625582,-1.662563 z"
       sodipodi:nodetypes="zzzzz" /><path
       id="path1-7-1-2-6-0-1-6-3-3"
       style="fill:#ffffff;stroke:#000000;stroke-width:0.265;stroke-dasharray:none"
       d="m 5.4434976,19.691795 c 0.2072121,0 0.7383066,0.227851 0.7383055,0.588877 -2e-7,0.361024 -0.5417696,0.627767 -0.7489893,0.627762 -0.2072147,1e-6 -0.3858784,0.07027 -0.364518,-0.627764 0.021359,-0.69804 0.1679378,-0.588889 0.3751973,-0.588879 z"
       sodipodi:nodetypes="ssszs" /><path
       id="path1-7-1-9-0-2-5-0-2-1-0"
       style="fill:#ffffff;stroke:#000000;stroke-width:0.265;stroke-dasharray:none"
       d="m 5.4652671,17.210698 c 0.2072113,0 0.7383079,0.227853 0.738307,0.588876 -2e-7,0.361023 -0.5417703,0.62777 -0.7489908,0.627766 -0.2072131,0 -0.3858768,0.07027 -0.3645178,-0.627766 0.02136,-0.69804 0.1679373,-0.588888 0.3751958,-0.588877 z"
       sodipodi:nodetypes="ssszs" /><ellipse
       style="fill:#ffffff;fill-opacity:1;stroke:#000000;stroke-width:0.265;stroke-dasharray:none;stroke-opacity:1"
       id="path1-7-2-9-9-1-6-1-9-5-8-1-7"
       cx="3.7954907"
       cy="21.491096"
       rx="0.65429264"
       ry="0.80279088"
       transform="matrix(-0.67414243,0.73860137,0.73860137,0.67414243,0,0)" /><ellipse
       style="fill:#ffffff;fill-opacity:1;stroke:#000000;stroke-width:0.265;stroke-dasharray:none;stroke-opacity:1"
       id="path1-7-2-9-9-1-3-3-8"
       cx="-24.761835"
       cy="3.0782642"
       rx="0.65429264"
       ry="0.80279088"
       transform="matrix(-0.70710678,-0.70710678,-0.70710678,0.70710678,0,0)" /><path
       style="fill:#999999;fill-opacity:1;stroke:none;stroke-width:0.264999;stroke-dasharray:none;stroke-opacity:1"
       d="m 18.095088,13.710674 c -0.0159,0.572051 0.142831,1.112463 0.252628,1.718508 -0.514081,0.627569 -1.605988,1.982838 -0.987048,2.399397 0.495651,0.333583 1.800608,-1.573216 1.984427,-1.90818 0.216074,-0.39374 0.181471,-1.410905 0.185024,-1.985609 -0.0252,-0.535356 -0.179785,-1.580919 -0.363057,-2.177496 C 19.029715,11.148505 18.737867,10.020716 18.399266,9.684202 17.957748,9.24537 16.733442,9.01125 16.127921,9.002757 c -0.449454,-0.0063 -2.42519,0.05467 -2.327339,0.467913 0.145828,0.615872 1.186643,0.453957 2.162211,0.53073 0.508953,0.117302 0.863419,0.231284 1.302862,0.591138 -0.853052,0.466321 -2.570423,0.44293 -3.799824,0.692616 -0.352042,0.0715 -0.145564,1.09469 0.208825,1.035939 0.510394,-0.08462 0.653638,0.01574 1.147181,-0.186065 0.493654,0.09271 1.157526,0.219402 1.750085,0.139694 0.03662,0.05142 0.05823,0.103052 0.07128,0.152773 0.0134,0.04964 -0.627701,0.725168 -0.634005,0.787992 0.04079,0.62092 1.068735,0.546357 2.085902,0.495187 z"
       id="path4-6-3-2-0-9-7"
       sodipodi:nodetypes="ccsscccssscsscccccc" /><ellipse
       style="fill:#ffffff;fill-opacity:1;stroke:#000000;stroke-width:0.265;stroke-dasharray:none;stroke-opacity:1"
       id="path1-7-2-9-9-1-3-3-7-1"
       cx="-9.4189587"
       cy="-14.241825"
       rx="0.65429264"
       ry="0.80279088"
       transform="matrix(0,-1,-1,0,0,0)" /><path
       id="path1-7-1-1-4-1-9-3"
       style="fill:#ffffff;stroke:#000000;stroke-width:0.265;stroke-dasharray:none"
       d="m 15.6447,13.652839 c -0.223399,-0.646888 0.934811,-0.772153 1.135521,-0.823658 0.200709,-0.05151 1.025366,-0.684661 1.242321,0.146933 0.263157,1.008771 -2.176641,1.259341 -2.377843,0.67672 z"
       sodipodi:nodetypes="sszs" /><path
       id="path1-7-1-1-4-5-9-4-8"
       style="fill:#ffffff;stroke:#000000;stroke-width:0.265;stroke-dasharray:none"
       d="m 11.887808,12.300784 c 0.129975,0.671921 1.195648,0.201298 1.395221,0.145551 0.199571,-0.05575 1.230322,0.08025 1.002415,-0.748412 -0.276486,-1.005199 -2.514699,-0.0023 -2.397635,0.602867 z"
       sodipodi:nodetypes="sszs" /><path
       style="fill:#999999;fill-opacity:1;stroke:none;stroke-width:0.264999;stroke-dasharray:none;stroke-opacity:1"
       d="m 29.386943,17.201106 c 0.004,0.26234 -0.0824,0.518185 -0.261719,0.507814 -1.252404,-0.07244 -3.577075,-0.08092 -4.482418,-0.509764 -0.679075,0.43786 0.168883,1.450729 -0.675331,1.972083 -0.732167,0.452162 -2.081778,-0.349348 -2.34379,-0.848141 -0.130922,-0.249252 0.472672,-1.037875 0.65374,-0.822266 0.420143,0.500285 0.462662,0.467469 0.985156,0.706945 0.23081,-0.459066 -0.595512,-1.415413 0.131228,-1.88143 -0.0052,-0.58837 -1.487372,-1.291723 -1.973468,-1.578229 -0.779206,0.550878 -1.047389,0.628813 -1.346411,0.89461 l -0.585799,-0.818414 c 0.431921,-0.398696 1.510875,-1.218354 2.069713,-1.225322 0.73225,-0.0091 2.398413,0.684316 3.079086,1.119697 0.903771,-0.432153 3.230288,-0.450329 4.482419,-0.527344 0.358556,-0.02205 0.345808,1.02167 -0.01172,1.056641 -1.029807,0.100732 -2.743696,0.213414 -2.906246,0.427734 -0.09185,0.12111 -0.116144,0.211098 -0.105472,0.279298 -0.01041,0.06823 0.01512,0.160481 0.107427,0.281246 0.163345,0.213718 1.876088,0.320995 2.906259,0.417965 0.178827,0.01683 0.273368,0.28454 0.277344,0.546875 z"
       id="path4-4-5-2-0-5-6-4-0"
       sodipodi:nodetypes="ssscsscccccscscscssss" /><path
       id="path1-9-9-4-2-8-1-4-9"
       style="fill:#ff6666;fill-opacity:1;stroke:#000000;stroke-width:0.265"
       d="m 23.933714,17.627384 c -0.91821,1e-6 -2.054435,-0.744353 -2.054434,-1.662562 -1e-6,-0.918207 1.136227,-1.66256 2.054432,-1.662561 0.918205,1e-6 1.662562,0.744353 1.66256,1.66256 2e-6,0.918209 -0.744351,1.662563 -1.662558,1.662563 z"
       sodipodi:nodetypes="zzzzz" /><path
       id="path1-7-1-2-6-0-1-6-3-3-7"
       style="fill:#ffffff;stroke:#000000;stroke-width:0.265;stroke-dasharray:none"
       d="m 29.556503,15.308205 c -0.207212,0 -0.738307,-0.227851 -0.738306,-0.588877 0,-0.361024 0.54177,-0.627767 0.748989,-0.627762 0.207215,-1e-6 0.385879,-0.07027 0.364518,0.627764 -0.02136,0.69804 -0.167937,0.588889 -0.375197,0.588879 z"
       sodipodi:nodetypes="ssszs" /><path
       id="path1-7-1-9-0-2-5-0-2-1-0-9"
       style="fill:#ffffff;stroke:#000000;stroke-width:0.265;stroke-dasharray:none"
       d="m 29.534733,17.789302 c -0.207211,0 -0.738308,-0.227853 -0.738307,-0.588876 0,-0.361023 0.54177,-0.62777 0.748991,-0.627766 0.207213,0 0.385877,-0.07027 0.364518,0.627766 -0.02136,0.69804 -0.167938,0.588888 -0.375196,0.588877 z"
       sodipodi:nodetypes="ssszs" /><ellipse
       style="fill:#ffffff;fill-opacity:1;stroke:#000000;stroke-width:0.265;stroke-dasharray:none;stroke-opacity:1"
       id="path1-7-2-9-9-1-6-1-9-5-8-1-7-9"
       cx="1.5394281"
       cy="-27.954935"
       rx="0.65429264"
       ry="0.80279088"
       transform="matrix(0.67414243,-0.73860137,-0.73860137,-0.67414243,0,0)" /><ellipse
       style="fill:#ffffff;fill-opacity:1;stroke:#000000;stroke-width:0.265;stroke-dasharray:none;stroke-opacity:1"
       id="path1-7-2-9-9-1-3-3-8-3"
       cx="24.73564"
       cy="3.0782642"
       rx="0.65429264"
       ry="0.80279088"
       transform="matrix(0.70710678,0.70710678,0.70710678,-0.70710678,0,0)" /><ellipse
       style="fill:#ffffff;fill-opacity:1;stroke:#000000;stroke-width:0.265;stroke-dasharray:none;stroke-opacity:1"
       id="path1-7-2-9-9-1-3-9-5-1-8"
       cx="24.679979"
       cy="1.8435345"
       rx="0.65429264"
       ry="0.80279088"
       transform="matrix(0.65246985,0.75781468,0.75781468,-0.65246985,0,0)" /></g></svg>
