<?xml version="1.0" encoding="UTF-8" standalone="no"?>
<!-- Created with Inkscape (http://www.inkscape.org/) -->

<svg
   width="35mm"
   height="35mm"
   viewBox="0 0 35 35"
   version="1.1"
   id="svg1"
   xml:space="preserve"
   inkscape:version="1.4.2 (ebf0e940d0, 2025-05-08)"
   sodipodi:docname="19_v3_inter.svg"
   xmlns:inkscape="http://www.inkscape.org/namespaces/inkscape"
   xmlns:sodipodi="http://sodipodi.sourceforge.net/DTD/sodipodi-0.dtd"
   xmlns:xlink="http://www.w3.org/1999/xlink"
   xmlns="http://www.w3.org/2000/svg"
   xmlns:svg="http://www.w3.org/2000/svg"><sodipodi:namedview
     id="namedview1"
     pagecolor="#ffffff"
     bordercolor="#000000"
     borderopacity="0.25"
     inkscape:showpageshadow="2"
     inkscape:pageopacity="0.0"
     inkscape:pagecheckerboard="0"
     inkscape:deskcolor="#d1d1d1"
     inkscape:document-units="mm"
     inkscape:zoom="4.2968333"
     inkscape:cx="53.062333"
     inkscape:cy="35.607618"
     inkscape:window-width="1916"
     inkscape:window-height="1021"
     inkscape:window-x="0"
     inkscape:window-y="0"
     inkscape:window-maximized="0"
     inkscape:current-layer="layer1" /><defs
     id="defs1"><linearGradient
       id="linearGradient8"
       inkscape:collect="always"><stop
         style="stop-color:#ff6666;stop-opacity:0.74901962;"
         offset="0"
         id="stop7" /><stop
         style="stop-color:#ff6666;stop-opacity:0;"
         offset="1"
         id="stop8" /></linearGradient><linearGradient
       id="linearGradient6"
       inkscape:collect="always"><stop
         style="stop-color:#4d4d4d;stop-opacity:0.74901962;"
         offset="0"
         id="stop3" /><stop
         style="stop-color:#4d4d4d;stop-opacity:0;"
         offset="1"
         id="stop6" /></linearGradient><linearGradient
       id="linearGradient10"
       inkscape:collect="always"><stop
         style="stop-color:#6666ff;stop-opacity:0.74901962;"
         offset="0"
         id="stop9" /><stop
         style="stop-color:#6666ff;stop-opacity:0;"
         offset="1"
         id="stop10" /></linearGradient><linearGradient
       id="linearGradient5"
       inkscape:collect="always"><stop
         style="stop-color:#66ff66;stop-opacity:0.74901962;"
         offset="0"
         id="stop4" /><stop
         style="stop-color:#66ff66;stop-opacity:0;"
         offset="1"
         id="stop5" /></linearGradient><inkscape:path-effect
       effect="mirror_symmetry"
       start_point="17.297909,16.234992"
       end_point="17.313303,7.810326"
       center_point="17.305606,12.022659"
       id="path-effect5"
       is_visible="true"
       lpeversion="1.2"
       lpesatellites=""
       mode="free"
       discard_orig_path="false"
       fuse_paths="true"
       oposite_fuse="false"
       split_items="false"
       split_open="false"
       link_styles="false" /><inkscape:path-effect
       effect="mirror_symmetry"
       start_point="17.297909,16.234992"
       end_point="17.313303,7.810326"
       center_point="17.305606,12.022659"
       id="path-effect5-7"
       is_visible="true"
       lpeversion="1.2"
       lpesatellites=""
       mode="free"
       discard_orig_path="false"
       fuse_paths="true"
       oposite_fuse="false"
       split_items="false"
       split_open="false"
       link_styles="false" /><inkscape:path-effect
       effect="mirror_symmetry"
       start_point="17.297909,16.234992"
       end_point="17.313303,7.810326"
       center_point="17.305606,12.022659"
       id="path-effect5-6"
       is_visible="true"
       lpeversion="1.2"
       lpesatellites=""
       mode="free"
       discard_orig_path="false"
       fuse_paths="true"
       oposite_fuse="false"
       split_items="false"
       split_open="false"
       link_styles="false" /><inkscape:path-effect
       effect="mirror_symmetry"
       start_point="17.297909,16.234992"
       end_point="17.313303,7.810326"
       center_point="17.305606,12.022659"
       id="path-effect5-3"
       is_visible="true"
       lpeversion="1.2"
       lpesatellites=""
       mode="free"
       discard_orig_path="false"
       fuse_paths="true"
       oposite_fuse="false"
       split_items="false"
       split_open="false"
       link_styles="false" /><inkscape:path-effect
       effect="mirror_symmetry"
       start_point="17.297909,16.234992"
       end_point="17.313303,7.810326"
       center_point="17.305606,12.022659"
       id="path-effect5-66"
       is_visible="true"
       lpeversion="1.2"
       lpesatellites=""
       mode="free"
       discard_orig_path="false"
       fuse_paths="true"
       oposite_fuse="false"
       split_items="false"
       split_open="false"
       link_styles="false" /><inkscape:path-effect
       effect="mirror_symmetry"
       start_point="17.297909,16.234992"
       end_point="17.313303,7.810326"
       center_point="17.305606,12.022659"
       id="path-effect5-4"
       is_visible="true"
       lpeversion="1.2"
       lpesatellites=""
       mode="free"
       discard_orig_path="false"
       fuse_paths="true"
       oposite_fuse="false"
       split_items="false"
       split_open="false"
       link_styles="false" /><inkscape:path-effect
       effect="mirror_symmetry"
       start_point="17.297909,16.234992"
       end_point="17.313303,7.810326"
       center_point="17.305606,12.022659"
       id="path-effect5-4-7"
       is_visible="true"
       lpeversion="1.2"
       lpesatellites=""
       mode="free"
       discard_orig_path="false"
       fuse_paths="true"
       oposite_fuse="false"
       split_items="false"
       split_open="false"
       link_styles="false" /><inkscape:path-effect
       effect="mirror_symmetry"
       start_point="17.297909,16.234992"
       end_point="17.313303,7.810326"
       center_point="17.305606,12.022659"
       id="path-effect5-41"
       is_visible="true"
       lpeversion="1.2"
       lpesatellites=""
       mode="free"
       discard_orig_path="false"
       fuse_paths="true"
       oposite_fuse="false"
       split_items="false"
       split_open="false"
       link_styles="false" /><linearGradient
       inkscape:collect="always"
       xlink:href="#linearGradient10"
       id="linearGradient1"
       gradientUnits="userSpaceOnUse"
       gradientTransform="matrix(-0.5,-0.8660254,-0.93755841,0.5412996,30.428459,18.570252)"
       x1="10.647268"
       y1="16.557198"
       x2="14.696174"
       y2="14.776537" /><linearGradient
       inkscape:collect="always"
       xlink:href="#linearGradient5"
       id="linearGradient4"
       gradientUnits="userSpaceOnUse"
       gradientTransform="matrix(0.25881904,0.96592582,1.0457105,-0.28019729,-4.394689,9.1503961)"
       x1="10.647268"
       y1="16.557198"
       x2="17.939503"
       y2="14.395561" /><marker
       style="overflow:visible"
       id="RoundedArrow"
       refX="0"
       refY="0"
       orient="auto-start-reverse"
       inkscape:stockid="Rounded arrow"
       markerWidth="1"
       markerHeight="1"
       viewBox="0 0 1 1"
       inkscape:isstock="true"
       inkscape:collect="always"
       preserveAspectRatio="xMidYMid"><path
         transform="scale(0.7)"
         d="m -0.21114562,-4.1055728 6.42229122,3.21114561 a 1,1 90 0 1 0,1.78885438 L -0.21114562,4.1055728 A 1.236068,1.236068 31.717474 0 1 -2,3 v -6 a 1.236068,1.236068 148.28253 0 1 1.78885438,-1.1055728 z"
         style="fill:context-stroke;fill-rule:evenodd;stroke:none"
         id="path8" /></marker><marker
       style="overflow:visible"
       id="RoundedArrow-9"
       refX="0"
       refY="0"
       orient="auto-start-reverse"
       inkscape:stockid="Rounded arrow"
       markerWidth="1"
       markerHeight="1"
       viewBox="0 0 1 1"
       inkscape:isstock="true"
       inkscape:collect="always"
       preserveAspectRatio="xMidYMid"><path
         transform="scale(0.7)"
         d="m -0.21114562,-4.1055728 6.42229122,3.21114561 a 1,1 90 0 1 0,1.78885438 L -0.21114562,4.1055728 A 1.236068,1.236068 31.717474 0 1 -2,3 v -6 a 1.236068,1.236068 148.28253 0 1 1.78885438,-1.1055728 z"
         style="fill:context-stroke;fill-rule:evenodd;stroke:none"
         id="path8-4" /></marker><linearGradient
       inkscape:collect="always"
       xlink:href="#linearGradient8"
       id="linearGradient2"
       gradientUnits="userSpaceOnUse"
       gradientTransform="matrix(0.5,0.8660254,0.93755841,-0.5412996,4.963414,17.648894)"
       x1="10.647268"
       y1="16.557198"
       x2="14.696174"
       y2="14.776537" /><linearGradient
       inkscape:collect="always"
       xlink:href="#linearGradient6"
       id="linearGradient3"
       gradientUnits="userSpaceOnUse"
       gradientTransform="matrix(-0.25881904,-0.96592582,-1.0457105,0.28019729,39.394693,25.8496)"
       x1="10.647268"
       y1="16.557198"
       x2="17.939503"
       y2="14.395561" /><inkscape:path-effect
       effect="mirror_symmetry"
       start_point="17.493844,16.300304"
       end_point="17.509238,7.875638"
       center_point="17.501541,12.087971"
       id="path-effect5-4-0-9-0"
       is_visible="true"
       lpeversion="1.2"
       lpesatellites=""
       mode="free"
       discard_orig_path="false"
       fuse_paths="true"
       oposite_fuse="false"
       split_items="false"
       split_open="false"
       link_styles="false" /></defs><g
     inkscape:label="Layer 1"
     inkscape:groupmode="layer"
     id="layer1"><text
       xml:space="preserve"
       style="font-size:3.175px;text-align:start;writing-mode:lr-tb;direction:ltr;text-anchor:start;fill:#000000;fill-opacity:1;stroke:none;stroke-width:0.2;stroke-dasharray:none;stroke-opacity:1"
       x="16.096933"
       y="29.247805"
       id="text5"><tspan
         sodipodi:role="line"
         id="tspan5"
         style="font-style:normal;font-variant:normal;font-weight:bold;font-stretch:normal;font-family:'Bitstream Vera Sans';-inkscape-font-specification:'Bitstream Vera Sans Bold';fill:#000000;fill-opacity:1;stroke:none;stroke-width:0.2"
         x="16.096933"
         y="29.247805">360</tspan></text><text
       xml:space="preserve"
       style="font-size:3.175px;text-align:start;writing-mode:lr-tb;direction:ltr;text-anchor:start;fill:#000000;fill-opacity:1;stroke:none;stroke-width:0.2;stroke-dasharray:none;stroke-opacity:1"
       x="12.215103"
       y="8.0636816"
       id="text5-0"><tspan
         sodipodi:role="line"
         id="tspan5-5"
         style="font-style:normal;font-variant:normal;font-weight:bold;font-stretch:normal;font-family:'Bitstream Vera Sans';-inkscape-font-specification:'Bitstream Vera Sans Bold';fill:#000000;fill-opacity:1;stroke:none;stroke-width:0.2"
         x="12.215103"
         y="8.0636816">360</tspan></text><path
       id="path1-3-0"
       style="fill:#ff6666;fill-opacity:1;stroke:#000000;stroke-width:0.265"
       d="m 24.787344,17.590491 c -0.23765,-0.88692 0.187265,-2.17708 1.074185,-2.41473 0.886921,-0.23765 1.899987,0.667207 2.137636,1.554126 0.237651,0.886919 -0.288689,1.798564 -1.175607,2.036212 -0.88692,0.23765 -1.798565,-0.288686 -2.036214,-1.175608 z"
       sodipodi:nodetypes="zzzzz" /><path
       id="path1-3-1-5-8-0-8-0-6-0-0"
       style="fill:url(#linearGradient2);fill-opacity:1;stroke:none;stroke-width:0.265"
       d="m 25.511133,21.535118 c -0.09516,-2.827765 -0.336455,-2.486349 -0.6925,-4.109681 0.284091,-0.913731 2.179165,-0.721752 3.112529,-0.510916 0.07444,1.980619 -0.248004,3.725173 -0.739239,4.607397 -0.491235,0.882224 -1.668313,3.24896 -1.68079,0.0132 z"
       sodipodi:nodetypes="zcczz" /><path
       style="fill:#999999;fill-opacity:1;stroke:none;stroke-width:0.264999;stroke-dasharray:none;stroke-opacity:1"
       d="M 3.225452,19.140826 C 3.153692,18.88846 3.170932,18.618974 3.34682,18.58258 4.575301,18.328404 6.822955,17.734927 7.808442,17.914839 8.35105,17.316138 7.269837,16.557252 7.95035,15.835165 c 0.590194,-0.62625 2.101259,-0.201359 2.48344,0.212624 0.190981,0.206868 -0.187943,1.124846 -0.418645,0.963449 -0.53531,-0.374503 -0.567888,-0.331795 -1.134559,-0.42788 -0.104128,0.503161 1.084286,1.553174 0.502925,2.191407 0.157303,0.566973 1.115783,0.843244 1.809644,1.297904 0.385402,-0.543104 0.810106,-1.967358 0.889529,-2.588002 0.27734,-0.04854 0.990046,-0.395465 0.993444,-0.113946 0.01169,0.968472 -0.598401,3.516099 -1.483947,3.814887 -0.768206,0.259199 -2.365913,-0.631966 -3.136076,-0.876339 -0.761126,0.65134 -3.003663,1.271043 -4.193198,1.669512 -0.34063,0.114099 -0.598455,-0.897354 -0.262159,-1.023671 0.96865,-0.363836 2.594973,-0.916265 2.696517,-1.165353 0.05738,-0.140754 0.05756,-0.233962 0.02959,-0.297076 -0.0076,-0.06862 -0.05614,-0.151098 -0.176556,-0.243863 -0.213094,-0.164165 -1.895243,0.175506 -2.915411,0.348468 -0.177087,0.03003 -0.3377,-0.204087 -0.409435,-0.456459 z"
       id="path4-4-5-2-0"
       sodipodi:nodetypes="ssscssccccsscscscsss" /><path
       id="path1-9-9-4-2"
       style="fill:#6666ff;fill-opacity:1;stroke:#000000;stroke-width:0.265"
       d="m 8.382539,17.317675 c 0.886921,-0.237649 2.177082,0.187265 2.414732,1.074187 0.23765,0.88692 -0.667207,1.899987 -1.554127,2.137635 C 8.356226,20.767146 7.444583,20.240809 7.206933,19.35389 6.969284,18.46697 7.49562,17.555325 8.382539,17.317675 Z"
       sodipodi:nodetypes="zzzzz" /><path
       id="path1-7-1-2-6-0-1"
       style="fill:#ffffff;stroke:#000000;stroke-width:0.265;stroke-dasharray:none"
       d="m 3.551589,21.013116 c 0.200153,-0.05363 0.772123,0.029 0.865561,0.377723 0.09344,0.348722 -0.360834,0.746597 -0.560987,0.800228 -0.200154,0.05363 -0.354542,0.167748 -0.514574,-0.512032 -0.160034,-0.679782 0.0098,-0.612288 0.21,-0.665919 z"
       sodipodi:nodetypes="ssszs" /><path
       id="path1-7-1-9-0-2-5-0"
       style="fill:#ffffff;stroke:#000000;stroke-width:0.265;stroke-dasharray:none"
       d="m 2.930462,18.610926 c 0.200153,-0.05363 0.772123,0.029 0.865562,0.377723 0.09344,0.348722 -0.360835,0.746596 -0.560988,0.800227 -0.200153,0.05363 -0.354541,0.167748 -0.514573,-0.512032 -0.160034,-0.679782 0.0098,-0.612287 0.209999,-0.665918 z"
       sodipodi:nodetypes="ssszs" /><ellipse
       style="fill:#ffffff;fill-opacity:1;stroke:#000000;stroke-width:0.265;stroke-dasharray:none;stroke-opacity:1"
       id="path1-7-2-9-9-1-6-1-9-5"
       cx="9.944891"
       cy="17.015148"
       rx="0.65429264"
       ry="0.80279088"
       transform="matrix(-0.46000748,0.88791504,0.88791504,0.46000748,0,0)" /><path
       style="fill:#999999;fill-opacity:1;stroke:none;stroke-width:0.264999;stroke-dasharray:none;stroke-opacity:1"
       d="m 18.892213,10.43725 c -0.182673,-0.188331 -0.424678,-0.308146 -0.544141,-0.174016 -0.834361,0.936808 -2.472156,2.586595 -2.80909,3.530008 -0.789793,0.170565 -0.906404,-1.145239 -1.872006,-0.916943 -0.837445,0.197994 -1.225011,1.719065 -1.057582,2.257036 0.08367,0.268825 1.068119,0.399659 1.043695,0.119166 -0.05667,-0.650842 -0.0034,-0.657703 0.196724,-1.196496 0.487815,0.161402 0.802945,1.715606 1.64635,1.531248 0.412364,0.419716 0.17238,1.387918 0.219197,2.216151 -0.663043,0.06222 -2.108834,-0.282107 -2.686039,-0.523646 -0.180701,0.215916 -0.837507,0.659672 -0.595402,0.803375 0.832875,0.494362 3.344231,1.239818 4.045763,0.622307 0.608575,-0.535686 0.635656,-2.364923 0.809105,-3.154091 0.944639,-0.333484 2.602588,-1.965728 3.542437,-2.79666 0.26913,-0.237946 -0.477907,-0.966953 -0.755445,-0.738871 -0.799414,0.656956 -2.090994,1.789179 -2.357481,1.752574 -0.150585,-0.02069 -0.231396,-0.06714 -0.272072,-0.122915 -0.05561,-0.04088 -0.102789,-0.124167 -0.12291,-0.274833 -0.03562,-0.266627 1.099616,-1.553576 1.759489,-2.350585 0.114548,-0.13835 -0.0079,-0.394501 -0.190587,-0.582812 z"
       id="path4-4-5-2-0-5"
       sodipodi:nodetypes="ssscssccccsscscscsss" /><path
       id="path1-9-9-4-2-8"
       style="fill:#66ff66;fill-opacity:1;stroke:#000000;stroke-width:0.265"
       d="m 14.734775,13.991843 c -0.649273,0.64927 -0.926367,1.97904 -0.277095,2.628311 0.64927,0.649272 1.979041,0.372176 2.62831,-0.277095 0.649269,-0.649268 0.649271,-1.701945 0,-2.351214 -0.64927,-0.649271 -1.701945,-0.649273 -2.351215,-2e-6 z"
       sodipodi:nodetypes="zzzzz" /><path
       id="path1-7-1-2-6-0-1-6"
       style="fill:#ffffff;stroke:#000000;stroke-width:0.265;stroke-dasharray:none"
       d="m 20.350593,11.655837 c -0.146521,0.146522 -0.360943,0.683179 -0.105662,0.93846 0.255283,0.255282 0.826988,0.06081 0.973511,-0.08572 0.146524,-0.146524 0.322545,-0.223168 -0.186143,-0.701651 -0.508692,-0.478484 -0.535179,-0.297618 -0.681705,-0.151094 z"
       sodipodi:nodetypes="ssszs" /><path
       id="path1-7-1-9-0-2-5-0-2"
       style="fill:#ffffff;stroke:#000000;stroke-width:0.265;stroke-dasharray:none"
       d="m 18.5808,9.9168301 c -0.146522,0.1465209 -0.360945,0.6831799 -0.105664,0.9384609 0.255282,0.255281 0.82699,0.06081 0.973513,-0.08572 0.146522,-0.146522 0.322543,-0.223167 -0.186144,-0.70165 C 18.753812,9.5894371 18.727327,9.7703041 18.580803,9.9168261 Z"
       sodipodi:nodetypes="ssszs" /><ellipse
       style="fill:#ffffff;fill-opacity:1;stroke:#000000;stroke-width:0.265;stroke-dasharray:none;stroke-opacity:1"
       id="path1-7-2-9-9-1-6-1-9-5-8"
       cx="13.781504"
       cy="14.911604"
       rx="0.65429264"
       ry="0.80279088"
       transform="rotate(2.61241)" /><ellipse
       style="fill:#ffffff;fill-opacity:1;stroke:#000000;stroke-width:0.265;stroke-dasharray:none;stroke-opacity:1"
       id="path1-7-2-9-9"
       cx="8.9829712"
       cy="19.734467"
       rx="0.65429264"
       ry="0.80279088"
       transform="matrix(-0.5,0.8660254,0.8660254,0.5,0,0)" /><path
       id="path1-3-1-5-8-0-8-0-6-0"
       style="fill:url(#linearGradient1);fill-opacity:1;stroke:none;stroke-width:0.265"
       d="m 9.880741,14.684028 c 0.09516,2.827765 0.467078,2.344841 0.823122,3.968173 -0.284091,0.913731 -2.483952,0.808834 -3.417316,0.597998 -0.07444,-1.980619 0.422169,-3.670747 0.913404,-4.552971 0.491235,-0.882224 1.668313,-3.24896 1.68079,-0.0132 z"
       sodipodi:nodetypes="zcczz" /><path
       id="path1-3-1-5-8-0-8-0-4"
       style="fill:url(#linearGradient4);fill-opacity:1;stroke:none;stroke-width:0.265"
       d="m 14.335553,22.115505 c -0.0071,-2.533434 0.102866,-5.363497 -0.12256,-6.849501 0.510902,-0.809069 2.33468,-0.173745 3.181671,0.27148 0.07281,2.038123 -0.05823,5.436919 -1.145045,7.045967 -0.238,0.352364 -2.291797,2.096277 -1.914068,-0.467946 0,0 0.0071,2.533434 2e-6,0 z"
       sodipodi:nodetypes="zcczzz" /><path
       id="path2"
       style="fill:none;stroke:#000000;stroke-width:0.2;stroke-dasharray:none;stroke-opacity:1;marker-end:url(#RoundedArrow)"
       d="M 13.298976,9.1843141 C 11.968874,9.0600921 8.409532,9.6027891 6.731418,13.108105"
       sodipodi:nodetypes="cc" /><path
       style="fill:#999999;fill-opacity:1;stroke:none;stroke-width:0.264999;stroke-dasharray:none;stroke-opacity:1"
       d="m 16.107791,24.562746 c 0.182673,0.188331 0.424678,0.308146 0.544141,0.174016 0.834361,-0.936808 2.472156,-2.586595 2.80909,-3.530008 0.789793,-0.170565 0.906404,1.145239 1.872006,0.916943 0.837445,-0.197994 1.225011,-1.719065 1.057582,-2.257036 -0.08367,-0.268825 -1.068119,-0.399659 -1.043695,-0.119166 0.05667,0.650842 0.0034,0.657703 -0.196724,1.196496 -0.487815,-0.161402 -0.802945,-1.715606 -1.64635,-1.531248 -0.412364,-0.419716 -0.17238,-1.387918 -0.219197,-2.216151 0.663043,-0.06222 2.108834,0.282107 2.686039,0.523646 0.180701,-0.215916 0.837507,-0.659672 0.595402,-0.803375 -0.832875,-0.494362 -3.344231,-1.239818 -4.045763,-0.622307 -0.608575,0.535686 -0.635656,2.364923 -0.809105,3.154091 -0.944639,0.333484 -2.602588,1.965728 -3.542437,2.79666 -0.26913,0.237946 0.477907,0.966953 0.755445,0.738871 0.799414,-0.656956 2.090994,-1.789179 2.357481,-1.752574 0.150585,0.02069 0.231396,0.06714 0.272072,0.122915 0.05561,0.04088 0.102789,0.124167 0.12291,0.274833 0.03562,0.266627 -1.099616,1.553576 -1.759489,2.350585 -0.114548,0.13835 0.0079,0.394501 0.190587,0.582812 z"
       id="path4-4-5-2-0-5-2"
       sodipodi:nodetypes="ssscssccccsscscscsss" /><path
       id="path1-9-9-4-2-8-8"
       style="fill:#4d4d4d;fill-opacity:1;stroke:#000000;stroke-width:0.265"
       d="m 20.265229,21.008153 c 0.649273,-0.64927 0.926367,-1.97904 0.277095,-2.628311 -0.64927,-0.649272 -1.979041,-0.372176 -2.62831,0.277095 -0.649269,0.649268 -0.649271,1.701945 0,2.351214 0.64927,0.649271 1.701945,0.649273 2.351215,2e-6 z"
       sodipodi:nodetypes="zzzzz" /><path
       id="path1-7-1-2-6-0-1-6-9"
       style="fill:#ffffff;stroke:#000000;stroke-width:0.265;stroke-dasharray:none"
       d="m 14.649411,23.344159 c 0.146521,-0.146522 0.360943,-0.683179 0.105662,-0.93846 -0.255283,-0.255282 -0.826988,-0.06081 -0.973511,0.08572 -0.146524,0.146524 -0.322545,0.223168 0.186143,0.701651 0.508692,0.478484 0.535179,0.297618 0.681705,0.151094 z"
       sodipodi:nodetypes="ssszs" /><path
       id="path1-7-1-9-0-2-5-0-2-3"
       style="fill:#ffffff;stroke:#000000;stroke-width:0.265;stroke-dasharray:none"
       d="m 16.419204,25.083166 c 0.146522,-0.146521 0.360945,-0.68318 0.105664,-0.938461 -0.255282,-0.255281 -0.82699,-0.06081 -0.973513,0.08572 -0.146522,0.146522 -0.322543,0.223167 0.186144,0.70165 0.508693,0.478484 0.535178,0.297617 0.681702,0.151095 z"
       sodipodi:nodetypes="ssszs" /><ellipse
       style="fill:#ffffff;fill-opacity:1;stroke:#000000;stroke-width:0.265;stroke-dasharray:none;stroke-opacity:1"
       id="path1-7-2-9-9-1-6-1-9-5-8-6"
       cx="-22.777403"
       cy="-18.456739"
       rx="0.65429264"
       ry="0.80279088"
       transform="rotate(-177.38759)" /><path
       id="path1-3-1-5-8-0-8-0-4-2"
       style="fill:url(#linearGradient3);fill-opacity:1;stroke:none;stroke-width:0.265"
       d="m 20.664451,12.884491 c 0.0071,2.533434 -0.102866,5.363497 0.12256,6.849501 -0.510902,0.809069 -2.33468,0.173745 -3.181671,-0.27148 -0.07281,-2.038123 0.05823,-5.436919 1.145045,-7.045967 0.238,-0.352364 2.291797,-2.096277 1.914068,0.467946 0,0 -0.0071,-2.533434 -2e-6,0 z"
       sodipodi:nodetypes="zcczzz" /><path
       id="path2-1"
       style="fill:none;stroke:#000000;stroke-width:0.2;stroke-dasharray:none;stroke-opacity:1;marker-end:url(#RoundedArrow-9)"
       d="m 21.701028,25.815682 c 1.330102,0.124222 4.889444,-0.418475 6.567558,-3.923791"
       sodipodi:nodetypes="cc" /><path
       style="fill:#999999;fill-opacity:1;stroke:none;stroke-width:0.264999;stroke-dasharray:none;stroke-opacity:1"
       d="m 16.191406,8.9042969 c -0.292488,-0.00827 -0.617135,0.09905 -0.605468,0.3007812 0.07244,1.2524069 0.537786,3.3296079 0.304687,4.2734379 -0.675632,-0.0097 -0.85684,0.09528 -1.308594,-0.03125 -0.320578,-0.512142 -0.750353,-1.125147 -1.101562,-0.853516 -0.354247,0.273981 0.360811,1.605869 0.742187,1.693359 1.222516,0.280464 2.603838,0.305684 3.273438,0.298829 0.66957,0.0093 2.051858,-0.01112 3.27539,-0.28711 0.381694,-0.0861 1.103244,-1.416132 0.75,-1.691406 -0.350214,-0.272913 -0.783021,0.340595 -1.105468,0.851562 -0.452214,0.124883 -0.632931,0.01812 -1.308594,0.02539 -0.229648,-0.944676 0.243297,-3.01935 0.320312,-4.2714844 0.02205,-0.3585544 -1.019715,-0.4239314 -1.054687,-0.066406 -0.05036,0.5149057 -0.184378,0.6272927 -0.117188,1.1562496 -0.217322,0.452837 -0.511517,1.061298 -0.58789,1.654297 -0.05913,0.02209 -0.114606,0.02958 -0.166016,0.0293 -0.05141,9.3e-5 -0.106965,-0.0089 -0.166016,-0.03125 -0.07421,-0.593274 -0.366365,-1.200669 -0.582031,-1.654297 0.06912,-0.5287079 -0.0648,-0.6411634 -0.113281,-1.1562497 -0.01473,-0.1564722 -0.221728,-0.2338059 -0.449219,-0.2402344 z"
       id="path4-6-3-2"
       sodipodi:nodetypes="sccscccccsss"
       transform="matrix(-0.96592583,0.25881905,0.25881905,0.96592583,39.795099,-0.4399589)"
       inkscape:original-d="m 13.479563,12.593692 c 0.351209,-0.271631 0.781718,0.342379 1.102296,0.854521 0.451754,0.126534 0.632944,0.02127 1.308576,0.03101 0.233099,-0.94383 -0.232806,-3.02115 -0.305245,-4.273557 -0.02074,-0.3586326 1.022151,-0.4192286 1.055816,-0.061578 0.04848,0.5150863 0.182149,0.6270618 0.113026,1.15577 0.215666,0.453628 0.5075,1.06247 0.581706,1.655744 0.335179,0.12662 0.556797,-0.171236 0.556797,-0.171236 l 0.01129,2.792474 c 0,0 -1.992691,0.09749 -3.681046,-0.289844 -0.381376,-0.08749 -1.097459,-1.419322 -0.743212,-1.693303 z"
       inkscape:path-effect="#path-effect5-4-0-9-0" /><path
       id="path1-7-1-1-4"
       style="fill:#ffffff;stroke:#000000;stroke-width:0.265;stroke-dasharray:none"
       d="m 26.121431,10.911616 c -0.671923,0.129976 -0.201298,1.195647 -0.145549,1.395222 0.05575,0.199572 -0.08025,1.23032 0.748409,1.002412 1.005199,-0.276486 0.0023,-2.514696 -0.602866,-2.397632 z"
       sodipodi:nodetypes="sszs" /><path
       id="path1-7-1-1-4-5"
       style="fill:#ffffff;stroke:#000000;stroke-width:0.265;stroke-dasharray:none"
       d="m 23.504376,11.612855 c 0.646889,-0.2234 0.772152,0.93481 0.823659,1.135522 0.0515,0.200709 0.684662,1.025362 -0.146935,1.242319 -1.00877,0.263156 -1.259351,-2.176634 -0.676719,-2.377843 z"
       sodipodi:nodetypes="sszs" /><ellipse
       style="fill:#ffffff;fill-opacity:1;stroke:#000000;stroke-width:0.265;stroke-dasharray:none;stroke-opacity:1"
       id="path1-7-2-9-9-1-3"
       cx="-22.615486"
       cy="25.102291"
       rx="0.65429264"
       ry="0.80279088"
       transform="rotate(-105)" /><ellipse
       style="fill:#ffffff;fill-opacity:1;stroke:#000000;stroke-width:0.265;stroke-dasharray:none;stroke-opacity:1"
       id="path1-7-2-9-9-8"
       cx="-3.8279138"
       cy="-28.076426"
       rx="0.65429264"
       ry="0.80279088"
       transform="matrix(0.5,-0.8660254,-0.8660254,-0.5,0,0)" /></g></svg>
