<?xml version="1.0" encoding="UTF-8" standalone="no"?>
<!-- Created with Inkscape (http://www.inkscape.org/) -->

<svg
   width="35mm"
   height="35mm"
   viewBox="0 0 35 35"
   version="1.1"
   id="svg1"
   xml:space="preserve"
   inkscape:version="1.4 (e7c3feb100, 2024-10-09)"
   sodipodi:docname="19_v3.svg"
   xmlns:inkscape="http://www.inkscape.org/namespaces/inkscape"
   xmlns:sodipodi="http://sodipodi.sourceforge.net/DTD/sodipodi-0.dtd"
   xmlns="http://www.w3.org/2000/svg"
   xmlns:svg="http://www.w3.org/2000/svg"><sodipodi:namedview
     id="namedview1"
     pagecolor="#ffffff"
     bordercolor="#000000"
     borderopacity="0.25"
     inkscape:showpageshadow="2"
     inkscape:pageopacity="0.0"
     inkscape:pagecheckerboard="0"
     inkscape:deskcolor="#d1d1d1"
     inkscape:document-units="mm"
     inkscape:zoom="3.03832"
     inkscape:cx="79.813845"
     inkscape:cy="61.218042"
     inkscape:window-width="1290"
     inkscape:window-height="1023"
     inkscape:window-x="0"
     inkscape:window-y="0"
     inkscape:window-maximized="0"
     inkscape:current-layer="layer1"><sodipodi:guide
       position="0.17416423,17.540036"
       orientation="0,132.28346"
       id="guide5"
       inkscape:locked="false" /><sodipodi:guide
       position="35.000001,35.000001"
       orientation="132.28346,0"
       id="guide6"
       inkscape:locked="false" /><sodipodi:guide
       position="35.000001,0"
       orientation="0,-132.28346"
       id="guide7"
       inkscape:locked="false" /><sodipodi:guide
       position="17.503506,35.914363"
       orientation="-132.28346,0"
       id="guide8"
       inkscape:locked="false" /></sodipodi:namedview><defs
     id="defs1"><inkscape:path-effect
       effect="mirror_symmetry"
       start_point="17.297909,16.234992"
       end_point="17.313303,7.810326"
       center_point="17.305606,12.022659"
       id="path-effect5"
       is_visible="true"
       lpeversion="1.2"
       lpesatellites=""
       mode="free"
       discard_orig_path="false"
       fuse_paths="true"
       oposite_fuse="false"
       split_items="false"
       split_open="false"
       link_styles="false" /><inkscape:path-effect
       effect="mirror_symmetry"
       start_point="17.297909,16.234992"
       end_point="17.313303,7.810326"
       center_point="17.305606,12.022659"
       id="path-effect5-7"
       is_visible="true"
       lpeversion="1.2"
       lpesatellites=""
       mode="free"
       discard_orig_path="false"
       fuse_paths="true"
       oposite_fuse="false"
       split_items="false"
       split_open="false"
       link_styles="false" /><inkscape:path-effect
       effect="mirror_symmetry"
       start_point="17.297909,16.234992"
       end_point="17.313303,7.810326"
       center_point="17.305606,12.022659"
       id="path-effect5-6"
       is_visible="true"
       lpeversion="1.2"
       lpesatellites=""
       mode="free"
       discard_orig_path="false"
       fuse_paths="true"
       oposite_fuse="false"
       split_items="false"
       split_open="false"
       link_styles="false" /><inkscape:path-effect
       effect="mirror_symmetry"
       start_point="17.297909,16.234992"
       end_point="17.313303,7.810326"
       center_point="17.305606,12.022659"
       id="path-effect5-3"
       is_visible="true"
       lpeversion="1.2"
       lpesatellites=""
       mode="free"
       discard_orig_path="false"
       fuse_paths="true"
       oposite_fuse="false"
       split_items="false"
       split_open="false"
       link_styles="false" /><inkscape:path-effect
       effect="mirror_symmetry"
       start_point="17.297909,16.234992"
       end_point="17.313303,7.810326"
       center_point="17.305606,12.022659"
       id="path-effect5-66"
       is_visible="true"
       lpeversion="1.2"
       lpesatellites=""
       mode="free"
       discard_orig_path="false"
       fuse_paths="true"
       oposite_fuse="false"
       split_items="false"
       split_open="false"
       link_styles="false" /><inkscape:path-effect
       effect="mirror_symmetry"
       start_point="17.297909,16.234992"
       end_point="17.313303,7.810326"
       center_point="17.305606,12.022659"
       id="path-effect5-4"
       is_visible="true"
       lpeversion="1.2"
       lpesatellites=""
       mode="free"
       discard_orig_path="false"
       fuse_paths="true"
       oposite_fuse="false"
       split_items="false"
       split_open="false"
       link_styles="false" /><inkscape:path-effect
       effect="mirror_symmetry"
       start_point="17.297909,16.234992"
       end_point="17.313303,7.810326"
       center_point="17.305606,12.022659"
       id="path-effect5-4-7"
       is_visible="true"
       lpeversion="1.2"
       lpesatellites=""
       mode="free"
       discard_orig_path="false"
       fuse_paths="true"
       oposite_fuse="false"
       split_items="false"
       split_open="false"
       link_styles="false" /><inkscape:path-effect
       effect="mirror_symmetry"
       start_point="17.297909,16.234992"
       end_point="17.313303,7.810326"
       center_point="17.305606,12.022659"
       id="path-effect5-41"
       is_visible="true"
       lpeversion="1.2"
       lpesatellites=""
       mode="free"
       discard_orig_path="false"
       fuse_paths="true"
       oposite_fuse="false"
       split_items="false"
       split_open="false"
       link_styles="false" /><inkscape:path-effect
       effect="mirror_symmetry"
       start_point="17.297909,16.234992"
       end_point="17.313303,7.810326"
       center_point="17.305606,12.022659"
       id="path-effect5-4-0"
       is_visible="true"
       lpeversion="1.2"
       lpesatellites=""
       mode="free"
       discard_orig_path="false"
       fuse_paths="true"
       oposite_fuse="false"
       split_items="false"
       split_open="false"
       link_styles="false" /><inkscape:path-effect
       effect="mirror_symmetry"
       start_point="17.493844,16.300304"
       end_point="17.509238,7.875638"
       center_point="17.501541,12.087971"
       id="path-effect5-4-0-9"
       is_visible="true"
       lpeversion="1.2"
       lpesatellites=""
       mode="free"
       discard_orig_path="false"
       fuse_paths="true"
       oposite_fuse="false"
       split_items="false"
       split_open="false"
       link_styles="false" /><inkscape:path-effect
       effect="mirror_symmetry"
       start_point="17.297909,16.234992"
       end_point="17.313303,7.810326"
       center_point="17.305606,12.022659"
       id="path-effect5-4-0-0"
       is_visible="true"
       lpeversion="1.2"
       lpesatellites=""
       mode="free"
       discard_orig_path="false"
       fuse_paths="true"
       oposite_fuse="false"
       split_items="false"
       split_open="false"
       link_styles="false" /><inkscape:path-effect
       effect="mirror_symmetry"
       start_point="17.493844,16.300304"
       end_point="17.509238,7.875638"
       center_point="17.501541,12.087971"
       id="path-effect5-4-0-9-7"
       is_visible="true"
       lpeversion="1.2"
       lpesatellites=""
       mode="free"
       discard_orig_path="false"
       fuse_paths="true"
       oposite_fuse="false"
       split_items="false"
       split_open="false"
       link_styles="false" /><inkscape:path-effect
       effect="mirror_symmetry"
       start_point="17.493844,16.300304"
       end_point="17.509238,7.875638"
       center_point="17.501541,12.087971"
       id="path-effect5-4-0-9-3"
       is_visible="true"
       lpeversion="1.2"
       lpesatellites=""
       mode="free"
       discard_orig_path="false"
       fuse_paths="true"
       oposite_fuse="false"
       split_items="false"
       split_open="false"
       link_styles="false" /><inkscape:path-effect
       effect="mirror_symmetry"
       start_point="17.297909,16.234992"
       end_point="17.313303,7.810326"
       center_point="17.305606,12.022659"
       id="path-effect5-4-6"
       is_visible="true"
       lpeversion="1.2"
       lpesatellites=""
       mode="free"
       discard_orig_path="false"
       fuse_paths="true"
       oposite_fuse="false"
       split_items="false"
       split_open="false"
       link_styles="false" /><inkscape:path-effect
       effect="mirror_symmetry"
       start_point="17.493844,16.300304"
       end_point="17.509238,7.875638"
       center_point="17.501541,12.087971"
       id="path-effect5-4-0-9-72"
       is_visible="true"
       lpeversion="1.2"
       lpesatellites=""
       mode="free"
       discard_orig_path="false"
       fuse_paths="true"
       oposite_fuse="false"
       split_items="false"
       split_open="false"
       link_styles="false" /><inkscape:path-effect
       effect="mirror_symmetry"
       start_point="17.493844,16.300304"
       end_point="17.509238,7.875638"
       center_point="17.501541,12.087971"
       id="path-effect5-4-0-9-72-8"
       is_visible="true"
       lpeversion="1.2"
       lpesatellites=""
       mode="free"
       discard_orig_path="false"
       fuse_paths="true"
       oposite_fuse="false"
       split_items="false"
       split_open="false"
       link_styles="false" /><inkscape:path-effect
       effect="mirror_symmetry"
       start_point="17.297909,16.234992"
       end_point="17.313303,7.810326"
       center_point="17.305606,12.022659"
       id="path-effect5-4-6-1"
       is_visible="true"
       lpeversion="1.2"
       lpesatellites=""
       mode="free"
       discard_orig_path="false"
       fuse_paths="true"
       oposite_fuse="false"
       split_items="false"
       split_open="false"
       link_styles="false" /><inkscape:path-effect
       effect="mirror_symmetry"
       start_point="17.297909,16.234992"
       end_point="17.313303,7.810326"
       center_point="17.305606,12.022659"
       id="path-effect5-4-6-2"
       is_visible="true"
       lpeversion="1.2"
       lpesatellites=""
       mode="free"
       discard_orig_path="false"
       fuse_paths="true"
       oposite_fuse="false"
       split_items="false"
       split_open="false"
       link_styles="false" /><inkscape:path-effect
       effect="mirror_symmetry"
       start_point="17.493844,16.300304"
       end_point="17.509238,7.875638"
       center_point="17.501541,12.087971"
       id="path-effect5-4-0-9-0"
       is_visible="true"
       lpeversion="1.2"
       lpesatellites=""
       mode="free"
       discard_orig_path="false"
       fuse_paths="true"
       oposite_fuse="false"
       split_items="false"
       split_open="false"
       link_styles="false" /></defs><g
     inkscape:label="Layer 1"
     inkscape:groupmode="layer"
     id="layer1"><path
       style="fill:#999999;fill-opacity:1;stroke:none;stroke-width:0.264999;stroke-dasharray:none;stroke-opacity:1"
       d="m 16.0625,7.5585937 c -0.262338,-0.00397 -0.518182,0.082402 -0.507812,0.2617188 0.07244,1.2524069 0.08092,3.5770765 0.509765,4.4824215 -0.437864,0.679074 -1.391782,0.06763 -2.0625,0.798829 -0.544522,0.593621 -0.451022,2.216541 -0.382812,3.285156 0.368438,0.08206 0.421271,0.02819 0.867187,-0.05078 0.100661,-0.90603 0.238281,-2.304687 0.238281,-2.304687 0.767798,-0.194469 1.915366,-0.416044 2.578125,-0.539062 0.662306,0.125439 1.80909,0.351554 2.576172,0.548828 0,0 0.13312,1.398295 0.230469,2.304687 0.445624,0.0806 0.498452,0.135402 0.867187,0.05469 0.07212,-1.068359 0.171256,-2.691503 -0.371093,-3.28711 -0.668042,-0.733643 -1.625168,-0.124018 -2.060547,-0.804687 0.432152,-0.903772 0.450328,-3.2302883 0.527344,-4.4824221 0.02205,-0.3585544 -1.02167,-0.3458071 -1.056641,0.011719 -0.100734,1.0298107 -0.213416,2.7436984 -0.427734,2.9062504 -0.121107,0.09185 -0.211094,0.116149 -0.279297,0.105468 -0.06824,0.01043 -0.16048,-0.01512 -0.28125,-0.107421 C 16.813621,10.578854 16.706345,8.8661094 16.609375,7.8359375 16.592543,7.6571119 16.324839,7.5625647 16.0625,7.5585937 Z"
       id="path4-6-6"
       sodipodi:nodetypes="cscsssccccc"
       transform="rotate(-90,16.465125,18.329253)"
       inkscape:original-d="m 13.619049,16.386063 c -0.06821,-1.068615 -0.160951,-2.690415 0.383571,-3.284036 0.670718,-0.731197 1.624115,-0.11934 2.061979,-0.798414 -0.428846,-0.905345 -0.437758,-3.2310091 -0.510197,-4.483416 -0.02074,-0.3586326 1.022152,-0.3422582 1.055816,0.015393 0.09697,1.0301719 0.203913,2.743905 0.417636,2.907239 0.427544,0.326742 0.480507,-0.179347 0.480507,-0.179347 l 0.318037,2.834014 c 0,0 -1.966379,0.346596 -3.101806,0.634178 0,0 -0.137075,1.397987 -0.237736,2.304017 -0.445916,0.07897 -0.499369,0.132431 -0.867807,0.05037 z"
       inkscape:path-effect="#path-effect5-4-6-2" /><path
       style="fill:#999999;fill-opacity:1;stroke:none;stroke-width:0.264999;stroke-dasharray:none;stroke-opacity:1"
       d="m 18.737718,29.33237 c 0.262339,0.004 0.518182,-0.0824 0.507812,-0.261719 -0.07244,-1.252406 -0.08092,-3.577076 -0.509765,-4.482421 0.437864,-0.679074 1.514935,0.271038 2.185653,-0.460159 0.544522,-0.593621 1.012412,-1.163524 1.460398,-1.992052 0.305859,-0.565671 -0.356554,-1.062411 -0.65167,-0.718924 -0.593272,0.690513 -0.715498,1.026979 -1.377444,1.719713 -0.767798,0.194468 -2.192459,0.13895 -2.855218,0.261969 -0.662306,-0.12544 -1.80909,-0.351555 -2.576172,-0.548829 0,0 -0.13312,-1.398295 -0.230469,-2.304687 -0.445624,-0.0806 -0.498452,-0.135402 -0.867187,-0.05469 -0.07212,1.068359 -0.171256,2.691503 0.371093,3.28711 0.668042,0.733643 1.625168,0.124018 2.060547,0.804687 -0.432152,0.903772 -0.450328,3.230288 -0.527344,4.482422 -0.02205,0.358554 1.02167,0.345807 1.056641,-0.01172 0.100734,-1.029811 0.213416,-2.743698 0.427734,-2.90625 0.121107,-0.09185 0.211094,-0.116149 0.279297,-0.105468 0.06824,-0.01043 0.16048,0.01512 0.28125,0.107422 0.213723,0.163335 0.320999,1.87608 0.417969,2.906251 0.01683,0.178826 0.284536,0.273373 0.546875,0.277344 z"
       id="path4-6-1"
       sodipodi:nodetypes="cscssscccccscssscssc" /><path
       style="fill:#999999;fill-opacity:1;stroke:none;stroke-width:0.264999;stroke-dasharray:none;stroke-opacity:1"
       d="m 18.737718,5.66763 c 0.262339,-0.004 0.518182,0.0824 0.507812,0.261719 -0.07244,1.252406 -0.08092,3.577076 -0.509765,4.482421 0.437864,0.679074 1.514935,-0.271038 2.185653,0.460159 0.544522,0.593621 1.012412,1.163524 1.460398,1.992052 0.305859,0.565671 -0.356554,1.062411 -0.65167,0.718924 -0.593272,-0.690513 -0.715498,-1.026979 -1.377444,-1.719713 -0.767798,-0.194468 -2.192459,-0.13895 -2.855218,-0.261969 -0.662306,0.12544 -1.80909,0.351555 -2.576172,0.548829 0,0 -0.13312,1.398295 -0.230469,2.304687 -0.445624,0.0806 -0.498452,0.135402 -0.867187,0.05469 -0.07212,-1.068359 -0.171256,-2.691503 0.371093,-3.28711 0.668042,-0.733643 1.625168,-0.124018 2.060547,-0.804687 C 15.823144,9.51386 15.804968,7.187344 15.727952,5.93521 c -0.02205,-0.358554 1.02167,-0.345807 1.056641,0.01172 0.100734,1.029811 0.213416,2.743698 0.427734,2.90625 0.121107,0.09185 0.211094,0.116149 0.279297,0.105468 0.06824,0.01043 0.16048,-0.01512 0.28125,-0.107422 0.213723,-0.163335 0.320999,-1.87608 0.417969,-2.906251 0.01683,-0.178826 0.284536,-0.273373 0.546875,-0.277344 z"
       id="path4-6-1-2"
       sodipodi:nodetypes="cscssscccccscssscssc" /><path
       id="path1-3-89"
       style="fill:#6666ff;fill-opacity:1;stroke:#000000;stroke-width:0.265"
       d="m 11.147703,15.831594 c 0.918208,0 2.054432,0.744354 2.054432,1.662562 0,0.918208 -1.136225,1.662561 -2.054432,1.662561 -0.918207,0 -1.662563,-0.744355 -1.662563,-1.662561 0,-0.918207 0.744355,-1.662562 1.662563,-1.662562 z"
       sodipodi:nodetypes="zzzzz" /><path
       id="path1-7-1-1-2"
       style="fill:#ffffff;stroke:#000000;stroke-width:0.265;stroke-dasharray:none"
       d="m 5.546681,18.12835 c 0.207214,0 0.738307,0.227855 0.738307,0.588877 0,0.361023 -0.541773,0.627766 -0.748987,0.627766 -0.207214,0 -0.385876,0.07027 -0.364516,-0.627766 0.02136,-0.69804 0.167981,-0.588877 0.375196,-0.588877 z"
       sodipodi:nodetypes="ssszs" /><path
       id="path1-7-1-9-7-6"
       style="fill:#ffffff;stroke:#000000;stroke-width:0.265;stroke-dasharray:none"
       d="m 5.568451,15.647253 c 0.207214,0 0.738307,0.227855 0.738307,0.588877 0,0.361023 -0.541773,0.627766 -0.748987,0.627766 -0.207213,0 -0.385875,0.07027 -0.364515,-0.627766 0.02136,-0.69804 0.167981,-0.588877 0.375195,-0.588877 z"
       sodipodi:nodetypes="ssszs" /><ellipse
       style="fill:#ffffff;fill-opacity:1;stroke:#000000;stroke-width:0.265;stroke-dasharray:none;stroke-opacity:1"
       id="path1-7-2-9-9-1"
       cx="-20.050455"
       cy="0.054780953"
       rx="0.65429264"
       ry="0.80279088"
       transform="rotate(-135)" /><ellipse
       style="fill:#ffffff;fill-opacity:1;stroke:#000000;stroke-width:0.265;stroke-dasharray:none;stroke-opacity:1"
       id="path1-7-2-9-9-1-9"
       cx="4.6846313"
       cy="-24.789871"
       rx="0.65429264"
       ry="0.80279088"
       transform="rotate(135)" /><path
       id="path1-3-1"
       style="fill:#66ff66;fill-opacity:1;stroke:#000000;stroke-width:0.265"
       d="m 15.837436,23.879142 c 0,-0.918208 0.744354,-2.054432 1.662562,-2.054432 0.918208,0 1.662561,1.136225 1.662561,2.054432 0,0.918207 -0.744355,1.662562 -1.662561,1.662562 -0.918207,0 -1.662562,-0.744354 -1.662562,-1.662562 z"
       sodipodi:nodetypes="zzzzz" /><path
       id="path1-7-1-1-0"
       style="fill:#ffffff;stroke:#000000;stroke-width:0.265;stroke-dasharray:none"
       d="m 18.134192,29.480164 c 0,-0.207214 0.227855,-0.738307 0.588877,-0.738307 0.361023,0 0.627766,0.541773 0.627766,0.748987 0,0.207214 0.07027,0.385876 -0.627766,0.364516 -0.69804,-0.02136 -0.588877,-0.167981 -0.588877,-0.375196 z"
       sodipodi:nodetypes="ssszs" /><path
       id="path1-7-1-9-7-3"
       style="fill:#ffffff;stroke:#000000;stroke-width:0.265;stroke-dasharray:none"
       d="m 15.653095,29.458394 c 0,-0.207214 0.227855,-0.738307 0.588877,-0.738307 0.361023,0 0.627766,0.541773 0.627766,0.748987 0,0.207213 0.07027,0.385875 -0.627766,0.364515 -0.69804,-0.02136 -0.588877,-0.167981 -0.588877,-0.375195 z"
       sodipodi:nodetypes="ssszs" /><path
       id="path1-3-0"
       style="fill:#ff6666;fill-opacity:1;stroke:#000000;stroke-width:0.265"
       d="m 21.481904,15.83744 c 0.918208,0 2.054431,0.744354 2.054431,1.662562 0,0.918208 -1.136225,1.662561 -2.054431,1.662561 -0.918207,0 -1.662561,-0.744355 -1.662561,-1.662561 0,-0.918207 0.744353,-1.662562 1.662561,-1.662562 z"
       sodipodi:nodetypes="zzzzz" /><path
       style="fill:#999999;fill-opacity:1;stroke:none;stroke-width:0.264999;stroke-dasharray:none;stroke-opacity:1"
       d="m 16.191406,8.9042969 c -0.292488,-0.00827 -0.617135,0.09905 -0.605468,0.3007812 0.07244,1.2524069 0.537786,3.3296079 0.304687,4.2734379 -0.675632,-0.0097 -0.85684,0.09528 -1.308594,-0.03125 -0.320578,-0.512142 -0.750353,-1.125147 -1.101562,-0.853516 -0.354247,0.273981 0.360811,1.605869 0.742187,1.693359 1.222516,0.280464 2.603838,0.305684 3.273438,0.298829 0.66957,0.0093 2.051858,-0.01112 3.27539,-0.28711 0.381694,-0.0861 1.103244,-1.416132 0.75,-1.691406 -0.350214,-0.272913 -0.783021,0.340595 -1.105468,0.851562 -0.452214,0.124883 -0.632931,0.01812 -1.308594,0.02539 -0.229648,-0.944676 0.243297,-3.01935 0.320312,-4.2714844 0.02205,-0.3585544 -1.019715,-0.4239314 -1.054687,-0.066406 -0.05036,0.5149057 -0.184378,0.6272927 -0.117188,1.1562496 -0.217322,0.452837 -0.511517,1.061298 -0.58789,1.654297 -0.05913,0.02209 -0.114606,0.02958 -0.166016,0.0293 -0.05141,9.3e-5 -0.106965,-0.0089 -0.166016,-0.03125 -0.07421,-0.593274 -0.366365,-1.200669 -0.582031,-1.654297 0.06912,-0.5287079 -0.0648,-0.6411634 -0.113281,-1.1562497 -0.01473,-0.1564722 -0.221728,-0.2338059 -0.449219,-0.2402344 z"
       id="path4-6-3-2"
       sodipodi:nodetypes="sccscccccsss"
       transform="matrix(0,-1,-1,0,35.013689,35.000441)"
       inkscape:original-d="m 13.479563,12.593692 c 0.351209,-0.271631 0.781718,0.342379 1.102296,0.854521 0.451754,0.126534 0.632944,0.02127 1.308576,0.03101 0.233099,-0.94383 -0.232806,-3.02115 -0.305245,-4.273557 -0.02074,-0.3586326 1.022151,-0.4192286 1.055816,-0.061578 0.04848,0.5150863 0.182149,0.6270618 0.113026,1.15577 0.215666,0.453628 0.5075,1.06247 0.581706,1.655744 0.335179,0.12662 0.556797,-0.171236 0.556797,-0.171236 l 0.01129,2.792474 c 0,0 -1.992691,0.09749 -3.681046,-0.289844 -0.381376,-0.08749 -1.097459,-1.419322 -0.743212,-1.693303 z"
       inkscape:path-effect="#path-effect5-4-0-9-0" /><path
       id="path1-7-1-1-4"
       style="fill:#ffffff;stroke:#000000;stroke-width:0.265;stroke-dasharray:none"
       d="m 27.587915,18.854689 c 0.04836,-0.682667 -1.102806,-0.503895 -1.310009,-0.501699 -0.207201,0.0022 -1.167628,-0.395949 -1.161959,0.463464 0.0069,1.042508 2.428411,0.653086 2.471968,0.03823 z"
       sodipodi:nodetypes="sszs" /><path
       id="path1-7-1-1-4-5"
       style="fill:#ffffff;stroke:#000000;stroke-width:0.265;stroke-dasharray:none"
       d="m 27.587915,16.145315 c 0.04836,0.682667 -1.102806,0.503895 -1.310009,0.501699 -0.207201,-0.0022 -1.167628,0.395949 -1.161959,-0.463464 0.0069,-1.042508 2.428411,-0.653086 2.471968,-0.03823 z"
       sodipodi:nodetypes="sszs" /><ellipse
       style="fill:#ffffff;fill-opacity:1;stroke:#000000;stroke-width:0.265;stroke-dasharray:none;stroke-opacity:1"
       id="path1-7-2-9-9-1-3-9"
       cx="23.289982"
       cy="-11.940432"
       rx="0.65429264"
       ry="0.80279088"
       transform="matrix(0.99722176,0.07449004,0.07449004,-0.99722176,0,0)" /><ellipse
       style="fill:#ffffff;fill-opacity:1;stroke:#000000;stroke-width:0.265;stroke-dasharray:none;stroke-opacity:1"
       id="path1-7-2-9-9-1-3"
       cx="22.272964"
       cy="21.549747"
       rx="0.65429264"
       ry="0.80279088" /><path
       id="path1-3"
       style="fill:#4d4d4d;fill-opacity:1;stroke:#000000;stroke-width:0.265"
       d="m 19.174246,11.120859 c 0,0.918208 -0.744354,2.054432 -1.662562,2.054432 -0.918208,0 -1.662561,-1.136225 -1.662561,-2.054432 0,-0.918207 0.744355,-1.662562 1.662561,-1.662562 0.918207,0 1.662562,0.744354 1.662562,1.662562 z"
       sodipodi:nodetypes="zzzzz" /><path
       id="path1-7-1-9-7"
       style="fill:#ffffff;stroke:#000000;stroke-width:0.265;stroke-dasharray:none"
       d="m 19.358587,5.541607 c 0,0.207214 -0.227855,0.738307 -0.588877,0.738307 -0.361023,0 -0.627766,-0.541773 -0.627766,-0.748987 0,-0.207213 -0.07027,-0.385875 0.627766,-0.364515 0.69804,0.02136 0.588877,0.167981 0.588877,0.375195 z"
       sodipodi:nodetypes="ssszs" /><path
       id="path1-7-1-1"
       style="fill:#ffffff;stroke:#000000;stroke-width:0.265;stroke-dasharray:none"
       d="m 16.87749,5.519837 c 0,0.207214 -0.227855,0.738307 -0.588877,0.738307 -0.361023,0 -0.627766,-0.541773 -0.627766,-0.748987 0,-0.207214 -0.07027,-0.385876 0.627766,-0.364516 0.69804,0.02136 0.588877,0.167981 0.588877,0.375196 z"
       sodipodi:nodetypes="ssszs" /></g></svg>
