<?xml version="1.0" encoding="UTF-8" standalone="no"?>
<!-- Created with Inkscape (http://www.inkscape.org/) -->

<svg
   width="35mm"
   height="35mm"
   viewBox="0 0 35 35"
   version="1.1"
   id="svg1"
   xml:space="preserve"
   inkscape:version="1.4 (e7c3feb100, 2024-10-09)"
   sodipodi:docname="19_v3_inter.svg"
   xmlns:inkscape="http://www.inkscape.org/namespaces/inkscape"
   xmlns:sodipodi="http://sodipodi.sourceforge.net/DTD/sodipodi-0.dtd"
   xmlns:xlink="http://www.w3.org/1999/xlink"
   xmlns="http://www.w3.org/2000/svg"
   xmlns:svg="http://www.w3.org/2000/svg"><sodipodi:namedview
     id="namedview1"
     pagecolor="#ffffff"
     bordercolor="#000000"
     borderopacity="0.25"
     inkscape:showpageshadow="2"
     inkscape:pageopacity="0.0"
     inkscape:pagecheckerboard="0"
     inkscape:deskcolor="#d1d1d1"
     inkscape:document-units="mm"
     inkscape:zoom="2.1484167"
     inkscape:cx="69.586129"
     inkscape:cy="34.6767"
     inkscape:window-width="1920"
     inkscape:window-height="1080"
     inkscape:window-x="0"
     inkscape:window-y="0"
     inkscape:window-maximized="0"
     inkscape:current-layer="layer1"><sodipodi:guide
       position="0.17416423,17.540036"
       orientation="0,132.28346"
       id="guide5"
       inkscape:locked="false" /><sodipodi:guide
       position="35.000001,35.000001"
       orientation="132.28346,0"
       id="guide6"
       inkscape:locked="false" /><sodipodi:guide
       position="35.000001,0"
       orientation="0,-132.28346"
       id="guide7"
       inkscape:locked="false" /><sodipodi:guide
       position="17.503506,35.914363"
       orientation="-132.28346,0"
       id="guide8"
       inkscape:locked="false" /></sodipodi:namedview><defs
     id="defs1"><linearGradient
       id="linearGradient8"
       inkscape:collect="always"><stop
         style="stop-color:#4d4d4d;stop-opacity:0.74901962;"
         offset="0"
         id="stop7" /><stop
         style="stop-color:#4d4d4d;stop-opacity:0;"
         offset="1"
         id="stop8" /></linearGradient><linearGradient
       id="linearGradient5"
       inkscape:collect="always"><stop
         style="stop-color:#ff6666;stop-opacity:0.74901962;"
         offset="0"
         id="stop4" /><stop
         style="stop-color:#ff6666;stop-opacity:0;"
         offset="1"
         id="stop5" /></linearGradient><inkscape:path-effect
       effect="mirror_symmetry"
       start_point="17.297909,16.234992"
       end_point="17.313303,7.810326"
       center_point="17.305606,12.022659"
       id="path-effect5"
       is_visible="true"
       lpeversion="1.2"
       lpesatellites=""
       mode="free"
       discard_orig_path="false"
       fuse_paths="true"
       oposite_fuse="false"
       split_items="false"
       split_open="false"
       link_styles="false" /><inkscape:path-effect
       effect="mirror_symmetry"
       start_point="17.297909,16.234992"
       end_point="17.313303,7.810326"
       center_point="17.305606,12.022659"
       id="path-effect5-7"
       is_visible="true"
       lpeversion="1.2"
       lpesatellites=""
       mode="free"
       discard_orig_path="false"
       fuse_paths="true"
       oposite_fuse="false"
       split_items="false"
       split_open="false"
       link_styles="false" /><inkscape:path-effect
       effect="mirror_symmetry"
       start_point="17.297909,16.234992"
       end_point="17.313303,7.810326"
       center_point="17.305606,12.022659"
       id="path-effect5-6"
       is_visible="true"
       lpeversion="1.2"
       lpesatellites=""
       mode="free"
       discard_orig_path="false"
       fuse_paths="true"
       oposite_fuse="false"
       split_items="false"
       split_open="false"
       link_styles="false" /><inkscape:path-effect
       effect="mirror_symmetry"
       start_point="17.297909,16.234992"
       end_point="17.313303,7.810326"
       center_point="17.305606,12.022659"
       id="path-effect5-3"
       is_visible="true"
       lpeversion="1.2"
       lpesatellites=""
       mode="free"
       discard_orig_path="false"
       fuse_paths="true"
       oposite_fuse="false"
       split_items="false"
       split_open="false"
       link_styles="false" /><inkscape:path-effect
       effect="mirror_symmetry"
       start_point="17.297909,16.234992"
       end_point="17.313303,7.810326"
       center_point="17.305606,12.022659"
       id="path-effect5-66"
       is_visible="true"
       lpeversion="1.2"
       lpesatellites=""
       mode="free"
       discard_orig_path="false"
       fuse_paths="true"
       oposite_fuse="false"
       split_items="false"
       split_open="false"
       link_styles="false" /><inkscape:path-effect
       effect="mirror_symmetry"
       start_point="17.297909,16.234992"
       end_point="17.313303,7.810326"
       center_point="17.305606,12.022659"
       id="path-effect5-4"
       is_visible="true"
       lpeversion="1.2"
       lpesatellites=""
       mode="free"
       discard_orig_path="false"
       fuse_paths="true"
       oposite_fuse="false"
       split_items="false"
       split_open="false"
       link_styles="false" /><inkscape:path-effect
       effect="mirror_symmetry"
       start_point="17.297909,16.234992"
       end_point="17.313303,7.810326"
       center_point="17.305606,12.022659"
       id="path-effect5-4-7"
       is_visible="true"
       lpeversion="1.2"
       lpesatellites=""
       mode="free"
       discard_orig_path="false"
       fuse_paths="true"
       oposite_fuse="false"
       split_items="false"
       split_open="false"
       link_styles="false" /><inkscape:path-effect
       effect="mirror_symmetry"
       start_point="17.297909,16.234992"
       end_point="17.313303,7.810326"
       center_point="17.305606,12.022659"
       id="path-effect5-41"
       is_visible="true"
       lpeversion="1.2"
       lpesatellites=""
       mode="free"
       discard_orig_path="false"
       fuse_paths="true"
       oposite_fuse="false"
       split_items="false"
       split_open="false"
       link_styles="false" /><inkscape:path-effect
       effect="mirror_symmetry"
       start_point="17.297909,16.234992"
       end_point="17.313303,7.810326"
       center_point="17.305606,12.022659"
       id="path-effect5-4-0"
       is_visible="true"
       lpeversion="1.2"
       lpesatellites=""
       mode="free"
       discard_orig_path="false"
       fuse_paths="true"
       oposite_fuse="false"
       split_items="false"
       split_open="false"
       link_styles="false" /><inkscape:path-effect
       effect="mirror_symmetry"
       start_point="17.493844,16.300304"
       end_point="17.509238,7.875638"
       center_point="17.501541,12.087971"
       id="path-effect5-4-0-9"
       is_visible="true"
       lpeversion="1.2"
       lpesatellites=""
       mode="free"
       discard_orig_path="false"
       fuse_paths="true"
       oposite_fuse="false"
       split_items="false"
       split_open="false"
       link_styles="false" /><inkscape:path-effect
       effect="mirror_symmetry"
       start_point="17.297909,16.234992"
       end_point="17.313303,7.810326"
       center_point="17.305606,12.022659"
       id="path-effect5-4-0-0"
       is_visible="true"
       lpeversion="1.2"
       lpesatellites=""
       mode="free"
       discard_orig_path="false"
       fuse_paths="true"
       oposite_fuse="false"
       split_items="false"
       split_open="false"
       link_styles="false" /><inkscape:path-effect
       effect="mirror_symmetry"
       start_point="17.493844,16.300304"
       end_point="17.509238,7.875638"
       center_point="17.501541,12.087971"
       id="path-effect5-4-0-9-7"
       is_visible="true"
       lpeversion="1.2"
       lpesatellites=""
       mode="free"
       discard_orig_path="false"
       fuse_paths="true"
       oposite_fuse="false"
       split_items="false"
       split_open="false"
       link_styles="false" /><inkscape:path-effect
       effect="mirror_symmetry"
       start_point="17.493844,16.300304"
       end_point="17.509238,7.875638"
       center_point="17.501541,12.087971"
       id="path-effect5-4-0-9-3"
       is_visible="true"
       lpeversion="1.2"
       lpesatellites=""
       mode="free"
       discard_orig_path="false"
       fuse_paths="true"
       oposite_fuse="false"
       split_items="false"
       split_open="false"
       link_styles="false" /><inkscape:path-effect
       effect="mirror_symmetry"
       start_point="17.297909,16.234992"
       end_point="17.313303,7.810326"
       center_point="17.305606,12.022659"
       id="path-effect5-4-6"
       is_visible="true"
       lpeversion="1.2"
       lpesatellites=""
       mode="free"
       discard_orig_path="false"
       fuse_paths="true"
       oposite_fuse="false"
       split_items="false"
       split_open="false"
       link_styles="false" /><inkscape:path-effect
       effect="mirror_symmetry"
       start_point="17.493844,16.300304"
       end_point="17.509238,7.875638"
       center_point="17.501541,12.087971"
       id="path-effect5-4-0-9-72"
       is_visible="true"
       lpeversion="1.2"
       lpesatellites=""
       mode="free"
       discard_orig_path="false"
       fuse_paths="true"
       oposite_fuse="false"
       split_items="false"
       split_open="false"
       link_styles="false" /><inkscape:path-effect
       effect="mirror_symmetry"
       start_point="17.493844,16.300304"
       end_point="17.509238,7.875638"
       center_point="17.501541,12.087971"
       id="path-effect5-4-0-9-72-8"
       is_visible="true"
       lpeversion="1.2"
       lpesatellites=""
       mode="free"
       discard_orig_path="false"
       fuse_paths="true"
       oposite_fuse="false"
       split_items="false"
       split_open="false"
       link_styles="false" /><inkscape:path-effect
       effect="mirror_symmetry"
       start_point="17.297909,16.234992"
       end_point="17.313303,7.810326"
       center_point="17.305606,12.022659"
       id="path-effect5-4-6-1"
       is_visible="true"
       lpeversion="1.2"
       lpesatellites=""
       mode="free"
       discard_orig_path="false"
       fuse_paths="true"
       oposite_fuse="false"
       split_items="false"
       split_open="false"
       link_styles="false" /><inkscape:path-effect
       effect="mirror_symmetry"
       start_point="17.297909,16.234992"
       end_point="17.313303,7.810326"
       center_point="17.305606,12.022659"
       id="path-effect5-4-6-2"
       is_visible="true"
       lpeversion="1.2"
       lpesatellites=""
       mode="free"
       discard_orig_path="false"
       fuse_paths="true"
       oposite_fuse="false"
       split_items="false"
       split_open="false"
       link_styles="false" /><inkscape:path-effect
       effect="mirror_symmetry"
       start_point="17.493844,16.300304"
       end_point="17.509238,7.875638"
       center_point="17.501541,12.087971"
       id="path-effect5-4-0-9-0"
       is_visible="true"
       lpeversion="1.2"
       lpesatellites=""
       mode="free"
       discard_orig_path="false"
       fuse_paths="true"
       oposite_fuse="false"
       split_items="false"
       split_open="false"
       link_styles="false" /><linearGradient
       inkscape:collect="always"
       xlink:href="#linearGradient10"
       id="linearGradient1"
       gradientUnits="userSpaceOnUse"
       gradientTransform="matrix(0.25881904,0.96592582,-1.0457105,0.28019729,29.655471,9.238731)"
       x1="10.647268"
       y1="16.557198"
       x2="14.696174"
       y2="14.776537" /><linearGradient
       id="linearGradient10"
       inkscape:collect="always"><stop
         style="stop-color:#66ff66;stop-opacity:0.74901962;"
         offset="0"
         id="stop9" /><stop
         style="stop-color:#66ff66;stop-opacity:0;"
         offset="1"
         id="stop10" /></linearGradient><linearGradient
       inkscape:collect="always"
       xlink:href="#linearGradient8"
       id="linearGradient2"
       gradientUnits="userSpaceOnUse"
       gradientTransform="matrix(0.5,-0.8660254,0.93755839,0.54129958,-2.990399,12.514613)"
       x1="10.647268"
       y1="16.557198"
       x2="14.696174"
       y2="14.776537" /><linearGradient
       inkscape:collect="always"
       xlink:href="#linearGradient6"
       id="linearGradient3"
       gradientUnits="userSpaceOnUse"
       gradientTransform="matrix(-1.2076352,-0.25881904,0.35031274,-1.0457105,29.13952,40.765929)"
       x1="10.647268"
       y1="16.557198"
       x2="17.939503"
       y2="14.395561" /><linearGradient
       id="linearGradient6"
       inkscape:collect="always"><stop
         style="stop-color:#6666ff;stop-opacity:0.74901962;"
         offset="0"
         id="stop3" /><stop
         style="stop-color:#6666ff;stop-opacity:0;"
         offset="1"
         id="stop6" /></linearGradient><linearGradient
       inkscape:collect="always"
       xlink:href="#linearGradient5"
       id="linearGradient4"
       gradientUnits="userSpaceOnUse"
       gradientTransform="matrix(1.0994987,0.56255898,-0.60902592,0.91941117,8.599148,-6.89813)"
       x1="10.647268"
       y1="16.557198"
       x2="17.939503"
       y2="14.395561" /><marker
       style="overflow:visible"
       id="RoundedArrow"
       refX="0"
       refY="0"
       orient="auto-start-reverse"
       inkscape:stockid="Rounded arrow"
       markerWidth="1"
       markerHeight="1"
       viewBox="0 0 1 1"
       inkscape:isstock="true"
       inkscape:collect="always"
       preserveAspectRatio="xMidYMid"><path
         transform="scale(0.7)"
         d="m -0.21114562,-4.1055728 6.42229122,3.21114561 a 1,1 90 0 1 0,1.78885438 L -0.21114562,4.1055728 A 1.236068,1.236068 31.717474 0 1 -2,3 v -6 a 1.236068,1.236068 148.28253 0 1 1.78885438,-1.1055728 z"
         style="fill:context-stroke;fill-rule:evenodd;stroke:none"
         id="path8" /></marker><marker
       style="overflow:visible"
       id="RoundedArrow-7"
       refX="0"
       refY="0"
       orient="auto-start-reverse"
       inkscape:stockid="Rounded arrow"
       markerWidth="1"
       markerHeight="1"
       viewBox="0 0 1 1"
       inkscape:isstock="true"
       inkscape:collect="always"
       preserveAspectRatio="xMidYMid"><path
         transform="scale(0.7)"
         d="m -0.21114562,-4.1055728 6.42229122,3.21114561 a 1,1 90 0 1 0,1.78885438 L -0.21114562,4.1055728 A 1.236068,1.236068 31.717474 0 1 -2,3 v -6 a 1.236068,1.236068 148.28253 0 1 1.78885438,-1.1055728 z"
         style="fill:context-stroke;fill-rule:evenodd;stroke:none"
         id="path8-0" /></marker></defs><g
     inkscape:label="Layer 1"
     inkscape:groupmode="layer"
     id="layer1"><path
       id="path1-3-0"
       style="fill:#ff6666;fill-opacity:1;stroke:#000000;stroke-width:0.265"
       d="m 12.327303,13.458207 c 0.649271,0.649271 0.926364,1.97904 0.277093,2.628311 -0.649271,0.649271 -1.97904,0.372176 -2.62831,-0.277094 -0.649271,-0.64927 -0.64927,-1.701947 0,-2.351216 0.64927,-0.649271 1.701946,-0.649272 2.351217,-1e-6 z"
       sodipodi:nodetypes="zzzzz" /><path
       id="path1-3-1-5-8-0-8-0-4-2-3"
       style="fill:url(#linearGradient4);fill-opacity:1;stroke:none;stroke-width:0.265"
       d="M 19.408527,15.389208 C 16.3509,14.562569 12.988418,13.56696 11.163568,13.115076 c -1.109292,0.231691 -0.862979,2.044939 -0.544527,3.007137 2.442464,0.729835 6.634764,1.796384 8.859197,1.267262 0.487126,-0.115871 3.124698,-1.535382 -0.06971,-2.000268 0,0 3.057627,0.826639 -1e-6,10e-7 z"
       sodipodi:nodetypes="zcczzz" /><path
       style="fill:#999999;fill-opacity:1;stroke:none;stroke-width:0.264999;stroke-dasharray:none;stroke-opacity:1"
       d="m 16.191406,8.9042969 c -0.292488,-0.00827 -0.617135,0.09905 -0.605468,0.3007812 0.07244,1.2524069 0.537786,3.3296079 0.304687,4.2734379 -0.675632,-0.0097 -0.85684,0.09528 -1.308594,-0.03125 -0.320578,-0.512142 -0.750353,-1.125147 -1.101562,-0.853516 -0.354247,0.273981 0.360811,1.605869 0.742187,1.693359 1.222516,0.280464 2.603838,0.305684 3.273438,0.298829 0.66957,0.0093 2.051858,-0.01112 3.27539,-0.28711 0.381694,-0.0861 1.103244,-1.416132 0.75,-1.691406 -0.350214,-0.272913 -0.783021,0.340595 -1.105468,0.851562 -0.452214,0.124883 -0.632931,0.01812 -1.308594,0.02539 -0.229648,-0.944676 0.243297,-3.01935 0.320312,-4.2714844 0.02205,-0.3585544 -1.019715,-0.4239314 -1.054687,-0.066406 -0.05036,0.5149057 -0.184378,0.6272927 -0.117188,1.1562496 -0.217322,0.452837 -0.511517,1.061298 -0.58789,1.654297 -0.05913,0.02209 -0.114606,0.02958 -0.166016,0.0293 -0.05141,9.3e-5 -0.106965,-0.0089 -0.166016,-0.03125 -0.07421,-0.593274 -0.366365,-1.200669 -0.582031,-1.654297 0.06912,-0.5287079 -0.0648,-0.6411634 -0.113281,-1.1562497 -0.01473,-0.1564722 -0.221728,-0.2338059 -0.449219,-0.2402344 z"
       id="path4-6-3-2"
       sodipodi:nodetypes="sccscccccsss"
       transform="matrix(0.70710678,-0.70710678,-0.70710678,-0.70710678,8.3454327,36.576911)"
       inkscape:original-d="m 13.479563,12.593692 c 0.351209,-0.271631 0.781718,0.342379 1.102296,0.854521 0.451754,0.126534 0.632944,0.02127 1.308576,0.03101 0.233099,-0.94383 -0.232806,-3.02115 -0.305245,-4.273557 -0.02074,-0.3586326 1.022151,-0.4192286 1.055816,-0.061578 0.04848,0.5150863 0.182149,0.6270618 0.113026,1.15577 0.215666,0.453628 0.5075,1.06247 0.581706,1.655744 0.335179,0.12662 0.556797,-0.171236 0.556797,-0.171236 l 0.01129,2.792474 c 0,0 -1.992691,0.09749 -3.681046,-0.289844 -0.381376,-0.08749 -1.097459,-1.419322 -0.743212,-1.693303 z"
       inkscape:path-effect="#path-effect5-4-0-9-0" /><path
       id="path1-7-1-1-4"
       style="fill:#ffffff;stroke:#000000;stroke-width:0.265;stroke-dasharray:none"
       d="m 14.511387,19.909326 c 0.516915,-0.448523 -0.423494,-1.136109 -0.571561,-1.281071 -0.148069,-0.144958 -0.545659,-1.105616 -1.149348,-0.493911 -0.732285,0.742044 1.255345,2.178948 1.720913,1.774978 z"
       sodipodi:nodetypes="sszs" /><path
       id="path1-7-1-1-4-5"
       style="fill:#ffffff;stroke:#000000;stroke-width:0.265;stroke-dasharray:none"
       d="m 16.427204,17.993509 c -0.448523,0.516914 -1.136109,-0.423494 -1.281071,-0.571561 -0.144957,-0.148069 -1.105616,-0.54566 -0.49391,-1.149348 0.742043,-0.732285 2.178947,1.255345 1.774978,1.720913 z"
       sodipodi:nodetypes="sszs" /><ellipse
       style="fill:#ffffff;fill-opacity:1;stroke:#000000;stroke-width:0.265;stroke-dasharray:none;stroke-opacity:1"
       id="path1-7-2-9-9-1-3"
       cx="19.024168"
       cy="6.5119762"
       rx="0.65429264"
       ry="0.80279088"
       transform="rotate(45)" /><path
       style="fill:#999999;fill-opacity:1;stroke:none;stroke-width:0.264999;stroke-dasharray:none;stroke-opacity:1"
       d="m 24.078598,11.725201 c 0.004,-0.262339 -0.0824,-0.518185 -0.261718,-0.507814 -1.252406,0.07244 -3.577078,0.08092 -4.48242,0.509767 -0.679075,-0.437861 0.168882,-1.450731 -0.675331,-1.972085 -0.732166,-0.45216 -2.081776,0.349349 -2.343789,0.848142 -0.130924,0.249252 0.472673,1.037876 0.653741,0.822267 0.420143,-0.500287 0.462662,-0.46747 0.985155,-0.706946 0.230809,0.459066 -0.645349,1.780885 0.08139,2.246901 -0.0052,0.58837 -0.859515,1.103298 -1.412059,1.722052 -0.512839,-0.424846 -1.291691,-1.690651 -1.529043,-2.26959 -0.280451,0.0249 -1.058666,-0.125749 -0.989085,0.147059 0.239365,0.938498 1.488045,3.241412 2.420749,3.300824 0.809115,0.05154 2.12173,-1.222777 2.802403,-1.658156 0.903769,0.432152 3.230287,0.450328 4.482419,0.527344 0.358556,0.02205 0.345807,-1.02167 -0.01172,-1.056641 -1.029809,-0.100733 -2.743697,-0.213415 -2.906248,-0.427734 -0.09185,-0.121109 -0.116147,-0.211097 -0.10547,-0.279298 -0.01042,-0.06823 0.01512,-0.160482 0.107426,-0.281247 0.163347,-0.213721 1.87609,-0.320998 2.906261,-0.417968 0.178826,-0.01683 0.273369,-0.28454 0.277345,-0.546876 z"
       id="path4-4-5-2-0-5"
       sodipodi:nodetypes="ssscssccccsscscscsss" /><path
       id="path1-9-9-4-2-8"
       style="fill:#4d4d4d;fill-opacity:1;stroke:#000000;stroke-width:0.265"
       d="m 18.625368,11.298926 c -0.918209,-2e-6 -2.054433,0.744352 -2.054432,1.66256 -2e-6,0.918208 1.136225,1.662562 2.054431,1.66256 0.918205,10e-7 1.662561,-0.744352 1.66256,-1.662559 0,-0.918207 -0.744352,-1.662562 -1.662559,-1.662561 z"
       sodipodi:nodetypes="zzzzz" /><path
       id="path1-7-1-2-6-0-1-6"
       style="fill:#ffffff;stroke:#000000;stroke-width:0.265;stroke-dasharray:none"
       d="m 24.248157,13.618103 c -0.207213,1e-6 -0.738306,0.227855 -0.738306,0.588877 10e-7,0.361024 0.54177,0.627768 0.748989,0.627763 0.207217,0 0.385878,0.07027 0.36452,-0.627765 C 24.602,13.508939 24.455379,13.618101 24.248161,13.6181 Z"
       sodipodi:nodetypes="ssszs" /><path
       id="path1-7-1-9-0-2-5-0-2"
       style="fill:#ffffff;stroke:#000000;stroke-width:0.265;stroke-dasharray:none"
       d="m 24.226388,11.137006 c -0.207213,0 -0.738308,0.227855 -0.738308,0.588877 1e-6,0.361022 0.541771,0.627769 0.748991,0.627764 0.207213,0 0.385875,0.07027 0.364518,-0.627765 -0.02136,-0.69804 -0.167981,-0.588875 -0.375196,-0.588876 z"
       sodipodi:nodetypes="ssszs" /><ellipse
       style="fill:#ffffff;fill-opacity:1;stroke:#000000;stroke-width:0.265;stroke-dasharray:none;stroke-opacity:1"
       id="path1-7-2-9-9-1-6-1-9-5-8"
       cx="19.325861"
       cy="-4.5337338"
       rx="0.65429264"
       ry="0.80279088"
       transform="rotate(47.61241)" /><ellipse
       style="fill:#ffffff;fill-opacity:1;stroke:#000000;stroke-width:0.265;stroke-dasharray:none;stroke-opacity:1"
       id="path1-7-2-9-9"
       cx="-1.3101902"
       cy="19.085535"
       rx="0.65429264"
       ry="0.80279088"
       transform="matrix(-0.70710678,0.70710678,0.70710678,0.70710678,0,0)" /><path
       style="fill:#999999;fill-opacity:1;stroke:none;stroke-width:0.264999;stroke-dasharray:none;stroke-opacity:1"
       d="m 26.866142,20.354704 c 0.07176,0.252365 0.05452,0.521851 -0.121368,0.558246 -1.228481,0.254175 -3.476134,0.847653 -4.461621,0.667741 -0.542608,0.5987 0.538605,1.357586 -0.141908,2.079672 -0.590195,0.626251 -2.10126,0.20136 -2.483441,-0.212623 -0.190981,-0.206866 0.187943,-1.124846 0.418646,-0.963449 0.535312,0.374499 0.567887,0.331796 1.134559,0.42788 0.104128,-0.503162 -1.084286,-1.553174 -0.502925,-2.191406 -0.157303,-0.566973 -1.115783,-0.843244 -1.809645,-1.297904 -0.385405,0.543101 -0.810105,1.967357 -0.889528,2.588001 -0.277341,0.04853 -0.990045,0.395465 -0.993444,0.113946 -0.01169,-0.968471 0.598401,-3.516099 1.483948,-3.814886 0.768205,-0.259198 2.365912,0.631965 3.136075,0.876338 0.761125,-0.651339 3.003663,-1.271043 4.193197,-1.669511 0.34063,-0.1141 0.598455,0.897354 0.262158,1.023671 -0.968649,0.363836 -2.594971,0.916265 -2.696516,1.165353 -0.05737,0.140752 -0.05756,0.233963 -0.02959,0.297076 0.0076,0.06862 0.05614,0.151098 0.176556,0.243863 0.213096,0.164161 1.895244,-0.175507 2.91541,-0.348468 0.177088,-0.03003 0.337698,0.204092 0.409436,0.456459 z"
       id="path4-4-5-2-0"
       sodipodi:nodetypes="ssscssccccsscscscsss" /><path
       id="path1-9-9-4-2"
       style="fill:#6666ff;fill-opacity:1;stroke:#000000;stroke-width:0.265"
       d="m 21.709056,22.177853 c -0.886921,0.23765 -2.177082,-0.187264 -2.414732,-1.074185 -0.23765,-0.88692 0.667206,-1.899987 1.554127,-2.137636 0.886918,-0.237648 1.798561,0.288689 2.036211,1.175608 0.237649,0.88692 -0.288687,1.798564 -1.175606,2.036213 z"
       sodipodi:nodetypes="zzzzz" /><path
       id="path1-7-1-2-6-0-1"
       style="fill:#ffffff;stroke:#000000;stroke-width:0.265;stroke-dasharray:none"
       d="m 26.540005,18.482414 c -0.200153,0.05363 -0.772123,-0.029 -0.865561,-0.377724 -0.09344,-0.348721 0.360834,-0.746597 0.560987,-0.800228 0.200154,-0.05363 0.354542,-0.167748 0.514574,0.512033 0.160034,0.679782 -0.0098,0.612288 -0.21,0.665919 z"
       sodipodi:nodetypes="ssszs" /><path
       id="path1-7-1-9-0-2-5-0"
       style="fill:#ffffff;stroke:#000000;stroke-width:0.265;stroke-dasharray:none"
       d="m 27.161132,20.884604 c -0.200153,0.05363 -0.772123,-0.029 -0.865562,-0.377723 -0.09344,-0.348723 0.360835,-0.746597 0.560988,-0.800228 0.200153,-0.05363 0.354541,-0.167748 0.514573,0.512032 0.160034,0.679783 -0.0098,0.612288 -0.209999,0.665919 z"
       sodipodi:nodetypes="ssszs" /><ellipse
       style="fill:#ffffff;fill-opacity:1;stroke:#000000;stroke-width:0.265;stroke-dasharray:none;stroke-opacity:1"
       id="path1-7-2-9-9-1-6-1-9-5"
       cx="-11.281425"
       cy="-27.871866"
       rx="0.65429264"
       ry="0.80279088"
       transform="matrix(0.46000748,-0.88791504,-0.88791504,-0.46000748,0,0)" /><path
       style="fill:#999999;fill-opacity:1;stroke:none;stroke-width:0.264999;stroke-dasharray:none;stroke-opacity:1"
       d="m 11.199382,29.058279 c 0.182675,0.188329 0.42468,0.308143 0.544141,0.174016 0.834362,-0.936808 2.472156,-2.586595 2.80909,-3.530008 0.789792,-0.170565 0.906404,1.145239 1.872006,0.916943 0.837445,-0.197994 1.22501,-1.719065 1.057582,-2.257036 -0.08367,-0.268826 -1.068119,-0.399659 -1.043695,-0.119167 0.05667,0.650843 0.0034,0.657704 -0.196724,1.196497 -0.487815,-0.161401 -0.802946,-1.715606 -1.64635,-1.531248 -0.412364,-0.419717 -0.17238,-1.387919 -0.219197,-2.216152 0.663042,-0.06222 2.108835,0.282108 2.686039,0.523646 0.180698,-0.215917 0.837507,-0.659671 0.595403,-0.803373 -0.832877,-0.49436 -3.344232,-1.239818 -4.045764,-0.622308 -0.608575,0.535687 -0.635656,2.364922 -0.809105,3.154091 -0.944639,0.333484 -2.602588,1.965728 -3.542437,2.796661 -0.26913,0.237945 0.477907,0.966952 0.755445,0.73887 0.799414,-0.656956 2.090993,-1.789178 2.357481,-1.752574 0.150584,0.02069 0.231395,0.06714 0.272073,0.122914 0.05561,0.04088 0.102789,0.124169 0.12291,0.274833 0.03562,0.266627 -1.099617,1.553575 -1.75949,2.350585 -0.11455,0.138348 0.0079,0.3945 0.190587,0.582812 z"
       id="path4-4-5-2-0-5-5"
       sodipodi:nodetypes="ssscssccccsscscscsss" /><path
       id="path1-9-9-4-2-8-6"
       style="fill:#66ff66;fill-opacity:1;stroke:#000000;stroke-width:0.265"
       d="m 15.35682,25.503686 c 0.649272,-0.649269 0.926367,-1.97904 0.277095,-2.628311 -0.64927,-0.649272 -1.979041,-0.372177 -2.62831,0.277094 -0.649269,0.649269 -0.649271,1.701946 0,2.351215 0.64927,0.649271 1.701945,0.649273 2.351215,2e-6 z"
       sodipodi:nodetypes="zzzzz" /><path
       id="path1-7-1-2-6-0-1-6-4"
       style="fill:#ffffff;stroke:#000000;stroke-width:0.265;stroke-dasharray:none"
       d="m 9.741002,27.839692 c 0.146521,-0.146522 0.360946,-0.683177 0.105662,-0.93846 -0.255283,-0.255282 -0.826988,-0.06081 -0.973511,0.08572 -0.146522,0.146525 -0.322545,0.223169 0.186144,0.701651 0.508691,0.478484 0.535156,0.297657 0.681704,0.151094 z"
       sodipodi:nodetypes="ssszs" /><path
       id="path1-7-1-9-0-2-5-0-2-6"
       style="fill:#ffffff;stroke:#000000;stroke-width:0.265;stroke-dasharray:none"
       d="m 11.510794,29.578699 c 0.146521,-0.146521 0.360947,-0.683179 0.105665,-0.93846 -0.255282,-0.255283 -0.826991,-0.06081 -0.973513,0.08572 -0.146521,0.146522 -0.322543,0.223167 0.186143,0.701649 0.508693,0.478484 0.535155,0.297656 0.681702,0.151096 z"
       sodipodi:nodetypes="ssszs" /><ellipse
       style="fill:#ffffff;fill-opacity:1;stroke:#000000;stroke-width:0.265;stroke-dasharray:none;stroke-opacity:1"
       id="path1-7-2-9-9-1-6-1-9-5-8-3"
       cx="-18.078995"
       cy="-23.17132"
       rx="0.65429264"
       ry="0.80279088"
       transform="rotate(-177.38759)" /><ellipse
       style="fill:#ffffff;fill-opacity:1;stroke:#000000;stroke-width:0.265;stroke-dasharray:none;stroke-opacity:1"
       id="path1-7-2-9-9-7"
       cx="-10.175365"
       cy="-26.073378"
       rx="0.65429264"
       ry="0.80279088"
       transform="matrix(0.5,-0.8660254,-0.8660254,-0.5,0,0)" /><path
       id="path1-3-1-5-8-0-8-0-6-0"
       style="fill:url(#linearGradient1);fill-opacity:1;stroke:none;stroke-width:0.265"
       d="m 17.874016,26.516137 c -1.932244,-2.06682 -1.327779,-1.988327 -2.223887,-3.387958 -0.846988,-0.445222 -2.165072,1.358652 -2.675977,2.167724 1.347872,1.453146 2.73085,2.122927 3.702032,2.399398 0.971182,0.276471 3.477037,1.117686 1.197832,-1.179164 z"
       sodipodi:nodetypes="zcczz" /><path
       id="path1-3-1-5-8-0-8-0-6-0-1"
       style="fill:url(#linearGradient2);fill-opacity:1;stroke:none;stroke-width:0.265"
       d="m 17.557318,8.628389 c -0.09516,2.827765 -0.467077,2.421038 -0.823122,4.044371 0.284091,0.91373 2.473067,0.765292 3.406432,0.554456 0.07444,-1.980619 -0.411285,-3.703403 -0.90252,-4.585627 -0.491234,-0.882224 -1.668313,-3.24896 -1.68079,-0.0132 z"
       sodipodi:nodetypes="zcczz" /><path
       id="path1-3-1-5-8-0-8-0-4-2"
       style="fill:url(#linearGradient3);fill-opacity:1;stroke:none;stroke-width:0.265"
       d="m 12.930075,22.035687 c 3.16739,0.0071 6.672981,0.09851 8.552607,0.06269 1.011528,-0.510902 0.304305,-2.198614 -0.252332,-3.045605 -2.548134,-0.07281 -6.873628,-0.01797 -8.885318,1.068848 -0.440538,0.238 -2.620841,2.291797 0.585043,1.914068 0,0 -3.167391,-0.0071 0,-1e-6 z"
       sodipodi:nodetypes="zcczzz" /><path
       id="path2"
       style="fill:none;stroke:#000000;stroke-width:0.2;stroke-dasharray:none;stroke-opacity:1;marker-end:url(#RoundedArrow)"
       d="m 8.429805,12.509856 c 0.383716,-1.279598 2.221767,-4.375563 6.10059,-4.616467"
       sodipodi:nodetypes="cc" /><path
       id="path2-4"
       style="fill:none;stroke:#000000;stroke-width:0.2;stroke-dasharray:none;stroke-opacity:1;marker-end:url(#RoundedArrow-7)"
       d="m 23.891797,24.157024 c -0.383716,1.279598 -2.221767,4.375563 -6.10059,4.616467"
       sodipodi:nodetypes="cc" /><text
       xml:space="preserve"
       style="font-size:3.175px;text-align:start;writing-mode:lr-tb;direction:ltr;text-anchor:start;fill:#000000;fill-opacity:1;stroke:none;stroke-width:0.2;stroke-dasharray:none;stroke-opacity:1"
       x="9.2154989"
       y="6.5181732"
       id="text5"><tspan
         sodipodi:role="line"
         id="tspan5"
         style="font-style:normal;font-variant:normal;font-weight:bold;font-stretch:normal;font-family:'Bitstream Vera Sans';-inkscape-font-specification:'Bitstream Vera Sans Bold';fill:#000000;fill-opacity:1;stroke:none;stroke-width:0.2"
         x="9.2154989"
         y="6.5181732">360</tspan></text><text
       xml:space="preserve"
       style="font-size:3.175px;text-align:start;writing-mode:lr-tb;direction:ltr;text-anchor:start;fill:#000000;fill-opacity:1;stroke:none;stroke-width:0.2;stroke-dasharray:none;stroke-opacity:1"
       x="18.172895"
       y="32.332726"
       id="text5-0"><tspan
         sodipodi:role="line"
         id="tspan5-5"
         style="font-style:normal;font-variant:normal;font-weight:bold;font-stretch:normal;font-family:'Bitstream Vera Sans';-inkscape-font-specification:'Bitstream Vera Sans Bold';fill:#000000;fill-opacity:1;stroke:none;stroke-width:0.2"
         x="18.172895"
         y="32.332726">360</tspan></text></g></svg>
