<?xml version="1.0" encoding="UTF-8" standalone="no"?>
<!-- Created with Inkscape (http://www.inkscape.org/) -->

<svg
   width="35mm"
   height="35mm"
   viewBox="0 0 35 35"
   version="1.1"
   id="svg1"
   xml:space="preserve"
   inkscape:version="1.4 (e7c3feb100, 2024-10-09)"
   sodipodi:docname="1_primaryV1.svg"
   xmlns:inkscape="http://www.inkscape.org/namespaces/inkscape"
   xmlns:sodipodi="http://sodipodi.sourceforge.net/DTD/sodipodi-0.dtd"
   xmlns="http://www.w3.org/2000/svg"
   xmlns:svg="http://www.w3.org/2000/svg"><sodipodi:namedview
     id="namedview1"
     pagecolor="#ffffff"
     bordercolor="#000000"
     borderopacity="0.25"
     inkscape:showpageshadow="2"
     inkscape:pageopacity="0.0"
     inkscape:pagecheckerboard="0"
     inkscape:deskcolor="#d1d1d1"
     inkscape:document-units="mm"
     inkscape:zoom="4.2968334"
     inkscape:cx="105.42648"
     inkscape:cy="54.691439"
     inkscape:window-width="1916"
     inkscape:window-height="1023"
     inkscape:window-x="0"
     inkscape:window-y="0"
     inkscape:window-maximized="0"
     inkscape:current-layer="layer1" /><defs
     id="defs1"><inkscape:path-effect
       effect="mirror_symmetry"
       start_point="17.297909,16.234992"
       end_point="17.313303,7.810326"
       center_point="17.305606,12.022659"
       id="path-effect5"
       is_visible="true"
       lpeversion="1.2"
       lpesatellites=""
       mode="free"
       discard_orig_path="false"
       fuse_paths="true"
       oposite_fuse="false"
       split_items="false"
       split_open="false"
       link_styles="false" /><inkscape:path-effect
       effect="mirror_symmetry"
       start_point="17.297909,16.234992"
       end_point="17.313303,7.810326"
       center_point="17.305606,12.022659"
       id="path-effect5-7"
       is_visible="true"
       lpeversion="1.2"
       lpesatellites=""
       mode="free"
       discard_orig_path="false"
       fuse_paths="true"
       oposite_fuse="false"
       split_items="false"
       split_open="false"
       link_styles="false" /><inkscape:path-effect
       effect="mirror_symmetry"
       start_point="17.297909,16.234992"
       end_point="17.313303,7.810326"
       center_point="17.305606,12.022659"
       id="path-effect5-6"
       is_visible="true"
       lpeversion="1.2"
       lpesatellites=""
       mode="free"
       discard_orig_path="false"
       fuse_paths="true"
       oposite_fuse="false"
       split_items="false"
       split_open="false"
       link_styles="false" /><inkscape:path-effect
       effect="mirror_symmetry"
       start_point="17.297909,16.234992"
       end_point="17.313303,7.810326"
       center_point="17.305606,12.022659"
       id="path-effect5-3"
       is_visible="true"
       lpeversion="1.2"
       lpesatellites=""
       mode="free"
       discard_orig_path="false"
       fuse_paths="true"
       oposite_fuse="false"
       split_items="false"
       split_open="false"
       link_styles="false" /><inkscape:path-effect
       effect="mirror_symmetry"
       start_point="17.297909,16.234992"
       end_point="17.313303,7.810326"
       center_point="17.305606,12.022659"
       id="path-effect5-66"
       is_visible="true"
       lpeversion="1.2"
       lpesatellites=""
       mode="free"
       discard_orig_path="false"
       fuse_paths="true"
       oposite_fuse="false"
       split_items="false"
       split_open="false"
       link_styles="false" /><inkscape:path-effect
       effect="mirror_symmetry"
       start_point="17.297909,16.234992"
       end_point="17.313303,7.810326"
       center_point="17.305606,12.022659"
       id="path-effect5-4"
       is_visible="true"
       lpeversion="1.2"
       lpesatellites=""
       mode="free"
       discard_orig_path="false"
       fuse_paths="true"
       oposite_fuse="false"
       split_items="false"
       split_open="false"
       link_styles="false" /><inkscape:path-effect
       effect="mirror_symmetry"
       start_point="17.297909,16.234992"
       end_point="17.313303,7.810326"
       center_point="17.305606,12.022659"
       id="path-effect5-4-7"
       is_visible="true"
       lpeversion="1.2"
       lpesatellites=""
       mode="free"
       discard_orig_path="false"
       fuse_paths="true"
       oposite_fuse="false"
       split_items="false"
       split_open="false"
       link_styles="false" /></defs><g
     inkscape:label="Layer 1"
     inkscape:groupmode="layer"
     id="layer1"><path
       style="fill:#999999;fill-opacity:1;stroke:none;stroke-width:0.264999;stroke-dasharray:none;stroke-opacity:1"
       d="m 16.0625,7.5585937 c -0.262338,-0.00397 -0.518182,0.082402 -0.507812,0.2617188 0.07244,1.2524069 0.08092,3.5770765 0.509765,4.4824215 -0.437864,0.679074 -1.494271,1.202659 -2.015625,2.046875 -0.452157,0.732168 -0.02075,1.907611 0.216797,3.083985 0.05573,0.275974 0.796346,0.47567 0.822266,0.195312 0.109285,-1.18211 -0.07617,-2.728515 -0.07617,-2.728515 0.929349,-0.552216 1.774728,-0.990204 2.291015,-1.248047 0.515342,0.259728 1.357832,0.702204 2.285157,1.257812 0,0 -0.188949,1.544061 -0.08398,2.726563 0.0249,0.280451 0.76553,0.08241 0.822266,-0.19336 0.241841,-1.175498 0.677994,-2.348215 0.228515,-3.082031 -0.518265,-0.846116 -1.574386,-1.372065 -2.009765,-2.052734 0.432152,-0.903772 0.450328,-3.2302883 0.527344,-4.4824221 0.02205,-0.3585544 -1.02167,-0.3458071 -1.056641,0.011719 -0.100734,1.0298107 -0.213416,2.7436984 -0.427734,2.9062504 -0.121107,0.09185 -0.211094,0.116149 -0.279297,0.105468 -0.06824,0.01043 -0.16048,-0.01512 -0.28125,-0.107421 C 16.813621,10.578854 16.706345,8.8661094 16.609375,7.8359375 16.592543,7.6571119 16.324839,7.5625647 16.0625,7.5585937 Z"
       id="path4"
       sodipodi:nodetypes="ssscssscccs"
       transform="rotate(-60,17.219986,18.755614)"
       inkscape:original-d="m 15.087222,17.628795 c -0.02592,0.280358 -0.765893,0.08004 -0.821621,-0.195934 -0.237544,-1.176374 -0.668956,-2.351745 -0.216799,-3.083913 0.521354,-0.844216 1.577933,-1.366261 2.015797,-2.045335 -0.428846,-0.905345 -0.437758,-3.2310091 -0.510197,-4.483416 -0.02074,-0.3586326 1.022152,-0.3422582 1.055816,0.015393 0.09697,1.0301719 0.203913,2.743905 0.417636,2.907239 0.427544,0.326742 0.480507,-0.179347 0.480507,-0.179347 l 0.318037,2.834014 c 0,0 -1.293868,0.600372 -2.814147,1.503717 0,0 0.184256,1.545472 0.07497,2.727582 z"
       inkscape:path-effect="#path-effect5" /><path
       id="path1"
       style="fill:#6666ff;fill-opacity:1;stroke:#000000;stroke-width:0.265"
       d="m 13.117118,14.374414 c 0.795191,0.459104 1.407013,1.671846 0.947909,2.467037 -0.459104,0.795192 -1.81528,0.871708 -2.61047,0.412604 -0.795191,-0.459103 -1.067644,-1.475909 -0.60854,-2.2711 0.459103,-0.795191 1.47591,-1.067645 2.271101,-0.608541 z"
       sodipodi:nodetypes="zzzzz" /><path
       id="path1-7-1"
       style="fill:#ffffff;stroke:#000000;stroke-width:0.265;stroke-dasharray:none"
       d="m 7.0928142,13.56323 c 0.1794526,0.103607 0.5254651,0.566481 0.3449541,0.879136 -0.1805115,0.312655 -0.7830721,0.272774 -0.9625247,0.169167 -0.1794529,-0.103607 -0.3693137,-0.132082 -0.0018,-0.725919 0.3675183,-0.59384 0.4399143,-0.425992 0.619368,-0.322384 z"
       sodipodi:nodetypes="ssszs" /><path
       id="path1-7-1-9"
       style="fill:#ffffff;stroke:#000000;stroke-width:0.265;stroke-dasharray:none"
       d="m 8.3522161,11.425422 c 0.1794526,0.103607 0.5254651,0.566481 0.3449541,0.879136 -0.1805115,0.312655 -0.7830722,0.272774 -0.9625248,0.169167 -0.1794523,-0.103606 -0.3693131,-0.132082 -0.0018,-0.725919 0.3675183,-0.59384 0.4399143,-0.425992 0.6193675,-0.322384 z"
       sodipodi:nodetypes="ssszs" /><path
       style="fill:#999999;fill-opacity:1;stroke:none;stroke-width:0.264999;stroke-dasharray:none;stroke-opacity:1"
       d="m 16.0625,7.5585937 c -0.262338,-0.00397 -0.518182,0.082402 -0.507812,0.2617188 0.07244,1.2524069 0.08092,3.5770765 0.509765,4.4824215 -0.437864,0.679074 -1.494271,1.202659 -2.015625,2.046875 -0.452157,0.732168 -0.02075,1.907611 0.216797,3.083985 0.05573,0.275974 0.796346,0.47567 0.822266,0.195312 0.10928,-1.18211 0.09766,-2.857422 0.09766,-2.857422 0.891495,-0.529723 1.646191,-0.910531 2.117187,-1.134765 0.470175,0.225954 1.221775,0.607646 2.111328,1.140625 0,0 -0.01512,1.676873 0.08984,2.859375 0.0249,0.280451 0.76553,0.08241 0.822266,-0.19336 0.241841,-1.175498 0.677994,-2.348215 0.228515,-3.082031 -0.518265,-0.846116 -1.574386,-1.372065 -2.009765,-2.052734 0.432152,-0.903772 0.450328,-3.2302883 0.527344,-4.4824221 0.02205,-0.3585544 -1.02167,-0.3458071 -1.056641,0.011719 -0.100734,1.0298107 -0.213416,2.7436984 -0.427734,2.9062504 -0.121107,0.09185 -0.211094,0.116149 -0.279297,0.105468 -0.06824,0.01043 -0.16048,-0.01512 -0.28125,-0.107421 C 16.813621,10.578854 16.706345,8.8661094 16.609375,7.8359375 16.592543,7.6571119 16.324839,7.5625647 16.0625,7.5585937 Z"
       id="path4-6"
       sodipodi:nodetypes="ssscssscccs"
       transform="rotate(60,17.600247,19.150191)"
       inkscape:original-d="m 15.087222,17.628795 c -0.02592,0.280358 -0.765893,0.08004 -0.821621,-0.195934 -0.237544,-1.176374 -0.668956,-2.351745 -0.216799,-3.083913 0.521354,-0.844216 1.577933,-1.366261 2.015797,-2.045335 -0.428846,-0.905345 -0.437758,-3.2310091 -0.510197,-4.483416 -0.02074,-0.3586326 1.022152,-0.3422582 1.055816,0.015393 0.09697,1.0301719 0.203913,2.743905 0.417636,2.907239 0.427544,0.326742 0.480507,-0.179347 0.480507,-0.179347 l 0.318037,2.834014 c 0,0 -1.119704,0.469749 -2.639983,1.373094 0,0 0.01009,1.676095 -0.09919,2.858205 z"
       inkscape:path-effect="#path-effect5-4" /><path
       id="path1-3"
       style="fill:#ff6666;fill-opacity:1;stroke:#000000;stroke-width:0.265"
       d="m 23.5975,17.261002 c -0.795192,0.459104 -2.151368,0.382586 -2.610472,-0.412605 -0.459104,-0.795191 0.15272,-2.007933 0.94791,-2.467036 0.795191,-0.459104 1.811998,-0.18665 2.271101,0.608539 0.459103,0.795191 0.186652,1.811998 -0.608539,2.271102 z"
       sodipodi:nodetypes="zzzzz" /><path
       id="path1-7-1-1"
       style="fill:#ffffff;stroke:#000000;stroke-width:0.265;stroke-dasharray:none"
       d="m 27.299748,12.471442 c -0.179452,0.103607 -0.75332,0.171826 -0.933831,-0.140829 -0.180511,-0.312655 0.155306,-0.814547 0.334759,-0.918154 0.179452,-0.103607 0.299043,-0.253794 0.629563,0.361403 0.330522,0.6152 0.148963,0.593973 -0.03049,0.69758 z"
       sodipodi:nodetypes="ssszs" /><path
       id="path1-7-1-9-7"
       style="fill:#ffffff;stroke:#000000;stroke-width:0.265;stroke-dasharray:none"
       d="m 28.521443,14.63102 c -0.179452,0.103607 -0.75332,0.171826 -0.933831,-0.140829 -0.180511,-0.312655 0.155306,-0.814547 0.334759,-0.918154 0.179452,-0.103607 0.299043,-0.253793 0.629562,0.361403 0.330522,0.615201 0.148963,0.593973 -0.03049,0.69758 z"
       sodipodi:nodetypes="ssszs" /><path
       style="fill:#999999;fill-opacity:1;stroke:none;stroke-width:0.264999;stroke-dasharray:none;stroke-opacity:1"
       d="m 19.344155,4.700511 c 0.262339,-0.004 0.518183,0.0824 0.507812,0.261718 -0.07244,1.252407 -0.08092,3.577077 -0.509765,4.482421 0.437864,0.679074 1.45073,-0.168884 1.972084,0.675332 0.452157,0.732168 -0.349349,2.081775 -0.848142,2.343787 -0.249249,0.130928 -1.037875,-0.472671 -0.822266,-0.653739 0.500289,-0.420141 0.467469,-0.462663 0.706945,-0.985156 -0.459065,-0.230808 -1.719308,0.137344 -2.246902,-0.08139 -0.588368,0.0052 -0.378228,1.157418 -0.567815,2.051726 0.555148,0.217707 0.872499,0.475221 1.609568,0.982836 -0.0249,0.280451 -0.366835,0.928474 -0.622916,0.704333 -0.712278,-0.623439 -1.760921,-0.798222 -1.937447,-1.26422 -0.211198,-0.557528 -0.158957,-3.086967 0.27643,-3.767639 -0.432152,-0.903771 -0.450328,-3.230287 -0.527344,-4.482421 -0.02205,-0.358555 1.02167,-0.345807 1.056641,0.01172 0.100734,1.029811 0.213416,2.743698 0.427734,2.90625 0.121107,0.09185 0.211094,0.116149 0.279297,0.105468 0.06824,0.01043 0.16048,-0.01512 0.28125,-0.107421 0.213723,-0.163344 0.320999,-1.876089 0.417969,-2.906261 0.01683,-0.178825 0.284536,-0.273372 0.546875,-0.277344 z"
       id="path4-4-5"
       sodipodi:nodetypes="ssscssccccsscscscssss" /><path
       style="fill:#999999;fill-opacity:1;stroke:none;stroke-width:0.264999;stroke-dasharray:none;stroke-opacity:1"
       d="m 16.0625,7.5585937 c -0.262338,-0.00397 -0.518182,0.082402 -0.507812,0.2617188 0.07244,1.2524069 0.08092,3.5770765 0.509765,4.4824215 -0.437864,0.679074 -1.494271,1.202659 -2.015625,2.046875 -0.452157,0.732168 -0.02075,1.907611 0.216797,3.083985 0.05573,0.275974 0.796346,0.47567 0.822266,0.195312 0.10928,-1.18211 0.09766,-2.857422 0.09766,-2.857422 0.891495,-0.529723 1.646191,-0.910531 2.117187,-1.134765 0.470175,0.225954 1.221775,0.607646 2.111328,1.140625 0,0 -0.01512,1.676873 0.08984,2.859375 0.0249,0.280451 0.76553,0.08241 0.822266,-0.19336 0.241841,-1.175498 0.677994,-2.348215 0.228515,-3.082031 -0.518265,-0.846116 -1.574386,-1.372065 -2.009765,-2.052734 0.432152,-0.903772 0.450328,-3.2302883 0.527344,-4.4824221 0.02205,-0.3585544 -1.02167,-0.3458071 -1.056641,0.011719 -0.100734,1.0298107 -0.213416,2.7436984 -0.427734,2.9062504 -0.121107,0.09185 -0.211094,0.116149 -0.279297,0.105468 -0.06824,0.01043 -0.16048,-0.01512 -0.28125,-0.107421 C 16.813621,10.578854 16.706345,8.8661094 16.609375,7.8359375 16.592543,7.6571119 16.324839,7.5625647 16.0625,7.5585937 Z"
       id="path4-6-3"
       sodipodi:nodetypes="ssscssscccs"
       transform="rotate(180,17.40011,18.939926)"
       inkscape:original-d="m 15.087222,17.628795 c -0.02592,0.280358 -0.765893,0.08004 -0.821621,-0.195934 -0.237544,-1.176374 -0.668956,-2.351745 -0.216799,-3.083913 0.521354,-0.844216 1.577933,-1.366261 2.015797,-2.045335 -0.428846,-0.905345 -0.437758,-3.2310091 -0.510197,-4.483416 -0.02074,-0.3586326 1.022152,-0.3422582 1.055816,0.015393 0.09697,1.0301719 0.203913,2.743905 0.417636,2.907239 0.427544,0.326742 0.480507,-0.179347 0.480507,-0.179347 l 0.318037,2.834014 c 0,0 -1.119704,0.469749 -2.639983,1.373094 0,0 0.01009,1.676095 -0.09919,2.858205 z"
       inkscape:path-effect="#path-effect5-4-7" /><ellipse
       style="fill:#ffffff;fill-opacity:1;stroke:#000000;stroke-width:0.265;stroke-dasharray:none;stroke-opacity:1"
       id="path1-7-2-9-9-1-5"
       cx="28.719448"
       cy="0.10993958"
       rx="0.65429264"
       ry="0.80279088"
       transform="rotate(45)" /><ellipse
       style="fill:#ffffff;fill-opacity:1;stroke:#000000;stroke-width:0.265;stroke-dasharray:none;stroke-opacity:1"
       id="path1-7-2-9-9-1-5-6"
       cx="2.6719723"
       cy="25.03372"
       rx="0.65429264"
       ry="0.80279088"
       transform="rotate(-30)" /><ellipse
       style="fill:#ffffff;fill-opacity:1;stroke:#000000;stroke-width:0.265;stroke-dasharray:none;stroke-opacity:1"
       id="path1-7-2-9-9-1-5-6-1"
       cx="-15.743925"
       cy="17.580963"
       rx="0.65429264"
       ry="0.80279088"
       transform="rotate(-90)" /><path
       id="path1-3-6"
       style="fill:#66ff66;fill-opacity:1;stroke:#000000;stroke-width:0.265"
       d="m 15.837435,24.868029 c 0,-0.918209 0.744355,-2.054433 1.662562,-2.054433 0.918208,0 1.662561,1.136226 1.662561,2.054432 0,0.918208 -0.744355,1.662562 -1.66256,1.662562 -0.918208,-1e-6 -1.662563,-0.744354 -1.662563,-1.662561 z"
       sodipodi:nodetypes="zzzzz" /><path
       id="path1-7-1-1-2"
       style="fill:#ffffff;stroke:#000000;stroke-width:0.265;stroke-dasharray:none"
       d="m 18.134192,30.46905 c -10e-7,-0.207214 0.227854,-0.738308 0.588877,-0.738307 0.361022,0 0.627765,0.541772 0.627765,0.748987 0,0.207213 0.07027,0.385875 -0.627766,0.364516 -0.69804,-0.02136 -0.588877,-0.167981 -0.588876,-0.375196 z"
       sodipodi:nodetypes="ssszs" /><path
       id="path1-7-1-9-7-9"
       style="fill:#ffffff;stroke:#000000;stroke-width:0.265;stroke-dasharray:none"
       d="m 15.653095,30.447279 c -1e-6,-0.207213 0.227854,-0.738307 0.588877,-0.738306 0.361022,0 0.627765,0.541772 0.627765,0.748986 0,0.207214 0.07027,0.385876 -0.627765,0.364516 -0.698041,-0.02136 -0.588878,-0.167981 -0.588877,-0.375196 z"
       sodipodi:nodetypes="ssszs" /><path
       id="path1-9-9"
       style="fill:#4d4d4d;fill-opacity:1;stroke:#000000;stroke-width:0.265"
       d="m 19.704057,10.153742 c 0,0.918208 -0.744354,2.054432 -1.662562,2.054432 -0.918208,0 -1.662561,-1.136225 -1.662561,-2.054432 0,-0.918206 0.744354,-1.66256 1.662561,-1.66256 0.918207,0 1.662562,0.744353 1.662562,1.66256 z"
       sodipodi:nodetypes="zzzzz" /><path
       id="path1-7-1-2-6"
       style="fill:#ffffff;stroke:#000000;stroke-width:0.265;stroke-dasharray:none"
       d="m 17.384878,4.530951 c 0,0.207214 -0.227855,0.738307 -0.588877,0.738307 -0.361023,0 -0.627766,-0.541773 -0.627766,-0.748987 0,-0.207215 -0.07027,-0.385877 0.627766,-0.364517 0.69804,0.02136 0.588877,0.167981 0.588877,0.375197 z"
       sodipodi:nodetypes="ssszs" /><path
       id="path1-7-1-9-0-2"
       style="fill:#ffffff;stroke:#000000;stroke-width:0.265;stroke-dasharray:none"
       d="m 19.865975,4.552721 c 0,0.207214 -0.227855,0.738307 -0.588877,0.738307 -0.361023,0 -0.627766,-0.541773 -0.627766,-0.748987 0,-0.207214 -0.07027,-0.385876 0.627766,-0.364516 0.69804,0.02136 0.588877,0.167981 0.588877,0.375196 z"
       sodipodi:nodetypes="ssszs" /><ellipse
       style="fill:#ffffff;fill-opacity:1;stroke:#000000;stroke-width:0.265;stroke-dasharray:none;stroke-opacity:1"
       id="path1-7-2-9-9-1-6-1"
       cx="-23.023233"
       cy="-4.2226062"
       rx="0.65429264"
       ry="0.80279088"
       transform="matrix(-0.73860137,-0.67414243,-0.67414243,0.73860137,0,0)" /><ellipse
       style="fill:#ffffff;fill-opacity:1;stroke:#000000;stroke-width:0.265;stroke-dasharray:none;stroke-opacity:1"
       id="path1-7-2-9-9-8-7"
       cx="2.8049285"
       cy="23.616062"
       rx="0.65429264"
       ry="0.80279088"
       transform="matrix(-0.5,0.8660254,0.8660254,0.5,0,0)" /></g></svg>
