<?xml version="1.0" encoding="UTF-8" standalone="no"?>
<!-- Created with Inkscape (http://www.inkscape.org/) -->

<svg
   width="35mm"
   height="35mm"
   viewBox="0 0 35 35"
   version="1.1"
   id="svg1"
   xml:space="preserve"
   inkscape:version="1.4 (e7c3feb100, 2024-10-09)"
   sodipodi:docname="1_v3_inter.svg"
   xmlns:inkscape="http://www.inkscape.org/namespaces/inkscape"
   xmlns:sodipodi="http://sodipodi.sourceforge.net/DTD/sodipodi-0.dtd"
   xmlns:xlink="http://www.w3.org/1999/xlink"
   xmlns="http://www.w3.org/2000/svg"
   xmlns:svg="http://www.w3.org/2000/svg"><sodipodi:namedview
     id="namedview1"
     pagecolor="#ffffff"
     bordercolor="#000000"
     borderopacity="0.25"
     inkscape:showpageshadow="2"
     inkscape:pageopacity="0.0"
     inkscape:pagecheckerboard="0"
     inkscape:deskcolor="#d1d1d1"
     inkscape:document-units="mm"
     inkscape:zoom="6.0766401"
     inkscape:cx="54.05948"
     inkscape:cy="64.75618"
     inkscape:window-width="1920"
     inkscape:window-height="1080"
     inkscape:window-x="0"
     inkscape:window-y="0"
     inkscape:window-maximized="0"
     inkscape:current-layer="layer1" /><defs
     id="defs1"><inkscape:path-effect
       effect="mirror_symmetry"
       start_point="17.297909,16.234992"
       end_point="17.313303,7.810326"
       center_point="17.305606,12.022659"
       id="path-effect5"
       is_visible="true"
       lpeversion="1.2"
       lpesatellites=""
       mode="free"
       discard_orig_path="false"
       fuse_paths="true"
       oposite_fuse="false"
       split_items="false"
       split_open="false"
       link_styles="false" /><inkscape:path-effect
       effect="mirror_symmetry"
       start_point="17.297909,16.234992"
       end_point="17.313303,7.810326"
       center_point="17.305606,12.022659"
       id="path-effect5-7"
       is_visible="true"
       lpeversion="1.2"
       lpesatellites=""
       mode="free"
       discard_orig_path="false"
       fuse_paths="true"
       oposite_fuse="false"
       split_items="false"
       split_open="false"
       link_styles="false" /><inkscape:path-effect
       effect="mirror_symmetry"
       start_point="17.297909,16.234992"
       end_point="17.313303,7.810326"
       center_point="17.305606,12.022659"
       id="path-effect5-6"
       is_visible="true"
       lpeversion="1.2"
       lpesatellites=""
       mode="free"
       discard_orig_path="false"
       fuse_paths="true"
       oposite_fuse="false"
       split_items="false"
       split_open="false"
       link_styles="false" /><inkscape:path-effect
       effect="mirror_symmetry"
       start_point="17.297909,16.234992"
       end_point="17.313303,7.810326"
       center_point="17.305606,12.022659"
       id="path-effect5-3"
       is_visible="true"
       lpeversion="1.2"
       lpesatellites=""
       mode="free"
       discard_orig_path="false"
       fuse_paths="true"
       oposite_fuse="false"
       split_items="false"
       split_open="false"
       link_styles="false" /><inkscape:path-effect
       effect="mirror_symmetry"
       start_point="17.297909,16.234992"
       end_point="17.313303,7.810326"
       center_point="17.305606,12.022659"
       id="path-effect5-66"
       is_visible="true"
       lpeversion="1.2"
       lpesatellites=""
       mode="free"
       discard_orig_path="false"
       fuse_paths="true"
       oposite_fuse="false"
       split_items="false"
       split_open="false"
       link_styles="false" /><inkscape:path-effect
       effect="mirror_symmetry"
       start_point="17.297909,16.234992"
       end_point="17.313303,7.810326"
       center_point="17.305606,12.022659"
       id="path-effect5-4"
       is_visible="true"
       lpeversion="1.2"
       lpesatellites=""
       mode="free"
       discard_orig_path="false"
       fuse_paths="true"
       oposite_fuse="false"
       split_items="false"
       split_open="false"
       link_styles="false" /><inkscape:path-effect
       effect="mirror_symmetry"
       start_point="17.297909,16.234992"
       end_point="17.313303,7.810326"
       center_point="17.305606,12.022659"
       id="path-effect5-4-7"
       is_visible="true"
       lpeversion="1.2"
       lpesatellites=""
       mode="free"
       discard_orig_path="false"
       fuse_paths="true"
       oposite_fuse="false"
       split_items="false"
       split_open="false"
       link_styles="false" /><marker
       style="overflow:visible"
       id="RoundedArrow"
       refX="0"
       refY="0"
       orient="auto-start-reverse"
       inkscape:stockid="Rounded arrow"
       markerWidth="1"
       markerHeight="1"
       viewBox="0 0 1 1"
       inkscape:isstock="true"
       inkscape:collect="always"
       preserveAspectRatio="xMidYMid"><path
         transform="scale(0.7)"
         d="m -0.21114562,-4.1055728 6.42229122,3.21114561 a 1,1 90 0 1 0,1.78885438 L -0.21114562,4.1055728 A 1.236068,1.236068 31.717474 0 1 -2,3 v -6 a 1.236068,1.236068 148.28253 0 1 1.78885438,-1.1055728 z"
         style="fill:context-stroke;fill-rule:evenodd;stroke:none"
         id="path8" /></marker><linearGradient
       inkscape:collect="always"
       xlink:href="#linearGradient8"
       id="linearGradient2"
       gradientUnits="userSpaceOnUse"
       gradientTransform="matrix(-0.8660254,0.5,0.5412996,0.93755841,17.708124,1.6545898)"
       x1="10.647268"
       y1="16.557198"
       x2="16.551607"
       y2="14.739073" /><linearGradient
       id="linearGradient8"
       inkscape:collect="always"><stop
         style="stop-color:#6666ff;stop-opacity:0.74901962;"
         offset="0"
         id="stop7" /><stop
         style="stop-color:#6666ff;stop-opacity:0;"
         offset="1"
         id="stop8" /></linearGradient><linearGradient
       inkscape:collect="always"
       xlink:href="#linearGradient10"
       id="linearGradient1"
       gradientUnits="userSpaceOnUse"
       gradientTransform="matrix(0,-1,-1.0825992,0,26.804077,28.11886)"
       x1="10.647268"
       y1="16.557198"
       x2="16.551607"
       y2="14.739073" /><linearGradient
       id="linearGradient10"
       inkscape:collect="always"><stop
         style="stop-color:#4d4d4d;stop-opacity:0.74901962;"
         offset="0"
         id="stop9" /><stop
         style="stop-color:#4d4d4d;stop-opacity:0;"
         offset="1"
         id="stop10" /></linearGradient><linearGradient
       inkscape:collect="always"
       xlink:href="#linearGradient5"
       id="linearGradient4"
       gradientUnits="userSpaceOnUse"
       gradientTransform="matrix(0.86602541,0.50000001,0.54129959,-0.93755838,-0.73567718,22.74562)"
       x1="10.647268"
       y1="16.557198"
       x2="16.551607"
       y2="14.739073" /><linearGradient
       id="linearGradient5"
       inkscape:collect="always"><stop
         style="stop-color:#66ff66;stop-opacity:0.74901962;"
         offset="0"
         id="stop4" /><stop
         style="stop-color:#66ff66;stop-opacity:0;"
         offset="1"
         id="stop5" /></linearGradient><linearGradient
       inkscape:collect="always"
       xlink:href="#linearGradient6"
       id="linearGradient3"
       gradientUnits="userSpaceOnUse"
       gradientTransform="matrix(0.5,-0.8660254,0.93755841,0.5412996,4.7800423,18.169255)"
       x1="10.647268"
       y1="16.557198"
       x2="15.731152"
       y2="14.271025" /><linearGradient
       id="linearGradient6"
       inkscape:collect="always"><stop
         style="stop-color:#ff6666;stop-opacity:0.74901962;"
         offset="0"
         id="stop3" /><stop
         style="stop-color:#ff6666;stop-opacity:0;"
         offset="1"
         id="stop6" /></linearGradient></defs><g
     inkscape:label="Layer 1"
     inkscape:groupmode="layer"
     id="layer1"><path
       style="fill:#999999;fill-opacity:1;stroke:none;stroke-width:0.264999;stroke-dasharray:none;stroke-opacity:1"
       d="m 16.0625,7.5585937 c -0.262338,-0.00397 -0.518182,0.082402 -0.507812,0.2617188 0.07244,1.2524069 0.08092,3.5770765 0.509765,4.4824215 -0.437864,0.679074 -1.494271,1.202659 -2.015625,2.046875 -0.452157,0.732168 -0.02075,1.907611 0.216797,3.083985 0.05573,0.275974 0.796346,0.47567 0.822266,0.195312 0.109285,-1.18211 -0.07617,-2.728515 -0.07617,-2.728515 0.929349,-0.552216 1.774728,-0.990204 2.291015,-1.248047 0.515342,0.259728 1.357832,0.702204 2.285157,1.257812 0,0 -0.188949,1.544061 -0.08398,2.726563 0.0249,0.280451 0.76553,0.08241 0.822266,-0.19336 0.241841,-1.175498 0.677994,-2.348215 0.228515,-3.082031 -0.518265,-0.846116 -1.574386,-1.372065 -2.009765,-2.052734 0.432152,-0.903772 0.450328,-3.2302883 0.527344,-4.4824221 0.02205,-0.3585544 -1.02167,-0.3458071 -1.056641,0.011719 -0.100734,1.0298107 -0.213416,2.7436984 -0.427734,2.9062504 -0.121107,0.09185 -0.211094,0.116149 -0.279297,0.105468 -0.06824,0.01043 -0.16048,-0.01512 -0.28125,-0.107421 C 16.813621,10.578854 16.706345,8.8661094 16.609375,7.8359375 16.592543,7.6571119 16.324839,7.5625647 16.0625,7.5585937 Z"
       id="path4"
       sodipodi:nodetypes="ssscssscccs"
       transform="rotate(30,18.803958,13.204991)"
       inkscape:original-d="m 15.087222,17.628795 c -0.02592,0.280358 -0.765893,0.08004 -0.821621,-0.195934 -0.237544,-1.176374 -0.668956,-2.351745 -0.216799,-3.083913 0.521354,-0.844216 1.577933,-1.366261 2.015797,-2.045335 -0.428846,-0.905345 -0.437758,-3.2310091 -0.510197,-4.483416 -0.02074,-0.3586326 1.022152,-0.3422582 1.055816,0.015393 0.09697,1.0301719 0.203913,2.743905 0.417636,2.907239 0.427544,0.326742 0.480507,-0.179347 0.480507,-0.179347 l 0.318037,2.834014 c 0,0 -1.293868,0.600372 -2.814147,1.503717 0,0 0.184256,1.545472 0.07497,2.727582 z"
       inkscape:path-effect="#path-effect5" /><path
       id="path1"
       style="fill:#66ff66;fill-opacity:1;stroke:#000000;stroke-width:0.265"
       d="m 19.038085,13.117118 c -0.459104,0.795191 -1.671846,1.407013 -2.467037,0.947909 -0.795192,-0.459104 -0.871708,-1.81528 -0.412604,-2.61047 0.459103,-0.795191 1.475909,-1.067644 2.2711,-0.60854 0.795191,0.459103 1.067645,1.47591 0.608541,2.271101 z"
       sodipodi:nodetypes="zzzzz" /><path
       id="path1-7-1"
       style="fill:#ffffff;stroke:#000000;stroke-width:0.265;stroke-dasharray:none"
       d="M 19.849269,7.0928142 C 19.745662,7.2722668 19.282788,7.6182793 18.970133,7.4377683 18.657478,7.2572568 18.697359,6.6546962 18.800966,6.4752436 c 0.103607,-0.1794529 0.132082,-0.3693137 0.725919,-0.0018 0.59384,0.3675183 0.425992,0.4399143 0.322384,0.619368 z"
       sodipodi:nodetypes="ssszs" /><path
       id="path1-7-1-9"
       style="fill:#ffffff;stroke:#000000;stroke-width:0.265;stroke-dasharray:none"
       d="M 21.987077,8.3522161 C 21.88347,8.5316687 21.420596,8.8776812 21.107941,8.6971702 20.795286,8.5166587 20.835167,7.914098 20.938774,7.7346454 c 0.103606,-0.1794523 0.132082,-0.3693131 0.725919,-0.0018 0.59384,0.3675183 0.425992,0.4399143 0.322384,0.6193675 z"
       sodipodi:nodetypes="ssszs" /><path
       style="fill:#999999;fill-opacity:1;stroke:none;stroke-width:0.264999;stroke-dasharray:none;stroke-opacity:1"
       d="m 16.0625,7.5585937 c -0.262338,-0.00397 -0.518182,0.082402 -0.507812,0.2617188 0.07244,1.2524069 0.08092,3.5770765 0.509765,4.4824215 -0.437864,0.679074 -1.494271,1.202659 -2.015625,2.046875 -0.452157,0.732168 -0.02075,1.907611 0.216797,3.083985 0.05573,0.275974 0.796346,0.47567 0.822266,0.195312 0.10928,-1.18211 0.09766,-2.857422 0.09766,-2.857422 0.891495,-0.529723 1.646191,-0.910531 2.117187,-1.134765 0.470175,0.225954 1.221775,0.607646 2.111328,1.140625 0,0 -0.01512,1.676873 0.08984,2.859375 0.0249,0.280451 0.76553,0.08241 0.822266,-0.19336 0.241841,-1.175498 0.677994,-2.348215 0.228515,-3.082031 -0.518265,-0.846116 -1.574386,-1.372065 -2.009765,-2.052734 0.432152,-0.903772 0.450328,-3.2302883 0.527344,-4.4824221 0.02205,-0.3585544 -1.02167,-0.3458071 -1.056641,0.011719 -0.100734,1.0298107 -0.213416,2.7436984 -0.427734,2.9062504 -0.121107,0.09185 -0.211094,0.116149 -0.279297,0.105468 -0.06824,0.01043 -0.16048,-0.01512 -0.28125,-0.107421 C 16.813621,10.578854 16.706345,8.8661094 16.609375,7.8359375 16.592543,7.6571119 16.324839,7.5625647 16.0625,7.5585937 Z"
       id="path4-6"
       sodipodi:nodetypes="ssscssscccs"
       transform="rotate(150,16.138932,17.92802)"
       inkscape:original-d="m 15.087222,17.628795 c -0.02592,0.280358 -0.765893,0.08004 -0.821621,-0.195934 -0.237544,-1.176374 -0.668956,-2.351745 -0.216799,-3.083913 0.521354,-0.844216 1.577933,-1.366261 2.015797,-2.045335 -0.428846,-0.905345 -0.437758,-3.2310091 -0.510197,-4.483416 -0.02074,-0.3586326 1.022152,-0.3422582 1.055816,0.015393 0.09697,1.0301719 0.203913,2.743905 0.417636,2.907239 0.427544,0.326742 0.480507,-0.179347 0.480507,-0.179347 l 0.318037,2.834014 c 0,0 -1.119704,0.469749 -2.639983,1.373094 0,0 0.01009,1.676095 -0.09919,2.858205 z"
       inkscape:path-effect="#path-effect5-4" /><path
       id="path1-3"
       style="fill:#6666ff;fill-opacity:1;stroke:#000000;stroke-width:0.265"
       d="m 16.151497,23.5975 c -0.459104,-0.795192 -0.382586,-2.151368 0.412605,-2.610472 0.795191,-0.459104 2.007933,0.15272 2.467036,0.94791 0.459104,0.795191 0.18665,1.811998 -0.608539,2.271101 -0.795191,0.459103 -1.811998,0.186652 -2.271102,-0.608539 z"
       sodipodi:nodetypes="zzzzz" /><path
       id="path1-7-1-1"
       style="fill:#ffffff;stroke:#000000;stroke-width:0.265;stroke-dasharray:none"
       d="m 20.941057,27.299748 c -0.103607,-0.179452 -0.171826,-0.75332 0.140829,-0.933831 0.312655,-0.180511 0.814547,0.155306 0.918154,0.334759 0.103607,0.179452 0.253794,0.299043 -0.361403,0.629563 -0.6152,0.330522 -0.593973,0.148963 -0.69758,-0.03049 z"
       sodipodi:nodetypes="ssszs" /><path
       id="path1-7-1-9-7"
       style="fill:#ffffff;stroke:#000000;stroke-width:0.265;stroke-dasharray:none"
       d="m 18.781479,28.521443 c -0.103607,-0.179452 -0.171826,-0.75332 0.140829,-0.933831 0.312655,-0.180511 0.814547,0.155306 0.918154,0.334759 0.103607,0.179452 0.253793,0.299043 -0.361403,0.629562 -0.615201,0.330522 -0.593973,0.148963 -0.69758,-0.03049 z"
       sodipodi:nodetypes="ssszs" /><path
       style="fill:#999999;fill-opacity:1;stroke:none;stroke-width:0.264999;stroke-dasharray:none;stroke-opacity:1"
       d="m 31.88699,19.344155 c 0.004,0.262339 -0.0824,0.518183 -0.261718,0.507812 -1.252407,-0.07244 -3.577077,-0.08092 -4.482421,-0.509765 -0.679074,0.437864 0.168884,1.45073 -0.675332,1.972084 -0.732168,0.452157 -2.081775,-0.349349 -2.343787,-0.848142 -0.130928,-0.249249 0.472671,-1.037875 0.653739,-0.822266 0.420141,0.500289 0.462663,0.467469 0.985156,0.706945 0.230808,-0.459065 -0.137344,-1.719308 0.08139,-2.246902 -0.0052,-0.588368 -1.157418,-0.378228 -2.051726,-0.567815 -0.217707,0.555148 -0.475221,0.872499 -0.982836,1.609568 -0.280451,-0.0249 -0.928474,-0.366835 -0.704333,-0.622916 0.623439,-0.712278 0.798222,-1.760921 1.26422,-1.937447 0.557528,-0.211198 3.086967,-0.158957 3.767639,0.27643 0.903771,-0.432152 3.230287,-0.450328 4.482421,-0.527344 0.358555,-0.02205 0.345807,1.02167 -0.01172,1.056641 -1.029811,0.100734 -2.743698,0.213416 -2.90625,0.427734 -0.09185,0.121107 -0.116149,0.211094 -0.105468,0.279297 -0.01043,0.06824 0.01512,0.16048 0.107421,0.28125 0.163344,0.213723 1.876089,0.320999 2.906261,0.417969 0.178825,0.01683 0.273372,0.284536 0.277344,0.546875 z"
       id="path4-4-5"
       sodipodi:nodetypes="ssscssccccsscscscssss" /><path
       style="fill:#999999;fill-opacity:1;stroke:none;stroke-width:0.264999;stroke-dasharray:none;stroke-opacity:1"
       d="m 16.0625,7.5585937 c -0.262338,-0.00397 -0.518182,0.082402 -0.507812,0.2617188 0.07244,1.2524069 0.08092,3.5770765 0.509765,4.4824215 -0.437864,0.679074 -1.494271,1.202659 -2.015625,2.046875 -0.452157,0.732168 -0.02075,1.907611 0.216797,3.083985 0.05573,0.275974 0.796346,0.47567 0.822266,0.195312 0.10928,-1.18211 0.09766,-2.857422 0.09766,-2.857422 0.891495,-0.529723 1.646191,-0.910531 2.117187,-1.134765 0.470175,0.225954 1.221775,0.607646 2.111328,1.140625 0,0 -0.01512,1.676873 0.08984,2.859375 0.0249,0.280451 0.76553,0.08241 0.822266,-0.19336 0.241841,-1.175498 0.677994,-2.348215 0.228515,-3.082031 -0.518265,-0.846116 -1.574386,-1.372065 -2.009765,-2.052734 0.432152,-0.903772 0.450328,-3.2302883 0.527344,-4.4824221 0.02205,-0.3585544 -1.02167,-0.3458071 -1.056641,0.011719 -0.100734,1.0298107 -0.213416,2.7436984 -0.427734,2.9062504 -0.121107,0.09185 -0.211094,0.116149 -0.279297,0.105468 -0.06824,0.01043 -0.16048,-0.01512 -0.28125,-0.107421 C 16.813621,10.578854 16.706345,8.8661094 16.609375,7.8359375 16.592543,7.6571119 16.324839,7.5625647 16.0625,7.5585937 Z"
       id="path4-6-3"
       sodipodi:nodetypes="ssscssscccs"
       transform="rotate(-90,15.166435,19.633786)"
       inkscape:original-d="m 15.087222,17.628795 c -0.02592,0.280358 -0.765893,0.08004 -0.821621,-0.195934 -0.237544,-1.176374 -0.668956,-2.351745 -0.216799,-3.083913 0.521354,-0.844216 1.577933,-1.366261 2.015797,-2.045335 -0.428846,-0.905345 -0.437758,-3.2310091 -0.510197,-4.483416 -0.02074,-0.3586326 1.022152,-0.3422582 1.055816,0.015393 0.09697,1.0301719 0.203913,2.743905 0.417636,2.907239 0.427544,0.326742 0.480507,-0.179347 0.480507,-0.179347 l 0.318037,2.834014 c 0,0 -1.119704,0.469749 -2.639983,1.373094 0,0 0.01009,1.676095 -0.09919,2.858205 z"
       inkscape:path-effect="#path-effect5-4-7" /><ellipse
       style="fill:#ffffff;fill-opacity:1;stroke:#000000;stroke-width:0.265;stroke-dasharray:none;stroke-opacity:1"
       id="path1-7-2-9-9-1-5"
       cx="5.0932422"
       cy="-23.516264"
       rx="0.65429264"
       ry="0.80279088"
       transform="rotate(135)" /><ellipse
       style="fill:#ffffff;fill-opacity:1;stroke:#000000;stroke-width:0.265;stroke-dasharray:none;stroke-opacity:1"
       id="path1-7-2-9-9-1-5-6"
       cx="19.378222"
       cy="-3.9023535"
       rx="0.65429264"
       ry="0.80279088"
       transform="rotate(60)" /><ellipse
       style="fill:#ffffff;fill-opacity:1;stroke:#000000;stroke-width:0.265;stroke-dasharray:none;stroke-opacity:1"
       id="path1-7-2-9-9-1-5-6-1"
       cx="17.668573"
       cy="17.580963"
       rx="0.65429264"
       ry="0.80279088" /><path
       id="path1-3-6"
       style="fill:#4d4d4d;fill-opacity:1;stroke:#000000;stroke-width:0.265"
       d="m 8.5444709,15.837435 c 0.9182087,0 2.0544321,0.744355 2.0544321,1.662562 0,0.918208 -1.1362254,1.662561 -2.0544311,1.662561 -0.9182079,0 -1.6625616,-0.744355 -1.6625619,-1.66256 6e-7,-0.918208 0.7443536,-1.662563 1.6625609,-1.662563 z"
       sodipodi:nodetypes="zzzzz" /><path
       id="path1-7-1-1-2"
       style="fill:#ffffff;stroke:#000000;stroke-width:0.265;stroke-dasharray:none"
       d="m 2.9434503,18.134192 c 0.2072135,-10e-7 0.7383072,0.227854 0.7383068,0.588877 -4e-7,0.361022 -0.5417724,0.627765 -0.7489868,0.627765 -0.2072135,0 -0.3858758,0.07027 -0.364516,-0.627766 0.021359,-0.69804 0.1679807,-0.588877 0.375196,-0.588876 z"
       sodipodi:nodetypes="ssszs" /><path
       id="path1-7-1-9-7-9"
       style="fill:#ffffff;stroke:#000000;stroke-width:0.265;stroke-dasharray:none"
       d="m 2.9652205,15.653095 c 0.2072135,-1e-6 0.7383072,0.227854 0.7383068,0.588877 -4e-7,0.361022 -0.5417725,0.627765 -0.7489869,0.627765 -0.2072135,0 -0.3858753,0.07027 -0.3645151,-0.627765 0.02136,-0.698041 0.1679808,-0.588878 0.3751952,-0.588877 z"
       sodipodi:nodetypes="ssszs" /><path
       id="path1-9-9"
       style="fill:#ff6666;fill-opacity:1;stroke:#000000;stroke-width:0.265"
       d="m 26.433759,19.704057 c -0.918208,0 -2.054432,-0.744354 -2.054432,-1.662562 0,-0.918208 1.136225,-1.662561 2.054432,-1.662561 0.918206,0 1.66256,0.744354 1.66256,1.662561 0,0.918207 -0.744353,1.662562 -1.66256,1.662562 z"
       sodipodi:nodetypes="zzzzz" /><path
       id="path1-7-1-2-6"
       style="fill:#ffffff;stroke:#000000;stroke-width:0.265;stroke-dasharray:none"
       d="m 32.05655,17.384878 c -0.207214,0 -0.738307,-0.227855 -0.738307,-0.588877 0,-0.361023 0.541773,-0.627766 0.748987,-0.627766 0.207215,0 0.385877,-0.07027 0.364517,0.627766 -0.02136,0.69804 -0.167981,0.588877 -0.375197,0.588877 z"
       sodipodi:nodetypes="ssszs" /><path
       id="path1-7-1-9-0-2"
       style="fill:#ffffff;stroke:#000000;stroke-width:0.265;stroke-dasharray:none"
       d="m 32.03478,19.865975 c -0.207214,0 -0.738307,-0.227855 -0.738307,-0.588877 0,-0.361023 0.541773,-0.627766 0.748987,-0.627766 0.207214,0 0.385876,-0.07027 0.364516,0.627766 -0.02136,0.69804 -0.167981,0.588877 -0.375196,0.588877 z"
       sodipodi:nodetypes="ssszs" /><ellipse
       style="fill:#ffffff;fill-opacity:1;stroke:#000000;stroke-width:0.265;stroke-dasharray:none;stroke-opacity:1"
       id="path1-7-2-9-9-1-6-1"
       cx="1.6419522"
       cy="-31.246181"
       rx="0.65429264"
       ry="0.80279088"
       transform="matrix(0.67414243,-0.73860137,-0.73860137,-0.67414243,0,0)" /><ellipse
       style="fill:#ffffff;fill-opacity:1;stroke:#000000;stroke-width:0.265;stroke-dasharray:none;stroke-opacity:1"
       id="path1-7-2-9-9-8-7"
       cx="-28.880774"
       cy="5.3223133"
       rx="0.65429264"
       ry="0.80279088"
       transform="matrix(-0.8660254,-0.5,-0.5,0.8660254,0,0)" /><path
       id="path2"
       style="fill:none;stroke:#000000;stroke-width:0.2;stroke-dasharray:none;stroke-opacity:1;marker-end:;marker-start:url(#RoundedArrow)"
       d="M 13.81955,26.733093 C 12.489448,26.857315 8.9301066,26.314618 7.2519936,22.809302"
       sodipodi:nodetypes="cc" /><text
       xml:space="preserve"
       style="font-size:3.175px;text-align:start;writing-mode:lr-tb;direction:ltr;text-anchor:start;fill:#000000;fill-opacity:1;stroke:none;stroke-width:0.2;stroke-dasharray:none;stroke-opacity:1"
       x="4.4598508"
       y="29.467894"
       id="text5"><tspan
         sodipodi:role="line"
         id="tspan5"
         style="font-style:normal;font-variant:normal;font-weight:bold;font-stretch:normal;font-family:'Bitstream Vera Sans';-inkscape-font-specification:'Bitstream Vera Sans Bold';fill:#000000;fill-opacity:1;stroke:none;stroke-width:0.2"
         x="4.4598508"
         y="29.467894">360</tspan></text><path
       id="path1-3-1-5-8-0"
       style="fill:url(#linearGradient4);fill-opacity:1;stroke:none;stroke-width:0.265"
       d="m 21.205487,17.769646 c -1.046977,2.152566 -0.661655,2.70259 -1.314882,0.09892 -0.653227,-2.603673 -1.694638,-2.934187 -2.904801,-3.825551 -0.210835,-0.933362 0.57011,-2.753398 1.483845,-3.037491 1.492653,1.38969 3.782815,4.611559 2.735838,6.764125 z"
       sodipodi:nodetypes="zzcczz" /><path
       id="path1-3-1-5-8-0-8"
       style="fill:url(#linearGradient1);fill-opacity:1;stroke:none;stroke-width:0.265"
       d="m 11.524173,11.605242 c 2.387667,-0.169575 2.67134,-0.778284 0.743109,1.08926 -1.928233,1.867548 -1.693761,2.934693 -1.860624,4.428407 -0.7028957,0.649269 -2.6695667,0.882969 -3.3724656,0.233698 0.4571759,-1.987521 2.1023189,-5.581793 4.4899846,-5.751366 z"
       sodipodi:nodetypes="zzcczz" /><path
       id="path1-3-1-5-8-0-8-0"
       style="fill:url(#linearGradient2);fill-opacity:1;stroke:none;stroke-width:0.265"
       d="m 11.046864,23.144184 c -1.3406897,-1.982993 -2.0096837,-1.924307 0.571772,-1.188182 2.58146,0.736125 3.388399,-5.06e-4 4.765425,-0.602855 0.913731,0.284091 2.099457,1.870428 1.888621,2.803792 -1.949831,0.597834 -5.885134,0.970235 -7.225821,-1.012758 z"
       sodipodi:nodetypes="zzcczz" /><path
       id="path1-3-1-5-8-0-8-0-6"
       style="fill:url(#linearGradient3);fill-opacity:1;stroke:none;stroke-width:0.265"
       d="m 25.081455,13.667267 c -0.09516,2.827765 -0.223494,2.753785 -0.579538,4.377117 0.284091,0.913731 2.501133,0.374998 3.434497,0.164162 0.07443,-1.980619 -0.672369,-3.714261 -0.98944,-4.83596 -0.317071,-1.1217 -1.853042,-2.941079 -1.865519,0.294681 z"
       sodipodi:nodetypes="zcczz" /></g></svg>
