<?xml version="1.0" encoding="UTF-8" standalone="no"?>
<!-- Created with Inkscape (http://www.inkscape.org/) -->

<svg
   width="35mm"
   height="35mm"
   viewBox="0 0 35 35"
   version="1.1"
   id="svg1"
   xml:space="preserve"
   inkscape:version="1.4 (e7c3feb100, 2024-10-09)"
   sodipodi:docname="22_v1.svg"
   xmlns:inkscape="http://www.inkscape.org/namespaces/inkscape"
   xmlns:sodipodi="http://sodipodi.sourceforge.net/DTD/sodipodi-0.dtd"
   xmlns="http://www.w3.org/2000/svg"
   xmlns:svg="http://www.w3.org/2000/svg"><sodipodi:namedview
     id="namedview1"
     pagecolor="#ffffff"
     bordercolor="#000000"
     borderopacity="0.25"
     inkscape:showpageshadow="2"
     inkscape:pageopacity="0.0"
     inkscape:pagecheckerboard="0"
     inkscape:deskcolor="#d1d1d1"
     inkscape:document-units="mm"
     inkscape:zoom="6.0766399"
     inkscape:cx="53.072093"
     inkscape:cy="92.485322"
     inkscape:window-width="1290"
     inkscape:window-height="1023"
     inkscape:window-x="0"
     inkscape:window-y="0"
     inkscape:window-maximized="0"
     inkscape:current-layer="layer1"><sodipodi:guide
       position="0.17416423,17.540036"
       orientation="0,132.28346"
       id="guide5"
       inkscape:locked="false" /><sodipodi:guide
       position="35.000001,35.000001"
       orientation="132.28346,0"
       id="guide6"
       inkscape:locked="false" /><sodipodi:guide
       position="17.503506,35.914363"
       orientation="-132.28346,0"
       id="guide8"
       inkscape:locked="false" /></sodipodi:namedview><defs
     id="defs1"><inkscape:path-effect
       effect="mirror_symmetry"
       start_point="17.297909,16.234992"
       end_point="17.313303,7.810326"
       center_point="17.305606,12.022659"
       id="path-effect5"
       is_visible="true"
       lpeversion="1.2"
       lpesatellites=""
       mode="free"
       discard_orig_path="false"
       fuse_paths="true"
       oposite_fuse="false"
       split_items="false"
       split_open="false"
       link_styles="false" /><inkscape:path-effect
       effect="mirror_symmetry"
       start_point="17.297909,16.234992"
       end_point="17.313303,7.810326"
       center_point="17.305606,12.022659"
       id="path-effect5-7"
       is_visible="true"
       lpeversion="1.2"
       lpesatellites=""
       mode="free"
       discard_orig_path="false"
       fuse_paths="true"
       oposite_fuse="false"
       split_items="false"
       split_open="false"
       link_styles="false" /><inkscape:path-effect
       effect="mirror_symmetry"
       start_point="17.297909,16.234992"
       end_point="17.313303,7.810326"
       center_point="17.305606,12.022659"
       id="path-effect5-6"
       is_visible="true"
       lpeversion="1.2"
       lpesatellites=""
       mode="free"
       discard_orig_path="false"
       fuse_paths="true"
       oposite_fuse="false"
       split_items="false"
       split_open="false"
       link_styles="false" /><inkscape:path-effect
       effect="mirror_symmetry"
       start_point="17.297909,16.234992"
       end_point="17.313303,7.810326"
       center_point="17.305606,12.022659"
       id="path-effect5-3"
       is_visible="true"
       lpeversion="1.2"
       lpesatellites=""
       mode="free"
       discard_orig_path="false"
       fuse_paths="true"
       oposite_fuse="false"
       split_items="false"
       split_open="false"
       link_styles="false" /><inkscape:path-effect
       effect="mirror_symmetry"
       start_point="17.297909,16.234992"
       end_point="17.313303,7.810326"
       center_point="17.305606,12.022659"
       id="path-effect5-66"
       is_visible="true"
       lpeversion="1.2"
       lpesatellites=""
       mode="free"
       discard_orig_path="false"
       fuse_paths="true"
       oposite_fuse="false"
       split_items="false"
       split_open="false"
       link_styles="false" /><inkscape:path-effect
       effect="mirror_symmetry"
       start_point="17.297909,16.234992"
       end_point="17.313303,7.810326"
       center_point="17.305606,12.022659"
       id="path-effect5-4"
       is_visible="true"
       lpeversion="1.2"
       lpesatellites=""
       mode="free"
       discard_orig_path="false"
       fuse_paths="true"
       oposite_fuse="false"
       split_items="false"
       split_open="false"
       link_styles="false" /><inkscape:path-effect
       effect="mirror_symmetry"
       start_point="17.297909,16.234992"
       end_point="17.313303,7.810326"
       center_point="17.305606,12.022659"
       id="path-effect5-4-7"
       is_visible="true"
       lpeversion="1.2"
       lpesatellites=""
       mode="free"
       discard_orig_path="false"
       fuse_paths="true"
       oposite_fuse="false"
       split_items="false"
       split_open="false"
       link_styles="false" /><inkscape:path-effect
       effect="mirror_symmetry"
       start_point="17.297909,16.234992"
       end_point="17.313303,7.810326"
       center_point="17.305606,12.022659"
       id="path-effect5-41"
       is_visible="true"
       lpeversion="1.2"
       lpesatellites=""
       mode="free"
       discard_orig_path="false"
       fuse_paths="true"
       oposite_fuse="false"
       split_items="false"
       split_open="false"
       link_styles="false" /><inkscape:path-effect
       effect="mirror_symmetry"
       start_point="17.297909,16.234992"
       end_point="17.313303,7.810326"
       center_point="17.305606,12.022659"
       id="path-effect5-4-0"
       is_visible="true"
       lpeversion="1.2"
       lpesatellites=""
       mode="free"
       discard_orig_path="false"
       fuse_paths="true"
       oposite_fuse="false"
       split_items="false"
       split_open="false"
       link_styles="false" /><inkscape:path-effect
       effect="mirror_symmetry"
       start_point="17.493844,16.300304"
       end_point="17.509238,7.875638"
       center_point="17.501541,12.087971"
       id="path-effect5-4-0-9"
       is_visible="true"
       lpeversion="1.2"
       lpesatellites=""
       mode="free"
       discard_orig_path="false"
       fuse_paths="true"
       oposite_fuse="false"
       split_items="false"
       split_open="false"
       link_styles="false" /><inkscape:path-effect
       effect="mirror_symmetry"
       start_point="17.297909,16.234992"
       end_point="17.313303,7.810326"
       center_point="17.305606,12.022659"
       id="path-effect5-4-0-0"
       is_visible="true"
       lpeversion="1.2"
       lpesatellites=""
       mode="free"
       discard_orig_path="false"
       fuse_paths="true"
       oposite_fuse="false"
       split_items="false"
       split_open="false"
       link_styles="false" /><inkscape:path-effect
       effect="mirror_symmetry"
       start_point="17.493844,16.300304"
       end_point="17.509238,7.875638"
       center_point="17.501541,12.087971"
       id="path-effect5-4-0-9-7"
       is_visible="true"
       lpeversion="1.2"
       lpesatellites=""
       mode="free"
       discard_orig_path="false"
       fuse_paths="true"
       oposite_fuse="false"
       split_items="false"
       split_open="false"
       link_styles="false" /><inkscape:path-effect
       effect="mirror_symmetry"
       start_point="17.493844,16.300304"
       end_point="17.509238,7.875638"
       center_point="17.501541,12.087971"
       id="path-effect5-4-0-9-3"
       is_visible="true"
       lpeversion="1.2"
       lpesatellites=""
       mode="free"
       discard_orig_path="false"
       fuse_paths="true"
       oposite_fuse="false"
       split_items="false"
       split_open="false"
       link_styles="false" /><inkscape:path-effect
       effect="mirror_symmetry"
       start_point="17.297909,16.234992"
       end_point="17.313303,7.810326"
       center_point="17.305606,12.022659"
       id="path-effect5-61"
       is_visible="true"
       lpeversion="1.2"
       lpesatellites=""
       mode="free"
       discard_orig_path="false"
       fuse_paths="true"
       oposite_fuse="false"
       split_items="false"
       split_open="false"
       link_styles="false" /><inkscape:path-effect
       effect="mirror_symmetry"
       start_point="17.297909,16.234992"
       end_point="17.313303,7.810326"
       center_point="17.305606,12.022659"
       id="path-effect5-4-3"
       is_visible="true"
       lpeversion="1.2"
       lpesatellites=""
       mode="free"
       discard_orig_path="false"
       fuse_paths="true"
       oposite_fuse="false"
       split_items="false"
       split_open="false"
       link_styles="false" /></defs><g
     inkscape:label="Layer 1"
     inkscape:groupmode="layer"
     id="layer1"><path
       style="fill:#999999;fill-opacity:1;stroke:none;stroke-width:0.264999;stroke-dasharray:none;stroke-opacity:1"
       d="m 7.5628707,21.221913 c -0.1346323,-0.225195 -0.1877278,-0.489961 -0.027252,-0.570637 1.1208369,-0.56347 2.8992656,-1.300434 4.1367756,-1.799741 -0.260409,-0.629728 -1.467399,-1.292295 -0.996963,-2.165909 0.407994,-0.757666 2.923971,-0.112689 3.400278,0.188273 0.238011,0.150395 -0.184501,1.038668 -0.460197,0.919132 -0.524194,-0.227279 -1.149379,-0.529885 -1.771164,-0.555818 0.02965,0.512966 1.497644,1.471008 1.572007,2.037286 0.298688,0.506942 1.331382,-0.72396 1.783389,-1.064963 0.08134,-0.540661 -0.117726,-1.340788 0.186076,-1.908655 0.346587,-0.03042 0.692775,0.158402 0.747813,0.477717 0.107305,0.622515 0.211748,1.444208 0.0083,1.932415 -0.196455,0.471503 -2.417096,2.322435 -3.224265,2.285723 -0.566612,0.82614 -2.572347,2.005139 -3.6182189,2.697904 -0.2994603,0.198373 -0.8102801,-0.711889 -0.5181375,-0.920938 0.8414754,-0.602143 2.2694034,-1.556673 2.3030194,-1.823553 0.019,-0.150805 -0.005,-0.240889 -0.04831,-0.294614 -0.0251,-0.06431 -0.09334,-0.131422 -0.233653,-0.189863 -0.248324,-0.103419 -1.7852423,0.660052 -2.7258831,1.091159 -0.1632805,0.07484 -0.3790157,-0.10973 -0.5136251,-0.334936 z"
       id="path4-4-5-5-1-3"
       sodipodi:nodetypes="ssccssccccsscscscssss" /><ellipse
       style="fill:#ffffff;fill-opacity:1;stroke:#000000;stroke-width:0.265;stroke-dasharray:none;stroke-opacity:1"
       id="path1-7-2-9-9-1-6-1-2-3-6"
       cx="-14.002445"
       cy="17.492607"
       rx="0.65429264"
       ry="0.80279088"
       transform="rotate(-77.61303)" /><path
       id="path1-7-1-2-6-5-0-1"
       style="fill:#ffffff;stroke:#000000;stroke-width:0.265;stroke-dasharray:none"
       d="M 7.737892,21.864179 C 7.9173454,21.760572 8.2633575,21.297697 8.082846,20.985043 7.9023345,20.672389 7.2997752,20.712268 7.120322,20.815875 c -0.1794535,0.103607 -0.3693137,0.132087 -0.0018,0.725919 0.3675192,0.593841 0.4399146,0.425992 0.6193688,0.322385 z"
       sodipodi:nodetypes="ssszs" /><path
       id="path1-7-1-9-0-2-6-6-8"
       style="fill:#ffffff;stroke:#000000;stroke-width:0.265;stroke-dasharray:none"
       d="M 8.9972944,24.001986 C 9.1767469,23.89838 9.522759,23.435505 9.342249,23.122853 9.1617367,22.810196 8.5591766,22.850076 8.3797247,22.953684 c -0.1794535,0.103606 -0.3693127,0.132086 -0.0018,0.725918 0.3675182,0.593841 0.4399143,0.425992 0.6193668,0.322385 z"
       sodipodi:nodetypes="ssszs" /><path
       id="path1-9-9-6"
       style="fill:#6666ff;fill-opacity:1;stroke:#000000;stroke-width:0.265"
       d="m 12.001037,18.101383 c 0.795192,-0.459103 2.151368,-0.382586 2.610472,0.412606 0.459105,0.795191 -0.152719,2.007933 -0.947909,2.467035 -0.79519,0.459103 -1.811997,0.18665 -2.271101,-0.608538 -0.459105,-0.795191 -0.186653,-1.811998 0.608538,-2.271103 z"
       sodipodi:nodetypes="zzzzz" /><path
       style="fill:#999999;fill-opacity:1;stroke:none;stroke-width:0.264999;stroke-dasharray:none;stroke-opacity:1"
       d="m 18.746442,5.739089 c 0.262341,-0.004 0.518182,0.0824 0.507811,0.261719 -0.07244,1.252408 -0.323424,3.1610544 -0.509766,4.482423 0.675565,0.08934 1.85286,-0.6246576 2.374214,0.219559 0.452161,0.732166 -1.364394,2.588578 -1.863189,2.850591 -0.249251,0.130926 -0.807262,-0.679117 -0.565893,-0.858109 0.458927,-0.340326 1.033584,-0.730449 1.366935,-1.255964 -0.459067,-0.230805 -2.022753,0.561494 -2.550345,0.342755 -0.588369,0.0052 -1.113212,1.176321 -1.561565,1.943224 0.0304,0.77509 0.05562,1.632368 0.229262,2.25109 -0.277572,0.293592 -1.027831,0.411907 -1.070639,0.03867 -0.07198,-0.627581 -0.272228,-2.157902 -0.205197,-2.67014 0.07251,-0.554126 0.930603,-2.175162 1.365981,-2.855835 -0.432152,-0.9037696 -0.450328,-3.230287 -0.527344,-4.482421 -0.02207,-0.358527 1.021654,-0.345779 1.056625,0.01175 0.100733,1.02981 0.213416,2.743697 0.427733,2.9062494 0.121101,0.09186 0.211116,0.116115 0.279298,0.105469 0.06825,0.01042 0.160485,-0.01512 0.281253,-0.107417 0.213726,-0.1633464 0.320999,-1.8760914 0.41797,-2.9062644 0.01683,-0.178825 0.284537,-0.273372 0.546876,-0.277344 z"
       id="path4-4-5-5-1-3-3"
       sodipodi:nodetypes="ssccssccccsscscscssss" /><ellipse
       style="fill:#ffffff;fill-opacity:1;stroke:#000000;stroke-width:0.265;stroke-dasharray:none;stroke-opacity:1"
       id="path1-7-2-9-9-1-6-1-2-3-6-7"
       cx="22.81831"
       cy="-2.8452687"
       rx="0.65429264"
       ry="0.80279088"
       transform="rotate(42.38697)" /><path
       id="path1-7-1-2-6-5-0-1-6"
       style="fill:#ffffff;stroke:#000000;stroke-width:0.265;stroke-dasharray:none"
       d="m 18.102713,5.569528 c -1e-6,0.207215 0.227854,0.738308 0.588877,0.738307 0.361022,-1e-6 0.627765,-0.541772 0.627765,-0.748986 10e-7,-0.207215 0.07027,-0.385879 -0.627764,-0.364518 -0.698041,0.02136 -0.588877,0.167981 -0.588878,0.375197 z"
       sodipodi:nodetypes="ssszs" /><path
       id="path1-7-1-9-0-2-6-6-8-1"
       style="fill:#ffffff;stroke:#000000;stroke-width:0.265;stroke-dasharray:none"
       d="m 15.621616,5.591299 c -10e-7,0.207214 0.227855,0.738306 0.588874,0.738306 0.361025,1e-6 0.627768,-0.541772 0.627767,-0.748986 2e-6,-0.207214 0.07027,-0.385877 -0.627763,-0.364517 -0.698041,0.02136 -0.588877,0.16798 -0.588877,0.375194 z"
       sodipodi:nodetypes="ssszs" /><path
       id="path1-9-9-6-5"
       style="fill:#4d4d4d;fill-opacity:1;stroke:#000000;stroke-width:0.265"
       d="m 19.229817,11.142918 c -1e-6,0.918208 -0.744355,2.054432 -1.662563,2.054432 -0.918208,10e-7 -1.662562,-1.136225 -1.662561,-2.054431 0,-0.918206 0.744355,-1.6625596 1.66256,-1.6625616 0.918208,-1e-6 1.662563,0.7443526 1.662564,1.6625606 z"
       sodipodi:nodetypes="zzzzz" /><path
       style="fill:#999999;fill-opacity:1;stroke:none;stroke-width:0.264999;stroke-dasharray:none;stroke-opacity:1"
       d="m 27.437129,13.778087 c 0.134633,0.225195 0.187728,0.489961 0.02725,0.570637 -1.120837,0.56347 -2.899265,1.300434 -4.136775,1.799741 0.260409,0.629728 1.467399,1.292295 0.996963,2.165909 -0.407994,0.757666 -2.923971,0.112689 -3.400278,-0.188273 -0.238011,-0.150395 0.184501,-1.038668 0.460197,-0.919132 0.524194,0.227279 1.149379,0.529885 1.771164,0.555818 -0.02965,-0.512966 -1.497644,-1.471008 -1.572007,-2.037286 -0.298688,-0.506942 -1.331382,0.72396 -1.783389,1.064963 -0.08134,0.540661 0.117726,1.340788 -0.186076,1.908655 -0.346587,0.03042 -0.692775,-0.158402 -0.747813,-0.477717 -0.107305,-0.622515 -0.211748,-1.444208 -0.0083,-1.932415 0.196455,-0.471503 2.417096,-2.322435 3.224265,-2.285723 0.566612,-0.82614 2.572347,-2.005139 3.618219,-2.697904 0.29946,-0.198373 0.81028,0.711889 0.518137,0.920938 -0.841475,0.602143 -2.269403,1.556673 -2.303019,1.823553 -0.019,0.150805 0.005,0.240889 0.04831,0.294614 0.0251,0.06431 0.09334,0.131422 0.233653,0.189863 0.248324,0.103419 1.785242,-0.660052 2.725883,-1.091159 0.16328,-0.07484 0.379016,0.10973 0.513625,0.334936 z"
       id="path4-4-5-5-1-3-6"
       sodipodi:nodetypes="ssccssccccsscscscssss" /><ellipse
       style="fill:#ffffff;fill-opacity:1;stroke:#000000;stroke-width:0.265;stroke-dasharray:none;stroke-opacity:1"
       id="path1-7-2-9-9-1-6-1-2-3-6-9"
       cx="12.67483"
       cy="-24.200594"
       rx="0.65429264"
       ry="0.80279088"
       transform="rotate(102.38697)" /><path
       id="path1-7-1-2-6-5-0-1-1"
       style="fill:#ffffff;stroke:#000000;stroke-width:0.265;stroke-dasharray:none"
       d="m 27.262108,13.135821 c -0.179453,0.103607 -0.525465,0.566482 -0.344954,0.879136 0.180511,0.312654 0.783071,0.272775 0.962524,0.169168 0.179453,-0.103607 0.369314,-0.132087 0.0018,-0.725919 -0.367519,-0.593841 -0.439915,-0.425992 -0.619369,-0.322385 z"
       sodipodi:nodetypes="ssszs" /><path
       id="path1-7-1-9-0-2-6-6-8-0"
       style="fill:#ffffff;stroke:#000000;stroke-width:0.265;stroke-dasharray:none"
       d="m 26.002706,10.998014 c -0.179453,0.103606 -0.525465,0.566481 -0.344955,0.879133 0.180512,0.312657 0.783072,0.272777 0.962524,0.169169 0.179454,-0.103606 0.369313,-0.132086 0.0018,-0.725918 -0.367518,-0.593841 -0.439914,-0.425992 -0.619367,-0.322385 z"
       sodipodi:nodetypes="ssszs" /><path
       id="path1-9-9-6-4"
       style="fill:#ff6666;fill-opacity:1;stroke:#000000;stroke-width:0.265"
       d="m 22.998963,16.898617 c -0.795192,0.459103 -2.151368,0.382586 -2.610472,-0.412606 -0.459105,-0.795191 0.152719,-2.007933 0.947909,-2.467035 0.79519,-0.459103 1.811997,-0.18665 2.271101,0.608538 0.459105,0.795191 0.186653,1.811998 -0.608538,2.271103 z"
       sodipodi:nodetypes="zzzzz" /><ellipse
       style="fill:#ffffff;fill-opacity:1;stroke:#000000;stroke-width:0.265;stroke-dasharray:none;stroke-opacity:1"
       id="path1-7-2-9-9-1-3-9-9-8-5-4"
       cx="-14.462541"
       cy="-17.108017"
       rx="0.65429264"
       ry="0.80279088"
       transform="rotate(175.72808)" /><path
       style="fill:#999999;fill-opacity:1;stroke:none;stroke-width:0.264999;stroke-dasharray:none;stroke-opacity:1"
       d="m 16.253556,29.260913 c -0.262341,0.004 -0.518182,-0.0824 -0.507811,-0.261719 0.07244,-1.252408 0.323424,-3.161054 0.509766,-4.482423 -0.675565,-0.08934 -1.85286,0.624658 -2.374214,-0.219559 -0.452161,-0.732166 1.364394,-2.588578 1.863189,-2.850591 0.249251,-0.130926 0.807262,0.679117 0.565893,0.858109 -0.458927,0.340326 -1.033584,0.730449 -1.366935,1.255964 0.459067,0.230805 2.022753,-0.561494 2.550345,-0.342755 0.588369,-0.0052 1.113212,-1.176321 1.561565,-1.943224 -0.0304,-0.77509 -0.05562,-1.632368 -0.229262,-2.25109 0.277572,-0.293592 1.027831,-0.411907 1.070639,-0.03867 0.07198,0.627581 0.272228,2.157902 0.205197,2.67014 -0.07251,0.554126 -0.930603,2.175162 -1.365981,2.855835 0.432152,0.90377 0.450328,3.230287 0.527344,4.482421 0.02207,0.358527 -1.021654,0.345779 -1.056625,-0.01175 -0.100733,-1.02981 -0.213416,-2.743697 -0.427733,-2.906249 -0.121101,-0.09186 -0.211116,-0.116115 -0.279298,-0.105469 -0.06825,-0.01042 -0.160485,0.01512 -0.281253,0.107417 -0.213726,0.163346 -0.320999,1.876091 -0.41797,2.906264 -0.01683,0.178825 -0.284537,0.273372 -0.546876,0.277344 z"
       id="path4-4-5-5-1-3-3-5"
       sodipodi:nodetypes="ssccssccccsscscscssss" /><ellipse
       style="fill:#ffffff;fill-opacity:1;stroke:#000000;stroke-width:0.265;stroke-dasharray:none;stroke-opacity:1"
       id="path1-7-2-9-9-1-6-1-2-3-6-7-2"
       cx="-26.627699"
       cy="-5.1018691"
       rx="0.65429264"
       ry="0.80279088"
       transform="rotate(-137.61303)" /><path
       id="path1-7-1-2-6-5-0-1-6-4"
       style="fill:#ffffff;stroke:#000000;stroke-width:0.265;stroke-dasharray:none"
       d="m 16.897285,29.430474 c 1e-6,-0.207215 -0.227854,-0.738308 -0.588877,-0.738307 -0.361022,10e-7 -0.627765,0.541772 -0.627765,0.748986 -10e-7,0.207215 -0.07027,0.385879 0.627764,0.364518 0.698041,-0.02136 0.588877,-0.167981 0.588878,-0.375197 z"
       sodipodi:nodetypes="ssszs" /><path
       id="path1-7-1-9-0-2-6-6-8-1-4"
       style="fill:#ffffff;stroke:#000000;stroke-width:0.265;stroke-dasharray:none"
       d="m 19.378382,29.408703 c 1e-6,-0.207214 -0.227855,-0.738306 -0.588874,-0.738306 -0.361025,-1e-6 -0.627768,0.541772 -0.627767,0.748986 -2e-6,0.207214 -0.07027,0.385877 0.627763,0.364517 0.698041,-0.02136 0.588877,-0.16798 0.588877,-0.375194 z"
       sodipodi:nodetypes="ssszs" /><path
       id="path1-9-9-6-5-3"
       style="fill:#66ff66;fill-opacity:1;stroke:#000000;stroke-width:0.265"
       d="m 15.770181,23.857084 c 1e-6,-0.918208 0.744355,-2.054432 1.662563,-2.054432 0.918208,-10e-7 1.662562,1.136225 1.662561,2.054431 0,0.918206 -0.744355,1.66256 -1.66256,1.662562 -0.918208,1e-6 -1.662563,-0.744353 -1.662564,-1.662561 z"
       sodipodi:nodetypes="zzzzz" /><ellipse
       style="fill:#ffffff;fill-opacity:1;stroke:#000000;stroke-width:0.265;stroke-dasharray:none;stroke-opacity:1"
       id="path1-7-2-9-9-1-3-9-9-8-5-4-2"
       cx="17.833073"
       cy="20.401897"
       rx="0.65429264"
       ry="0.80279088"
       transform="rotate(-4.27192)" /></g></svg>
