<?xml version="1.0" encoding="UTF-8" standalone="no"?>
<!-- Created with Inkscape (http://www.inkscape.org/) -->

<svg
   width="35mm"
   height="35mm"
   viewBox="0 0 35 35"
   version="1.1"
   id="svg1"
   xml:space="preserve"
   inkscape:version="1.4 (e7c3feb100, 2024-10-09)"
   sodipodi:docname="22_v2_end.svg"
   xmlns:inkscape="http://www.inkscape.org/namespaces/inkscape"
   xmlns:sodipodi="http://sodipodi.sourceforge.net/DTD/sodipodi-0.dtd"
   xmlns="http://www.w3.org/2000/svg"
   xmlns:svg="http://www.w3.org/2000/svg"><sodipodi:namedview
     id="namedview1"
     pagecolor="#ffffff"
     bordercolor="#000000"
     borderopacity="0.25"
     inkscape:showpageshadow="2"
     inkscape:pageopacity="0.0"
     inkscape:pagecheckerboard="0"
     inkscape:deskcolor="#d1d1d1"
     inkscape:document-units="mm"
     inkscape:zoom="3.03832"
     inkscape:cx="128.52498"
     inkscape:cy="111.57482"
     inkscape:window-width="1916"
     inkscape:window-height="1023"
     inkscape:window-x="0"
     inkscape:window-y="0"
     inkscape:window-maximized="0"
     inkscape:current-layer="layer1"><sodipodi:guide
       position="0.17416423,17.540036"
       orientation="0,132.28346"
       id="guide5"
       inkscape:locked="false" /><sodipodi:guide
       position="35.000001,35.000001"
       orientation="132.28346,0"
       id="guide6"
       inkscape:locked="false" /><sodipodi:guide
       position="17.503506,35.914363"
       orientation="-132.28346,0"
       id="guide8"
       inkscape:locked="false" /></sodipodi:namedview><defs
     id="defs1"><inkscape:path-effect
       effect="mirror_symmetry"
       start_point="17.297909,16.234992"
       end_point="17.313303,7.810326"
       center_point="17.305606,12.022659"
       id="path-effect5"
       is_visible="true"
       lpeversion="1.2"
       lpesatellites=""
       mode="free"
       discard_orig_path="false"
       fuse_paths="true"
       oposite_fuse="false"
       split_items="false"
       split_open="false"
       link_styles="false" /><inkscape:path-effect
       effect="mirror_symmetry"
       start_point="17.297909,16.234992"
       end_point="17.313303,7.810326"
       center_point="17.305606,12.022659"
       id="path-effect5-7"
       is_visible="true"
       lpeversion="1.2"
       lpesatellites=""
       mode="free"
       discard_orig_path="false"
       fuse_paths="true"
       oposite_fuse="false"
       split_items="false"
       split_open="false"
       link_styles="false" /><inkscape:path-effect
       effect="mirror_symmetry"
       start_point="17.297909,16.234992"
       end_point="17.313303,7.810326"
       center_point="17.305606,12.022659"
       id="path-effect5-6"
       is_visible="true"
       lpeversion="1.2"
       lpesatellites=""
       mode="free"
       discard_orig_path="false"
       fuse_paths="true"
       oposite_fuse="false"
       split_items="false"
       split_open="false"
       link_styles="false" /><inkscape:path-effect
       effect="mirror_symmetry"
       start_point="17.297909,16.234992"
       end_point="17.313303,7.810326"
       center_point="17.305606,12.022659"
       id="path-effect5-3"
       is_visible="true"
       lpeversion="1.2"
       lpesatellites=""
       mode="free"
       discard_orig_path="false"
       fuse_paths="true"
       oposite_fuse="false"
       split_items="false"
       split_open="false"
       link_styles="false" /><inkscape:path-effect
       effect="mirror_symmetry"
       start_point="17.297909,16.234992"
       end_point="17.313303,7.810326"
       center_point="17.305606,12.022659"
       id="path-effect5-66"
       is_visible="true"
       lpeversion="1.2"
       lpesatellites=""
       mode="free"
       discard_orig_path="false"
       fuse_paths="true"
       oposite_fuse="false"
       split_items="false"
       split_open="false"
       link_styles="false" /><inkscape:path-effect
       effect="mirror_symmetry"
       start_point="17.297909,16.234992"
       end_point="17.313303,7.810326"
       center_point="17.305606,12.022659"
       id="path-effect5-4"
       is_visible="true"
       lpeversion="1.2"
       lpesatellites=""
       mode="free"
       discard_orig_path="false"
       fuse_paths="true"
       oposite_fuse="false"
       split_items="false"
       split_open="false"
       link_styles="false" /><inkscape:path-effect
       effect="mirror_symmetry"
       start_point="17.297909,16.234992"
       end_point="17.313303,7.810326"
       center_point="17.305606,12.022659"
       id="path-effect5-4-7"
       is_visible="true"
       lpeversion="1.2"
       lpesatellites=""
       mode="free"
       discard_orig_path="false"
       fuse_paths="true"
       oposite_fuse="false"
       split_items="false"
       split_open="false"
       link_styles="false" /><inkscape:path-effect
       effect="mirror_symmetry"
       start_point="17.297909,16.234992"
       end_point="17.313303,7.810326"
       center_point="17.305606,12.022659"
       id="path-effect5-41"
       is_visible="true"
       lpeversion="1.2"
       lpesatellites=""
       mode="free"
       discard_orig_path="false"
       fuse_paths="true"
       oposite_fuse="false"
       split_items="false"
       split_open="false"
       link_styles="false" /><inkscape:path-effect
       effect="mirror_symmetry"
       start_point="17.297909,16.234992"
       end_point="17.313303,7.810326"
       center_point="17.305606,12.022659"
       id="path-effect5-4-0"
       is_visible="true"
       lpeversion="1.2"
       lpesatellites=""
       mode="free"
       discard_orig_path="false"
       fuse_paths="true"
       oposite_fuse="false"
       split_items="false"
       split_open="false"
       link_styles="false" /><inkscape:path-effect
       effect="mirror_symmetry"
       start_point="17.493844,16.300304"
       end_point="17.509238,7.875638"
       center_point="17.501541,12.087971"
       id="path-effect5-4-0-9"
       is_visible="true"
       lpeversion="1.2"
       lpesatellites=""
       mode="free"
       discard_orig_path="false"
       fuse_paths="true"
       oposite_fuse="false"
       split_items="false"
       split_open="false"
       link_styles="false" /><inkscape:path-effect
       effect="mirror_symmetry"
       start_point="17.297909,16.234992"
       end_point="17.313303,7.810326"
       center_point="17.305606,12.022659"
       id="path-effect5-4-0-0"
       is_visible="true"
       lpeversion="1.2"
       lpesatellites=""
       mode="free"
       discard_orig_path="false"
       fuse_paths="true"
       oposite_fuse="false"
       split_items="false"
       split_open="false"
       link_styles="false" /><inkscape:path-effect
       effect="mirror_symmetry"
       start_point="17.493844,16.300304"
       end_point="17.509238,7.875638"
       center_point="17.501541,12.087971"
       id="path-effect5-4-0-9-7"
       is_visible="true"
       lpeversion="1.2"
       lpesatellites=""
       mode="free"
       discard_orig_path="false"
       fuse_paths="true"
       oposite_fuse="false"
       split_items="false"
       split_open="false"
       link_styles="false" /><inkscape:path-effect
       effect="mirror_symmetry"
       start_point="17.493844,16.300304"
       end_point="17.509238,7.875638"
       center_point="17.501541,12.087971"
       id="path-effect5-4-0-9-3"
       is_visible="true"
       lpeversion="1.2"
       lpesatellites=""
       mode="free"
       discard_orig_path="false"
       fuse_paths="true"
       oposite_fuse="false"
       split_items="false"
       split_open="false"
       link_styles="false" /><inkscape:path-effect
       effect="mirror_symmetry"
       start_point="17.297909,16.234992"
       end_point="17.313303,7.810326"
       center_point="17.305606,12.022659"
       id="path-effect5-61"
       is_visible="true"
       lpeversion="1.2"
       lpesatellites=""
       mode="free"
       discard_orig_path="false"
       fuse_paths="true"
       oposite_fuse="false"
       split_items="false"
       split_open="false"
       link_styles="false" /><inkscape:path-effect
       effect="mirror_symmetry"
       start_point="17.297909,16.234992"
       end_point="17.313303,7.810326"
       center_point="17.305606,12.022659"
       id="path-effect5-4-3"
       is_visible="true"
       lpeversion="1.2"
       lpesatellites=""
       mode="free"
       discard_orig_path="false"
       fuse_paths="true"
       oposite_fuse="false"
       split_items="false"
       split_open="false"
       link_styles="false" /></defs><g
     inkscape:label="Layer 1"
     inkscape:groupmode="layer"
     id="layer1"><path
       style="fill:#999999;fill-opacity:1;stroke:none;stroke-width:0.264999;stroke-dasharray:none;stroke-opacity:1"
       d="m 21.221913,27.437129 c -0.225195,0.134633 -0.489961,0.187728 -0.570637,0.02725 -0.56347,-1.120837 -1.300434,-2.899265 -1.799741,-4.136775 -0.629728,0.260409 -1.292295,1.467399 -2.165909,0.996963 -0.757666,-0.407994 -0.112689,-2.923971 0.188273,-3.400278 0.150395,-0.238011 1.038668,0.184501 0.919132,0.460197 -0.227279,0.524194 -0.529885,1.149379 -0.555818,1.771164 0.512966,-0.02965 1.471008,-1.497644 2.037286,-1.572007 0.506942,-0.298688 -0.72396,-1.331382 -1.064963,-1.783389 -0.540661,-0.08134 -1.340788,0.117726 -1.908655,-0.186076 -0.03042,-0.346587 0.158402,-0.692775 0.477717,-0.747813 0.622515,-0.107305 1.444208,-0.211748 1.932415,-0.0083 0.471503,0.196455 2.322435,2.417096 2.285723,3.224265 0.82614,0.566612 2.005139,2.572347 2.697904,3.618219 0.198373,0.29946 -0.711889,0.81028 -0.920938,0.518137 -0.602143,-0.841475 -1.556673,-2.269403 -1.823553,-2.303019 -0.150805,-0.019 -0.240889,0.005 -0.294614,0.04831 -0.06431,0.0251 -0.131422,0.09334 -0.189863,0.233653 -0.103419,0.248324 0.660052,1.785242 1.091159,2.725883 0.07484,0.16328 -0.10973,0.379016 -0.334936,0.513625 z"
       id="path4-4-5-5-1-3"
       sodipodi:nodetypes="ssccssccccsscscscssss" /><ellipse
       style="fill:#ffffff;fill-opacity:1;stroke:#000000;stroke-width:0.265;stroke-dasharray:none;stroke-opacity:1"
       id="path1-7-2-9-9-1-6-1-2-3-6"
       cx="-21.510408"
       cy="-16.692631"
       rx="0.65429264"
       ry="0.80279088"
       transform="rotate(-167.61303)" /><path
       id="path1-7-1-2-6-5-0-1"
       style="fill:#ffffff;stroke:#000000;stroke-width:0.265;stroke-dasharray:none"
       d="m 21.864179,27.262108 c -0.103607,-0.179453 -0.566482,-0.525465 -0.879136,-0.344954 -0.312654,0.180511 -0.272775,0.783071 -0.169168,0.962524 0.103607,0.179453 0.132087,0.369314 0.725919,0.0018 0.593841,-0.367519 0.425992,-0.439915 0.322385,-0.619369 z"
       sodipodi:nodetypes="ssszs" /><path
       id="path1-7-1-9-0-2-6-6-8"
       style="fill:#ffffff;stroke:#000000;stroke-width:0.265;stroke-dasharray:none"
       d="m 24.001986,26.002706 c -0.103606,-0.179453 -0.566481,-0.525465 -0.879133,-0.344955 -0.312657,0.180512 -0.272777,0.783072 -0.169169,0.962524 0.103606,0.179454 0.132086,0.369313 0.725918,0.0018 0.593841,-0.367518 0.425992,-0.439914 0.322385,-0.619367 z"
       sodipodi:nodetypes="ssszs" /><path
       id="path1-9-9-6"
       style="fill:#66ff66;fill-opacity:1;stroke:#000000;stroke-width:0.265"
       d="m 18.101383,22.998963 c -0.459103,-0.795192 -0.382586,-2.151368 0.412606,-2.610472 0.795191,-0.459105 2.007933,0.152719 2.467035,0.947909 0.459103,0.79519 0.18665,1.811997 -0.608538,2.271101 -0.795191,0.459105 -1.811998,0.186653 -2.271103,-0.608538 z"
       sodipodi:nodetypes="zzzzz" /><ellipse
       style="fill:#ffffff;fill-opacity:1;stroke:#000000;stroke-width:0.265;stroke-dasharray:none;stroke-opacity:1"
       id="path1-7-2-9-9-1-3-9-9-8-5-4"
       cx="20.440222"
       cy="-14.500867"
       rx="0.65429264"
       ry="0.80279088"
       transform="rotate(85.72808)" /><path
       style="fill:#999999;fill-opacity:1;stroke:none;stroke-width:0.264999;stroke-dasharray:none;stroke-opacity:1"
       d="m 5.739089,16.253558 c -0.004,-0.262341 0.0824,-0.518182 0.261719,-0.507811 1.252408,0.07244 3.1610544,0.323424 4.482423,0.509766 0.08934,-0.675565 -0.6246576,-1.85286 0.219559,-2.374214 0.732166,-0.452161 2.588578,1.364394 2.850591,1.863189 0.130926,0.249251 -0.679117,0.807262 -0.858109,0.565893 -0.340326,-0.458927 -0.730449,-1.033584 -1.255964,-1.366935 -0.230805,0.459067 0.561494,2.022753 0.342755,2.550345 0.0052,0.588369 1.514991,0.03872 2.076942,-0.03059 0.340773,-0.427556 0.56844,-1.22002 1.115474,-1.559906 0.315363,0.146949 0.52076,0.483568 0.408766,0.787622 -0.218328,0.592766 -0.538724,1.356594 -0.959019,1.67767 -0.405887,0.310106 -3.254484,0.80274 -3.935157,0.367362 -0.9037696,0.432152 -3.230287,0.450328 -4.482421,0.527344 -0.358527,0.02207 -0.345779,-1.021654 0.01175,-1.056625 1.02981,-0.100733 2.743697,-0.213416 2.9062494,-0.427733 0.09186,-0.121101 0.116115,-0.211116 0.105469,-0.279298 0.01042,-0.06825 -0.01512,-0.160485 -0.107417,-0.281253 C 8.759353,17.004658 7.046608,16.897385 6.016435,16.800414 5.83761,16.783584 5.743063,16.515877 5.739091,16.253538 Z"
       id="path4-4-5-5-1-3-3"
       sodipodi:nodetypes="ssccssccccsscscscssss" /><ellipse
       style="fill:#ffffff;fill-opacity:1;stroke:#000000;stroke-width:0.265;stroke-dasharray:none;stroke-opacity:1"
       id="path1-7-2-9-9-1-6-1-2-3-6-7"
       cx="-3.0329936"
       cy="20.749437"
       rx="0.65429264"
       ry="0.80279088"
       transform="rotate(-47.61303)" /><path
       id="path1-7-1-2-6-5-0-1-6"
       style="fill:#ffffff;stroke:#000000;stroke-width:0.265;stroke-dasharray:none"
       d="m 5.569528,16.897287 c 0.207215,1e-6 0.738308,-0.227854 0.738307,-0.588877 -1e-6,-0.361022 -0.541772,-0.627765 -0.748986,-0.627765 -0.207215,-1e-6 -0.385879,-0.07027 -0.364518,0.627764 0.02136,0.698041 0.167981,0.588877 0.375197,0.588878 z"
       sodipodi:nodetypes="ssszs" /><path
       id="path1-7-1-9-0-2-6-6-8-1"
       style="fill:#ffffff;stroke:#000000;stroke-width:0.265;stroke-dasharray:none"
       d="m 5.591299,19.378384 c 0.207214,1e-6 0.738306,-0.227855 0.738306,-0.588874 1e-6,-0.361025 -0.541772,-0.627768 -0.748986,-0.627767 -0.207214,-2e-6 -0.385877,-0.07027 -0.364517,0.627763 0.02136,0.698041 0.16798,0.588877 0.375194,0.588877 z"
       sodipodi:nodetypes="ssszs" /><path
       id="path1-9-9-6-5"
       style="fill:#6666ff;fill-opacity:1;stroke:#000000;stroke-width:0.265"
       d="m 11.142918,15.770183 c 0.918208,1e-6 2.054432,0.744355 2.054432,1.662563 10e-7,0.918208 -1.136225,1.662562 -2.054431,1.662561 -0.918206,0 -1.6625596,-0.744355 -1.6625616,-1.66256 -1e-6,-0.918208 0.7443526,-1.662563 1.6625606,-1.662564 z"
       sodipodi:nodetypes="zzzzz" /><path
       style="fill:#999999;fill-opacity:1;stroke:none;stroke-width:0.264999;stroke-dasharray:none;stroke-opacity:1"
       d="m 13.778087,7.562871 c 0.225195,-0.134633 0.489961,-0.187728 0.570637,-0.02725 0.56347,1.120837 1.300434,2.899265 1.799741,4.136775 0.629728,-0.260409 1.292295,-1.467399 2.165909,-0.996963 0.757666,0.407994 0.112689,2.923971 -0.188273,3.400278 -0.150395,0.238011 -1.038668,-0.184501 -0.919132,-0.460197 0.227279,-0.524194 0.529885,-1.149379 0.555818,-1.771164 -0.512966,0.02965 -1.471008,1.497644 -2.037286,1.572007 -0.506942,0.298688 0.72396,1.331382 1.064963,1.783389 0.540661,0.08134 1.340788,-0.117726 1.908655,0.186076 0.03042,0.346587 -0.158402,0.692775 -0.477717,0.747813 -0.622515,0.107305 -1.444208,0.211748 -1.932415,0.0083 -0.471503,-0.196455 -2.322435,-2.417096 -2.285723,-3.224265 -0.82614,-0.566612 -2.005139,-2.572347 -2.697904,-3.618219 -0.198373,-0.29946 0.711889,-0.81028 0.920938,-0.518137 0.602143,0.841475 1.556673,2.269403 1.823553,2.303019 0.150805,0.019 0.240889,-0.005 0.294614,-0.04831 0.06431,-0.0251 0.131422,-0.09334 0.189863,-0.233653 0.103419,-0.248324 -0.660052,-1.785242 -1.091159,-2.725883 -0.07484,-0.16328 0.10973,-0.379016 0.334936,-0.513625 z"
       id="path4-4-5-5-1-3-6"
       sodipodi:nodetypes="ssccssccccsscscscssss" /><ellipse
       style="fill:#ffffff;fill-opacity:1;stroke:#000000;stroke-width:0.265;stroke-dasharray:none;stroke-opacity:1"
       id="path1-7-2-9-9-1-6-1-2-3-6-9"
       cx="20.182793"
       cy="9.9846439"
       rx="0.65429264"
       ry="0.80279088"
       transform="rotate(12.38697)" /><path
       id="path1-7-1-2-6-5-0-1-1"
       style="fill:#ffffff;stroke:#000000;stroke-width:0.265;stroke-dasharray:none"
       d="m 13.135821,7.737892 c 0.103607,0.179453 0.566482,0.525465 0.879136,0.344954 0.312654,-0.180511 0.272775,-0.783071 0.169168,-0.962524 -0.103607,-0.179453 -0.132087,-0.369314 -0.725919,-0.0018 -0.593841,0.367519 -0.425992,0.439915 -0.322385,0.61937 z"
       sodipodi:nodetypes="ssszs" /><path
       id="path1-7-1-9-0-2-6-6-8-0"
       style="fill:#ffffff;stroke:#000000;stroke-width:0.265;stroke-dasharray:none"
       d="M 10.998014,8.997294 C 11.10162,9.176747 11.564495,9.522759 11.877147,9.342249 12.189804,9.161737 12.149924,8.559177 12.046316,8.379725 11.94271,8.200271 11.91423,8.010412 11.320398,8.377925 10.726557,8.745443 10.894406,8.817839 10.998013,8.997292 Z"
       sodipodi:nodetypes="ssszs" /><path
       id="path1-9-9-6-4"
       style="fill:#4d4d4d;fill-opacity:1;stroke:#000000;stroke-width:0.265"
       d="m 16.898617,12.001037 c 0.459103,0.795192 0.382586,2.151368 -0.412606,2.610472 -0.795191,0.459105 -2.007933,-0.152719 -2.467035,-0.947909 -0.459103,-0.79519 -0.18665,-1.811997 0.608538,-2.271101 0.795191,-0.459105 1.811998,-0.186653 2.271103,0.608538 z"
       sodipodi:nodetypes="zzzzz" /><ellipse
       style="fill:#ffffff;fill-opacity:1;stroke:#000000;stroke-width:0.265;stroke-dasharray:none;stroke-opacity:1"
       id="path1-7-2-9-9-1-3-9-9-8-5-4-2"
       cx="-17.069689"
       cy="17.794746"
       rx="0.65429264"
       ry="0.80279088"
       transform="rotate(-94.27192)" /><path
       style="fill:#999999;fill-opacity:1;stroke:none;stroke-width:0.264999;stroke-dasharray:none;stroke-opacity:1"
       d="m 29.260911,18.746442 c 0.004,0.262341 -0.0824,0.518182 -0.261719,0.507811 -1.252408,-0.07244 -3.161054,-0.323424 -4.482423,-0.509766 -0.08934,0.675565 0.624658,1.85286 -0.219559,2.374214 -0.732166,0.452161 -2.588578,-1.364394 -2.850591,-1.863189 -0.130926,-0.249251 0.679117,-0.807262 0.858109,-0.565893 0.340326,0.458927 0.730449,1.033584 1.255964,1.366935 0.230805,-0.459067 -0.561494,-2.022753 -0.342755,-2.550345 -0.0052,-0.588369 -1.514991,-0.03872 -2.076942,0.03059 -0.340773,0.427556 -0.56844,1.22002 -1.115474,1.559906 -0.315363,-0.146949 -0.52076,-0.483568 -0.408766,-0.787622 0.218328,-0.592766 0.538724,-1.356594 0.959019,-1.67767 0.405887,-0.310106 3.254484,-0.80274 3.935157,-0.367362 0.90377,-0.432152 3.230287,-0.450328 4.482421,-0.527344 0.358527,-0.02207 0.345779,1.021654 -0.01175,1.056625 -1.02981,0.100733 -2.743697,0.213416 -2.906249,0.427733 -0.09186,0.121101 -0.116115,0.211116 -0.105469,0.279298 -0.01042,0.06825 0.01512,0.160485 0.107417,0.281253 0.163346,0.213726 1.876091,0.320999 2.906264,0.41797 0.178825,0.01683 0.273372,0.284537 0.277344,0.546876 z"
       id="path4-4-5-5-1-3-3-7"
       sodipodi:nodetypes="ssccssccccsscscscssss" /><ellipse
       style="fill:#ffffff;fill-opacity:1;stroke:#000000;stroke-width:0.265;stroke-dasharray:none;stroke-opacity:1"
       id="path1-7-2-9-9-1-6-1-2-3-6-7-4"
       cx="-0.7763955"
       cy="-28.696571"
       rx="0.65429264"
       ry="0.80279088"
       transform="rotate(132.38697)" /><path
       id="path1-7-1-2-6-5-0-1-6-0"
       style="fill:#ffffff;stroke:#000000;stroke-width:0.265;stroke-dasharray:none"
       d="m 29.430472,18.102713 c -0.207215,-1e-6 -0.738308,0.227854 -0.738307,0.588877 1e-6,0.361022 0.541772,0.627765 0.748986,0.627765 0.207215,10e-7 0.385879,0.07027 0.364518,-0.627764 -0.02136,-0.698041 -0.167981,-0.588877 -0.375197,-0.588878 z"
       sodipodi:nodetypes="ssszs" /><path
       id="path1-7-1-9-0-2-6-6-8-1-3"
       style="fill:#ffffff;stroke:#000000;stroke-width:0.265;stroke-dasharray:none"
       d="m 29.408701,15.621616 c -0.207214,-10e-7 -0.738306,0.227855 -0.738306,0.588874 -10e-7,0.361025 0.541772,0.627768 0.748986,0.627767 0.207214,2e-6 0.385877,0.07027 0.364517,-0.627763 -0.02136,-0.698041 -0.16798,-0.588877 -0.375194,-0.588877 z"
       sodipodi:nodetypes="ssszs" /><path
       id="path1-9-9-6-5-2"
       style="fill:#ff6666;fill-opacity:1;stroke:#000000;stroke-width:0.265"
       d="m 23.857082,19.229817 c -0.918208,-1e-6 -2.054432,-0.744355 -2.054432,-1.662563 -1e-6,-0.918208 1.136225,-1.662562 2.054431,-1.662561 0.918206,0 1.66256,0.744355 1.662562,1.66256 1e-6,0.918208 -0.744353,1.662563 -1.662561,1.662564 z"
       sodipodi:nodetypes="zzzzz" /><ellipse
       style="fill:#ffffff;fill-opacity:1;stroke:#000000;stroke-width:0.265;stroke-dasharray:none;stroke-opacity:1"
       id="path1-7-2-9-9-1-3-9-9-8-5-4-0-8"
       cx="27.260981"
       cy="1.8000634"
       rx="0.65429264"
       ry="0.80279088"
       transform="rotate(40.72808)" /><ellipse
       style="fill:#ffffff;fill-opacity:1;stroke:#000000;stroke-width:0.265;stroke-dasharray:none;stroke-opacity:1"
       id="path1-7-2-9-9-1-3-9-9-8-5-4-0"
       cx="-22.09898"
       cy="-1.8870041"
       rx="0.65429264"
       ry="0.80279088"
       transform="rotate(-139.27192)" /></g></svg>
