<?xml version="1.0" encoding="UTF-8" standalone="no"?>
<!-- Created with Inkscape (http://www.inkscape.org/) -->

<svg
   width="35mm"
   height="35mm"
   viewBox="0 0 35 35"
   version="1.1"
   id="svg1"
   xml:space="preserve"
   inkscape:version="1.4 (e7c3feb100, 2024-10-09)"
   sodipodi:docname="2_v1.svg"
   xmlns:inkscape="http://www.inkscape.org/namespaces/inkscape"
   xmlns:sodipodi="http://sodipodi.sourceforge.net/DTD/sodipodi-0.dtd"
   xmlns="http://www.w3.org/2000/svg"
   xmlns:svg="http://www.w3.org/2000/svg"><sodipodi:namedview
     id="namedview1"
     pagecolor="#ffffff"
     bordercolor="#000000"
     borderopacity="0.25"
     inkscape:showpageshadow="2"
     inkscape:pageopacity="0.0"
     inkscape:pagecheckerboard="0"
     inkscape:deskcolor="#d1d1d1"
     inkscape:document-units="mm"
     inkscape:zoom="6.0766399"
     inkscape:cx="56.527951"
     inkscape:cy="65.085311"
     inkscape:window-width="1920"
     inkscape:window-height="1080"
     inkscape:window-x="0"
     inkscape:window-y="0"
     inkscape:window-maximized="0"
     inkscape:current-layer="layer1"
     showgrid="false"><sodipodi:guide
       position="25.431035,17.543103"
       orientation="0,132.28346"
       id="guide5"
       inkscape:locked="false" /><sodipodi:guide
       position="35.000001,35.000001"
       orientation="132.28346,0"
       id="guide6"
       inkscape:locked="false" /><sodipodi:guide
       position="35.000001,0"
       orientation="0,-132.28346"
       id="guide7"
       inkscape:locked="false" /><sodipodi:guide
       position="17.503506,35.914363"
       orientation="-132.28346,0"
       id="guide8"
       inkscape:locked="false" /></sodipodi:namedview><defs
     id="defs1"><inkscape:path-effect
       effect="mirror_symmetry"
       start_point="17.297909,16.234992"
       end_point="17.313303,7.810326"
       center_point="17.305606,12.022659"
       id="path-effect5"
       is_visible="true"
       lpeversion="1.2"
       lpesatellites=""
       mode="free"
       discard_orig_path="false"
       fuse_paths="true"
       oposite_fuse="false"
       split_items="false"
       split_open="false"
       link_styles="false" /><inkscape:path-effect
       effect="mirror_symmetry"
       start_point="17.297909,16.234992"
       end_point="17.313303,7.810326"
       center_point="17.305606,12.022659"
       id="path-effect5-7"
       is_visible="true"
       lpeversion="1.2"
       lpesatellites=""
       mode="free"
       discard_orig_path="false"
       fuse_paths="true"
       oposite_fuse="false"
       split_items="false"
       split_open="false"
       link_styles="false" /><inkscape:path-effect
       effect="mirror_symmetry"
       start_point="17.297909,16.234992"
       end_point="17.313303,7.810326"
       center_point="17.305606,12.022659"
       id="path-effect5-6"
       is_visible="true"
       lpeversion="1.2"
       lpesatellites=""
       mode="free"
       discard_orig_path="false"
       fuse_paths="true"
       oposite_fuse="false"
       split_items="false"
       split_open="false"
       link_styles="false" /><inkscape:path-effect
       effect="mirror_symmetry"
       start_point="17.297909,16.234992"
       end_point="17.313303,7.810326"
       center_point="17.305606,12.022659"
       id="path-effect5-3"
       is_visible="true"
       lpeversion="1.2"
       lpesatellites=""
       mode="free"
       discard_orig_path="false"
       fuse_paths="true"
       oposite_fuse="false"
       split_items="false"
       split_open="false"
       link_styles="false" /><inkscape:path-effect
       effect="mirror_symmetry"
       start_point="17.297909,16.234992"
       end_point="17.313303,7.810326"
       center_point="17.305606,12.022659"
       id="path-effect5-66"
       is_visible="true"
       lpeversion="1.2"
       lpesatellites=""
       mode="free"
       discard_orig_path="false"
       fuse_paths="true"
       oposite_fuse="false"
       split_items="false"
       split_open="false"
       link_styles="false" /><inkscape:path-effect
       effect="mirror_symmetry"
       start_point="17.297909,16.234992"
       end_point="17.313303,7.810326"
       center_point="17.305606,12.022659"
       id="path-effect5-4"
       is_visible="true"
       lpeversion="1.2"
       lpesatellites=""
       mode="free"
       discard_orig_path="false"
       fuse_paths="true"
       oposite_fuse="false"
       split_items="false"
       split_open="false"
       link_styles="false" /><inkscape:path-effect
       effect="mirror_symmetry"
       start_point="17.297909,16.234992"
       end_point="17.313303,7.810326"
       center_point="17.305606,12.022659"
       id="path-effect5-4-7"
       is_visible="true"
       lpeversion="1.2"
       lpesatellites=""
       mode="free"
       discard_orig_path="false"
       fuse_paths="true"
       oposite_fuse="false"
       split_items="false"
       split_open="false"
       link_styles="false" /><inkscape:path-effect
       effect="mirror_symmetry"
       start_point="17.297909,16.234992"
       end_point="17.313303,7.810326"
       center_point="17.305606,12.022659"
       id="path-effect5-41"
       is_visible="true"
       lpeversion="1.2"
       lpesatellites=""
       mode="free"
       discard_orig_path="false"
       fuse_paths="true"
       oposite_fuse="false"
       split_items="false"
       split_open="false"
       link_styles="false" /><inkscape:path-effect
       effect="mirror_symmetry"
       start_point="17.297909,16.234992"
       end_point="17.313303,7.810326"
       center_point="17.305606,12.022659"
       id="path-effect5-4-0"
       is_visible="true"
       lpeversion="1.2"
       lpesatellites=""
       mode="free"
       discard_orig_path="false"
       fuse_paths="true"
       oposite_fuse="false"
       split_items="false"
       split_open="false"
       link_styles="false" /><inkscape:path-effect
       effect="mirror_symmetry"
       start_point="17.493844,16.300304"
       end_point="17.509238,7.875638"
       center_point="17.501541,12.087971"
       id="path-effect5-4-0-9"
       is_visible="true"
       lpeversion="1.2"
       lpesatellites=""
       mode="free"
       discard_orig_path="false"
       fuse_paths="true"
       oposite_fuse="false"
       split_items="false"
       split_open="false"
       link_styles="false" /><inkscape:path-effect
       effect="mirror_symmetry"
       start_point="17.297909,16.234992"
       end_point="17.313303,7.810326"
       center_point="17.305606,12.022659"
       id="path-effect5-4-0-0"
       is_visible="true"
       lpeversion="1.2"
       lpesatellites=""
       mode="free"
       discard_orig_path="false"
       fuse_paths="true"
       oposite_fuse="false"
       split_items="false"
       split_open="false"
       link_styles="false" /><inkscape:path-effect
       effect="mirror_symmetry"
       start_point="17.493844,16.300304"
       end_point="17.509238,7.875638"
       center_point="17.501541,12.087971"
       id="path-effect5-4-0-9-7"
       is_visible="true"
       lpeversion="1.2"
       lpesatellites=""
       mode="free"
       discard_orig_path="false"
       fuse_paths="true"
       oposite_fuse="false"
       split_items="false"
       split_open="false"
       link_styles="false" /><inkscape:path-effect
       effect="mirror_symmetry"
       start_point="17.493844,16.300304"
       end_point="17.509238,7.875638"
       center_point="17.501541,12.087971"
       id="path-effect5-4-0-9-3"
       is_visible="true"
       lpeversion="1.2"
       lpesatellites=""
       mode="free"
       discard_orig_path="false"
       fuse_paths="true"
       oposite_fuse="false"
       split_items="false"
       split_open="false"
       link_styles="false" /><inkscape:path-effect
       effect="mirror_symmetry"
       start_point="17.493844,16.300304"
       end_point="17.509238,7.875638"
       center_point="17.501541,12.087971"
       id="path-effect5-4-0-9-5"
       is_visible="true"
       lpeversion="1.2"
       lpesatellites=""
       mode="free"
       discard_orig_path="false"
       fuse_paths="true"
       oposite_fuse="false"
       split_items="false"
       split_open="false"
       link_styles="false" /><inkscape:path-effect
       effect="mirror_symmetry"
       start_point="17.297909,16.234992"
       end_point="17.313303,7.810326"
       center_point="17.305606,12.022659"
       id="path-effect5-4-6-1"
       is_visible="true"
       lpeversion="1.2"
       lpesatellites=""
       mode="free"
       discard_orig_path="false"
       fuse_paths="true"
       oposite_fuse="false"
       split_items="false"
       split_open="false"
       link_styles="false" /><inkscape:path-effect
       effect="mirror_symmetry"
       start_point="17.493844,16.300304"
       end_point="17.509238,7.875638"
       center_point="17.501541,12.087971"
       id="path-effect5-4-0-9-5-9"
       is_visible="true"
       lpeversion="1.2"
       lpesatellites=""
       mode="free"
       discard_orig_path="false"
       fuse_paths="true"
       oposite_fuse="false"
       split_items="false"
       split_open="false"
       link_styles="false" /></defs><g
     inkscape:label="Layer 1"
     inkscape:groupmode="layer"
     id="layer1"><path
       style="fill:#999999;fill-opacity:1;stroke:none;stroke-width:0.264999;stroke-dasharray:none;stroke-opacity:1"
       d="m 25.484713,22.54073 c -0.182695,0.18831 -0.424678,0.308143 -0.544141,0.174014 -0.834363,-0.936808 -2.530713,-2.872746 -2.867649,-3.816161 -0.826622,0.135106 -1.901082,0.174361 -2.512908,0.07427 -0.774525,-0.12671 -2.229949,-0.430128 -2.665586,-1.085676 -0.208919,-0.31438 -0.05925,-1.096603 0.34122,-0.885169 0.69725,0.368126 1.542442,0.54813 2.375805,0.840571 0.719305,-0.138393 1.971154,-0.22568 2.554551,-0.374509 0.379622,-0.55702 0.3544,-1.581429 0.480222,-2.232543 -0.584975,-0.584976 -0.685434,-0.878922 -1.47303,-1.681038 0.258111,-0.372096 0.256713,-0.448204 0.574522,-0.651865 0.806439,0.704446 1.5712,1.192162 1.914329,1.920964 0.292696,0.621681 0.0458,1.813884 0.219242,2.603048 0.944642,0.333485 2.60259,1.96573 3.542441,2.796664 0.269128,0.237944 -0.477908,0.966952 -0.755446,0.738871 -0.799416,-0.656956 -2.090994,-1.78918 -2.357482,-1.752577 -0.150583,0.02069 -0.231385,0.06718 -0.27207,0.122916 -0.05564,0.04088 -0.102789,0.124165 -0.122921,0.274831 -0.03562,0.266623 1.099614,1.553571 1.759487,2.350581 0.114551,0.138349 -0.0079,0.394501 -0.190586,0.582809 z"
       id="path4-6-1-2"
       sodipodi:nodetypes="cscssscccccscccscssc" /><path
       id="path1-3-1-7"
       style="fill:#ff6666;fill-opacity:1;stroke:#000000;stroke-width:0.265"
       d="m 22.528381,16.083803 c -0.918209,0 -2.054433,0.744353 -2.054433,1.662562 -1e-6,0.918208 1.136224,1.662561 2.054431,1.662561 0.918206,0 1.662563,-0.744355 1.662563,-1.662561 0,-0.918208 -0.744354,-1.662563 -1.662561,-1.662562 z"
       sodipodi:nodetypes="zzzzz" /><path
       id="path1-7-1-1-0-2"
       style="fill:#ffffff;stroke:#000000;stroke-width:0.265;stroke-dasharray:none"
       d="m 26.015972,22.218476 c -0.146521,-0.146522 -0.683179,-0.360944 -0.93846,-0.105663 -0.255283,0.255283 -0.06081,0.826989 0.08572,0.973511 0.146521,0.146523 0.223167,0.322544 0.701649,-0.186143 0.478485,-0.508693 0.297619,-0.535179 0.151096,-0.681702 z"
       sodipodi:nodetypes="ssszs" /><path
       id="path1-7-1-9-7-3-2"
       style="fill:#ffffff;stroke:#000000;stroke-width:0.265;stroke-dasharray:none"
       d="m 27.75498,20.448682 c -0.146524,-0.146523 -0.683181,-0.360944 -0.938463,-0.105663 -0.25528,0.255282 -0.06081,0.82699 0.08572,0.973511 0.146519,0.146522 0.223164,0.322544 0.701646,-0.186142 0.478484,-0.508692 0.297619,-0.535179 0.151096,-0.681702 z"
       sodipodi:nodetypes="ssszs" /><path
       style="fill:#999999;fill-opacity:1;stroke:none;stroke-width:0.264999;stroke-dasharray:none;stroke-opacity:1"
       d="m 14.951754,4.1957394 c -0.254428,0.064063 -0.479199,0.2137096 -0.422771,0.3842334 0.394119,1.1909823 1.003979,3.4342458 1.652532,4.197749 -0.247183,0.7692635 -1.297171,0.6204384 -1.755788,1.5003152 -0.372326,0.714326 0.367029,1.43008 1.122515,1.883188 0.323702,0.19416 0.981643,-0.115247 0.741486,-0.499177 -0.369687,-0.591008 -0.782676,-0.98173 -0.782676,-0.98173 0.691304,-0.386563 1.570067,-0.7838017 2.178404,-1.0741627 0.672203,-0.05025 1.853533,0.7688437 2.480326,0.9854347 0.214116,0.79909 0.394,1.544897 0.694854,2.628034 0.4513,-0.03748 0.516513,0.0018 0.851792,-0.171618 C 21.505581,11.997385 21.490039,10.579392 21.030443,9.9178313 20.638399,9.3535081 19.175694,8.6861829 18.578981,8.1413918 18.762496,7.1565646 18.177904,4.9046181 17.92822,3.6752161 c -0.0715,-0.3520436 -1.076359,-0.069596 -1.017604,0.2847996 0.169233,1.0207926 0.503977,2.7054441 0.339034,2.9179279 -0.09321,0.1200643 -0.173868,0.1667969 -0.242483,0.1741622 -0.06322,0.027742 -0.158924,0.026935 -0.299471,-0.030964 C 16.458984,6.9186791 15.912071,5.2920632 15.551778,4.322091 15.489239,4.1537124 15.206178,4.1316822 14.951754,4.1957394 Z"
       id="path4-6-1-1-1"
       sodipodi:nodetypes="cscssscccccscccscssc" /><path
       id="path1-3-1-0-0"
       style="fill:#4d4d4d;fill-opacity:1;stroke:#000000;stroke-width:0.265"
       d="m 19.164611,8.7125081 c 0.23765,0.8869202 -0.187263,2.1770809 -1.074185,2.4147329 -0.886921,0.237649 -1.899987,-0.667209 -2.137636,-1.5541277 -0.23765,-0.886919 0.288688,-1.7985635 1.175607,-2.036213 0.886921,-0.2376508 1.798565,0.2886867 2.036214,1.1756078 z"
       sodipodi:nodetypes="zzzzz" /><path
       id="path1-7-1-1-0-6-6"
       style="fill:#ffffff;stroke:#000000;stroke-width:0.265;stroke-dasharray:none"
       d="m 15.496465,3.8967818 c 0.05363,0.200152 -0.029,0.7721224 -0.377724,0.8655621 -0.348723,0.09344 -0.746599,-0.3608314 -0.800226,-0.5609916 -0.05363,-0.2001535 -0.167748,-0.3545411 0.512031,-0.5145756 0.679783,-0.1600346 0.612287,0.00984 0.665919,0.2099981 z"
       sodipodi:nodetypes="ssszs" /><path
       id="path1-7-1-9-7-3-3-1"
       style="fill:#ffffff;stroke:#000000;stroke-width:0.265;stroke-dasharray:none"
       d="m 17.898655,3.2756534 c 0.05363,0.2001544 -0.029,0.7721247 -0.377723,0.8655639 -0.348722,0.093438 -0.7466,-0.3608314 -0.800227,-0.5609916 -0.05363,-0.2001504 -0.167748,-0.354537 0.512027,-0.5145724 0.679783,-0.1600338 0.612289,0.00984 0.665919,0.2099981 z"
       sodipodi:nodetypes="ssszs" /><ellipse
       style="fill:#ffffff;fill-opacity:1;stroke:#000000;stroke-width:0.265;stroke-dasharray:none;stroke-opacity:1"
       id="path1-7-2-9-9-1-3-1-2-5"
       cx="-2.8092697"
       cy="-19.996218"
       rx="0.65429264"
       ry="0.80279088"
       transform="rotate(135)" /><ellipse
       style="fill:#ffffff;fill-opacity:1;stroke:#000000;stroke-width:0.265;stroke-dasharray:none;stroke-opacity:1"
       id="path1-7-2-9-9-1-3-9-9"
       cx="-10.25801"
       cy="-22.609409"
       rx="0.65429264"
       ry="0.80279088"
       transform="rotate(145.72808)" /><path
       style="fill:#999999;fill-opacity:1;stroke:none;stroke-width:0.264999;stroke-dasharray:none;stroke-opacity:1"
       d="m 9.1701112,13.251287 c -0.2291919,0.127705 -0.4075597,0.330452 -0.3089186,0.480563 0.6889387,1.048394 1.8586174,3.057378 2.6826804,3.627007 -0.03966,0.807026 -1.092389,0.93503 -1.30765,1.903625 -0.174758,0.786351 0.724654,1.286356 1.571671,1.528491 0.362924,0.103764 0.918366,-0.365388 0.587024,-0.674078 -0.510055,-0.475188 -1.010098,-0.745707 -1.010098,-0.745707 0.567699,-0.552315 1.313705,-1.163459 1.826163,-1.601374 0.636293,-0.222517 1.989367,0.262915 2.65086,0.309901 0.41364,0.716444 0.780424,1.390281 1.351361,2.358646 0.426221,-0.15301 0.49938,-0.131945 0.77835,-0.38623 -0.471719,-0.961287 -0.853735,-2.326939 -1.468895,-2.847006 -0.524742,-0.443628 -2.110323,-0.709638 -2.827706,-1.081426 -0.07763,-0.998766 -1.225149,-3.022677 -1.784518,-4.145565 -0.160179,-0.321542 -1.057696,0.211354 -0.909218,0.538471 0.427667,0.942209 1.187025,2.48282 1.082697,2.730754 -0.05896,0.140097 -0.124774,0.206113 -0.189144,0.230987 -0.05389,0.04316 -0.146539,0.06714 -0.29728,0.0476 -0.266758,-0.0346 -1.216034,-1.464243 -1.8150981,-2.307913 -0.1039875,-0.146455 -0.3831055,-0.09447 -0.6122807,0.03325 z"
       id="path4-6-1-1-1-2"
       sodipodi:nodetypes="cscssscccccscccscssc" /><path
       id="path1-3-1-0-0-9"
       style="fill:#6666ff;fill-opacity:1;stroke:#000000;stroke-width:0.265"
       d="m 13.310479,15.810655 c 0.886921,0.237649 1.791776,1.250715 1.554128,2.137638 -0.237651,0.886921 -1.527814,1.311833 -2.414733,1.074183 -0.886919,-0.237649 -1.413257,-1.149292 -1.175608,-2.036212 0.23765,-0.88692 1.149293,-1.41326 2.036213,-1.175609 z"
       sodipodi:nodetypes="zzzzz" /><path
       id="path1-7-1-1-0-6-6-1"
       style="fill:#ffffff;stroke:#000000;stroke-width:0.265;stroke-dasharray:none"
       d="M 9.6188856,12.821535 C 9.7224917,13.000987 9.7907137,13.574853 9.4780565,13.755366 9.1653999,13.935878 8.6635072,13.600064 8.5599018,13.420603 8.456296,13.241151 8.3061082,13.121559 8.9213039,12.791038 c 0.6152004,-0.330522 0.5939604,-0.149005 0.6975798,0.03049 z"
       sodipodi:nodetypes="ssszs" /><path
       id="path1-7-1-9-7-3-3-1-2"
       style="fill:#ffffff;stroke:#000000;stroke-width:0.265;stroke-dasharray:none"
       d="m 11.778463,11.599839 c 0.103606,0.179453 0.171829,0.75332 -0.140828,0.933832 -0.312655,0.180512 -0.81455,-0.155302 -0.918155,-0.334762 -0.103605,-0.17945 -0.253793,-0.299041 0.361399,-0.629562 0.6152,-0.330521 0.593962,-0.149006 0.69758,0.03049 z"
       sodipodi:nodetypes="ssszs" /><ellipse
       style="fill:#ffffff;fill-opacity:1;stroke:#000000;stroke-width:0.265;stroke-dasharray:none;stroke-opacity:1"
       id="path1-7-2-9-9-1-3-1-2-5-7"
       cx="11.687278"
       cy="-21.024088"
       rx="0.65429264"
       ry="0.80279088"
       transform="rotate(120)" /><path
       style="fill:#999999;fill-opacity:1;stroke:none;stroke-width:0.264999;stroke-dasharray:none;stroke-opacity:1"
       d="m 19.205293,30.632732 c -0.225191,0.134633 -0.489959,0.187731 -0.570638,0.02725 -0.563467,-1.120836 -1.718458,-3.138299 -1.79974,-4.136773 -0.718736,-0.369166 -1.355955,0.478522 -2.302413,0.180646 -0.768379,-0.241831 -0.75169,-1.270748 -0.537877,-2.125353 0.0916,-0.366183 0.775618,-0.612635 0.877281,-0.171338 0.156498,0.679314 0.140753,1.247623 0.140753,1.247623 0.762167,-0.215484 1.664437,-0.555973 2.299912,-0.780816 0.510851,-0.439787 0.766991,-1.8543 1.057048,-2.450663 -0.413639,-0.716445 -0.813808,-1.371007 -1.366967,-2.349636 0.34562,-0.292613 0.363957,-0.366503 0.723659,-0.480956 0.596637,0.889165 1.588321,1.902826 1.731132,2.695604 0.121823,0.676253 -0.440596,2.182412 -0.47731,2.989578 0.826142,0.566612 2.00514,2.572349 2.697905,3.61822 0.198374,0.29949 -0.711886,0.810315 -0.920938,0.518171 -0.602143,-0.841474 -1.556672,-2.269403 -1.823553,-2.303019 -0.150809,-0.01899 -0.240887,0.005 -0.294613,0.04831 -0.06432,0.02509 -0.131419,0.09333 -0.189867,0.233649 -0.10341,0.248321 0.660055,1.785238 1.091163,2.725878 0.07484,0.163283 -0.109736,0.379016 -0.334937,0.513625 z"
       id="path4-6-1-1-1-2-0"
       sodipodi:nodetypes="cscssscccccscccscssc" /><path
       id="path1-3-1-0-0-9-6"
       style="fill:#66ff66;fill-opacity:1;stroke:#000000;stroke-width:0.265"
       d="m 19.113494,24.867698 c -0.23765,-0.886921 -1.250715,-1.791776 -2.137638,-1.554128 -0.886921,0.237651 -1.311833,1.527814 -1.074183,2.414733 0.237648,0.886919 1.149292,1.413256 2.036211,1.175608 0.886922,-0.237649 1.41326,-1.149293 1.17561,-2.036213 z"
       sodipodi:nodetypes="zzzzz" /><path
       id="path1-7-1-1-0-6-6-1-2"
       style="fill:#ffffff;stroke:#000000;stroke-width:0.265;stroke-dasharray:none"
       d="m 19.801856,30.458958 c -0.103607,-0.179451 -0.566479,-0.525466 -0.879136,-0.344954 -0.312657,0.180513 -0.272779,0.783072 -0.169164,0.962527 0.103607,0.179452 0.132083,0.369314 0.72592,0.0018 0.593841,-0.367518 0.426023,-0.439882 0.322385,-0.619366 z"
       sodipodi:nodetypes="ssszs" /><path
       id="path1-7-1-9-7-3-3-1-2-6"
       style="fill:#ffffff;stroke:#000000;stroke-width:0.265;stroke-dasharray:none"
       d="m 21.939666,29.199556 c -0.103608,-0.179452 -0.56648,-0.525468 -0.879135,-0.344955 -0.312656,0.180512 -0.27278,0.783072 -0.169166,0.962527 0.103606,0.17945 0.13208,0.369311 0.725916,0.0018 0.59384,-0.367518 0.426024,-0.439883 0.322384,-0.619368 z"
       sodipodi:nodetypes="ssszs" /><ellipse
       style="fill:#ffffff;fill-opacity:1;stroke:#000000;stroke-width:0.265;stroke-dasharray:none;stroke-opacity:1"
       id="path1-7-2-9-9-1-3-1-2-5-7-1"
       cx="-14.408912"
       cy="24.175837"
       rx="0.65429264"
       ry="0.80279088"
       transform="scale(-1,1)" /><ellipse
       style="fill:#ffffff;fill-opacity:1;stroke:#000000;stroke-width:0.265;stroke-dasharray:none;stroke-opacity:1"
       id="path1-7-2-9-9-1-3-9-9-0"
       cx="-3.1448214"
       cy="-26.432121"
       rx="0.65429264"
       ry="0.80279088"
       transform="rotate(145.72808)" /><ellipse
       style="fill:#ffffff;fill-opacity:1;stroke:#000000;stroke-width:0.265;stroke-dasharray:none;stroke-opacity:1"
       id="path1-7-2-9-9-1-3-9"
       cx="10.896513"
       cy="21.739218"
       rx="0.65429264"
       ry="0.80279088"
       transform="matrix(-0.33005184,0.94396281,0.94396281,0.33005184,0,0)" /></g></svg>
