<?xml version="1.0" encoding="UTF-8" standalone="no"?>
<!-- Created with Inkscape (http://www.inkscape.org/) -->

<svg
   width="35mm"
   height="35mm"
   viewBox="0 0 35 35"
   version="1.1"
   id="svg1"
   xml:space="preserve"
   inkscape:version="1.4 (e7c3feb100, 2024-10-09)"
   sodipodi:docname="2_v1.svg"
   xmlns:inkscape="http://www.inkscape.org/namespaces/inkscape"
   xmlns:sodipodi="http://sodipodi.sourceforge.net/DTD/sodipodi-0.dtd"
   xmlns="http://www.w3.org/2000/svg"
   xmlns:svg="http://www.w3.org/2000/svg"><sodipodi:namedview
     id="namedview1"
     pagecolor="#ffffff"
     bordercolor="#000000"
     borderopacity="0.25"
     inkscape:showpageshadow="2"
     inkscape:pageopacity="0.0"
     inkscape:pagecheckerboard="0"
     inkscape:deskcolor="#d1d1d1"
     inkscape:document-units="mm"
     inkscape:zoom="4.2968333"
     inkscape:cx="55.855088"
     inkscape:cy="61.906056"
     inkscape:window-width="1916"
     inkscape:window-height="761"
     inkscape:window-x="0"
     inkscape:window-y="0"
     inkscape:window-maximized="0"
     inkscape:current-layer="layer1"
     showgrid="false"><sodipodi:guide
       position="25.431035,17.543103"
       orientation="0,132.28346"
       id="guide5"
       inkscape:locked="false" /><sodipodi:guide
       position="35.000001,35.000001"
       orientation="132.28346,0"
       id="guide6"
       inkscape:locked="false" /><sodipodi:guide
       position="35.000001,0"
       orientation="0,-132.28346"
       id="guide7"
       inkscape:locked="false" /><sodipodi:guide
       position="17.503506,35.914363"
       orientation="-132.28346,0"
       id="guide8"
       inkscape:locked="false" /></sodipodi:namedview><defs
     id="defs1"><inkscape:path-effect
       effect="mirror_symmetry"
       start_point="17.297909,16.234992"
       end_point="17.313303,7.810326"
       center_point="17.305606,12.022659"
       id="path-effect5"
       is_visible="true"
       lpeversion="1.2"
       lpesatellites=""
       mode="free"
       discard_orig_path="false"
       fuse_paths="true"
       oposite_fuse="false"
       split_items="false"
       split_open="false"
       link_styles="false" /><inkscape:path-effect
       effect="mirror_symmetry"
       start_point="17.297909,16.234992"
       end_point="17.313303,7.810326"
       center_point="17.305606,12.022659"
       id="path-effect5-7"
       is_visible="true"
       lpeversion="1.2"
       lpesatellites=""
       mode="free"
       discard_orig_path="false"
       fuse_paths="true"
       oposite_fuse="false"
       split_items="false"
       split_open="false"
       link_styles="false" /><inkscape:path-effect
       effect="mirror_symmetry"
       start_point="17.297909,16.234992"
       end_point="17.313303,7.810326"
       center_point="17.305606,12.022659"
       id="path-effect5-6"
       is_visible="true"
       lpeversion="1.2"
       lpesatellites=""
       mode="free"
       discard_orig_path="false"
       fuse_paths="true"
       oposite_fuse="false"
       split_items="false"
       split_open="false"
       link_styles="false" /><inkscape:path-effect
       effect="mirror_symmetry"
       start_point="17.297909,16.234992"
       end_point="17.313303,7.810326"
       center_point="17.305606,12.022659"
       id="path-effect5-3"
       is_visible="true"
       lpeversion="1.2"
       lpesatellites=""
       mode="free"
       discard_orig_path="false"
       fuse_paths="true"
       oposite_fuse="false"
       split_items="false"
       split_open="false"
       link_styles="false" /><inkscape:path-effect
       effect="mirror_symmetry"
       start_point="17.297909,16.234992"
       end_point="17.313303,7.810326"
       center_point="17.305606,12.022659"
       id="path-effect5-66"
       is_visible="true"
       lpeversion="1.2"
       lpesatellites=""
       mode="free"
       discard_orig_path="false"
       fuse_paths="true"
       oposite_fuse="false"
       split_items="false"
       split_open="false"
       link_styles="false" /><inkscape:path-effect
       effect="mirror_symmetry"
       start_point="17.297909,16.234992"
       end_point="17.313303,7.810326"
       center_point="17.305606,12.022659"
       id="path-effect5-4"
       is_visible="true"
       lpeversion="1.2"
       lpesatellites=""
       mode="free"
       discard_orig_path="false"
       fuse_paths="true"
       oposite_fuse="false"
       split_items="false"
       split_open="false"
       link_styles="false" /><inkscape:path-effect
       effect="mirror_symmetry"
       start_point="17.297909,16.234992"
       end_point="17.313303,7.810326"
       center_point="17.305606,12.022659"
       id="path-effect5-4-7"
       is_visible="true"
       lpeversion="1.2"
       lpesatellites=""
       mode="free"
       discard_orig_path="false"
       fuse_paths="true"
       oposite_fuse="false"
       split_items="false"
       split_open="false"
       link_styles="false" /><inkscape:path-effect
       effect="mirror_symmetry"
       start_point="17.297909,16.234992"
       end_point="17.313303,7.810326"
       center_point="17.305606,12.022659"
       id="path-effect5-41"
       is_visible="true"
       lpeversion="1.2"
       lpesatellites=""
       mode="free"
       discard_orig_path="false"
       fuse_paths="true"
       oposite_fuse="false"
       split_items="false"
       split_open="false"
       link_styles="false" /><inkscape:path-effect
       effect="mirror_symmetry"
       start_point="17.297909,16.234992"
       end_point="17.313303,7.810326"
       center_point="17.305606,12.022659"
       id="path-effect5-4-0"
       is_visible="true"
       lpeversion="1.2"
       lpesatellites=""
       mode="free"
       discard_orig_path="false"
       fuse_paths="true"
       oposite_fuse="false"
       split_items="false"
       split_open="false"
       link_styles="false" /><inkscape:path-effect
       effect="mirror_symmetry"
       start_point="17.493844,16.300304"
       end_point="17.509238,7.875638"
       center_point="17.501541,12.087971"
       id="path-effect5-4-0-9"
       is_visible="true"
       lpeversion="1.2"
       lpesatellites=""
       mode="free"
       discard_orig_path="false"
       fuse_paths="true"
       oposite_fuse="false"
       split_items="false"
       split_open="false"
       link_styles="false" /><inkscape:path-effect
       effect="mirror_symmetry"
       start_point="17.297909,16.234992"
       end_point="17.313303,7.810326"
       center_point="17.305606,12.022659"
       id="path-effect5-4-0-0"
       is_visible="true"
       lpeversion="1.2"
       lpesatellites=""
       mode="free"
       discard_orig_path="false"
       fuse_paths="true"
       oposite_fuse="false"
       split_items="false"
       split_open="false"
       link_styles="false" /><inkscape:path-effect
       effect="mirror_symmetry"
       start_point="17.493844,16.300304"
       end_point="17.509238,7.875638"
       center_point="17.501541,12.087971"
       id="path-effect5-4-0-9-7"
       is_visible="true"
       lpeversion="1.2"
       lpesatellites=""
       mode="free"
       discard_orig_path="false"
       fuse_paths="true"
       oposite_fuse="false"
       split_items="false"
       split_open="false"
       link_styles="false" /><inkscape:path-effect
       effect="mirror_symmetry"
       start_point="17.493844,16.300304"
       end_point="17.509238,7.875638"
       center_point="17.501541,12.087971"
       id="path-effect5-4-0-9-3"
       is_visible="true"
       lpeversion="1.2"
       lpesatellites=""
       mode="free"
       discard_orig_path="false"
       fuse_paths="true"
       oposite_fuse="false"
       split_items="false"
       split_open="false"
       link_styles="false" /><inkscape:path-effect
       effect="mirror_symmetry"
       start_point="17.493844,16.300304"
       end_point="17.509238,7.875638"
       center_point="17.501541,12.087971"
       id="path-effect5-4-0-9-5"
       is_visible="true"
       lpeversion="1.2"
       lpesatellites=""
       mode="free"
       discard_orig_path="false"
       fuse_paths="true"
       oposite_fuse="false"
       split_items="false"
       split_open="false"
       link_styles="false" /><inkscape:path-effect
       effect="mirror_symmetry"
       start_point="17.297909,16.234992"
       end_point="17.313303,7.810326"
       center_point="17.305606,12.022659"
       id="path-effect5-4-6-1"
       is_visible="true"
       lpeversion="1.2"
       lpesatellites=""
       mode="free"
       discard_orig_path="false"
       fuse_paths="true"
       oposite_fuse="false"
       split_items="false"
       split_open="false"
       link_styles="false" /><inkscape:path-effect
       effect="mirror_symmetry"
       start_point="17.493844,16.300304"
       end_point="17.509238,7.875638"
       center_point="17.501541,12.087971"
       id="path-effect5-4-0-9-5-9"
       is_visible="true"
       lpeversion="1.2"
       lpesatellites=""
       mode="free"
       discard_orig_path="false"
       fuse_paths="true"
       oposite_fuse="false"
       split_items="false"
       split_open="false"
       link_styles="false" /></defs><g
     inkscape:label="Layer 1"
     inkscape:groupmode="layer"
     id="layer1"><path
       style="fill:#999999;fill-opacity:1;stroke:none;stroke-width:0.264999;stroke-dasharray:none;stroke-opacity:1"
       d="m 8.313385,14.979166 c -0.1883088,0.182694 -0.3081434,0.424677 -0.1740144,0.544141 0.9368082,0.834362 2.5865944,2.472156 3.5300104,2.809093 0.170561,0.789794 -0.813163,1.1859 -0.770399,2.177205 0.03472,0.804788 1.032897,1.054971 1.913721,1.06963 0.377414,0.0063 0.792504,-0.590627 0.392558,-0.803042 -0.615664,-0.326984 -1.168683,-0.458865 -1.168683,-0.458865 0.405406,-0.680425 0.967818,-1.463826 1.349471,-2.019454 0.55702,-0.379622 1.989629,-0.260928 2.640743,-0.386752 0.584976,0.584975 1.113663,1.14092 1.915779,1.928517 0.372096,-0.258111 0.448203,-0.256714 0.651865,-0.574522 C 17.88999,18.458678 17.167533,17.23843 16.438732,16.8953 15.81705,16.602604 14.216648,16.756034 13.427483,16.582588 c -0.333484,-0.944641 -1.96573,-2.602589 -2.796665,-3.54244 -0.237944,-0.269128 -0.9669515,0.477907 -0.7388708,0.755445 0.6569568,0.799416 1.7891798,2.090995 1.7525758,2.357482 -0.02069,0.150584 -0.06718,0.231385 -0.122915,0.272071 -0.04088,0.05563 -0.124165,0.102789 -0.274831,0.12292 -0.266622,0.03562 -1.5535712,-1.099614 -2.3505811,-1.759487 -0.1383495,-0.114551 -0.394502,0.0079 -0.5828109,0.190587 z"
       id="path4-6-1"
       sodipodi:nodetypes="cscssscccccscccscssc" /><path
       id="path1-3-1"
       style="fill:#6666ff;fill-opacity:1;stroke:#000000;stroke-width:0.265"
       d="m 14.220213,16.784375 c 0.649271,0.649271 0.926366,1.97904 0.277094,2.628313 -0.649271,0.64927 -1.979041,0.372175 -2.628311,-0.277096 -0.64927,-0.64927 -0.649272,-1.701947 -10e-7,-2.351217 0.649271,-0.649271 1.701947,-0.649271 2.351218,0 z"
       sodipodi:nodetypes="zzzzz" /><path
       id="path1-7-1-1-0"
       style="fill:#ffffff;stroke:#000000;stroke-width:0.265;stroke-dasharray:none"
       d="m 8.6356397,14.447907 c 0.1465221,0.146521 0.360944,0.683179 0.105663,0.938459 -0.2552822,0.255283 -0.8269893,0.06081 -0.9735114,-0.08572 -0.1465227,-0.146522 -0.3225442,-0.223168 0.186143,-0.70165 0.5086924,-0.478485 0.5351791,-0.297618 0.6817022,-0.151095 z"
       sodipodi:nodetypes="ssszs" /><path
       id="path1-7-1-9-7-3"
       style="fill:#ffffff;stroke:#000000;stroke-width:0.265;stroke-dasharray:none"
       d="m 10.405433,12.708899 c 0.146523,0.146523 0.360944,0.683181 0.105663,0.938462 -0.255281,0.25528 -0.8269884,0.06081 -0.9735106,-0.08572 -0.1465218,-0.14652 -0.3225435,-0.223164 0.1861419,-0.701646 0.5086917,-0.478485 0.5351787,-0.29762 0.6817017,-0.151096 z"
       sodipodi:nodetypes="ssszs" /><ellipse
       style="fill:#ffffff;fill-opacity:1;stroke:#000000;stroke-width:0.265;stroke-dasharray:none;stroke-opacity:1"
       id="path1-7-2-9-9-1-3-1"
       cx="17.113483"
       cy="-18.363903"
       rx="0.65429264"
       ry="0.80279088"
       transform="rotate(105)" /><path
       style="fill:#999999;fill-opacity:1;stroke:none;stroke-width:0.264999;stroke-dasharray:none;stroke-opacity:1"
       d="m 17.495335,30.882768 c -0.252372,0.07173 -0.521852,0.05452 -0.558246,-0.121371 -0.254175,-1.22848 -0.847653,-3.476133 -0.667741,-4.461623 -0.598701,-0.542608 -1.433601,0.111269 -2.270715,-0.421418 -0.679606,-0.432461 -0.397183,-1.421999 0.03053,-2.192145 0.183254,-0.329999 0.90775,-0.391016 0.891734,0.06156 -0.02465,0.696672 -0.186953,1.241542 -0.186953,1.241542 0.791968,-0.01088 1.751619,-0.106242 2.423634,-0.15895 0.607273,-0.292582 1.220785,-1.592605 1.655309,-2.093574 -0.214116,-0.799092 -0.431235,-1.534921 -0.712256,-2.623372 0.409579,-0.193189 0.446423,-0.259798 0.823483,-0.27727 0.346175,1.013287 1.041712,2.249077 0.97447,3.051802 -0.05736,0.684741 -0.990434,1.994015 -1.234808,2.764175 0.651342,0.761126 1.271044,3.003665 1.669512,4.193201 0.114099,0.34063 -0.897357,0.598451 -1.023671,0.262158 -0.363836,-0.968648 -0.916265,-2.594972 -1.165351,-2.696516 -0.140754,-0.05738 -0.233973,-0.05752 -0.297078,-0.02959 -0.06862,0.0076 -0.151101,0.05614 -0.243868,0.176551 -0.164158,0.213092 0.175509,1.895239 0.348471,2.915406 0.03003,0.177089 -0.204093,0.337699 -0.456459,0.409435 z"
       id="path4-6-1-1"
       sodipodi:nodetypes="cscssscccccscccscssc" /><ellipse
       style="fill:#ffffff;fill-opacity:1;stroke:#000000;stroke-width:0.265;stroke-dasharray:none;stroke-opacity:1"
       id="path1-7-2-9-9-1-3-9-8"
       cx="-1.0346378"
       cy="26.807896"
       rx="0.65429264"
       ry="0.80279088"
       transform="matrix(-0.75781468,0.65246985,0.65246985,0.75781468,0,0)" /><path
       id="path1-3-1-0"
       style="fill:#66ff66;fill-opacity:1;stroke:#000000;stroke-width:0.265"
       d="m 18.885392,24.864703 c -0.237649,-0.886921 -1.250716,-1.791777 -2.137638,-1.554128 -0.886921,0.23765 -1.311834,1.527813 -1.074184,2.414732 0.23765,0.886919 1.149295,1.413258 2.036214,1.175609 0.88692,-0.237649 1.413258,-1.149293 1.175608,-2.036213 z"
       sodipodi:nodetypes="zzzzz" /><path
       id="path1-7-1-1-0-6"
       style="fill:#ffffff;stroke:#000000;stroke-width:0.265;stroke-dasharray:none"
       d="m 18.116547,30.869317 c -0.05363,-0.200152 -0.411178,-0.654175 -0.759898,-0.560737 -0.348723,0.09344 -0.466159,0.685789 -0.41252,0.885946 0.05363,0.200154 0.032,0.390916 0.700718,0.18962 0.668727,-0.201297 0.525334,-0.314669 0.471704,-0.514823 z"
       sodipodi:nodetypes="ssszs" /><path
       id="path1-7-1-9-7-3-3"
       style="fill:#ffffff;stroke:#000000;stroke-width:0.265;stroke-dasharray:none"
       d="m 20.507469,30.206135 c -0.05363,-0.200154 -0.41118,-0.654178 -0.7599,-0.560739 -0.348721,0.09344 -0.466158,0.68579 -0.41252,0.885946 0.05363,0.200151 0.03199,0.390913 0.700714,0.18962 0.668726,-0.201298 0.525336,-0.31467 0.471704,-0.514824 z"
       sodipodi:nodetypes="ssszs" /><ellipse
       style="fill:#ffffff;fill-opacity:1;stroke:#000000;stroke-width:0.265;stroke-dasharray:none;stroke-opacity:1"
       id="path1-7-2-9-9-1-3-1-2"
       cx="-20.095858"
       cy="18.845436"
       rx="0.65429264"
       ry="0.80279088"
       transform="matrix(-0.96592583,-0.25881905,-0.25881905,0.96592583,0,0)" /><path
       style="fill:#999999;fill-opacity:1;stroke:none;stroke-width:0.264999;stroke-dasharray:none;stroke-opacity:1"
       d="m 24.955546,23.069897 c -0.182695,0.18831 -0.424678,0.308143 -0.544141,0.174014 -0.834363,-0.936808 -2.530713,-2.872746 -2.867649,-3.816161 -0.826622,0.135106 -1.762271,0.250492 -2.382058,0.09736 -0.782021,-0.193216 -2.345405,-1.161347 -2.781042,-1.816895 -0.208919,-0.31438 0.402574,-0.603992 0.803042,-0.392558 0.69725,0.368126 1.350017,0.709768 2.060227,1.186937 0.719305,-0.138393 1.809516,-0.356529 2.392913,-0.505358 0.379622,-0.55702 0.3544,-1.581429 0.480222,-2.232543 -0.584975,-0.584976 -0.685434,-0.878922 -1.47303,-1.681038 0.258111,-0.372096 0.256713,-0.448204 0.574522,-0.651865 0.806439,0.704446 1.5712,1.192162 1.914329,1.920964 0.292696,0.621681 0.0458,1.813884 0.219242,2.603048 0.944642,0.333485 2.60259,1.96573 3.542441,2.796664 0.269128,0.237944 -0.477908,0.966952 -0.755446,0.738871 -0.799416,-0.656956 -2.090994,-1.78918 -2.357482,-1.752577 -0.150583,0.02069 -0.231385,0.06718 -0.27207,0.122916 -0.05564,0.04088 -0.102789,0.124165 -0.122921,0.274831 -0.03562,0.266623 1.099614,1.553571 1.759487,2.350581 0.114551,0.138349 -0.0079,0.394501 -0.190586,0.582809 z"
       id="path4-6-1-2"
       sodipodi:nodetypes="cscssscccccscccscsscc" /><path
       id="path1-3-1-7"
       style="fill:#ff6666;fill-opacity:1;stroke:#000000;stroke-width:0.265"
       d="m 23.150337,17.163072 c -0.649271,-0.649271 -1.97904,-0.926367 -2.628312,-0.277095 -0.649272,0.649271 -0.372176,1.979041 0.277095,2.628311 0.649269,0.649269 1.701947,0.649271 2.351217,1e-6 0.649271,-0.649271 0.649272,-1.701947 0,-2.351217 z"
       sodipodi:nodetypes="zzzzz" /><path
       id="path1-7-1-1-0-2"
       style="fill:#ffffff;stroke:#000000;stroke-width:0.265;stroke-dasharray:none"
       d="m 25.486805,22.747643 c -0.146521,-0.146522 -0.683179,-0.360944 -0.93846,-0.105663 -0.255283,0.255283 -0.06081,0.826989 0.08572,0.973511 0.146521,0.146523 0.223167,0.322544 0.701649,-0.186143 0.478485,-0.508693 0.297619,-0.535179 0.151096,-0.681702 z"
       sodipodi:nodetypes="ssszs" /><path
       id="path1-7-1-9-7-3-2"
       style="fill:#ffffff;stroke:#000000;stroke-width:0.265;stroke-dasharray:none"
       d="m 27.225813,20.977849 c -0.146524,-0.146523 -0.683181,-0.360944 -0.938463,-0.105663 -0.25528,0.255282 -0.06081,0.82699 0.08572,0.973511 0.146519,0.146522 0.223164,0.322544 0.701646,-0.186142 0.478484,-0.508692 0.297619,-0.535179 0.151096,-0.681702 z"
       sodipodi:nodetypes="ssszs" /><path
       style="fill:#999999;fill-opacity:1;stroke:none;stroke-width:0.264999;stroke-dasharray:none;stroke-opacity:1"
       d="m 14.422587,4.7249061 c -0.254428,0.064063 -0.479199,0.2137096 -0.422771,0.3842334 0.394119,1.1909823 1.003979,3.4342458 1.652532,4.197749 -0.247183,0.7692635 -1.297171,0.6204384 -1.755788,1.5003155 -0.372326,0.714326 0.367029,1.43008 1.122515,1.883188 0.323702,0.19416 0.981643,-0.115247 0.741486,-0.499177 -0.369687,-0.591008 -0.782676,-0.98173 -0.782676,-0.98173 0.691304,-0.386563 1.570067,-0.783802 2.178404,-1.074163 0.672203,-0.05025 1.853533,0.768844 2.480326,0.985435 0.214116,0.79909 0.394,1.544897 0.694854,2.628034 0.4513,-0.03748 0.516513,0.0018 0.851792,-0.171618 C 20.976414,12.526552 20.960872,11.108559 20.501276,10.446998 20.109232,9.8826748 18.646527,9.2153496 18.049814,8.6705585 18.233329,7.6857313 17.648737,5.4337848 17.399053,4.2043828 17.327553,3.8523392 16.322694,4.1347868 16.381449,4.4891824 16.550682,5.509975 16.885426,7.1946265 16.720483,7.4071103 16.627273,7.5271746 16.546615,7.5739072 16.478,7.5812725 16.41478,7.6090145 16.319076,7.6082075 16.178529,7.5503085 15.929817,7.4478458 15.382904,5.8212299 15.022611,4.8512577 14.960072,4.6828791 14.677011,4.6608489 14.422587,4.7249061 Z"
       id="path4-6-1-1-1"
       sodipodi:nodetypes="cscssscccccscccscssc" /><path
       id="path1-3-1-0-0"
       style="fill:#4d4d4d;fill-opacity:1;stroke:#000000;stroke-width:0.265"
       d="m 18.635444,9.2416748 c 0.23765,0.8869202 -0.187263,2.1770812 -1.074185,2.4147332 -0.886921,0.237649 -1.899987,-0.667209 -2.137636,-1.554128 -0.23765,-0.886919 0.288688,-1.7985635 1.175607,-2.036213 0.886921,-0.2376508 1.798565,0.2886867 2.036214,1.1756078 z"
       sodipodi:nodetypes="zzzzz" /><path
       id="path1-7-1-1-0-6-6"
       style="fill:#ffffff;stroke:#000000;stroke-width:0.265;stroke-dasharray:none"
       d="m 14.967298,4.4259485 c 0.05363,0.200152 -0.029,0.7721224 -0.377724,0.8655621 -0.348723,0.09344 -0.746599,-0.3608314 -0.800226,-0.5609916 -0.05363,-0.2001535 -0.167748,-0.3545411 0.512031,-0.5145756 0.679783,-0.1600346 0.612287,0.00984 0.665919,0.2099981 z"
       sodipodi:nodetypes="ssszs" /><path
       id="path1-7-1-9-7-3-3-1"
       style="fill:#ffffff;stroke:#000000;stroke-width:0.265;stroke-dasharray:none"
       d="m 17.369488,3.8048201 c 0.05363,0.2001544 -0.029,0.7721247 -0.377723,0.8655639 -0.348722,0.093438 -0.7466,-0.3608314 -0.800227,-0.5609916 -0.05363,-0.2001504 -0.167748,-0.354537 0.512027,-0.5145724 0.679783,-0.1600338 0.612289,0.00984 0.665919,0.2099981 z"
       sodipodi:nodetypes="ssszs" /><ellipse
       style="fill:#ffffff;fill-opacity:1;stroke:#000000;stroke-width:0.265;stroke-dasharray:none;stroke-opacity:1"
       id="path1-7-2-9-9-1-3-1-2-5"
       cx="-2.0609148"
       cy="-19.996218"
       rx="0.65429264"
       ry="0.80279088"
       transform="rotate(135)" /><ellipse
       style="fill:#ffffff;fill-opacity:1;stroke:#000000;stroke-width:0.265;stroke-dasharray:none;stroke-opacity:1"
       id="path1-7-2-9-9-1-3-9-9"
       cx="-9.5227346"
       cy="-22.748714"
       rx="0.65429264"
       ry="0.80279088"
       transform="rotate(145.72808)" /><ellipse
       style="fill:#ffffff;fill-opacity:1;stroke:#000000;stroke-width:0.265;stroke-dasharray:none;stroke-opacity:1"
       id="path1-7-2-9-9-1-3-9"
       cx="-1.1545666"
       cy="24.16478"
       rx="0.65429264"
       ry="0.80279088"
       transform="matrix(-0.75781468,0.65246985,0.65246985,0.75781468,0,0)" /></g></svg>
