<?xml version="1.0" encoding="UTF-8" standalone="no"?>
<!-- Created with Inkscape (http://www.inkscape.org/) -->

<svg
   width="35mm"
   height="35mm"
   viewBox="0 0 35 35"
   version="1.1"
   id="svg1"
   xml:space="preserve"
   inkscape:version="1.4 (e7c3feb100, 2024-10-09)"
   sodipodi:docname="2_v1_end.svg"
   xmlns:inkscape="http://www.inkscape.org/namespaces/inkscape"
   xmlns:sodipodi="http://sodipodi.sourceforge.net/DTD/sodipodi-0.dtd"
   xmlns="http://www.w3.org/2000/svg"
   xmlns:svg="http://www.w3.org/2000/svg"><sodipodi:namedview
     id="namedview1"
     pagecolor="#ffffff"
     bordercolor="#000000"
     borderopacity="0.25"
     inkscape:showpageshadow="2"
     inkscape:pageopacity="0.0"
     inkscape:pagecheckerboard="0"
     inkscape:deskcolor="#d1d1d1"
     inkscape:document-units="mm"
     inkscape:zoom="3.03832"
     inkscape:cx="97.09313"
     inkscape:cy="108.94178"
     inkscape:window-width="1916"
     inkscape:window-height="761"
     inkscape:window-x="0"
     inkscape:window-y="0"
     inkscape:window-maximized="0"
     inkscape:current-layer="layer1"><sodipodi:guide
       position="25.431035,17.543103"
       orientation="0,132.28346"
       id="guide5"
       inkscape:locked="false" /><sodipodi:guide
       position="35.000001,35.000001"
       orientation="132.28346,0"
       id="guide6"
       inkscape:locked="false" /><sodipodi:guide
       position="35.000001,0"
       orientation="0,-132.28346"
       id="guide7"
       inkscape:locked="false" /><sodipodi:guide
       position="17.503506,35.914363"
       orientation="1,0"
       id="guide8"
       inkscape:locked="false" /></sodipodi:namedview><defs
     id="defs1"><inkscape:path-effect
       effect="mirror_symmetry"
       start_point="17.297909,16.234992"
       end_point="17.313303,7.810326"
       center_point="17.305606,12.022659"
       id="path-effect5"
       is_visible="true"
       lpeversion="1.2"
       lpesatellites=""
       mode="free"
       discard_orig_path="false"
       fuse_paths="true"
       oposite_fuse="false"
       split_items="false"
       split_open="false"
       link_styles="false" /><inkscape:path-effect
       effect="mirror_symmetry"
       start_point="17.297909,16.234992"
       end_point="17.313303,7.810326"
       center_point="17.305606,12.022659"
       id="path-effect5-7"
       is_visible="true"
       lpeversion="1.2"
       lpesatellites=""
       mode="free"
       discard_orig_path="false"
       fuse_paths="true"
       oposite_fuse="false"
       split_items="false"
       split_open="false"
       link_styles="false" /><inkscape:path-effect
       effect="mirror_symmetry"
       start_point="17.297909,16.234992"
       end_point="17.313303,7.810326"
       center_point="17.305606,12.022659"
       id="path-effect5-6"
       is_visible="true"
       lpeversion="1.2"
       lpesatellites=""
       mode="free"
       discard_orig_path="false"
       fuse_paths="true"
       oposite_fuse="false"
       split_items="false"
       split_open="false"
       link_styles="false" /><inkscape:path-effect
       effect="mirror_symmetry"
       start_point="17.297909,16.234992"
       end_point="17.313303,7.810326"
       center_point="17.305606,12.022659"
       id="path-effect5-3"
       is_visible="true"
       lpeversion="1.2"
       lpesatellites=""
       mode="free"
       discard_orig_path="false"
       fuse_paths="true"
       oposite_fuse="false"
       split_items="false"
       split_open="false"
       link_styles="false" /><inkscape:path-effect
       effect="mirror_symmetry"
       start_point="17.297909,16.234992"
       end_point="17.313303,7.810326"
       center_point="17.305606,12.022659"
       id="path-effect5-66"
       is_visible="true"
       lpeversion="1.2"
       lpesatellites=""
       mode="free"
       discard_orig_path="false"
       fuse_paths="true"
       oposite_fuse="false"
       split_items="false"
       split_open="false"
       link_styles="false" /><inkscape:path-effect
       effect="mirror_symmetry"
       start_point="17.297909,16.234992"
       end_point="17.313303,7.810326"
       center_point="17.305606,12.022659"
       id="path-effect5-4"
       is_visible="true"
       lpeversion="1.2"
       lpesatellites=""
       mode="free"
       discard_orig_path="false"
       fuse_paths="true"
       oposite_fuse="false"
       split_items="false"
       split_open="false"
       link_styles="false" /><inkscape:path-effect
       effect="mirror_symmetry"
       start_point="17.297909,16.234992"
       end_point="17.313303,7.810326"
       center_point="17.305606,12.022659"
       id="path-effect5-4-7"
       is_visible="true"
       lpeversion="1.2"
       lpesatellites=""
       mode="free"
       discard_orig_path="false"
       fuse_paths="true"
       oposite_fuse="false"
       split_items="false"
       split_open="false"
       link_styles="false" /><inkscape:path-effect
       effect="mirror_symmetry"
       start_point="17.297909,16.234992"
       end_point="17.313303,7.810326"
       center_point="17.305606,12.022659"
       id="path-effect5-41"
       is_visible="true"
       lpeversion="1.2"
       lpesatellites=""
       mode="free"
       discard_orig_path="false"
       fuse_paths="true"
       oposite_fuse="false"
       split_items="false"
       split_open="false"
       link_styles="false" /><inkscape:path-effect
       effect="mirror_symmetry"
       start_point="17.297909,16.234992"
       end_point="17.313303,7.810326"
       center_point="17.305606,12.022659"
       id="path-effect5-4-0"
       is_visible="true"
       lpeversion="1.2"
       lpesatellites=""
       mode="free"
       discard_orig_path="false"
       fuse_paths="true"
       oposite_fuse="false"
       split_items="false"
       split_open="false"
       link_styles="false" /><inkscape:path-effect
       effect="mirror_symmetry"
       start_point="17.493844,16.300304"
       end_point="17.509238,7.875638"
       center_point="17.501541,12.087971"
       id="path-effect5-4-0-9"
       is_visible="true"
       lpeversion="1.2"
       lpesatellites=""
       mode="free"
       discard_orig_path="false"
       fuse_paths="true"
       oposite_fuse="false"
       split_items="false"
       split_open="false"
       link_styles="false" /><inkscape:path-effect
       effect="mirror_symmetry"
       start_point="17.297909,16.234992"
       end_point="17.313303,7.810326"
       center_point="17.305606,12.022659"
       id="path-effect5-4-0-0"
       is_visible="true"
       lpeversion="1.2"
       lpesatellites=""
       mode="free"
       discard_orig_path="false"
       fuse_paths="true"
       oposite_fuse="false"
       split_items="false"
       split_open="false"
       link_styles="false" /><inkscape:path-effect
       effect="mirror_symmetry"
       start_point="17.493844,16.300304"
       end_point="17.509238,7.875638"
       center_point="17.501541,12.087971"
       id="path-effect5-4-0-9-7"
       is_visible="true"
       lpeversion="1.2"
       lpesatellites=""
       mode="free"
       discard_orig_path="false"
       fuse_paths="true"
       oposite_fuse="false"
       split_items="false"
       split_open="false"
       link_styles="false" /><inkscape:path-effect
       effect="mirror_symmetry"
       start_point="17.493844,16.300304"
       end_point="17.509238,7.875638"
       center_point="17.501541,12.087971"
       id="path-effect5-4-0-9-3"
       is_visible="true"
       lpeversion="1.2"
       lpesatellites=""
       mode="free"
       discard_orig_path="false"
       fuse_paths="true"
       oposite_fuse="false"
       split_items="false"
       split_open="false"
       link_styles="false" /><inkscape:path-effect
       effect="mirror_symmetry"
       start_point="17.493844,16.300304"
       end_point="17.509238,7.875638"
       center_point="17.501541,12.087971"
       id="path-effect5-4-0-9-5"
       is_visible="true"
       lpeversion="1.2"
       lpesatellites=""
       mode="free"
       discard_orig_path="false"
       fuse_paths="true"
       oposite_fuse="false"
       split_items="false"
       split_open="false"
       link_styles="false" /><inkscape:path-effect
       effect="mirror_symmetry"
       start_point="17.297909,16.234992"
       end_point="17.313303,7.810326"
       center_point="17.305606,12.022659"
       id="path-effect5-4-6-1"
       is_visible="true"
       lpeversion="1.2"
       lpesatellites=""
       mode="free"
       discard_orig_path="false"
       fuse_paths="true"
       oposite_fuse="false"
       split_items="false"
       split_open="false"
       link_styles="false" /><inkscape:path-effect
       effect="mirror_symmetry"
       start_point="17.493844,16.300304"
       end_point="17.509238,7.875638"
       center_point="17.501541,12.087971"
       id="path-effect5-4-0-9-5-9"
       is_visible="true"
       lpeversion="1.2"
       lpesatellites=""
       mode="free"
       discard_orig_path="false"
       fuse_paths="true"
       oposite_fuse="false"
       split_items="false"
       split_open="false"
       link_styles="false" /></defs><g
     inkscape:label="Layer 1"
     inkscape:groupmode="layer"
     id="layer1"><path
       style="fill:#999999;fill-opacity:1;stroke:none;stroke-width:0.264999;stroke-dasharray:none;stroke-opacity:1"
       d="m 28.993534,17.981228 c 0.134608,-0.225207 0.187729,-0.48996 0.02725,-0.570638 -1.120836,-0.563468 -3.138299,-1.718459 -4.136775,-1.799741 -0.369163,-0.718738 0.478522,-1.355954 0.180646,-2.302413 -0.24183,-0.768379 -1.270748,-0.75169 -2.125353,-0.537876 -0.366184,0.0916 -0.612635,0.775617 -0.171339,0.877281 0.679315,0.156497 1.247624,0.140752 1.247624,0.140752 -0.215485,0.762167 -0.555974,1.664437 -0.780816,2.299912 -0.439786,0.510854 -1.854301,0.766991 -2.450663,1.057048 -0.716446,-0.41364 -1.371008,-0.813807 -2.349637,-1.366965 -0.292613,0.345622 -0.366489,0.363971 -0.480956,0.723661 0.889164,0.596637 1.902827,1.58832 2.695604,1.73113 0.676254,0.12182 2.182413,-0.440597 2.989579,-0.477312 0.566612,0.826142 2.572349,2.00514 3.618221,2.697905 0.299492,0.198373 0.810312,-0.711889 0.518171,-0.920938 -0.841475,-0.602144 -2.269404,-1.556672 -2.303019,-1.823553 -0.01899,-0.150807 0.005,-0.240887 0.04831,-0.294613 0.02509,-0.06432 0.09333,-0.131423 0.233652,-0.189863 0.248318,-0.103413 1.785236,0.660052 2.725876,1.091159 0.163283,0.07484 0.379014,-0.109736 0.513624,-0.334936 z"
       id="path4-6-1"
       sodipodi:nodetypes="cscssscccccscccscssc" /><path
       id="path1-3-1"
       style="fill:#ff6666;fill-opacity:1;stroke:#000000;stroke-width:0.265"
       d="m 22.820754,17.76633 c -0.795191,-0.459104 -1.407014,-1.671845 -0.94791,-2.467038 0.459104,-0.795191 1.815281,-0.871707 2.610472,-0.412603 0.79519,0.459103 1.067644,1.475911 0.60854,2.271101 -0.459104,0.795191 -1.475911,1.067644 -2.271102,0.60854 z"
       sodipodi:nodetypes="zzzzz" /><path
       id="path1-7-1-1-0"
       style="fill:#ffffff;stroke:#000000;stroke-width:0.265;stroke-dasharray:none"
       d="m 28.81976,18.577791 c -0.179452,-0.103606 -0.525465,-0.566481 -0.344954,-0.879135 0.180512,-0.312656 0.783072,-0.272779 0.962526,-0.169164 0.179453,0.103607 0.369314,0.132083 0.0018,0.725919 -0.367518,0.593841 -0.439914,0.425992 -0.619367,0.322385 z"
       sodipodi:nodetypes="ssszs" /><path
       id="path1-7-1-9-7-3"
       style="fill:#ffffff;stroke:#000000;stroke-width:0.265;stroke-dasharray:none"
       d="m 27.560359,20.7156 c -0.179453,-0.103608 -0.525466,-0.566483 -0.344955,-0.879137 0.180512,-0.312654 0.783071,-0.272779 0.962526,-0.169164 0.179451,0.103604 0.369312,0.132079 0.0018,0.725915 -0.367518,0.59384 -0.439914,0.425993 -0.619367,0.322385 z"
       sodipodi:nodetypes="ssszs" /><ellipse
       style="fill:#ffffff;fill-opacity:1;stroke:#000000;stroke-width:0.265;stroke-dasharray:none;stroke-opacity:1"
       id="path1-7-2-9-9-1-3-1"
       cx="-13.184844"
       cy="22.536636"
       rx="0.65429264"
       ry="0.80279088"
       transform="rotate(-90)" /><path
       style="fill:#999999;fill-opacity:1;stroke:none;stroke-width:0.264999;stroke-dasharray:none;stroke-opacity:1"
       d="m 16.008296,4.9959921 c 0.225207,-0.134608 0.48996,-0.187729 0.570638,-0.02725 0.563468,1.120836 1.718459,3.138299 1.799741,4.136773 0.718738,0.369164 1.355954,-0.478521 2.302413,-0.180645 0.768379,0.24183 0.75169,1.2707469 0.537876,2.1253519 -0.0916,0.366184 -0.775617,0.612635 -0.877281,0.171339 -0.156497,-0.679315 -0.140752,-1.2476239 -0.140752,-1.2476239 -0.762167,0.2154849 -1.664437,0.5559739 -2.299912,0.7808159 -0.510854,0.439786 -0.766991,1.854301 -1.057048,2.450663 0.41364,0.716446 0.813807,1.371008 1.366965,2.349637 -0.345622,0.292613 -0.363971,0.366489 -0.723661,0.480956 -0.596637,-0.889164 -1.58832,-1.902827 -1.73113,-2.695604 -0.12182,-0.676254 0.440597,-2.182413 0.477312,-2.989579 -0.826142,-0.5666119 -2.00514,-2.5723479 -2.697905,-3.6182199 -0.198373,-0.299492 0.711889,-0.810312 0.920938,-0.518171 0.602144,0.841475 1.556672,2.269404 1.823553,2.30302 0.150807,0.01899 0.240887,-0.005 0.294613,-0.04831 0.06432,-0.02509 0.131423,-0.09333 0.189863,-0.233653 0.103413,-0.248318 -0.660052,-1.785235 -1.091159,-2.725875 -0.07484,-0.163283 0.109736,-0.379015 0.334936,-0.513625 z"
       id="path4-6-1-1"
       sodipodi:nodetypes="cscssscccccscccscssc" /><path
       id="path1-3-1-0"
       style="fill:#4d4d4d;fill-opacity:1;stroke:#000000;stroke-width:0.265"
       d="m 16.223194,11.16877 c 0.459104,0.795191 1.671845,1.407014 2.467038,0.94791 0.795191,-0.459104 0.871707,-1.815281 0.412603,-2.6104709 -0.459103,-0.79519 -1.475911,-1.067643 -2.271101,-0.60854 -0.795191,0.459103 -1.067644,1.4759099 -0.60854,2.2711009 z"
       sodipodi:nodetypes="zzzzz" /><path
       id="path1-7-1-1-0-6"
       style="fill:#ffffff;stroke:#000000;stroke-width:0.265;stroke-dasharray:none"
       d="m 15.411733,5.1697661 c 0.103606,0.179452 0.566481,0.525464 0.879135,0.344954 0.312656,-0.180512 0.272779,-0.783072 0.169164,-0.962526 -0.103607,-0.179453 -0.132083,-0.369314 -0.725919,-0.0018 -0.593841,0.367518 -0.425992,0.439914 -0.322385,0.619367 z"
       sodipodi:nodetypes="ssszs" /><path
       id="path1-7-1-9-7-3-3"
       style="fill:#ffffff;stroke:#000000;stroke-width:0.265;stroke-dasharray:none"
       d="m 13.273924,6.4291671 c 0.103608,0.179453 0.566483,0.525466 0.879137,0.344955 0.312654,-0.180512 0.272779,-0.783072 0.169164,-0.962526 -0.103604,-0.179451 -0.132079,-0.369312 -0.725915,-0.0018 -0.59384,0.367518 -0.425993,0.439914 -0.322385,0.619367 z"
       sodipodi:nodetypes="ssszs" /><ellipse
       style="fill:#ffffff;fill-opacity:1;stroke:#000000;stroke-width:0.265;stroke-dasharray:none;stroke-opacity:1"
       id="path1-7-2-9-9-1-3-1-2"
       cx="20.804684"
       cy="-11.452891"
       rx="0.65429264"
       ry="0.80279088"
       transform="scale(1,-1)" /><path
       style="fill:#999999;fill-opacity:1;stroke:none;stroke-width:0.264999;stroke-dasharray:none;stroke-opacity:1"
       d="m 8.7077382,12.885989 c 0.127731,-0.229178 0.330454,-0.407558 0.480562,-0.308918 1.0483958,0.688938 3.1880018,2.119863 3.7576308,2.943926 0.763487,-0.344448 1.637391,-0.698066 2.275693,-0.710562 0.805382,-0.01577 2.566066,0.514739 3.156528,1.035199 0.283167,0.249595 -0.232533,0.687605 -0.674078,0.587024 -0.76877,-0.175121 -1.487718,-0.336173 -2.297228,-0.613267 -0.658977,0.319847 -1.655582,0.812718 -2.180581,1.10747 -0.222519,0.636293 0.06698,1.619268 0.113966,2.280761 0.716446,0.413641 0.88956,0.671571 1.857923,1.24251 -0.153011,0.426221 -0.131963,0.499374 -0.386231,0.778351 -0.961284,-0.471721 -1.826217,-0.744884 -2.346282,-1.360044 -0.443626,-0.524743 -0.513703,-1.740225 -0.88549,-2.457608 -0.998766,-0.07763 -3.0226768,-1.225149 -4.1455648,-1.784518 -0.321542,-0.160181 0.211358,-1.057696 0.538471,-0.909219 0.942209,0.427667 2.4828188,1.187026 2.7307528,1.082698 0.140097,-0.05896 0.206114,-0.124774 0.230987,-0.189144 0.04316,-0.05389 0.06715,-0.146538 0.0476,-0.297281 -0.0346,-0.266757 -1.4642388,-1.216033 -2.3079088,-1.815098 -0.146455,-0.103987 -0.09447,-0.383104 0.03325,-0.61228 z"
       id="path4-6-1-2"
       sodipodi:nodetypes="cscssscccccscccscsscc" /><path
       id="path1-3-1-7"
       style="fill:#6666ff;fill-opacity:1;stroke:#000000;stroke-width:0.265"
       d="m 11.980235,18.124322 c 0.795191,0.459104 2.151367,0.382588 2.610472,-0.412604 0.459104,-0.795192 -0.15272,-2.007933 -0.947911,-2.467036 -0.795189,-0.459103 -1.811998,-0.186651 -2.271101,0.608539 -0.459104,0.795191 -0.186652,1.811998 0.60854,2.271101 z"
       sodipodi:nodetypes="zzzzz" /><path
       id="path1-7-1-1-0-2"
       style="fill:#ffffff;stroke:#000000;stroke-width:0.265;stroke-dasharray:none"
       d="m 8.2779872,13.334763 c 0.179451,0.103607 0.753319,0.171825 0.93383,-0.140829 0.180512,-0.312656 -0.155302,-0.814549 -0.334763,-0.918153 -0.179452,-0.103608 -0.299044,-0.253794 -0.629564,0.3614 -0.330522,0.615201 -0.148963,0.593973 0.03049,0.69758 z"
       sodipodi:nodetypes="ssszs" /><path
       id="path1-7-1-9-7-3-2"
       style="fill:#ffffff;stroke:#000000;stroke-width:0.265;stroke-dasharray:none"
       d="m 7.0562902,15.494341 c 0.179454,0.103607 0.753322,0.171825 0.933833,-0.140829 0.18051,-0.312655 -0.155303,-0.81455 -0.334763,-0.918154 -0.179449,-0.103607 -0.29904,-0.253794 -0.629561,0.361399 -0.330521,0.6152 -0.148963,0.593973 0.03049,0.69758 z"
       sodipodi:nodetypes="ssszs" /><path
       style="fill:#999999;fill-opacity:1;stroke:none;stroke-width:0.264999;stroke-dasharray:none;stroke-opacity:1"
       d="m 23.629828,27.87976 c 0.229178,-0.127731 0.407558,-0.330454 0.308918,-0.480562 -0.688938,-1.048395 -1.858617,-3.057378 -2.68268,-3.627008 0.03966,-0.807027 1.092389,-0.93503 1.30765,-1.903625 0.174759,-0.786351 -0.724654,-1.286357 -1.571671,-1.528491 -0.362924,-0.103764 -0.918366,0.365387 -0.587024,0.674078 0.510055,0.475188 1.010098,0.745707 1.010098,0.745707 -0.567699,0.552314 -1.313706,1.163458 -1.826163,1.601374 -0.636292,0.22252 -1.989367,-0.262916 -2.65086,-0.309901 -0.41364,-0.716445 -0.780424,-1.390281 -1.351363,-2.358645 -0.426221,0.153011 -0.499374,0.131964 -0.77835,0.386231 0.47172,0.961285 0.853736,2.326939 1.468896,2.847006 0.524743,0.443626 2.110324,0.709637 2.827707,1.081424 0.07763,0.998767 1.225149,3.022677 1.784518,4.145565 0.160181,0.321542 1.057695,-0.211358 0.909218,-0.538471 -0.427667,-0.942209 -1.187025,-2.482819 -1.082697,-2.730753 0.05896,-0.140098 0.124774,-0.206114 0.189144,-0.230987 0.05389,-0.04316 0.146538,-0.06715 0.297281,-0.0476 0.266757,0.0346 1.216033,1.464239 1.815097,2.307909 0.103988,0.146455 0.383105,0.09447 0.612281,-0.03325 z"
       id="path4-6-1-1-1"
       sodipodi:nodetypes="cscssscccccscccscssc" /><path
       id="path1-3-1-0-0"
       style="fill:#66ff66;fill-opacity:1;stroke:#000000;stroke-width:0.265"
       d="m 18.391495,24.607264 c -0.459104,-0.795191 -0.382588,-2.151367 0.412604,-2.610473 0.795192,-0.459103 2.007933,0.152721 2.467036,0.947911 0.459103,0.79519 0.186651,1.811998 -0.608539,2.271101 -0.795191,0.459105 -1.811998,0.186653 -2.271101,-0.608539 z"
       sodipodi:nodetypes="zzzzz" /><path
       id="path1-7-1-1-0-6-6"
       style="fill:#ffffff;stroke:#000000;stroke-width:0.265;stroke-dasharray:none"
       d="m 23.181053,28.309512 c -0.103606,-0.179451 -0.171824,-0.753319 0.14083,-0.933831 0.312656,-0.180512 0.814549,0.155303 0.918154,0.334763 0.103607,0.179453 0.253794,0.299044 -0.361402,0.629565 -0.6152,0.330522 -0.593972,0.148963 -0.69758,-0.03049 z"
       sodipodi:nodetypes="ssszs" /><path
       id="path1-7-1-9-7-3-3-1"
       style="fill:#ffffff;stroke:#000000;stroke-width:0.265;stroke-dasharray:none"
       d="m 21.021476,29.531209 c -0.103607,-0.179454 -0.171826,-0.753322 0.140828,-0.933833 0.312656,-0.18051 0.81455,0.155302 0.918155,0.334763 0.103607,0.179449 0.253793,0.29904 -0.361399,0.629561 -0.6152,0.330521 -0.593973,0.148964 -0.69758,-0.03049 z"
       sodipodi:nodetypes="ssszs" /><ellipse
       style="fill:#ffffff;fill-opacity:1;stroke:#000000;stroke-width:0.265;stroke-dasharray:none;stroke-opacity:1"
       id="path1-7-2-9-9-1-3-1-2-5"
       cx="-7.5332842"
       cy="27.947018"
       rx="0.65429264"
       ry="0.80279088"
       transform="rotate(-60)" /><ellipse
       style="fill:#ffffff;fill-opacity:1;stroke:#000000;stroke-width:0.265;stroke-dasharray:none;stroke-opacity:1"
       id="path1-7-2-9-9-1-3-9-9"
       cx="-5.9749122"
       cy="25.375227"
       rx="0.65429264"
       ry="0.80279088"
       transform="rotate(-49.27192)" /><ellipse
       style="fill:#ffffff;fill-opacity:1;stroke:#000000;stroke-width:0.265;stroke-dasharray:none;stroke-opacity:1"
       id="path1-7-2-9-9-1-3-9"
       cx="-3.0404403"
       cy="-24.052895"
       rx="0.65429264"
       ry="0.80279088"
       transform="matrix(0.56312112,-0.82637437,-0.82637437,-0.56312112,0,0)" /></g></svg>
