<?xml version="1.0" encoding="UTF-8" standalone="no"?>
<!-- Created with Inkscape (http://www.inkscape.org/) -->

<svg
   width="35mm"
   height="35mm"
   viewBox="0 0 35 35"
   version="1.1"
   id="svg1"
   xml:space="preserve"
   inkscape:version="1.4 (e7c3feb100, 2024-10-09)"
   sodipodi:docname="2_v1.svg"
   xmlns:inkscape="http://www.inkscape.org/namespaces/inkscape"
   xmlns:sodipodi="http://sodipodi.sourceforge.net/DTD/sodipodi-0.dtd"
   xmlns="http://www.w3.org/2000/svg"
   xmlns:svg="http://www.w3.org/2000/svg"><sodipodi:namedview
     id="namedview1"
     pagecolor="#ffffff"
     bordercolor="#000000"
     borderopacity="0.25"
     inkscape:showpageshadow="2"
     inkscape:pageopacity="0.0"
     inkscape:pagecheckerboard="0"
     inkscape:deskcolor="#d1d1d1"
     inkscape:document-units="mm"
     inkscape:zoom="6.0766399"
     inkscape:cx="75.123754"
     inkscape:cy="74.383213"
     inkscape:window-width="1916"
     inkscape:window-height="1023"
     inkscape:window-x="0"
     inkscape:window-y="0"
     inkscape:window-maximized="0"
     inkscape:current-layer="layer1"><sodipodi:guide
       position="25.431035,17.543103"
       orientation="0,132.28346"
       id="guide5"
       inkscape:locked="false" /><sodipodi:guide
       position="35.000001,35.000001"
       orientation="132.28346,0"
       id="guide6"
       inkscape:locked="false" /><sodipodi:guide
       position="35.000001,0"
       orientation="0,-132.28346"
       id="guide7"
       inkscape:locked="false" /><sodipodi:guide
       position="17.503506,35.914363"
       orientation="-132.28346,0"
       id="guide8"
       inkscape:locked="false" /></sodipodi:namedview><defs
     id="defs1"><inkscape:path-effect
       effect="mirror_symmetry"
       start_point="17.297909,16.234992"
       end_point="17.313303,7.810326"
       center_point="17.305606,12.022659"
       id="path-effect5"
       is_visible="true"
       lpeversion="1.2"
       lpesatellites=""
       mode="free"
       discard_orig_path="false"
       fuse_paths="true"
       oposite_fuse="false"
       split_items="false"
       split_open="false"
       link_styles="false" /><inkscape:path-effect
       effect="mirror_symmetry"
       start_point="17.297909,16.234992"
       end_point="17.313303,7.810326"
       center_point="17.305606,12.022659"
       id="path-effect5-7"
       is_visible="true"
       lpeversion="1.2"
       lpesatellites=""
       mode="free"
       discard_orig_path="false"
       fuse_paths="true"
       oposite_fuse="false"
       split_items="false"
       split_open="false"
       link_styles="false" /><inkscape:path-effect
       effect="mirror_symmetry"
       start_point="17.297909,16.234992"
       end_point="17.313303,7.810326"
       center_point="17.305606,12.022659"
       id="path-effect5-6"
       is_visible="true"
       lpeversion="1.2"
       lpesatellites=""
       mode="free"
       discard_orig_path="false"
       fuse_paths="true"
       oposite_fuse="false"
       split_items="false"
       split_open="false"
       link_styles="false" /><inkscape:path-effect
       effect="mirror_symmetry"
       start_point="17.297909,16.234992"
       end_point="17.313303,7.810326"
       center_point="17.305606,12.022659"
       id="path-effect5-3"
       is_visible="true"
       lpeversion="1.2"
       lpesatellites=""
       mode="free"
       discard_orig_path="false"
       fuse_paths="true"
       oposite_fuse="false"
       split_items="false"
       split_open="false"
       link_styles="false" /><inkscape:path-effect
       effect="mirror_symmetry"
       start_point="17.297909,16.234992"
       end_point="17.313303,7.810326"
       center_point="17.305606,12.022659"
       id="path-effect5-66"
       is_visible="true"
       lpeversion="1.2"
       lpesatellites=""
       mode="free"
       discard_orig_path="false"
       fuse_paths="true"
       oposite_fuse="false"
       split_items="false"
       split_open="false"
       link_styles="false" /><inkscape:path-effect
       effect="mirror_symmetry"
       start_point="17.297909,16.234992"
       end_point="17.313303,7.810326"
       center_point="17.305606,12.022659"
       id="path-effect5-4"
       is_visible="true"
       lpeversion="1.2"
       lpesatellites=""
       mode="free"
       discard_orig_path="false"
       fuse_paths="true"
       oposite_fuse="false"
       split_items="false"
       split_open="false"
       link_styles="false" /><inkscape:path-effect
       effect="mirror_symmetry"
       start_point="17.297909,16.234992"
       end_point="17.313303,7.810326"
       center_point="17.305606,12.022659"
       id="path-effect5-4-7"
       is_visible="true"
       lpeversion="1.2"
       lpesatellites=""
       mode="free"
       discard_orig_path="false"
       fuse_paths="true"
       oposite_fuse="false"
       split_items="false"
       split_open="false"
       link_styles="false" /><inkscape:path-effect
       effect="mirror_symmetry"
       start_point="17.297909,16.234992"
       end_point="17.313303,7.810326"
       center_point="17.305606,12.022659"
       id="path-effect5-41"
       is_visible="true"
       lpeversion="1.2"
       lpesatellites=""
       mode="free"
       discard_orig_path="false"
       fuse_paths="true"
       oposite_fuse="false"
       split_items="false"
       split_open="false"
       link_styles="false" /><inkscape:path-effect
       effect="mirror_symmetry"
       start_point="17.297909,16.234992"
       end_point="17.313303,7.810326"
       center_point="17.305606,12.022659"
       id="path-effect5-4-0"
       is_visible="true"
       lpeversion="1.2"
       lpesatellites=""
       mode="free"
       discard_orig_path="false"
       fuse_paths="true"
       oposite_fuse="false"
       split_items="false"
       split_open="false"
       link_styles="false" /><inkscape:path-effect
       effect="mirror_symmetry"
       start_point="17.493844,16.300304"
       end_point="17.509238,7.875638"
       center_point="17.501541,12.087971"
       id="path-effect5-4-0-9"
       is_visible="true"
       lpeversion="1.2"
       lpesatellites=""
       mode="free"
       discard_orig_path="false"
       fuse_paths="true"
       oposite_fuse="false"
       split_items="false"
       split_open="false"
       link_styles="false" /><inkscape:path-effect
       effect="mirror_symmetry"
       start_point="17.297909,16.234992"
       end_point="17.313303,7.810326"
       center_point="17.305606,12.022659"
       id="path-effect5-4-0-0"
       is_visible="true"
       lpeversion="1.2"
       lpesatellites=""
       mode="free"
       discard_orig_path="false"
       fuse_paths="true"
       oposite_fuse="false"
       split_items="false"
       split_open="false"
       link_styles="false" /><inkscape:path-effect
       effect="mirror_symmetry"
       start_point="17.493844,16.300304"
       end_point="17.509238,7.875638"
       center_point="17.501541,12.087971"
       id="path-effect5-4-0-9-7"
       is_visible="true"
       lpeversion="1.2"
       lpesatellites=""
       mode="free"
       discard_orig_path="false"
       fuse_paths="true"
       oposite_fuse="false"
       split_items="false"
       split_open="false"
       link_styles="false" /><inkscape:path-effect
       effect="mirror_symmetry"
       start_point="17.493844,16.300304"
       end_point="17.509238,7.875638"
       center_point="17.501541,12.087971"
       id="path-effect5-4-0-9-3"
       is_visible="true"
       lpeversion="1.2"
       lpesatellites=""
       mode="free"
       discard_orig_path="false"
       fuse_paths="true"
       oposite_fuse="false"
       split_items="false"
       split_open="false"
       link_styles="false" /><inkscape:path-effect
       effect="mirror_symmetry"
       start_point="17.493844,16.300304"
       end_point="17.509238,7.875638"
       center_point="17.501541,12.087971"
       id="path-effect5-4-0-9-5"
       is_visible="true"
       lpeversion="1.2"
       lpesatellites=""
       mode="free"
       discard_orig_path="false"
       fuse_paths="true"
       oposite_fuse="false"
       split_items="false"
       split_open="false"
       link_styles="false" /><inkscape:path-effect
       effect="mirror_symmetry"
       start_point="17.297909,16.234992"
       end_point="17.313303,7.810326"
       center_point="17.305606,12.022659"
       id="path-effect5-4-6-1"
       is_visible="true"
       lpeversion="1.2"
       lpesatellites=""
       mode="free"
       discard_orig_path="false"
       fuse_paths="true"
       oposite_fuse="false"
       split_items="false"
       split_open="false"
       link_styles="false" /><inkscape:path-effect
       effect="mirror_symmetry"
       start_point="17.493844,16.300304"
       end_point="17.509238,7.875638"
       center_point="17.501541,12.087971"
       id="path-effect5-4-0-9-5-9"
       is_visible="true"
       lpeversion="1.2"
       lpesatellites=""
       mode="free"
       discard_orig_path="false"
       fuse_paths="true"
       oposite_fuse="false"
       split_items="false"
       split_open="false"
       link_styles="false" /></defs><g
     inkscape:label="Layer 1"
     inkscape:groupmode="layer"
     id="layer1"><path
       style="fill:#999999;fill-opacity:1;stroke:none;stroke-width:0.264999;stroke-dasharray:none;stroke-opacity:1"
       d="m 7.4967741,16.105489 c -0.1346076,0.225207 -0.1877291,0.48996 -0.027251,0.570638 1.120836,0.563468 3.1382989,1.718459 4.1367749,1.799741 0.369163,0.718738 -0.478522,1.355954 -0.180646,2.302413 0.24183,0.768379 1.270748,0.75169 2.125353,0.537876 0.366184,-0.0916 0.612635,-0.775617 0.171339,-0.877281 -0.679315,-0.156497 -1.247624,-0.140752 -1.247624,-0.140752 0.215485,-0.762167 0.555974,-1.664437 0.780816,-2.299912 0.439786,-0.510854 1.854301,-0.766991 2.450663,-1.057048 0.716446,0.41364 1.371008,0.813807 2.349637,1.366965 0.292613,-0.345622 0.366489,-0.363971 0.480956,-0.723661 -0.889164,-0.596637 -1.902827,-1.58832 -2.695604,-1.73113 -0.676254,-0.12182 -2.182413,0.440597 -2.989579,0.477312 -0.566612,-0.826142 -2.572349,-2.00514 -3.618221,-2.697905 -0.2994921,-0.198373 -0.8103123,0.711889 -0.5181712,0.920938 0.8414751,0.602144 2.2694042,1.556672 2.3030192,1.823553 0.01899,0.150807 -0.005,0.240887 -0.04831,0.294613 -0.02509,0.06432 -0.09333,0.131423 -0.233652,0.189863 -0.248318,0.103413 -1.7852357,-0.660052 -2.7258755,-1.091159 -0.1632833,-0.07484 -0.3790148,0.109736 -0.5136244,0.334936 z"
       id="path4-6-1"
       sodipodi:nodetypes="cscssscccccscccscssc" /><path
       id="path1-3-1"
       style="fill:#6666ff;fill-opacity:1;stroke:#000000;stroke-width:0.265"
       d="m 13.669554,16.320387 c 0.795191,0.459104 1.407014,1.671845 0.94791,2.467038 -0.459104,0.795191 -1.815281,0.871707 -2.610472,0.412603 -0.79519,-0.459103 -1.067644,-1.475911 -0.60854,-2.271101 0.459104,-0.795191 1.475911,-1.067644 2.271102,-0.60854 z"
       sodipodi:nodetypes="zzzzz" /><path
       id="path1-7-1-1-0"
       style="fill:#ffffff;stroke:#000000;stroke-width:0.265;stroke-dasharray:none"
       d="m 7.6705481,15.508926 c 0.179452,0.103606 0.5254649,0.566481 0.3449539,0.879135 -0.1805116,0.312656 -0.7830714,0.272779 -0.9625258,0.169164 -0.1794528,-0.103607 -0.3693138,-0.132083 -0.0018,-0.725919 0.3675179,-0.593841 0.439914,-0.425992 0.6193673,-0.322385 z"
       sodipodi:nodetypes="ssszs" /><path
       id="path1-7-1-9-7-3"
       style="fill:#ffffff;stroke:#000000;stroke-width:0.265;stroke-dasharray:none"
       d="m 8.9299495,13.371117 c 0.1794529,0.103608 0.5254655,0.566483 0.3449546,0.879137 -0.1805119,0.312654 -0.7830714,0.272779 -0.9625259,0.169164 -0.1794511,-0.103604 -0.369312,-0.132079 -0.0018,-0.725915 0.3675182,-0.59384 0.4399141,-0.425993 0.6193669,-0.322385 z"
       sodipodi:nodetypes="ssszs" /><ellipse
       style="fill:#ffffff;fill-opacity:1;stroke:#000000;stroke-width:0.265;stroke-dasharray:none;stroke-opacity:1"
       id="path1-7-2-9-9-1-3-1"
       cx="20.901873"
       cy="-13.953671"
       rx="0.65429264"
       ry="0.80279088"
       transform="rotate(90)" /><path
       style="fill:#999999;fill-opacity:1;stroke:none;stroke-width:0.264999;stroke-dasharray:none;stroke-opacity:1"
       d="m 20.482012,29.090725 c -0.225207,0.134608 -0.48996,0.187729 -0.570638,0.02725 -0.563468,-1.120836 -1.718459,-3.138299 -1.799741,-4.136773 -0.718738,-0.369164 -1.355954,0.478521 -2.302413,0.180645 -0.768379,-0.24183 -0.75169,-1.270747 -0.537876,-2.125352 0.0916,-0.366184 0.775617,-0.612635 0.877281,-0.171339 0.156497,0.679315 0.140752,1.247624 0.140752,1.247624 0.762167,-0.215485 1.664437,-0.555974 2.299912,-0.780816 0.510854,-0.439786 0.766991,-1.854301 1.057048,-2.450663 -0.41364,-0.716446 -0.813807,-1.371008 -1.366965,-2.349637 0.345622,-0.292613 0.363971,-0.366489 0.723661,-0.480956 0.596637,0.889164 1.58832,1.902827 1.73113,2.695604 0.12182,0.676254 -0.440597,2.182413 -0.477312,2.989579 0.826142,0.566612 2.00514,2.572348 2.697905,3.61822 0.198373,0.299492 -0.711889,0.810312 -0.920938,0.518171 -0.602144,-0.841475 -1.556672,-2.269404 -1.823553,-2.30302 -0.150807,-0.01899 -0.240887,0.005 -0.294613,0.04831 -0.06432,0.02509 -0.131423,0.09333 -0.189863,0.233653 -0.103413,0.248318 0.660052,1.785235 1.091159,2.725875 0.07484,0.163283 -0.109736,0.379015 -0.334936,0.513624 z"
       id="path4-6-1-1"
       sodipodi:nodetypes="cscssscccccscccscssc" /><path
       id="path1-3-1-0"
       style="fill:#66ff66;fill-opacity:1;stroke:#000000;stroke-width:0.265"
       d="m 20.267114,22.917947 c -0.459104,-0.795191 -1.671845,-1.407014 -2.467038,-0.94791 -0.795191,0.459104 -0.871707,1.815281 -0.412603,2.610471 0.459103,0.79519 1.475911,1.067643 2.271101,0.60854 0.795191,-0.459103 1.067644,-1.47591 0.60854,-2.271101 z"
       sodipodi:nodetypes="zzzzz" /><path
       id="path1-7-1-1-0-6"
       style="fill:#ffffff;stroke:#000000;stroke-width:0.265;stroke-dasharray:none"
       d="m 21.078575,28.916951 c -0.103606,-0.179452 -0.566481,-0.525464 -0.879135,-0.344954 -0.312656,0.180512 -0.272779,0.783072 -0.169164,0.962526 0.103607,0.179453 0.132083,0.369314 0.725919,0.0018 0.593841,-0.367518 0.425992,-0.439914 0.322385,-0.619367 z"
       sodipodi:nodetypes="ssszs" /><path
       id="path1-7-1-9-7-3-3"
       style="fill:#ffffff;stroke:#000000;stroke-width:0.265;stroke-dasharray:none"
       d="m 23.216384,27.65755 c -0.103608,-0.179453 -0.566483,-0.525466 -0.879137,-0.344955 -0.312654,0.180512 -0.272779,0.783072 -0.169164,0.962526 0.103604,0.179451 0.132079,0.369312 0.725915,0.0018 0.59384,-0.367518 0.425993,-0.439914 0.322385,-0.619367 z"
       sodipodi:nodetypes="ssszs" /><ellipse
       style="fill:#ffffff;fill-opacity:1;stroke:#000000;stroke-width:0.265;stroke-dasharray:none;stroke-opacity:1"
       id="path1-7-2-9-9-1-3-1-2"
       cx="-15.685624"
       cy="22.633825"
       rx="0.65429264"
       ry="0.80279088"
       transform="scale(-1,1)" /><path
       style="fill:#999999;fill-opacity:1;stroke:none;stroke-width:0.264999;stroke-dasharray:none;stroke-opacity:1"
       d="m 27.78257,21.200728 c -0.127731,0.229178 -0.330454,0.407558 -0.480562,0.308918 -1.048396,-0.688938 -3.188002,-2.119863 -3.757631,-2.943926 -0.763487,0.344448 -1.637391,0.698066 -2.275693,0.710562 -0.805382,0.01577 -2.566066,-0.514739 -3.156528,-1.035199 -0.283167,-0.249595 0.232533,-0.687605 0.674078,-0.587024 0.76877,0.175121 1.487718,0.336173 2.297228,0.613267 0.658977,-0.319847 1.655582,-0.812718 2.180581,-1.10747 0.222519,-0.636293 -0.06698,-1.619268 -0.113966,-2.280761 -0.716446,-0.413641 -0.88956,-0.671571 -1.857923,-1.24251 0.153011,-0.426221 0.131963,-0.499374 0.386231,-0.778351 0.961284,0.471721 1.826217,0.744884 2.346282,1.360044 0.443626,0.524743 0.513703,1.740225 0.88549,2.457608 0.998766,0.07763 3.022677,1.225149 4.145565,1.784518 0.321542,0.160181 -0.211358,1.057696 -0.538471,0.909219 -0.942209,-0.427667 -2.482819,-1.187026 -2.730753,-1.082698 -0.140097,0.05896 -0.206114,0.124774 -0.230987,0.189144 -0.04316,0.05389 -0.06715,0.146538 -0.0476,0.297281 0.0346,0.266757 1.464239,1.216033 2.307909,1.815098 0.146455,0.103987 0.09447,0.383104 -0.03325,0.612279 z"
       id="path4-6-1-2"
       sodipodi:nodetypes="cscssscccccscccscsscc" /><path
       id="path1-3-1-7"
       style="fill:#ff6666;fill-opacity:1;stroke:#000000;stroke-width:0.265"
       d="m 24.510073,15.962395 c -0.795191,-0.459104 -2.151367,-0.382588 -2.610472,0.412604 -0.459104,0.795192 0.15272,2.007933 0.947911,2.467036 0.795189,0.459103 1.811998,0.186651 2.271101,-0.608539 0.459104,-0.795191 0.186652,-1.811998 -0.60854,-2.271101 z"
       sodipodi:nodetypes="zzzzz" /><path
       id="path1-7-1-1-0-2"
       style="fill:#ffffff;stroke:#000000;stroke-width:0.265;stroke-dasharray:none"
       d="m 28.212321,20.751954 c -0.179451,-0.103607 -0.753319,-0.171825 -0.93383,0.140829 -0.180512,0.312656 0.155302,0.814549 0.334763,0.918153 0.179452,0.103608 0.299044,0.253794 0.629564,-0.3614 0.330522,-0.615201 0.148963,-0.593973 -0.03049,-0.69758 z"
       sodipodi:nodetypes="ssszs" /><path
       id="path1-7-1-9-7-3-2"
       style="fill:#ffffff;stroke:#000000;stroke-width:0.265;stroke-dasharray:none"
       d="m 29.434018,18.592376 c -0.179454,-0.103607 -0.753322,-0.171825 -0.933833,0.140829 -0.18051,0.312655 0.155303,0.81455 0.334763,0.918154 0.179449,0.103607 0.29904,0.253794 0.629561,-0.361399 0.330521,-0.6152 0.148963,-0.593973 -0.03049,-0.69758 z"
       sodipodi:nodetypes="ssszs" /><path
       style="fill:#999999;fill-opacity:1;stroke:none;stroke-width:0.264999;stroke-dasharray:none;stroke-opacity:1"
       d="m 12.86048,6.2069574 c -0.229178,0.127731 -0.407558,0.3304533 -0.308918,0.480562 0.688938,1.0483952 1.858617,3.0573779 2.68268,3.6270076 -0.03966,0.807027 -1.092389,0.93503 -1.30765,1.903625 -0.174759,0.786351 0.724654,1.286357 1.571671,1.528491 0.362924,0.103764 0.918366,-0.365387 0.587024,-0.674078 -0.510055,-0.475188 -1.010098,-0.745707 -1.010098,-0.745707 0.567699,-0.552314 1.313706,-1.163458 1.826163,-1.601374 0.636292,-0.22252 1.989367,0.262916 2.65086,0.309901 0.41364,0.716445 0.780424,1.390281 1.351363,2.358645 0.426221,-0.153011 0.499374,-0.131964 0.77835,-0.386231 C 21.210205,12.046514 20.828189,10.68086 20.213029,10.160793 19.688286,9.7171673 18.102705,9.4511566 17.385322,9.0793696 17.307692,8.0806023 16.160173,6.0566925 15.600804,4.9338044 c -0.160181,-0.321542 -1.057695,0.211358 -0.909218,0.5384705 0.427667,0.9422092 1.187025,2.4828194 1.082697,2.7307534 -0.05896,0.140098 -0.124774,0.206114 -0.189144,0.230987 -0.05389,0.04316 -0.146538,0.06715 -0.297281,0.0476 C 15.021101,8.4470153 14.071825,7.0173764 13.472761,6.173706 13.368773,6.0272511 13.089656,6.079233 12.86048,6.2069574 Z"
       id="path4-6-1-1-1"
       sodipodi:nodetypes="cscssscccccscccscssc" /><path
       id="path1-3-1-0-0"
       style="fill:#4d4d4d;fill-opacity:1;stroke:#000000;stroke-width:0.265"
       d="m 18.098813,9.4794533 c 0.459104,0.7951907 0.382588,2.1513667 -0.412604,2.6104727 -0.795192,0.459103 -2.007933,-0.152721 -2.467036,-0.947911 -0.459103,-0.79519 -0.186651,-1.8119974 0.608539,-2.2711007 0.795191,-0.459105 1.811998,-0.186653 2.271101,0.608539 z"
       sodipodi:nodetypes="zzzzz" /><path
       id="path1-7-1-1-0-6-6"
       style="fill:#ffffff;stroke:#000000;stroke-width:0.265;stroke-dasharray:none"
       d="m 13.309255,5.7772048 c 0.103606,0.1794515 0.171824,0.7533198 -0.14083,0.9338311 C 12.855769,6.891548 12.353876,6.5557335 12.250271,6.3762733 12.146664,6.1968205 11.996477,6.0772292 12.611673,5.7467081 c 0.6152,-0.3305224 0.593972,-0.1489629 0.69758,0.03049 z"
       sodipodi:nodetypes="ssszs" /><path
       id="path1-7-1-9-7-3-3-1"
       style="fill:#ffffff;stroke:#000000;stroke-width:0.265;stroke-dasharray:none"
       d="m 15.468832,4.5555084 c 0.103607,0.1794537 0.171826,0.7533217 -0.140828,0.9338325 -0.312656,0.1805106 -0.81455,-0.1553022 -0.918155,-0.3347624 -0.103607,-0.1794495 -0.253793,-0.29904 0.361399,-0.6295611 0.6152,-0.3305215 0.593973,-0.1489638 0.69758,0.03049 z"
       sodipodi:nodetypes="ssszs" /><ellipse
       style="fill:#ffffff;fill-opacity:1;stroke:#000000;stroke-width:0.265;stroke-dasharray:none;stroke-opacity:1"
       id="path1-7-2-9-9-1-3-1-2-5"
       cx="3.7415245"
       cy="-20.697874"
       rx="0.65429264"
       ry="0.80279088"
       transform="rotate(120)" /><ellipse
       style="fill:#ffffff;fill-opacity:1;stroke:#000000;stroke-width:0.265;stroke-dasharray:none;stroke-opacity:1"
       id="path1-7-2-9-9-1-3-9-9"
       cx="-3.9523256"
       cy="-24.518219"
       rx="0.65429264"
       ry="0.80279088"
       transform="rotate(130.72808)" /><ellipse
       style="fill:#ffffff;fill-opacity:1;stroke:#000000;stroke-width:0.265;stroke-dasharray:none;stroke-opacity:1"
       id="path1-7-2-9-9-1-3-9"
       cx="4.5794849"
       cy="25.296713"
       rx="0.65429264"
       ry="0.80279088"
       transform="matrix(-0.56312115,0.82637435,0.82637435,0.56312115,0,0)" /></g></svg>
