<?xml version="1.0" encoding="UTF-8" standalone="no"?>
<!-- Created with Inkscape (http://www.inkscape.org/) -->

<svg
   width="35mm"
   height="35mm"
   viewBox="0 0 35 35"
   version="1.1"
   id="svg1"
   xml:space="preserve"
   inkscape:version="1.4 (e7c3feb100, 2024-10-09)"
   sodipodi:docname="2_v1_inter.svg"
   xmlns:inkscape="http://www.inkscape.org/namespaces/inkscape"
   xmlns:sodipodi="http://sodipodi.sourceforge.net/DTD/sodipodi-0.dtd"
   xmlns:xlink="http://www.w3.org/1999/xlink"
   xmlns="http://www.w3.org/2000/svg"
   xmlns:svg="http://www.w3.org/2000/svg"><sodipodi:namedview
     id="namedview1"
     pagecolor="#ffffff"
     bordercolor="#000000"
     borderopacity="0.25"
     inkscape:showpageshadow="2"
     inkscape:pageopacity="0.0"
     inkscape:pagecheckerboard="0"
     inkscape:deskcolor="#d1d1d1"
     inkscape:document-units="mm"
     inkscape:zoom="4.2968333"
     inkscape:cx="85.993562"
     inkscape:cy="41.891316"
     inkscape:window-width="1916"
     inkscape:window-height="1023"
     inkscape:window-x="0"
     inkscape:window-y="0"
     inkscape:window-maximized="0"
     inkscape:current-layer="layer1"><sodipodi:guide
       position="25.431035,17.543103"
       orientation="0,132.28346"
       id="guide5"
       inkscape:locked="false" /><sodipodi:guide
       position="35.000001,35.000001"
       orientation="132.28346,0"
       id="guide6"
       inkscape:locked="false" /><sodipodi:guide
       position="35.000001,0"
       orientation="0,-132.28346"
       id="guide7"
       inkscape:locked="false" /><sodipodi:guide
       position="17.503506,35.914363"
       orientation="-132.28346,0"
       id="guide8"
       inkscape:locked="false" /></sodipodi:namedview><defs
     id="defs1"><linearGradient
       id="linearGradient7"
       inkscape:collect="always"><stop
         style="stop-color:#ff6666;stop-opacity:0.75;"
         offset="0"
         id="stop6" /><stop
         style="stop-color:#ff6666;stop-opacity:0;"
         offset="1"
         id="stop7" /></linearGradient><linearGradient
       id="linearGradient5"
       inkscape:collect="always"><stop
         style="stop-color:#6666ff;stop-opacity:0.75;"
         offset="0"
         id="stop4" /><stop
         style="stop-color:#6666ff;stop-opacity:0;"
         offset="1"
         id="stop5" /></linearGradient><inkscape:path-effect
       effect="mirror_symmetry"
       start_point="17.297909,16.234992"
       end_point="17.313303,7.810326"
       center_point="17.305606,12.022659"
       id="path-effect5"
       is_visible="true"
       lpeversion="1.2"
       lpesatellites=""
       mode="free"
       discard_orig_path="false"
       fuse_paths="true"
       oposite_fuse="false"
       split_items="false"
       split_open="false"
       link_styles="false" /><inkscape:path-effect
       effect="mirror_symmetry"
       start_point="17.297909,16.234992"
       end_point="17.313303,7.810326"
       center_point="17.305606,12.022659"
       id="path-effect5-7"
       is_visible="true"
       lpeversion="1.2"
       lpesatellites=""
       mode="free"
       discard_orig_path="false"
       fuse_paths="true"
       oposite_fuse="false"
       split_items="false"
       split_open="false"
       link_styles="false" /><inkscape:path-effect
       effect="mirror_symmetry"
       start_point="17.297909,16.234992"
       end_point="17.313303,7.810326"
       center_point="17.305606,12.022659"
       id="path-effect5-6"
       is_visible="true"
       lpeversion="1.2"
       lpesatellites=""
       mode="free"
       discard_orig_path="false"
       fuse_paths="true"
       oposite_fuse="false"
       split_items="false"
       split_open="false"
       link_styles="false" /><inkscape:path-effect
       effect="mirror_symmetry"
       start_point="17.297909,16.234992"
       end_point="17.313303,7.810326"
       center_point="17.305606,12.022659"
       id="path-effect5-3"
       is_visible="true"
       lpeversion="1.2"
       lpesatellites=""
       mode="free"
       discard_orig_path="false"
       fuse_paths="true"
       oposite_fuse="false"
       split_items="false"
       split_open="false"
       link_styles="false" /><inkscape:path-effect
       effect="mirror_symmetry"
       start_point="17.297909,16.234992"
       end_point="17.313303,7.810326"
       center_point="17.305606,12.022659"
       id="path-effect5-66"
       is_visible="true"
       lpeversion="1.2"
       lpesatellites=""
       mode="free"
       discard_orig_path="false"
       fuse_paths="true"
       oposite_fuse="false"
       split_items="false"
       split_open="false"
       link_styles="false" /><inkscape:path-effect
       effect="mirror_symmetry"
       start_point="17.297909,16.234992"
       end_point="17.313303,7.810326"
       center_point="17.305606,12.022659"
       id="path-effect5-4"
       is_visible="true"
       lpeversion="1.2"
       lpesatellites=""
       mode="free"
       discard_orig_path="false"
       fuse_paths="true"
       oposite_fuse="false"
       split_items="false"
       split_open="false"
       link_styles="false" /><inkscape:path-effect
       effect="mirror_symmetry"
       start_point="17.297909,16.234992"
       end_point="17.313303,7.810326"
       center_point="17.305606,12.022659"
       id="path-effect5-4-7"
       is_visible="true"
       lpeversion="1.2"
       lpesatellites=""
       mode="free"
       discard_orig_path="false"
       fuse_paths="true"
       oposite_fuse="false"
       split_items="false"
       split_open="false"
       link_styles="false" /><inkscape:path-effect
       effect="mirror_symmetry"
       start_point="17.297909,16.234992"
       end_point="17.313303,7.810326"
       center_point="17.305606,12.022659"
       id="path-effect5-41"
       is_visible="true"
       lpeversion="1.2"
       lpesatellites=""
       mode="free"
       discard_orig_path="false"
       fuse_paths="true"
       oposite_fuse="false"
       split_items="false"
       split_open="false"
       link_styles="false" /><inkscape:path-effect
       effect="mirror_symmetry"
       start_point="17.297909,16.234992"
       end_point="17.313303,7.810326"
       center_point="17.305606,12.022659"
       id="path-effect5-4-0"
       is_visible="true"
       lpeversion="1.2"
       lpesatellites=""
       mode="free"
       discard_orig_path="false"
       fuse_paths="true"
       oposite_fuse="false"
       split_items="false"
       split_open="false"
       link_styles="false" /><inkscape:path-effect
       effect="mirror_symmetry"
       start_point="17.493844,16.300304"
       end_point="17.509238,7.875638"
       center_point="17.501541,12.087971"
       id="path-effect5-4-0-9"
       is_visible="true"
       lpeversion="1.2"
       lpesatellites=""
       mode="free"
       discard_orig_path="false"
       fuse_paths="true"
       oposite_fuse="false"
       split_items="false"
       split_open="false"
       link_styles="false" /><inkscape:path-effect
       effect="mirror_symmetry"
       start_point="17.297909,16.234992"
       end_point="17.313303,7.810326"
       center_point="17.305606,12.022659"
       id="path-effect5-4-0-0"
       is_visible="true"
       lpeversion="1.2"
       lpesatellites=""
       mode="free"
       discard_orig_path="false"
       fuse_paths="true"
       oposite_fuse="false"
       split_items="false"
       split_open="false"
       link_styles="false" /><inkscape:path-effect
       effect="mirror_symmetry"
       start_point="17.493844,16.300304"
       end_point="17.509238,7.875638"
       center_point="17.501541,12.087971"
       id="path-effect5-4-0-9-7"
       is_visible="true"
       lpeversion="1.2"
       lpesatellites=""
       mode="free"
       discard_orig_path="false"
       fuse_paths="true"
       oposite_fuse="false"
       split_items="false"
       split_open="false"
       link_styles="false" /><inkscape:path-effect
       effect="mirror_symmetry"
       start_point="17.493844,16.300304"
       end_point="17.509238,7.875638"
       center_point="17.501541,12.087971"
       id="path-effect5-4-0-9-3"
       is_visible="true"
       lpeversion="1.2"
       lpesatellites=""
       mode="free"
       discard_orig_path="false"
       fuse_paths="true"
       oposite_fuse="false"
       split_items="false"
       split_open="false"
       link_styles="false" /><inkscape:path-effect
       effect="mirror_symmetry"
       start_point="17.493844,16.300304"
       end_point="17.509238,7.875638"
       center_point="17.501541,12.087971"
       id="path-effect5-4-0-9-5"
       is_visible="true"
       lpeversion="1.2"
       lpesatellites=""
       mode="free"
       discard_orig_path="false"
       fuse_paths="true"
       oposite_fuse="false"
       split_items="false"
       split_open="false"
       link_styles="false" /><inkscape:path-effect
       effect="mirror_symmetry"
       start_point="17.297909,16.234992"
       end_point="17.313303,7.810326"
       center_point="17.305606,12.022659"
       id="path-effect5-4-6-1"
       is_visible="true"
       lpeversion="1.2"
       lpesatellites=""
       mode="free"
       discard_orig_path="false"
       fuse_paths="true"
       oposite_fuse="false"
       split_items="false"
       split_open="false"
       link_styles="false" /><inkscape:path-effect
       effect="mirror_symmetry"
       start_point="17.493844,16.300304"
       end_point="17.509238,7.875638"
       center_point="17.501541,12.087971"
       id="path-effect5-4-0-9-5-9"
       is_visible="true"
       lpeversion="1.2"
       lpesatellites=""
       mode="free"
       discard_orig_path="false"
       fuse_paths="true"
       oposite_fuse="false"
       split_items="false"
       split_open="false"
       link_styles="false" /><linearGradient
       inkscape:collect="always"
       xlink:href="#linearGradient5"
       id="linearGradient4"
       gradientUnits="userSpaceOnUse"
       gradientTransform="matrix(-1,0,0,-1.0825992,32.867238,36.116704)"
       x1="10.647268"
       y1="16.557197"
       x2="18.301222"
       y2="15.409434" /><linearGradient
       inkscape:collect="always"
       xlink:href="#linearGradient7"
       id="linearGradient6"
       gradientUnits="userSpaceOnUse"
       gradientTransform="matrix(1,0,0,1.0825992,1.8452531,-1.4610168)"
       x1="10.647268"
       y1="16.557197"
       x2="18.301222"
       y2="15.409434" /></defs><g
     inkscape:label="Layer 1"
     inkscape:groupmode="layer"
     id="layer1"><path
       style="fill:#999999;fill-opacity:1;stroke:none;stroke-width:0.264999;stroke-dasharray:none;stroke-opacity:1"
       d="m 22.201599,12.409492 c -0.252365,-0.07176 -0.521852,-0.05452 -0.558246,0.12137 -0.254175,1.22848 -0.847653,3.476134 -0.667741,4.461624 -0.598702,0.542607 -1.433601,-0.11127 -2.270715,0.421418 -0.679607,0.432461 -0.397184,1.421999 0.03053,2.192145 0.183254,0.33 0.907751,0.391016 0.891735,-0.06156 -0.02466,-0.696672 -0.186953,-1.241542 -0.186953,-1.241542 0.791969,0.01088 1.751619,0.106243 2.423635,0.15895 0.607271,0.292582 1.220785,1.592605 1.655307,2.093574 -0.214115,0.799093 -0.431231,1.534923 -0.712248,2.623374 0.409578,0.193189 0.446423,0.259798 0.823482,0.277271 0.346174,-1.013288 1.041712,-2.249078 0.97447,-3.051804 -0.05736,-0.68474 -0.990434,-1.994013 -1.234808,-2.764173 0.651342,-0.761127 1.271044,-3.003666 1.669512,-4.193202 0.114099,-0.340629 -0.897356,-0.598451 -1.02367,-0.262158 -0.363837,0.968649 -0.916266,2.594973 -1.165352,2.696516 -0.140753,0.05738 -0.233973,0.05752 -0.297078,0.02959 -0.06862,-0.0076 -0.151102,-0.05613 -0.243867,-0.17655 -0.164159,-0.213091 0.175508,-1.89524 0.34847,-2.915406 0.03003,-0.177091 -0.204093,-0.337699 -0.456459,-0.409436 z"
       id="path4-6-1"
       sodipodi:nodetypes="cscssscccccscccscssc" /><path
       id="path1-3-1"
       style="fill:#6666ff;fill-opacity:1;stroke:#000000;stroke-width:0.265"
       d="m 23.591657,18.427559 c -0.237651,0.88692 -1.250717,1.791776 -2.137639,1.554127 -0.886921,-0.23765 -1.311834,-1.527812 -1.074184,-2.414733 0.237649,-0.886919 1.149294,-1.413258 2.036214,-1.175608 0.88692,0.237649 1.413259,1.149293 1.175609,2.036214 z"
       sodipodi:nodetypes="zzzzz" /><path
       id="path1-7-1-1-0"
       style="fill:#ffffff;stroke:#000000;stroke-width:0.265;stroke-dasharray:none"
       d="m 22.822811,12.422943 c -0.05363,0.200153 -0.411179,0.654177 -0.759898,0.560737 -0.348723,-0.09344 -0.466159,-0.685789 -0.412521,-0.885946 0.05363,-0.200153 0.032,-0.390915 0.700719,-0.18962 0.668727,0.201298 0.525335,0.314669 0.471704,0.514824 z"
       sodipodi:nodetypes="ssszs" /><path
       id="path1-7-1-9-7-3"
       style="fill:#ffffff;stroke:#000000;stroke-width:0.265;stroke-dasharray:none"
       d="m 25.213734,13.086126 c -0.05363,0.200154 -0.411181,0.654177 -0.759901,0.560738 -0.34872,-0.09344 -0.466158,-0.685789 -0.41252,-0.885946 0.05363,-0.200151 0.032,-0.390912 0.700714,-0.189619 0.668726,0.201298 0.525336,0.314669 0.471704,0.514823 z"
       sodipodi:nodetypes="ssszs" /><ellipse
       style="fill:#ffffff;fill-opacity:1;stroke:#000000;stroke-width:0.265;stroke-dasharray:none;stroke-opacity:1"
       id="path1-7-2-9-9-1-3-1"
       cx="-13.436901"
       cy="-24.189747"
       rx="0.65429264"
       ry="0.80279088"
       transform="rotate(165)" /><path
       style="fill:#999999;fill-opacity:1;stroke:none;stroke-width:0.264999;stroke-dasharray:none;stroke-opacity:1"
       d="m 13.019652,28.313094 c -0.188309,-0.182694 -0.308143,-0.424676 -0.174013,-0.544141 0.936807,-0.834361 2.586592,-2.472155 3.530007,-2.809092 0.170566,-0.789793 -0.813162,-1.1859 -0.770397,-2.177205 0.03472,-0.804788 1.032895,-1.054971 1.913719,-1.069631 0.377415,-0.0063 0.792504,0.590628 0.392558,0.803043 -0.615664,0.326984 -1.168683,0.458865 -1.168683,0.458865 0.405406,0.680426 0.967818,1.463826 1.349471,2.019455 0.55702,0.379621 1.98963,0.260928 2.640744,0.386751 0.584975,-0.584975 1.113663,-1.14092 1.915778,-1.928517 0.372096,0.258111 0.448204,0.256714 0.651865,0.574521 -0.704446,0.80644 -1.426902,2.026688 -2.155704,2.369818 -0.621682,0.292696 -2.222084,0.139266 -3.011249,0.312712 -0.333485,0.944641 -1.965729,2.602589 -2.796663,3.54244 -0.237945,0.269127 -0.966952,-0.477908 -0.738871,-0.755445 0.656956,-0.799416 1.78918,-2.090994 1.752576,-2.357483 -0.02069,-0.150584 -0.06718,-0.231384 -0.122916,-0.27207 -0.04088,-0.05564 -0.124164,-0.102789 -0.274831,-0.12292 -0.266622,-0.03562 -1.553571,1.099614 -2.35058,1.759487 -0.138349,0.114551 -0.394501,-0.0079 -0.58281,-0.190586 z"
       id="path4-6-1-1"
       sodipodi:nodetypes="cscssscccccscccscssc" /><path
       id="path1-3-1-0"
       style="fill:#66ff66;fill-opacity:1;stroke:#000000;stroke-width:0.265"
       d="m 18.926477,26.507886 c 0.649271,-0.64927 0.926366,-1.97904 0.277095,-2.628313 -0.649271,-0.64927 -1.979042,-0.372174 -2.628311,0.277096 -0.64927,0.64927 -0.64927,1.701947 0,2.351217 0.649269,0.649271 1.701945,0.649271 2.351216,0 z"
       sodipodi:nodetypes="zzzzz" /><path
       id="path1-7-1-1-0-6"
       style="fill:#ffffff;stroke:#000000;stroke-width:0.265;stroke-dasharray:none"
       d="m 13.341906,28.844354 c 0.146522,-0.146522 0.360943,-0.683179 0.105664,-0.938459 -0.255283,-0.255283 -0.82699,-0.06081 -0.973512,0.08572 -0.146523,0.146523 -0.322544,0.223169 0.186143,0.701651 0.508693,0.478485 0.535179,0.297618 0.681701,0.151095 z"
       sodipodi:nodetypes="ssszs" /><path
       id="path1-7-1-9-7-3-3"
       style="fill:#ffffff;stroke:#000000;stroke-width:0.265;stroke-dasharray:none"
       d="m 15.111699,30.583362 c 0.146523,-0.146523 0.360945,-0.683181 0.105664,-0.938462 -0.255282,-0.25528 -0.82699,-0.06081 -0.973511,0.08572 -0.146522,0.146519 -0.322544,0.223162 0.186141,0.701645 0.508692,0.478485 0.53518,0.29762 0.681703,0.151096 z"
       sodipodi:nodetypes="ssszs" /><ellipse
       style="fill:#ffffff;fill-opacity:1;stroke:#000000;stroke-width:0.265;stroke-dasharray:none;stroke-opacity:1"
       id="path1-7-2-9-9-1-3-1-2"
       cx="-25.9217"
       cy="-11.704947"
       rx="0.65429264"
       ry="0.80279088"
       transform="matrix(-0.25881905,-0.96592583,-0.96592583,0.25881905,0,0)" /><ellipse
       style="fill:#ffffff;fill-opacity:1;stroke:#000000;stroke-width:0.265;stroke-dasharray:none;stroke-opacity:1"
       id="path1-7-2-9-9-1-3-9"
       cx="-29.561344"
       cy="14.41865"
       rx="0.65429264"
       ry="0.80279088"
       transform="matrix(-0.94396281,-0.33005185,-0.33005185,0.94396281,0,0)" /><path
       style="fill:#999999;fill-opacity:1;stroke:none;stroke-width:0.264999;stroke-dasharray:none;stroke-opacity:1"
       d="M 7.7102777,19.615987 C 7.521969,19.433293 7.4021347,19.191309 7.5362645,19.071846 8.4730733,18.237484 10.122858,16.59969 11.066275,16.262753 11.23684,15.47296 10.253111,15.076854 10.295876,14.085548 c 0.03472,-0.804788 1.032897,-1.05497 1.913721,-1.069631 0.377415,-0.0063 0.792504,0.590628 0.392558,0.803043 -0.615664,0.326984 -1.168683,0.458865 -1.168683,0.458865 0.405406,0.680426 0.967818,1.463826 1.349471,2.019455 0.55702,0.379622 1.989629,0.260928 2.640744,0.386751 0.584975,-0.584975 1.113663,-1.14092 1.915777,-1.928517 0.372097,0.258111 0.448205,0.256714 0.651866,0.574522 -0.704445,0.80644 -1.426903,2.026687 -2.155705,2.369817 -0.621681,0.292696 -2.222083,0.139266 -3.011248,0.312712 -0.333485,0.944642 -1.96573,2.602589 -2.796664,3.54244 -0.2379447,0.269128 -0.9669517,-0.477908 -0.7388711,-0.755445 0.6569564,-0.799416 1.7891791,-2.090994 1.7525751,-2.357483 -0.02069,-0.150583 -0.06718,-0.231384 -0.122915,-0.27207 -0.04088,-0.05564 -0.124164,-0.102789 -0.274831,-0.12292 -0.266622,-0.03562 -1.553572,1.099615 -2.350581,1.759487 -0.138349,0.114551 -0.3945006,-0.0079 -0.5828123,-0.190587 z"
       id="path4-6-1-11"
       sodipodi:nodetypes="cscssscccccscccscssc" /><path
       id="path1-3-1-5"
       style="fill:#ff6666;fill-opacity:1;stroke:#000000;stroke-width:0.265"
       d="m 13.617106,17.810779 c 0.64927,-0.649271 0.926366,-1.979041 0.277094,-2.628313 -0.64927,-0.649271 -1.979041,-0.372175 -2.628312,0.277096 -0.64927,0.64927 -0.64927,1.701947 0,2.351217 0.649271,0.649271 1.701947,0.64927 2.351218,0 z"
       sodipodi:nodetypes="zzzzz" /><path
       id="path1-7-1-1-0-9"
       style="fill:#ffffff;stroke:#000000;stroke-width:0.265;stroke-dasharray:none"
       d="m 8.0325334,20.147246 c 0.146522,-0.146521 0.3609435,-0.683179 0.1056626,-0.93846 -0.2552826,-0.255282 -0.826989,-0.06081 -0.9735117,0.08572 -0.1465225,0.146523 -0.3225445,0.223168 0.1861434,0.70165 0.5086919,0.478486 0.5351784,0.297618 0.6817019,0.151095 z"
       sodipodi:nodetypes="ssszs" /><path
       id="path1-7-1-9-7-3-7"
       style="fill:#ffffff;stroke:#000000;stroke-width:0.265;stroke-dasharray:none"
       d="m 9.8023263,21.886255 c 0.146523,-0.146524 0.3609447,-0.683182 0.105664,-0.938463 -0.255282,-0.25528 -0.8269889,-0.06081 -0.9735115,0.08572 -0.1465215,0.146519 -0.3225435,0.223163 0.1861413,0.701646 0.5086922,0.478484 0.5351802,0.29762 0.6817022,0.151095 z"
       sodipodi:nodetypes="ssszs" /><ellipse
       style="fill:#ffffff;fill-opacity:1;stroke:#000000;stroke-width:0.265;stroke-dasharray:none;stroke-opacity:1"
       id="path1-7-2-9-9-1-3-1-7"
       cx="-16.146774"
       cy="-8.8274632"
       rx="0.65429264"
       ry="0.80279088"
       transform="matrix(-0.25881905,-0.96592583,-0.96592583,0.25881905,0,0)" /><path
       style="fill:#999999;fill-opacity:1;stroke:none;stroke-width:0.264999;stroke-dasharray:none;stroke-opacity:1"
       d="m 16.892228,3.7123862 c -0.252372,-0.071733 -0.521852,-0.054521 -0.558247,0.1213705 -0.254175,1.2284805 -0.847652,3.4761336 -0.66774,4.4616236 -0.598701,0.5426076 -1.433601,-0.1112696 -2.270714,0.4214186 -0.679608,0.4324607 -0.397184,1.4219971 0.03053,2.1921441 0.183254,0.329999 0.90775,0.391015 0.891734,-0.06156 -0.02465,-0.696672 -0.186952,-1.2415407 -0.186952,-1.2415407 0.791968,0.01088 1.751618,0.106241 2.423634,0.158949 0.607271,0.2925817 1.220784,1.5926057 1.655307,2.0935737 -0.214115,0.799093 -0.431231,1.534923 -0.712248,2.623374 0.409579,0.19319 0.446423,0.259798 0.823482,0.277271 0.346174,-1.013288 1.041712,-2.249078 0.97447,-3.051803 C 19.238124,11.022464 18.305043,9.7131903 18.060669,8.9430316 18.712011,8.1819052 19.331713,5.9393657 19.730181,4.7498302 19.84428,4.4092004 18.832825,4.1513793 18.706511,4.487672 18.342675,5.4563207 17.790247,7.0826442 17.54116,7.1841886 c -0.140754,0.057374 -0.233973,0.057517 -0.297078,0.029588 -0.06862,-0.00759 -0.151101,-0.056135 -0.243868,-0.1765514 -0.164158,-0.2130914 0.175509,-1.8952387 0.348471,-2.9154058 0.03003,-0.1770893 -0.204094,-0.3376986 -0.45646,-0.4094359 z"
       id="path4-6-1-1-6"
       sodipodi:nodetypes="cscssscccccscccscssc" /><path
       id="path1-3-1-0-7"
       style="fill:#4d4d4d;fill-opacity:1;stroke:#000000;stroke-width:0.265"
       d="m 18.282285,9.7304503 c -0.237649,0.8869207 -1.250716,1.7917767 -2.137638,1.5541277 -0.88692,-0.23765 -1.311834,-1.5278117 -1.074183,-2.4147311 0.237649,-0.8869195 1.149293,-1.4132579 2.036212,-1.1756088 0.886921,0.2376491 1.413259,1.1492928 1.175609,2.0362122 z"
       sodipodi:nodetypes="zzzzz" /><path
       id="path1-7-1-1-0-6-3"
       style="fill:#ffffff;stroke:#000000;stroke-width:0.265;stroke-dasharray:none"
       d="m 17.51344,3.7258372 c -0.05363,0.2001524 -0.411179,0.6541752 -0.759898,0.5607369 -0.348723,-0.09344 -0.466159,-0.6857892 -0.412521,-0.8859461 0.05363,-0.2001536 0.032,-0.3909156 0.700719,-0.1896201 0.668727,0.2012973 0.525335,0.3146695 0.471704,0.5148231 z"
       sodipodi:nodetypes="ssszs" /><path
       id="path1-7-1-9-7-3-3-6"
       style="fill:#ffffff;stroke:#000000;stroke-width:0.265;stroke-dasharray:none"
       d="m 19.904362,4.3890193 c -0.05363,0.2001542 -0.41118,0.6541779 -0.7599,0.5607385 -0.34872,-0.09344 -0.466159,-0.6857892 -0.41252,-0.8859457 0.05363,-0.2001512 0.032,-0.390912 0.700714,-0.1896196 0.668726,0.2012982 0.525336,0.3146693 0.471703,0.5148232 z"
       sodipodi:nodetypes="ssszs" /><ellipse
       style="fill:#ffffff;fill-opacity:1;stroke:#000000;stroke-width:0.265;stroke-dasharray:none;stroke-opacity:1"
       id="path1-7-2-9-9-1-3-1-2-5"
       cx="-10.559418"
       cy="-14.414816"
       rx="0.65429264"
       ry="0.80279088"
       transform="rotate(165)" /><ellipse
       style="fill:#ffffff;fill-opacity:1;stroke:#000000;stroke-width:0.265;stroke-dasharray:none;stroke-opacity:1"
       id="path1-7-2-9-9-1-3-9-6"
       cx="-23.149891"
       cy="0.19766864"
       rx="0.65429264"
       ry="0.80279088"
       transform="rotate(-139.27192)" /><path
       id="path1-3-1-5-8-0"
       style="fill:url(#linearGradient4);fill-opacity:1;stroke:none;stroke-width:0.265"
       d="m 14.614758,18.55303 c -0.736353,1.029453 -2.929253,2.887071 -0.10293,1.761245 2.826323,-1.125826 6.331398,-0.372592 7.198375,-0.439137 0.64927,-0.702898 1.215303,-2.691001 0.566033,-3.3939 -0.801664,0.0042 -6.925125,1.042339 -7.661478,2.071792 z"
       sodipodi:nodetypes="zzccz" /><path
       id="path1-3-1-5-8-0-6"
       style="fill:url(#linearGradient6);fill-opacity:1;stroke:none;stroke-width:0.265"
       d="m 20.097733,16.102657 c 0.736353,-1.029453 2.929253,-2.887071 0.10293,-1.761245 -2.826323,1.125826 -6.527333,0.546756 -7.39431,0.613301 -0.64927,0.702898 -1.019368,2.516837 -0.370098,3.219736 0.801664,-0.0042 6.925125,-1.042339 7.661478,-2.071792 z"
       sodipodi:nodetypes="zzccz" /></g></svg>
