<?xml version="1.0" encoding="UTF-8" standalone="no"?>
<!-- Created with Inkscape (http://www.inkscape.org/) -->

<svg
   width="35mm"
   height="35mm"
   viewBox="0 0 35 35"
   version="1.1"
   id="svg1"
   xml:space="preserve"
   inkscape:version="1.4 (e7c3feb100, 2024-10-09)"
   sodipodi:docname="2_v1_end.svg"
   xmlns:inkscape="http://www.inkscape.org/namespaces/inkscape"
   xmlns:sodipodi="http://sodipodi.sourceforge.net/DTD/sodipodi-0.dtd"
   xmlns="http://www.w3.org/2000/svg"
   xmlns:svg="http://www.w3.org/2000/svg"><sodipodi:namedview
     id="namedview1"
     pagecolor="#ffffff"
     bordercolor="#000000"
     borderopacity="0.25"
     inkscape:showpageshadow="2"
     inkscape:pageopacity="0.0"
     inkscape:pagecheckerboard="0"
     inkscape:deskcolor="#d1d1d1"
     inkscape:document-units="mm"
     inkscape:zoom="6.0766399"
     inkscape:cx="76.440271"
     inkscape:cy="65.003029"
     inkscape:window-width="1916"
     inkscape:window-height="761"
     inkscape:window-x="0"
     inkscape:window-y="0"
     inkscape:window-maximized="0"
     inkscape:current-layer="layer1"><sodipodi:guide
       position="25.431035,17.543103"
       orientation="0,132.28346"
       id="guide5"
       inkscape:locked="false" /><sodipodi:guide
       position="35.000001,35.000001"
       orientation="132.28346,0"
       id="guide6"
       inkscape:locked="false" /><sodipodi:guide
       position="35.000001,0"
       orientation="0,-132.28346"
       id="guide7"
       inkscape:locked="false" /><sodipodi:guide
       position="17.503506,35.914363"
       orientation="1,0"
       id="guide8"
       inkscape:locked="false" /></sodipodi:namedview><defs
     id="defs1"><inkscape:path-effect
       effect="mirror_symmetry"
       start_point="17.297909,16.234992"
       end_point="17.313303,7.810326"
       center_point="17.305606,12.022659"
       id="path-effect5"
       is_visible="true"
       lpeversion="1.2"
       lpesatellites=""
       mode="free"
       discard_orig_path="false"
       fuse_paths="true"
       oposite_fuse="false"
       split_items="false"
       split_open="false"
       link_styles="false" /><inkscape:path-effect
       effect="mirror_symmetry"
       start_point="17.297909,16.234992"
       end_point="17.313303,7.810326"
       center_point="17.305606,12.022659"
       id="path-effect5-7"
       is_visible="true"
       lpeversion="1.2"
       lpesatellites=""
       mode="free"
       discard_orig_path="false"
       fuse_paths="true"
       oposite_fuse="false"
       split_items="false"
       split_open="false"
       link_styles="false" /><inkscape:path-effect
       effect="mirror_symmetry"
       start_point="17.297909,16.234992"
       end_point="17.313303,7.810326"
       center_point="17.305606,12.022659"
       id="path-effect5-6"
       is_visible="true"
       lpeversion="1.2"
       lpesatellites=""
       mode="free"
       discard_orig_path="false"
       fuse_paths="true"
       oposite_fuse="false"
       split_items="false"
       split_open="false"
       link_styles="false" /><inkscape:path-effect
       effect="mirror_symmetry"
       start_point="17.297909,16.234992"
       end_point="17.313303,7.810326"
       center_point="17.305606,12.022659"
       id="path-effect5-3"
       is_visible="true"
       lpeversion="1.2"
       lpesatellites=""
       mode="free"
       discard_orig_path="false"
       fuse_paths="true"
       oposite_fuse="false"
       split_items="false"
       split_open="false"
       link_styles="false" /><inkscape:path-effect
       effect="mirror_symmetry"
       start_point="17.297909,16.234992"
       end_point="17.313303,7.810326"
       center_point="17.305606,12.022659"
       id="path-effect5-66"
       is_visible="true"
       lpeversion="1.2"
       lpesatellites=""
       mode="free"
       discard_orig_path="false"
       fuse_paths="true"
       oposite_fuse="false"
       split_items="false"
       split_open="false"
       link_styles="false" /><inkscape:path-effect
       effect="mirror_symmetry"
       start_point="17.297909,16.234992"
       end_point="17.313303,7.810326"
       center_point="17.305606,12.022659"
       id="path-effect5-4"
       is_visible="true"
       lpeversion="1.2"
       lpesatellites=""
       mode="free"
       discard_orig_path="false"
       fuse_paths="true"
       oposite_fuse="false"
       split_items="false"
       split_open="false"
       link_styles="false" /><inkscape:path-effect
       effect="mirror_symmetry"
       start_point="17.297909,16.234992"
       end_point="17.313303,7.810326"
       center_point="17.305606,12.022659"
       id="path-effect5-4-7"
       is_visible="true"
       lpeversion="1.2"
       lpesatellites=""
       mode="free"
       discard_orig_path="false"
       fuse_paths="true"
       oposite_fuse="false"
       split_items="false"
       split_open="false"
       link_styles="false" /><inkscape:path-effect
       effect="mirror_symmetry"
       start_point="17.297909,16.234992"
       end_point="17.313303,7.810326"
       center_point="17.305606,12.022659"
       id="path-effect5-41"
       is_visible="true"
       lpeversion="1.2"
       lpesatellites=""
       mode="free"
       discard_orig_path="false"
       fuse_paths="true"
       oposite_fuse="false"
       split_items="false"
       split_open="false"
       link_styles="false" /><inkscape:path-effect
       effect="mirror_symmetry"
       start_point="17.297909,16.234992"
       end_point="17.313303,7.810326"
       center_point="17.305606,12.022659"
       id="path-effect5-4-0"
       is_visible="true"
       lpeversion="1.2"
       lpesatellites=""
       mode="free"
       discard_orig_path="false"
       fuse_paths="true"
       oposite_fuse="false"
       split_items="false"
       split_open="false"
       link_styles="false" /><inkscape:path-effect
       effect="mirror_symmetry"
       start_point="17.493844,16.300304"
       end_point="17.509238,7.875638"
       center_point="17.501541,12.087971"
       id="path-effect5-4-0-9"
       is_visible="true"
       lpeversion="1.2"
       lpesatellites=""
       mode="free"
       discard_orig_path="false"
       fuse_paths="true"
       oposite_fuse="false"
       split_items="false"
       split_open="false"
       link_styles="false" /><inkscape:path-effect
       effect="mirror_symmetry"
       start_point="17.297909,16.234992"
       end_point="17.313303,7.810326"
       center_point="17.305606,12.022659"
       id="path-effect5-4-0-0"
       is_visible="true"
       lpeversion="1.2"
       lpesatellites=""
       mode="free"
       discard_orig_path="false"
       fuse_paths="true"
       oposite_fuse="false"
       split_items="false"
       split_open="false"
       link_styles="false" /><inkscape:path-effect
       effect="mirror_symmetry"
       start_point="17.493844,16.300304"
       end_point="17.509238,7.875638"
       center_point="17.501541,12.087971"
       id="path-effect5-4-0-9-7"
       is_visible="true"
       lpeversion="1.2"
       lpesatellites=""
       mode="free"
       discard_orig_path="false"
       fuse_paths="true"
       oposite_fuse="false"
       split_items="false"
       split_open="false"
       link_styles="false" /><inkscape:path-effect
       effect="mirror_symmetry"
       start_point="17.493844,16.300304"
       end_point="17.509238,7.875638"
       center_point="17.501541,12.087971"
       id="path-effect5-4-0-9-3"
       is_visible="true"
       lpeversion="1.2"
       lpesatellites=""
       mode="free"
       discard_orig_path="false"
       fuse_paths="true"
       oposite_fuse="false"
       split_items="false"
       split_open="false"
       link_styles="false" /><inkscape:path-effect
       effect="mirror_symmetry"
       start_point="17.493844,16.300304"
       end_point="17.509238,7.875638"
       center_point="17.501541,12.087971"
       id="path-effect5-4-0-9-5"
       is_visible="true"
       lpeversion="1.2"
       lpesatellites=""
       mode="free"
       discard_orig_path="false"
       fuse_paths="true"
       oposite_fuse="false"
       split_items="false"
       split_open="false"
       link_styles="false" /><inkscape:path-effect
       effect="mirror_symmetry"
       start_point="17.297909,16.234992"
       end_point="17.313303,7.810326"
       center_point="17.305606,12.022659"
       id="path-effect5-4-6-1"
       is_visible="true"
       lpeversion="1.2"
       lpesatellites=""
       mode="free"
       discard_orig_path="false"
       fuse_paths="true"
       oposite_fuse="false"
       split_items="false"
       split_open="false"
       link_styles="false" /><inkscape:path-effect
       effect="mirror_symmetry"
       start_point="17.493844,16.300304"
       end_point="17.509238,7.875638"
       center_point="17.501541,12.087971"
       id="path-effect5-4-0-9-5-9"
       is_visible="true"
       lpeversion="1.2"
       lpesatellites=""
       mode="free"
       discard_orig_path="false"
       fuse_paths="true"
       oposite_fuse="false"
       split_items="false"
       split_open="false"
       link_styles="false" /></defs><g
     inkscape:label="Layer 1"
     inkscape:groupmode="layer"
     id="layer1"><path
       style="fill:#999999;fill-opacity:1;stroke:none;stroke-width:0.264999;stroke-dasharray:none;stroke-opacity:1"
       d="m 29.006705,19.277783 c 0.134608,-0.225208 0.187729,-0.489961 0.02725,-0.570639 -1.120836,-0.563468 -3.138299,-1.718459 -4.136775,-1.799741 -0.369163,-0.718738 0.478522,-1.355953 0.180645,-2.302413 -0.241831,-0.768378 -1.270747,-0.75169 -2.125353,-0.537876 -0.366184,0.0916 -0.612634,0.775617 -0.171338,0.877281 0.679315,0.156497 1.247624,0.140753 1.247624,0.140753 -0.215485,0.762166 -0.555974,1.664437 -0.780816,2.299911 -0.439786,0.510854 -1.854301,0.766991 -2.450663,1.057049 -0.716446,-0.413641 -1.371008,-0.813807 -2.349637,-1.366966 -0.292613,0.345623 -0.366489,0.363972 -0.480956,0.723661 0.889164,0.596637 1.902827,1.588321 2.695604,1.73113 0.676254,0.121821 2.182413,-0.440597 2.989579,-0.477312 0.566612,0.826142 2.572349,2.005141 3.618221,2.697905 0.299492,0.198374 0.810312,-0.711889 0.518171,-0.920937 -0.841475,-0.602145 -2.269404,-1.556672 -2.303019,-1.823554 -0.01899,-0.150807 0.005,-0.240885 0.04831,-0.294612 0.02509,-0.06433 0.09333,-0.131424 0.233652,-0.189863 0.248318,-0.103414 1.785236,0.660051 2.725876,1.091158 0.163283,0.07484 0.379014,-0.109735 0.513623,-0.334936 z"
       id="path4-6-1"
       sodipodi:nodetypes="cscssscccccscccscssc" /><path
       id="path1-3-1"
       style="fill:#ff6666;fill-opacity:1;stroke:#000000;stroke-width:0.265"
       d="m 22.833924,19.062884 c -0.79519,-0.459104 -1.407013,-1.671845 -0.947909,-2.467038 0.459104,-0.79519 1.815281,-0.871707 2.610472,-0.412603 0.79519,0.459103 1.067644,1.475911 0.60854,2.271101 -0.459104,0.795192 -1.475911,1.067644 -2.271103,0.60854 z"
       sodipodi:nodetypes="zzzzz" /><path
       id="path1-7-1-1-0"
       style="fill:#ffffff;stroke:#000000;stroke-width:0.265;stroke-dasharray:none"
       d="m 28.832931,19.874345 c -0.179452,-0.103606 -0.525465,-0.566481 -0.344954,-0.879135 0.180512,-0.312655 0.783072,-0.272779 0.962526,-0.169164 0.179453,0.103606 0.369314,0.132082 0.0018,0.725918 -0.367517,0.593841 -0.439913,0.425993 -0.619367,0.322385 z"
       sodipodi:nodetypes="ssszs" /><path
       id="path1-7-1-9-7-3"
       style="fill:#ffffff;stroke:#000000;stroke-width:0.265;stroke-dasharray:none"
       d="m 27.57353,22.012154 c -0.179453,-0.103607 -0.525466,-0.566483 -0.344955,-0.879137 0.180512,-0.312654 0.783071,-0.272778 0.962526,-0.169164 0.179451,0.103604 0.369312,0.132079 0.0018,0.725915 -0.367518,0.59384 -0.439914,0.425994 -0.619367,0.322385 z"
       sodipodi:nodetypes="ssszs" /><ellipse
       style="fill:#ffffff;fill-opacity:1;stroke:#000000;stroke-width:0.265;stroke-dasharray:none;stroke-opacity:1"
       id="path1-7-2-9-9-1-3-1"
       cx="-14.4814"
       cy="22.549805"
       rx="0.65429264"
       ry="0.80279088"
       transform="rotate(-90)" /><path
       style="fill:#999999;fill-opacity:1;stroke:none;stroke-width:0.264999;stroke-dasharray:none;stroke-opacity:1"
       d="m 16.021466,6.2925442 c 0.225207,-0.1346075 0.48996,-0.1877288 0.570638,-0.02725 0.563468,1.1208362 1.718459,3.1383002 1.799742,4.1367738 0.718737,0.369165 1.355954,-0.4785206 2.302412,-0.180645 0.76838,0.241831 0.75169,1.270748 0.53788,2.125352 -0.0916,0.366185 -0.775617,0.612636 -0.877282,0.171336 -0.156502,-0.679314 -0.140753,-1.247625 -0.140753,-1.247625 -0.762166,0.215485 -1.664436,0.555975 -2.299911,0.780817 -0.510854,0.439786 -0.766991,1.854301 -1.057048,2.450663 0.41364,0.716446 0.813807,1.371008 1.366965,2.349637 -0.345622,0.292613 -0.363972,0.366489 -0.723662,0.480955 -0.596636,-0.889163 -1.588319,-1.902826 -1.731129,-2.695604 -0.121819,-0.676254 0.440597,-2.182413 0.477312,-2.98958 -0.826142,-0.566611 -2.005141,-2.5723486 -2.697906,-3.6182206 -0.198373,-0.2994919 0.711889,-0.8103118 0.920938,-0.5181707 0.602144,0.8414757 1.556672,2.2694047 1.823553,2.3030197 0.150808,0.019 0.240888,-0.005 0.294614,-0.04831 0.06432,-0.0251 0.131424,-0.09333 0.189863,-0.233653 0.103411,-0.248314 -0.660054,-1.7852313 -1.091161,-2.7258712 -0.07484,-0.1632828 0.109736,-0.3790151 0.334936,-0.513625 z"
       id="path4-6-1-1"
       sodipodi:nodetypes="cscssscccccscccscssc" /><ellipse
       style="fill:#ffffff;fill-opacity:1;stroke:#000000;stroke-width:0.265;stroke-dasharray:none;stroke-opacity:1"
       id="path1-7-2-9-9-1-3-9-5"
       cx="-4.1044626"
       cy="-24.793888"
       rx="0.65429264"
       ry="0.80279088"
       transform="matrix(0.56312112,-0.82637437,-0.82637437,-0.56312112,0,0)" /><path
       id="path1-3-1-0"
       style="fill:#4d4d4d;fill-opacity:1;stroke:#000000;stroke-width:0.265"
       d="m 16.236365,12.465324 c 0.459104,0.795192 1.671845,1.407015 2.467038,0.94791 0.795191,-0.459103 0.871707,-1.815281 0.412603,-2.610471 -0.459104,-0.795191 -1.475912,-1.0676436 -2.271101,-0.608542 -0.795191,0.459104 -1.067645,1.475912 -0.60854,2.271103 z"
       sodipodi:nodetypes="zzzzz" /><path
       id="path1-7-1-1-0-6"
       style="fill:#ffffff;stroke:#000000;stroke-width:0.265;stroke-dasharray:none"
       d="m 15.424903,6.4663183 c 0.103606,0.179452 0.566481,0.5254639 0.879135,0.3449539 0.312656,-0.180512 0.272779,-0.783072 0.169164,-0.962526 -0.103606,-0.1794533 -0.132086,-0.3693133 -0.725919,-0.0018 -0.593841,0.3675181 -0.425992,0.4399141 -0.322385,0.619367 z"
       sodipodi:nodetypes="ssszs" /><path
       id="path1-7-1-9-7-3-3"
       style="fill:#ffffff;stroke:#000000;stroke-width:0.265;stroke-dasharray:none"
       d="m 13.287095,7.725719 c 0.103606,0.1794535 0.566482,0.5254664 0.879136,0.3449554 0.312654,-0.1805117 0.272779,-0.7830722 0.169164,-0.9625263 -0.103605,-0.1794506 -0.132075,-0.369313 -0.725915,-0.0018 -0.59384,0.367518 -0.425993,0.4399138 -0.322384,0.6193667 z"
       sodipodi:nodetypes="ssszs" /><ellipse
       style="fill:#ffffff;fill-opacity:1;stroke:#000000;stroke-width:0.265;stroke-dasharray:none;stroke-opacity:1"
       id="path1-7-2-9-9-1-3-1-2"
       cx="20.817852"
       cy="-12.749443"
       rx="0.65429264"
       ry="0.80279088"
       transform="scale(1,-1)" /><path
       style="fill:#999999;fill-opacity:1;stroke:none;stroke-width:0.264999;stroke-dasharray:none;stroke-opacity:1"
       d="m 7.2042589,12.502707 c 0.1277316,-0.229178 0.3304551,-0.407558 0.4805629,-0.308918 1.0483965,0.688938 3.1880022,2.119863 3.7576312,2.943925 0.763486,-0.344447 1.637391,-0.698066 2.275691,-0.710564 0.805382,-0.01577 2.566067,0.514738 3.156529,1.035199 0.283166,0.249595 -0.232534,0.687605 -0.674078,0.587024 -0.76877,-0.175121 -1.487719,-0.336173 -2.297228,-0.613267 -0.658977,0.319847 -1.655582,0.812718 -2.180581,1.10747 -0.222519,0.636293 0.06698,1.619268 0.113966,2.280761 0.716446,0.41364 0.88956,0.671571 1.857923,1.24251 -0.153011,0.426221 -0.131963,0.499374 -0.386231,0.778351 -0.961284,-0.471721 -1.826217,-0.744885 -2.346283,-1.360044 -0.443625,-0.524743 -0.513707,-1.740224 -0.885489,-2.457608 -0.9987657,-0.07763 -3.0226776,-1.22515 -4.1455654,-1.784518 -0.3215425,-0.160182 0.2113578,-1.057696 0.5384708,-0.909219 0.9422093,0.427667 2.4828199,1.187026 2.7307539,1.082698 0.140097,-0.05896 0.206112,-0.124778 0.230987,-0.189144 0.04316,-0.05389 0.06715,-0.146538 0.0476,-0.297281 -0.0346,-0.266756 -1.4642396,-1.216033 -2.3079105,-1.815098 -0.146454,-0.103987 -0.094473,-0.383103 0.03325,-0.61228 z"
       id="path4-6-1-2"
       sodipodi:nodetypes="cscssscccccscccscsscc" /><path
       id="path1-3-1-7"
       style="fill:#6666ff;fill-opacity:1;stroke:#000000;stroke-width:0.265"
       d="m 10.476757,17.74104 c 0.795191,0.459104 2.151367,0.382588 2.610472,-0.412604 0.459103,-0.795192 -0.152721,-2.007933 -0.947912,-2.467036 -0.795189,-0.459103 -1.811998,-0.186651 -2.2710997,0.608539 -0.459104,0.795191 -0.186653,1.811997 0.6085397,2.271101 z"
       sodipodi:nodetypes="zzzzz" /><path
       id="path1-7-1-1-0-2"
       style="fill:#ffffff;stroke:#000000;stroke-width:0.265;stroke-dasharray:none"
       d="m 6.7745084,12.951481 c 0.1794507,0.103607 0.7533195,0.171825 0.9338305,-0.14083 0.1805126,-0.312655 -0.1553026,-0.814548 -0.3347624,-0.918153 -0.1794513,-0.103608 -0.2990433,-0.253794 -0.6295633,0.3614 -0.330522,0.615201 -0.1489631,0.593973 0.03049,0.69758 z"
       sodipodi:nodetypes="ssszs" /><path
       id="path1-7-1-9-7-3-2"
       style="fill:#ffffff;stroke:#000000;stroke-width:0.265;stroke-dasharray:none"
       d="M 5.5528109,15.111059 C 5.732265,15.214666 6.3061334,15.282884 6.4866443,14.97023 6.6671544,14.657575 6.3313413,14.155679 6.1518817,14.052076 5.9724322,13.948468 5.8528414,13.798282 5.52232,14.413475 c -0.330521,0.6152 -0.148963,0.593973 0.03049,0.69758 z"
       sodipodi:nodetypes="ssszs" /><path
       style="fill:#999999;fill-opacity:1;stroke:none;stroke-width:0.264999;stroke-dasharray:none;stroke-opacity:1"
       d="m 22.12635,27.496478 c 0.229179,-0.127728 0.407557,-0.330455 0.308917,-0.480563 -0.688937,-1.048395 -1.858617,-3.057377 -2.682679,-3.627007 0.03966,-0.807027 1.092388,-0.935031 1.307649,-1.903625 0.174759,-0.786352 -0.724654,-1.286358 -1.571671,-1.528491 -0.362923,-0.103764 -0.918365,0.365387 -0.587024,0.674078 0.510056,0.475188 1.010098,0.745706 1.010098,0.745706 -0.567699,0.552315 -1.313706,1.163458 -1.826162,1.601375 -0.636294,0.222516 -1.989368,-0.262916 -2.65086,-0.309901 -0.413641,-0.716445 -0.780425,-1.390281 -1.351363,-2.358645 -0.426222,0.153007 -0.499379,0.131944 -0.778351,0.386231 0.47172,0.961285 0.853736,2.326938 1.468897,2.847006 0.524743,0.443626 2.110323,0.709637 2.827707,1.081424 0.07763,0.998767 1.225148,3.022677 1.784518,4.145565 0.160179,0.321542 1.057696,-0.211354 0.909217,-0.538471 -0.427667,-0.942209 -1.187025,-2.48282 -1.082697,-2.730753 0.05896,-0.140098 0.124775,-0.206114 0.189144,-0.230987 0.05389,-0.04316 0.146538,-0.06715 0.29728,-0.0476 0.266758,0.0346 1.216033,1.464239 1.815097,2.307909 0.103989,0.146455 0.383106,0.09447 0.612281,-0.03325 z"
       id="path4-6-1-1-1"
       sodipodi:nodetypes="cscssscccccscccscssc" /><path
       id="path1-3-1-0-0"
       style="fill:#66ff66;fill-opacity:1;stroke:#000000;stroke-width:0.265"
       d="m 16.888017,24.223982 c -0.459104,-0.795191 -0.382588,-2.151367 0.412604,-2.610473 0.795192,-0.459103 2.007933,0.152721 2.467035,0.947911 0.459103,0.79519 0.186651,1.811998 -0.608539,2.271101 -0.79519,0.459105 -1.811998,0.186653 -2.2711,-0.608539 z"
       sodipodi:nodetypes="zzzzz" /><path
       id="path1-7-1-1-0-6-6"
       style="fill:#ffffff;stroke:#000000;stroke-width:0.265;stroke-dasharray:none"
       d="m 21.677574,27.92623 c -0.103605,-0.179451 -0.171828,-0.753318 0.140831,-0.933831 0.312655,-0.180512 0.814548,0.155303 0.918153,0.334763 0.103606,0.179454 0.253794,0.299044 -0.361402,0.629565 -0.6152,0.330522 -0.59396,0.149005 -0.69758,-0.03049 z"
       sodipodi:nodetypes="ssszs" /><path
       id="path1-7-1-9-7-3-3-1"
       style="fill:#ffffff;stroke:#000000;stroke-width:0.265;stroke-dasharray:none"
       d="m 19.517998,29.147927 c -0.103607,-0.179455 -0.171829,-0.753321 0.140828,-0.933834 0.312655,-0.180512 0.814549,0.155303 0.918154,0.334764 0.103606,0.17945 0.253793,0.29904 -0.361399,0.629561 -0.615199,0.33052 -0.593961,0.149006 -0.69758,-0.03049 z"
       sodipodi:nodetypes="ssszs" /><ellipse
       style="fill:#ffffff;fill-opacity:1;stroke:#000000;stroke-width:0.265;stroke-dasharray:none;stroke-opacity:1"
       id="path1-7-2-9-9-1-3-1-2-5"
       cx="-7.9530926"
       cy="26.453323"
       rx="0.65429264"
       ry="0.80279088"
       transform="rotate(-60)" /><ellipse
       style="fill:#ffffff;fill-opacity:1;stroke:#000000;stroke-width:0.265;stroke-dasharray:none;stroke-opacity:1"
       id="path1-7-2-9-9-1-3-9-9"
       cx="-6.6654277"
       cy="23.985786"
       rx="0.65429264"
       ry="0.80279088"
       transform="rotate(-49.27192)" /><ellipse
       style="fill:#ffffff;fill-opacity:1;stroke:#000000;stroke-width:0.265;stroke-dasharray:none;stroke-opacity:1"
       id="path1-7-2-9-9-1-3-9"
       cx="-3.5703464"
       cy="-22.594624"
       rx="0.65429264"
       ry="0.80279088"
       transform="matrix(0.56312112,-0.82637437,-0.82637437,-0.56312112,0,0)" /></g></svg>
