<?xml version="1.0" encoding="UTF-8" standalone="no"?>
<!-- Created with Inkscape (http://www.inkscape.org/) -->

<svg
   width="35mm"
   height="35mm"
   viewBox="0 0 35 35"
   version="1.1"
   id="svg1"
   xml:space="preserve"
   inkscape:version="1.4 (e7c3feb100, 2024-10-09)"
   sodipodi:docname="2_v3_end.svg"
   xmlns:inkscape="http://www.inkscape.org/namespaces/inkscape"
   xmlns:sodipodi="http://sodipodi.sourceforge.net/DTD/sodipodi-0.dtd"
   xmlns="http://www.w3.org/2000/svg"
   xmlns:svg="http://www.w3.org/2000/svg"><sodipodi:namedview
     id="namedview1"
     pagecolor="#ffffff"
     bordercolor="#000000"
     borderopacity="0.25"
     inkscape:showpageshadow="2"
     inkscape:pageopacity="0.0"
     inkscape:pagecheckerboard="0"
     inkscape:deskcolor="#d1d1d1"
     inkscape:document-units="mm"
     inkscape:zoom="4.2968333"
     inkscape:cx="74.357085"
     inkscape:cy="52.713239"
     inkscape:window-width="1916"
     inkscape:window-height="998"
     inkscape:window-x="0"
     inkscape:window-y="0"
     inkscape:window-maximized="0"
     inkscape:current-layer="layer1"
     showgrid="false"><sodipodi:guide
       position="25.431035,17.543103"
       orientation="0,132.28346"
       id="guide5"
       inkscape:locked="false" /><sodipodi:guide
       position="35.000001,35.000001"
       orientation="132.28346,0"
       id="guide6"
       inkscape:locked="false" /><sodipodi:guide
       position="35.000001,0"
       orientation="0,-132.28346"
       id="guide7"
       inkscape:locked="false" /><sodipodi:guide
       position="17.503506,35.914363"
       orientation="-132.28346,0"
       id="guide8"
       inkscape:locked="false" /></sodipodi:namedview><defs
     id="defs1"><inkscape:path-effect
       effect="mirror_symmetry"
       start_point="17.297909,16.234992"
       end_point="17.313303,7.810326"
       center_point="17.305606,12.022659"
       id="path-effect5"
       is_visible="true"
       lpeversion="1.2"
       lpesatellites=""
       mode="free"
       discard_orig_path="false"
       fuse_paths="true"
       oposite_fuse="false"
       split_items="false"
       split_open="false"
       link_styles="false" /><inkscape:path-effect
       effect="mirror_symmetry"
       start_point="17.297909,16.234992"
       end_point="17.313303,7.810326"
       center_point="17.305606,12.022659"
       id="path-effect5-7"
       is_visible="true"
       lpeversion="1.2"
       lpesatellites=""
       mode="free"
       discard_orig_path="false"
       fuse_paths="true"
       oposite_fuse="false"
       split_items="false"
       split_open="false"
       link_styles="false" /><inkscape:path-effect
       effect="mirror_symmetry"
       start_point="17.297909,16.234992"
       end_point="17.313303,7.810326"
       center_point="17.305606,12.022659"
       id="path-effect5-6"
       is_visible="true"
       lpeversion="1.2"
       lpesatellites=""
       mode="free"
       discard_orig_path="false"
       fuse_paths="true"
       oposite_fuse="false"
       split_items="false"
       split_open="false"
       link_styles="false" /><inkscape:path-effect
       effect="mirror_symmetry"
       start_point="17.297909,16.234992"
       end_point="17.313303,7.810326"
       center_point="17.305606,12.022659"
       id="path-effect5-3"
       is_visible="true"
       lpeversion="1.2"
       lpesatellites=""
       mode="free"
       discard_orig_path="false"
       fuse_paths="true"
       oposite_fuse="false"
       split_items="false"
       split_open="false"
       link_styles="false" /><inkscape:path-effect
       effect="mirror_symmetry"
       start_point="17.297909,16.234992"
       end_point="17.313303,7.810326"
       center_point="17.305606,12.022659"
       id="path-effect5-66"
       is_visible="true"
       lpeversion="1.2"
       lpesatellites=""
       mode="free"
       discard_orig_path="false"
       fuse_paths="true"
       oposite_fuse="false"
       split_items="false"
       split_open="false"
       link_styles="false" /><inkscape:path-effect
       effect="mirror_symmetry"
       start_point="17.297909,16.234992"
       end_point="17.313303,7.810326"
       center_point="17.305606,12.022659"
       id="path-effect5-4"
       is_visible="true"
       lpeversion="1.2"
       lpesatellites=""
       mode="free"
       discard_orig_path="false"
       fuse_paths="true"
       oposite_fuse="false"
       split_items="false"
       split_open="false"
       link_styles="false" /><inkscape:path-effect
       effect="mirror_symmetry"
       start_point="17.297909,16.234992"
       end_point="17.313303,7.810326"
       center_point="17.305606,12.022659"
       id="path-effect5-4-7"
       is_visible="true"
       lpeversion="1.2"
       lpesatellites=""
       mode="free"
       discard_orig_path="false"
       fuse_paths="true"
       oposite_fuse="false"
       split_items="false"
       split_open="false"
       link_styles="false" /><inkscape:path-effect
       effect="mirror_symmetry"
       start_point="17.297909,16.234992"
       end_point="17.313303,7.810326"
       center_point="17.305606,12.022659"
       id="path-effect5-41"
       is_visible="true"
       lpeversion="1.2"
       lpesatellites=""
       mode="free"
       discard_orig_path="false"
       fuse_paths="true"
       oposite_fuse="false"
       split_items="false"
       split_open="false"
       link_styles="false" /><inkscape:path-effect
       effect="mirror_symmetry"
       start_point="17.297909,16.234992"
       end_point="17.313303,7.810326"
       center_point="17.305606,12.022659"
       id="path-effect5-4-0"
       is_visible="true"
       lpeversion="1.2"
       lpesatellites=""
       mode="free"
       discard_orig_path="false"
       fuse_paths="true"
       oposite_fuse="false"
       split_items="false"
       split_open="false"
       link_styles="false" /><inkscape:path-effect
       effect="mirror_symmetry"
       start_point="17.493844,16.300304"
       end_point="17.509238,7.875638"
       center_point="17.501541,12.087971"
       id="path-effect5-4-0-9"
       is_visible="true"
       lpeversion="1.2"
       lpesatellites=""
       mode="free"
       discard_orig_path="false"
       fuse_paths="true"
       oposite_fuse="false"
       split_items="false"
       split_open="false"
       link_styles="false" /><inkscape:path-effect
       effect="mirror_symmetry"
       start_point="17.297909,16.234992"
       end_point="17.313303,7.810326"
       center_point="17.305606,12.022659"
       id="path-effect5-4-0-0"
       is_visible="true"
       lpeversion="1.2"
       lpesatellites=""
       mode="free"
       discard_orig_path="false"
       fuse_paths="true"
       oposite_fuse="false"
       split_items="false"
       split_open="false"
       link_styles="false" /><inkscape:path-effect
       effect="mirror_symmetry"
       start_point="17.493844,16.300304"
       end_point="17.509238,7.875638"
       center_point="17.501541,12.087971"
       id="path-effect5-4-0-9-7"
       is_visible="true"
       lpeversion="1.2"
       lpesatellites=""
       mode="free"
       discard_orig_path="false"
       fuse_paths="true"
       oposite_fuse="false"
       split_items="false"
       split_open="false"
       link_styles="false" /><inkscape:path-effect
       effect="mirror_symmetry"
       start_point="17.493844,16.300304"
       end_point="17.509238,7.875638"
       center_point="17.501541,12.087971"
       id="path-effect5-4-0-9-3"
       is_visible="true"
       lpeversion="1.2"
       lpesatellites=""
       mode="free"
       discard_orig_path="false"
       fuse_paths="true"
       oposite_fuse="false"
       split_items="false"
       split_open="false"
       link_styles="false" /><inkscape:path-effect
       effect="mirror_symmetry"
       start_point="17.493844,16.300304"
       end_point="17.509238,7.875638"
       center_point="17.501541,12.087971"
       id="path-effect5-4-0-9-5"
       is_visible="true"
       lpeversion="1.2"
       lpesatellites=""
       mode="free"
       discard_orig_path="false"
       fuse_paths="true"
       oposite_fuse="false"
       split_items="false"
       split_open="false"
       link_styles="false" /><inkscape:path-effect
       effect="mirror_symmetry"
       start_point="17.297909,16.234992"
       end_point="17.313303,7.810326"
       center_point="17.305606,12.022659"
       id="path-effect5-4-6-1"
       is_visible="true"
       lpeversion="1.2"
       lpesatellites=""
       mode="free"
       discard_orig_path="false"
       fuse_paths="true"
       oposite_fuse="false"
       split_items="false"
       split_open="false"
       link_styles="false" /><inkscape:path-effect
       effect="mirror_symmetry"
       start_point="17.493844,16.300304"
       end_point="17.509238,7.875638"
       center_point="17.501541,12.087971"
       id="path-effect5-4-0-9-5-9"
       is_visible="true"
       lpeversion="1.2"
       lpesatellites=""
       mode="free"
       discard_orig_path="false"
       fuse_paths="true"
       oposite_fuse="false"
       split_items="false"
       split_open="false"
       link_styles="false" /></defs><g
     inkscape:label="Layer 1"
     inkscape:groupmode="layer"
     id="layer1"><path
       style="fill:#999999;fill-opacity:1;stroke:none;stroke-width:0.264999;stroke-dasharray:none;stroke-opacity:1"
       d="m 28.028085,22.538441 c -0.127732,0.229179 -0.330454,0.407558 -0.480562,0.308919 -1.048397,-0.688938 -3.188003,-2.119863 -3.757632,-2.943926 -0.763487,0.344448 -1.791176,0.660456 -2.40806,0.722128 -0.780928,0.07807 -2.26529,0.161681 -2.855752,-0.358779 -0.283168,-0.249595 -0.341053,-1.043902 0.100495,-0.943321 0.76877,0.17512 1.631751,0.130239 2.512407,0.197025 0.658977,-0.319847 1.845578,-0.728162 2.370577,-1.022914 0.222519,-0.636294 -0.06698,-1.619269 -0.113966,-2.280762 -0.716445,-0.41364 -0.88956,-0.67157 -1.857922,-1.242509 0.15301,-0.426222 0.131962,-0.499374 0.38623,-0.778351 0.961284,0.471721 1.826217,0.744884 2.346282,1.360044 0.443626,0.524742 0.513707,1.740224 0.88549,2.457607 0.998766,0.07763 3.022678,1.22515 4.145565,1.784519 0.321543,0.160181 -0.211358,1.057696 -0.53847,0.909218 -0.94221,-0.427666 -2.48282,-1.187026 -2.730754,-1.082698 -0.140097,0.05896 -0.206113,0.124778 -0.230985,0.189145 -0.04316,0.05389 -0.06715,0.146538 -0.0476,0.297281 0.0346,0.266757 1.464239,1.216033 2.307909,1.815098 0.146455,0.103987 0.09447,0.383103 -0.03325,0.612276 z"
       id="path4-6-1-2"
       sodipodi:nodetypes="cscssscccccscccscssc" /><path
       id="path1-3-1-7"
       style="fill:#ff6666;fill-opacity:1;stroke:#000000;stroke-width:0.265"
       d="m 24.357693,17.097404 c -0.886921,-0.23765 -2.177083,0.187262 -2.414733,1.074185 -0.23765,0.886921 0.667207,1.899987 1.554127,2.137636 0.886918,0.23765 1.798564,-0.288688 2.036214,-1.175608 0.23765,-0.88692 -0.288686,-1.798565 -1.175608,-2.036213 z"
       sodipodi:nodetypes="zzzzz" /><path
       id="path1-7-1-1-0-2"
       style="fill:#ffffff;stroke:#000000;stroke-width:0.265;stroke-dasharray:none"
       d="m 28.457836,22.089668 c -0.179451,-0.103607 -0.753319,-0.171825 -0.93383,0.140829 -0.180513,0.312656 0.155302,0.814548 0.334762,0.918153 0.179452,0.103608 0.299044,0.253794 0.629564,-0.3614 0.330521,-0.615201 0.148963,-0.593973 -0.03049,-0.69758 z"
       sodipodi:nodetypes="ssszs" /><path
       id="path1-7-1-9-7-3-2"
       style="fill:#ffffff;stroke:#000000;stroke-width:0.265;stroke-dasharray:none"
       d="m 29.679533,19.93009 c -0.179455,-0.103607 -0.753322,-0.171825 -0.933834,0.140829 -0.180509,0.312655 0.155303,0.81455 0.334763,0.918154 0.179449,0.103607 0.29904,0.253794 0.629561,-0.361399 0.33052,-0.6152 0.148963,-0.593973 -0.03049,-0.69758 z"
       sodipodi:nodetypes="ssszs" /><path
       style="fill:#999999;fill-opacity:1;stroke:none;stroke-width:0.264999;stroke-dasharray:none;stroke-opacity:1"
       d="m 14.951758,5.2540691 c -0.254428,0.06406 -0.479199,0.21371 -0.422771,0.384234 0.394119,1.190982 1.003979,3.434246 1.652532,4.197749 -0.247183,0.7692629 -1.297171,0.6204379 -1.755788,1.5003149 -0.372326,0.714326 0.367029,1.43008 1.122515,1.883188 0.323702,0.19416 0.981643,-0.115247 0.741486,-0.499177 -0.369687,-0.591008 -0.782676,-0.98173 -0.782676,-0.98173 0.691304,-0.386563 1.570067,-0.783802 2.178404,-1.074163 0.672203,-0.05025 1.853533,0.768844 2.480326,0.985435 0.214116,0.79909 0.394,1.544897 0.694854,2.628034 0.4513,-0.03748 0.516513,0.0018 0.851792,-0.171618 -0.206847,-1.050621 -0.222389,-2.468614 -0.681985,-3.130175 -0.392044,-0.564323 -1.854749,-1.2316479 -2.451462,-1.7764389 0.183515,-0.984827 -0.401077,-3.236774 -0.650761,-4.466176 -0.0715,-0.352043 -1.076359,-0.0696 -1.017604,0.2848 0.169233,1.020792 0.503977,2.705444 0.339034,2.917928 -0.09321,0.120064 -0.173868,0.166797 -0.242483,0.174162 -0.06322,0.02774 -0.158924,0.02694 -0.299471,-0.03096 -0.248712,-0.102463 -0.795625,-1.729079 -1.155918,-2.699051 -0.06254,-0.168379 -0.3456,-0.190409 -0.600024,-0.126352 z"
       id="path4-6-1-1-1"
       sodipodi:nodetypes="cscssscccccscccscssc" /><path
       id="path1-3-1-0-0"
       style="fill:#4d4d4d;fill-opacity:1;stroke:#000000;stroke-width:0.265"
       d="m 19.164615,9.7708381 c 0.23765,0.8869199 -0.187263,2.1770809 -1.074185,2.4147329 -0.886921,0.237649 -1.899987,-0.667209 -2.137636,-1.554128 -0.23765,-0.8869189 0.288688,-1.7985629 1.175607,-2.0362129 0.886921,-0.23765 1.798565,0.288687 2.036214,1.175608 z"
       sodipodi:nodetypes="zzzzz" /><path
       id="path1-7-1-1-0-6-6"
       style="fill:#ffffff;stroke:#000000;stroke-width:0.265;stroke-dasharray:none"
       d="m 15.496469,4.9551121 c 0.05363,0.200152 -0.029,0.772122 -0.377724,0.865562 -0.348723,0.09344 -0.746599,-0.360831 -0.800226,-0.560992 -0.05363,-0.200153 -0.167748,-0.354541 0.512031,-0.514575 0.679783,-0.160035 0.612287,0.0098 0.665919,0.209998 z"
       sodipodi:nodetypes="ssszs" /><path
       id="path1-7-1-9-7-3-3-1"
       style="fill:#ffffff;stroke:#000000;stroke-width:0.265;stroke-dasharray:none"
       d="m 17.898659,4.3339831 c 0.05363,0.200155 -0.029,0.772125 -0.377723,0.865564 -0.348722,0.09344 -0.7466,-0.360831 -0.800227,-0.560991 -0.05363,-0.200151 -0.167748,-0.354537 0.512027,-0.514573 0.679783,-0.160033 0.612289,0.0098 0.665919,0.209998 z"
       sodipodi:nodetypes="ssszs" /><ellipse
       style="fill:#ffffff;fill-opacity:1;stroke:#000000;stroke-width:0.265;stroke-dasharray:none;stroke-opacity:1"
       id="path1-7-2-9-9-1-3-1-2-5"
       cx="-2.0609195"
       cy="-20.744574"
       rx="0.65429264"
       ry="0.80279088"
       transform="rotate(135)" /><ellipse
       style="fill:#ffffff;fill-opacity:1;stroke:#000000;stroke-width:0.265;stroke-dasharray:none;stroke-opacity:1"
       id="path1-7-2-9-9-1-3-9-9"
       cx="-3.0987756"
       cy="-25.577089"
       rx="0.65429264"
       ry="0.80279088"
       transform="rotate(130.72808)" /><path
       style="fill:#999999;fill-opacity:1;stroke:none;stroke-width:0.264999;stroke-dasharray:none;stroke-opacity:1"
       d="m 6.3635119,13.915429 c -0.188331,0.182672 -0.308145,0.424676 -0.174014,0.544141 0.936808,0.834361 2.586594,2.472156 3.530009,2.809092 0.170564,0.789792 -0.813164,1.185901 -0.770399,2.177205 0.03472,0.804788 1.032896,1.05497 1.9137211,1.069631 0.377413,0.0063 0.792504,-0.590629 0.392556,-0.803043 -0.615662,-0.326984 -1.168683,-0.458865 -1.168683,-0.458865 0.405407,-0.680427 0.967817,-1.463827 1.349473,-2.019454 0.55702,-0.37962 1.989628,-0.26093 2.640742,-0.386752 0.584975,0.584975 1.113663,1.140921 1.915777,1.92852 0.372096,-0.258111 0.448215,-0.256699 0.651864,-0.574522 -0.704444,-0.806442 -1.4269,-2.026687 -2.155702,-2.369818 -0.621682,-0.292699 -2.222083,-0.139266 -3.011248,-0.312714 -0.333485,-0.944641 -1.9657301,-2.602589 -2.7966641,-3.54244 -0.237942,-0.269129 -0.966952,0.477904 -0.73887,0.755445 0.656956,0.799416 1.78918,2.090996 1.752576,2.357483 -0.02069,0.150585 -0.06718,0.231384 -0.122915,0.272071 -0.04088,0.05564 -0.124172,0.102778 -0.274831,0.12292 -0.266623,0.03562 -1.553572,-1.099618 -2.350582,-1.759492 -0.138349,-0.11455 -0.394502,0.0079 -0.582811,0.190588 z"
       id="path4-6-1-1-1-2"
       sodipodi:nodetypes="cscssscccccscccscssc" /><path
       id="path1-3-1-0-0-9"
       style="fill:#6666ff;fill-opacity:1;stroke:#000000;stroke-width:0.265"
       d="m 11.495573,15.341358 c 0.88692,0.237649 1.791775,1.250714 1.554128,2.137638 -0.237651,0.886921 -1.527814,1.311833 -2.414734,1.074183 -0.8869191,-0.237649 -1.4132551,-1.149292 -1.1756081,-2.036213 0.23765,-0.886919 1.1492931,-1.413259 2.0362141,-1.175608 z"
       sodipodi:nodetypes="zzzzz" /><path
       id="path1-7-1-1-0-6-6-1"
       style="fill:#ffffff;stroke:#000000;stroke-width:0.265;stroke-dasharray:none"
       d="m 6.6857659,13.384169 c 0.146522,0.146522 0.360947,0.683176 0.105663,0.938461 -0.255283,0.255282 -0.82699,0.06081 -0.973512,-0.08572 -0.146521,-0.146522 -0.322545,-0.223168 0.186143,-0.701651 0.508692,-0.478485 0.535156,-0.297655 0.681702,-0.151096 z"
       sodipodi:nodetypes="ssszs" /><path
       id="path1-7-1-9-7-3-3-1-2"
       style="fill:#ffffff;stroke:#000000;stroke-width:0.265;stroke-dasharray:none"
       d="m 8.4555599,11.645162 c 0.146521,0.146523 0.360947,0.683178 0.105664,0.938461 -0.255282,0.255282 -0.82699,0.06081 -0.973513,-0.08572 -0.146519,-0.14652 -0.322542,-0.223165 0.186142,-0.701647 0.508693,-0.478484 0.535158,-0.297657 0.681702,-0.151096 z"
       sodipodi:nodetypes="ssszs" /><ellipse
       style="fill:#ffffff;fill-opacity:1;stroke:#000000;stroke-width:0.265;stroke-dasharray:none;stroke-opacity:1"
       id="path1-7-2-9-9-1-3-1-2-5-7"
       cx="16.590656"
       cy="-16.20516"
       rx="0.65429264"
       ry="0.80279088"
       transform="rotate(105)" /><path
       style="fill:#999999;fill-opacity:1;stroke:none;stroke-width:0.264999;stroke-dasharray:none;stroke-opacity:1"
       d="m 20.555402,28.107319 c -0.182673,0.188329 -0.424676,0.308145 -0.544141,0.174013 -0.834362,-0.936809 -2.472155,-2.586593 -2.809091,-3.530007 -0.789793,-0.170566 -1.185902,0.813163 -2.177207,0.770399 -0.804787,-0.03472 -1.054969,-1.032898 -1.06963,-1.913721 -0.0063,-0.377414 0.590628,-0.792506 0.803042,-0.392558 0.326986,0.615663 0.458867,1.168682 0.458867,1.168682 0.680425,-0.405404 1.463826,-0.967816 2.019454,-1.349471 0.379618,-0.55702 0.260927,-1.989628 0.386752,-2.640743 -0.584975,-0.584975 -1.140921,-1.113662 -1.92852,-1.915777 0.25811,-0.372095 0.256698,-0.448214 0.574521,-0.651865 0.806439,0.704447 2.026687,1.426901 2.369818,2.155704 0.292699,0.62168 0.139267,2.222083 0.312714,3.011247 0.944641,0.333485 2.602589,1.96573 3.542442,2.796663 0.269128,0.237941 -0.477905,0.966954 -0.755448,0.738871 -0.799415,-0.656955 -2.090994,-1.789178 -2.357481,-1.752575 -0.150586,0.02069 -0.231386,0.06718 -0.272071,0.122915 -0.05564,0.04088 -0.102788,0.124163 -0.12292,0.274831 -0.03562,0.266623 1.099618,1.553573 1.759492,2.350582 0.11455,0.138348 -0.0079,0.394501 -0.190587,0.582811 z"
       id="path4-6-1-1-1-2-0"
       sodipodi:nodetypes="cscssscccccscccscssc" /><path
       id="path1-3-1-0-0-9-6"
       style="fill:#66ff66;fill-opacity:1;stroke:#000000;stroke-width:0.265"
       d="m 19.14552,22.977667 c -0.23765,-0.886921 -1.250715,-1.791776 -2.137639,-1.554128 -0.88692,0.237652 -1.311833,1.527814 -1.074182,2.414734 0.237648,0.886918 1.149292,1.413255 2.036211,1.175608 0.886921,-0.23765 1.413259,-1.149293 1.17561,-2.036214 z"
       sodipodi:nodetypes="zzzzz" /><path
       id="path1-7-1-1-0-6-6-1-2"
       style="fill:#ffffff;stroke:#000000;stroke-width:0.265;stroke-dasharray:none"
       d="m 21.086661,27.785064 c -0.146522,-0.146521 -0.683177,-0.360946 -0.938461,-0.105663 -0.255283,0.255284 -0.06081,0.82699 0.08572,0.973513 0.146523,0.146522 0.223169,0.322544 0.701652,-0.186143 0.478485,-0.508693 0.297656,-0.535157 0.151096,-0.681702 z"
       sodipodi:nodetypes="ssszs" /><path
       id="path1-7-1-9-7-3-3-1-2-6"
       style="fill:#ffffff;stroke:#000000;stroke-width:0.265;stroke-dasharray:none"
       d="m 22.825671,26.015268 c -0.146523,-0.146521 -0.683179,-0.360946 -0.938461,-0.105663 -0.255283,0.255282 -0.06081,0.82699 0.08572,0.973514 0.14652,0.14652 0.223163,0.322542 0.701647,-0.186143 0.478484,-0.508693 0.297657,-0.535158 0.151096,-0.681703 z"
       sodipodi:nodetypes="ssszs" /><ellipse
       style="fill:#ffffff;fill-opacity:1;stroke:#000000;stroke-width:0.265;stroke-dasharray:none;stroke-opacity:1"
       id="path1-7-2-9-9-1-3-1-2-5-7-1"
       cx="-7.7839074"
       cy="26.012819"
       rx="0.65429264"
       ry="0.80279088"
       transform="matrix(-0.96592583,0.25881905,0.25881905,0.96592583,0,0)" /><ellipse
       style="fill:#ffffff;fill-opacity:1;stroke:#000000;stroke-width:0.265;stroke-dasharray:none;stroke-opacity:1"
       id="path1-7-2-9-9-1-3-9-9-0"
       cx="3.3643591"
       cy="-24.219471"
       rx="0.65429264"
       ry="0.80279088"
       transform="rotate(130.72808)" /><ellipse
       style="fill:#ffffff;fill-opacity:1;stroke:#000000;stroke-width:0.265;stroke-dasharray:none;stroke-opacity:1"
       id="path1-7-2-9-9-1-3-9"
       cx="18.41819"
       cy="19.872093"
       rx="0.65429264"
       ry="0.80279088"
       transform="matrix(-0.07449001,0.99722176,0.99722176,0.07449001,0,0)" /></g></svg>
