<?xml version="1.0" encoding="UTF-8" standalone="no"?>
<!-- Created with Inkscape (http://www.inkscape.org/) -->

<svg
   width="35mm"
   height="35mm"
   viewBox="0 0 35 35"
   version="1.1"
   id="svg1"
   xml:space="preserve"
   inkscape:version="1.4 (e7c3feb100, 2024-10-09)"
   sodipodi:docname="2_v2.svg"
   xmlns:inkscape="http://www.inkscape.org/namespaces/inkscape"
   xmlns:sodipodi="http://sodipodi.sourceforge.net/DTD/sodipodi-0.dtd"
   xmlns="http://www.w3.org/2000/svg"
   xmlns:svg="http://www.w3.org/2000/svg"><sodipodi:namedview
     id="namedview1"
     pagecolor="#ffffff"
     bordercolor="#000000"
     borderopacity="0.25"
     inkscape:showpageshadow="2"
     inkscape:pageopacity="0.0"
     inkscape:pagecheckerboard="0"
     inkscape:deskcolor="#d1d1d1"
     inkscape:document-units="mm"
     inkscape:zoom="4.2968333"
     inkscape:cx="75.404367"
     inkscape:cy="98.67732"
     inkscape:window-width="1916"
     inkscape:window-height="761"
     inkscape:window-x="0"
     inkscape:window-y="0"
     inkscape:window-maximized="0"
     inkscape:current-layer="layer1"><sodipodi:guide
       position="25.431035,17.543103"
       orientation="0,132.28346"
       id="guide5"
       inkscape:locked="false" /><sodipodi:guide
       position="35.000001,35.000001"
       orientation="132.28346,0"
       id="guide6"
       inkscape:locked="false" /><sodipodi:guide
       position="35.000001,0"
       orientation="0,-132.28346"
       id="guide7"
       inkscape:locked="false" /><sodipodi:guide
       position="17.503506,35.914363"
       orientation="1,0"
       id="guide8"
       inkscape:locked="false" /></sodipodi:namedview><defs
     id="defs1"><inkscape:path-effect
       effect="mirror_symmetry"
       start_point="17.297909,16.234992"
       end_point="17.313303,7.810326"
       center_point="17.305606,12.022659"
       id="path-effect5"
       is_visible="true"
       lpeversion="1.2"
       lpesatellites=""
       mode="free"
       discard_orig_path="false"
       fuse_paths="true"
       oposite_fuse="false"
       split_items="false"
       split_open="false"
       link_styles="false" /><inkscape:path-effect
       effect="mirror_symmetry"
       start_point="17.297909,16.234992"
       end_point="17.313303,7.810326"
       center_point="17.305606,12.022659"
       id="path-effect5-7"
       is_visible="true"
       lpeversion="1.2"
       lpesatellites=""
       mode="free"
       discard_orig_path="false"
       fuse_paths="true"
       oposite_fuse="false"
       split_items="false"
       split_open="false"
       link_styles="false" /><inkscape:path-effect
       effect="mirror_symmetry"
       start_point="17.297909,16.234992"
       end_point="17.313303,7.810326"
       center_point="17.305606,12.022659"
       id="path-effect5-6"
       is_visible="true"
       lpeversion="1.2"
       lpesatellites=""
       mode="free"
       discard_orig_path="false"
       fuse_paths="true"
       oposite_fuse="false"
       split_items="false"
       split_open="false"
       link_styles="false" /><inkscape:path-effect
       effect="mirror_symmetry"
       start_point="17.297909,16.234992"
       end_point="17.313303,7.810326"
       center_point="17.305606,12.022659"
       id="path-effect5-3"
       is_visible="true"
       lpeversion="1.2"
       lpesatellites=""
       mode="free"
       discard_orig_path="false"
       fuse_paths="true"
       oposite_fuse="false"
       split_items="false"
       split_open="false"
       link_styles="false" /><inkscape:path-effect
       effect="mirror_symmetry"
       start_point="17.297909,16.234992"
       end_point="17.313303,7.810326"
       center_point="17.305606,12.022659"
       id="path-effect5-66"
       is_visible="true"
       lpeversion="1.2"
       lpesatellites=""
       mode="free"
       discard_orig_path="false"
       fuse_paths="true"
       oposite_fuse="false"
       split_items="false"
       split_open="false"
       link_styles="false" /><inkscape:path-effect
       effect="mirror_symmetry"
       start_point="17.297909,16.234992"
       end_point="17.313303,7.810326"
       center_point="17.305606,12.022659"
       id="path-effect5-4"
       is_visible="true"
       lpeversion="1.2"
       lpesatellites=""
       mode="free"
       discard_orig_path="false"
       fuse_paths="true"
       oposite_fuse="false"
       split_items="false"
       split_open="false"
       link_styles="false" /><inkscape:path-effect
       effect="mirror_symmetry"
       start_point="17.297909,16.234992"
       end_point="17.313303,7.810326"
       center_point="17.305606,12.022659"
       id="path-effect5-4-7"
       is_visible="true"
       lpeversion="1.2"
       lpesatellites=""
       mode="free"
       discard_orig_path="false"
       fuse_paths="true"
       oposite_fuse="false"
       split_items="false"
       split_open="false"
       link_styles="false" /><inkscape:path-effect
       effect="mirror_symmetry"
       start_point="17.297909,16.234992"
       end_point="17.313303,7.810326"
       center_point="17.305606,12.022659"
       id="path-effect5-41"
       is_visible="true"
       lpeversion="1.2"
       lpesatellites=""
       mode="free"
       discard_orig_path="false"
       fuse_paths="true"
       oposite_fuse="false"
       split_items="false"
       split_open="false"
       link_styles="false" /><inkscape:path-effect
       effect="mirror_symmetry"
       start_point="17.297909,16.234992"
       end_point="17.313303,7.810326"
       center_point="17.305606,12.022659"
       id="path-effect5-4-0"
       is_visible="true"
       lpeversion="1.2"
       lpesatellites=""
       mode="free"
       discard_orig_path="false"
       fuse_paths="true"
       oposite_fuse="false"
       split_items="false"
       split_open="false"
       link_styles="false" /><inkscape:path-effect
       effect="mirror_symmetry"
       start_point="17.493844,16.300304"
       end_point="17.509238,7.875638"
       center_point="17.501541,12.087971"
       id="path-effect5-4-0-9"
       is_visible="true"
       lpeversion="1.2"
       lpesatellites=""
       mode="free"
       discard_orig_path="false"
       fuse_paths="true"
       oposite_fuse="false"
       split_items="false"
       split_open="false"
       link_styles="false" /><inkscape:path-effect
       effect="mirror_symmetry"
       start_point="17.297909,16.234992"
       end_point="17.313303,7.810326"
       center_point="17.305606,12.022659"
       id="path-effect5-4-0-0"
       is_visible="true"
       lpeversion="1.2"
       lpesatellites=""
       mode="free"
       discard_orig_path="false"
       fuse_paths="true"
       oposite_fuse="false"
       split_items="false"
       split_open="false"
       link_styles="false" /><inkscape:path-effect
       effect="mirror_symmetry"
       start_point="17.493844,16.300304"
       end_point="17.509238,7.875638"
       center_point="17.501541,12.087971"
       id="path-effect5-4-0-9-7"
       is_visible="true"
       lpeversion="1.2"
       lpesatellites=""
       mode="free"
       discard_orig_path="false"
       fuse_paths="true"
       oposite_fuse="false"
       split_items="false"
       split_open="false"
       link_styles="false" /><inkscape:path-effect
       effect="mirror_symmetry"
       start_point="17.493844,16.300304"
       end_point="17.509238,7.875638"
       center_point="17.501541,12.087971"
       id="path-effect5-4-0-9-3"
       is_visible="true"
       lpeversion="1.2"
       lpesatellites=""
       mode="free"
       discard_orig_path="false"
       fuse_paths="true"
       oposite_fuse="false"
       split_items="false"
       split_open="false"
       link_styles="false" /><inkscape:path-effect
       effect="mirror_symmetry"
       start_point="17.493844,16.300304"
       end_point="17.509238,7.875638"
       center_point="17.501541,12.087971"
       id="path-effect5-4-0-9-5"
       is_visible="true"
       lpeversion="1.2"
       lpesatellites=""
       mode="free"
       discard_orig_path="false"
       fuse_paths="true"
       oposite_fuse="false"
       split_items="false"
       split_open="false"
       link_styles="false" /><inkscape:path-effect
       effect="mirror_symmetry"
       start_point="17.297909,16.234992"
       end_point="17.313303,7.810326"
       center_point="17.305606,12.022659"
       id="path-effect5-4-6-1"
       is_visible="true"
       lpeversion="1.2"
       lpesatellites=""
       mode="free"
       discard_orig_path="false"
       fuse_paths="true"
       oposite_fuse="false"
       split_items="false"
       split_open="false"
       link_styles="false" /><inkscape:path-effect
       effect="mirror_symmetry"
       start_point="17.493844,16.300304"
       end_point="17.509238,7.875638"
       center_point="17.501541,12.087971"
       id="path-effect5-4-0-9-5-9"
       is_visible="true"
       lpeversion="1.2"
       lpesatellites=""
       mode="free"
       discard_orig_path="false"
       fuse_paths="true"
       oposite_fuse="false"
       split_items="false"
       split_open="false"
       link_styles="false" /></defs><g
     inkscape:label="Layer 1"
     inkscape:groupmode="layer"
     id="layer1"><path
       style="fill:#999999;fill-opacity:1;stroke:none;stroke-width:0.264999;stroke-dasharray:none;stroke-opacity:1"
       d="m 26.431047,19.952351 c 0.188309,-0.182695 0.308144,-0.424678 0.174014,-0.544142 -0.936808,-0.834362 -2.586594,-2.472155 -3.530011,-2.809092 -0.170561,-0.789794 0.813164,-1.1859 0.770399,-2.177206 -0.03472,-0.804787 -1.032896,-1.05497 -1.913721,-1.06963 -0.377414,-0.0063 -0.792504,0.590627 -0.392557,0.803043 0.615663,0.326984 1.168683,0.458865 1.168683,0.458865 -0.405406,0.680425 -0.967818,1.463826 -1.349472,2.019454 -0.557019,0.379622 -1.989629,0.260928 -2.640743,0.386752 -0.584975,-0.584976 -1.113663,-1.14092 -1.915778,-1.928518 -0.372096,0.258112 -0.448204,0.256715 -0.651865,0.574522 0.704445,0.80644 1.426902,2.026688 2.155704,2.369817 0.621682,0.292697 2.222084,0.139266 3.011249,0.312712 0.333484,0.944642 1.96573,2.60259 2.796664,3.542441 0.237944,0.269128 0.966952,-0.477908 0.738871,-0.755445 -0.656956,-0.799417 -1.78918,-2.090995 -1.752575,-2.357482 0.02069,-0.150584 0.06717,-0.231385 0.122915,-0.272071 0.04088,-0.05564 0.124165,-0.10279 0.274831,-0.12292 0.266622,-0.03562 1.553571,1.099614 2.35058,1.759487 0.13835,0.114551 0.394502,-0.0079 0.582811,-0.190588 z"
       id="path4-6-1"
       sodipodi:nodetypes="cscssscccccscccscssc" /><path
       id="path1-3-1"
       style="fill:#ff6666;fill-opacity:1;stroke:#000000;stroke-width:0.265"
       d="m 20.524219,18.147142 c -0.64927,-0.649271 -0.926365,-1.97904 -0.277094,-2.628313 0.649271,-0.64927 1.979041,-0.372175 2.628312,0.277096 0.64927,0.64927 0.649271,1.701947 0,2.351217 -0.649271,0.649271 -1.701947,0.649271 -2.351218,0 z"
       sodipodi:nodetypes="zzzzz" /><path
       id="path1-7-1-1-0"
       style="fill:#ffffff;stroke:#000000;stroke-width:0.265;stroke-dasharray:none"
       d="m 26.108793,20.48361 c -0.146522,-0.146521 -0.360944,-0.683179 -0.105663,-0.93846 0.255282,-0.255282 0.826989,-0.06081 0.973511,0.08572 0.146523,0.146522 0.322545,0.223167 -0.186143,0.701649 -0.508692,0.478486 -0.535179,0.297619 -0.681703,0.151096 z"
       sodipodi:nodetypes="ssszs" /><path
       id="path1-7-1-9-7-3"
       style="fill:#ffffff;stroke:#000000;stroke-width:0.265;stroke-dasharray:none"
       d="m 24.338998,22.222618 c -0.146521,-0.146523 -0.360943,-0.683181 -0.105662,-0.938462 0.255282,-0.25528 0.826988,-0.06081 0.973511,0.08572 0.146522,0.146519 0.322544,0.223164 -0.186142,0.701646 -0.508692,0.478485 -0.535179,0.29762 -0.681702,0.151096 z"
       sodipodi:nodetypes="ssszs" /><ellipse
       style="fill:#ffffff;fill-opacity:1;stroke:#000000;stroke-width:0.265;stroke-dasharray:none;stroke-opacity:1"
       id="path1-7-2-9-9-1-3-1"
       cx="-7.6352477"
       cy="24.237581"
       rx="0.65429264"
       ry="0.80279088"
       transform="rotate(-75)" /><path
       style="fill:#999999;fill-opacity:1;stroke:none;stroke-width:0.264999;stroke-dasharray:none;stroke-opacity:1"
       d="m 17.249097,4.0487486 c 0.252372,-0.071733 0.521853,-0.054521 0.558247,0.1213705 0.254174,1.2284807 0.847652,3.476134 0.667741,4.4616232 0.5987,0.5426081 1.433601,-0.1112691 2.270714,0.4214186 0.679607,0.432461 0.397183,1.4219991 -0.03053,2.1921451 -0.183254,0.329999 -0.90775,0.391016 -0.891734,-0.06156 0.02465,-0.696672 0.186952,-1.2415423 0.186952,-1.2415423 -0.791968,0.01088 -1.751619,0.1062423 -2.423634,0.1589503 -0.607272,0.292582 -1.220785,1.592605 -1.655308,2.093574 0.214116,0.799092 0.431234,1.534921 0.712256,2.623372 -0.409579,0.193189 -0.446424,0.259798 -0.823484,0.27727 -0.346174,-1.013287 -1.041711,-2.249077 -0.974469,-3.051803 0.05736,-0.68474 0.990434,-1.994014 1.234808,-2.764174 C 15.429314,8.5182666 14.809612,6.2757273 14.411144,5.0861917 14.297045,4.7455619 15.3085,4.4877409 15.434814,4.8240333 c 0.363837,0.9686487 0.916265,2.5949722 1.165352,2.6965167 0.140753,0.057375 0.233973,0.057517 0.297078,0.029588 0.06862,-0.00759 0.1511,-0.056135 0.243867,-0.1765513 C 17.305267,7.1604987 16.9656,5.4783516 16.792638,4.4581845 16.762608,4.2810952 16.996731,4.1204859 17.249097,4.0487486 Z"
       id="path4-6-1-1"
       sodipodi:nodetypes="cscssscccccscccscssc" /><ellipse
       style="fill:#ffffff;fill-opacity:1;stroke:#000000;stroke-width:0.265;stroke-dasharray:none;stroke-opacity:1"
       id="path1-7-2-9-9-1-3-9-96"
       cx="2.5034409"
       cy="-22.33342"
       rx="0.65429264"
       ry="0.80279088"
       transform="matrix(0.75781466,-0.65246988,-0.65246988,-0.75781466,0,0)" /><path
       id="path1-3-1-0"
       style="fill:#4d4d4d;fill-opacity:1;stroke:#000000;stroke-width:0.265"
       d="m 15.85904,10.066814 c 0.23765,0.886921 1.250716,1.791777 2.137639,1.554127 0.88692,-0.237649 1.311833,-1.527812 1.074183,-2.4147317 C 18.833213,8.3192902 17.921568,7.7929515 17.034649,8.0306007 16.147729,8.2682495 15.62139,9.1798936 15.85904,10.066814 Z"
       sodipodi:nodetypes="zzzzz" /><path
       id="path1-7-1-1-0-6"
       style="fill:#ffffff;stroke:#000000;stroke-width:0.265;stroke-dasharray:none"
       d="m 16.627885,4.0621996 c 0.05363,0.2001525 0.411179,0.6541753 0.759899,0.5607368 0.348722,-0.09344 0.466158,-0.685789 0.41252,-0.8859458 -0.05363,-0.2001538 -0.032,-0.3909156 -0.700718,-0.1896204 -0.668727,0.2012978 -0.525335,0.3146695 -0.471704,0.5148232 z"
       sodipodi:nodetypes="ssszs" /><path
       id="path1-7-1-9-7-3-3"
       style="fill:#ffffff;stroke:#000000;stroke-width:0.265;stroke-dasharray:none"
       d="m 14.236964,4.7253818 c 0.05363,0.200154 0.411179,0.6541778 0.7599,0.5607384 0.34872,-0.09344 0.466158,-0.6857891 0.41252,-0.8859459 -0.05363,-0.200151 -0.03199,-0.3909125 -0.700715,-0.1896193 -0.668726,0.201298 -0.525335,0.3146692 -0.471703,0.5148232 z"
       sodipodi:nodetypes="ssszs" /><ellipse
       style="fill:#ffffff;fill-opacity:1;stroke:#000000;stroke-width:0.265;stroke-dasharray:none;stroke-opacity:1"
       id="path1-7-2-9-9-1-3-1-2"
       cx="22.505629"
       cy="-5.903295"
       rx="0.65429264"
       ry="0.80279088"
       transform="matrix(0.96592583,0.25881905,0.25881905,-0.96592583,0,0)" /><path
       style="fill:#999999;fill-opacity:1;stroke:none;stroke-width:0.264999;stroke-dasharray:none;stroke-opacity:1"
       d="m 10.300022,11.998578 c 0.182694,-0.18831 0.424677,-0.308143 0.54414,-0.174014 0.834364,0.936808 2.530715,2.872747 2.867651,3.816161 0.826621,-0.135106 1.762271,-0.250492 2.382057,-0.09736 0.782021,0.193215 2.345406,1.161346 2.781043,1.816895 0.208918,0.314379 -0.402575,0.603991 -0.803042,0.392557 -0.69725,-0.368126 -1.350018,-0.709768 -2.060227,-1.186936 -0.719305,0.138392 -1.809516,0.356529 -2.392914,0.505358 -0.379621,0.557019 -0.354399,1.581428 -0.480221,2.232542 0.584975,0.584976 0.685433,0.878923 1.47303,1.681038 -0.258111,0.372096 -0.256714,0.448204 -0.574522,0.651866 -0.806439,-0.704446 -1.5712,-1.192163 -1.91433,-1.920964 -0.292696,-0.621682 -0.0458,-1.813885 -0.219241,-2.603049 -0.944643,-0.333485 -2.6025921,-1.96573 -3.5424431,-2.796663 -0.269128,-0.237945 0.477908,-0.966953 0.755446,-0.738872 0.799416,0.656956 2.0909951,1.78918 2.3574831,1.752577 0.150583,-0.02069 0.231384,-0.06718 0.27207,-0.122915 0.05564,-0.04088 0.102789,-0.124166 0.12292,-0.274832 0.03562,-0.266623 -1.099615,-1.553571 -1.759488,-2.350581 -0.1145501,-0.138349 0.0079,-0.394501 0.190588,-0.582811 z"
       id="path4-6-1-2"
       sodipodi:nodetypes="cscssscccccscccscsscc" /><path
       id="path1-3-1-7"
       style="fill:#6666ff;fill-opacity:1;stroke:#000000;stroke-width:0.265"
       d="m 12.105232,17.905404 c 0.649271,0.649271 1.97904,0.926366 2.628312,0.277095 0.649271,-0.649272 0.372175,-1.979041 -0.277096,-2.628311 -0.649269,-0.64927 -1.701947,-0.649271 -2.351216,-10e-7 -0.649272,0.64927 -0.649272,1.701946 0,2.351217 z"
       sodipodi:nodetypes="zzzzz" /><path
       id="path1-7-1-1-0-2"
       style="fill:#ffffff;stroke:#000000;stroke-width:0.265;stroke-dasharray:none"
       d="m 9.7687629,12.320832 c 0.146521,0.146522 0.6831781,0.360944 0.9384591,0.105663 0.255284,-0.255282 0.06081,-0.826989 -0.08572,-0.973511 -0.146522,-0.146523 -0.223168,-0.322544 -0.7016491,0.186143 -0.478486,0.508693 -0.297619,0.535179 -0.151097,0.681702 z"
       sodipodi:nodetypes="ssszs" /><path
       id="path1-7-1-9-7-3-2"
       style="fill:#ffffff;stroke:#000000;stroke-width:0.265;stroke-dasharray:none"
       d="m 8.0297539,14.090626 c 0.146524,0.146523 0.683182,0.360944 0.938463,0.105664 0.25528,-0.255283 0.06081,-0.826991 -0.08572,-0.973512 -0.146519,-0.146522 -0.223164,-0.322544 -0.701646,0.186142 -0.478484,0.508693 -0.297619,0.535179 -0.151096,0.681702 z"
       sodipodi:nodetypes="ssszs" /><path
       style="fill:#999999;fill-opacity:1;stroke:none;stroke-width:0.264999;stroke-dasharray:none;stroke-opacity:1"
       d="m 20.832982,30.34357 c 0.254428,-0.06406 0.479198,-0.21371 0.42277,-0.384234 -0.394118,-1.190982 -1.003979,-3.434245 -1.652531,-4.197749 0.247182,-0.769263 1.29717,-0.620439 1.755787,-1.500316 0.372327,-0.714326 -0.367028,-1.43008 -1.122515,-1.883187 -0.323701,-0.19416 -0.981642,0.115246 -0.741486,0.499176 0.369688,0.591009 0.782677,0.98173 0.782677,0.98173 -0.691305,0.386564 -1.570068,0.783802 -2.178404,1.074163 -0.672204,0.05025 -1.853534,-0.768843 -2.480326,-0.985434 -0.214116,-0.799091 -0.394001,-1.544897 -0.694854,-2.628035 -0.4513,0.03748 -0.516513,-0.0018 -0.851793,0.171619 0.206848,1.05062 0.22239,2.468614 0.681986,3.130175 0.392044,0.564323 1.854748,1.231649 2.451462,1.77644 -0.183515,0.984827 0.401076,3.236773 0.650761,4.466175 0.0715,0.352044 1.076358,0.0696 1.017603,-0.2848 -0.169233,-1.020792 -0.503977,-2.705444 -0.339034,-2.917927 0.09321,-0.120065 0.173869,-0.166797 0.242483,-0.174163 0.06322,-0.02774 0.158925,-0.02694 0.299471,0.03096 0.248713,0.102463 0.795625,1.729079 1.155918,2.699051 0.06254,0.168379 0.345601,0.190406 0.600024,0.126353 z"
       id="path4-6-1-1-1"
       sodipodi:nodetypes="cscssscccccscccscssc" /><path
       id="path1-3-1-0-0"
       style="fill:#66ff66;fill-opacity:1;stroke:#000000;stroke-width:0.265"
       d="m 16.620125,25.826801 c -0.23765,-0.88692 0.187263,-2.177082 1.074185,-2.414733 0.886921,-0.237649 1.899987,0.667208 2.137636,1.554127 0.237649,0.886919 -0.288689,1.798565 -1.175608,2.036214 -0.88692,0.237651 -1.798565,-0.288687 -2.036213,-1.175608 z"
       sodipodi:nodetypes="zzzzz" /><path
       id="path1-7-1-1-0-6-6"
       style="fill:#ffffff;stroke:#000000;stroke-width:0.265;stroke-dasharray:none"
       d="m 20.28827,30.642527 c -0.05363,-0.200152 0.029,-0.772122 0.377725,-0.865562 0.348722,-0.09344 0.746598,0.360832 0.800225,0.560992 0.05363,0.200154 0.167748,0.354541 -0.512031,0.514575 -0.679783,0.160034 -0.612287,-0.0098 -0.665919,-0.209998 z"
       sodipodi:nodetypes="ssszs" /><path
       id="path1-7-1-9-7-3-3-1"
       style="fill:#ffffff;stroke:#000000;stroke-width:0.265;stroke-dasharray:none"
       d="m 17.886081,31.263656 c -0.05363,-0.200155 0.029,-0.772125 0.377723,-0.865565 0.348722,-0.09344 0.746599,0.360832 0.800226,0.560993 0.05363,0.20015 0.167748,0.354537 -0.512027,0.514572 -0.679782,0.160033 -0.612288,-0.0098 -0.665919,-0.209998 z"
       sodipodi:nodetypes="ssszs" /><ellipse
       style="fill:#ffffff;fill-opacity:1;stroke:#000000;stroke-width:0.265;stroke-dasharray:none;stroke-opacity:1"
       id="path1-7-2-9-9-1-3-1-2-5"
       cx="-1.9286183"
       cy="29.730389"
       rx="0.65429264"
       ry="0.80279088"
       transform="rotate(-45)" /><ellipse
       style="fill:#ffffff;fill-opacity:1;stroke:#000000;stroke-width:0.265;stroke-dasharray:none;stroke-opacity:1"
       id="path1-7-2-9-9-1-3-9-9"
       cx="-0.13623407"
       cy="26.084131"
       rx="0.65429264"
       ry="0.80279088"
       transform="rotate(-34.27192)" /><ellipse
       style="fill:#ffffff;fill-opacity:1;stroke:#000000;stroke-width:0.265;stroke-dasharray:none;stroke-opacity:1"
       id="path1-7-2-9-9-1-3-9"
       cx="2.6814966"
       cy="-25.413826"
       rx="0.65429264"
       ry="0.80279088"
       transform="matrix(0.75781466,-0.65246988,-0.65246988,-0.75781466,0,0)" /></g></svg>
