<?xml version="1.0" encoding="UTF-8" standalone="no"?>
<!-- Created with Inkscape (http://www.inkscape.org/) -->

<svg
   width="35mm"
   height="35mm"
   viewBox="0 0 35 35"
   version="1.1"
   id="svg1"
   xml:space="preserve"
   inkscape:version="1.4 (e7c3feb100, 2024-10-09)"
   sodipodi:docname="2_v2_end.svg"
   xmlns:inkscape="http://www.inkscape.org/namespaces/inkscape"
   xmlns:sodipodi="http://sodipodi.sourceforge.net/DTD/sodipodi-0.dtd"
   xmlns="http://www.w3.org/2000/svg"
   xmlns:svg="http://www.w3.org/2000/svg"><sodipodi:namedview
     id="namedview1"
     pagecolor="#ffffff"
     bordercolor="#000000"
     borderopacity="0.25"
     inkscape:showpageshadow="2"
     inkscape:pageopacity="0.0"
     inkscape:pagecheckerboard="0"
     inkscape:deskcolor="#d1d1d1"
     inkscape:document-units="mm"
     inkscape:zoom="3.0383199"
     inkscape:cx="50.027649"
     inkscape:cy="128.03128"
     inkscape:window-width="1916"
     inkscape:window-height="761"
     inkscape:window-x="0"
     inkscape:window-y="0"
     inkscape:window-maximized="0"
     inkscape:current-layer="layer1"><sodipodi:guide
       position="25.431035,17.543103"
       orientation="0,132.28346"
       id="guide5"
       inkscape:locked="false" /><sodipodi:guide
       position="35.000001,35.000001"
       orientation="132.28346,0"
       id="guide6"
       inkscape:locked="false" /><sodipodi:guide
       position="35.000001,0"
       orientation="0,-132.28346"
       id="guide7"
       inkscape:locked="false" /><sodipodi:guide
       position="17.503506,35.914363"
       orientation="-132.28346,0"
       id="guide8"
       inkscape:locked="false" /></sodipodi:namedview><defs
     id="defs1"><inkscape:path-effect
       effect="mirror_symmetry"
       start_point="17.297909,16.234992"
       end_point="17.313303,7.810326"
       center_point="17.305606,12.022659"
       id="path-effect5"
       is_visible="true"
       lpeversion="1.2"
       lpesatellites=""
       mode="free"
       discard_orig_path="false"
       fuse_paths="true"
       oposite_fuse="false"
       split_items="false"
       split_open="false"
       link_styles="false" /><inkscape:path-effect
       effect="mirror_symmetry"
       start_point="17.297909,16.234992"
       end_point="17.313303,7.810326"
       center_point="17.305606,12.022659"
       id="path-effect5-7"
       is_visible="true"
       lpeversion="1.2"
       lpesatellites=""
       mode="free"
       discard_orig_path="false"
       fuse_paths="true"
       oposite_fuse="false"
       split_items="false"
       split_open="false"
       link_styles="false" /><inkscape:path-effect
       effect="mirror_symmetry"
       start_point="17.297909,16.234992"
       end_point="17.313303,7.810326"
       center_point="17.305606,12.022659"
       id="path-effect5-6"
       is_visible="true"
       lpeversion="1.2"
       lpesatellites=""
       mode="free"
       discard_orig_path="false"
       fuse_paths="true"
       oposite_fuse="false"
       split_items="false"
       split_open="false"
       link_styles="false" /><inkscape:path-effect
       effect="mirror_symmetry"
       start_point="17.297909,16.234992"
       end_point="17.313303,7.810326"
       center_point="17.305606,12.022659"
       id="path-effect5-3"
       is_visible="true"
       lpeversion="1.2"
       lpesatellites=""
       mode="free"
       discard_orig_path="false"
       fuse_paths="true"
       oposite_fuse="false"
       split_items="false"
       split_open="false"
       link_styles="false" /><inkscape:path-effect
       effect="mirror_symmetry"
       start_point="17.297909,16.234992"
       end_point="17.313303,7.810326"
       center_point="17.305606,12.022659"
       id="path-effect5-66"
       is_visible="true"
       lpeversion="1.2"
       lpesatellites=""
       mode="free"
       discard_orig_path="false"
       fuse_paths="true"
       oposite_fuse="false"
       split_items="false"
       split_open="false"
       link_styles="false" /><inkscape:path-effect
       effect="mirror_symmetry"
       start_point="17.297909,16.234992"
       end_point="17.313303,7.810326"
       center_point="17.305606,12.022659"
       id="path-effect5-4"
       is_visible="true"
       lpeversion="1.2"
       lpesatellites=""
       mode="free"
       discard_orig_path="false"
       fuse_paths="true"
       oposite_fuse="false"
       split_items="false"
       split_open="false"
       link_styles="false" /><inkscape:path-effect
       effect="mirror_symmetry"
       start_point="17.297909,16.234992"
       end_point="17.313303,7.810326"
       center_point="17.305606,12.022659"
       id="path-effect5-4-7"
       is_visible="true"
       lpeversion="1.2"
       lpesatellites=""
       mode="free"
       discard_orig_path="false"
       fuse_paths="true"
       oposite_fuse="false"
       split_items="false"
       split_open="false"
       link_styles="false" /><inkscape:path-effect
       effect="mirror_symmetry"
       start_point="17.297909,16.234992"
       end_point="17.313303,7.810326"
       center_point="17.305606,12.022659"
       id="path-effect5-41"
       is_visible="true"
       lpeversion="1.2"
       lpesatellites=""
       mode="free"
       discard_orig_path="false"
       fuse_paths="true"
       oposite_fuse="false"
       split_items="false"
       split_open="false"
       link_styles="false" /><inkscape:path-effect
       effect="mirror_symmetry"
       start_point="17.297909,16.234992"
       end_point="17.313303,7.810326"
       center_point="17.305606,12.022659"
       id="path-effect5-4-0"
       is_visible="true"
       lpeversion="1.2"
       lpesatellites=""
       mode="free"
       discard_orig_path="false"
       fuse_paths="true"
       oposite_fuse="false"
       split_items="false"
       split_open="false"
       link_styles="false" /><inkscape:path-effect
       effect="mirror_symmetry"
       start_point="17.493844,16.300304"
       end_point="17.509238,7.875638"
       center_point="17.501541,12.087971"
       id="path-effect5-4-0-9"
       is_visible="true"
       lpeversion="1.2"
       lpesatellites=""
       mode="free"
       discard_orig_path="false"
       fuse_paths="true"
       oposite_fuse="false"
       split_items="false"
       split_open="false"
       link_styles="false" /><inkscape:path-effect
       effect="mirror_symmetry"
       start_point="17.297909,16.234992"
       end_point="17.313303,7.810326"
       center_point="17.305606,12.022659"
       id="path-effect5-4-0-0"
       is_visible="true"
       lpeversion="1.2"
       lpesatellites=""
       mode="free"
       discard_orig_path="false"
       fuse_paths="true"
       oposite_fuse="false"
       split_items="false"
       split_open="false"
       link_styles="false" /><inkscape:path-effect
       effect="mirror_symmetry"
       start_point="17.493844,16.300304"
       end_point="17.509238,7.875638"
       center_point="17.501541,12.087971"
       id="path-effect5-4-0-9-7"
       is_visible="true"
       lpeversion="1.2"
       lpesatellites=""
       mode="free"
       discard_orig_path="false"
       fuse_paths="true"
       oposite_fuse="false"
       split_items="false"
       split_open="false"
       link_styles="false" /><inkscape:path-effect
       effect="mirror_symmetry"
       start_point="17.493844,16.300304"
       end_point="17.509238,7.875638"
       center_point="17.501541,12.087971"
       id="path-effect5-4-0-9-3"
       is_visible="true"
       lpeversion="1.2"
       lpesatellites=""
       mode="free"
       discard_orig_path="false"
       fuse_paths="true"
       oposite_fuse="false"
       split_items="false"
       split_open="false"
       link_styles="false" /><inkscape:path-effect
       effect="mirror_symmetry"
       start_point="17.493844,16.300304"
       end_point="17.509238,7.875638"
       center_point="17.501541,12.087971"
       id="path-effect5-4-0-9-5"
       is_visible="true"
       lpeversion="1.2"
       lpesatellites=""
       mode="free"
       discard_orig_path="false"
       fuse_paths="true"
       oposite_fuse="false"
       split_items="false"
       split_open="false"
       link_styles="false" /><inkscape:path-effect
       effect="mirror_symmetry"
       start_point="17.297909,16.234992"
       end_point="17.313303,7.810326"
       center_point="17.305606,12.022659"
       id="path-effect5-4-6-1"
       is_visible="true"
       lpeversion="1.2"
       lpesatellites=""
       mode="free"
       discard_orig_path="false"
       fuse_paths="true"
       oposite_fuse="false"
       split_items="false"
       split_open="false"
       link_styles="false" /><inkscape:path-effect
       effect="mirror_symmetry"
       start_point="17.493844,16.300304"
       end_point="17.509238,7.875638"
       center_point="17.501541,12.087971"
       id="path-effect5-4-0-9-5-9"
       is_visible="true"
       lpeversion="1.2"
       lpesatellites=""
       mode="free"
       discard_orig_path="false"
       fuse_paths="true"
       oposite_fuse="false"
       split_items="false"
       split_open="false"
       link_styles="false" /></defs><g
     inkscape:label="Layer 1"
     inkscape:groupmode="layer"
     id="layer1"><path
       style="fill:#999999;fill-opacity:1;stroke:none;stroke-width:0.264999;stroke-dasharray:none;stroke-opacity:1"
       d="m 5.9932958,15.722213 c -0.1346076,0.225207 -0.1877292,0.48996 -0.027251,0.570637 1.120836,0.563468 3.1382989,1.71846 4.1367752,1.799742 0.369163,0.718738 -0.4785233,1.355954 -0.1806463,2.302412 0.2418313,0.76838 1.2707483,0.751691 2.1253533,0.537877 0.366185,-0.0916 0.612635,-0.775617 0.171339,-0.877281 -0.679315,-0.156497 -1.247624,-0.140753 -1.247624,-0.140753 0.215484,-0.762166 0.555973,-1.664436 0.780816,-2.299911 0.439785,-0.510854 1.854301,-0.766991 2.450663,-1.057048 0.716446,0.413639 1.371008,0.813806 2.349636,1.366965 0.292613,-0.345622 0.36649,-0.363971 0.480956,-0.723662 -0.889163,-0.596636 -1.902826,-1.588319 -2.695603,-1.731129 -0.676255,-0.12182 -2.182413,0.440597 -2.989579,0.477312 -0.566613,-0.826142 -2.5723503,-2.00514 -3.618221,-2.697905 -0.2994926,-0.198373 -0.8103124,0.711889 -0.518172,0.920938 0.8414749,0.602143 2.2694047,1.556672 2.3030197,1.823552 0.01899,0.150808 -0.005,0.240888 -0.04831,0.294614 -0.02509,0.06432 -0.09333,0.131422 -0.233651,0.189863 -0.248318,0.103413 -1.7852355,-0.660052 -2.7258754,-1.091159 -0.1632833,-0.07484 -0.379015,0.109735 -0.5136243,0.334936 z"
       id="path4-6-1"
       sodipodi:nodetypes="cscssscccccscccscssc" /><path
       id="path1-3-1"
       style="fill:#6666ff;fill-opacity:1;stroke:#000000;stroke-width:0.265"
       d="m 12.166075,15.937111 c 0.79519,0.459104 1.407014,1.671844 0.94791,2.467038 -0.459104,0.795191 -1.815281,0.871707 -2.610472,0.412603 -0.7951905,-0.459103 -1.0676435,-1.475911 -0.6085395,-2.271101 0.4591035,-0.795192 1.4759105,-1.067644 2.2711015,-0.60854 z"
       sodipodi:nodetypes="zzzzz" /><path
       id="path1-7-1-1-0"
       style="fill:#ffffff;stroke:#000000;stroke-width:0.265;stroke-dasharray:none"
       d="m 6.1670697,15.12565 c 0.179452,0.103605 0.5254649,0.566481 0.344954,0.879135 -0.1805118,0.312655 -0.7830715,0.272778 -0.9625258,0.169164 -0.179453,-0.103608 -0.3693139,-0.132083 -0.0018,-0.725919 0.3675178,-0.593842 0.4399138,-0.425993 0.6193672,-0.322385 z"
       sodipodi:nodetypes="ssszs" /><path
       id="path1-7-1-9-7-3"
       style="fill:#ffffff;stroke:#000000;stroke-width:0.265;stroke-dasharray:none"
       d="m 7.4264711,12.987841 c 0.1794526,0.103608 0.5254654,0.566483 0.3449544,0.879137 -0.1805118,0.312654 -0.7830713,0.272778 -0.9625256,0.169164 -0.1794511,-0.103604 -0.3693122,-0.13208 -0.0018,-0.725915 0.3675181,-0.593841 0.4399139,-0.425994 0.6193665,-0.322385 z"
       sodipodi:nodetypes="ssszs" /><ellipse
       style="fill:#ffffff;fill-opacity:1;stroke:#000000;stroke-width:0.265;stroke-dasharray:none;stroke-opacity:1"
       id="path1-7-2-9-9-1-3-1"
       cx="20.518597"
       cy="-12.450192"
       rx="0.65429264"
       ry="0.80279088"
       transform="rotate(90)" /><path
       style="fill:#999999;fill-opacity:1;stroke:none;stroke-width:0.264999;stroke-dasharray:none;stroke-opacity:1"
       d="m 18.978532,28.707449 c -0.225207,0.134604 -0.48996,0.187727 -0.570638,0.02725 -0.563467,-1.120836 -1.718458,-3.138299 -1.79974,-4.136773 -0.718738,-0.369165 -1.355955,0.478521 -2.302413,0.180645 -0.76838,-0.24183 -0.75169,-1.270747 -0.53788,-2.125351 0.0916,-0.366185 0.775618,-0.612636 0.877283,-0.171336 0.156493,0.679317 0.140752,1.247624 0.140752,1.247624 0.762167,-0.215485 1.664437,-0.555974 2.299912,-0.780816 0.510854,-0.439785 0.766991,-1.854301 1.057047,-2.450662 -0.413639,-0.716447 -0.813806,-1.371009 -1.366965,-2.349638 0.345622,-0.292613 0.363972,-0.366488 0.723662,-0.480955 0.596636,0.889163 1.58832,1.902826 1.73113,2.695604 0.121818,0.676254 -0.440597,2.182413 -0.477312,2.989579 0.826142,0.566611 2.00514,2.572348 2.697905,3.618219 0.198373,0.299492 -0.711889,0.810312 -0.920938,0.518172 -0.602144,-0.841475 -1.556672,-2.269405 -1.823554,-2.30302 -0.150808,-0.019 -0.240887,0.005 -0.294612,0.04831 -0.06432,0.0251 -0.131423,0.09333 -0.189864,0.233654 -0.103413,0.248317 0.660053,1.785234 1.091159,2.725874 0.07484,0.163284 -0.109736,0.379016 -0.334936,0.513624 z"
       id="path4-6-1-1"
       sodipodi:nodetypes="cscssscccccscccscssc" /><ellipse
       style="fill:#ffffff;fill-opacity:1;stroke:#000000;stroke-width:0.265;stroke-dasharray:none;stroke-opacity:1"
       id="path1-7-2-9-9-1-3-9-8"
       cx="5.1093984"
       cy="23.838446"
       rx="0.65429264"
       ry="0.80279088"
       transform="matrix(-0.56312112,0.82637437,0.82637437,0.56312112,0,0)" /><path
       id="path1-3-1-0"
       style="fill:#66ff66;fill-opacity:1;stroke:#000000;stroke-width:0.265"
       d="m 18.763635,22.534671 c -0.459105,-0.795192 -1.671845,-1.407015 -2.467038,-0.94791 -0.795192,0.459103 -0.871707,1.815281 -0.412604,2.61047 0.459104,0.795191 1.475911,1.067643 2.271101,0.608541 0.795192,-0.459104 1.067645,-1.47591 0.608541,-2.271101 z"
       sodipodi:nodetypes="zzzzz" /><path
       id="path1-7-1-1-0-6"
       style="fill:#ffffff;stroke:#000000;stroke-width:0.265;stroke-dasharray:none"
       d="M 19.575096,28.533674 C 19.47149,28.354223 19.008614,28.008211 18.69596,28.18872 c -0.312655,0.180512 -0.272778,0.783072 -0.169164,0.962527 0.103607,0.179453 0.132086,0.369313 0.725919,0.0018 0.593841,-0.367518 0.425993,-0.439914 0.322385,-0.619368 z"
       sodipodi:nodetypes="ssszs" /><path
       id="path1-7-1-9-7-3-3"
       style="fill:#ffffff;stroke:#000000;stroke-width:0.265;stroke-dasharray:none"
       d="m 21.712905,27.274274 c -0.103606,-0.179454 -0.566483,-0.525467 -0.879138,-0.344955 -0.312653,0.180512 -0.272778,0.783072 -0.169163,0.962525 0.103606,0.179452 0.132076,0.369313 0.725915,0.0018 0.59384,-0.367518 0.425992,-0.439914 0.322385,-0.619367 z"
       sodipodi:nodetypes="ssszs" /><ellipse
       style="fill:#ffffff;fill-opacity:1;stroke:#000000;stroke-width:0.265;stroke-dasharray:none;stroke-opacity:1"
       id="path1-7-2-9-9-1-3-1-2"
       cx="-14.182145"
       cy="22.250549"
       rx="0.65429264"
       ry="0.80279088"
       transform="scale(-1,1)" /><path
       style="fill:#999999;fill-opacity:1;stroke:none;stroke-width:0.264999;stroke-dasharray:none;stroke-opacity:1"
       d="m 27.79574,22.497288 c -0.127731,0.229178 -0.330454,0.407558 -0.480562,0.308918 -1.048396,-0.688938 -3.188002,-2.119863 -3.75763,-2.943926 -0.763488,0.344448 -1.637392,0.698067 -2.275693,0.710565 -0.805382,0.01577 -2.566066,-0.514739 -3.156528,-1.035199 -0.283167,-0.249595 0.232533,-0.687605 0.674078,-0.587024 0.76877,0.175121 1.487718,0.336173 2.297228,0.613268 0.658977,-0.319848 1.655582,-0.812719 2.180581,-1.10747 0.222519,-0.636294 -0.06698,-1.619269 -0.113966,-2.280762 -0.716446,-0.41364 -0.88956,-0.671571 -1.857923,-1.242509 0.153011,-0.426222 0.131963,-0.499375 0.386231,-0.778352 0.961283,0.471721 1.826217,0.744884 2.346282,1.360044 0.443626,0.524743 0.513707,1.740224 0.88549,2.457608 0.998766,0.07763 3.022677,1.22515 4.145565,1.784518 0.321542,0.160181 -0.211358,1.057696 -0.538471,0.909219 -0.942209,-0.427667 -2.48282,-1.187026 -2.730753,-1.082698 -0.140098,0.05896 -0.206113,0.124778 -0.230987,0.189144 -0.04316,0.05389 -0.06715,0.146538 -0.0476,0.297281 0.0346,0.266757 1.464239,1.216033 2.307909,1.815098 0.146455,0.103987 0.09447,0.383103 -0.03325,0.612279 z"
       id="path4-6-1-2"
       sodipodi:nodetypes="cscssscccccscccscsscc" /><path
       id="path1-3-1-7"
       style="fill:#ff6666;fill-opacity:1;stroke:#000000;stroke-width:0.265"
       d="m 24.523243,17.258955 c -0.795191,-0.459104 -2.151367,-0.382588 -2.610472,0.412604 -0.459104,0.795192 0.15272,2.007934 0.947911,2.467037 0.795189,0.459102 1.811998,0.18665 2.271101,-0.60854 0.459105,-0.79519 0.186652,-1.811997 -0.60854,-2.271101 z"
       sodipodi:nodetypes="zzzzz" /><path
       id="path1-7-1-1-0-2"
       style="fill:#ffffff;stroke:#000000;stroke-width:0.265;stroke-dasharray:none"
       d="m 28.225491,22.048514 c -0.179451,-0.103607 -0.753319,-0.171824 -0.93383,0.14083 -0.180512,0.312655 0.155302,0.814548 0.334762,0.918153 0.179452,0.103608 0.299044,0.253794 0.629565,-0.361401 0.330521,-0.6152 0.148962,-0.593972 -0.03049,-0.697579 z"
       sodipodi:nodetypes="ssszs" /><path
       id="path1-7-1-9-7-3-2"
       style="fill:#ffffff;stroke:#000000;stroke-width:0.265;stroke-dasharray:none"
       d="m 29.447188,19.888937 c -0.179454,-0.103608 -0.753322,-0.171826 -0.933833,0.140828 -0.18051,0.312655 0.155303,0.814551 0.334763,0.918154 0.179448,0.103607 0.299039,0.253794 0.62956,-0.361398 0.330521,-0.615201 0.148964,-0.593974 -0.03049,-0.69758 z"
       sodipodi:nodetypes="ssszs" /><path
       style="fill:#999999;fill-opacity:1;stroke:none;stroke-width:0.264999;stroke-dasharray:none;stroke-opacity:1"
       d="m 12.873649,7.5035173 c -0.229178,0.1277309 -0.407557,0.330454 -0.308917,0.480562 0.688938,1.048396 1.858617,3.0573787 2.68268,3.6270077 -0.03966,0.807028 -1.092389,0.935031 -1.30765,1.903625 -0.174759,0.786352 0.724654,1.286358 1.571671,1.528491 0.362924,0.103764 0.918366,-0.365387 0.587024,-0.674078 -0.510055,-0.475187 -1.010098,-0.745706 -1.010098,-0.745706 0.567699,-0.552314 1.313706,-1.163458 1.826163,-1.601374 0.636293,-0.222517 1.989367,0.262915 2.65086,0.3099 0.41364,0.716445 0.780424,1.390281 1.351364,2.358645 0.426221,-0.153008 0.499379,-0.131945 0.778349,-0.386231 -0.47172,-0.961285 -0.853736,-2.326938 -1.468896,-2.847005 -0.524743,-0.443626 -2.110324,-0.709636 -2.827707,-1.081423 -0.07763,-0.9987677 -1.22515,-3.0226778 -1.784519,-4.1455668 -0.160179,-0.3215425 -1.057694,0.2113583 -0.909217,0.5384709 0.427667,0.9422089 1.187025,2.4828202 1.082697,2.7307542 -0.05896,0.140097 -0.124774,0.206114 -0.189144,0.230987 -0.05389,0.04316 -0.14654,0.06715 -0.29728,0.0476 -0.266759,-0.0346 -1.216034,-1.464243 -1.815099,-2.3079131 -0.103988,-0.1464548 -0.383104,-0.09447 -0.612281,0.033251 z"
       id="path4-6-1-1-1"
       sodipodi:nodetypes="cscssscccccscccscssc" /><path
       id="path1-3-1-0-0"
       style="fill:#4d4d4d;fill-opacity:1;stroke:#000000;stroke-width:0.265"
       d="m 18.111983,10.776014 c 0.459104,0.795191 0.382588,2.151366 -0.412603,2.610473 -0.795193,0.459102 -2.007934,-0.152722 -2.467037,-0.947912 -0.459103,-0.795189 -0.186651,-1.811996 0.608539,-2.2711 0.795191,-0.4591047 1.811998,-0.1866527 2.271101,0.608539 z"
       sodipodi:nodetypes="zzzzz" /><path
       id="path1-7-1-1-0-6-6"
       style="fill:#ffffff;stroke:#000000;stroke-width:0.265;stroke-dasharray:none"
       d="m 13.322425,7.073765 c 0.103606,0.1794512 0.171828,0.7533193 -0.14083,0.9338313 -0.312656,0.180512 -0.81455,-0.155302 -0.918155,-0.3347631 -0.103606,-0.1794522 -0.253793,-0.299044 0.361402,-0.6295649 0.6152,-0.3305221 0.593972,-0.1489671 0.697581,0.03049 z"
       sodipodi:nodetypes="ssszs" /><path
       id="path1-7-1-9-7-3-3-1"
       style="fill:#ffffff;stroke:#000000;stroke-width:0.265;stroke-dasharray:none"
       d="m 15.482001,5.8520682 c 0.103607,0.1794542 0.171829,0.7533213 -0.140828,0.9338329 -0.312655,0.1805111 -0.81455,-0.1553018 -0.918155,-0.3347619 -0.103605,-0.1794504 -0.253793,-0.2990399 0.3614,-0.6295622 0.615199,-0.3305208 0.593972,-0.1489671 0.69758,0.03049 z"
       sodipodi:nodetypes="ssszs" /><ellipse
       style="fill:#ffffff;fill-opacity:1;stroke:#000000;stroke-width:0.265;stroke-dasharray:none;stroke-opacity:1"
       id="path1-7-2-9-9-1-3-1-2-5"
       cx="4.8577929"
       cy="-21.357571"
       rx="0.65429264"
       ry="0.80279088"
       transform="rotate(120)" /><ellipse
       style="fill:#ffffff;fill-opacity:1;stroke:#000000;stroke-width:0.265;stroke-dasharray:none;stroke-opacity:1"
       id="path1-7-2-9-9-1-3-9-9"
       cx="-2.9783666"
       cy="-25.374174"
       rx="0.65429264"
       ry="0.80279088"
       transform="rotate(130.72808)" /><ellipse
       style="fill:#ffffff;fill-opacity:1;stroke:#000000;stroke-width:0.265;stroke-dasharray:none;stroke-opacity:1"
       id="path1-7-2-9-9-1-3-9"
       cx="5.6435161"
       cy="26.03771"
       rx="0.65429264"
       ry="0.80279088"
       transform="matrix(-0.56312112,0.82637437,0.82637437,0.56312112,0,0)" /></g></svg>
