<?xml version="1.0" encoding="UTF-8" standalone="no"?>
<!-- Created with Inkscape (http://www.inkscape.org/) -->

<svg
   width="35mm"
   height="35mm"
   viewBox="0 0 35 35"
   version="1.1"
   id="svg1"
   xml:space="preserve"
   inkscape:version="1.4 (e7c3feb100, 2024-10-09)"
   sodipodi:docname="2_v3_inter.svg"
   xmlns:inkscape="http://www.inkscape.org/namespaces/inkscape"
   xmlns:sodipodi="http://sodipodi.sourceforge.net/DTD/sodipodi-0.dtd"
   xmlns:xlink="http://www.w3.org/1999/xlink"
   xmlns="http://www.w3.org/2000/svg"
   xmlns:svg="http://www.w3.org/2000/svg"><sodipodi:namedview
     id="namedview1"
     pagecolor="#ffffff"
     bordercolor="#000000"
     borderopacity="0.25"
     inkscape:showpageshadow="2"
     inkscape:pageopacity="0.0"
     inkscape:pagecheckerboard="0"
     inkscape:deskcolor="#d1d1d1"
     inkscape:document-units="mm"
     inkscape:zoom="8.5936666"
     inkscape:cx="74.182538"
     inkscape:cy="58.764207"
     inkscape:window-width="1916"
     inkscape:window-height="1023"
     inkscape:window-x="0"
     inkscape:window-y="0"
     inkscape:window-maximized="0"
     inkscape:current-layer="layer1"><sodipodi:guide
       position="25.431035,17.543103"
       orientation="0,132.28346"
       id="guide5"
       inkscape:locked="false" /><sodipodi:guide
       position="35.000001,35.000001"
       orientation="132.28346,0"
       id="guide6"
       inkscape:locked="false" /><sodipodi:guide
       position="35.000001,0"
       orientation="0,-132.28346"
       id="guide7"
       inkscape:locked="false" /><sodipodi:guide
       position="17.503506,35.914363"
       orientation="-132.28346,0"
       id="guide8"
       inkscape:locked="false" /></sodipodi:namedview><defs
     id="defs1"><linearGradient
       id="linearGradient7"
       inkscape:collect="always"><stop
         style="stop-color:#4d4d4d;stop-opacity:0.74901962;"
         offset="0"
         id="stop6" /><stop
         style="stop-color:#4d4d4d;stop-opacity:0;"
         offset="1"
         id="stop7" /></linearGradient><linearGradient
       id="linearGradient5"
       inkscape:collect="always"><stop
         style="stop-color:#66ff66;stop-opacity:0.74901962;"
         offset="0"
         id="stop4" /><stop
         style="stop-color:#66ff66;stop-opacity:0;"
         offset="1"
         id="stop5" /></linearGradient><inkscape:path-effect
       effect="mirror_symmetry"
       start_point="17.297909,16.234992"
       end_point="17.313303,7.810326"
       center_point="17.305606,12.022659"
       id="path-effect5"
       is_visible="true"
       lpeversion="1.2"
       lpesatellites=""
       mode="free"
       discard_orig_path="false"
       fuse_paths="true"
       oposite_fuse="false"
       split_items="false"
       split_open="false"
       link_styles="false" /><inkscape:path-effect
       effect="mirror_symmetry"
       start_point="17.297909,16.234992"
       end_point="17.313303,7.810326"
       center_point="17.305606,12.022659"
       id="path-effect5-7"
       is_visible="true"
       lpeversion="1.2"
       lpesatellites=""
       mode="free"
       discard_orig_path="false"
       fuse_paths="true"
       oposite_fuse="false"
       split_items="false"
       split_open="false"
       link_styles="false" /><inkscape:path-effect
       effect="mirror_symmetry"
       start_point="17.297909,16.234992"
       end_point="17.313303,7.810326"
       center_point="17.305606,12.022659"
       id="path-effect5-6"
       is_visible="true"
       lpeversion="1.2"
       lpesatellites=""
       mode="free"
       discard_orig_path="false"
       fuse_paths="true"
       oposite_fuse="false"
       split_items="false"
       split_open="false"
       link_styles="false" /><inkscape:path-effect
       effect="mirror_symmetry"
       start_point="17.297909,16.234992"
       end_point="17.313303,7.810326"
       center_point="17.305606,12.022659"
       id="path-effect5-3"
       is_visible="true"
       lpeversion="1.2"
       lpesatellites=""
       mode="free"
       discard_orig_path="false"
       fuse_paths="true"
       oposite_fuse="false"
       split_items="false"
       split_open="false"
       link_styles="false" /><inkscape:path-effect
       effect="mirror_symmetry"
       start_point="17.297909,16.234992"
       end_point="17.313303,7.810326"
       center_point="17.305606,12.022659"
       id="path-effect5-66"
       is_visible="true"
       lpeversion="1.2"
       lpesatellites=""
       mode="free"
       discard_orig_path="false"
       fuse_paths="true"
       oposite_fuse="false"
       split_items="false"
       split_open="false"
       link_styles="false" /><inkscape:path-effect
       effect="mirror_symmetry"
       start_point="17.297909,16.234992"
       end_point="17.313303,7.810326"
       center_point="17.305606,12.022659"
       id="path-effect5-4"
       is_visible="true"
       lpeversion="1.2"
       lpesatellites=""
       mode="free"
       discard_orig_path="false"
       fuse_paths="true"
       oposite_fuse="false"
       split_items="false"
       split_open="false"
       link_styles="false" /><inkscape:path-effect
       effect="mirror_symmetry"
       start_point="17.297909,16.234992"
       end_point="17.313303,7.810326"
       center_point="17.305606,12.022659"
       id="path-effect5-4-7"
       is_visible="true"
       lpeversion="1.2"
       lpesatellites=""
       mode="free"
       discard_orig_path="false"
       fuse_paths="true"
       oposite_fuse="false"
       split_items="false"
       split_open="false"
       link_styles="false" /><inkscape:path-effect
       effect="mirror_symmetry"
       start_point="17.297909,16.234992"
       end_point="17.313303,7.810326"
       center_point="17.305606,12.022659"
       id="path-effect5-41"
       is_visible="true"
       lpeversion="1.2"
       lpesatellites=""
       mode="free"
       discard_orig_path="false"
       fuse_paths="true"
       oposite_fuse="false"
       split_items="false"
       split_open="false"
       link_styles="false" /><inkscape:path-effect
       effect="mirror_symmetry"
       start_point="17.297909,16.234992"
       end_point="17.313303,7.810326"
       center_point="17.305606,12.022659"
       id="path-effect5-4-0"
       is_visible="true"
       lpeversion="1.2"
       lpesatellites=""
       mode="free"
       discard_orig_path="false"
       fuse_paths="true"
       oposite_fuse="false"
       split_items="false"
       split_open="false"
       link_styles="false" /><inkscape:path-effect
       effect="mirror_symmetry"
       start_point="17.493844,16.300304"
       end_point="17.509238,7.875638"
       center_point="17.501541,12.087971"
       id="path-effect5-4-0-9"
       is_visible="true"
       lpeversion="1.2"
       lpesatellites=""
       mode="free"
       discard_orig_path="false"
       fuse_paths="true"
       oposite_fuse="false"
       split_items="false"
       split_open="false"
       link_styles="false" /><inkscape:path-effect
       effect="mirror_symmetry"
       start_point="17.297909,16.234992"
       end_point="17.313303,7.810326"
       center_point="17.305606,12.022659"
       id="path-effect5-4-0-0"
       is_visible="true"
       lpeversion="1.2"
       lpesatellites=""
       mode="free"
       discard_orig_path="false"
       fuse_paths="true"
       oposite_fuse="false"
       split_items="false"
       split_open="false"
       link_styles="false" /><inkscape:path-effect
       effect="mirror_symmetry"
       start_point="17.493844,16.300304"
       end_point="17.509238,7.875638"
       center_point="17.501541,12.087971"
       id="path-effect5-4-0-9-7"
       is_visible="true"
       lpeversion="1.2"
       lpesatellites=""
       mode="free"
       discard_orig_path="false"
       fuse_paths="true"
       oposite_fuse="false"
       split_items="false"
       split_open="false"
       link_styles="false" /><inkscape:path-effect
       effect="mirror_symmetry"
       start_point="17.493844,16.300304"
       end_point="17.509238,7.875638"
       center_point="17.501541,12.087971"
       id="path-effect5-4-0-9-3"
       is_visible="true"
       lpeversion="1.2"
       lpesatellites=""
       mode="free"
       discard_orig_path="false"
       fuse_paths="true"
       oposite_fuse="false"
       split_items="false"
       split_open="false"
       link_styles="false" /><inkscape:path-effect
       effect="mirror_symmetry"
       start_point="17.493844,16.300304"
       end_point="17.509238,7.875638"
       center_point="17.501541,12.087971"
       id="path-effect5-4-0-9-5"
       is_visible="true"
       lpeversion="1.2"
       lpesatellites=""
       mode="free"
       discard_orig_path="false"
       fuse_paths="true"
       oposite_fuse="false"
       split_items="false"
       split_open="false"
       link_styles="false" /><inkscape:path-effect
       effect="mirror_symmetry"
       start_point="17.297909,16.234992"
       end_point="17.313303,7.810326"
       center_point="17.305606,12.022659"
       id="path-effect5-4-6-1"
       is_visible="true"
       lpeversion="1.2"
       lpesatellites=""
       mode="free"
       discard_orig_path="false"
       fuse_paths="true"
       oposite_fuse="false"
       split_items="false"
       split_open="false"
       link_styles="false" /><inkscape:path-effect
       effect="mirror_symmetry"
       start_point="17.493844,16.300304"
       end_point="17.509238,7.875638"
       center_point="17.501541,12.087971"
       id="path-effect5-4-0-9-5-9"
       is_visible="true"
       lpeversion="1.2"
       lpesatellites=""
       mode="free"
       discard_orig_path="false"
       fuse_paths="true"
       oposite_fuse="false"
       split_items="false"
       split_open="false"
       link_styles="false" /><linearGradient
       inkscape:collect="always"
       xlink:href="#linearGradient5"
       id="linearGradient4"
       gradientUnits="userSpaceOnUse"
       gradientTransform="matrix(0,1,1.0825992,0,-2.2525511,2.1327581)"
       x1="10.647268"
       y1="16.557197"
       x2="18.301222"
       y2="15.409434" /><linearGradient
       inkscape:collect="always"
       xlink:href="#linearGradient7"
       id="linearGradient6"
       gradientUnits="userSpaceOnUse"
       gradientTransform="matrix(0,-1,-1.0825992,0,35.32517,33.154743)"
       x1="10.647268"
       y1="16.557197"
       x2="18.301222"
       y2="15.409434" /></defs><g
     inkscape:label="Layer 1"
     inkscape:groupmode="layer"
     id="layer1"><path
       style="fill:#999999;fill-opacity:1;stroke:none;stroke-width:0.264999;stroke-dasharray:none;stroke-opacity:1"
       d="m 21.454661,12.798397 c 0.07176,0.252365 0.05452,0.521852 -0.12137,0.558246 -1.22848,0.254175 -3.476134,0.847653 -4.461624,0.667741 -0.542607,0.598702 0.11127,1.433601 -0.421418,2.270715 -0.432461,0.679607 -1.421999,0.397184 -2.192145,-0.03053 -0.33,-0.183254 -0.391016,-0.907751 0.06156,-0.891735 0.696672,0.02466 1.241542,0.186953 1.241542,0.186953 -0.01088,-0.791969 -0.106243,-1.751619 -0.15895,-2.423635 -0.292582,-0.607271 -1.592605,-1.220785 -2.093574,-1.655307 -0.799093,0.214115 -1.534923,0.431231 -2.623374,0.712248 -0.193189,-0.409578 -0.259798,-0.446423 -0.277271,-0.823482 1.013288,-0.346174 2.249078,-1.041712 3.051804,-0.97447 0.68474,0.05736 1.994013,0.990434 2.764173,1.234808 0.761127,-0.651342 3.003666,-1.271044 4.193202,-1.6695119 0.340629,-0.114099 0.598451,0.8973559 0.262158,1.0236699 -0.968649,0.363837 -2.594973,0.916266 -2.696516,1.165352 -0.05738,0.140753 -0.05752,0.233973 -0.02959,0.297078 0.0076,0.06862 0.05613,0.151102 0.17655,0.243867 0.213091,0.164159 1.89524,-0.175508 2.915406,-0.34847 0.177091,-0.03003 0.337699,0.204093 0.409436,0.456459 z"
       id="path4-6-1"
       sodipodi:nodetypes="cscssscccccscccscssc" /><path
       id="path1-3-1"
       style="fill:#66ff66;fill-opacity:1;stroke:#000000;stroke-width:0.265"
       d="m 15.436594,11.408339 c -0.88692,0.237651 -1.791776,1.250717 -1.554127,2.137639 0.23765,0.886921 1.527812,1.311834 2.414733,1.074184 0.886919,-0.237649 1.413258,-1.149294 1.175608,-2.036214 -0.237649,-0.88692 -1.149293,-1.413259 -2.036214,-1.175609 z"
       sodipodi:nodetypes="zzzzz" /><path
       id="path1-7-1-1-0"
       style="fill:#ffffff;stroke:#000000;stroke-width:0.265;stroke-dasharray:none"
       d="m 21.44121,12.177185 c -0.200153,0.05363 -0.654177,0.411179 -0.560737,0.759898 0.09344,0.348723 0.685789,0.466159 0.885946,0.412521 0.200153,-0.05363 0.390915,-0.032 0.18962,-0.700719 -0.201298,-0.668727 -0.314669,-0.525335 -0.514824,-0.471704 z"
       sodipodi:nodetypes="ssszs" /><path
       id="path1-7-1-9-7-3"
       style="fill:#ffffff;stroke:#000000;stroke-width:0.265;stroke-dasharray:none"
       d="m 20.778027,9.7862621 c -0.200154,0.05363 -0.654177,0.4111809 -0.560738,0.7599009 0.09344,0.34872 0.685789,0.466158 0.885946,0.41252 0.200151,-0.05363 0.390912,-0.032 0.189619,-0.700714 C 21.091556,9.5892431 20.978185,9.7326331 20.778031,9.7862651 Z"
       sodipodi:nodetypes="ssszs" /><ellipse
       style="fill:#ffffff;fill-opacity:1;stroke:#000000;stroke-width:0.265;stroke-dasharray:none;stroke-opacity:1"
       id="path1-7-2-9-9-1-3-1"
       cx="11.605811"
       cy="17.57918"
       rx="0.65429264"
       ry="0.80279088"
       transform="matrix(-0.25881905,0.96592583,0.96592583,0.25881905,0,0)" /><path
       style="fill:#999999;fill-opacity:1;stroke:none;stroke-width:0.264999;stroke-dasharray:none;stroke-opacity:1"
       d="m 5.5510589,21.980344 c 0.182694,0.188309 0.424676,0.308143 0.544141,0.174013 0.834361,-0.936807 2.472155,-2.586592 2.809092,-3.530007 0.789793,-0.170566 1.1859001,0.813162 2.1772051,0.770397 0.804788,-0.03472 1.054971,-1.032895 1.069631,-1.913719 0.0063,-0.377415 -0.590628,-0.792504 -0.803043,-0.392558 -0.326984,0.615664 -0.458865,1.168683 -0.458865,1.168683 -0.680426,-0.405406 -1.4638261,-0.967818 -2.0194551,-1.349471 -0.379621,-0.55702 -0.260928,-1.98963 -0.386751,-2.640744 0.584975,-0.584975 1.14092,-1.113663 1.9285171,-1.915778 -0.258111,-0.372096 -0.256714,-0.448204 -0.5745211,-0.651865 -0.80644,0.704446 -2.026688,1.426902 -2.369818,2.155704 -0.292696,0.621682 -0.139266,2.222084 -0.312712,3.011249 -0.944641,0.333485 -2.602589,1.965729 -3.54244,2.796663 -0.269127,0.237945 0.477908,0.966952 0.755445,0.738871 0.799416,-0.656956 2.090994,-1.78918 2.357483,-1.752576 0.150584,0.02069 0.231384,0.06718 0.27207,0.122916 0.05564,0.04088 0.102789,0.124164 0.12292,0.274831 0.03562,0.266622 -1.099614,1.553571 -1.759487,2.35058 -0.114551,0.138349 0.0079,0.394501 0.190586,0.58281 z"
       id="path4-6-1-1"
       sodipodi:nodetypes="cscssscccccscccscssc" /><path
       id="path1-3-1-0"
       style="fill:#6666ff;fill-opacity:1;stroke:#000000;stroke-width:0.265"
       d="m 7.3562669,16.073519 c 0.64927,-0.649271 1.97904,-0.926366 2.628313,-0.277095 0.6492701,0.649271 0.3721741,1.979042 -0.277096,2.628311 -0.64927,0.64927 -1.701947,0.64927 -2.351217,0 -0.649271,-0.649269 -0.649271,-1.701945 0,-2.351216 z"
       sodipodi:nodetypes="zzzzz" /><path
       id="path1-7-1-1-0-6"
       style="fill:#ffffff;stroke:#000000;stroke-width:0.265;stroke-dasharray:none"
       d="m 5.0197989,21.65809 c 0.146522,-0.146522 0.683179,-0.360943 0.938459,-0.105664 0.255283,0.255283 0.06081,0.82699 -0.08572,0.973512 -0.146523,0.146523 -0.223169,0.322544 -0.701651,-0.186143 -0.478485,-0.508693 -0.297618,-0.535179 -0.151095,-0.681701 z"
       sodipodi:nodetypes="ssszs" /><path
       id="path1-7-1-9-7-3-3"
       style="fill:#ffffff;stroke:#000000;stroke-width:0.265;stroke-dasharray:none"
       d="m 3.2807909,19.888297 c 0.146523,-0.146523 0.683181,-0.360945 0.938462,-0.105664 0.25528,0.255282 0.06081,0.82699 -0.08572,0.973511 -0.146519,0.146522 -0.223162,0.322544 -0.701645,-0.186141 -0.478485,-0.508692 -0.29762,-0.53518 -0.151096,-0.681703 z"
       sodipodi:nodetypes="ssszs" /><ellipse
       style="fill:#ffffff;fill-opacity:1;stroke:#000000;stroke-width:0.265;stroke-dasharray:none;stroke-opacity:1"
       id="path1-7-2-9-9-1-3-1-2"
       cx="15.847225"
       cy="13.337764"
       rx="0.65429264"
       ry="0.80279088"
       transform="rotate(15)" /><ellipse
       style="fill:#ffffff;fill-opacity:1;stroke:#000000;stroke-width:0.265;stroke-dasharray:none;stroke-opacity:1"
       id="path1-7-2-9-9-1-3-9"
       cx="14.654275"
       cy="-5.9960394"
       rx="0.65429264"
       ry="0.80279088"
       transform="rotate(70.72808)" /><path
       style="fill:#999999;fill-opacity:1;stroke:none;stroke-width:0.264999;stroke-dasharray:none;stroke-opacity:1"
       d="m 14.248166,27.289718 c 0.182694,0.188309 0.424678,0.308143 0.544141,0.174013 0.834362,-0.936808 2.472156,-2.586593 2.809093,-3.53001 0.789793,-0.170565 1.185899,0.813164 2.177205,0.770399 0.804788,-0.03472 1.05497,-1.032897 1.069631,-1.913721 0.0063,-0.377415 -0.590628,-0.792504 -0.803043,-0.392558 -0.326984,0.615664 -0.458865,1.168683 -0.458865,1.168683 -0.680426,-0.405406 -1.463826,-0.967818 -2.019455,-1.349471 -0.379622,-0.55702 -0.260928,-1.989629 -0.386751,-2.640744 0.584975,-0.584975 1.14092,-1.113663 1.928517,-1.915777 -0.258111,-0.372097 -0.256714,-0.448205 -0.574522,-0.651866 -0.80644,0.704445 -2.026687,1.426903 -2.369817,2.155705 -0.292696,0.621681 -0.139266,2.222083 -0.312712,3.011248 -0.944642,0.333485 -2.602589,1.96573 -3.54244,2.796664 -0.269128,0.237945 0.477908,0.966952 0.755445,0.738871 0.799416,-0.656956 2.090994,-1.789179 2.357483,-1.752575 0.150583,0.02069 0.231384,0.06718 0.27207,0.122915 0.05564,0.04088 0.102789,0.124164 0.12292,0.274831 0.03562,0.266622 -1.099615,1.553572 -1.759487,2.350581 -0.114551,0.138349 0.0079,0.394501 0.190587,0.582812 z"
       id="path4-6-1-11"
       sodipodi:nodetypes="cscssscccccscccscssc" /><path
       id="path1-3-1-5"
       style="fill:#4d4d4d;fill-opacity:1;stroke:#000000;stroke-width:0.265"
       d="m 16.053374,21.38289 c 0.649271,-0.64927 1.979041,-0.926366 2.628313,-0.277094 0.649271,0.64927 0.372175,1.979041 -0.277096,2.628312 -0.64927,0.64927 -1.701947,0.64927 -2.351217,0 -0.649271,-0.649271 -0.64927,-1.701947 0,-2.351218 z"
       sodipodi:nodetypes="zzzzz" /><path
       id="path1-7-1-1-0-9"
       style="fill:#ffffff;stroke:#000000;stroke-width:0.265;stroke-dasharray:none"
       d="m 13.716907,26.967463 c 0.146521,-0.146522 0.683179,-0.360944 0.93846,-0.105663 0.255282,0.255283 0.06081,0.826989 -0.08572,0.973512 -0.146523,0.146522 -0.223168,0.322544 -0.70165,-0.186144 -0.478486,-0.508692 -0.297618,-0.535178 -0.151095,-0.681702 z"
       sodipodi:nodetypes="ssszs" /><path
       id="path1-7-1-9-7-3-7"
       style="fill:#ffffff;stroke:#000000;stroke-width:0.265;stroke-dasharray:none"
       d="m 11.977898,25.19767 c 0.146524,-0.146523 0.683182,-0.360945 0.938463,-0.105664 0.25528,0.255282 0.06081,0.826989 -0.08572,0.973511 -0.146519,0.146522 -0.223163,0.322544 -0.701646,-0.186141 -0.478484,-0.508692 -0.29762,-0.53518 -0.151095,-0.681702 z"
       sodipodi:nodetypes="ssszs" /><ellipse
       style="fill:#ffffff;fill-opacity:1;stroke:#000000;stroke-width:0.265;stroke-dasharray:none;stroke-opacity:1"
       id="path1-7-2-9-9-1-3-1-7"
       cx="25.622152"
       cy="16.21525"
       rx="0.65429264"
       ry="0.80279088"
       transform="rotate(15)" /><path
       style="fill:#999999;fill-opacity:1;stroke:none;stroke-width:0.264999;stroke-dasharray:none;stroke-opacity:1"
       d="m 30.151767,18.107768 c 0.07173,0.252372 0.05452,0.521852 -0.121371,0.558247 -1.22848,0.254175 -3.476133,0.847652 -4.461623,0.66774 -0.542608,0.598701 0.111269,1.433601 -0.421419,2.270714 -0.432461,0.679608 -1.421997,0.397184 -2.192144,-0.03053 -0.329999,-0.183254 -0.391015,-0.90775 0.06156,-0.891734 0.696672,0.02465 1.241541,0.186952 1.241541,0.186952 -0.01088,-0.791968 -0.106241,-1.751618 -0.158949,-2.423634 -0.292582,-0.607271 -1.592606,-1.220784 -2.093574,-1.655307 -0.799093,0.214115 -1.534923,0.431231 -2.623374,0.712248 -0.19319,-0.409579 -0.259798,-0.446423 -0.277271,-0.823482 1.013288,-0.346174 2.249078,-1.041712 3.051803,-0.97447 0.684743,0.05736 1.994017,0.990441 2.764175,1.234815 0.761127,-0.651342 3.003666,-1.271044 4.193202,-1.669512 0.34063,-0.114099 0.598451,0.897356 0.262158,1.02367 -0.968649,0.363836 -2.594972,0.916264 -2.696517,1.165351 -0.05737,0.140754 -0.05752,0.233973 -0.02959,0.297078 0.0076,0.06862 0.05614,0.151101 0.176552,0.243868 0.213091,0.164158 1.895238,-0.175509 2.915406,-0.348471 0.177089,-0.03003 0.337698,0.204094 0.409435,0.45646 z"
       id="path4-6-1-1-6"
       sodipodi:nodetypes="cscssscccccscccscssc" /><path
       id="path1-3-1-0-7"
       style="fill:#ff6666;fill-opacity:1;stroke:#000000;stroke-width:0.265"
       d="m 24.133703,16.717711 c -0.886921,0.237649 -1.791777,1.250716 -1.554128,2.137638 0.23765,0.88692 1.527812,1.311834 2.414731,1.074183 0.88692,-0.237649 1.413258,-1.149293 1.175609,-2.036212 -0.237649,-0.886921 -1.149293,-1.413259 -2.036212,-1.175609 z"
       sodipodi:nodetypes="zzzzz" /><path
       id="path1-7-1-1-0-6-3"
       style="fill:#ffffff;stroke:#000000;stroke-width:0.265;stroke-dasharray:none"
       d="m 30.138316,17.486556 c -0.200153,0.05363 -0.654175,0.411179 -0.560737,0.759898 0.09344,0.348723 0.685789,0.466159 0.885946,0.412521 0.200154,-0.05363 0.390916,-0.032 0.18962,-0.700719 -0.201297,-0.668727 -0.314669,-0.525335 -0.514823,-0.471704 z"
       sodipodi:nodetypes="ssszs" /><path
       id="path1-7-1-9-7-3-3-6"
       style="fill:#ffffff;stroke:#000000;stroke-width:0.265;stroke-dasharray:none"
       d="m 29.475134,15.095634 c -0.200155,0.05363 -0.654178,0.41118 -0.560739,0.7599 0.09344,0.34872 0.685789,0.466159 0.885946,0.41252 0.200151,-0.05363 0.390912,-0.032 0.189619,-0.700714 -0.201298,-0.668726 -0.314669,-0.525336 -0.514823,-0.471703 z"
       sodipodi:nodetypes="ssszs" /><ellipse
       style="fill:#ffffff;fill-opacity:1;stroke:#000000;stroke-width:0.265;stroke-dasharray:none;stroke-opacity:1"
       id="path1-7-2-9-9-1-3-1-2-5"
       cx="14.483294"
       cy="27.354111"
       rx="0.65429264"
       ry="0.80279088"
       transform="matrix(-0.25881905,0.96592583,0.96592583,0.25881905,0,0)" /><ellipse
       style="fill:#ffffff;fill-opacity:1;stroke:#000000;stroke-width:0.265;stroke-dasharray:none;stroke-opacity:1"
       id="path1-7-2-9-9-1-3-9-6"
       cx="25.46896"
       cy="3.0239773"
       rx="0.65429264"
       ry="0.80279088"
       transform="matrix(0.65246988,0.75781466,0.75781466,-0.65246988,0,0)" /><path
       id="path1-3-1-5-8-0"
       style="fill:url(#linearGradient4);fill-opacity:1;stroke:none;stroke-width:0.265"
       d="m 15.311123,20.385238 c -1.029453,0.736353 -2.887071,2.929253 -1.761245,0.10293 1.125826,-2.826323 0.372592,-6.331398 0.439137,-7.198375 0.702898,-0.64927 2.691001,-1.215303 3.3939,-0.566033 -0.0042,0.801664 -1.042339,6.925125 -2.071792,7.661478 z"
       sodipodi:nodetypes="zzccz" /><path
       id="path1-3-1-5-8-0-6"
       style="fill:url(#linearGradient6);fill-opacity:1;stroke:none;stroke-width:0.265"
       d="m 17.761496,14.902263 c 1.029453,-0.736353 2.887071,-2.929253 1.761245,-0.10293 -1.125826,2.826323 -0.546756,6.527333 -0.613301,7.39431 -0.702898,0.64927 -2.516837,1.019368 -3.219736,0.370098 0.0042,-0.801664 1.042339,-6.925125 2.071792,-7.661478 z"
       sodipodi:nodetypes="zzccz" /></g></svg>
