<?xml version="1.0" encoding="UTF-8" standalone="no"?>
<!-- Created with Inkscape (http://www.inkscape.org/) -->

<svg
   width="35mm"
   height="35mm"
   viewBox="0 0 35 35"
   version="1.1"
   id="svg1"
   xml:space="preserve"
   inkscape:version="1.4 (e7c3feb100, 2024-10-09)"
   sodipodi:docname="2_v2_end.svg"
   xmlns:inkscape="http://www.inkscape.org/namespaces/inkscape"
   xmlns:sodipodi="http://sodipodi.sourceforge.net/DTD/sodipodi-0.dtd"
   xmlns="http://www.w3.org/2000/svg"
   xmlns:svg="http://www.w3.org/2000/svg"><sodipodi:namedview
     id="namedview1"
     pagecolor="#ffffff"
     bordercolor="#000000"
     borderopacity="0.25"
     inkscape:showpageshadow="2"
     inkscape:pageopacity="0.0"
     inkscape:pagecheckerboard="0"
     inkscape:deskcolor="#d1d1d1"
     inkscape:document-units="mm"
     inkscape:zoom="4.2968333"
     inkscape:cx="74.357085"
     inkscape:cy="52.713239"
     inkscape:window-width="1916"
     inkscape:window-height="998"
     inkscape:window-x="0"
     inkscape:window-y="0"
     inkscape:window-maximized="0"
     inkscape:current-layer="layer1"
     showgrid="false"><sodipodi:guide
       position="25.431035,17.543103"
       orientation="0,132.28346"
       id="guide5"
       inkscape:locked="false" /><sodipodi:guide
       position="35.000001,35.000001"
       orientation="132.28346,0"
       id="guide6"
       inkscape:locked="false" /><sodipodi:guide
       position="35.000001,0"
       orientation="0,-132.28346"
       id="guide7"
       inkscape:locked="false" /><sodipodi:guide
       position="17.503506,35.914363"
       orientation="-132.28346,0"
       id="guide8"
       inkscape:locked="false" /></sodipodi:namedview><defs
     id="defs1"><inkscape:path-effect
       effect="mirror_symmetry"
       start_point="17.297909,16.234992"
       end_point="17.313303,7.810326"
       center_point="17.305606,12.022659"
       id="path-effect5"
       is_visible="true"
       lpeversion="1.2"
       lpesatellites=""
       mode="free"
       discard_orig_path="false"
       fuse_paths="true"
       oposite_fuse="false"
       split_items="false"
       split_open="false"
       link_styles="false" /><inkscape:path-effect
       effect="mirror_symmetry"
       start_point="17.297909,16.234992"
       end_point="17.313303,7.810326"
       center_point="17.305606,12.022659"
       id="path-effect5-7"
       is_visible="true"
       lpeversion="1.2"
       lpesatellites=""
       mode="free"
       discard_orig_path="false"
       fuse_paths="true"
       oposite_fuse="false"
       split_items="false"
       split_open="false"
       link_styles="false" /><inkscape:path-effect
       effect="mirror_symmetry"
       start_point="17.297909,16.234992"
       end_point="17.313303,7.810326"
       center_point="17.305606,12.022659"
       id="path-effect5-6"
       is_visible="true"
       lpeversion="1.2"
       lpesatellites=""
       mode="free"
       discard_orig_path="false"
       fuse_paths="true"
       oposite_fuse="false"
       split_items="false"
       split_open="false"
       link_styles="false" /><inkscape:path-effect
       effect="mirror_symmetry"
       start_point="17.297909,16.234992"
       end_point="17.313303,7.810326"
       center_point="17.305606,12.022659"
       id="path-effect5-3"
       is_visible="true"
       lpeversion="1.2"
       lpesatellites=""
       mode="free"
       discard_orig_path="false"
       fuse_paths="true"
       oposite_fuse="false"
       split_items="false"
       split_open="false"
       link_styles="false" /><inkscape:path-effect
       effect="mirror_symmetry"
       start_point="17.297909,16.234992"
       end_point="17.313303,7.810326"
       center_point="17.305606,12.022659"
       id="path-effect5-66"
       is_visible="true"
       lpeversion="1.2"
       lpesatellites=""
       mode="free"
       discard_orig_path="false"
       fuse_paths="true"
       oposite_fuse="false"
       split_items="false"
       split_open="false"
       link_styles="false" /><inkscape:path-effect
       effect="mirror_symmetry"
       start_point="17.297909,16.234992"
       end_point="17.313303,7.810326"
       center_point="17.305606,12.022659"
       id="path-effect5-4"
       is_visible="true"
       lpeversion="1.2"
       lpesatellites=""
       mode="free"
       discard_orig_path="false"
       fuse_paths="true"
       oposite_fuse="false"
       split_items="false"
       split_open="false"
       link_styles="false" /><inkscape:path-effect
       effect="mirror_symmetry"
       start_point="17.297909,16.234992"
       end_point="17.313303,7.810326"
       center_point="17.305606,12.022659"
       id="path-effect5-4-7"
       is_visible="true"
       lpeversion="1.2"
       lpesatellites=""
       mode="free"
       discard_orig_path="false"
       fuse_paths="true"
       oposite_fuse="false"
       split_items="false"
       split_open="false"
       link_styles="false" /><inkscape:path-effect
       effect="mirror_symmetry"
       start_point="17.297909,16.234992"
       end_point="17.313303,7.810326"
       center_point="17.305606,12.022659"
       id="path-effect5-41"
       is_visible="true"
       lpeversion="1.2"
       lpesatellites=""
       mode="free"
       discard_orig_path="false"
       fuse_paths="true"
       oposite_fuse="false"
       split_items="false"
       split_open="false"
       link_styles="false" /><inkscape:path-effect
       effect="mirror_symmetry"
       start_point="17.297909,16.234992"
       end_point="17.313303,7.810326"
       center_point="17.305606,12.022659"
       id="path-effect5-4-0"
       is_visible="true"
       lpeversion="1.2"
       lpesatellites=""
       mode="free"
       discard_orig_path="false"
       fuse_paths="true"
       oposite_fuse="false"
       split_items="false"
       split_open="false"
       link_styles="false" /><inkscape:path-effect
       effect="mirror_symmetry"
       start_point="17.493844,16.300304"
       end_point="17.509238,7.875638"
       center_point="17.501541,12.087971"
       id="path-effect5-4-0-9"
       is_visible="true"
       lpeversion="1.2"
       lpesatellites=""
       mode="free"
       discard_orig_path="false"
       fuse_paths="true"
       oposite_fuse="false"
       split_items="false"
       split_open="false"
       link_styles="false" /><inkscape:path-effect
       effect="mirror_symmetry"
       start_point="17.297909,16.234992"
       end_point="17.313303,7.810326"
       center_point="17.305606,12.022659"
       id="path-effect5-4-0-0"
       is_visible="true"
       lpeversion="1.2"
       lpesatellites=""
       mode="free"
       discard_orig_path="false"
       fuse_paths="true"
       oposite_fuse="false"
       split_items="false"
       split_open="false"
       link_styles="false" /><inkscape:path-effect
       effect="mirror_symmetry"
       start_point="17.493844,16.300304"
       end_point="17.509238,7.875638"
       center_point="17.501541,12.087971"
       id="path-effect5-4-0-9-7"
       is_visible="true"
       lpeversion="1.2"
       lpesatellites=""
       mode="free"
       discard_orig_path="false"
       fuse_paths="true"
       oposite_fuse="false"
       split_items="false"
       split_open="false"
       link_styles="false" /><inkscape:path-effect
       effect="mirror_symmetry"
       start_point="17.493844,16.300304"
       end_point="17.509238,7.875638"
       center_point="17.501541,12.087971"
       id="path-effect5-4-0-9-3"
       is_visible="true"
       lpeversion="1.2"
       lpesatellites=""
       mode="free"
       discard_orig_path="false"
       fuse_paths="true"
       oposite_fuse="false"
       split_items="false"
       split_open="false"
       link_styles="false" /><inkscape:path-effect
       effect="mirror_symmetry"
       start_point="17.493844,16.300304"
       end_point="17.509238,7.875638"
       center_point="17.501541,12.087971"
       id="path-effect5-4-0-9-5"
       is_visible="true"
       lpeversion="1.2"
       lpesatellites=""
       mode="free"
       discard_orig_path="false"
       fuse_paths="true"
       oposite_fuse="false"
       split_items="false"
       split_open="false"
       link_styles="false" /><inkscape:path-effect
       effect="mirror_symmetry"
       start_point="17.297909,16.234992"
       end_point="17.313303,7.810326"
       center_point="17.305606,12.022659"
       id="path-effect5-4-6-1"
       is_visible="true"
       lpeversion="1.2"
       lpesatellites=""
       mode="free"
       discard_orig_path="false"
       fuse_paths="true"
       oposite_fuse="false"
       split_items="false"
       split_open="false"
       link_styles="false" /><inkscape:path-effect
       effect="mirror_symmetry"
       start_point="17.493844,16.300304"
       end_point="17.509238,7.875638"
       center_point="17.501541,12.087971"
       id="path-effect5-4-0-9-5-9"
       is_visible="true"
       lpeversion="1.2"
       lpesatellites=""
       mode="free"
       discard_orig_path="false"
       fuse_paths="true"
       oposite_fuse="false"
       split_items="false"
       split_open="false"
       link_styles="false" /></defs><g
     inkscape:label="Layer 1"
     inkscape:groupmode="layer"
     id="layer1"><path
       style="fill:#999999;fill-opacity:1;stroke:none;stroke-width:0.264999;stroke-dasharray:none;stroke-opacity:1"
       d="m 12.461557,6.971917 c -0.229179,0.127732 -0.407558,0.330454 -0.308919,0.480562 0.688938,1.048397 2.119863,3.188003 2.943926,3.757632 -0.344448,0.763487 -0.660456,1.791176 -0.722128,2.40806 -0.07807,0.780928 -0.161681,2.26529 0.358779,2.855752 0.249595,0.283168 1.043902,0.341053 0.943321,-0.100495 -0.17512,-0.76877 -0.130239,-1.631751 -0.197025,-2.512407 0.319847,-0.658977 0.728162,-1.845578 1.022914,-2.370577 0.636294,-0.222519 1.619269,0.06698 2.280762,0.113966 0.41364,0.716445 0.67157,0.88956 1.242509,1.857922 0.426222,-0.15301 0.499374,-0.131962 0.778351,-0.38623 -0.471721,-0.961284 -0.744884,-1.826217 -1.360044,-2.346282 -0.524742,-0.443626 -1.740224,-0.513707 -2.457607,-0.88549 -0.07763,-0.998766 -1.22515,-3.022678 -1.784519,-4.145565 -0.160181,-0.321543 -1.057696,0.211358 -0.909218,0.53847 0.427666,0.94221 1.187026,2.48282 1.082698,2.730754 -0.05896,0.140097 -0.124778,0.206113 -0.189145,0.230985 -0.05389,0.04316 -0.146538,0.06715 -0.297281,0.0476 C 14.622174,9.211974 13.672898,7.782335 13.073833,6.938665 12.969846,6.79221 12.69073,6.844195 12.461557,6.971915 Z"
       id="path4-6-1-2"
       sodipodi:nodetypes="cscssscccccscccscssc" /><path
       id="path1-3-1-7"
       style="fill:#4d4d4d;fill-opacity:1;stroke:#000000;stroke-width:0.265"
       d="m 17.902594,10.642309 c 0.23765,0.886921 -0.187262,2.177083 -1.074185,2.414733 -0.886921,0.23765 -1.899987,-0.667207 -2.137636,-1.554127 -0.23765,-0.886918 0.288688,-1.798564 1.175608,-2.036214 0.88692,-0.23765 1.798565,0.288686 2.036213,1.175608 z"
       sodipodi:nodetypes="zzzzz" /><path
       id="path1-7-1-1-0-2"
       style="fill:#ffffff;stroke:#000000;stroke-width:0.265;stroke-dasharray:none"
       d="m 12.91033,6.542166 c 0.103607,0.179451 0.171825,0.753319 -0.140829,0.93383 C 12.456845,7.656509 11.954953,7.320694 11.851348,7.141234 11.74774,6.961782 11.597554,6.84219 12.212748,6.51167 c 0.615201,-0.330521 0.593973,-0.148963 0.69758,0.03049 z"
       sodipodi:nodetypes="ssszs" /><path
       id="path1-7-1-9-7-3-2"
       style="fill:#ffffff;stroke:#000000;stroke-width:0.265;stroke-dasharray:none"
       d="M 15.069908,5.320469 C 15.173515,5.499924 15.241733,6.073791 14.929079,6.254303 14.616424,6.434812 14.114529,6.099 14.010925,5.91954 13.907318,5.740091 13.757131,5.6205 14.372324,5.289979 c 0.6152,-0.33052 0.593973,-0.148963 0.69758,0.03049 z"
       sodipodi:nodetypes="ssszs" /><path
       style="fill:#999999;fill-opacity:1;stroke:none;stroke-width:0.264999;stroke-dasharray:none;stroke-opacity:1"
       d="m 29.745929,20.048244 c -0.06406,0.254428 -0.21371,0.479199 -0.384234,0.422771 -1.190982,-0.394119 -3.434246,-1.003979 -4.197749,-1.652532 -0.769263,0.247183 -0.620438,1.297171 -1.500315,1.755788 -0.714326,0.372326 -1.43008,-0.367029 -1.883188,-1.122515 -0.19416,-0.323702 0.115247,-0.981643 0.499177,-0.741486 0.591008,0.369687 0.98173,0.782676 0.98173,0.782676 0.386563,-0.691304 0.783802,-1.570067 1.074163,-2.178404 0.05025,-0.672203 -0.768844,-1.853533 -0.985435,-2.480326 -0.79909,-0.214116 -1.544897,-0.394 -2.628034,-0.694854 0.03748,-0.4513 -0.0018,-0.516513 0.171618,-0.851792 1.050621,0.206847 2.468614,0.222389 3.130175,0.681985 0.564323,0.392044 1.231648,1.854749 1.776439,2.451462 0.984827,-0.183515 3.236774,0.401077 4.466176,0.650761 0.352043,0.0715 0.0696,1.076359 -0.2848,1.017604 -1.020792,-0.169233 -2.705444,-0.503977 -2.917928,-0.339034 -0.120064,0.09321 -0.166797,0.173868 -0.174162,0.242483 -0.02774,0.06322 -0.02694,0.158924 0.03096,0.299471 0.102463,0.248712 1.729079,0.795625 2.699051,1.155918 0.168379,0.06254 0.190409,0.3456 0.126352,0.600024 z"
       id="path4-6-1-1-1"
       sodipodi:nodetypes="cscssscccccscccscssc" /><path
       id="path1-3-1-0-0"
       style="fill:#ff6666;fill-opacity:1;stroke:#000000;stroke-width:0.265"
       d="m 25.22916,15.835387 c -0.88692,-0.23765 -2.177081,0.187263 -2.414733,1.074185 -0.237649,0.886921 0.667209,1.899987 1.554128,2.137636 0.886919,0.23765 1.798563,-0.288688 2.036213,-1.175607 0.23765,-0.886921 -0.288687,-1.798565 -1.175608,-2.036214 z"
       sodipodi:nodetypes="zzzzz" /><path
       id="path1-7-1-1-0-6-6"
       style="fill:#ffffff;stroke:#000000;stroke-width:0.265;stroke-dasharray:none"
       d="m 30.044886,19.503533 c -0.200152,-0.05363 -0.772122,0.029 -0.865562,0.377724 -0.09344,0.348723 0.360831,0.746599 0.560992,0.800226 0.200153,0.05363 0.354541,0.167748 0.514575,-0.512031 0.160035,-0.679783 -0.0098,-0.612287 -0.209998,-0.665919 z"
       sodipodi:nodetypes="ssszs" /><path
       id="path1-7-1-9-7-3-3-1"
       style="fill:#ffffff;stroke:#000000;stroke-width:0.265;stroke-dasharray:none"
       d="m 30.666015,17.101343 c -0.200155,-0.05363 -0.772125,0.029 -0.865564,0.377723 -0.09344,0.348722 0.360831,0.7466 0.560991,0.800227 0.200151,0.05363 0.354537,0.167748 0.514573,-0.512027 0.160033,-0.679783 -0.0098,-0.612289 -0.209998,-0.665919 z"
       sodipodi:nodetypes="ssszs" /><ellipse
       style="fill:#ffffff;fill-opacity:1;stroke:#000000;stroke-width:0.265;stroke-dasharray:none;stroke-opacity:1"
       id="path1-7-2-9-9-1-3-1-2-5"
       cx="-2.0609169"
       cy="28.752901"
       rx="0.65429264"
       ry="0.80279088"
       transform="matrix(-0.70710678,0.70710678,0.70710678,0.70710678,0,0)" /><ellipse
       style="fill:#ffffff;fill-opacity:1;stroke:#000000;stroke-width:0.265;stroke-dasharray:none;stroke-opacity:1"
       id="path1-7-2-9-9-1-3-9-9"
       cx="-6.78584"
       cy="23.782869"
       rx="0.65429264"
       ry="0.80279088"
       transform="matrix(-0.75781466,0.65246988,0.65246988,0.75781466,0,0)" /><path
       style="fill:#999999;fill-opacity:1;stroke:none;stroke-width:0.264999;stroke-dasharray:none;stroke-opacity:1"
       d="m 21.084569,28.63649 c -0.182672,0.188331 -0.424676,0.308145 -0.544141,0.174014 -0.834361,-0.936808 -2.472156,-2.586594 -2.809092,-3.530009 -0.789792,-0.170564 -1.185901,0.813164 -2.177205,0.770399 -0.804788,-0.03472 -1.05497,-1.032896 -1.069631,-1.913721 -0.0063,-0.377413 0.590629,-0.792504 0.803043,-0.392556 0.326984,0.615662 0.458865,1.168683 0.458865,1.168683 0.680427,-0.405407 1.463827,-0.967817 2.019454,-1.349473 0.37962,-0.55702 0.26093,-1.989628 0.386752,-2.640742 -0.584975,-0.584975 -1.140921,-1.113663 -1.92852,-1.915777 0.258111,-0.372096 0.256699,-0.448215 0.574522,-0.651864 0.806442,0.704444 2.026687,1.4269 2.369818,2.155702 0.292699,0.621682 0.139266,2.222083 0.312714,3.011248 0.944641,0.333485 2.602589,1.96573 3.54244,2.796664 0.269129,0.237942 -0.477904,0.966952 -0.755445,0.73887 -0.799416,-0.656956 -2.090996,-1.78918 -2.357483,-1.752576 -0.150585,0.02069 -0.231384,0.06718 -0.272071,0.122915 -0.05564,0.04088 -0.102778,0.124172 -0.12292,0.274831 -0.03562,0.266623 1.099618,1.553572 1.759492,2.350582 0.11455,0.138349 -0.0079,0.394502 -0.190588,0.582811 z"
       id="path4-6-1-1-1-2"
       sodipodi:nodetypes="cscssscccccscccscssc" /><path
       id="path1-3-1-0-0-9"
       style="fill:#66ff66;fill-opacity:1;stroke:#000000;stroke-width:0.265"
       d="m 19.65864,23.504429 c -0.237649,-0.88692 -1.250714,-1.791775 -2.137638,-1.554128 -0.886921,0.237651 -1.311833,1.527814 -1.074183,2.414734 0.237649,0.886919 1.149292,1.413255 2.036213,1.175608 0.886919,-0.23765 1.413259,-1.149293 1.175608,-2.036214 z"
       sodipodi:nodetypes="zzzzz" /><path
       id="path1-7-1-1-0-6-6-1"
       style="fill:#ffffff;stroke:#000000;stroke-width:0.265;stroke-dasharray:none"
       d="m 21.615829,28.314236 c -0.146522,-0.146522 -0.683176,-0.360947 -0.938461,-0.105663 -0.255282,0.255283 -0.06081,0.82699 0.08572,0.973512 0.146522,0.146521 0.223168,0.322545 0.701651,-0.186143 0.478485,-0.508692 0.297655,-0.535156 0.151096,-0.681702 z"
       sodipodi:nodetypes="ssszs" /><path
       id="path1-7-1-9-7-3-3-1-2"
       style="fill:#ffffff;stroke:#000000;stroke-width:0.265;stroke-dasharray:none"
       d="m 23.354836,26.544442 c -0.146523,-0.146521 -0.683178,-0.360947 -0.938461,-0.105664 -0.255282,0.255282 -0.06081,0.82699 0.08572,0.973513 0.14652,0.146519 0.223165,0.322542 0.701647,-0.186142 0.478484,-0.508693 0.297657,-0.535158 0.151096,-0.681702 z"
       sodipodi:nodetypes="ssszs" /><ellipse
       style="fill:#ffffff;fill-opacity:1;stroke:#000000;stroke-width:0.265;stroke-dasharray:none;stroke-opacity:1"
       id="path1-7-2-9-9-1-3-1-2-5-7"
       cx="-8.1580791"
       cy="26.660912"
       rx="0.65429264"
       ry="0.80279088"
       transform="matrix(-0.96592583,0.25881905,0.25881905,0.96592583,0,0)" /><path
       style="fill:#999999;fill-opacity:1;stroke:none;stroke-width:0.264999;stroke-dasharray:none;stroke-opacity:1"
       d="m 6.892679,14.4446 c -0.188329,0.182673 -0.308145,0.424676 -0.174013,0.544141 0.936809,0.834362 2.586593,2.472155 3.530007,2.809091 0.170566,0.789793 -0.813163,1.185902 -0.770399,2.177207 0.03472,0.804787 1.032898,1.054969 1.913721,1.06963 0.377414,0.0063 0.792506,-0.590628 0.392558,-0.803042 -0.615663,-0.326986 -1.168682,-0.458867 -1.168682,-0.458867 0.405404,-0.680425 0.967816,-1.463826 1.349471,-2.019454 0.55702,-0.379618 1.989628,-0.260927 2.640743,-0.386752 0.584975,0.584975 1.113662,1.140921 1.915777,1.92852 0.372095,-0.25811 0.448214,-0.256698 0.651865,-0.574521 -0.704447,-0.806439 -1.426901,-2.026687 -2.155704,-2.369818 -0.62168,-0.292699 -2.222083,-0.139267 -3.011247,-0.312714 -0.333485,-0.944641 -1.96573,-2.602589 -2.796663,-3.542442 -0.237941,-0.269128 -0.966954,0.477905 -0.738871,0.755448 0.656955,0.799415 1.789178,2.090994 1.752575,2.357481 -0.02069,0.150586 -0.06718,0.231386 -0.122915,0.272071 -0.04088,0.05564 -0.124163,0.102788 -0.274831,0.12292 -0.266623,0.03562 -1.553573,-1.099618 -2.350582,-1.759492 -0.138348,-0.11455 -0.394501,0.0079 -0.582811,0.190587 z"
       id="path4-6-1-1-1-2-0"
       sodipodi:nodetypes="cscssscccccscccscssc" /><path
       id="path1-3-1-0-0-9-6"
       style="fill:#6666ff;fill-opacity:1;stroke:#000000;stroke-width:0.265"
       d="m 12.022331,15.854482 c 0.886921,0.23765 1.791776,1.250715 1.554128,2.137639 -0.237652,0.88692 -1.527814,1.311833 -2.414734,1.074182 -0.886918,-0.237648 -1.413255,-1.149292 -1.175608,-2.036211 0.23765,-0.886921 1.149293,-1.413259 2.036214,-1.17561 z"
       sodipodi:nodetypes="zzzzz" /><path
       id="path1-7-1-1-0-6-6-1-2"
       style="fill:#ffffff;stroke:#000000;stroke-width:0.265;stroke-dasharray:none"
       d="m 7.214934,13.913341 c 0.146521,0.146522 0.360946,0.683177 0.105663,0.938461 -0.255284,0.255283 -0.82699,0.06081 -0.973513,-0.08572 C 6.200562,14.619559 6.02454,14.542913 6.533227,14.06443 7.04192,13.585945 7.068384,13.766774 7.214929,13.913334 Z"
       sodipodi:nodetypes="ssszs" /><path
       id="path1-7-1-9-7-3-3-1-2-6"
       style="fill:#ffffff;stroke:#000000;stroke-width:0.265;stroke-dasharray:none"
       d="m 8.98473,12.174331 c 0.146521,0.146523 0.360946,0.683179 0.105663,0.938461 -0.255282,0.255283 -0.82699,0.06081 -0.973514,-0.08572 -0.14652,-0.14652 -0.322542,-0.223163 0.186143,-0.701647 0.508693,-0.478484 0.535158,-0.297657 0.681703,-0.151096 z"
       sodipodi:nodetypes="ssszs" /><ellipse
       style="fill:#ffffff;fill-opacity:1;stroke:#000000;stroke-width:0.265;stroke-dasharray:none;stroke-opacity:1"
       id="path1-7-2-9-9-1-3-1-2-5-7-1"
       cx="16.964832"
       cy="-16.853251"
       rx="0.65429264"
       ry="0.80279088"
       transform="rotate(105)" /><ellipse
       style="fill:#ffffff;fill-opacity:1;stroke:#000000;stroke-width:0.265;stroke-dasharray:none;stroke-opacity:1"
       id="path1-7-2-9-9-1-3-9-9-0"
       cx="-0.32270533"
       cy="25.140488"
       rx="0.65429264"
       ry="0.80279088"
       transform="matrix(-0.75781466,0.65246988,0.65246988,0.75781466,0,0)" /><ellipse
       style="fill:#ffffff;fill-opacity:1;stroke:#000000;stroke-width:0.265;stroke-dasharray:none;stroke-opacity:1"
       id="path1-7-2-9-9-1-3-9"
       cx="-13.877419"
       cy="-17.637819"
       rx="0.65429264"
       ry="0.80279088"
       transform="rotate(175.72808)" /></g></svg>
