<?xml version="1.0" encoding="UTF-8" standalone="no"?>
<!-- Created with Inkscape (http://www.inkscape.org/) -->

<svg
   width="35mm"
   height="35mm"
   viewBox="0 0 35 35"
   version="1.1"
   id="svg1"
   xml:space="preserve"
   inkscape:version="1.4 (e7c3feb100, 2024-10-09)"
   sodipodi:docname="2_v4.svg"
   xmlns:inkscape="http://www.inkscape.org/namespaces/inkscape"
   xmlns:sodipodi="http://sodipodi.sourceforge.net/DTD/sodipodi-0.dtd"
   xmlns="http://www.w3.org/2000/svg"
   xmlns:svg="http://www.w3.org/2000/svg"><sodipodi:namedview
     id="namedview1"
     pagecolor="#ffffff"
     bordercolor="#000000"
     borderopacity="0.25"
     inkscape:showpageshadow="2"
     inkscape:pageopacity="0.0"
     inkscape:pagecheckerboard="0"
     inkscape:deskcolor="#d1d1d1"
     inkscape:document-units="mm"
     inkscape:zoom="8.5936667"
     inkscape:cx="63.942438"
     inkscape:cy="78.953493"
     inkscape:window-width="1920"
     inkscape:window-height="1080"
     inkscape:window-x="0"
     inkscape:window-y="0"
     inkscape:window-maximized="0"
     inkscape:current-layer="layer1"
     showgrid="false"><sodipodi:guide
       position="25.431035,17.543103"
       orientation="0,132.28346"
       id="guide5"
       inkscape:locked="false" /><sodipodi:guide
       position="35.000001,35.000001"
       orientation="132.28346,0"
       id="guide6"
       inkscape:locked="false" /><sodipodi:guide
       position="35.000001,0"
       orientation="0,-132.28346"
       id="guide7"
       inkscape:locked="false" /><sodipodi:guide
       position="17.503506,35.914363"
       orientation="-132.28346,0"
       id="guide8"
       inkscape:locked="false" /></sodipodi:namedview><defs
     id="defs1"><inkscape:path-effect
       effect="mirror_symmetry"
       start_point="17.297909,16.234992"
       end_point="17.313303,7.810326"
       center_point="17.305606,12.022659"
       id="path-effect5"
       is_visible="true"
       lpeversion="1.2"
       lpesatellites=""
       mode="free"
       discard_orig_path="false"
       fuse_paths="true"
       oposite_fuse="false"
       split_items="false"
       split_open="false"
       link_styles="false" /><inkscape:path-effect
       effect="mirror_symmetry"
       start_point="17.297909,16.234992"
       end_point="17.313303,7.810326"
       center_point="17.305606,12.022659"
       id="path-effect5-7"
       is_visible="true"
       lpeversion="1.2"
       lpesatellites=""
       mode="free"
       discard_orig_path="false"
       fuse_paths="true"
       oposite_fuse="false"
       split_items="false"
       split_open="false"
       link_styles="false" /><inkscape:path-effect
       effect="mirror_symmetry"
       start_point="17.297909,16.234992"
       end_point="17.313303,7.810326"
       center_point="17.305606,12.022659"
       id="path-effect5-6"
       is_visible="true"
       lpeversion="1.2"
       lpesatellites=""
       mode="free"
       discard_orig_path="false"
       fuse_paths="true"
       oposite_fuse="false"
       split_items="false"
       split_open="false"
       link_styles="false" /><inkscape:path-effect
       effect="mirror_symmetry"
       start_point="17.297909,16.234992"
       end_point="17.313303,7.810326"
       center_point="17.305606,12.022659"
       id="path-effect5-3"
       is_visible="true"
       lpeversion="1.2"
       lpesatellites=""
       mode="free"
       discard_orig_path="false"
       fuse_paths="true"
       oposite_fuse="false"
       split_items="false"
       split_open="false"
       link_styles="false" /><inkscape:path-effect
       effect="mirror_symmetry"
       start_point="17.297909,16.234992"
       end_point="17.313303,7.810326"
       center_point="17.305606,12.022659"
       id="path-effect5-66"
       is_visible="true"
       lpeversion="1.2"
       lpesatellites=""
       mode="free"
       discard_orig_path="false"
       fuse_paths="true"
       oposite_fuse="false"
       split_items="false"
       split_open="false"
       link_styles="false" /><inkscape:path-effect
       effect="mirror_symmetry"
       start_point="17.297909,16.234992"
       end_point="17.313303,7.810326"
       center_point="17.305606,12.022659"
       id="path-effect5-4"
       is_visible="true"
       lpeversion="1.2"
       lpesatellites=""
       mode="free"
       discard_orig_path="false"
       fuse_paths="true"
       oposite_fuse="false"
       split_items="false"
       split_open="false"
       link_styles="false" /><inkscape:path-effect
       effect="mirror_symmetry"
       start_point="17.297909,16.234992"
       end_point="17.313303,7.810326"
       center_point="17.305606,12.022659"
       id="path-effect5-4-7"
       is_visible="true"
       lpeversion="1.2"
       lpesatellites=""
       mode="free"
       discard_orig_path="false"
       fuse_paths="true"
       oposite_fuse="false"
       split_items="false"
       split_open="false"
       link_styles="false" /><inkscape:path-effect
       effect="mirror_symmetry"
       start_point="17.297909,16.234992"
       end_point="17.313303,7.810326"
       center_point="17.305606,12.022659"
       id="path-effect5-41"
       is_visible="true"
       lpeversion="1.2"
       lpesatellites=""
       mode="free"
       discard_orig_path="false"
       fuse_paths="true"
       oposite_fuse="false"
       split_items="false"
       split_open="false"
       link_styles="false" /><inkscape:path-effect
       effect="mirror_symmetry"
       start_point="17.297909,16.234992"
       end_point="17.313303,7.810326"
       center_point="17.305606,12.022659"
       id="path-effect5-4-0"
       is_visible="true"
       lpeversion="1.2"
       lpesatellites=""
       mode="free"
       discard_orig_path="false"
       fuse_paths="true"
       oposite_fuse="false"
       split_items="false"
       split_open="false"
       link_styles="false" /><inkscape:path-effect
       effect="mirror_symmetry"
       start_point="17.493844,16.300304"
       end_point="17.509238,7.875638"
       center_point="17.501541,12.087971"
       id="path-effect5-4-0-9"
       is_visible="true"
       lpeversion="1.2"
       lpesatellites=""
       mode="free"
       discard_orig_path="false"
       fuse_paths="true"
       oposite_fuse="false"
       split_items="false"
       split_open="false"
       link_styles="false" /><inkscape:path-effect
       effect="mirror_symmetry"
       start_point="17.297909,16.234992"
       end_point="17.313303,7.810326"
       center_point="17.305606,12.022659"
       id="path-effect5-4-0-0"
       is_visible="true"
       lpeversion="1.2"
       lpesatellites=""
       mode="free"
       discard_orig_path="false"
       fuse_paths="true"
       oposite_fuse="false"
       split_items="false"
       split_open="false"
       link_styles="false" /><inkscape:path-effect
       effect="mirror_symmetry"
       start_point="17.493844,16.300304"
       end_point="17.509238,7.875638"
       center_point="17.501541,12.087971"
       id="path-effect5-4-0-9-7"
       is_visible="true"
       lpeversion="1.2"
       lpesatellites=""
       mode="free"
       discard_orig_path="false"
       fuse_paths="true"
       oposite_fuse="false"
       split_items="false"
       split_open="false"
       link_styles="false" /><inkscape:path-effect
       effect="mirror_symmetry"
       start_point="17.493844,16.300304"
       end_point="17.509238,7.875638"
       center_point="17.501541,12.087971"
       id="path-effect5-4-0-9-3"
       is_visible="true"
       lpeversion="1.2"
       lpesatellites=""
       mode="free"
       discard_orig_path="false"
       fuse_paths="true"
       oposite_fuse="false"
       split_items="false"
       split_open="false"
       link_styles="false" /><inkscape:path-effect
       effect="mirror_symmetry"
       start_point="17.493844,16.300304"
       end_point="17.509238,7.875638"
       center_point="17.501541,12.087971"
       id="path-effect5-4-0-9-5"
       is_visible="true"
       lpeversion="1.2"
       lpesatellites=""
       mode="free"
       discard_orig_path="false"
       fuse_paths="true"
       oposite_fuse="false"
       split_items="false"
       split_open="false"
       link_styles="false" /><inkscape:path-effect
       effect="mirror_symmetry"
       start_point="17.297909,16.234992"
       end_point="17.313303,7.810326"
       center_point="17.305606,12.022659"
       id="path-effect5-4-6-1"
       is_visible="true"
       lpeversion="1.2"
       lpesatellites=""
       mode="free"
       discard_orig_path="false"
       fuse_paths="true"
       oposite_fuse="false"
       split_items="false"
       split_open="false"
       link_styles="false" /><inkscape:path-effect
       effect="mirror_symmetry"
       start_point="17.493844,16.300304"
       end_point="17.509238,7.875638"
       center_point="17.501541,12.087971"
       id="path-effect5-4-0-9-5-9"
       is_visible="true"
       lpeversion="1.2"
       lpesatellites=""
       mode="free"
       discard_orig_path="false"
       fuse_paths="true"
       oposite_fuse="false"
       split_items="false"
       split_open="false"
       link_styles="false" /></defs><g
     inkscape:label="Layer 1"
     inkscape:groupmode="layer"
     id="layer1"><path
       style="fill:#999999;fill-opacity:1;stroke:none;stroke-width:0.264999;stroke-dasharray:none;stroke-opacity:1"
       d="m 22.540732,25.484711 c 0.18831,-0.182695 0.308143,-0.424678 0.174014,-0.544141 -0.936808,-0.834363 -2.872746,-2.530713 -3.816161,-2.867649 0.135106,-0.826622 0.174361,-1.901082 0.07427,-2.512908 -0.12671,-0.774525 -0.430128,-2.229949 -1.085676,-2.665586 -0.31438,-0.208919 -1.096603,-0.05925 -0.885169,0.34122 0.368126,0.69725 0.54813,1.542442 0.840571,2.375805 -0.138393,0.719305 -0.22568,1.971154 -0.374509,2.554551 -0.55702,0.379622 -1.581429,0.3544 -2.232543,0.480222 -0.584976,-0.584975 -0.878922,-0.685434 -1.681038,-1.47303 -0.372096,0.258111 -0.448204,0.256713 -0.651865,0.574522 0.704446,0.806439 1.192162,1.5712 1.920964,1.914329 0.621681,0.292696 1.813884,0.0458 2.603048,0.219242 0.333485,0.944642 1.96573,2.60259 2.796664,3.542441 0.237944,0.269128 0.966952,-0.477908 0.738871,-0.755446 -0.656956,-0.799416 -1.78918,-2.090994 -1.752577,-2.357482 0.02069,-0.150583 0.06718,-0.231385 0.122916,-0.27207 0.04088,-0.05564 0.124165,-0.102789 0.274831,-0.122921 0.266623,-0.03562 1.553571,1.099614 2.350581,1.759487 0.138349,0.114551 0.394501,-0.0079 0.582808,-0.190586 z"
       id="path4-6-1-2"
       sodipodi:nodetypes="cscssscccccscccscssc" /><path
       id="path1-3-1-7"
       style="fill:#66ff66;fill-opacity:1;stroke:#000000;stroke-width:0.265"
       d="m 16.152581,22.963655 c -0.23765,-0.886921 0.187263,-2.177083 1.074185,-2.414733 0.886921,-0.23765 1.899988,0.667207 2.137636,1.554127 0.237649,0.886918 -0.288688,1.798565 -1.175607,2.036214 -0.886921,0.23765 -1.798566,-0.288687 -2.036214,-1.175608 z"
       sodipodi:nodetypes="zzzzz" /><path
       id="path1-7-1-1-0-2"
       style="fill:#ffffff;stroke:#000000;stroke-width:0.265;stroke-dasharray:none"
       d="m 22.218478,26.01597 c -0.146522,-0.146521 -0.360944,-0.683179 -0.105663,-0.93846 0.255283,-0.255283 0.826989,-0.06081 0.973511,0.08572 0.146523,0.146521 0.322544,0.223167 -0.186143,0.701649 -0.508693,0.478485 -0.535179,0.297619 -0.681702,0.151096 z"
       sodipodi:nodetypes="ssszs" /><path
       id="path1-7-1-9-7-3-2"
       style="fill:#ffffff;stroke:#000000;stroke-width:0.265;stroke-dasharray:none"
       d="m 20.448684,27.754978 c -0.146523,-0.146524 -0.360944,-0.683181 -0.105663,-0.938463 0.255282,-0.25528 0.82699,-0.06081 0.973511,0.08572 0.146522,0.146519 0.322544,0.223164 -0.186142,0.701646 -0.508692,0.478484 -0.535179,0.297619 -0.681702,0.151096 z"
       sodipodi:nodetypes="ssszs" /><path
       style="fill:#999999;fill-opacity:1;stroke:none;stroke-width:0.264999;stroke-dasharray:none;stroke-opacity:1"
       d="m 4.1957412,14.951752 c 0.06406,-0.254428 0.21371,-0.479199 0.384234,-0.422771 1.190982,0.394119 3.434246,1.003979 4.197749,1.652532 0.769263,-0.247183 0.620438,-1.297171 1.5003148,-1.755788 0.714326,-0.372326 1.43008,0.367029 1.883188,1.122515 0.19416,0.323702 -0.115247,0.981643 -0.499177,0.741486 -0.591008,-0.369687 -0.98173,-0.782676 -0.98173,-0.782676 -0.386563,0.691304 -0.7838018,1.570067 -1.0741628,2.178404 -0.05025,0.672203 0.7688438,1.853533 0.9854348,2.480326 0.79909,0.214116 1.544897,0.394 2.628034,0.694854 -0.03748,0.4513 0.0018,0.516513 -0.171618,0.851792 -1.050621,-0.206847 -2.468614,-0.222389 -3.1301748,-0.681985 -0.564323,-0.392044 -1.231648,-1.854749 -1.776439,-2.451462 -0.984827,0.183515 -3.236774,-0.401077 -4.466176,-0.650761 -0.352044,-0.0715 -0.0696,-1.076359 0.2848,-1.017604 1.020792,0.169233 2.705444,0.503977 2.917928,0.339034 0.120064,-0.09321 0.166796,-0.173868 0.174162,-0.242483 0.02774,-0.06322 0.02693,-0.158924 -0.03096,-0.299471 -0.102463,-0.248712 -1.729079,-0.795625 -2.699051,-1.155918 -0.168379,-0.06254 -0.190409,-0.3456 -0.126352,-0.600024 z"
       id="path4-6-1-1-1"
       sodipodi:nodetypes="cscssscccccscccscssc" /><path
       id="path1-3-1-0-0"
       style="fill:#6666ff;fill-opacity:1;stroke:#000000;stroke-width:0.265"
       d="m 8.7125102,19.164609 c 0.88692,0.23765 2.1770808,-0.187263 2.4147328,-1.074185 0.237649,-0.886921 -0.667209,-1.899987 -1.5541278,-2.137636 -0.886919,-0.23765 -1.798563,0.288688 -2.036213,1.175607 -0.237651,0.886921 0.288687,1.798565 1.175608,2.036214 z"
       sodipodi:nodetypes="zzzzz" /><path
       id="path1-7-1-1-0-6-6"
       style="fill:#ffffff;stroke:#000000;stroke-width:0.265;stroke-dasharray:none"
       d="m 3.8967842,15.496463 c 0.200152,0.05363 0.772122,-0.029 0.865562,-0.377724 0.09344,-0.348723 -0.360832,-0.746599 -0.560992,-0.800226 -0.200153,-0.05363 -0.354541,-0.167748 -0.514575,0.512031 -0.160035,0.679783 0.0098,0.612287 0.209998,0.665919 z"
       sodipodi:nodetypes="ssszs" /><path
       id="path1-7-1-9-7-3-3-1"
       style="fill:#ffffff;stroke:#000000;stroke-width:0.265;stroke-dasharray:none"
       d="m 3.2756552,17.898653 c 0.200155,0.05363 0.772125,-0.029 0.865564,-0.377723 0.09344,-0.348722 -0.360831,-0.7466 -0.560991,-0.800227 -0.200151,-0.05363 -0.354537,-0.167748 -0.514573,0.512027 -0.160034,0.679783 0.0098,0.612289 0.209998,0.665919 z"
       sodipodi:nodetypes="ssszs" /><ellipse
       style="fill:#ffffff;fill-opacity:1;stroke:#000000;stroke-width:0.265;stroke-dasharray:none;stroke-opacity:1"
       id="path1-7-2-9-9-1-3-1-2-5"
       cx="-2.8092678"
       cy="-19.996218"
       rx="0.65429264"
       ry="0.80279088"
       transform="matrix(0.70710678,-0.70710678,-0.70710678,-0.70710678,0,0)" /><ellipse
       style="fill:#ffffff;fill-opacity:1;stroke:#000000;stroke-width:0.265;stroke-dasharray:none;stroke-opacity:1"
       id="path1-7-2-9-9-1-3-9-9"
       cx="-10.258008"
       cy="-22.609409"
       rx="0.65429264"
       ry="0.80279088"
       transform="matrix(0.56312112,-0.82637437,-0.82637437,-0.56312112,0,0)" /><path
       style="fill:#999999;fill-opacity:1;stroke:none;stroke-width:0.264999;stroke-dasharray:none;stroke-opacity:1"
       d="m 13.251289,9.1701091 c 0.127705,-0.229192 0.330452,-0.407559 0.480563,-0.308918 1.048394,0.688938 3.057378,1.8586169 3.627007,2.6826799 0.807026,-0.03966 0.93503,-1.092389 1.903625,-1.30765 0.786351,-0.174758 1.286356,0.724654 1.528491,1.571671 0.103764,0.362924 -0.365388,0.918366 -0.674078,0.587024 -0.475188,-0.510055 -0.745707,-1.010098 -0.745707,-1.010098 -0.552315,0.567699 -1.163459,1.313705 -1.601374,1.826163 -0.222517,0.636293 0.262915,1.989367 0.309901,2.65086 0.716444,0.41364 1.390281,0.780424 2.358646,1.351361 -0.15301,0.426221 -0.131945,0.49938 -0.38623,0.77835 -0.961287,-0.471719 -2.326939,-0.853735 -2.847006,-1.468895 -0.443628,-0.524742 -0.709638,-2.110323 -1.081426,-2.827706 -0.998766,-0.07763 -3.022677,-1.225149 -4.145565,-1.784518 -0.321542,-0.160179 0.211354,-1.057696 0.538471,-0.909218 0.942209,0.427667 2.48282,1.187025 2.730754,1.082697 0.140097,-0.05896 0.206113,-0.124774 0.230987,-0.189144 0.04316,-0.05389 0.06714,-0.146539 0.0476,-0.29728 -0.0346,-0.266758 -1.464243,-1.216034 -2.307913,-1.8150979 -0.146455,-0.103988 -0.09447,-0.383106 0.03325,-0.612281 z"
       id="path4-6-1-1-1-2"
       sodipodi:nodetypes="cscssscccccscccscssc" /><path
       id="path1-3-1-0-0-9"
       style="fill:#4d4d4d;fill-opacity:1;stroke:#000000;stroke-width:0.265"
       d="m 15.810657,13.310477 c 0.237649,0.886921 1.250715,1.791776 2.137638,1.554128 0.886921,-0.237651 1.311833,-1.527814 1.074183,-2.414733 -0.237649,-0.886919 -1.149292,-1.413257 -2.036212,-1.175608 -0.88692,0.23765 -1.41326,1.149293 -1.175609,2.036213 z"
       sodipodi:nodetypes="zzzzz" /><path
       id="path1-7-1-1-0-6-6-1"
       style="fill:#ffffff;stroke:#000000;stroke-width:0.265;stroke-dasharray:none"
       d="m 12.821537,9.6188841 c 0.179452,0.103606 0.753318,0.171828 0.933831,-0.140829 0.180512,-0.312657 -0.155302,-0.81455 -0.334763,-0.918155 -0.179452,-0.103606 -0.299044,-0.253794 -0.629565,0.361402 -0.330522,0.6152 -0.149005,0.59396 0.03049,0.69758 z"
       sodipodi:nodetypes="ssszs" /><path
       id="path1-7-1-9-7-3-3-1-2"
       style="fill:#ffffff;stroke:#000000;stroke-width:0.265;stroke-dasharray:none"
       d="m 11.599841,11.778461 c 0.179453,0.103606 0.75332,0.171829 0.933832,-0.140828 0.180512,-0.312655 -0.155302,-0.81455 -0.334762,-0.918155 -0.17945,-0.103605 -0.299041,-0.253793 -0.629562,0.361399 -0.330521,0.6152 -0.149006,0.593962 0.03049,0.69758 z"
       sodipodi:nodetypes="ssszs" /><ellipse
       style="fill:#ffffff;fill-opacity:1;stroke:#000000;stroke-width:0.265;stroke-dasharray:none;stroke-opacity:1"
       id="path1-7-2-9-9-1-3-1-2-5-7"
       cx="11.687278"
       cy="-21.024086"
       rx="0.65429264"
       ry="0.80279088"
       transform="matrix(0.8660254,-0.5,-0.5,-0.8660254,0,0)" /><path
       style="fill:#999999;fill-opacity:1;stroke:none;stroke-width:0.264999;stroke-dasharray:none;stroke-opacity:1"
       d="m 30.632734,19.205291 c 0.134633,-0.225191 0.187731,-0.489959 0.02725,-0.570638 -1.120836,-0.563467 -3.138299,-1.718458 -4.136773,-1.79974 -0.369166,-0.718736 0.478522,-1.355955 0.180646,-2.302413 -0.241831,-0.768379 -1.270748,-0.75169 -2.125353,-0.537877 -0.366183,0.0916 -0.612635,0.775618 -0.171338,0.877281 0.679314,0.156498 1.247623,0.140753 1.247623,0.140753 -0.215484,0.762167 -0.555973,1.664437 -0.780816,2.299912 -0.439787,0.510851 -1.8543,0.766991 -2.450663,1.057048 -0.716445,-0.413639 -1.371007,-0.813808 -2.349636,-1.366967 -0.292613,0.34562 -0.366503,0.363957 -0.480956,0.723659 0.889165,0.596637 1.902826,1.588321 2.695604,1.731132 0.676253,0.121823 2.182412,-0.440596 2.989578,-0.47731 0.566612,0.826142 2.572349,2.00514 3.61822,2.697905 0.29949,0.198374 0.810315,-0.711886 0.518171,-0.920938 -0.841474,-0.602143 -2.269403,-1.556672 -2.303019,-1.823553 -0.01899,-0.150809 0.005,-0.240887 0.04831,-0.294613 0.02509,-0.06432 0.09333,-0.131419 0.233649,-0.189867 0.248321,-0.10341 1.785238,0.660055 2.725878,1.091163 0.163283,0.07484 0.379016,-0.109736 0.513625,-0.334937 z"
       id="path4-6-1-1-1-2-0"
       sodipodi:nodetypes="cscssscccccscccscssc" /><path
       id="path1-3-1-0-0-9-6"
       style="fill:#ff6666;fill-opacity:1;stroke:#000000;stroke-width:0.265"
       d="m 24.8677,19.113492 c -0.886921,-0.23765 -1.791776,-1.250715 -1.554128,-2.137638 0.237651,-0.886921 1.527814,-1.311833 2.414733,-1.074183 0.886919,0.237648 1.413256,1.149292 1.175608,2.036211 -0.237649,0.886922 -1.149293,1.41326 -2.036213,1.17561 z"
       sodipodi:nodetypes="zzzzz" /><path
       id="path1-7-1-1-0-6-6-1-2"
       style="fill:#ffffff;stroke:#000000;stroke-width:0.265;stroke-dasharray:none"
       d="m 30.45896,19.801854 c -0.179451,-0.103607 -0.525466,-0.566479 -0.344954,-0.879136 0.180513,-0.312657 0.783072,-0.272779 0.962527,-0.169164 0.179452,0.103607 0.369314,0.132083 0.0018,0.72592 -0.367518,0.593841 -0.439882,0.426023 -0.619366,0.322385 z"
       sodipodi:nodetypes="ssszs" /><path
       id="path1-7-1-9-7-3-3-1-2-6"
       style="fill:#ffffff;stroke:#000000;stroke-width:0.265;stroke-dasharray:none"
       d="m 29.199558,21.939664 c -0.179452,-0.103608 -0.525468,-0.56648 -0.344955,-0.879135 0.180512,-0.312656 0.783072,-0.27278 0.962527,-0.169166 0.17945,0.103606 0.369311,0.13208 0.0018,0.725916 -0.367518,0.59384 -0.439883,0.426024 -0.619368,0.322384 z"
       sodipodi:nodetypes="ssszs" /><ellipse
       style="fill:#ffffff;fill-opacity:1;stroke:#000000;stroke-width:0.265;stroke-dasharray:none;stroke-opacity:1"
       id="path1-7-2-9-9-1-3-1-2-5-7-1"
       cx="-14.408911"
       cy="24.175838"
       rx="0.65429264"
       ry="0.80279088"
       transform="rotate(-90)" /><ellipse
       style="fill:#ffffff;fill-opacity:1;stroke:#000000;stroke-width:0.265;stroke-dasharray:none;stroke-opacity:1"
       id="path1-7-2-9-9-1-3-9-9-0"
       cx="-3.1448183"
       cy="-26.432121"
       rx="0.65429264"
       ry="0.80279088"
       transform="matrix(0.56312112,-0.82637437,-0.82637437,-0.56312112,0,0)" /><ellipse
       style="fill:#ffffff;fill-opacity:1;stroke:#000000;stroke-width:0.265;stroke-dasharray:none;stroke-opacity:1"
       id="path1-7-2-9-9-1-3-9"
       cx="10.896515"
       cy="21.739218"
       rx="0.65429264"
       ry="0.80279088"
       transform="rotate(-19.271922)" /></g></svg>
