<?xml version="1.0" encoding="UTF-8" standalone="no"?>
<!-- Created with Inkscape (http://www.inkscape.org/) -->

<svg
   width="35mm"
   height="35mm"
   viewBox="0 0 35 35"
   version="1.1"
   id="svg1"
   xml:space="preserve"
   inkscape:version="1.4 (e7c3feb100, 2024-10-09)"
   sodipodi:docname="3_v1.svg"
   xmlns:inkscape="http://www.inkscape.org/namespaces/inkscape"
   xmlns:sodipodi="http://sodipodi.sourceforge.net/DTD/sodipodi-0.dtd"
   xmlns="http://www.w3.org/2000/svg"
   xmlns:svg="http://www.w3.org/2000/svg"><sodipodi:namedview
     id="namedview1"
     pagecolor="#ffffff"
     bordercolor="#000000"
     borderopacity="0.25"
     inkscape:showpageshadow="2"
     inkscape:pageopacity="0.0"
     inkscape:pagecheckerboard="0"
     inkscape:deskcolor="#d1d1d1"
     inkscape:document-units="mm"
     inkscape:zoom="6.0766399"
     inkscape:cx="54.059481"
     inkscape:cy="55.951974"
     inkscape:window-width="1916"
     inkscape:window-height="761"
     inkscape:window-x="0"
     inkscape:window-y="0"
     inkscape:window-maximized="0"
     inkscape:current-layer="layer1" /><defs
     id="defs1"><inkscape:path-effect
       effect="mirror_symmetry"
       start_point="17.297909,16.234992"
       end_point="17.313303,7.810326"
       center_point="17.305606,12.022659"
       id="path-effect5"
       is_visible="true"
       lpeversion="1.2"
       lpesatellites=""
       mode="free"
       discard_orig_path="false"
       fuse_paths="true"
       oposite_fuse="false"
       split_items="false"
       split_open="false"
       link_styles="false" /><inkscape:path-effect
       effect="mirror_symmetry"
       start_point="17.297909,16.234992"
       end_point="17.313303,7.810326"
       center_point="17.305606,12.022659"
       id="path-effect5-7"
       is_visible="true"
       lpeversion="1.2"
       lpesatellites=""
       mode="free"
       discard_orig_path="false"
       fuse_paths="true"
       oposite_fuse="false"
       split_items="false"
       split_open="false"
       link_styles="false" /><inkscape:path-effect
       effect="mirror_symmetry"
       start_point="17.297909,16.234992"
       end_point="17.313303,7.810326"
       center_point="17.305606,12.022659"
       id="path-effect5-6"
       is_visible="true"
       lpeversion="1.2"
       lpesatellites=""
       mode="free"
       discard_orig_path="false"
       fuse_paths="true"
       oposite_fuse="false"
       split_items="false"
       split_open="false"
       link_styles="false" /><inkscape:path-effect
       effect="mirror_symmetry"
       start_point="17.297909,16.234992"
       end_point="17.313303,7.810326"
       center_point="17.305606,12.022659"
       id="path-effect5-3"
       is_visible="true"
       lpeversion="1.2"
       lpesatellites=""
       mode="free"
       discard_orig_path="false"
       fuse_paths="true"
       oposite_fuse="false"
       split_items="false"
       split_open="false"
       link_styles="false" /><inkscape:path-effect
       effect="mirror_symmetry"
       start_point="17.297909,16.234992"
       end_point="17.313303,7.810326"
       center_point="17.305606,12.022659"
       id="path-effect5-66"
       is_visible="true"
       lpeversion="1.2"
       lpesatellites=""
       mode="free"
       discard_orig_path="false"
       fuse_paths="true"
       oposite_fuse="false"
       split_items="false"
       split_open="false"
       link_styles="false" /><inkscape:path-effect
       effect="mirror_symmetry"
       start_point="17.297909,16.234992"
       end_point="17.313303,7.810326"
       center_point="17.305606,12.022659"
       id="path-effect5-4"
       is_visible="true"
       lpeversion="1.2"
       lpesatellites=""
       mode="free"
       discard_orig_path="false"
       fuse_paths="true"
       oposite_fuse="false"
       split_items="false"
       split_open="false"
       link_styles="false" /><inkscape:path-effect
       effect="mirror_symmetry"
       start_point="17.297909,16.234992"
       end_point="17.313303,7.810326"
       center_point="17.305606,12.022659"
       id="path-effect5-4-7"
       is_visible="true"
       lpeversion="1.2"
       lpesatellites=""
       mode="free"
       discard_orig_path="false"
       fuse_paths="true"
       oposite_fuse="false"
       split_items="false"
       split_open="false"
       link_styles="false" /><inkscape:path-effect
       effect="mirror_symmetry"
       start_point="17.297909,16.234992"
       end_point="17.313303,7.810326"
       center_point="17.305606,12.022659"
       id="path-effect5-41"
       is_visible="true"
       lpeversion="1.2"
       lpesatellites=""
       mode="free"
       discard_orig_path="false"
       fuse_paths="true"
       oposite_fuse="false"
       split_items="false"
       split_open="false"
       link_styles="false" /></defs><g
     inkscape:label="Layer 1"
     inkscape:groupmode="layer"
     id="layer1"><path
       style="fill:#999999;fill-opacity:1;stroke:none;stroke-width:0.264999;stroke-dasharray:none;stroke-opacity:1"
       d="m 7.1786679,18.70086 c -0.00397,0.262339 0.082402,0.518182 0.2617188,0.507812 1.2524069,-0.07244 3.5770763,-0.08092 4.4824213,-0.509765 0.679074,0.437864 0.371378,1.648212 1.215594,2.169566 0.732168,0.452157 2.277069,0.482573 3.453443,0.245026 0.275974,-0.05573 0.229365,-0.981076 -0.05099,-1.006996 -1.18211,-0.10928 -2.765058,-0.2516 -2.765058,-0.2516 -0.529723,-0.891495 -0.294767,-1.923285 -0.519001,-2.394281 0.225954,-0.470175 1.22341,-1.098622 1.7256,-1.649506 0,0 1.122686,0.969549 1.843365,1.757447 0.280451,-0.0249 0.89087,-0.646549 0.699498,-0.853054 -0.652099,-0.703664 -1.42457,-2.155826 -2.435479,-2.198959 -0.991324,-0.0423 -2.48044,1.266505 -3.161109,1.701884 -0.903772,-0.432152 -3.2302881,-0.450328 -4.482422,-0.527344 -0.3585544,-0.02205 -0.3458071,1.02167 0.011719,1.056641 1.0298108,0.100734 2.743698,0.213416 2.90625,0.427734 0.09185,0.121107 0.116149,0.211094 0.105468,0.279297 0.01043,0.06824 -0.01512,0.16048 -0.107421,0.28125 -0.163337,0.213727 -1.8760814,0.321003 -2.9062533,0.417973 -0.1788256,0.01683 -0.2733728,0.284536 -0.2773438,0.546875 z"
       id="path4-6"
       sodipodi:nodetypes="ssscssscccsscscscsss" /><path
       id="path1-3"
       style="fill:#6666ff;fill-opacity:1;stroke:#000000;stroke-width:0.265"
       d="m 12.631899,15.800577 c 0.918208,0 2.054432,0.744354 2.054432,1.662562 0,0.918208 -1.136225,1.662561 -2.054432,1.662561 -0.918207,0 -1.662561,-0.744355 -1.662561,-1.662561 0,-0.918207 0.744353,-1.662562 1.662561,-1.662562 z"
       sodipodi:nodetypes="zzzzz" /><path
       id="path1-7-1-1"
       style="fill:#ffffff;stroke:#000000;stroke-width:0.265;stroke-dasharray:none"
       d="m 7.0308779,18.097333 c 0.207214,0 0.738307,0.227855 0.738307,0.588877 0,0.361023 -0.541773,0.627766 -0.748987,0.627766 -0.207214,0 -0.385876,0.07027 -0.364516,-0.627766 0.02136,-0.69804 0.167981,-0.588877 0.375196,-0.588877 z"
       sodipodi:nodetypes="ssszs" /><path
       id="path1-7-1-9-7"
       style="fill:#ffffff;stroke:#000000;stroke-width:0.265;stroke-dasharray:none"
       d="m 7.0526479,15.616236 c 0.207214,0 0.738307,0.227855 0.738307,0.588877 0,0.361023 -0.541773,0.627766 -0.748987,0.627766 -0.207213,0 -0.385875,0.07027 -0.364515,-0.627766 0.02136,-0.69804 0.167981,-0.588877 0.375195,-0.588877 z"
       sodipodi:nodetypes="ssszs" /><path
       style="fill:#999999;fill-opacity:1;stroke:none;stroke-width:0.264999;stroke-dasharray:none;stroke-opacity:1"
       d="m 27.821331,16.299139 c 0.004,-0.262339 -0.0824,-0.518182 -0.261719,-0.507812 -1.252406,0.07244 -3.577076,0.08092 -4.482421,0.509765 -0.679074,-0.437864 -0.371378,-1.648212 -1.215594,-2.169566 -0.732168,-0.452157 -2.277069,-0.482573 -3.453443,-0.245026 -0.275974,0.05573 -0.229365,0.981076 0.05099,1.006996 1.18211,0.10928 2.765058,0.2516 2.765058,0.2516 0.529723,0.891495 0.294767,1.923285 0.519001,2.394281 -0.225954,0.470175 -1.22341,1.098622 -1.7256,1.649506 0,0 -1.122686,-0.969549 -1.843365,-1.757447 -0.280451,0.0249 -0.89087,0.646549 -0.699498,0.853054 0.652099,0.703664 1.42457,2.155826 2.435479,2.198959 0.991324,0.0423 2.48044,-1.266505 3.161109,-1.701884 0.903772,0.432152 3.230288,0.450328 4.482422,0.527344 0.358555,0.02205 0.345807,-1.02167 -0.01172,-1.056641 -1.029811,-0.100734 -2.743698,-0.213416 -2.90625,-0.427734 -0.09185,-0.121107 -0.116149,-0.211094 -0.105468,-0.279297 -0.01043,-0.06824 0.01512,-0.16048 0.107421,-0.28125 0.163337,-0.213727 1.876082,-0.321003 2.906253,-0.417973 0.178826,-0.01683 0.273373,-0.284536 0.277345,-0.546875 z"
       id="path4-6-3"
       sodipodi:nodetypes="ssscssscccsscscscsss" /><path
       id="path1-3-3"
       style="fill:#ff6666;fill-opacity:1;stroke:#000000;stroke-width:0.265"
       d="m 22.368101,19.199422 c -0.918208,0 -2.054432,-0.744354 -2.054432,-1.662562 0,-0.918208 1.136225,-1.662561 2.054432,-1.662561 0.918207,0 1.662561,0.744355 1.662561,1.662561 0,0.918207 -0.744353,1.662562 -1.662561,1.662562 z"
       sodipodi:nodetypes="zzzzz" /><path
       id="path1-7-1-1-0"
       style="fill:#ffffff;stroke:#000000;stroke-width:0.265;stroke-dasharray:none"
       d="m 27.969122,16.902666 c -0.207214,0 -0.738307,-0.227855 -0.738307,-0.588877 0,-0.361023 0.541773,-0.627766 0.748987,-0.627766 0.207214,0 0.385876,-0.07027 0.364516,0.627766 -0.02136,0.69804 -0.167981,0.588877 -0.375196,0.588877 z"
       sodipodi:nodetypes="ssszs" /><path
       id="path1-7-1-9-7-9"
       style="fill:#ffffff;stroke:#000000;stroke-width:0.265;stroke-dasharray:none"
       d="m 27.947352,19.383763 c -0.207214,0 -0.738307,-0.227855 -0.738307,-0.588877 0,-0.361023 0.541773,-0.627766 0.748987,-0.627766 0.207213,0 0.385875,-0.07027 0.364515,0.627766 -0.02136,0.69804 -0.167981,0.588877 -0.375195,0.588877 z"
       sodipodi:nodetypes="ssszs" /><path
       style="fill:#999999;fill-opacity:1;stroke:none;stroke-width:0.264999;stroke-dasharray:none;stroke-opacity:1"
       d="m 18.641705,4.8189083 c 0.262339,-0.004 0.518183,0.0824 0.507812,0.261718 -0.07244,1.252407 -0.08092,3.577077 -0.509765,4.48242 0.437864,0.6790737 1.45073,-0.168883 1.972084,0.6753317 0.452157,0.732168 -0.349349,2.081775 -0.848142,2.343787 -0.249249,0.130928 -1.037875,-0.472671 -0.822266,-0.653739 0.500289,-0.420141 0.467469,-0.462663 0.706945,-0.985156 -0.459065,-0.230808 -1.657732,0.46062 -2.246902,-0.08139 -0.588368,0.0052 -1.103297,0.859516 -1.722051,1.41206 0.424849,0.512835 1.690651,1.291692 2.269591,1.529043 -0.0249,0.280451 0.125747,1.058665 -0.147059,0.989085 -0.938498,-0.239365 -3.241413,-1.488045 -3.300824,-2.420749 -0.05154,-0.809115 1.222776,-2.121731 1.658155,-2.8024027 -0.432152,-0.90377 -0.450328,-3.230286 -0.527344,-4.48242 -0.02205,-0.358555 1.02167,-0.345807 1.056641,0.01172 0.100734,1.029811 0.213416,2.743698 0.427734,2.90625 0.121107,0.09185 0.211094,0.116149 0.279297,0.105468 0.06824,0.01043 0.16048,-0.01512 0.28125,-0.107421 0.213723,-0.163344 0.320999,-1.876089 0.417969,-2.906261 0.01683,-0.178825 0.284536,-0.273372 0.546875,-0.277344 z"
       id="path4-4-5-2"
       sodipodi:nodetypes="ssscssccccsscscscsss" /><ellipse
       style="fill:#ffffff;fill-opacity:1;stroke:#000000;stroke-width:0.265;stroke-dasharray:none;stroke-opacity:1"
       id="path1-7-2-9-9-5"
       cx="-9.1792078"
       cy="21.053913"
       rx="0.65429264"
       ry="0.80279088"
       transform="rotate(-75)" /><path
       id="path1-9-9-4"
       style="fill:#4d4d4d;fill-opacity:1;stroke:#000000;stroke-width:0.265"
       d="m 19.067981,10.272138 c 0,0.918208 -0.744354,2.054432 -1.662562,2.054432 -0.918208,0 -1.662561,-1.136225 -1.662561,-2.054432 0,-0.9182047 0.744354,-1.6625587 1.662561,-1.6625587 0.918207,0 1.662562,0.744353 1.662562,1.6625587 z"
       sodipodi:nodetypes="zzzzz" /><path
       id="path1-7-1-2-6-0"
       style="fill:#ffffff;stroke:#000000;stroke-width:0.265;stroke-dasharray:none"
       d="m 16.748802,4.6493483 c 0,0.207214 -0.227855,0.738307 -0.588877,0.738307 -0.361023,0 -0.627766,-0.541773 -0.627766,-0.748987 0,-0.207215 -0.07027,-0.385877 0.627766,-0.364517 0.69804,0.02136 0.588877,0.167981 0.588877,0.375197 z"
       sodipodi:nodetypes="ssszs" /><path
       id="path1-7-1-9-0-2-5"
       style="fill:#ffffff;stroke:#000000;stroke-width:0.265;stroke-dasharray:none"
       d="m 19.229899,4.6711183 c 0,0.207214 -0.227855,0.738307 -0.588877,0.738307 -0.361023,0 -0.627766,-0.541773 -0.627766,-0.748987 0,-0.207214 -0.07027,-0.385876 0.627766,-0.364516 0.69804,0.02136 0.588877,0.167981 0.588877,0.375196 z"
       sodipodi:nodetypes="ssszs" /><ellipse
       style="fill:#ffffff;fill-opacity:1;stroke:#000000;stroke-width:0.265;stroke-dasharray:none;stroke-opacity:1"
       id="path1-7-2-9-9-1-6-1-9"
       cx="-22.584217"
       cy="-3.6616156"
       rx="0.65429264"
       ry="0.80279088"
       transform="matrix(-0.73860137,-0.67414243,-0.67414243,0.73860137,0,0)" /><path
       style="fill:#999999;fill-opacity:1;stroke:none;stroke-width:0.264999;stroke-dasharray:none;stroke-opacity:1"
       d="m 16.358295,30.181092 c -0.262339,0.004 -0.518183,-0.0824 -0.507812,-0.261718 0.07244,-1.252407 0.08092,-3.577077 0.509765,-4.48242 -0.437864,-0.679074 -1.45073,0.168883 -1.972084,-0.675332 -0.452157,-0.732168 0.349349,-2.081775 0.848142,-2.343787 0.249249,-0.130928 1.037875,0.472671 0.822266,0.653739 -0.500289,0.420141 -0.467469,0.462663 -0.706945,0.985156 0.459065,0.230808 1.780884,-0.645349 2.246902,0.08139 0.588368,-0.0052 1.103297,-0.859516 1.722051,-1.41206 -0.424849,-0.512835 -1.690651,-1.291692 -2.269591,-1.529043 0.0249,-0.280451 -0.125747,-1.058665 0.147059,-0.989085 0.938498,0.239365 3.241413,1.488045 3.300824,2.420749 0.05154,0.809115 -1.222776,2.121731 -1.658155,2.802403 0.432152,0.90377 0.450328,3.230286 0.527344,4.48242 0.02205,0.358555 -1.02167,0.345807 -1.056641,-0.01172 -0.100734,-1.029811 -0.213416,-2.743698 -0.427734,-2.90625 -0.121107,-0.09185 -0.211094,-0.116149 -0.279297,-0.105468 -0.06824,-0.01043 -0.16048,0.01512 -0.28125,0.107421 -0.213723,0.163344 -0.320999,1.876089 -0.417969,2.906261 -0.01683,0.178825 -0.284536,0.273372 -0.546875,0.277344 z"
       id="path4-4-5-2-0"
       sodipodi:nodetypes="ssscssccccsscscscsss" /><path
       id="path1-9-9-4-2"
       style="fill:#66ff66;fill-opacity:1;stroke:#000000;stroke-width:0.265"
       d="m 15.932019,24.727862 c 0,-0.918208 0.744354,-2.054432 1.662562,-2.054432 0.918208,0 1.662561,1.136225 1.662561,2.054432 0,0.918205 -0.744354,1.662559 -1.662561,1.662559 -0.918207,0 -1.662562,-0.744353 -1.662562,-1.662559 z"
       sodipodi:nodetypes="zzzzz" /><path
       id="path1-7-1-2-6-0-1"
       style="fill:#ffffff;stroke:#000000;stroke-width:0.265;stroke-dasharray:none"
       d="m 18.251198,30.350652 c 0,-0.207214 0.227855,-0.738307 0.588877,-0.738307 0.361023,0 0.627766,0.541773 0.627766,0.748987 0,0.207215 0.07027,0.385877 -0.627766,0.364517 -0.69804,-0.02136 -0.588877,-0.167981 -0.588877,-0.375197 z"
       sodipodi:nodetypes="ssszs" /><path
       id="path1-7-1-9-0-2-5-0"
       style="fill:#ffffff;stroke:#000000;stroke-width:0.265;stroke-dasharray:none"
       d="m 15.770101,30.328882 c 0,-0.207214 0.227855,-0.738307 0.588877,-0.738307 0.361023,0 0.627766,0.541773 0.627766,0.748987 0,0.207214 0.07027,0.385876 -0.627766,0.364516 -0.69804,-0.02136 -0.588877,-0.167981 -0.588877,-0.375196 z"
       sodipodi:nodetypes="ssszs" /><ellipse
       style="fill:#ffffff;fill-opacity:1;stroke:#000000;stroke-width:0.265;stroke-dasharray:none;stroke-opacity:1"
       id="path1-7-2-9-9-1-6-1-9-5"
       cx="26.861816"
       cy="-5.9176779"
       rx="0.65429264"
       ry="0.80279088"
       transform="matrix(0.73860137,0.67414243,0.67414243,-0.73860137,0,0)" /><ellipse
       style="fill:#ffffff;fill-opacity:1;stroke:#000000;stroke-width:0.265;stroke-dasharray:none;stroke-opacity:1"
       id="path1-7-2-9-9-1"
       cx="-6.4049459"
       cy="-23.905758"
       rx="0.65429264"
       ry="0.80279088"
       transform="rotate(150)" /><ellipse
       style="fill:#ffffff;fill-opacity:1;stroke:#000000;stroke-width:0.265;stroke-dasharray:none;stroke-opacity:1"
       id="path1-7-2-9-9"
       cx="15.56953"
       cy="-21.812159"
       rx="0.65429264"
       ry="0.80279088"
       transform="rotate(105)" /></g></svg>
