<?xml version="1.0" encoding="UTF-8" standalone="no"?>
<!-- Created with Inkscape (http://www.inkscape.org/) -->

<svg
   width="35mm"
   height="35mm"
   viewBox="0 0 35 35"
   version="1.1"
   id="svg1"
   xml:space="preserve"
   inkscape:version="1.4.2 (ebf0e940d0, 2025-05-08)"
   sodipodi:docname="3_v1_inter.svg"
   xmlns:inkscape="http://www.inkscape.org/namespaces/inkscape"
   xmlns:sodipodi="http://sodipodi.sourceforge.net/DTD/sodipodi-0.dtd"
   xmlns:xlink="http://www.w3.org/1999/xlink"
   xmlns="http://www.w3.org/2000/svg"
   xmlns:svg="http://www.w3.org/2000/svg"><sodipodi:namedview
     id="namedview1"
     pagecolor="#ffffff"
     bordercolor="#000000"
     borderopacity="0.25"
     inkscape:showpageshadow="2"
     inkscape:pageopacity="0.0"
     inkscape:pagecheckerboard="0"
     inkscape:deskcolor="#d1d1d1"
     inkscape:document-units="mm"
     inkscape:zoom="3.03832"
     inkscape:cx="137.90516"
     inkscape:cy="77.016246"
     inkscape:window-width="1916"
     inkscape:window-height="1021"
     inkscape:window-x="0"
     inkscape:window-y="0"
     inkscape:window-maximized="0"
     inkscape:current-layer="layer1" /><defs
     id="defs1"><linearGradient
       id="linearGradient10"
       inkscape:collect="always"><stop
         style="stop-color:#66ff66;stop-opacity:0.74901962;"
         offset="0"
         id="stop9" /><stop
         style="stop-color:#66ff66;stop-opacity:0;"
         offset="1"
         id="stop10" /></linearGradient><linearGradient
       id="linearGradient5"
       inkscape:collect="always"><stop
         style="stop-color:#6666ff;stop-opacity:0.74901962;"
         offset="0"
         id="stop4" /><stop
         style="stop-color:#6666ff;stop-opacity:0;"
         offset="1"
         id="stop5" /></linearGradient><inkscape:path-effect
       effect="mirror_symmetry"
       start_point="17.297909,16.234992"
       end_point="17.313303,7.810326"
       center_point="17.305606,12.022659"
       id="path-effect5"
       is_visible="true"
       lpeversion="1.2"
       lpesatellites=""
       mode="free"
       discard_orig_path="false"
       fuse_paths="true"
       oposite_fuse="false"
       split_items="false"
       split_open="false"
       link_styles="false" /><inkscape:path-effect
       effect="mirror_symmetry"
       start_point="17.297909,16.234992"
       end_point="17.313303,7.810326"
       center_point="17.305606,12.022659"
       id="path-effect5-7"
       is_visible="true"
       lpeversion="1.2"
       lpesatellites=""
       mode="free"
       discard_orig_path="false"
       fuse_paths="true"
       oposite_fuse="false"
       split_items="false"
       split_open="false"
       link_styles="false" /><inkscape:path-effect
       effect="mirror_symmetry"
       start_point="17.297909,16.234992"
       end_point="17.313303,7.810326"
       center_point="17.305606,12.022659"
       id="path-effect5-6"
       is_visible="true"
       lpeversion="1.2"
       lpesatellites=""
       mode="free"
       discard_orig_path="false"
       fuse_paths="true"
       oposite_fuse="false"
       split_items="false"
       split_open="false"
       link_styles="false" /><inkscape:path-effect
       effect="mirror_symmetry"
       start_point="17.297909,16.234992"
       end_point="17.313303,7.810326"
       center_point="17.305606,12.022659"
       id="path-effect5-3"
       is_visible="true"
       lpeversion="1.2"
       lpesatellites=""
       mode="free"
       discard_orig_path="false"
       fuse_paths="true"
       oposite_fuse="false"
       split_items="false"
       split_open="false"
       link_styles="false" /><inkscape:path-effect
       effect="mirror_symmetry"
       start_point="17.297909,16.234992"
       end_point="17.313303,7.810326"
       center_point="17.305606,12.022659"
       id="path-effect5-66"
       is_visible="true"
       lpeversion="1.2"
       lpesatellites=""
       mode="free"
       discard_orig_path="false"
       fuse_paths="true"
       oposite_fuse="false"
       split_items="false"
       split_open="false"
       link_styles="false" /><inkscape:path-effect
       effect="mirror_symmetry"
       start_point="17.297909,16.234992"
       end_point="17.313303,7.810326"
       center_point="17.305606,12.022659"
       id="path-effect5-4"
       is_visible="true"
       lpeversion="1.2"
       lpesatellites=""
       mode="free"
       discard_orig_path="false"
       fuse_paths="true"
       oposite_fuse="false"
       split_items="false"
       split_open="false"
       link_styles="false" /><inkscape:path-effect
       effect="mirror_symmetry"
       start_point="17.297909,16.234992"
       end_point="17.313303,7.810326"
       center_point="17.305606,12.022659"
       id="path-effect5-4-7"
       is_visible="true"
       lpeversion="1.2"
       lpesatellites=""
       mode="free"
       discard_orig_path="false"
       fuse_paths="true"
       oposite_fuse="false"
       split_items="false"
       split_open="false"
       link_styles="false" /><inkscape:path-effect
       effect="mirror_symmetry"
       start_point="17.297909,16.234992"
       end_point="17.313303,7.810326"
       center_point="17.305606,12.022659"
       id="path-effect5-41"
       is_visible="true"
       lpeversion="1.2"
       lpesatellites=""
       mode="free"
       discard_orig_path="false"
       fuse_paths="true"
       oposite_fuse="false"
       split_items="false"
       split_open="false"
       link_styles="false" /><linearGradient
       inkscape:collect="always"
       xlink:href="#linearGradient6"
       id="linearGradient3"
       gradientUnits="userSpaceOnUse"
       gradientTransform="matrix(-0.8660254,-0.5,0.5412996,-0.93755841,17.87752,30.182152)"
       x1="10.647268"
       y1="16.557198"
       x2="14.696174"
       y2="14.776537" /><linearGradient
       id="linearGradient6"
       inkscape:collect="always"><stop
         style="stop-color:#4d4d4d;stop-opacity:0.74901962;"
         offset="0"
         id="stop3" /><stop
         style="stop-color:#4d4d4d;stop-opacity:0;"
         offset="1"
         id="stop6" /></linearGradient><linearGradient
       inkscape:collect="always"
       xlink:href="#linearGradient8"
       id="linearGradient2"
       gradientUnits="userSpaceOnUse"
       gradientTransform="matrix(0.96592582,0.25881904,-0.28019729,1.0457105,9.1503984,-4.3946909)"
       x1="10.647268"
       y1="16.557198"
       x2="17.939503"
       y2="14.395561" /><linearGradient
       id="linearGradient8"
       inkscape:collect="always"><stop
         style="stop-color:#ff6666;stop-opacity:0.74901962;"
         offset="0"
         id="stop7" /><stop
         style="stop-color:#ff6666;stop-opacity:0;"
         offset="1"
         id="stop8" /></linearGradient><linearGradient
       inkscape:collect="always"
       xlink:href="#linearGradient10"
       id="linearGradient1"
       gradientUnits="userSpaceOnUse"
       gradientTransform="matrix(0.8660254,0.5,-0.5412996,0.93755841,17.12248,4.817848)"
       x1="10.647268"
       y1="16.557198"
       x2="14.696174"
       y2="14.776537" /><linearGradient
       inkscape:collect="always"
       xlink:href="#linearGradient5"
       id="linearGradient4"
       gradientUnits="userSpaceOnUse"
       gradientTransform="matrix(-0.96592582,-0.25881904,0.28019729,-1.0457105,25.849602,39.394691)"
       x1="10.647268"
       y1="16.557198"
       x2="17.939503"
       y2="14.395561" /><marker
       style="overflow:visible"
       id="RoundedArrow"
       refX="0"
       refY="0"
       orient="auto-start-reverse"
       inkscape:stockid="Rounded arrow"
       markerWidth="1"
       markerHeight="1"
       viewBox="0 0 1 1"
       inkscape:isstock="true"
       inkscape:collect="always"
       preserveAspectRatio="xMidYMid"><path
         transform="scale(0.7)"
         d="m -0.21114562,-4.1055728 6.42229122,3.21114561 a 1,1 90 0 1 0,1.78885438 L -0.21114562,4.1055728 A 1.236068,1.236068 31.717474 0 1 -2,3 v -6 a 1.236068,1.236068 148.28253 0 1 1.78885438,-1.1055728 z"
         style="fill:context-stroke;fill-rule:evenodd;stroke:none"
         id="path8" /></marker><marker
       style="overflow:visible"
       id="RoundedArrow-6"
       refX="0"
       refY="0"
       orient="auto-start-reverse"
       inkscape:stockid="Rounded arrow"
       markerWidth="1"
       markerHeight="1"
       viewBox="0 0 1 1"
       inkscape:isstock="true"
       inkscape:collect="always"
       preserveAspectRatio="xMidYMid"><path
         transform="scale(0.7)"
         d="m -0.21114562,-4.1055728 6.42229122,3.21114561 a 1,1 90 0 1 0,1.78885438 L -0.21114562,4.1055728 A 1.236068,1.236068 31.717474 0 1 -2,3 v -6 a 1.236068,1.236068 148.28253 0 1 1.78885438,-1.1055728 z"
         style="fill:context-stroke;fill-rule:evenodd;stroke:none"
         id="path8-9" /></marker></defs><g
     inkscape:label="Layer 1"
     inkscape:groupmode="layer"
     id="layer1"><path
       style="fill:#999999;fill-opacity:1;stroke:none;stroke-width:0.264999;stroke-dasharray:none;stroke-opacity:1"
       d="m 14.237622,31.397783 c -0.254435,-0.06404 -0.479199,-0.213708 -0.422771,-0.384232 0.394119,-1.190983 1.003979,-3.434247 1.652531,-4.197748 -0.247187,-0.769263 -1.445008,-0.212348 -1.730098,-1.162733 -0.247251,-0.824247 0.876248,-1.920423 1.425859,-2.04441 0.274643,-0.06196 0.880174,0.725187 0.625048,0.844282 -0.591983,0.276341 -0.571287,0.325908 -0.937834,0.768617 0.383686,0.341758 1.887231,-0.162433 2.149276,0.660157 0.569665,0.147258 1.288162,-0.544674 2.028841,-0.918245 -0.277641,-0.60532 -1.298729,-1.685252 -1.796511,-2.064356 0.09664,-0.26445 0.15254,-1.055137 0.398042,-0.917321 0.844567,0.47411 2.74583,2.276281 2.561815,3.19258 -0.15963,0.794885 -1.730255,1.732957 -2.32697,2.277752 0.183514,0.984824 -0.401076,3.23677 -0.65076,4.466172 -0.0715,0.352044 -1.076359,0.0696 -1.017604,-0.2848 0.169234,-1.020793 0.503978,-2.705445 0.339034,-2.917928 -0.09321,-0.120065 -0.17384,-0.166826 -0.242483,-0.174161 -0.06322,-0.02774 -0.158925,-0.02693 -0.299469,0.03097 -0.248717,0.102462 -0.795629,1.729082 -1.155923,2.699054 -0.06254,0.168376 -0.345595,0.190414 -0.600023,0.126352 z"
       id="path4-4-5-2-0"
       sodipodi:nodetypes="ssscssccccsscscscsss" /><path
       id="path1-9-9-4-2"
       style="fill:#66ff66;fill-opacity:1;stroke:#000000;stroke-width:0.265"
       d="m 15.237271,26.020039 c 0.23765,-0.886921 1.250717,-1.791776 2.137638,-1.554126 0.886921,0.237649 1.311834,1.527811 1.074184,2.414731 -0.237649,0.886918 -1.149292,1.413256 -2.036212,1.175606 -0.88692,-0.237649 -1.413259,-1.149292 -1.17561,-2.036211 z"
       sodipodi:nodetypes="zzzzz" /><path
       id="path1-7-1-2-6-0-1"
       style="fill:#ffffff;stroke:#000000;stroke-width:0.265;stroke-dasharray:none"
       d="m 16.022141,32.051485 c 0.05363,-0.200154 0.411179,-0.654177 0.759899,-0.560737 0.348722,0.09344 0.466155,0.68579 0.412524,0.885943 -0.05363,0.200155 -0.032,0.390916 -0.70072,0.189619 -0.668726,-0.201298 -0.525335,-0.31467 -0.471703,-0.514825 z"
       sodipodi:nodetypes="ssszs" /><path
       id="path1-7-1-9-0-2-5-0"
       style="fill:#ffffff;stroke:#000000;stroke-width:0.265;stroke-dasharray:none"
       d="m 13.63122,31.388301 c 0.05363,-0.200153 0.411179,-0.654176 0.759899,-0.560737 0.348722,0.09344 0.466154,0.68579 0.412523,0.885944 -0.05363,0.200153 -0.032,0.390915 -0.700719,0.189617 -0.668726,-0.201298 -0.525334,-0.314669 -0.471703,-0.514824 z"
       sodipodi:nodetypes="ssszs" /><ellipse
       style="fill:#ffffff;fill-opacity:1;stroke:#000000;stroke-width:0.265;stroke-dasharray:none;stroke-opacity:1"
       id="path1-7-2-9-9-1-6-1-9-5"
       cx="28.554083"
       cy="0.4172177"
       rx="0.65429264"
       ry="0.80279088"
       transform="matrix(0.53895324,0.84233569,0.84233569,-0.53895324,0,0)" /><path
       style="fill:#999999;fill-opacity:1;stroke:none;stroke-width:0.264999;stroke-dasharray:none;stroke-opacity:1"
       d="m 24.562748,16.107789 c 0.188331,0.182673 0.308146,0.424678 0.174016,0.544141 -0.936808,0.834361 -2.586595,2.472156 -3.530008,2.80909 -0.170565,0.789793 1.145239,0.906404 0.916943,1.872006 -0.197994,0.837445 -1.719065,1.225011 -2.257036,1.057582 -0.268825,-0.08367 -0.399659,-1.068119 -0.119166,-1.043695 0.650842,0.05667 0.657703,0.0034 1.196496,-0.196724 -0.161402,-0.487815 -1.715606,-0.802945 -1.531248,-1.64635 -0.419716,-0.412364 -1.387918,-0.17238 -2.216151,-0.219197 -0.06222,0.663043 0.282107,2.108834 0.523646,2.686039 -0.215916,0.180701 -0.659672,0.837507 -0.803375,0.595402 -0.494362,-0.832875 -1.239818,-3.344231 -0.622307,-4.045763 0.535686,-0.608575 2.364923,-0.635656 3.154091,-0.809105 0.333484,-0.944639 1.965728,-2.602588 2.79666,-3.542437 0.237946,-0.26913 0.966953,0.477907 0.738871,0.755445 -0.656956,0.799414 -1.789179,2.090994 -1.752574,2.357481 0.02069,0.150585 0.06714,0.231396 0.122915,0.272072 0.04088,0.05561 0.124167,0.102789 0.274833,0.12291 0.266627,0.03562 1.553576,-1.099616 2.350585,-1.759489 0.13835,-0.114548 0.394501,0.0079 0.582812,0.190587 z"
       id="path4-4-5-2-0-5"
       sodipodi:nodetypes="ssscssccccsscscscsss" /><path
       id="path1-9-9-4-2-8"
       style="fill:#6666ff;fill-opacity:1;stroke:#000000;stroke-width:0.265"
       d="m 21.008155,20.265227 c -0.64927,0.649273 -1.97904,0.926367 -2.628311,0.277095 -0.649272,-0.64927 -0.372176,-1.979041 0.277095,-2.62831 0.649268,-0.649269 1.701945,-0.649271 2.351214,0 0.649271,0.64927 0.649273,1.701945 2e-6,2.351215 z"
       sodipodi:nodetypes="zzzzz" /><path
       id="path1-7-1-2-6-0-1-6"
       style="fill:#ffffff;stroke:#000000;stroke-width:0.265;stroke-dasharray:none"
       d="m 23.344161,14.649409 c -0.146522,0.146521 -0.683179,0.360943 -0.93846,0.105662 -0.255282,-0.255283 -0.06081,-0.826988 0.08572,-0.973511 0.146524,-0.146524 0.223168,-0.322545 0.701651,0.186143 0.478484,0.508692 0.297618,0.535179 0.151094,0.681705 z"
       sodipodi:nodetypes="ssszs" /><path
       id="path1-7-1-9-0-2-5-0-2"
       style="fill:#ffffff;stroke:#000000;stroke-width:0.265;stroke-dasharray:none"
       d="m 25.083168,16.419202 c -0.146521,0.146522 -0.68318,0.360945 -0.938461,0.105664 -0.255281,-0.255282 -0.06081,-0.82699 0.08572,-0.973513 0.146522,-0.146522 0.223167,-0.322543 0.70165,0.186144 0.478484,0.508693 0.297617,0.535178 0.151095,0.681702 z"
       sodipodi:nodetypes="ssszs" /><ellipse
       style="fill:#ffffff;fill-opacity:1;stroke:#000000;stroke-width:0.265;stroke-dasharray:none;stroke-opacity:1"
       id="path1-7-2-9-9-1-6-1-9-5-8"
       cx="-22.777399"
       cy="-18.456741"
       rx="0.65429264"
       ry="0.80279088"
       transform="matrix(-0.04557935,-0.99896072,-0.99896072,0.04557935,0,0)" /><ellipse
       style="fill:#ffffff;fill-opacity:1;stroke:#000000;stroke-width:0.265;stroke-dasharray:none;stroke-opacity:1"
       id="path1-7-2-9-9"
       cx="-3.8279159"
       cy="-28.076424"
       rx="0.65429264"
       ry="0.80279088"
       transform="rotate(150)" /><path
       style="fill:#999999;fill-opacity:1;stroke:none;stroke-width:0.264999;stroke-dasharray:none;stroke-opacity:1"
       d="m 20.762378,3.6022179 c 0.254435,0.064035 0.479199,0.2137079 0.422771,0.3842316 -0.394119,1.1909834 -1.003979,3.4342474 -1.652531,4.1977484 0.247187,0.7692626 1.445008,0.2123481 1.730098,1.1627335 0.247251,0.8242466 -0.876248,1.9204216 -1.425859,2.0444086 -0.274642,0.06196 -0.880174,-0.725187 -0.625048,-0.844282 0.591983,-0.27634 0.571287,-0.325908 0.937834,-0.7686161 -0.383685,-0.3417582 -1.887231,0.162432 -2.149276,-0.6601577 -0.569665,-0.1472581 -1.288162,0.5446738 -2.028841,0.9182448 0.277641,0.60532 1.298729,1.685252 1.796511,2.064356 -0.09664,0.26445 -0.15254,1.055137 -0.398042,0.917321 -0.844567,-0.47411 -2.74583,-2.276281 -2.561815,-3.1925803 0.15963,-0.7948843 1.730255,-1.7329562 2.32697,-2.2777505 -0.183514,-0.9848239 0.401076,-3.2367701 0.65076,-4.4661719 0.0715,-0.3520445 1.076359,-0.069596 1.017604,0.2847995 -0.169234,1.0207929 -0.503978,2.7054449 -0.339034,2.9179276 0.09321,0.1200651 0.17384,0.1668265 0.242483,0.1741617 0.06322,0.027736 0.158925,0.02693 0.299469,-0.030968 C 19.255149,6.3251616 19.802061,4.698542 20.162355,3.72857 20.224895,3.5601942 20.50795,3.5381562 20.762378,3.6022179 Z"
       id="path4-4-5-2-0-6"
       sodipodi:nodetypes="ssscssccccsscscscsss" /><path
       id="path1-9-9-4-2-2"
       style="fill:#4d4d4d;fill-opacity:1;stroke:#000000;stroke-width:0.265"
       d="m 19.762729,8.9799619 c -0.23765,0.8869203 -1.250717,1.7917751 -2.137638,1.5541251 -0.88692,-0.237649 -1.311834,-1.5278109 -1.074184,-2.4147302 0.237649,-0.8869179 1.149292,-1.4132557 2.036212,-1.1756062 0.88692,0.2376494 1.413259,1.1492925 1.17561,2.0362113 z"
       sodipodi:nodetypes="zzzzz" /><path
       id="path1-7-1-2-6-0-1-9"
       style="fill:#ffffff;stroke:#000000;stroke-width:0.265;stroke-dasharray:none"
       d="m 18.977859,2.9485162 c -0.05363,0.2001533 -0.411179,0.6541766 -0.759899,0.5607372 -0.348722,-0.09344 -0.466155,-0.6857903 -0.412524,-0.8859437 0.05363,-0.2001543 0.032,-0.3909158 0.70072,-0.1896186 0.668726,0.2012982 0.525335,0.3146698 0.471703,0.5148251 z"
       sodipodi:nodetypes="ssszs" /><path
       id="path1-7-1-9-0-2-5-0-9"
       style="fill:#ffffff;stroke:#000000;stroke-width:0.265;stroke-dasharray:none"
       d="m 21.36878,3.6116995 c -0.05363,0.2001534 -0.411179,0.6541766 -0.759899,0.5607373 -0.348722,-0.09344 -0.466154,-0.6857904 -0.412523,-0.8859437 0.05363,-0.2001534 0.032,-0.3909148 0.700719,-0.1896177 0.668726,0.2012983 0.525334,0.3146698 0.471703,0.5148241 z"
       sodipodi:nodetypes="ssszs" /><ellipse
       style="fill:#ffffff;fill-opacity:1;stroke:#000000;stroke-width:0.265;stroke-dasharray:none;stroke-opacity:1"
       id="path1-7-2-9-9-1-6-1-9-5-0"
       cx="-19.791029"
       cy="-10.201167"
       rx="0.65429264"
       ry="0.80279088"
       transform="matrix(-0.53895324,-0.84233569,-0.84233569,0.53895324,0,0)" /><path
       style="fill:#999999;fill-opacity:1;stroke:none;stroke-width:0.264999;stroke-dasharray:none;stroke-opacity:1"
       d="m 10.437252,18.892211 c -0.188331,-0.182673 -0.308146,-0.424678 -0.174015,-0.544141 0.936807,-0.834361 2.586594,-2.472156 3.530007,-2.80909 0.170565,-0.789793 -1.145239,-0.906404 -0.916942,-1.872006 0.197993,-0.837445 1.719064,-1.225011 2.257035,-1.057582 0.268826,0.08367 0.399659,1.068119 0.119166,1.043695 -0.650842,-0.05667 -0.657703,-0.0034 -1.196496,0.196724 0.161402,0.487815 1.715606,0.802945 1.531249,1.64635 0.419716,0.412364 1.387917,0.17238 2.216151,0.219197 0.06222,-0.663043 -0.282107,-2.108834 -0.523647,-2.686039 0.215916,-0.180701 0.659672,-0.837507 0.803375,-0.595402 0.494362,0.832875 1.239819,3.344231 0.622307,4.045763 -0.535686,0.608575 -2.364923,0.635656 -3.154091,0.809106 -0.333484,0.944638 -1.965728,2.602587 -2.79666,3.542436 -0.237946,0.26913 -0.966953,-0.477907 -0.738871,-0.755445 0.656956,-0.799414 1.789179,-2.090994 1.752575,-2.357481 -0.02069,-0.150585 -0.06714,-0.231396 -0.122915,-0.272072 -0.04088,-0.05561 -0.124167,-0.102789 -0.274834,-0.12291 -0.266627,-0.03562 -1.553576,1.099616 -2.350585,1.759489 -0.138349,0.114548 -0.394501,-0.0079 -0.582811,-0.190587 z"
       id="path4-4-5-2-0-5-8"
       sodipodi:nodetypes="ssscssccccsscscscsss" /><path
       id="path1-9-9-4-2-8-1"
       style="fill:#ff6666;fill-opacity:1;stroke:#000000;stroke-width:0.265"
       d="m 13.991845,14.734773 c 0.649271,-0.649273 1.979041,-0.926367 2.628311,-0.277095 0.649272,0.64927 0.372176,1.979041 -0.277094,2.62831 -0.649269,0.649269 -1.701945,0.649271 -2.351215,0 -0.649271,-0.64927 -0.649273,-1.701945 -2e-6,-2.351215 z"
       sodipodi:nodetypes="zzzzz" /><path
       id="path1-7-1-2-6-0-1-6-3"
       style="fill:#ffffff;stroke:#000000;stroke-width:0.265;stroke-dasharray:none"
       d="m 11.655839,20.350591 c 0.146522,-0.146521 0.68318,-0.360943 0.93846,-0.105662 0.255282,0.255283 0.06081,0.826988 -0.08572,0.973511 -0.146523,0.146524 -0.223168,0.322545 -0.70165,-0.186143 -0.478485,-0.508692 -0.297619,-0.535179 -0.151095,-0.681705 z"
       sodipodi:nodetypes="ssszs" /><path
       id="path1-7-1-9-0-2-5-0-2-1"
       style="fill:#ffffff;stroke:#000000;stroke-width:0.265;stroke-dasharray:none"
       d="m 9.9168318,18.580798 c 0.1465212,-0.146522 0.6831802,-0.360945 0.9384612,-0.105664 0.255282,0.255282 0.06081,0.82699 -0.08572,0.973513 C 10.62305,19.59517 10.546405,19.77119 10.067922,19.262503 9.5894382,18.75381 9.7703051,18.727325 9.9168269,18.580801 Z"
       sodipodi:nodetypes="ssszs" /><ellipse
       style="fill:#ffffff;fill-opacity:1;stroke:#000000;stroke-width:0.265;stroke-dasharray:none;stroke-opacity:1"
       id="path1-7-2-9-9-1-6-1-9-5-8-1"
       cx="13.781505"
       cy="14.911607"
       rx="0.65429264"
       ry="0.80279088"
       transform="matrix(0.04557935,0.99896072,0.99896072,-0.04557935,0,0)" /><ellipse
       style="fill:#ffffff;fill-opacity:1;stroke:#000000;stroke-width:0.265;stroke-dasharray:none;stroke-opacity:1"
       id="path1-7-2-9-9-0"
       cx="8.9829731"
       cy="19.734467"
       rx="0.65429264"
       ry="0.80279088"
       transform="rotate(-30)" /><path
       id="path1-3-1-5-8-0-8-0-6"
       style="fill:url(#linearGradient3);fill-opacity:1;stroke:none;stroke-width:0.265"
       d="m 13.991296,9.6344339 c 2.827765,0.09516 2.138021,0.4697991 3.761353,0.8258431 0.913731,-0.284091 0.374998,-2.5011329 0.164162,-3.4344969 -1.980619,-0.074435 -3.030091,0.4366285 -3.912315,0.9278639 -0.882224,0.4912354 -3.24896,1.6683127 -0.0132,1.6807899 z"
       sodipodi:nodetypes="zcczz" /><path
       id="path1-3-1-5-8-0-8-0"
       style="fill:url(#linearGradient2);fill-opacity:1;stroke:none;stroke-width:0.265"
       d="m 22.115507,14.335551 c -2.533434,-0.0071 -5.363497,0.102866 -6.849501,-0.12256 -0.809069,0.510902 -0.173745,2.33468 0.27148,3.181671 2.038123,0.07281 5.436919,-0.05823 7.045967,-1.145045 0.352364,-0.238 2.096277,-2.291797 -0.467946,-1.914068 0,0 2.533434,0.0071 0,2e-6 z"
       sodipodi:nodetypes="zcczzz" /><path
       id="path1-3-1-5-8-0-8-0-6-0"
       style="fill:url(#linearGradient1);fill-opacity:1;stroke:none;stroke-width:0.265"
       d="m 21.008704,25.365566 c -2.827765,-0.09516 -2.138021,-0.469799 -3.761353,-0.825843 -0.913731,0.284091 -0.374998,2.501133 -0.164162,3.434497 1.980619,0.07444 3.030091,-0.436629 3.912315,-0.927864 0.882224,-0.491235 3.24896,-1.668313 0.0132,-1.68079 z"
       sodipodi:nodetypes="zcczz" /><path
       id="path1-3-1-5-8-0-8-0-4"
       style="fill:url(#linearGradient4);fill-opacity:1;stroke:none;stroke-width:0.265"
       d="m 12.884493,20.664449 c 2.533434,0.0071 5.363497,-0.102866 6.849501,0.12256 0.809069,-0.510902 0.173745,-2.33468 -0.27148,-3.181671 -2.038123,-0.07281 -5.436919,0.05823 -7.045967,1.145045 -0.352364,0.238 -2.096277,2.291797 0.467946,1.914068 0,0 -2.533434,-0.0071 0,-2e-6 z"
       sodipodi:nodetypes="zcczzz" /><path
       id="path2"
       style="fill:none;stroke:#000000;stroke-width:0.2;stroke-dasharray:none;stroke-opacity:1;marker-end:url(#RoundedArrow)"
       d="m 25.815684,21.701026 c 0.124222,1.330102 -0.418475,4.889444 -3.923791,6.567558"
       sodipodi:nodetypes="cc" /><text
       xml:space="preserve"
       style="font-size:3.175px;text-align:start;writing-mode:lr-tb;direction:ltr;text-anchor:start;fill:#000000;fill-opacity:1;stroke:none;stroke-width:0.2;stroke-dasharray:none;stroke-opacity:1"
       x="24.218912"
       y="21.125826"
       id="text5"><tspan
         sodipodi:role="line"
         id="tspan5"
         style="font-style:normal;font-variant:normal;font-weight:bold;font-stretch:normal;font-family:'Bitstream Vera Sans';-inkscape-font-specification:'Bitstream Vera Sans Bold';fill:#000000;fill-opacity:1;stroke:none;stroke-width:0.2"
         x="24.218912"
         y="21.125826">360</tspan></text><path
       id="path2-2"
       style="fill:none;stroke:#000000;stroke-width:0.2;stroke-dasharray:none;stroke-opacity:1;marker-end:url(#RoundedArrow-6)"
       d="M 9.184316,13.298974 C 9.060094,11.968872 9.602791,8.40953 13.108107,6.731416"
       sodipodi:nodetypes="cc" /><text
       xml:space="preserve"
       style="font-size:3.175px;text-align:start;writing-mode:lr-tb;direction:ltr;text-anchor:start;fill:#000000;fill-opacity:1;stroke:none;stroke-width:0.2;stroke-dasharray:none;stroke-opacity:1"
       x="4.0931244"
       y="16.185661"
       id="text5-8"><tspan
         sodipodi:role="line"
         id="tspan5-2"
         style="font-style:normal;font-variant:normal;font-weight:bold;font-stretch:normal;font-family:'Bitstream Vera Sans';-inkscape-font-specification:'Bitstream Vera Sans Bold';fill:#000000;fill-opacity:1;stroke:none;stroke-width:0.2"
         x="4.0931244"
         y="16.185661">360</tspan></text></g></svg>
