<?xml version="1.0" encoding="UTF-8" standalone="no"?>
<!-- Created with Inkscape (http://www.inkscape.org/) -->

<svg
   width="35mm"
   height="35mm"
   viewBox="0 0 35 35"
   version="1.1"
   id="svg1"
   xml:space="preserve"
   inkscape:version="1.4 (e7c3feb100, 2024-10-09)"
   sodipodi:docname="3_v2_inter.svg"
   xmlns:inkscape="http://www.inkscape.org/namespaces/inkscape"
   xmlns:sodipodi="http://sodipodi.sourceforge.net/DTD/sodipodi-0.dtd"
   xmlns:xlink="http://www.w3.org/1999/xlink"
   xmlns="http://www.w3.org/2000/svg"
   xmlns:svg="http://www.w3.org/2000/svg"><sodipodi:namedview
     id="namedview1"
     pagecolor="#ffffff"
     bordercolor="#000000"
     borderopacity="0.25"
     inkscape:showpageshadow="2"
     inkscape:pageopacity="0.0"
     inkscape:pagecheckerboard="0"
     inkscape:deskcolor="#d1d1d1"
     inkscape:document-units="mm"
     inkscape:zoom="6.0766399"
     inkscape:cx="72.819849"
     inkscape:cy="59.407831"
     inkscape:window-width="956"
     inkscape:window-height="1023"
     inkscape:window-x="0"
     inkscape:window-y="0"
     inkscape:window-maximized="0"
     inkscape:current-layer="layer1" /><defs
     id="defs1"><linearGradient
       id="linearGradient10"
       inkscape:collect="always"><stop
         style="stop-color:#6666ff;stop-opacity:0.74901962;"
         offset="0"
         id="stop9" /><stop
         style="stop-color:#6666ff;stop-opacity:0;"
         offset="1"
         id="stop10" /></linearGradient><linearGradient
       id="linearGradient5"
       inkscape:collect="always"><stop
         style="stop-color:#66ff66;stop-opacity:0.74901962;"
         offset="0"
         id="stop4" /><stop
         style="stop-color:#66ff66;stop-opacity:0;"
         offset="1"
         id="stop5" /></linearGradient><inkscape:path-effect
       effect="mirror_symmetry"
       start_point="17.297909,16.234992"
       end_point="17.313303,7.810326"
       center_point="17.305606,12.022659"
       id="path-effect5"
       is_visible="true"
       lpeversion="1.2"
       lpesatellites=""
       mode="free"
       discard_orig_path="false"
       fuse_paths="true"
       oposite_fuse="false"
       split_items="false"
       split_open="false"
       link_styles="false" /><inkscape:path-effect
       effect="mirror_symmetry"
       start_point="17.297909,16.234992"
       end_point="17.313303,7.810326"
       center_point="17.305606,12.022659"
       id="path-effect5-7"
       is_visible="true"
       lpeversion="1.2"
       lpesatellites=""
       mode="free"
       discard_orig_path="false"
       fuse_paths="true"
       oposite_fuse="false"
       split_items="false"
       split_open="false"
       link_styles="false" /><inkscape:path-effect
       effect="mirror_symmetry"
       start_point="17.297909,16.234992"
       end_point="17.313303,7.810326"
       center_point="17.305606,12.022659"
       id="path-effect5-6"
       is_visible="true"
       lpeversion="1.2"
       lpesatellites=""
       mode="free"
       discard_orig_path="false"
       fuse_paths="true"
       oposite_fuse="false"
       split_items="false"
       split_open="false"
       link_styles="false" /><inkscape:path-effect
       effect="mirror_symmetry"
       start_point="17.297909,16.234992"
       end_point="17.313303,7.810326"
       center_point="17.305606,12.022659"
       id="path-effect5-3"
       is_visible="true"
       lpeversion="1.2"
       lpesatellites=""
       mode="free"
       discard_orig_path="false"
       fuse_paths="true"
       oposite_fuse="false"
       split_items="false"
       split_open="false"
       link_styles="false" /><inkscape:path-effect
       effect="mirror_symmetry"
       start_point="17.297909,16.234992"
       end_point="17.313303,7.810326"
       center_point="17.305606,12.022659"
       id="path-effect5-66"
       is_visible="true"
       lpeversion="1.2"
       lpesatellites=""
       mode="free"
       discard_orig_path="false"
       fuse_paths="true"
       oposite_fuse="false"
       split_items="false"
       split_open="false"
       link_styles="false" /><inkscape:path-effect
       effect="mirror_symmetry"
       start_point="17.297909,16.234992"
       end_point="17.313303,7.810326"
       center_point="17.305606,12.022659"
       id="path-effect5-4"
       is_visible="true"
       lpeversion="1.2"
       lpesatellites=""
       mode="free"
       discard_orig_path="false"
       fuse_paths="true"
       oposite_fuse="false"
       split_items="false"
       split_open="false"
       link_styles="false" /><inkscape:path-effect
       effect="mirror_symmetry"
       start_point="17.297909,16.234992"
       end_point="17.313303,7.810326"
       center_point="17.305606,12.022659"
       id="path-effect5-4-7"
       is_visible="true"
       lpeversion="1.2"
       lpesatellites=""
       mode="free"
       discard_orig_path="false"
       fuse_paths="true"
       oposite_fuse="false"
       split_items="false"
       split_open="false"
       link_styles="false" /><inkscape:path-effect
       effect="mirror_symmetry"
       start_point="17.297909,16.234992"
       end_point="17.313303,7.810326"
       center_point="17.305606,12.022659"
       id="path-effect5-41"
       is_visible="true"
       lpeversion="1.2"
       lpesatellites=""
       mode="free"
       discard_orig_path="false"
       fuse_paths="true"
       oposite_fuse="false"
       split_items="false"
       split_open="false"
       link_styles="false" /><linearGradient
       inkscape:collect="always"
       xlink:href="#linearGradient6"
       id="linearGradient3"
       gradientUnits="userSpaceOnUse"
       gradientTransform="matrix(0.5,0.8660254,0.93755841,-0.5412996,4.8178485,17.122479)"
       x1="10.647268"
       y1="16.557198"
       x2="14.696174"
       y2="14.776537" /><linearGradient
       id="linearGradient6"
       inkscape:collect="always"><stop
         style="stop-color:#ff6666;stop-opacity:0.74901962;"
         offset="0"
         id="stop3" /><stop
         style="stop-color:#ff6666;stop-opacity:0;"
         offset="1"
         id="stop6" /></linearGradient><linearGradient
       inkscape:collect="always"
       xlink:href="#linearGradient8"
       id="linearGradient2"
       gradientUnits="userSpaceOnUse"
       gradientTransform="matrix(-0.25881904,-0.96592582,-1.0457105,0.28019729,39.394691,25.849601)"
       x1="10.647268"
       y1="16.557198"
       x2="17.939503"
       y2="14.395561" /><linearGradient
       id="linearGradient8"
       inkscape:collect="always"><stop
         style="stop-color:#4d4d4d;stop-opacity:0.74901962;"
         offset="0"
         id="stop7" /><stop
         style="stop-color:#4d4d4d;stop-opacity:0;"
         offset="1"
         id="stop8" /></linearGradient><linearGradient
       inkscape:collect="always"
       xlink:href="#linearGradient10"
       id="linearGradient1"
       gradientUnits="userSpaceOnUse"
       gradientTransform="matrix(-0.5,-0.8660254,-0.93755841,0.5412996,30.182152,17.877519)"
       x1="10.647268"
       y1="16.557198"
       x2="14.696174"
       y2="14.776537" /><linearGradient
       inkscape:collect="always"
       xlink:href="#linearGradient5"
       id="linearGradient4"
       gradientUnits="userSpaceOnUse"
       gradientTransform="matrix(0.25881904,0.96592582,1.0457105,-0.28019729,-4.3946905,9.150397)"
       x1="10.647268"
       y1="16.557198"
       x2="17.939503"
       y2="14.395561" /><marker
       style="overflow:visible"
       id="RoundedArrow"
       refX="0"
       refY="0"
       orient="auto-start-reverse"
       inkscape:stockid="Rounded arrow"
       markerWidth="1"
       markerHeight="1"
       viewBox="0 0 1 1"
       inkscape:isstock="true"
       inkscape:collect="always"
       preserveAspectRatio="xMidYMid"><path
         transform="scale(0.7)"
         d="m -0.21114562,-4.1055728 6.42229122,3.21114561 a 1,1 90 0 1 0,1.78885438 L -0.21114562,4.1055728 A 1.236068,1.236068 31.717474 0 1 -2,3 v -6 a 1.236068,1.236068 148.28253 0 1 1.78885438,-1.1055728 z"
         style="fill:context-stroke;fill-rule:evenodd;stroke:none"
         id="path8" /></marker><marker
       style="overflow:visible"
       id="RoundedArrow-6"
       refX="0"
       refY="0"
       orient="auto-start-reverse"
       inkscape:stockid="Rounded arrow"
       markerWidth="1"
       markerHeight="1"
       viewBox="0 0 1 1"
       inkscape:isstock="true"
       inkscape:collect="always"
       preserveAspectRatio="xMidYMid"><path
         transform="scale(0.7)"
         d="m -0.21114562,-4.1055728 6.42229122,3.21114561 a 1,1 90 0 1 0,1.78885438 L -0.21114562,4.1055728 A 1.236068,1.236068 31.717474 0 1 -2,3 v -6 a 1.236068,1.236068 148.28253 0 1 1.78885438,-1.1055728 z"
         style="fill:context-stroke;fill-rule:evenodd;stroke:none"
         id="path8-9" /></marker></defs><g
     inkscape:label="Layer 1"
     inkscape:groupmode="layer"
     id="layer1"><path
       style="fill:#999999;fill-opacity:1;stroke:none;stroke-width:0.264999;stroke-dasharray:none;stroke-opacity:1"
       d="m 3.6022175,20.762377 c 0.06404,0.254435 0.213708,0.479199 0.384232,0.422771 1.190983,-0.394119 3.434247,-1.003979 4.197748,-1.652531 0.769263,0.247187 0.212348,1.445008 1.162733,1.730098 0.8242465,0.247251 1.9204225,-0.876248 2.0444095,-1.425859 0.06196,-0.274643 -0.725187,-0.880174 -0.844282,-0.625048 -0.276341,0.591983 -0.325908,0.571287 -0.7686165,0.937834 -0.341758,-0.383686 0.162433,-1.887231 -0.660157,-2.149276 -0.147258,-0.569665 0.544674,-1.288162 0.9182445,-2.028841 0.60532,0.277641 1.685252,1.298729 2.064356,1.796511 0.26445,-0.09664 1.055137,-0.15254 0.917321,-0.398042 -0.47411,-0.844567 -2.276281,-2.74583 -3.1925795,-2.561815 -0.794885,0.15963 -1.732957,1.730255 -2.277752,2.32697 -0.984824,-0.183514 -3.23677,0.401076 -4.466172,0.65076 -0.352044,0.0715 -0.0696,1.076359 0.2848,1.017604 1.020793,-0.169234 2.705445,-0.503978 2.917928,-0.339034 0.120065,0.09321 0.166826,0.17384 0.174161,0.242483 0.02774,0.06322 0.02693,0.158925 -0.03097,0.299469 -0.102462,0.248717 -1.729082,0.795629 -2.699054,1.155923 -0.168376,0.06254 -0.190414,0.345595 -0.126352,0.600023 z"
       id="path4-4-5-2-0"
       sodipodi:nodetypes="ssscssccccsscscscsss" /><path
       id="path1-9-9-4-2"
       style="fill:#6666ff;fill-opacity:1;stroke:#000000;stroke-width:0.265"
       d="m 8.9799615,19.762728 c 0.886921,-0.23765 1.7917755,-1.250717 1.5541255,-2.137638 -0.237649,-0.886921 -1.5278105,-1.311834 -2.4147305,-1.074184 -0.886918,0.237649 -1.413256,1.149292 -1.175606,2.036212 0.237649,0.88692 1.149292,1.413259 2.036211,1.17561 z"
       sodipodi:nodetypes="zzzzz" /><path
       id="path1-7-1-2-6-0-1"
       style="fill:#ffffff;stroke:#000000;stroke-width:0.265;stroke-dasharray:none"
       d="m 2.9485155,18.977858 c 0.200154,-0.05363 0.654177,-0.411179 0.560737,-0.759899 -0.09344,-0.348722 -0.68579,-0.466155 -0.885943,-0.412524 -0.200155,0.05363 -0.390916,0.032 -0.189619,0.70072 0.201298,0.668726 0.31467,0.525335 0.514825,0.471703 z"
       sodipodi:nodetypes="ssszs" /><path
       id="path1-7-1-9-0-2-5-0"
       style="fill:#ffffff;stroke:#000000;stroke-width:0.265;stroke-dasharray:none"
       d="m 3.6116995,21.368779 c 0.200153,-0.05363 0.654176,-0.411179 0.560737,-0.759899 -0.09344,-0.348722 -0.68579,-0.466154 -0.885944,-0.412523 -0.200153,0.05363 -0.390915,0.032 -0.189617,0.700719 0.201298,0.668726 0.314669,0.525334 0.514824,0.471703 z"
       sodipodi:nodetypes="ssszs" /><ellipse
       style="fill:#ffffff;fill-opacity:1;stroke:#000000;stroke-width:0.265;stroke-dasharray:none;stroke-opacity:1"
       id="path1-7-2-9-9-1-6-1-9-5"
       cx="-19.791029"
       cy="-10.201166"
       rx="0.65429264"
       ry="0.80279088"
       transform="rotate(-147.38759)" /><path
       style="fill:#999999;fill-opacity:1;stroke:none;stroke-width:0.264999;stroke-dasharray:none;stroke-opacity:1"
       d="m 18.892211,10.437251 c -0.182673,-0.188331 -0.424678,-0.308146 -0.544141,-0.174016 -0.834361,0.936808 -2.472156,2.586595 -2.80909,3.530008 -0.789793,0.170565 -0.906404,-1.145239 -1.872006,-0.916943 -0.837445,0.197994 -1.225011,1.719065 -1.057582,2.257036 0.08367,0.268825 1.068119,0.399659 1.043695,0.119166 -0.05667,-0.650842 -0.0034,-0.657703 0.196724,-1.196496 0.487815,0.161402 0.802945,1.715606 1.64635,1.531248 0.412364,0.419716 0.17238,1.387918 0.219197,2.216151 -0.663043,0.06222 -2.108834,-0.282107 -2.686039,-0.523646 -0.180701,0.215916 -0.837507,0.659672 -0.595402,0.803375 0.832875,0.494362 3.344231,1.239818 4.045763,0.622307 0.608575,-0.535686 0.635656,-2.364923 0.809105,-3.154091 0.944639,-0.333484 2.602588,-1.965728 3.542437,-2.79666 0.26913,-0.237946 -0.477907,-0.966953 -0.755445,-0.738871 -0.799414,0.656956 -2.090994,1.789179 -2.357481,1.752574 -0.150585,-0.02069 -0.231396,-0.06714 -0.272072,-0.122915 -0.05561,-0.04088 -0.102789,-0.124167 -0.12291,-0.274833 -0.03562,-0.266627 1.099616,-1.553576 1.759489,-2.350585 0.114548,-0.13835 -0.0079,-0.394501 -0.190587,-0.582812 z"
       id="path4-4-5-2-0-5"
       sodipodi:nodetypes="ssscssccccsscscscsss" /><path
       id="path1-9-9-4-2-8"
       style="fill:#66ff66;fill-opacity:1;stroke:#000000;stroke-width:0.265"
       d="m 14.734773,13.991844 c -0.649273,0.64927 -0.926367,1.97904 -0.277095,2.628311 0.64927,0.649272 1.979041,0.372176 2.62831,-0.277095 0.649269,-0.649268 0.649271,-1.701945 0,-2.351214 -0.64927,-0.649271 -1.701945,-0.649273 -2.351215,-2e-6 z"
       sodipodi:nodetypes="zzzzz" /><path
       id="path1-7-1-2-6-0-1-6"
       style="fill:#ffffff;stroke:#000000;stroke-width:0.265;stroke-dasharray:none"
       d="m 20.350591,11.655838 c -0.146521,0.146522 -0.360943,0.683179 -0.105662,0.93846 0.255283,0.255282 0.826988,0.06081 0.973511,-0.08572 0.146524,-0.146524 0.322545,-0.223168 -0.186143,-0.701651 -0.508692,-0.478484 -0.535179,-0.297618 -0.681705,-0.151094 z"
       sodipodi:nodetypes="ssszs" /><path
       id="path1-7-1-9-0-2-5-0-2"
       style="fill:#ffffff;stroke:#000000;stroke-width:0.265;stroke-dasharray:none"
       d="m 18.580798,9.916831 c -0.146522,0.146521 -0.360945,0.68318 -0.105664,0.938461 0.255282,0.255281 0.82699,0.06081 0.973513,-0.08572 0.146522,-0.146522 0.322543,-0.223167 -0.186144,-0.70165 C 18.75381,9.589438 18.727325,9.770305 18.580801,9.916827 Z"
       sodipodi:nodetypes="ssszs" /><ellipse
       style="fill:#ffffff;fill-opacity:1;stroke:#000000;stroke-width:0.265;stroke-dasharray:none;stroke-opacity:1"
       id="path1-7-2-9-9-1-6-1-9-5-8"
       cx="13.781504"
       cy="14.911606"
       rx="0.65429264"
       ry="0.80279088"
       transform="rotate(2.6124095)" /><ellipse
       style="fill:#ffffff;fill-opacity:1;stroke:#000000;stroke-width:0.265;stroke-dasharray:none;stroke-opacity:1"
       id="path1-7-2-9-9"
       cx="8.9829721"
       cy="19.734465"
       rx="0.65429264"
       ry="0.80279088"
       transform="matrix(-0.5,0.8660254,0.8660254,0.5,0,0)" /><path
       style="fill:#999999;fill-opacity:1;stroke:none;stroke-width:0.264999;stroke-dasharray:none;stroke-opacity:1"
       d="m 31.397783,14.237621 c -0.06404,-0.254435 -0.213708,-0.479199 -0.384232,-0.422771 -1.190983,0.394119 -3.434247,1.003979 -4.197748,1.652531 -0.769263,-0.247187 -0.212349,-1.445008 -1.162734,-1.730098 -0.824247,-0.247251 -1.920422,0.876248 -2.044409,1.425859 -0.06196,0.274642 0.725187,0.880174 0.844282,0.625048 0.27634,-0.591983 0.325908,-0.571287 0.768617,-0.937834 0.341758,0.383685 -0.162432,1.887231 0.660157,2.149276 0.147258,0.569665 -0.544674,1.288162 -0.918245,2.028841 -0.60532,-0.277641 -1.685252,-1.298729 -2.064356,-1.796511 -0.26445,0.09664 -1.055137,0.15254 -0.917321,0.398042 0.47411,0.844567 2.276281,2.74583 3.192581,2.561815 0.794884,-0.15963 1.732956,-1.730255 2.27775,-2.32697 0.984824,0.183514 3.23677,-0.401076 4.466172,-0.65076 0.352045,-0.0715 0.0696,-1.076359 -0.284799,-1.017604 -1.020793,0.169234 -2.705445,0.503978 -2.917928,0.339034 -0.120065,-0.09321 -0.166826,-0.17384 -0.174162,-0.242483 -0.02774,-0.06322 -0.02693,-0.158925 0.03097,-0.299469 0.102463,-0.248717 1.729082,-0.795629 2.699054,-1.155923 0.168376,-0.06254 0.190414,-0.345595 0.126353,-0.600023 z"
       id="path4-4-5-2-0-6"
       sodipodi:nodetypes="ssscssccccsscscscsss" /><path
       id="path1-9-9-4-2-2"
       style="fill:#ff6666;fill-opacity:1;stroke:#000000;stroke-width:0.265"
       d="m 26.020039,15.23727 c -0.886921,0.23765 -1.791776,1.250717 -1.554126,2.137638 0.237649,0.88692 1.527811,1.311834 2.414731,1.074184 0.886918,-0.237649 1.413255,-1.149292 1.175606,-2.036212 -0.23765,-0.88692 -1.149293,-1.413259 -2.036211,-1.17561 z"
       sodipodi:nodetypes="zzzzz" /><path
       id="path1-7-1-2-6-0-1-9"
       style="fill:#ffffff;stroke:#000000;stroke-width:0.265;stroke-dasharray:none"
       d="m 32.051484,16.02214 c -0.200153,0.05363 -0.654176,0.411179 -0.560737,0.759899 0.09344,0.348722 0.68579,0.466155 0.885944,0.412524 0.200154,-0.05363 0.390916,-0.032 0.189618,-0.70072 -0.201298,-0.668726 -0.314669,-0.525335 -0.514825,-0.471703 z"
       sodipodi:nodetypes="ssszs" /><path
       id="path1-7-1-9-0-2-5-0-9"
       style="fill:#ffffff;stroke:#000000;stroke-width:0.265;stroke-dasharray:none"
       d="m 31.388301,13.631219 c -0.200153,0.05363 -0.654177,0.411179 -0.560737,0.759899 0.09344,0.348722 0.68579,0.466154 0.885943,0.412523 0.200154,-0.05363 0.390915,-0.032 0.189618,-0.700719 -0.201298,-0.668726 -0.31467,-0.525334 -0.514824,-0.471703 z"
       sodipodi:nodetypes="ssszs" /><ellipse
       style="fill:#ffffff;fill-opacity:1;stroke:#000000;stroke-width:0.265;stroke-dasharray:none;stroke-opacity:1"
       id="path1-7-2-9-9-1-6-1-9-5-0"
       cx="28.554083"
       cy="0.41721755"
       rx="0.65429264"
       ry="0.80279088"
       transform="rotate(32.61241)" /><path
       style="fill:#999999;fill-opacity:1;stroke:none;stroke-width:0.264999;stroke-dasharray:none;stroke-opacity:1"
       d="m 16.107789,24.562747 c 0.182673,0.188331 0.424678,0.308146 0.544141,0.174015 0.834361,-0.936807 2.472156,-2.586594 2.80909,-3.530007 0.789793,-0.170565 0.906404,1.145239 1.872006,0.916942 0.837445,-0.197993 1.225011,-1.719064 1.057582,-2.257035 -0.08367,-0.268826 -1.068119,-0.399659 -1.043695,-0.119166 0.05667,0.650842 0.0034,0.657703 -0.196724,1.196496 -0.487815,-0.161402 -0.802945,-1.715606 -1.64635,-1.531249 -0.412364,-0.419716 -0.17238,-1.387917 -0.219197,-2.216151 0.663043,-0.06222 2.108834,0.282107 2.686039,0.523647 0.180701,-0.215916 0.837507,-0.659672 0.595402,-0.803375 -0.832875,-0.494362 -3.344231,-1.239819 -4.045763,-0.622307 -0.608575,0.535686 -0.635656,2.364923 -0.809106,3.154091 -0.944638,0.333484 -2.602587,1.965728 -3.542436,2.79666 -0.26913,0.237946 0.477907,0.966953 0.755445,0.738871 0.799414,-0.656956 2.090994,-1.789179 2.357481,-1.752575 0.150585,0.02069 0.231396,0.06714 0.272072,0.122915 0.05561,0.04088 0.102789,0.124167 0.12291,0.274834 0.03562,0.266627 -1.099616,1.553576 -1.759489,2.350585 -0.114548,0.138349 0.0079,0.394501 0.190587,0.582811 z"
       id="path4-4-5-2-0-5-8"
       sodipodi:nodetypes="ssscssccccsscscscsss" /><path
       id="path1-9-9-4-2-8-1"
       style="fill:#4d4d4d;fill-opacity:1;stroke:#000000;stroke-width:0.265"
       d="m 20.265227,21.008154 c 0.649273,-0.649271 0.926367,-1.979041 0.277095,-2.628311 -0.64927,-0.649272 -1.979041,-0.372176 -2.62831,0.277094 -0.649269,0.649269 -0.649271,1.701945 0,2.351215 0.64927,0.649271 1.701945,0.649273 2.351215,2e-6 z"
       sodipodi:nodetypes="zzzzz" /><path
       id="path1-7-1-2-6-0-1-6-3"
       style="fill:#ffffff;stroke:#000000;stroke-width:0.265;stroke-dasharray:none"
       d="m 14.649409,23.34416 c 0.146521,-0.146522 0.360943,-0.68318 0.105662,-0.93846 -0.255283,-0.255282 -0.826988,-0.06081 -0.973511,0.08572 -0.146524,0.146523 -0.322545,0.223168 0.186143,0.70165 0.508692,0.478485 0.535179,0.297619 0.681705,0.151095 z"
       sodipodi:nodetypes="ssszs" /><path
       id="path1-7-1-9-0-2-5-0-2-1"
       style="fill:#ffffff;stroke:#000000;stroke-width:0.265;stroke-dasharray:none"
       d="m 16.419202,25.083168 c 0.146522,-0.146522 0.360945,-0.683181 0.105664,-0.938462 -0.255282,-0.255282 -0.82699,-0.06081 -0.973513,0.08572 -0.146523,0.146523 -0.322543,0.223168 0.186144,0.701651 0.508693,0.478484 0.535178,0.297617 0.681702,0.151095 z"
       sodipodi:nodetypes="ssszs" /><ellipse
       style="fill:#ffffff;fill-opacity:1;stroke:#000000;stroke-width:0.265;stroke-dasharray:none;stroke-opacity:1"
       id="path1-7-2-9-9-1-6-1-9-5-8-1"
       cx="-22.777399"
       cy="-18.456739"
       rx="0.65429264"
       ry="0.80279088"
       transform="rotate(-177.38759)" /><ellipse
       style="fill:#ffffff;fill-opacity:1;stroke:#000000;stroke-width:0.265;stroke-dasharray:none;stroke-opacity:1"
       id="path1-7-2-9-9-0"
       cx="-3.8279161"
       cy="-28.076424"
       rx="0.65429264"
       ry="0.80279088"
       transform="matrix(0.5,-0.8660254,-0.8660254,-0.5,0,0)" /><path
       id="path1-3-1-5-8-0-8-0-6"
       style="fill:url(#linearGradient3);fill-opacity:1;stroke:none;stroke-width:0.265"
       d="m 25.365567,21.008703 c -0.09516,-2.827765 -0.4698,-2.138021 -0.825844,-3.761353 0.284091,-0.913731 2.501133,-0.374998 3.434497,-0.164162 0.07444,1.980619 -0.436628,3.030091 -0.927864,3.912315 -0.491235,0.882224 -1.668312,3.24896 -1.680789,0.0132 z"
       sodipodi:nodetypes="zcczz" /><path
       id="path1-3-1-5-8-0-8-0"
       style="fill:url(#linearGradient2);fill-opacity:1;stroke:none;stroke-width:0.265"
       d="m 20.664449,12.884492 c 0.0071,2.533434 -0.102866,5.363497 0.12256,6.849501 -0.510902,0.809069 -2.33468,0.173745 -3.181671,-0.27148 -0.07281,-2.038123 0.05823,-5.436919 1.145045,-7.045967 0.238,-0.352364 2.291797,-2.096277 1.914068,0.467946 0,0 -0.0071,-2.533434 -2e-6,0 z"
       sodipodi:nodetypes="zcczzz" /><path
       id="path1-3-1-5-8-0-8-0-6-0"
       style="fill:url(#linearGradient1);fill-opacity:1;stroke:none;stroke-width:0.265"
       d="m 9.6344345,13.991295 c 0.09516,2.827765 0.4697985,2.138021 0.8258425,3.761353 -0.284091,0.913731 -2.5011325,0.374998 -3.4344965,0.164162 -0.07444,-1.980619 0.436629,-3.030091 0.927864,-3.912315 0.491235,-0.882224 1.668313,-3.24896 1.68079,-0.0132 z"
       sodipodi:nodetypes="zcczz" /><path
       id="path1-3-1-5-8-0-8-0-4"
       style="fill:url(#linearGradient4);fill-opacity:1;stroke:none;stroke-width:0.265"
       d="m 14.335551,22.115506 c -0.0071,-2.533434 0.102866,-5.363497 -0.12256,-6.849501 0.510902,-0.809069 2.33468,-0.173745 3.181671,0.27148 0.07281,2.038123 -0.05823,5.436919 -1.145045,7.045967 -0.238,0.352364 -2.291797,2.096277 -1.914068,-0.467946 0,0 0.0071,2.533434 2e-6,0 z"
       sodipodi:nodetypes="zcczzz" /><path
       id="path2"
       style="fill:none;stroke:#000000;stroke-width:0.2;stroke-dasharray:none;stroke-opacity:1;marker-end:url(#RoundedArrow)"
       d="M 13.298974,9.184315 C 11.968872,9.060093 8.4095305,9.60279 6.7314165,13.108106"
       sodipodi:nodetypes="cc" /><text
       xml:space="preserve"
       style="font-size:3.175px;text-align:start;writing-mode:lr-tb;direction:ltr;text-anchor:start;fill:#000000;fill-opacity:1;stroke:none;stroke-width:0.2;stroke-dasharray:none;stroke-opacity:1"
       x="10.098437"
       y="8.0636826"
       id="text5"><tspan
         sodipodi:role="line"
         id="tspan5"
         style="font-style:normal;font-variant:normal;font-weight:bold;font-stretch:normal;font-family:'Bitstream Vera Sans';-inkscape-font-specification:'Bitstream Vera Sans Bold';fill:#000000;fill-opacity:1;stroke:none;stroke-width:0.2"
         x="10.098437"
         y="8.0636826">360</tspan></text><path
       id="path2-2"
       style="fill:none;stroke:#000000;stroke-width:0.2;stroke-dasharray:none;stroke-opacity:1;marker-end:url(#RoundedArrow-6)"
       d="m 21.701026,25.815683 c 1.330102,0.124222 4.889444,-0.418475 6.567558,-3.923791"
       sodipodi:nodetypes="cc" /><text
       xml:space="preserve"
       style="font-size:3.175px;text-align:start;writing-mode:lr-tb;direction:ltr;text-anchor:start;fill:#000000;fill-opacity:1;stroke:none;stroke-width:0.2;stroke-dasharray:none;stroke-opacity:1"
       x="18.213602"
       y="29.247801"
       id="text5-8"><tspan
         sodipodi:role="line"
         id="tspan5-2"
         style="font-style:normal;font-variant:normal;font-weight:bold;font-stretch:normal;font-family:'Bitstream Vera Sans';-inkscape-font-specification:'Bitstream Vera Sans Bold';fill:#000000;fill-opacity:1;stroke:none;stroke-width:0.2"
         x="18.213602"
         y="29.247801">360</tspan></text></g></svg>
