<?xml version="1.0" encoding="UTF-8" standalone="no"?>
<!-- Created with Inkscape (http://www.inkscape.org/) -->

<svg
   width="35mm"
   height="35mm"
   viewBox="0 0 35 35"
   version="1.1"
   id="svg1"
   xml:space="preserve"
   inkscape:version="1.4 (e7c3feb100, 2024-10-09)"
   sodipodi:docname="5_p2_inter.svg"
   xmlns:inkscape="http://www.inkscape.org/namespaces/inkscape"
   xmlns:sodipodi="http://sodipodi.sourceforge.net/DTD/sodipodi-0.dtd"
   xmlns:xlink="http://www.w3.org/1999/xlink"
   xmlns="http://www.w3.org/2000/svg"
   xmlns:svg="http://www.w3.org/2000/svg"><sodipodi:namedview
     id="namedview1"
     pagecolor="#ffffff"
     bordercolor="#000000"
     borderopacity="0.25"
     inkscape:showpageshadow="2"
     inkscape:pageopacity="0.0"
     inkscape:pagecheckerboard="0"
     inkscape:deskcolor="#d1d1d1"
     inkscape:document-units="mm"
     inkscape:zoom="6.0766399"
     inkscape:cx="62.123148"
     inkscape:cy="60.477501"
     inkscape:window-width="1920"
     inkscape:window-height="1080"
     inkscape:window-x="0"
     inkscape:window-y="0"
     inkscape:window-maximized="0"
     inkscape:current-layer="layer1" /><defs
     id="defs1"><inkscape:path-effect
       effect="mirror_symmetry"
       start_point="17.297909,16.234992"
       end_point="17.313303,7.810326"
       center_point="17.305606,12.022659"
       id="path-effect5"
       is_visible="true"
       lpeversion="1.2"
       lpesatellites=""
       mode="free"
       discard_orig_path="false"
       fuse_paths="true"
       oposite_fuse="false"
       split_items="false"
       split_open="false"
       link_styles="false" /><inkscape:path-effect
       effect="mirror_symmetry"
       start_point="17.297909,16.234992"
       end_point="17.313303,7.810326"
       center_point="17.305606,12.022659"
       id="path-effect5-7"
       is_visible="true"
       lpeversion="1.2"
       lpesatellites=""
       mode="free"
       discard_orig_path="false"
       fuse_paths="true"
       oposite_fuse="false"
       split_items="false"
       split_open="false"
       link_styles="false" /><inkscape:path-effect
       effect="mirror_symmetry"
       start_point="17.297909,16.234992"
       end_point="17.313303,7.810326"
       center_point="17.305606,12.022659"
       id="path-effect5-6"
       is_visible="true"
       lpeversion="1.2"
       lpesatellites=""
       mode="free"
       discard_orig_path="false"
       fuse_paths="true"
       oposite_fuse="false"
       split_items="false"
       split_open="false"
       link_styles="false" /><inkscape:path-effect
       effect="mirror_symmetry"
       start_point="17.297909,16.234992"
       end_point="17.313303,7.810326"
       center_point="17.305606,12.022659"
       id="path-effect5-3"
       is_visible="true"
       lpeversion="1.2"
       lpesatellites=""
       mode="free"
       discard_orig_path="false"
       fuse_paths="true"
       oposite_fuse="false"
       split_items="false"
       split_open="false"
       link_styles="false" /><inkscape:path-effect
       effect="mirror_symmetry"
       start_point="17.297909,16.234992"
       end_point="17.313303,7.810326"
       center_point="17.305606,12.022659"
       id="path-effect5-66"
       is_visible="true"
       lpeversion="1.2"
       lpesatellites=""
       mode="free"
       discard_orig_path="false"
       fuse_paths="true"
       oposite_fuse="false"
       split_items="false"
       split_open="false"
       link_styles="false" /><inkscape:path-effect
       effect="mirror_symmetry"
       start_point="17.297909,16.234992"
       end_point="17.313303,7.810326"
       center_point="17.305606,12.022659"
       id="path-effect5-4"
       is_visible="true"
       lpeversion="1.2"
       lpesatellites=""
       mode="free"
       discard_orig_path="false"
       fuse_paths="true"
       oposite_fuse="false"
       split_items="false"
       split_open="false"
       link_styles="false" /><inkscape:path-effect
       effect="mirror_symmetry"
       start_point="17.297909,16.234992"
       end_point="17.313303,7.810326"
       center_point="17.305606,12.022659"
       id="path-effect5-4-7"
       is_visible="true"
       lpeversion="1.2"
       lpesatellites=""
       mode="free"
       discard_orig_path="false"
       fuse_paths="true"
       oposite_fuse="false"
       split_items="false"
       split_open="false"
       link_styles="false" /><inkscape:path-effect
       effect="mirror_symmetry"
       start_point="17.297909,16.234992"
       end_point="17.313303,7.810326"
       center_point="17.305606,12.022659"
       id="path-effect5-41"
       is_visible="true"
       lpeversion="1.2"
       lpesatellites=""
       mode="free"
       discard_orig_path="false"
       fuse_paths="true"
       oposite_fuse="false"
       split_items="false"
       split_open="false"
       link_styles="false" /><inkscape:path-effect
       effect="mirror_symmetry"
       start_point="17.297909,16.234992"
       end_point="17.313303,7.810326"
       center_point="17.305606,12.022659"
       id="path-effect5-62"
       is_visible="true"
       lpeversion="1.2"
       lpesatellites=""
       mode="free"
       discard_orig_path="false"
       fuse_paths="true"
       oposite_fuse="false"
       split_items="false"
       split_open="false"
       link_styles="false" /><inkscape:path-effect
       effect="mirror_symmetry"
       start_point="17.297909,16.234992"
       end_point="17.313303,7.810326"
       center_point="17.305606,12.022659"
       id="path-effect5-4-9"
       is_visible="true"
       lpeversion="1.2"
       lpesatellites=""
       mode="free"
       discard_orig_path="false"
       fuse_paths="true"
       oposite_fuse="false"
       split_items="false"
       split_open="false"
       link_styles="false" /><inkscape:path-effect
       effect="mirror_symmetry"
       start_point="17.493844,16.300304"
       end_point="17.509238,7.875638"
       center_point="17.501541,12.087971"
       id="path-effect5-4-0-9-72-8"
       is_visible="true"
       lpeversion="1.2"
       lpesatellites=""
       mode="free"
       discard_orig_path="false"
       fuse_paths="true"
       oposite_fuse="false"
       split_items="false"
       split_open="false"
       link_styles="false" /><inkscape:path-effect
       effect="mirror_symmetry"
       start_point="17.493844,16.300304"
       end_point="17.509238,7.875638"
       center_point="17.501541,12.087971"
       id="path-effect5-4-0-9-72-8-3"
       is_visible="true"
       lpeversion="1.2"
       lpesatellites=""
       mode="free"
       discard_orig_path="false"
       fuse_paths="true"
       oposite_fuse="false"
       split_items="false"
       split_open="false"
       link_styles="false" /><inkscape:path-effect
       effect="mirror_symmetry"
       start_point="17.493844,16.300304"
       end_point="17.509238,7.875638"
       center_point="17.501541,12.087971"
       id="path-effect5-4-0-9-5-7"
       is_visible="true"
       lpeversion="1.2"
       lpesatellites=""
       mode="free"
       discard_orig_path="false"
       fuse_paths="true"
       oposite_fuse="false"
       split_items="false"
       split_open="false"
       link_styles="false" /><inkscape:path-effect
       effect="mirror_symmetry"
       start_point="17.493844,16.300304"
       end_point="17.509238,7.875638"
       center_point="17.501541,12.087971"
       id="path-effect5-4-0-9-5-7-4"
       is_visible="true"
       lpeversion="1.2"
       lpesatellites=""
       mode="free"
       discard_orig_path="false"
       fuse_paths="true"
       oposite_fuse="false"
       split_items="false"
       split_open="false"
       link_styles="false" /><inkscape:path-effect
       effect="mirror_symmetry"
       start_point="17.297909,16.234992"
       end_point="17.313303,7.810326"
       center_point="17.305606,12.022659"
       id="path-effect5-4-78"
       is_visible="true"
       lpeversion="1.2"
       lpesatellites=""
       mode="free"
       discard_orig_path="false"
       fuse_paths="true"
       oposite_fuse="false"
       split_items="false"
       split_open="false"
       link_styles="false" /><inkscape:path-effect
       effect="mirror_symmetry"
       start_point="17.493844,16.300304"
       end_point="17.509238,7.875638"
       center_point="17.501541,12.087971"
       id="path-effect5-4-0-9-5-7-9"
       is_visible="true"
       lpeversion="1.2"
       lpesatellites=""
       mode="free"
       discard_orig_path="false"
       fuse_paths="true"
       oposite_fuse="false"
       split_items="false"
       split_open="false"
       link_styles="false" /><inkscape:path-effect
       effect="mirror_symmetry"
       start_point="17.493844,16.300304"
       end_point="17.509238,7.875638"
       center_point="17.501541,12.087971"
       id="path-effect5-4-0-9-5-7-3"
       is_visible="true"
       lpeversion="1.2"
       lpesatellites=""
       mode="free"
       discard_orig_path="false"
       fuse_paths="true"
       oposite_fuse="false"
       split_items="false"
       split_open="false"
       link_styles="false" /><linearGradient
       inkscape:collect="always"
       xlink:href="#linearGradient7"
       id="linearGradient6"
       gradientUnits="userSpaceOnUse"
       gradientTransform="matrix(0,1,-1.0825992,0,38.576811,4.9297904)"
       x1="10.647268"
       y1="16.557198"
       x2="18.301222"
       y2="15.409434" /><linearGradient
       id="linearGradient7"
       inkscape:collect="always"><stop
         style="stop-color:#66ff66;stop-opacity:0.74901962;"
         offset="0"
         id="stop6" /><stop
         style="stop-color:#66ff66;stop-opacity:0;"
         offset="1"
         id="stop7" /></linearGradient><linearGradient
       inkscape:collect="always"
       xlink:href="#linearGradient5"
       id="linearGradient4"
       gradientUnits="userSpaceOnUse"
       gradientTransform="matrix(0,-1,1.0825992,0,-0.82822783,30.237927)"
       x1="10.647268"
       y1="16.557198"
       x2="18.301222"
       y2="15.409434" /><linearGradient
       id="linearGradient5"
       inkscape:collect="always"><stop
         style="stop-color:#4d4d4d;stop-opacity:0.74901962;"
         offset="0"
         id="stop4" /><stop
         style="stop-color:#4d4d4d;stop-opacity:0;"
         offset="1"
         id="stop5" /></linearGradient><linearGradient
       inkscape:collect="always"
       xlink:href="#linearGradient6-8"
       id="linearGradient3"
       gradientUnits="userSpaceOnUse"
       gradientTransform="matrix(-0.5,0.8660254,-0.93755841,-0.5412996,31.019493,16.151186)"
       x1="10.647268"
       y1="16.557198"
       x2="14.696174"
       y2="14.776537" /><linearGradient
       id="linearGradient6-8"
       inkscape:collect="always"><stop
         style="stop-color:#6666ff;stop-opacity:0.74901962;"
         offset="0"
         id="stop3" /><stop
         style="stop-color:#6666ff;stop-opacity:0;"
         offset="1"
         id="stop6-6" /></linearGradient><linearGradient
       inkscape:collect="always"
       xlink:href="#linearGradient10"
       id="linearGradient1"
       gradientUnits="userSpaceOnUse"
       gradientTransform="matrix(0.5,-0.8660254,0.93755841,0.5412996,6.5010862,19.371109)"
       x1="10.647268"
       y1="16.557198"
       x2="14.696174"
       y2="14.776537" /><linearGradient
       id="linearGradient10"
       inkscape:collect="always"><stop
         style="stop-color:#ff6666;stop-opacity:0.74901962;"
         offset="0"
         id="stop9" /><stop
         style="stop-color:#ff6666;stop-opacity:0;"
         offset="1"
         id="stop10" /></linearGradient><marker
       style="overflow:visible"
       id="RoundedArrow-6"
       refX="0"
       refY="0"
       orient="auto-start-reverse"
       inkscape:stockid="Rounded arrow"
       markerWidth="1"
       markerHeight="1"
       viewBox="0 0 1 1"
       inkscape:isstock="true"
       inkscape:collect="always"
       preserveAspectRatio="xMidYMid"><path
         transform="scale(0.7)"
         d="m -0.21114562,-4.1055728 6.42229122,3.21114561 a 1,1 90 0 1 0,1.78885438 L -0.21114562,4.1055728 A 1.236068,1.236068 31.717474 0 1 -2,3 v -6 a 1.236068,1.236068 148.28253 0 1 1.78885438,-1.1055728 z"
         style="fill:context-stroke;fill-rule:evenodd;stroke:none"
         id="path8-9" /></marker><marker
       style="overflow:visible"
       id="RoundedArrow"
       refX="0"
       refY="0"
       orient="auto-start-reverse"
       inkscape:stockid="Rounded arrow"
       markerWidth="1"
       markerHeight="1"
       viewBox="0 0 1 1"
       inkscape:isstock="true"
       inkscape:collect="always"
       preserveAspectRatio="xMidYMid"><path
         transform="scale(0.7)"
         d="m -0.21114562,-4.1055728 6.42229122,3.21114561 a 1,1 90 0 1 0,1.78885438 L -0.21114562,4.1055728 A 1.236068,1.236068 31.717474 0 1 -2,3 v -6 a 1.236068,1.236068 148.28253 0 1 1.78885438,-1.1055728 z"
         style="fill:context-stroke;fill-rule:evenodd;stroke:none"
         id="path8" /></marker></defs><g
     inkscape:label="Layer 1"
     inkscape:groupmode="layer"
     id="layer1"><path
       id="path1-3-0-2"
       style="fill:#ff6666;fill-opacity:1;stroke:#000000;stroke-width:0.265"
       d="m 27.70374,17.987283 c -0.886924,0.23765 -1.791776,1.250717 -1.554126,2.13764 0.237649,0.88692 1.527812,1.311834 2.414731,1.074184 0.88692,-0.237651 1.413258,-1.149296 1.17561,-2.036215 -0.237651,-0.886919 -1.149295,-1.413256 -2.036215,-1.175609 z"
       sodipodi:nodetypes="zzzzz" /><path
       id="path1-3-1-5-8-0-8-0-6-0"
       style="fill:url(#linearGradient1);fill-opacity:1;stroke:none;stroke-width:0.265"
       d="m 27.048803,15.484885 c -0.09516,2.827765 -0.469799,2.138021 -0.825843,3.761353 0.284091,0.913731 2.501133,0.374998 3.434497,0.164162 0.07444,-1.980619 -0.436629,-3.030091 -0.927864,-3.912315 -0.491235,-0.882224 -1.668313,-3.24896 -1.68079,-0.0132 z"
       sodipodi:nodetypes="zcczz" /><path
       style="fill:#999999;fill-opacity:1;stroke:none;stroke-width:0.264999;stroke-dasharray:none;stroke-opacity:1"
       d="m 6.670662,10.761724 c 0.1826736,-0.188328 0.4246779,-0.308142 0.5441409,-0.174016 0.834363,0.936809 2.4721584,2.586597 2.8090921,3.53001 0.789795,0.170561 0.906403,-1.14524 1.872007,-0.916941 0.837443,0.197997 1.225009,1.719062 1.05758,2.257034 -0.08367,0.268825 -1.068118,0.399658 -1.043694,0.119167 0.05667,-0.650843 0.0034,-0.657704 -0.196724,-1.196497 -0.487813,0.161402 -1.118618,1.312851 -1.646351,1.531248 -0.4123627,0.419717 0.55097,1.085867 1.049285,1.852294 0.546492,-0.238603 0.952981,-0.280916 1.833108,-0.443166 0.180696,0.215916 0.507338,0.966057 0.180722,1.061658 -0.898314,0.262944 -1.93274,0.55758 -2.387074,0.352893 C 10.199183,18.490515 8.4475392,16.664992 8.2740977,15.875819 7.3294576,15.542334 5.6715092,13.910091 4.731656,13.079158 4.4625279,12.841212 5.2095654,12.112205 5.487103,12.340286 c 0.7994166,0.656956 2.0909947,1.789179 2.3574838,1.752576 0.1505748,-0.0207 0.2313938,-0.06714 0.2720703,-0.122912 0.055627,-0.04089 0.1027856,-0.124169 0.1229173,-0.274831 0.03562,-0.266629 -1.099616,-1.553577 -1.7594895,-2.350588 -0.1145507,-0.138347 0.0079,-0.394499 0.1905881,-0.582809 z"
       id="path4-4-5"
       sodipodi:nodetypes="ssscssccccsscscscssss" /><path
       id="path1-9-9"
       style="fill:#6666ff;fill-opacity:1;stroke:#000000;stroke-width:0.265"
       d="m 10.781169,14.363253 c 0.649271,0.64927 0.926364,1.97904 0.277095,2.62831 -0.649272,0.649271 -1.9790428,0.372176 -2.6283123,-0.277093 -0.6492693,-0.64927 -0.6492683,-1.701946 2e-7,-2.351216 0.6492725,-0.649271 1.7019471,-0.649272 2.3512171,-10e-7 z"
       sodipodi:nodetypes="zzzzz" /><path
       id="path1-7-1-2-6"
       style="fill:#ffffff;stroke:#000000;stroke-width:0.265;stroke-dasharray:none"
       d="m 5.165347,12.027244 c 0.1465225,0.146525 0.3609473,0.683179 0.1056621,0.938463 -0.2552804,0.255281 -0.8269883,0.06081 -0.9735098,-0.08572 -0.1465225,-0.146524 -0.3225451,-0.223168 0.1861448,-0.70165 0.5086924,-0.478485 0.535157,-0.297657 0.6817032,-0.151095 z"
       sodipodi:nodetypes="ssszs" /><path
       id="path1-7-1-9-0-2"
       style="fill:#ffffff;stroke:#000000;stroke-width:0.265;stroke-dasharray:none"
       d="m 6.935142,10.288237 c 0.1465224,0.146524 0.3609467,0.683178 0.105662,0.938462 -0.2552804,0.255282 -0.8269883,0.06081 -0.9735107,-0.08572 C 5.9207719,10.994457 5.7447493,10.917813 6.2534396,10.43933 6.7621319,9.9608454 6.7885965,10.141673 6.9351422,10.288233 Z"
       sodipodi:nodetypes="ssszs" /><ellipse
       style="fill:#ffffff;fill-opacity:1;stroke:#000000;stroke-width:0.265;stroke-dasharray:none;stroke-opacity:1"
       id="path1-7-2-9-9-1-6-1"
       cx="-11.74002"
       cy="16.400909"
       rx="0.65429264"
       ry="0.80279088"
       transform="matrix(-0.99896072,0.04557936,0.04557936,0.99896072,0,0)" /><path
       id="path1-3-0"
       style="fill:#4d4d4d;fill-opacity:1;stroke:#000000;stroke-width:0.265"
       d="m 16.796068,17.987283 c -0.886924,0.23765 -1.791776,1.250717 -1.554126,2.13764 0.237649,0.88692 1.527812,1.311834 2.414731,1.074184 0.88692,-0.237651 1.413258,-1.149296 1.17561,-2.036215 -0.237651,-0.886919 -1.149295,-1.413256 -2.036215,-1.175609 z"
       sodipodi:nodetypes="zzzzz" /><path
       style="fill:#999999;fill-opacity:1;stroke:none;stroke-width:0.264999;stroke-dasharray:none;stroke-opacity:1"
       d="m 17.578334,10.761724 c 0.182674,-0.188328 0.424678,-0.308142 0.544141,-0.174016 0.834363,0.936809 2.472158,2.586597 2.809092,3.53001 0.789795,0.170561 0.906403,-1.14524 1.872007,-0.916941 0.837443,0.197997 1.225009,1.719062 1.05758,2.257034 -0.08367,0.268825 -1.068118,0.399658 -1.043694,0.119167 0.05667,-0.650843 0.0034,-0.657704 -0.196724,-1.196497 -0.487813,0.161402 -1.118618,1.312851 -1.646351,1.531248 -0.412363,0.419717 0.55097,1.085867 1.049285,1.852294 0.546492,-0.238603 0.952981,-0.280916 1.833108,-0.443166 0.180696,0.215916 0.507338,0.966057 0.180722,1.061658 -0.898314,0.262944 -1.93274,0.55758 -2.387074,0.352893 -0.543571,-0.244893 -2.295215,-2.070416 -2.468656,-2.859589 -0.94464,-0.333485 -2.602588,-1.965728 -3.542442,-2.796661 -0.269128,-0.237946 0.47791,-0.966953 0.755447,-0.738872 0.799417,0.656956 2.090995,1.789179 2.357484,1.752576 0.150575,-0.0207 0.231394,-0.06714 0.27207,-0.122912 0.05563,-0.04089 0.102786,-0.124169 0.122918,-0.274831 0.03562,-0.266629 -1.099616,-1.553577 -1.75949,-2.350588 -0.114551,-0.138347 0.0079,-0.394499 0.190588,-0.582809 z"
       id="path4-4-5-7"
       sodipodi:nodetypes="ssscssccccsscscscssss" /><path
       id="path1-9-9-2"
       style="fill:#66ff66;fill-opacity:1;stroke:#000000;stroke-width:0.265"
       d="m 21.688841,14.363253 c 0.649271,0.64927 0.926364,1.97904 0.277095,2.62831 -0.649272,0.649271 -1.979043,0.372176 -2.628312,-0.277093 -0.649269,-0.64927 -0.649268,-1.701946 0,-2.351216 0.649273,-0.649271 1.701947,-0.649272 2.351217,-10e-7 z"
       sodipodi:nodetypes="zzzzz" /><path
       id="path1-7-1-2-6-6"
       style="fill:#ffffff;stroke:#000000;stroke-width:0.265;stroke-dasharray:none"
       d="m 16.073019,12.027244 c 0.146523,0.146525 0.360948,0.683179 0.105662,0.938463 -0.25528,0.255281 -0.826988,0.06081 -0.973509,-0.08572 -0.146523,-0.146524 -0.322545,-0.223168 0.186144,-0.70165 0.508693,-0.478485 0.535157,-0.297657 0.681704,-0.151095 z"
       sodipodi:nodetypes="ssszs" /><path
       id="path1-7-1-9-0-2-4"
       style="fill:#ffffff;stroke:#000000;stroke-width:0.265;stroke-dasharray:none"
       d="m 17.842814,10.288237 c 0.146523,0.146524 0.360947,0.683178 0.105662,0.938462 -0.25528,0.255282 -0.826988,0.06081 -0.97351,-0.08572 -0.146522,-0.146522 -0.322544,-0.223166 0.186146,-0.701649 0.508692,-0.4784856 0.535157,-0.297658 0.681702,-0.151097 z"
       sodipodi:nodetypes="ssszs" /><ellipse
       style="fill:#ffffff;fill-opacity:1;stroke:#000000;stroke-width:0.265;stroke-dasharray:none;stroke-opacity:1"
       id="path1-7-2-9-9-1-6-1-5"
       cx="-22.63636"
       cy="16.898079"
       rx="0.65429264"
       ry="0.80279088"
       transform="matrix(-0.99896072,0.04557936,0.04557936,0.99896072,0,0)" /><path
       style="fill:#999999;fill-opacity:1;stroke:none;stroke-width:0.264999;stroke-dasharray:none;stroke-opacity:1"
       d="m 16.191406,8.9042969 c -0.292488,-0.00827 -0.617135,0.09905 -0.605468,0.3007812 0.07244,1.2524069 0.553411,3.1382009 0.320312,4.0820309 -0.120106,-0.27365 -0.294555,-0.773353 -0.566406,-1.144531 0.09834,-0.544588 0.0762,-1.898714 -0.416016,-1.933594 -1.02704,-0.07279 -0.519195,2.170074 -0.447265,2.554688 0.07753,0.414549 0.906173,1.730579 1.164062,1.787109 0.485265,0.106378 1.335063,0.124264 1.855469,0.123047 0.520398,0.0031 1.371771,-0.01063 1.857422,-0.115234 0.258093,-0.05559 1.090876,-1.36894 1.169921,-1.783203 0.07334,-0.384349 0.5898,-2.625677 -0.4375,-2.556641 -0.492341,0.03308 -0.518224,1.386697 -0.421875,1.931641 -0.273205,0.370182 -0.449207,0.869369 -0.570312,1.142578 -0.229648,-0.944676 0.256969,-2.827944 0.333984,-4.0800784 0.02205,-0.3585544 -1.019715,-0.4239314 -1.054687,-0.066406 -0.05036,0.5149057 -0.184378,0.6272927 -0.117188,1.1562496 -0.217322,0.452837 -0.511517,1.061298 -0.58789,1.654297 -0.05913,0.02209 -0.114606,0.02958 -0.166016,0.0293 -0.05141,9.3e-5 -0.106965,-0.0089 -0.166016,-0.03125 -0.07421,-0.593274 -0.366365,-1.200669 -0.582031,-1.654297 0.06912,-0.5287079 -0.0648,-0.6411634 -0.113281,-1.1562497 -0.01473,-0.1564722 -0.221728,-0.2338059 -0.449219,-0.2402344 z"
       id="path4-6-3-2-0"
       sodipodi:nodetypes="sccscccccsss"
       transform="rotate(-105,25.142784,12.482765)"
       inkscape:original-d="m 14.924313,10.209901 c 0.492217,0.03488 0.51354,1.387545 0.4152,1.932133 0.271851,0.371178 0.44621,0.871112 0.566316,1.144762 0.233099,-0.94383 -0.2482,-2.828724 -0.320639,-4.081131 -0.02074,-0.3586326 1.022151,-0.4192286 1.055816,-0.061578 0.04848,0.5150863 0.182149,0.6270618 0.113026,1.15577 0.215666,0.453628 0.5075,1.06247 0.581706,1.655744 0.335179,0.12662 0.556797,-0.171236 0.556797,-0.171236 l 0.05085,2.882759 c 0,0 -1.568763,0.04531 -2.3026,-0.115559 -0.257889,-0.05653 -1.085797,-1.373618 -1.163328,-1.788167 -0.07193,-0.384614 -0.580184,-2.626287 0.446856,-2.553497 z"
       inkscape:path-effect="#path-effect5-4-0-9-5-7-3" /><path
       id="path1-7-1-1-4-2"
       style="fill:#ffffff;stroke:#000000;stroke-width:0.265;stroke-dasharray:none"
       d="m 22.586707,22.482075 c -0.223399,-0.646889 0.934811,-0.772154 1.135522,-0.82366 0.200707,-0.0515 1.025365,-0.68466 1.242321,0.146935 0.263155,1.008771 -2.176641,1.25934 -2.377845,0.67672 z"
       sodipodi:nodetypes="sszs" /><ellipse
       style="fill:#ffffff;fill-opacity:1;stroke:#000000;stroke-width:0.265;stroke-dasharray:none;stroke-opacity:1"
       id="path1-7-2-9-9-8-7-0"
       cx="23.350878"
       cy="18.707314"
       rx="0.65429264"
       ry="0.80279088"
       transform="matrix(0.25881905,0.96592583,0.96592583,-0.25881905,0,0)" /><ellipse
       style="fill:#ffffff;fill-opacity:1;stroke:#000000;stroke-width:0.265;stroke-dasharray:none;stroke-opacity:1"
       id="path1-7-2-9-9-9"
       cx="-28.945677"
       cy="-18.59235"
       rx="0.65429264"
       ry="0.80279088"
       transform="matrix(-0.25881905,-0.96592583,-0.96592583,0.25881905,0,0)" /><path
       id="path1-3-1-5-8-0"
       style="fill:url(#linearGradient4);fill-opacity:1;stroke:none;stroke-width:0.265"
       d="m 16.735446,11.985447 c -1.029453,-0.736353 -2.887071,-2.9292526 -1.761245,-0.10293 1.125826,2.826323 0.303319,7.05492 0.369864,7.921897 0.702898,0.64927 2.698698,0.54566 3.401597,-0.10361 -0.0042,-0.801664 -0.980763,-6.979004 -2.010216,-7.715357 z"
       sodipodi:nodetypes="zzccz" /><path
       id="path1-3-1-5-8-0-6"
       style="fill:url(#linearGradient6);fill-opacity:1;stroke:none;stroke-width:0.265"
       d="m 21.013138,23.182271 c 1.029453,0.736353 2.887071,2.929253 1.761245,0.10293 -1.125826,-2.826323 -0.531362,-6.469077 -0.597907,-7.336054 -0.702898,-0.64927 -2.483795,-1.060617 -3.186694,-0.411342 0.0042,0.801664 0.993903,6.908118 2.023356,7.644471 z"
       sodipodi:nodetypes="zzcczz" /><path
       style="fill:#999999;fill-opacity:1;stroke:none;stroke-width:0.264999;stroke-dasharray:none;stroke-opacity:1"
       d="m 16.191406,8.9042969 c -0.292488,-0.00827 -0.617135,0.09905 -0.605468,0.3007812 0.07244,1.2524069 0.553411,3.1382009 0.320312,4.0820309 -0.120106,-0.27365 -0.294555,-0.773353 -0.566406,-1.144531 0.09834,-0.544588 0.0762,-1.898714 -0.416016,-1.933594 -1.02704,-0.07279 -0.519195,2.170074 -0.447265,2.554688 0.07753,0.414549 0.906173,1.730579 1.164062,1.787109 0.485265,0.106378 1.335063,0.124264 1.855469,0.123047 0.520398,0.0031 1.371771,-0.01063 1.857422,-0.115234 0.258093,-0.05559 1.090876,-1.36894 1.169921,-1.783203 0.07334,-0.384349 0.5898,-2.625677 -0.4375,-2.556641 -0.492341,0.03308 -0.518224,1.386697 -0.421875,1.931641 -0.273205,0.370182 -0.449207,0.869369 -0.570312,1.142578 -0.229648,-0.944676 0.256969,-2.827944 0.333984,-4.0800784 0.02205,-0.3585544 -1.019715,-0.4239314 -1.054687,-0.066406 -0.05036,0.5149057 -0.184378,0.6272927 -0.117188,1.1562496 -0.217322,0.452837 -0.511517,1.061298 -0.58789,1.654297 -0.05913,0.02209 -0.114606,0.02958 -0.166016,0.0293 -0.05141,9.3e-5 -0.106965,-0.0089 -0.166016,-0.03125 -0.07421,-0.593274 -0.366365,-1.200669 -0.582031,-1.654297 0.06912,-0.5287079 -0.0648,-0.6411634 -0.113281,-1.1562497 -0.01473,-0.1564722 -0.221728,-0.2338059 -0.449219,-0.2402344 z"
       id="path4-6-3-2"
       sodipodi:nodetypes="sccscccccsss"
       transform="rotate(-105,19.688948,16.667641)"
       inkscape:original-d="m 14.924313,10.209901 c 0.492217,0.03488 0.51354,1.387545 0.4152,1.932133 0.271851,0.371178 0.44621,0.871112 0.566316,1.144762 0.233099,-0.94383 -0.2482,-2.828724 -0.320639,-4.081131 -0.02074,-0.3586326 1.022151,-0.4192286 1.055816,-0.061578 0.04848,0.5150863 0.182149,0.6270618 0.113026,1.15577 0.215666,0.453628 0.5075,1.06247 0.581706,1.655744 0.335179,0.12662 0.556797,-0.171236 0.556797,-0.171236 l 0.05085,2.882759 c 0,0 -1.568763,0.04531 -2.3026,-0.115559 -0.257889,-0.05653 -1.085797,-1.373618 -1.163328,-1.788167 -0.07193,-0.384614 -0.580184,-2.626287 0.446856,-2.553497 z"
       inkscape:path-effect="#path-effect5-4-0-9-5-7" /><path
       id="path1-7-1-1-4-5"
       style="fill:#ffffff;stroke:#000000;stroke-width:0.265;stroke-dasharray:none"
       d="m 10.977798,19.865021 c 0.129975,0.671922 1.195647,0.201299 1.39522,0.145549 0.199569,-0.05575 1.230323,0.08025 1.002413,-0.748409 -0.276486,-1.0052 -2.514696,-0.0023 -2.397633,0.602865 z"
       sodipodi:nodetypes="sszs" /><path
       id="path1-7-1-1-4"
       style="fill:#ffffff;stroke:#000000;stroke-width:0.265;stroke-dasharray:none"
       d="m 11.679035,22.482075 c -0.223399,-0.646889 0.934811,-0.772154 1.135522,-0.82366 0.200707,-0.0515 1.025365,-0.68466 1.242321,0.146935 0.263155,1.008771 -2.176641,1.25934 -2.377845,0.67672 z"
       sodipodi:nodetypes="sszs" /><ellipse
       style="fill:#ffffff;fill-opacity:1;stroke:#000000;stroke-width:0.265;stroke-dasharray:none;stroke-opacity:1"
       id="path1-7-2-9-9"
       cx="-26.122566"
       cy="-8.0563364"
       rx="0.65429264"
       ry="0.80279088"
       transform="matrix(-0.25881905,-0.96592583,-0.96592583,0.25881905,0,0)" /><ellipse
       style="fill:#ffffff;fill-opacity:1;stroke:#000000;stroke-width:0.265;stroke-dasharray:none;stroke-opacity:1"
       id="path1-7-2-9-9-8-7"
       cx="20.527771"
       cy="8.1712999"
       rx="0.65429264"
       ry="0.80279088"
       transform="matrix(0.25881905,0.96592583,0.96592583,-0.25881905,0,0)" /><path
       id="path1-3-1-5-8-0-8-0-6"
       style="fill:url(#linearGradient3);fill-opacity:1;stroke:none;stroke-width:0.265"
       d="m 10.471774,20.03741 c 0.09516,-2.827765 0.458914,-2.366612 0.814958,-3.989944 -0.284091,-0.913731 -2.2616565,-0.6689 -3.1950205,-0.458064 -0.074435,1.980619 0.2080379,3.552584 0.6992733,4.434808 0.4912354,0.882224 1.6683122,3.24896 1.6807892,0.0132 z"
       sodipodi:nodetypes="zcczz" /><path
       id="path2"
       style="fill:none;stroke:#000000;stroke-width:0.2;stroke-dasharray:none;stroke-opacity:1;marker-end:url(#RoundedArrow)"
       d="m 23.84154,10.456856 c 1.330102,-0.124222 4.889444,0.418477 6.567558,3.923792"
       sodipodi:nodetypes="cc" /><text
       xml:space="preserve"
       style="font-size:3.175px;text-align:start;writing-mode:lr-tb;direction:ltr;text-anchor:start;fill:#000000;fill-opacity:1;stroke:none;stroke-width:0.2;stroke-dasharray:none;stroke-opacity:1"
       x="18.635992"
       y="9.5739498"
       id="text5"><tspan
         sodipodi:role="line"
         id="tspan5"
         style="font-style:normal;font-variant:normal;font-weight:bold;font-stretch:normal;font-family:'Bitstream Vera Sans';-inkscape-font-specification:'Bitstream Vera Sans Bold';fill:#000000;fill-opacity:1;stroke:none;stroke-width:0.2"
         x="18.635992"
         y="9.5739498">360</tspan></text><path
       id="path2-2"
       style="fill:none;stroke:#000000;stroke-width:0.2;stroke-dasharray:none;stroke-opacity:1;marker-end:url(#RoundedArrow-6)"
       d="M 13.915551,26.203023 C 12.585449,26.327245 9.0261085,25.784548 7.347994,22.279232"
       sodipodi:nodetypes="cc" /><text
       xml:space="preserve"
       style="font-size:3.175px;text-align:start;writing-mode:lr-tb;direction:ltr;text-anchor:start;fill:#000000;fill-opacity:1;stroke:none;stroke-width:0.2;stroke-dasharray:none;stroke-opacity:1"
       x="12.346057"
       y="29.440958"
       id="text5-8"><tspan
         sodipodi:role="line"
         id="tspan5-2"
         style="font-style:normal;font-variant:normal;font-weight:bold;font-stretch:normal;font-family:'Bitstream Vera Sans';-inkscape-font-specification:'Bitstream Vera Sans Bold';fill:#000000;fill-opacity:1;stroke:none;stroke-width:0.2"
         x="12.346057"
         y="29.440958">360</tspan></text><path
       id="path1-7-1-1-4-5-9"
       style="fill:#ffffff;stroke:#000000;stroke-width:0.265;stroke-dasharray:none"
       d="m 21.88547,19.865021 c 0.129975,0.671922 1.195647,0.201299 1.39522,0.145549 0.199569,-0.05575 1.230323,0.08025 1.002413,-0.748409 -0.276486,-1.0052 -2.514696,-0.0023 -2.397633,0.602865 z"
       sodipodi:nodetypes="sszs" /></g></svg>
