<?xml version="1.0" encoding="UTF-8" standalone="no"?>
<!-- Created with Inkscape (http://www.inkscape.org/) -->

<svg
   width="35mm"
   height="35mm"
   viewBox="0 0 35 35"
   version="1.1"
   id="svg1"
   xml:space="preserve"
   inkscape:version="1.4 (e7c3feb100, 2024-10-09)"
   sodipodi:docname="5_p4.svg"
   xmlns:inkscape="http://www.inkscape.org/namespaces/inkscape"
   xmlns:sodipodi="http://sodipodi.sourceforge.net/DTD/sodipodi-0.dtd"
   xmlns="http://www.w3.org/2000/svg"
   xmlns:svg="http://www.w3.org/2000/svg"><sodipodi:namedview
     id="namedview1"
     pagecolor="#ffffff"
     bordercolor="#000000"
     borderopacity="0.25"
     inkscape:showpageshadow="2"
     inkscape:pageopacity="0.0"
     inkscape:pagecheckerboard="0"
     inkscape:deskcolor="#d1d1d1"
     inkscape:document-units="mm"
     inkscape:zoom="2.1484167"
     inkscape:cx="114.50293"
     inkscape:cy="102.40099"
     inkscape:window-width="1290"
     inkscape:window-height="761"
     inkscape:window-x="0"
     inkscape:window-y="0"
     inkscape:window-maximized="0"
     inkscape:current-layer="layer1" /><defs
     id="defs1"><inkscape:path-effect
       effect="mirror_symmetry"
       start_point="17.297909,16.234992"
       end_point="17.313303,7.810326"
       center_point="17.305606,12.022659"
       id="path-effect5"
       is_visible="true"
       lpeversion="1.2"
       lpesatellites=""
       mode="free"
       discard_orig_path="false"
       fuse_paths="true"
       oposite_fuse="false"
       split_items="false"
       split_open="false"
       link_styles="false" /><inkscape:path-effect
       effect="mirror_symmetry"
       start_point="17.297909,16.234992"
       end_point="17.313303,7.810326"
       center_point="17.305606,12.022659"
       id="path-effect5-7"
       is_visible="true"
       lpeversion="1.2"
       lpesatellites=""
       mode="free"
       discard_orig_path="false"
       fuse_paths="true"
       oposite_fuse="false"
       split_items="false"
       split_open="false"
       link_styles="false" /><inkscape:path-effect
       effect="mirror_symmetry"
       start_point="17.297909,16.234992"
       end_point="17.313303,7.810326"
       center_point="17.305606,12.022659"
       id="path-effect5-6"
       is_visible="true"
       lpeversion="1.2"
       lpesatellites=""
       mode="free"
       discard_orig_path="false"
       fuse_paths="true"
       oposite_fuse="false"
       split_items="false"
       split_open="false"
       link_styles="false" /><inkscape:path-effect
       effect="mirror_symmetry"
       start_point="17.297909,16.234992"
       end_point="17.313303,7.810326"
       center_point="17.305606,12.022659"
       id="path-effect5-3"
       is_visible="true"
       lpeversion="1.2"
       lpesatellites=""
       mode="free"
       discard_orig_path="false"
       fuse_paths="true"
       oposite_fuse="false"
       split_items="false"
       split_open="false"
       link_styles="false" /><inkscape:path-effect
       effect="mirror_symmetry"
       start_point="17.297909,16.234992"
       end_point="17.313303,7.810326"
       center_point="17.305606,12.022659"
       id="path-effect5-66"
       is_visible="true"
       lpeversion="1.2"
       lpesatellites=""
       mode="free"
       discard_orig_path="false"
       fuse_paths="true"
       oposite_fuse="false"
       split_items="false"
       split_open="false"
       link_styles="false" /><inkscape:path-effect
       effect="mirror_symmetry"
       start_point="17.297909,16.234992"
       end_point="17.313303,7.810326"
       center_point="17.305606,12.022659"
       id="path-effect5-4"
       is_visible="true"
       lpeversion="1.2"
       lpesatellites=""
       mode="free"
       discard_orig_path="false"
       fuse_paths="true"
       oposite_fuse="false"
       split_items="false"
       split_open="false"
       link_styles="false" /><inkscape:path-effect
       effect="mirror_symmetry"
       start_point="17.297909,16.234992"
       end_point="17.313303,7.810326"
       center_point="17.305606,12.022659"
       id="path-effect5-4-7"
       is_visible="true"
       lpeversion="1.2"
       lpesatellites=""
       mode="free"
       discard_orig_path="false"
       fuse_paths="true"
       oposite_fuse="false"
       split_items="false"
       split_open="false"
       link_styles="false" /><inkscape:path-effect
       effect="mirror_symmetry"
       start_point="17.297909,16.234992"
       end_point="17.313303,7.810326"
       center_point="17.305606,12.022659"
       id="path-effect5-41"
       is_visible="true"
       lpeversion="1.2"
       lpesatellites=""
       mode="free"
       discard_orig_path="false"
       fuse_paths="true"
       oposite_fuse="false"
       split_items="false"
       split_open="false"
       link_styles="false" /><inkscape:path-effect
       effect="mirror_symmetry"
       start_point="17.297909,16.234992"
       end_point="17.313303,7.810326"
       center_point="17.305606,12.022659"
       id="path-effect5-62"
       is_visible="true"
       lpeversion="1.2"
       lpesatellites=""
       mode="free"
       discard_orig_path="false"
       fuse_paths="true"
       oposite_fuse="false"
       split_items="false"
       split_open="false"
       link_styles="false" /><inkscape:path-effect
       effect="mirror_symmetry"
       start_point="17.297909,16.234992"
       end_point="17.313303,7.810326"
       center_point="17.305606,12.022659"
       id="path-effect5-4-9"
       is_visible="true"
       lpeversion="1.2"
       lpesatellites=""
       mode="free"
       discard_orig_path="false"
       fuse_paths="true"
       oposite_fuse="false"
       split_items="false"
       split_open="false"
       link_styles="false" /><inkscape:path-effect
       effect="mirror_symmetry"
       start_point="17.493844,16.300304"
       end_point="17.509238,7.875638"
       center_point="17.501541,12.087971"
       id="path-effect5-4-0-9-72-8"
       is_visible="true"
       lpeversion="1.2"
       lpesatellites=""
       mode="free"
       discard_orig_path="false"
       fuse_paths="true"
       oposite_fuse="false"
       split_items="false"
       split_open="false"
       link_styles="false" /><inkscape:path-effect
       effect="mirror_symmetry"
       start_point="17.493844,16.300304"
       end_point="17.509238,7.875638"
       center_point="17.501541,12.087971"
       id="path-effect5-4-0-9-72-8-3"
       is_visible="true"
       lpeversion="1.2"
       lpesatellites=""
       mode="free"
       discard_orig_path="false"
       fuse_paths="true"
       oposite_fuse="false"
       split_items="false"
       split_open="false"
       link_styles="false" /><inkscape:path-effect
       effect="mirror_symmetry"
       start_point="17.493844,16.300304"
       end_point="17.509238,7.875638"
       center_point="17.501541,12.087971"
       id="path-effect5-4-0-9-5-7"
       is_visible="true"
       lpeversion="1.2"
       lpesatellites=""
       mode="free"
       discard_orig_path="false"
       fuse_paths="true"
       oposite_fuse="false"
       split_items="false"
       split_open="false"
       link_styles="false" /><inkscape:path-effect
       effect="mirror_symmetry"
       start_point="17.493844,16.300304"
       end_point="17.509238,7.875638"
       center_point="17.501541,12.087971"
       id="path-effect5-4-0-9-5-7-4"
       is_visible="true"
       lpeversion="1.2"
       lpesatellites=""
       mode="free"
       discard_orig_path="false"
       fuse_paths="true"
       oposite_fuse="false"
       split_items="false"
       split_open="false"
       link_styles="false" /><inkscape:path-effect
       effect="mirror_symmetry"
       start_point="17.297909,16.234992"
       end_point="17.313303,7.810326"
       center_point="17.305606,12.022659"
       id="path-effect5-4-78"
       is_visible="true"
       lpeversion="1.2"
       lpesatellites=""
       mode="free"
       discard_orig_path="false"
       fuse_paths="true"
       oposite_fuse="false"
       split_items="false"
       split_open="false"
       link_styles="false" /><inkscape:path-effect
       effect="mirror_symmetry"
       start_point="17.493844,16.300304"
       end_point="17.509238,7.875638"
       center_point="17.501541,12.087971"
       id="path-effect5-4-0-9-5-7-9"
       is_visible="true"
       lpeversion="1.2"
       lpesatellites=""
       mode="free"
       discard_orig_path="false"
       fuse_paths="true"
       oposite_fuse="false"
       split_items="false"
       split_open="false"
       link_styles="false" /></defs><g
     inkscape:label="Layer 1"
     inkscape:groupmode="layer"
     id="layer1"><path
       style="fill:#999999;fill-opacity:1;stroke:none;stroke-width:0.264999;stroke-dasharray:none;stroke-opacity:1"
       d="m 16.0625,7.5585937 c -0.262338,-0.00397 -0.518182,0.082402 -0.507812,0.2617188 0.07244,1.2524069 0.08092,3.5770765 0.509765,4.4824215 -0.437864,0.679074 -1.494271,1.202659 -2.015625,2.046875 -0.452157,0.732168 -0.02075,1.907611 0.216797,3.083985 0.05573,0.275974 0.796346,0.47567 0.822266,0.195312 0.10928,-1.18211 0.09766,-2.857422 0.09766,-2.857422 0.891495,-0.529723 1.646191,-0.910531 2.117187,-1.134765 0.470175,0.225954 1.221775,0.607646 2.111328,1.140625 0,0 -0.01512,1.676873 0.08984,2.859375 0.0249,0.280451 0.76553,0.08241 0.822266,-0.19336 0.241841,-1.175498 0.677994,-2.348215 0.228515,-3.082031 -0.518265,-0.846116 -1.574386,-1.372065 -2.009765,-2.052734 0.432152,-0.903772 0.450328,-3.2302883 0.527344,-4.4824221 0.02205,-0.3585544 -1.02167,-0.3458071 -1.056641,0.011719 -0.100734,1.0298107 -0.213416,2.7436984 -0.427734,2.9062504 -0.121107,0.09185 -0.211094,0.116149 -0.279297,0.105468 -0.06824,0.01043 -0.16048,-0.01512 -0.28125,-0.107421 C 16.813621,10.578854 16.706345,8.8661094 16.609375,7.8359375 16.592543,7.6571119 16.324839,7.5625647 16.0625,7.5585937 Z"
       id="path4-6"
       sodipodi:nodetypes="ssscssscccs"
       transform="rotate(75,14.734117,20.003737)"
       inkscape:original-d="m 15.087222,17.628795 c -0.02592,0.280358 -0.765893,0.08004 -0.821621,-0.195934 -0.237544,-1.176374 -0.668956,-2.351745 -0.216799,-3.083913 0.521354,-0.844216 1.577933,-1.366261 2.015797,-2.045335 -0.428846,-0.905345 -0.437758,-3.2310091 -0.510197,-4.483416 -0.02074,-0.3586326 1.022152,-0.3422582 1.055816,0.015393 0.09697,1.0301719 0.203913,2.743905 0.417636,2.907239 0.427544,0.326742 0.480507,-0.179347 0.480507,-0.179347 l 0.318037,2.834014 c 0,0 -1.119704,0.469749 -2.639983,1.373094 0,0 0.01009,1.676095 -0.09919,2.858205 z"
       inkscape:path-effect="#path-effect5-4-78" /><path
       style="fill:#999999;fill-opacity:1;stroke:none;stroke-width:0.264999;stroke-dasharray:none;stroke-opacity:1"
       d="m 17.324549,4.8473347 c -0.252364,-0.07176 -0.521853,-0.05452 -0.558248,0.121368 -0.254175,1.228482 -0.847653,3.476137 -0.66774,4.461624 -0.598702,0.542608 -1.357588,-0.538605 -2.079676,0.141909 -0.626248,0.5901923 -0.201358,2.1012563 0.212626,2.4834393 0.206873,0.190974 1.124846,-0.187945 0.963449,-0.418646 -0.3745,-0.535311 -0.331797,-0.567888 -0.427881,-1.134558 0.50316,-0.104129 1.625177,0.577653 2.191406,0.502924 0.566975,0.157304 0.06578,1.215873 0.01744,2.128776 -0.592578,0.06661 -0.965764,0.23321 -1.809101,0.532761 -0.04853,0.277337 0.04366,1.090299 0.374319,1.009784 0.909434,-0.221441 1.952592,-0.483492 2.243713,-0.887923 0.3483,-0.483869 0.952506,-2.94064 0.708124,-3.710805 0.65134,-0.7611263 1.271044,-3.0036643 1.669514,-4.1932003 0.114099,-0.340631 -0.897358,-0.598451 -1.023672,-0.262158 -0.363837,0.968649 -0.916265,2.594972 -1.165353,2.696517 -0.140752,0.05736 -0.233964,0.05755 -0.297076,0.02959 -0.06862,-0.0076 -0.151099,-0.05614 -0.243865,-0.176552 -0.164162,-0.213097 0.175507,-1.895245 0.348469,-2.915413 0.03003,-0.177088 -0.204091,-0.337697 -0.456459,-0.409434 z"
       id="path4-4-5"
       sodipodi:nodetypes="ssscssccccsscscscssss" /><path
       id="path1-9-9"
       style="fill:#4d4d4d;fill-opacity:1;stroke:#000000;stroke-width:0.265"
       d="m 15.56551,10.021603 c -0.23765,0.88692 0.187265,2.177081 1.074184,2.414731 0.886921,0.237649 1.899989,-0.667207 2.137638,-1.554126 0.237649,-0.8869183 -0.28869,-1.7985623 -1.175608,-2.0362123 -0.886922,-0.237649 -1.798565,0.288687 -2.036214,1.1756073 z"
       sodipodi:nodetypes="zzzzz" /><path
       id="path1-7-1-2-6"
       style="fill:#ffffff;stroke:#000000;stroke-width:0.265;stroke-dasharray:none"
       d="m 19.26095,5.1906497 c -0.05363,0.200155 0.029,0.772124 0.377725,0.865563 0.34872,0.09344 0.746598,-0.360831 0.800224,-0.560991 0.05363,-0.200155 0.167748,-0.354542 -0.512031,-0.514574 -0.679783,-0.160034 -0.612288,0.0098 -0.66592,0.209999 z"
       sodipodi:nodetypes="ssszs" /><path
       id="path1-7-1-9-0-2"
       style="fill:#ffffff;stroke:#000000;stroke-width:0.265;stroke-dasharray:none"
       d="m 16.858759,4.5695227 c -0.05363,0.200155 0.029,0.772123 0.377725,0.865563 0.34872,0.09344 0.746598,-0.360831 0.800225,-0.560991 0.05363,-0.200153 0.167748,-0.35454 -0.512032,-0.514573 -0.679783,-0.160034 -0.612288,0.0098 -0.66592,0.209998 z"
       sodipodi:nodetypes="ssszs" /><ellipse
       style="fill:#ffffff;fill-opacity:1;stroke:#000000;stroke-width:0.265;stroke-dasharray:none;stroke-opacity:1"
       id="path1-7-2-9-9-1-6-1"
       cx="7.5861149"
       cy="17.619764"
       rx="0.65429264"
       ry="0.80279088"
       transform="rotate(-27.38759)" /><path
       id="path1-3-0"
       style="fill:#6666ff;fill-opacity:1;stroke:#000000;stroke-width:0.265"
       d="m 12.16847,16.167555 c 0.886923,-0.237651 2.177082,0.187264 2.414732,1.074187 0.23765,0.88692 -0.667207,1.899988 -1.554126,2.137637 -0.886921,0.237648 -1.798565,-0.288691 -2.036216,-1.175609 -0.237647,-0.88692 0.288691,-1.798563 1.17561,-2.036215 z"
       sodipodi:nodetypes="zzzzz" /><path
       style="fill:#999999;fill-opacity:1;stroke:none;stroke-width:0.264999;stroke-dasharray:none;stroke-opacity:1"
       d="m 16.191406,8.9042969 c -0.292488,-0.00827 -0.617135,0.09905 -0.605468,0.3007812 0.07244,1.2524069 0.553411,3.1382009 0.320312,4.0820309 -0.120106,-0.27365 -0.294555,-0.773353 -0.566406,-1.144531 0.09834,-0.544588 0.0762,-1.898714 -0.416016,-1.933594 -1.02704,-0.07279 -0.519195,2.170074 -0.447265,2.554688 0.07753,0.414549 0.906173,1.730579 1.164062,1.787109 0.485265,0.106378 1.335063,0.124264 1.855469,0.123047 0.520398,0.0031 1.371771,-0.01063 1.857422,-0.115234 0.258093,-0.05559 1.090876,-1.36894 1.169921,-1.783203 0.07334,-0.384349 0.5898,-2.625677 -0.4375,-2.556641 -0.492341,0.03308 -0.518224,1.386697 -0.421875,1.931641 -0.273205,0.370182 -0.449207,0.869369 -0.570312,1.142578 -0.229648,-0.944676 0.256969,-2.827944 0.333984,-4.0800784 0.02205,-0.3585544 -1.019715,-0.4239314 -1.054687,-0.066406 -0.05036,0.5149057 -0.184378,0.6272927 -0.117188,1.1562496 -0.217322,0.452837 -0.511517,1.061298 -0.58789,1.654297 -0.05913,0.02209 -0.114606,0.02958 -0.166016,0.0293 -0.05141,9.3e-5 -0.106965,-0.0089 -0.166016,-0.03125 -0.07421,-0.593274 -0.366365,-1.200669 -0.582031,-1.654297 0.06912,-0.5287079 -0.0648,-0.6411634 -0.113281,-1.1562497 -0.01473,-0.1564722 -0.221728,-0.2338059 -0.449219,-0.2402344 z"
       id="path4-6-3-2"
       sodipodi:nodetypes="sccscccccsss"
       transform="matrix(-0.25881904,-0.96592582,-0.96592582,0.25881904,30.198922,31.175312)"
       inkscape:original-d="m 14.924313,10.209901 c 0.492217,0.03488 0.51354,1.387545 0.4152,1.932133 0.271851,0.371178 0.44621,0.871112 0.566316,1.144762 0.233099,-0.94383 -0.2482,-2.828724 -0.320639,-4.081131 -0.02074,-0.3586326 1.022151,-0.4192286 1.055816,-0.061578 0.04848,0.5150863 0.182149,0.6270618 0.113026,1.15577 0.215666,0.453628 0.5075,1.06247 0.581706,1.655744 0.335179,0.12662 0.556797,-0.171236 0.556797,-0.171236 l 0.05085,2.882759 c 0,0 -1.568763,0.04531 -2.3026,-0.115559 -0.257889,-0.05653 -1.085797,-1.373618 -1.163328,-1.788167 -0.07193,-0.384614 -0.580184,-2.626287 0.446856,-2.553497 z"
       inkscape:path-effect="#path-effect5-4-0-9-5-7" /><path
       id="path1-7-1-1-4"
       style="fill:#ffffff;stroke:#000000;stroke-width:0.265;stroke-dasharray:none"
       d="m 18.847346,17.501642 c -0.129975,-0.671922 -1.195647,-0.201299 -1.39522,-0.145549 -0.19957,0.05575 -1.230323,-0.08025 -1.002414,0.74841 0.276486,1.005199 2.514696,0.0023 2.397634,-0.602866 z"
       sodipodi:nodetypes="sszs" /><path
       id="path1-7-1-1-4-5"
       style="fill:#ffffff;stroke:#000000;stroke-width:0.265;stroke-dasharray:none"
       d="m 18.146108,14.884589 c 0.2234,0.646889 -0.934811,0.772153 -1.135521,0.823659 -0.200709,0.0515 -1.025366,0.68466 -1.24232,-0.146935 -0.263156,-1.008772 2.176641,-1.25934 2.377844,-0.67672 z"
       sodipodi:nodetypes="sszs" /><ellipse
       style="fill:#ffffff;fill-opacity:1;stroke:#000000;stroke-width:0.265;stroke-dasharray:none;stroke-opacity:1"
       id="path1-7-2-9-9-8-7"
       cx="17.572334"
       cy="-10.966371"
       rx="0.65429264"
       ry="0.80279088"
       transform="rotate(75)" /><path
       id="path1-3-0-3"
       style="fill:#66ff66;fill-opacity:1;stroke:#000000;stroke-width:0.265"
       d="m 15.469562,26.471634 c 0.886923,-0.237651 2.177082,0.187264 2.414732,1.074186 0.23765,0.886921 -0.667206,1.899988 -1.554126,2.137637 -0.886921,0.237649 -1.798565,-0.28869 -2.036214,-1.175608 -0.237648,-0.88692 0.288689,-1.798563 1.175608,-2.036215 z"
       sodipodi:nodetypes="zzzzz" /><path
       style="fill:#999999;fill-opacity:1;stroke:none;stroke-width:0.264999;stroke-dasharray:none;stroke-opacity:1"
       d="m 16.191406,8.9042969 c -0.292488,-0.00827 -0.617135,0.09905 -0.605468,0.3007812 0.07244,1.2524069 0.553411,3.1382009 0.320312,4.0820309 -0.120106,-0.27365 -0.294555,-0.773353 -0.566406,-1.144531 0.09834,-0.544588 0.0762,-1.898714 -0.416016,-1.933594 -1.02704,-0.07279 -0.519195,2.170074 -0.447265,2.554688 0.07753,0.414549 0.906173,1.730579 1.164062,1.787109 0.485265,0.106378 1.335063,0.124264 1.855469,0.123047 0.520398,0.0031 1.371771,-0.01063 1.857422,-0.115234 0.258093,-0.05559 1.090876,-1.36894 1.169921,-1.783203 0.07334,-0.384349 0.5898,-2.625677 -0.4375,-2.556641 -0.492341,0.03308 -0.518224,1.386697 -0.421875,1.931641 -0.273205,0.370182 -0.449207,0.869369 -0.570312,1.142578 -0.229648,-0.944676 0.256969,-2.827944 0.333984,-4.0800784 0.02205,-0.3585544 -1.019715,-0.4239314 -1.054687,-0.066406 -0.05036,0.5149057 -0.184378,0.6272927 -0.117188,1.1562496 -0.217322,0.452837 -0.511517,1.061298 -0.58789,1.654297 -0.05913,0.02209 -0.114606,0.02958 -0.166016,0.0293 -0.05141,9.3e-5 -0.106965,-0.0089 -0.166016,-0.03125 -0.07421,-0.593274 -0.366365,-1.200669 -0.582031,-1.654297 0.06912,-0.5287079 -0.0648,-0.6411634 -0.113281,-1.1562497 -0.01473,-0.1564722 -0.221728,-0.2338059 -0.449219,-0.2402344 z"
       id="path4-6-3-2-5"
       sodipodi:nodetypes="sccscccccsss"
       transform="matrix(-0.25881904,-0.96592582,-0.96592582,0.25881904,33.500015,41.479392)"
       inkscape:original-d="m 14.924313,10.209901 c 0.492217,0.03488 0.51354,1.387545 0.4152,1.932133 0.271851,0.371178 0.44621,0.871112 0.566316,1.144762 0.233099,-0.94383 -0.2482,-2.828724 -0.320639,-4.081131 -0.02074,-0.3586326 1.022151,-0.4192286 1.055816,-0.061578 0.04848,0.5150863 0.182149,0.6270618 0.113026,1.15577 0.215666,0.453628 0.5075,1.06247 0.581706,1.655744 0.335179,0.12662 0.556797,-0.171236 0.556797,-0.171236 l 0.05085,2.882759 c 0,0 -1.568763,0.04531 -2.3026,-0.115559 -0.257889,-0.05653 -1.085797,-1.373618 -1.163328,-1.788167 -0.07193,-0.384614 -0.580184,-2.626287 0.446856,-2.553497 z"
       inkscape:path-effect="#path-effect5-4-0-9-5-7-4" /><path
       id="path1-7-1-1-4-7"
       style="fill:#ffffff;stroke:#000000;stroke-width:0.265;stroke-dasharray:none"
       d="m 22.148438,27.805719 c -0.129974,-0.67192 -1.195648,-0.201297 -1.39522,-0.145548 -0.19957,0.05575 -1.230323,-0.08025 -1.002414,0.74841 0.276486,1.0052 2.514696,0.0023 2.397634,-0.602866 z"
       sodipodi:nodetypes="sszs" /><path
       id="path1-7-1-1-4-5-0"
       style="fill:#ffffff;stroke:#000000;stroke-width:0.265;stroke-dasharray:none"
       d="m 21.4472,25.188667 c 0.2234,0.64689 -0.934811,0.772153 -1.135521,0.82366 -0.200709,0.0515 -1.025366,0.684659 -1.24232,-0.146935 -0.263157,-1.008771 2.176641,-1.259339 2.377844,-0.67672 z"
       sodipodi:nodetypes="sszs" /><ellipse
       style="fill:#ffffff;fill-opacity:1;stroke:#000000;stroke-width:0.265;stroke-dasharray:none;stroke-opacity:1"
       id="path1-7-2-9-9-8-7-1"
       cx="30.21616"
       cy="4.5745459"
       rx="0.65429264"
       ry="0.80279088"
       transform="rotate(45)" /><ellipse
       style="fill:#ffffff;fill-opacity:1;stroke:#000000;stroke-width:0.265;stroke-dasharray:none;stroke-opacity:1"
       id="path1-7-2-9-9"
       cx="-23.16713"
       cy="11.081335"
       rx="0.65429264"
       ry="0.80279088"
       transform="rotate(-105)" /><path
       id="path1-3"
       style="fill:#ff6666;fill-opacity:1;stroke:#000000;stroke-width:0.265"
       d="m 22.582245,22.278674 c -0.886922,0.23765 -2.177082,-0.187265 -2.414732,-1.074186 -0.237649,-0.886921 0.667207,-1.899987 1.554126,-2.137636 0.88692,-0.23765 1.798564,0.288689 2.036214,1.175607 0.237649,0.886921 -0.288688,1.798565 -1.175608,2.036215 z"
       sodipodi:nodetypes="zzzzz" /><path
       id="path1-7-1-1"
       style="fill:#ffffff;stroke:#000000;stroke-width:0.265;stroke-dasharray:none"
       d="m 27.397972,18.610527 c -0.200154,0.05363 -0.772123,-0.029 -0.865562,-0.377724 -0.09344,-0.348721 0.360835,-0.746597 0.560988,-0.800228 0.200153,-0.05363 0.35454,-0.167747 0.514573,0.512033 0.160034,0.679783 -0.0098,0.612288 -0.209999,0.665919 z"
       sodipodi:nodetypes="ssszs" /><path
       id="path1-7-1-9-7"
       style="fill:#ffffff;stroke:#000000;stroke-width:0.265;stroke-dasharray:none"
       d="m 28.019099,21.012717 c -0.200154,0.05363 -0.772123,-0.029 -0.865563,-0.377724 -0.09344,-0.348721 0.360835,-0.746597 0.560989,-0.800227 0.200152,-0.05363 0.354539,-0.167748 0.514572,0.512032 0.160034,0.679783 -0.0098,0.612288 -0.209998,0.665919 z"
       sodipodi:nodetypes="ssszs" /><ellipse
       style="fill:#ffffff;fill-opacity:1;stroke:#000000;stroke-width:0.265;stroke-dasharray:none;stroke-opacity:1"
       id="path1-7-2-9-9-9"
       cx="-34.235741"
       cy="11.690136"
       rx="0.65429264"
       ry="0.80279088"
       transform="rotate(-105)" /></g></svg>
