<?xml version="1.0" encoding="UTF-8" standalone="no"?>
<!-- Created with Inkscape (http://www.inkscape.org/) -->

<svg
   width="35mm"
   height="35mm"
   viewBox="0 0 35 35"
   version="1.1"
   id="svg1"
   xml:space="preserve"
   inkscape:version="1.4 (e7c3feb100, 2024-10-09)"
   sodipodi:docname="5_x3.svg"
   xmlns:inkscape="http://www.inkscape.org/namespaces/inkscape"
   xmlns:sodipodi="http://sodipodi.sourceforge.net/DTD/sodipodi-0.dtd"
   xmlns="http://www.w3.org/2000/svg"
   xmlns:svg="http://www.w3.org/2000/svg"><sodipodi:namedview
     id="namedview1"
     pagecolor="#ffffff"
     bordercolor="#000000"
     borderopacity="0.25"
     inkscape:showpageshadow="2"
     inkscape:pageopacity="0.0"
     inkscape:pagecheckerboard="0"
     inkscape:deskcolor="#d1d1d1"
     inkscape:document-units="mm"
     inkscape:zoom="6.0766399"
     inkscape:cx="71.256485"
     inkscape:cy="78.661893"
     inkscape:window-width="1916"
     inkscape:window-height="1023"
     inkscape:window-x="0"
     inkscape:window-y="0"
     inkscape:window-maximized="0"
     inkscape:current-layer="layer1"><sodipodi:guide
       position="0.17416423,17.540036"
       orientation="0,132.28346"
       id="guide5"
       inkscape:locked="false" /><sodipodi:guide
       position="35.000001,35.000001"
       orientation="132.28346,0"
       id="guide6"
       inkscape:locked="false" /><sodipodi:guide
       position="35.000001,0"
       orientation="0,-132.28346"
       id="guide7"
       inkscape:locked="false" /><sodipodi:guide
       position="17.503506,35.914363"
       orientation="-132.28346,0"
       id="guide8"
       inkscape:locked="false" /></sodipodi:namedview><defs
     id="defs1"><inkscape:path-effect
       effect="mirror_symmetry"
       start_point="17.297909,16.234992"
       end_point="17.313303,7.810326"
       center_point="17.305606,12.022659"
       id="path-effect5"
       is_visible="true"
       lpeversion="1.2"
       lpesatellites=""
       mode="free"
       discard_orig_path="false"
       fuse_paths="true"
       oposite_fuse="false"
       split_items="false"
       split_open="false"
       link_styles="false" /><inkscape:path-effect
       effect="mirror_symmetry"
       start_point="17.297909,16.234992"
       end_point="17.313303,7.810326"
       center_point="17.305606,12.022659"
       id="path-effect5-7"
       is_visible="true"
       lpeversion="1.2"
       lpesatellites=""
       mode="free"
       discard_orig_path="false"
       fuse_paths="true"
       oposite_fuse="false"
       split_items="false"
       split_open="false"
       link_styles="false" /><inkscape:path-effect
       effect="mirror_symmetry"
       start_point="17.297909,16.234992"
       end_point="17.313303,7.810326"
       center_point="17.305606,12.022659"
       id="path-effect5-6"
       is_visible="true"
       lpeversion="1.2"
       lpesatellites=""
       mode="free"
       discard_orig_path="false"
       fuse_paths="true"
       oposite_fuse="false"
       split_items="false"
       split_open="false"
       link_styles="false" /><inkscape:path-effect
       effect="mirror_symmetry"
       start_point="17.297909,16.234992"
       end_point="17.313303,7.810326"
       center_point="17.305606,12.022659"
       id="path-effect5-3"
       is_visible="true"
       lpeversion="1.2"
       lpesatellites=""
       mode="free"
       discard_orig_path="false"
       fuse_paths="true"
       oposite_fuse="false"
       split_items="false"
       split_open="false"
       link_styles="false" /><inkscape:path-effect
       effect="mirror_symmetry"
       start_point="17.297909,16.234992"
       end_point="17.313303,7.810326"
       center_point="17.305606,12.022659"
       id="path-effect5-66"
       is_visible="true"
       lpeversion="1.2"
       lpesatellites=""
       mode="free"
       discard_orig_path="false"
       fuse_paths="true"
       oposite_fuse="false"
       split_items="false"
       split_open="false"
       link_styles="false" /><inkscape:path-effect
       effect="mirror_symmetry"
       start_point="17.297909,16.234992"
       end_point="17.313303,7.810326"
       center_point="17.305606,12.022659"
       id="path-effect5-4"
       is_visible="true"
       lpeversion="1.2"
       lpesatellites=""
       mode="free"
       discard_orig_path="false"
       fuse_paths="true"
       oposite_fuse="false"
       split_items="false"
       split_open="false"
       link_styles="false" /><inkscape:path-effect
       effect="mirror_symmetry"
       start_point="17.297909,16.234992"
       end_point="17.313303,7.810326"
       center_point="17.305606,12.022659"
       id="path-effect5-4-7"
       is_visible="true"
       lpeversion="1.2"
       lpesatellites=""
       mode="free"
       discard_orig_path="false"
       fuse_paths="true"
       oposite_fuse="false"
       split_items="false"
       split_open="false"
       link_styles="false" /><inkscape:path-effect
       effect="mirror_symmetry"
       start_point="17.297909,16.234992"
       end_point="17.313303,7.810326"
       center_point="17.305606,12.022659"
       id="path-effect5-41"
       is_visible="true"
       lpeversion="1.2"
       lpesatellites=""
       mode="free"
       discard_orig_path="false"
       fuse_paths="true"
       oposite_fuse="false"
       split_items="false"
       split_open="false"
       link_styles="false" /><inkscape:path-effect
       effect="mirror_symmetry"
       start_point="17.297909,16.234992"
       end_point="17.313303,7.810326"
       center_point="17.305606,12.022659"
       id="path-effect5-4-0"
       is_visible="true"
       lpeversion="1.2"
       lpesatellites=""
       mode="free"
       discard_orig_path="false"
       fuse_paths="true"
       oposite_fuse="false"
       split_items="false"
       split_open="false"
       link_styles="false" /><inkscape:path-effect
       effect="mirror_symmetry"
       start_point="17.493844,16.300304"
       end_point="17.509238,7.875638"
       center_point="17.501541,12.087971"
       id="path-effect5-4-0-9"
       is_visible="true"
       lpeversion="1.2"
       lpesatellites=""
       mode="free"
       discard_orig_path="false"
       fuse_paths="true"
       oposite_fuse="false"
       split_items="false"
       split_open="false"
       link_styles="false" /><inkscape:path-effect
       effect="mirror_symmetry"
       start_point="17.297909,16.234992"
       end_point="17.313303,7.810326"
       center_point="17.305606,12.022659"
       id="path-effect5-4-0-0"
       is_visible="true"
       lpeversion="1.2"
       lpesatellites=""
       mode="free"
       discard_orig_path="false"
       fuse_paths="true"
       oposite_fuse="false"
       split_items="false"
       split_open="false"
       link_styles="false" /><inkscape:path-effect
       effect="mirror_symmetry"
       start_point="17.493844,16.300304"
       end_point="17.509238,7.875638"
       center_point="17.501541,12.087971"
       id="path-effect5-4-0-9-7"
       is_visible="true"
       lpeversion="1.2"
       lpesatellites=""
       mode="free"
       discard_orig_path="false"
       fuse_paths="true"
       oposite_fuse="false"
       split_items="false"
       split_open="false"
       link_styles="false" /><inkscape:path-effect
       effect="mirror_symmetry"
       start_point="17.493844,16.300304"
       end_point="17.509238,7.875638"
       center_point="17.501541,12.087971"
       id="path-effect5-4-0-9-3"
       is_visible="true"
       lpeversion="1.2"
       lpesatellites=""
       mode="free"
       discard_orig_path="false"
       fuse_paths="true"
       oposite_fuse="false"
       split_items="false"
       split_open="false"
       link_styles="false" /><inkscape:path-effect
       effect="mirror_symmetry"
       start_point="17.297909,16.234992"
       end_point="17.313303,7.810326"
       center_point="17.305606,12.022659"
       id="path-effect5-4-6"
       is_visible="true"
       lpeversion="1.2"
       lpesatellites=""
       mode="free"
       discard_orig_path="false"
       fuse_paths="true"
       oposite_fuse="false"
       split_items="false"
       split_open="false"
       link_styles="false" /><inkscape:path-effect
       effect="mirror_symmetry"
       start_point="17.493844,16.300304"
       end_point="17.509238,7.875638"
       center_point="17.501541,12.087971"
       id="path-effect5-4-0-9-72"
       is_visible="true"
       lpeversion="1.2"
       lpesatellites=""
       mode="free"
       discard_orig_path="false"
       fuse_paths="true"
       oposite_fuse="false"
       split_items="false"
       split_open="false"
       link_styles="false" /><inkscape:path-effect
       effect="mirror_symmetry"
       start_point="17.493844,16.300304"
       end_point="17.509238,7.875638"
       center_point="17.501541,12.087971"
       id="path-effect5-4-0-9-72-8"
       is_visible="true"
       lpeversion="1.2"
       lpesatellites=""
       mode="free"
       discard_orig_path="false"
       fuse_paths="true"
       oposite_fuse="false"
       split_items="false"
       split_open="false"
       link_styles="false" /><inkscape:path-effect
       effect="mirror_symmetry"
       start_point="17.297909,16.234992"
       end_point="17.313303,7.810326"
       center_point="17.305606,12.022659"
       id="path-effect5-4-6-1"
       is_visible="true"
       lpeversion="1.2"
       lpesatellites=""
       mode="free"
       discard_orig_path="false"
       fuse_paths="true"
       oposite_fuse="false"
       split_items="false"
       split_open="false"
       link_styles="false" /></defs><g
     inkscape:label="Layer 1"
     inkscape:groupmode="layer"
     id="layer1"><path
       style="fill:#999999;fill-opacity:1;stroke:none;stroke-width:0.264999;stroke-dasharray:none;stroke-opacity:1"
       d="m 18.726039,29.506539 c 0.262339,0.004 0.518183,-0.0824 0.507812,-0.261719 -0.07244,-1.252406 -0.124461,-3.489994 -0.553306,-4.395339 0.652475,0.337312 1.281382,0.553415 1.828947,0.437981 0.788213,-0.166166 1.898067,-2.001024 2.230103,-2.823333 0.141329,-0.35001 -0.668891,-0.949063 -0.93031,-0.579282 -0.531696,0.752089 -1.019192,1.38323 -1.541044,2.189005 -0.706221,-0.17499 -1.288396,-0.500772 -2.782436,-0.500906 -0.662306,-0.12544 -1.80909,-0.597861 -2.514596,-1.04144 0,0 0.0824,-1.398295 -0.01495,-2.304687 -0.445624,-0.0806 -0.498452,-0.135402 -0.867187,-0.05469 -0.07212,1.068359 -0.44835,2.260468 0.03242,2.979228 0.551657,0.824734 1.686744,0.924511 2.122123,1.60518 -0.432152,0.903772 -0.450328,3.230288 -0.527344,4.482422 -0.02205,0.358555 1.02167,0.345807 1.056641,-0.01172 0.100734,-1.029811 0.213416,-2.743698 0.427734,-2.90625 0.121107,-0.09185 0.211094,-0.116149 0.279297,-0.105468 0.06824,-0.01043 0.16048,0.01512 0.28125,0.107422 0.213723,0.163335 0.320999,1.87608 0.417969,2.906252 0.01683,0.178825 0.284536,0.273372 0.546875,0.277343 z"
       id="path4-6-0"
       sodipodi:nodetypes="cscssscccccscscscsscc" /><path
       style="fill:#999999;fill-opacity:1;stroke:none;stroke-width:0.264999;stroke-dasharray:none;stroke-opacity:1"
       d="m 18.726039,5.49346 c 0.262339,-0.004 0.518183,0.0824 0.507812,0.261719 -0.07244,1.252407 -0.124461,3.489995 -0.553306,4.39534 0.652475,-0.337312 1.281382,-0.553415 1.828947,-0.437981 0.788213,0.166166 1.898067,2.001024 2.230103,2.823333 0.141329,0.35001 -0.668891,0.949063 -0.93031,0.579282 -0.531696,-0.752089 -1.019192,-1.38323 -1.541044,-2.189005 -0.706221,0.17499 -1.288396,0.500772 -2.782436,0.500906 -0.662306,0.12544 -1.624361,-0.0179 -2.391443,0.179371 0,0 0.267126,0.443861 0.662388,1.196312 -0.445624,0.0806 -0.52924,0.781954 -0.897975,0.701242 -0.595519,-0.852842 -1.276131,-2.657737 -0.675705,-3.194745 0.544889,-0.487338 1.440439,-0.03165 2.060547,-0.06577 -0.432152,-0.903772 -0.450328,-3.230289 -0.527344,-4.482422 -0.02205,-0.358555 1.02167,-0.345807 1.056641,0.01172 0.100734,1.02981 0.213416,2.743698 0.427734,2.90625 0.121107,0.09185 0.211094,0.116149 0.279297,0.105468 0.06824,0.01043 0.16048,-0.01512 0.28125,-0.107422 C 17.974918,8.513722 18.082194,6.800977 18.179164,5.770805 18.195994,5.59198 18.4637,5.497432 18.726039,5.49346 Z"
       id="path4-6"
       sodipodi:nodetypes="cscssscccccscscscssc" /><path
       id="path1-3"
       style="fill:#4d4d4d;fill-opacity:1;stroke:#000000;stroke-width:0.265"
       d="m 15.825754,10.946695 c 0,0.918208 0.744354,2.054432 1.662562,2.054432 0.918208,0 1.662561,-1.136225 1.662561,-2.054432 0,-0.918207 -0.744355,-1.662563 -1.662561,-1.662563 -0.918207,0 -1.662562,0.744355 -1.662562,1.662563 z"
       sodipodi:nodetypes="zzzzz" /><path
       id="path1-7-1-1"
       style="fill:#ffffff;stroke:#000000;stroke-width:0.265;stroke-dasharray:none"
       d="m 18.12251,5.345672 c 0,0.207214 0.227855,0.738307 0.588877,0.738307 0.361023,0 0.627766,-0.541773 0.627766,-0.748987 0,-0.207214 0.07027,-0.385876 -0.627766,-0.364516 -0.69804,0.02136 -0.588877,0.167981 -0.588877,0.375196 z"
       sodipodi:nodetypes="ssszs" /><path
       id="path1-7-1-9-7"
       style="fill:#ffffff;stroke:#000000;stroke-width:0.265;stroke-dasharray:none"
       d="m 15.641413,5.367442 c 0,0.207214 0.227855,0.738307 0.588877,0.738307 0.361023,0 0.627766,-0.541773 0.627766,-0.748987 0,-0.207213 0.07027,-0.385875 -0.627766,-0.364515 -0.69804,0.02136 -0.588877,0.167981 -0.588877,0.375195 z"
       sodipodi:nodetypes="ssszs" /><path
       id="path1-3-0"
       style="fill:#ff6666;fill-opacity:1;stroke:#000000;stroke-width:0.265"
       d="m 20.495093,19.149302 c 0.918208,0 2.054431,-0.744354 2.054431,-1.662562 0,-0.918208 -1.136225,-1.662561 -2.054431,-1.662561 -0.918207,0 -1.662561,0.744355 -1.662561,1.662561 0,0.918207 0.744353,1.662562 1.662561,1.662562 z"
       sodipodi:nodetypes="zzzzz" /><path
       style="fill:#999999;fill-opacity:1;stroke:none;stroke-width:0.264999;stroke-dasharray:none;stroke-opacity:1"
       d="m 16.191406,8.9042969 c -0.292488,-0.00827 -0.617135,0.09905 -0.605468,0.3007812 0.07244,1.2524069 0.27206,3.0603129 0.34375,4.1347659 -0.547197,-0.137082 -0.835827,-0.08231 -1.296875,-0.283203 -0.606294,-0.749481 -1.148555,-1.598252 -1.78125,-1.582032 -0.424526,0.01089 0.310762,1.799819 0.621093,2.125 0.598205,0.626832 1.069276,0.701193 1.673828,0.84961 0.477917,0.117325 1.705795,0.132022 2.34961,0.130859 0.643806,0.0035 1.875173,-0.0055 2.353515,-0.121094 0.605091,-0.146206 1.073337,-0.221061 1.673828,-0.845703 0.311518,-0.324044 1.055342,-2.11061 0.63086,-2.123047 -0.632632,-0.01853 -1.180035,0.830865 -1.789063,1.578125 -0.46178,0.199211 -0.74918,0.142263 -1.296875,0.277344 0.07562,-1.074184 0.28236,-2.880678 0.359375,-4.1328124 0.02205,-0.3585544 -1.019715,-0.4239314 -1.054687,-0.066406 -0.05036,0.5149057 -0.184378,0.6272927 -0.117188,1.1562496 -0.217322,0.452837 -0.511517,1.061298 -0.58789,1.654297 -0.05913,0.02209 -0.114606,0.02958 -0.166016,0.0293 -0.05141,9.3e-5 -0.106965,-0.0089 -0.166016,-0.03125 -0.07421,-0.593274 -0.366365,-1.200669 -0.582031,-1.654297 0.06912,-0.5287079 -0.0648,-0.6411634 -0.113281,-1.1562497 -0.01473,-0.1564722 -0.221728,-0.2338059 -0.449219,-0.2402344 z"
       id="path4-6-3-2"
       sodipodi:nodetypes="sccscccccsss"
       transform="rotate(90,17.02029,17.00659)"
       inkscape:original-d="m 12.850726,11.473714 c 0.632695,-0.01622 1.176626,0.834296 1.782919,1.583777 0.461049,0.200897 0.748625,0.144556 1.295822,0.281638 -0.07169,-1.074453 -0.271838,-2.881056 -0.344277,-4.133463 -0.02074,-0.3586326 1.022151,-0.4192286 1.055816,-0.061578 0.04848,0.5150863 0.182149,0.6270618 0.113026,1.15577 0.215666,0.453628 0.5075,1.06247 0.581706,1.655744 0.335179,0.12662 0.556797,-0.171236 0.556797,-0.171236 l 0.01129,2.792474 c 0,0 -2.097405,0.03504 -2.758135,-0.127164 -0.604552,-0.148417 -1.074187,-0.223578 -1.672392,-0.85041 -0.310331,-0.325181 -1.047097,-2.114667 -0.622572,-2.125552 z"
       inkscape:path-effect="#path-effect5-4-0-9-72" /><path
       id="path1-7-1-1-4"
       style="fill:#ffffff;stroke:#000000;stroke-width:0.265;stroke-dasharray:none"
       d="m 26.601104,16.132053 c 0.04836,0.682667 -1.102807,0.503895 -1.310009,0.501699 -0.207202,-0.0022 -1.167629,0.395949 -1.16196,-0.463464 0.0069,-1.042508 2.428412,-0.653086 2.471969,-0.03823 z"
       sodipodi:nodetypes="sszs" /><path
       id="path1-7-1-1-4-5"
       style="fill:#ffffff;stroke:#000000;stroke-width:0.265;stroke-dasharray:none"
       d="m 26.601104,18.841427 c 0.04836,-0.682667 -1.102807,-0.503895 -1.310009,-0.501699 -0.207202,0.0022 -1.167629,-0.395949 -1.16196,0.463464 0.0069,1.042508 2.428412,0.653086 2.471969,0.03823 z"
       sodipodi:nodetypes="sszs" /><path
       id="path1-3-1"
       style="fill:#66ff66;fill-opacity:1;stroke:#000000;stroke-width:0.265"
       d="m 19.162564,24.053306 c 0,-0.918208 -0.744354,-2.054432 -1.662562,-2.054432 -0.918208,0 -1.662561,1.136225 -1.662561,2.054432 0,0.918207 0.744355,1.662562 1.662561,1.662562 0.918207,0 1.662562,-0.744354 1.662562,-1.662562 z"
       sodipodi:nodetypes="zzzzz" /><path
       id="path1-7-1-1-0"
       style="fill:#ffffff;stroke:#000000;stroke-width:0.265;stroke-dasharray:none"
       d="m 16.865808,29.654328 c 0,-0.207214 -0.227855,-0.738307 -0.588877,-0.738307 -0.361023,0 -0.627766,0.541773 -0.627766,0.748987 0,0.207214 -0.07027,0.385876 0.627766,0.364516 0.69804,-0.02136 0.588877,-0.167981 0.588877,-0.375196 z"
       sodipodi:nodetypes="ssszs" /><path
       id="path1-7-1-9-7-3"
       style="fill:#ffffff;stroke:#000000;stroke-width:0.265;stroke-dasharray:none"
       d="m 19.346905,29.632558 c 0,-0.207214 -0.227855,-0.738307 -0.588877,-0.738307 -0.361023,0 -0.627766,0.541773 -0.627766,0.748987 0,0.207213 -0.07027,0.385875 0.627766,0.364515 0.69804,-0.02136 0.588877,-0.167981 0.588877,-0.375195 z"
       sodipodi:nodetypes="ssszs" /><ellipse
       style="fill:#ffffff;fill-opacity:1;stroke:#000000;stroke-width:0.265;stroke-dasharray:none;stroke-opacity:1"
       id="path1-7-2-9-9-1-9-9"
       cx="-6.742939"
       cy="19.378412"
       rx="0.65429264"
       ry="0.80279088"
       transform="matrix(-0.8660254,0.5,0.5,0.8660254,0,0)" /><ellipse
       style="fill:#ffffff;fill-opacity:1;stroke:#000000;stroke-width:0.265;stroke-dasharray:none;stroke-opacity:1"
       id="path1-7-2-9-9-1-9"
       cx="-24.855986"
       cy="-6.5109615"
       rx="0.65429264"
       ry="0.80279088"
       transform="matrix(-0.70710678,-0.70710678,-0.70710678,0.70710678,0,0)" /><ellipse
       style="fill:#ffffff;fill-opacity:1;stroke:#000000;stroke-width:0.265;stroke-dasharray:none;stroke-opacity:1"
       id="path1-7-2-9-9-1-9-8"
       cx="-0.1072483"
       cy="-31.259699"
       rx="0.65429264"
       ry="0.80279088"
       transform="rotate(135)" /><path
       id="path1-3-0-4-9"
       style="fill:#6666ff;fill-opacity:1;stroke:#000000;stroke-width:0.265"
       d="m 9.2859535,18.315926 c 0.4591042,0.795192 1.6718455,1.407013 2.4670365,0.947909 0.795192,-0.459104 0.871708,-1.81528 0.412605,-2.61047 -0.459104,-0.795192 -1.475911,-1.067644 -2.2711013,-0.608541 -0.7951906,0.459104 -1.0676446,1.47591 -0.6085402,2.271102 z"
       sodipodi:nodetypes="zzzzz" /><path
       style="fill:#999999;fill-opacity:1;stroke:none;stroke-width:0.264999;stroke-dasharray:none;stroke-opacity:1"
       d="m 12.360872,17.089271 c 0.318675,0.335434 0.742079,0.691866 1.153103,0.908845 0.390855,0.802176 0.65046,2.013026 1.190279,1.682629 0.362204,-0.221693 -0.07601,-1.557443 -0.227793,-1.979732 -0.204841,-0.569886 -1.648033,-2.051681 -2.270523,-2.055878 -0.477367,-0.0032 -1.480521,0.582833 -2.009333,0.914265 -0.5524987,0.290233 -1.5663224,0.864029 -1.8037324,1.278189 -0.3095865,0.540062 -0.2188756,1.783234 -0.070358,2.370321 0.1102378,0.435771 0.6804974,2.328402 1.0543281,2.126932 0.5571445,-0.30026 0.1313649,-1.263702 -0.046976,-2.225898 -0.018422,-0.52197 -6.43e-5,-0.893859 0.2337921,-1.411466 0.6712192,0.70329 1.0931112,2.368199 1.6524812,3.491087 0.160181,0.321542 1.095065,-0.142722 0.946591,-0.469831 -0.21384,-0.471101 -0.153971,-0.63544 -0.476637,-1.059936 -0.03821,-0.500829 -0.08766,-1.174869 -0.318021,-1.726608 0.04016,-0.04869 0.08446,-0.08292 0.129124,-0.108382 0.04448,-0.02579 0.86292,0.418623 0.925234,0.408453 0.589203,-0.200109 0.207591,-0.455298 -0.105101,-1.424563 z"
       id="path4-6-3-2-0-9"
       sodipodi:nodetypes="cccscccssscsscccccc" /><ellipse
       style="fill:#ffffff;fill-opacity:1;stroke:#000000;stroke-width:0.265;stroke-dasharray:none;stroke-opacity:1"
       id="path1-7-2-9-9-1-3-3"
       cx="-14.572627"
       cy="18.790619"
       rx="0.65429264"
       ry="0.80279088"
       transform="matrix(-0.96592583,-0.25881905,-0.25881905,0.96592583,0,0)" /><path
       id="path1-7-1-1-4-1-4"
       style="fill:#ffffff;stroke:#000000;stroke-width:0.265;stroke-dasharray:none"
       d="M 12.939217,19.471133 C 12.37219,19.854348 11.951428,18.768022 11.849728,18.587482 11.748033,18.40694 10.923012,17.77426 11.67012,17.349463 c 0.906288,-0.515279 1.779795,1.776523 1.269093,2.121673 z"
       sodipodi:nodetypes="sszs" /><path
       id="path1-7-1-1-4-5-9-3"
       style="fill:#ffffff;stroke:#000000;stroke-width:0.265;stroke-dasharray:none"
       d="m 12.605587,23.44995 c 0.615387,-0.299453 -0.115018,-1.207007 -0.22052,-1.385351 -0.105507,-0.178342 -0.240913,-1.209171 -0.982352,-0.774555 -0.899388,0.52723 0.648617,2.429609 1.202876,2.159903 z"
       sodipodi:nodetypes="sszs" /><ellipse
       style="fill:#ffffff;fill-opacity:1;stroke:#000000;stroke-width:0.265;stroke-dasharray:none;stroke-opacity:1"
       id="path1-7-2-9-9-1-3"
       cx="-14.543541"
       cy="20.09214"
       rx="0.65429264"
       ry="0.80279088"
       transform="scale(-1,1)" /></g></svg>
