<?xml version="1.0" encoding="UTF-8" standalone="no"?>
<!-- Created with Inkscape (http://www.inkscape.org/) -->

<svg
   width="35mm"
   height="35mm"
   viewBox="0 0 35 35"
   version="1.1"
   id="svg1"
   xml:space="preserve"
   inkscape:version="1.4 (e7c3feb100, 2024-10-09)"
   sodipodi:docname="6_v1_end.svg"
   xmlns:inkscape="http://www.inkscape.org/namespaces/inkscape"
   xmlns:sodipodi="http://sodipodi.sourceforge.net/DTD/sodipodi-0.dtd"
   xmlns="http://www.w3.org/2000/svg"
   xmlns:svg="http://www.w3.org/2000/svg"><sodipodi:namedview
     id="namedview1"
     pagecolor="#ffffff"
     bordercolor="#000000"
     borderopacity="0.25"
     inkscape:showpageshadow="2"
     inkscape:pageopacity="0.0"
     inkscape:pagecheckerboard="0"
     inkscape:deskcolor="#d1d1d1"
     inkscape:document-units="mm"
     inkscape:zoom="3.981732"
     inkscape:cx="69.693289"
     inkscape:cy="37.420901"
     inkscape:window-width="1290"
     inkscape:window-height="1023"
     inkscape:window-x="0"
     inkscape:window-y="0"
     inkscape:window-maximized="0"
     inkscape:current-layer="layer1" /><defs
     id="defs1"><inkscape:path-effect
       effect="mirror_symmetry"
       start_point="17.297909,16.234992"
       end_point="17.313303,7.810326"
       center_point="17.305606,12.022659"
       id="path-effect5"
       is_visible="true"
       lpeversion="1.2"
       lpesatellites=""
       mode="free"
       discard_orig_path="false"
       fuse_paths="true"
       oposite_fuse="false"
       split_items="false"
       split_open="false"
       link_styles="false" /><inkscape:path-effect
       effect="mirror_symmetry"
       start_point="17.297909,16.234992"
       end_point="17.313303,7.810326"
       center_point="17.305606,12.022659"
       id="path-effect5-7"
       is_visible="true"
       lpeversion="1.2"
       lpesatellites=""
       mode="free"
       discard_orig_path="false"
       fuse_paths="true"
       oposite_fuse="false"
       split_items="false"
       split_open="false"
       link_styles="false" /><inkscape:path-effect
       effect="mirror_symmetry"
       start_point="17.297909,16.234992"
       end_point="17.313303,7.810326"
       center_point="17.305606,12.022659"
       id="path-effect5-6"
       is_visible="true"
       lpeversion="1.2"
       lpesatellites=""
       mode="free"
       discard_orig_path="false"
       fuse_paths="true"
       oposite_fuse="false"
       split_items="false"
       split_open="false"
       link_styles="false" /><inkscape:path-effect
       effect="mirror_symmetry"
       start_point="17.297909,16.234992"
       end_point="17.313303,7.810326"
       center_point="17.305606,12.022659"
       id="path-effect5-3"
       is_visible="true"
       lpeversion="1.2"
       lpesatellites=""
       mode="free"
       discard_orig_path="false"
       fuse_paths="true"
       oposite_fuse="false"
       split_items="false"
       split_open="false"
       link_styles="false" /><inkscape:path-effect
       effect="mirror_symmetry"
       start_point="17.297909,16.234992"
       end_point="17.313303,7.810326"
       center_point="17.305606,12.022659"
       id="path-effect5-66"
       is_visible="true"
       lpeversion="1.2"
       lpesatellites=""
       mode="free"
       discard_orig_path="false"
       fuse_paths="true"
       oposite_fuse="false"
       split_items="false"
       split_open="false"
       link_styles="false" /><inkscape:path-effect
       effect="mirror_symmetry"
       start_point="17.297909,16.234992"
       end_point="17.313303,7.810326"
       center_point="17.305606,12.022659"
       id="path-effect5-4"
       is_visible="true"
       lpeversion="1.2"
       lpesatellites=""
       mode="free"
       discard_orig_path="false"
       fuse_paths="true"
       oposite_fuse="false"
       split_items="false"
       split_open="false"
       link_styles="false" /><inkscape:path-effect
       effect="mirror_symmetry"
       start_point="17.297909,16.234992"
       end_point="17.313303,7.810326"
       center_point="17.305606,12.022659"
       id="path-effect5-4-7"
       is_visible="true"
       lpeversion="1.2"
       lpesatellites=""
       mode="free"
       discard_orig_path="false"
       fuse_paths="true"
       oposite_fuse="false"
       split_items="false"
       split_open="false"
       link_styles="false" /><inkscape:path-effect
       effect="mirror_symmetry"
       start_point="17.297909,16.234992"
       end_point="17.313303,7.810326"
       center_point="17.305606,12.022659"
       id="path-effect5-41"
       is_visible="true"
       lpeversion="1.2"
       lpesatellites=""
       mode="free"
       discard_orig_path="false"
       fuse_paths="true"
       oposite_fuse="false"
       split_items="false"
       split_open="false"
       link_styles="false" /><inkscape:path-effect
       effect="mirror_symmetry"
       start_point="17.493844,16.300304"
       end_point="17.509238,7.875638"
       center_point="17.501541,12.087971"
       id="path-effect5-4-0-9-5-7"
       is_visible="true"
       lpeversion="1.2"
       lpesatellites=""
       mode="free"
       discard_orig_path="false"
       fuse_paths="true"
       oposite_fuse="false"
       split_items="false"
       split_open="false"
       link_styles="false" /><inkscape:path-effect
       effect="mirror_symmetry"
       start_point="17.493844,16.300304"
       end_point="17.509238,7.875638"
       center_point="17.501541,12.087971"
       id="path-effect5-4-0-9-5-7-6"
       is_visible="true"
       lpeversion="1.2"
       lpesatellites=""
       mode="free"
       discard_orig_path="false"
       fuse_paths="true"
       oposite_fuse="false"
       split_items="false"
       split_open="false"
       link_styles="false" /></defs><g
     inkscape:label="Layer 1"
     inkscape:groupmode="layer"
     id="layer1"><path
       style="fill:#999999;fill-opacity:1;stroke:none;stroke-width:0.264999;stroke-dasharray:none;stroke-opacity:1"
       d="m 32.561961,16.74055 c 0.004,-0.262342 -0.0824,-0.518185 -0.261718,-0.507816 -1.252405,0.07244 -3.577076,0.08092 -4.482418,0.509765 -0.679076,-0.437859 0.168882,-1.450729 -0.67533,-1.972083 -0.732166,-0.452162 -2.081777,0.349348 -2.34379,0.848142 -0.130922,0.249251 0.472673,1.037874 0.65374,0.822265 0.420143,-0.500285 0.462662,-0.467469 0.985156,-0.706944 0.230809,0.459065 -0.595512,1.415412 0.131228,1.881429 -0.0052,0.58837 -1.736556,-0.153549 -2.538286,-0.315576 -0.181162,-0.899737 -0.371772,-1.581664 -0.598856,-2.140535 -0.28045,0.0249 -0.904565,-0.135495 -0.834984,0.137309 0.239368,0.938498 0.243628,2.230626 0.624439,2.653983 0.635624,0.706641 3.910134,1.707858 4.590807,1.272477 0.90377,0.432153 3.230288,0.450329 4.482419,0.527344 0.358557,0.02205 0.345811,-1.021669 -0.01172,-1.05664 -1.029808,-0.100734 -2.743696,-0.213416 -2.906247,-0.427734 -0.09185,-0.12111 -0.116143,-0.211098 -0.105471,-0.279298 -0.01042,-0.06823 0.01512,-0.160482 0.107422,-0.281247 0.163346,-0.213718 1.87609,-0.320995 2.906261,-0.417965 0.178827,-0.01683 0.273367,-0.28454 0.277345,-0.546876 z"
       id="path4-4-5-2-0-5-6"
       sodipodi:nodetypes="ssscssccccsscscscssss" /><path
       id="path1-9-9-4-2-8-1"
       style="fill:#ff6666;fill-opacity:1;stroke:#000000;stroke-width:0.265"
       d="m 27.108733,16.314271 c -0.918209,-1e-6 -2.054434,0.744353 -2.054433,1.662562 0,0.918207 1.136226,1.66256 2.054431,1.66256 0.918205,0 1.662561,-0.744351 1.66256,-1.66256 10e-7,-0.918208 -0.744351,-1.662562 -1.662558,-1.662562 z"
       sodipodi:nodetypes="zzzzz" /><path
       id="path1-7-1-2-6-0-1-6-3"
       style="fill:#ffffff;stroke:#000000;stroke-width:0.265;stroke-dasharray:none"
       d="m 32.731521,18.63345 c -0.207212,-1e-6 -0.738307,0.227852 -0.738305,0.588877 0,0.361023 0.54177,0.627767 0.748989,0.627763 0.207215,10e-7 0.385879,0.07027 0.364518,-0.627765 -0.02136,-0.698039 -0.167938,-0.588889 -0.375198,-0.588878 z"
       sodipodi:nodetypes="ssszs" /><path
       id="path1-7-1-9-0-2-5-0-2-1"
       style="fill:#ffffff;stroke:#000000;stroke-width:0.265;stroke-dasharray:none"
       d="m 32.709751,16.152354 c -0.207211,0 -0.738308,0.227852 -0.738307,0.588876 0,0.361023 0.541771,0.62777 0.748991,0.627765 0.207214,10e-7 0.385877,0.07027 0.364518,-0.627766 -0.02136,-0.698039 -0.168034,-0.588861 -0.375196,-0.588876 z"
       sodipodi:nodetypes="ssszs" /><ellipse
       style="fill:#ffffff;fill-opacity:1;stroke:#000000;stroke-width:0.265;stroke-dasharray:none;stroke-opacity:1"
       id="path1-7-2-9-9-1-6-1-9-5-8-1"
       cx="28.749195"
       cy="-7.418499"
       rx="0.65429264"
       ry="0.80279088"
       transform="rotate(47.61241)" /><ellipse
       style="fill:#ffffff;fill-opacity:1;stroke:#000000;stroke-width:0.265;stroke-dasharray:none;stroke-opacity:1"
       id="path1-7-2-9-9-5"
       cx="-18.821058"
       cy="12.02635"
       rx="0.65429264"
       ry="0.80279088"
       transform="scale(-1,1)" /><path
       id="path1-3-0-4-12"
       style="fill:#4d4d4d;fill-opacity:1;stroke:#000000;stroke-width:0.265"
       d="m 20.340404,12.424949 c 0.23765,0.886922 -0.187264,2.177082 -1.074186,2.41473 -0.886918,0.23765 -1.899986,-0.667206 -2.137636,-1.554124 -0.237648,-0.886921 0.28869,-1.798565 1.175609,-2.036214 0.886921,-0.237651 1.798564,0.288686 2.036213,1.175608 z"
       sodipodi:nodetypes="zzzzz" /><path
       style="fill:#999999;fill-opacity:1;stroke:none;stroke-width:0.264999;stroke-dasharray:none;stroke-opacity:1"
       d="m 17.298733,13.731869 c -0.358247,0.440755 -0.194489,0.891982 -0.281569,1.458018 0.201253,0.601175 1.050564,1.905138 0.435229,2.053222 -0.87006,0.382377 -1.352333,-1.263876 -1.456515,-1.996366 -0.08527,-0.599548 -0.04595,-2.202453 0.391249,-2.645589 0.335274,-0.339825 1.459009,-0.634761 2.067295,-0.774331 0.595901,-0.185449 1.718518,-0.496595 2.179248,-0.371615 0.600799,0.16295 1.415705,1.10617 1.725821,1.62632 0.230187,0.386086 1.165245,2.127614 0.758445,2.249491 -0.606275,0.181645 -0.98646,-0.800684 -1.540731,-1.607165 -0.356063,-0.382115 -0.632007,-0.6321 -1.163371,-0.832742 0.02268,0.971925 0.901623,2.447516 1.300089,3.637052 0.114099,0.340628 -0.875247,0.673407 -1.001562,0.337121 -0.18191,-0.484326 -0.340449,-0.558198 -0.412453,-1.08652 -0.327119,-0.38116 -0.768771,-0.892746 -0.996021,-1.445771 -0.06284,-0.006 -0.11836,0.0011 -0.167944,0.01466 -0.04969,0.01322 -0.314163,0.906189 -0.365418,0.94306 -0.558129,0.275132 -1.007527,-0.652373 -1.471796,-1.55885 z"
       id="path4-6-3-2-0-9"
       sodipodi:nodetypes="cccscccssscsscccccc" /><ellipse
       style="fill:#ffffff;fill-opacity:1;stroke:#000000;stroke-width:0.265;stroke-dasharray:none;stroke-opacity:1"
       id="path1-7-2-9-9-1-3-3"
       cx="12.406923"
       cy="24.394779"
       rx="0.65429264"
       ry="0.80279088"
       transform="rotate(-30)" /><path
       id="path1-7-1-1-4-1-9"
       style="fill:#ffffff;stroke:#000000;stroke-width:0.265;stroke-dasharray:none"
       d="m 18.574013,15.82505 c 0.671921,-0.129975 0.201299,-1.195647 0.145549,-1.395219 -0.05575,-0.199572 0.08025,-1.230323 -0.748409,-1.002415 -1.005199,0.276485 -0.0023,2.514697 0.602865,2.397633 z"
       sodipodi:nodetypes="sszs" /><path
       id="path1-7-1-1-4-5-9-4"
       style="fill:#ffffff;stroke:#000000;stroke-width:0.265;stroke-dasharray:none"
       d="m 21.623373,18.402587 c -0.646888,0.223399 -0.772153,-0.934813 -0.823661,-1.135522 -0.0515,-0.200711 -0.68466,-1.025365 0.146936,-1.242322 1.008771,-0.263156 1.259352,2.176636 0.67672,2.377846 z"
       sodipodi:nodetypes="sszs" /><ellipse
       style="fill:#ffffff;fill-opacity:1;stroke:#000000;stroke-width:0.265;stroke-dasharray:none;stroke-opacity:1"
       id="path1-7-2-9-9-1-3-9-5"
       cx="-16.147818"
       cy="-18.754951"
       rx="0.65429264"
       ry="0.80279088"
       transform="rotate(175.72808)" /><path
       style="fill:#999999;fill-opacity:1;stroke:none;stroke-width:0.264999;stroke-dasharray:none;stroke-opacity:1"
       d="m 2.4380567,18.25944 c -0.004,0.26234 0.082404,0.518185 0.261719,0.507814 1.2524045,-0.07244 3.577075,-0.08092 4.4824178,-0.509764 0.6790753,0.43786 -0.1688823,1.450729 0.6753311,1.972083 0.7321659,0.452162 2.0817765,-0.349348 2.3437884,-0.848141 0.130922,-0.249252 -0.4726719,-1.037875 -0.6537393,-0.822266 -0.4201429,0.500285 -0.4626623,0.467469 -0.9851562,0.706945 -0.2308093,-0.459066 0.5955118,-1.415413 -0.1312273,-1.88143 0.0052,-0.58837 1.7365558,0.153549 2.5382858,0.315576 0.181162,0.899737 0.371773,1.581664 0.598856,2.140535 0.28045,-0.0249 0.904565,0.135495 0.834984,-0.137309 C 12.163948,18.764985 12.159689,17.472858 11.778877,17.0495 11.143253,16.342859 7.868743,15.341642 7.1880696,15.777023 6.2842991,15.34487 3.9577825,15.326694 2.705651,15.249679 c -0.3585559,-0.02205 -0.3458078,1.02167 0.01172,1.056641 1.0298074,0.100732 2.7436959,0.213414 2.9062465,0.427734 0.091854,0.12111 0.1161436,0.211098 0.1054714,0.279298 0.010414,0.06823 -0.01512,0.160481 -0.1074263,0.281246 -0.1633456,0.213718 -1.8760885,0.320995 -2.90626,0.417965 -0.1788262,0.01683 -0.2733673,0.28454 -0.2773434,0.546875 z"
       id="path4-4-5-2-0-5-6-4"
       sodipodi:nodetypes="ssscssccccsscscscssss" /><path
       id="path1-9-9-4-2-8-1-4"
       style="fill:#6666ff;fill-opacity:1;stroke:#000000;stroke-width:0.265"
       d="m 7.8912857,18.685718 c 0.9182094,10e-7 2.054434,-0.744353 2.054433,-1.662562 1.1e-6,-0.918207 -1.1362269,-1.66256 -2.0544318,-1.662561 -0.9182043,10e-7 -1.6625608,0.744353 -1.6625593,1.66256 -1.3e-6,0.918209 0.744351,1.662563 1.6625581,1.662563 z"
       sodipodi:nodetypes="zzzzz" /><path
       id="path1-7-1-2-6-0-1-6-3-3"
       style="fill:#ffffff;stroke:#000000;stroke-width:0.265;stroke-dasharray:none"
       d="m 2.2684974,16.366539 c 0.2072121,0 0.7383066,-0.227851 0.7383055,-0.588877 -2e-7,-0.361024 -0.5417696,-0.627767 -0.7489893,-0.627762 -0.2072147,-1e-6 -0.3858784,-0.07027 -0.364518,0.627764 0.021359,0.69804 0.1679378,0.588889 0.3751973,0.588879 z"
       sodipodi:nodetypes="ssszs" /><path
       id="path1-7-1-9-0-2-5-0-2-1-0"
       style="fill:#ffffff;stroke:#000000;stroke-width:0.265;stroke-dasharray:none"
       d="m 2.2902669,18.847636 c 0.2072113,0 0.7383079,-0.227853 0.738307,-0.588876 -2e-7,-0.361023 -0.5417703,-0.62777 -0.7489908,-0.627766 -0.2072131,0 -0.3858768,-0.07027 -0.3645178,0.627766 0.02136,0.69804 0.1679373,0.588888 0.3751958,0.588877 z"
       sodipodi:nodetypes="ssszs" /><ellipse
       style="fill:#ffffff;fill-opacity:1;stroke:#000000;stroke-width:0.265;stroke-dasharray:none;stroke-opacity:1"
       id="path1-7-2-9-9-1-6-1-9-5-8-1-7"
       cx="-20.696842"
       cy="-5.1624146"
       rx="0.65429264"
       ry="0.80279088"
       transform="rotate(-132.38759)" /><ellipse
       style="fill:#ffffff;fill-opacity:1;stroke:#000000;stroke-width:0.265;stroke-dasharray:none;stroke-opacity:1"
       id="path1-7-2-9-9-5-8"
       cx="16.178961"
       cy="-22.973637"
       rx="0.65429264"
       ry="0.80279088"
       transform="scale(1,-1)" /><path
       id="path1-3-0-4-12-6"
       style="fill:#66ff66;fill-opacity:1;stroke:#000000;stroke-width:0.265"
       d="m 14.659615,22.57504 c -0.23765,-0.886922 0.187264,-2.177082 1.074186,-2.41473 0.886918,-0.23765 1.899986,0.667206 2.137636,1.554125 0.237648,0.886921 -0.28869,1.798565 -1.175608,2.036214 -0.886922,0.23765 -1.798565,-0.288687 -2.036214,-1.175609 z"
       sodipodi:nodetypes="zzzzz" /><path
       style="fill:#999999;fill-opacity:1;stroke:none;stroke-width:0.264999;stroke-dasharray:none;stroke-opacity:1"
       d="m 17.701286,21.26812 c 0.358247,-0.440755 0.194489,-0.891982 0.281569,-1.458018 -0.201253,-0.601174 -1.050564,-1.905138 -0.435228,-2.053222 0.87006,-0.382377 1.352332,1.263876 1.456514,1.996366 0.08527,0.599548 0.04595,2.202454 -0.391249,2.645589 -0.335274,0.339825 -1.459009,0.634761 -2.067295,0.774331 -0.595901,0.185449 -1.718518,0.496595 -2.179247,0.371615 -0.6008,-0.16295 -1.415705,-1.10617 -1.725822,-1.62632 -0.230187,-0.386086 -1.165245,-2.127614 -0.758446,-2.24949 0.606276,-0.181646 0.986461,0.800683 1.540732,1.607164 0.356062,0.382116 0.632008,0.6321 1.163371,0.832742 -0.02268,-0.971925 -0.901622,-2.447515 -1.30009,-3.637053 -0.114098,-0.340627 0.875248,-0.673406 1.001562,-0.33712 0.181912,0.484325 0.340449,0.558197 0.412453,1.086519 0.32712,0.381161 0.768771,0.892746 0.996022,1.445771 0.06284,0.006 0.118359,-0.0011 0.167947,-0.01467 0.04968,-0.01322 0.314163,-0.906188 0.365418,-0.94306 0.558129,-0.275131 1.007526,0.652373 1.471796,1.558851 z"
       id="path4-6-3-2-0-9-8"
       sodipodi:nodetypes="cccscccssscsscccccc" /><ellipse
       style="fill:#ffffff;fill-opacity:1;stroke:#000000;stroke-width:0.265;stroke-dasharray:none;stroke-opacity:1"
       id="path1-7-2-9-9-1-3-3-8"
       cx="-0.40398869"
       cy="-23.416113"
       rx="0.65429264"
       ry="0.80279088"
       transform="rotate(150)" /><path
       id="path1-7-1-1-4-1-9-4"
       style="fill:#ffffff;stroke:#000000;stroke-width:0.265;stroke-dasharray:none"
       d="m 16.426006,19.174939 c -0.671921,0.129975 -0.201299,1.195648 -0.145549,1.395219 0.05575,0.199573 -0.08025,1.230323 0.74841,1.002414 1.005198,-0.276486 0.0023,-2.514696 -0.602866,-2.397632 z"
       sodipodi:nodetypes="sszs" /><path
       id="path1-7-1-1-4-5-9-4-3"
       style="fill:#ffffff;stroke:#000000;stroke-width:0.265;stroke-dasharray:none"
       d="m 13.376646,16.597402 c 0.646889,-0.223399 0.772153,0.934813 0.823661,1.135523 0.0515,0.20071 0.68466,1.025364 -0.146936,1.24232 C 13.0446,19.238401 12.794019,16.79861 13.376651,16.5974 Z"
       sodipodi:nodetypes="sszs" /><ellipse
       style="fill:#ffffff;fill-opacity:1;stroke:#000000;stroke-width:0.265;stroke-dasharray:none;stroke-opacity:1"
       id="path1-7-2-9-9-1-3-9-5-1"
       cx="16.147816"
       cy="18.754953"
       rx="0.65429264"
       ry="0.80279088"
       transform="rotate(-4.271922)" /></g></svg>
