<?xml version="1.0" encoding="UTF-8" standalone="no"?>
<!-- Created with Inkscape (http://www.inkscape.org/) -->

<svg
   width="35mm"
   height="35mm"
   viewBox="0 0 35 35"
   version="1.1"
   id="svg1"
   xml:space="preserve"
   inkscape:version="1.4 (e7c3feb100, 2024-10-09)"
   sodipodi:docname="6_v1.svg"
   xmlns:inkscape="http://www.inkscape.org/namespaces/inkscape"
   xmlns:sodipodi="http://sodipodi.sourceforge.net/DTD/sodipodi-0.dtd"
   xmlns="http://www.w3.org/2000/svg"
   xmlns:svg="http://www.w3.org/2000/svg"><sodipodi:namedview
     id="namedview1"
     pagecolor="#ffffff"
     bordercolor="#000000"
     borderopacity="0.25"
     inkscape:showpageshadow="2"
     inkscape:pageopacity="0.0"
     inkscape:pagecheckerboard="0"
     inkscape:deskcolor="#d1d1d1"
     inkscape:document-units="mm"
     inkscape:zoom="6.07664"
     inkscape:cx="97.669107"
     inkscape:cy="62.205429"
     inkscape:window-width="1290"
     inkscape:window-height="1023"
     inkscape:window-x="0"
     inkscape:window-y="0"
     inkscape:window-maximized="0"
     inkscape:current-layer="layer1" /><defs
     id="defs1"><inkscape:path-effect
       effect="mirror_symmetry"
       start_point="17.297909,16.234992"
       end_point="17.313303,7.810326"
       center_point="17.305606,12.022659"
       id="path-effect5"
       is_visible="true"
       lpeversion="1.2"
       lpesatellites=""
       mode="free"
       discard_orig_path="false"
       fuse_paths="true"
       oposite_fuse="false"
       split_items="false"
       split_open="false"
       link_styles="false" /><inkscape:path-effect
       effect="mirror_symmetry"
       start_point="17.297909,16.234992"
       end_point="17.313303,7.810326"
       center_point="17.305606,12.022659"
       id="path-effect5-7"
       is_visible="true"
       lpeversion="1.2"
       lpesatellites=""
       mode="free"
       discard_orig_path="false"
       fuse_paths="true"
       oposite_fuse="false"
       split_items="false"
       split_open="false"
       link_styles="false" /><inkscape:path-effect
       effect="mirror_symmetry"
       start_point="17.297909,16.234992"
       end_point="17.313303,7.810326"
       center_point="17.305606,12.022659"
       id="path-effect5-6"
       is_visible="true"
       lpeversion="1.2"
       lpesatellites=""
       mode="free"
       discard_orig_path="false"
       fuse_paths="true"
       oposite_fuse="false"
       split_items="false"
       split_open="false"
       link_styles="false" /><inkscape:path-effect
       effect="mirror_symmetry"
       start_point="17.297909,16.234992"
       end_point="17.313303,7.810326"
       center_point="17.305606,12.022659"
       id="path-effect5-3"
       is_visible="true"
       lpeversion="1.2"
       lpesatellites=""
       mode="free"
       discard_orig_path="false"
       fuse_paths="true"
       oposite_fuse="false"
       split_items="false"
       split_open="false"
       link_styles="false" /><inkscape:path-effect
       effect="mirror_symmetry"
       start_point="17.297909,16.234992"
       end_point="17.313303,7.810326"
       center_point="17.305606,12.022659"
       id="path-effect5-66"
       is_visible="true"
       lpeversion="1.2"
       lpesatellites=""
       mode="free"
       discard_orig_path="false"
       fuse_paths="true"
       oposite_fuse="false"
       split_items="false"
       split_open="false"
       link_styles="false" /><inkscape:path-effect
       effect="mirror_symmetry"
       start_point="17.297909,16.234992"
       end_point="17.313303,7.810326"
       center_point="17.305606,12.022659"
       id="path-effect5-4"
       is_visible="true"
       lpeversion="1.2"
       lpesatellites=""
       mode="free"
       discard_orig_path="false"
       fuse_paths="true"
       oposite_fuse="false"
       split_items="false"
       split_open="false"
       link_styles="false" /><inkscape:path-effect
       effect="mirror_symmetry"
       start_point="17.297909,16.234992"
       end_point="17.313303,7.810326"
       center_point="17.305606,12.022659"
       id="path-effect5-4-7"
       is_visible="true"
       lpeversion="1.2"
       lpesatellites=""
       mode="free"
       discard_orig_path="false"
       fuse_paths="true"
       oposite_fuse="false"
       split_items="false"
       split_open="false"
       link_styles="false" /><inkscape:path-effect
       effect="mirror_symmetry"
       start_point="17.297909,16.234992"
       end_point="17.313303,7.810326"
       center_point="17.305606,12.022659"
       id="path-effect5-41"
       is_visible="true"
       lpeversion="1.2"
       lpesatellites=""
       mode="free"
       discard_orig_path="false"
       fuse_paths="true"
       oposite_fuse="false"
       split_items="false"
       split_open="false"
       link_styles="false" /><inkscape:path-effect
       effect="mirror_symmetry"
       start_point="17.493844,16.300304"
       end_point="17.509238,7.875638"
       center_point="17.501541,12.087971"
       id="path-effect5-4-0-9-72-8"
       is_visible="true"
       lpeversion="1.2"
       lpesatellites=""
       mode="free"
       discard_orig_path="false"
       fuse_paths="true"
       oposite_fuse="false"
       split_items="false"
       split_open="false"
       link_styles="false" /></defs><g
     inkscape:label="Layer 1"
     inkscape:groupmode="layer"
     id="layer1"><path
       style="fill:#999999;fill-opacity:1;stroke:none;stroke-width:0.264999;stroke-dasharray:none;stroke-opacity:1"
       d="m 16.0625,7.5585937 c -0.262338,-0.00397 -0.518182,0.082402 -0.507812,0.2617188 0.07244,1.2524069 0.08092,3.5770765 0.509765,4.4824215 -0.437864,0.679074 -1.494271,1.202659 -2.015625,2.046875 -0.452157,0.732168 -0.02075,1.907611 0.216797,3.083985 0.05573,0.275974 0.796346,0.47567 0.822266,0.195312 0.109285,-1.18211 -0.07617,-2.728515 -0.07617,-2.728515 0.929349,-0.552216 1.774728,-0.990204 2.291015,-1.248047 0.515342,0.259728 1.357832,0.702204 2.285157,1.257812 0,0 -0.188949,1.544061 -0.08398,2.726563 0.0249,0.280451 0.76553,0.08241 0.822266,-0.19336 0.241841,-1.175498 0.677994,-2.348215 0.228515,-3.082031 -0.518265,-0.846116 -1.574386,-1.372065 -2.009765,-2.052734 0.432152,-0.903772 0.450328,-3.2302883 0.527344,-4.4824221 0.02205,-0.3585544 -1.02167,-0.3458071 -1.056641,0.011719 -0.100734,1.0298107 -0.213416,2.7436984 -0.427734,2.9062504 -0.121107,0.09185 -0.211094,0.116149 -0.279297,0.105468 -0.06824,0.01043 -0.16048,-0.01512 -0.28125,-0.107421 C 16.813621,10.578854 16.706345,8.8661094 16.609375,7.8359375 16.592543,7.6571119 16.324839,7.5625647 16.0625,7.5585937 Z"
       id="path4"
       sodipodi:nodetypes="ssscssscccs"
       transform="rotate(90,17.630512,17.792908)"
       inkscape:original-d="m 15.087222,17.628795 c -0.02592,0.280358 -0.765893,0.08004 -0.821621,-0.195934 -0.237544,-1.176374 -0.668956,-2.351745 -0.216799,-3.083913 0.521354,-0.844216 1.577933,-1.366261 2.015797,-2.045335 -0.428846,-0.905345 -0.437758,-3.2310091 -0.510197,-4.483416 -0.02074,-0.3586326 1.022152,-0.3422582 1.055816,0.015393 0.09697,1.0301719 0.203913,2.743905 0.417636,2.907239 0.427544,0.326742 0.480507,-0.179347 0.480507,-0.179347 l 0.318037,2.834014 c 0,0 -1.293868,0.600372 -2.814147,1.503717 0,0 0.184256,1.545472 0.07497,2.727582 z"
       inkscape:path-effect="#path-effect5" /><path
       id="path1"
       style="fill:#ff6666;fill-opacity:1;stroke:#000000;stroke-width:0.265"
       d="m 22.411596,19.125179 c -0.918208,0 -2.054432,-0.744354 -2.054432,-1.662562 0,-0.918208 1.136225,-1.662561 2.054432,-1.662561 0.918207,0 1.662561,0.744354 1.662561,1.662561 0,0.918207 -0.744353,1.662562 -1.662561,1.662562 z"
       sodipodi:nodetypes="zzzzz" /><path
       id="path1-7-1"
       style="fill:#ffffff;stroke:#000000;stroke-width:0.265;stroke-dasharray:none"
       d="m 28.034388,16.815534 c -0.207214,0 -0.738307,-0.227855 -0.738307,-0.588877 0,-0.361023 0.541773,-0.627766 0.748987,-0.627766 0.207214,0 0.385876,-0.07027 0.364516,0.627766 -0.02136,0.69804 -0.167981,0.588877 -0.375196,0.588877 z"
       sodipodi:nodetypes="ssszs" /><path
       id="path1-7-1-9"
       style="fill:#ffffff;stroke:#000000;stroke-width:0.265;stroke-dasharray:none"
       d="m 28.012618,19.296631 c -0.207214,0 -0.738307,-0.227855 -0.738307,-0.588877 0,-0.361023 0.541773,-0.627766 0.748987,-0.627766 0.207214,0 0.385876,-0.07027 0.364516,0.627766 -0.02136,0.69804 -0.167981,0.588877 -0.375196,0.588877 z"
       sodipodi:nodetypes="ssszs" /><path
       style="fill:#999999;fill-opacity:1;stroke:none;stroke-width:0.264999;stroke-dasharray:none;stroke-opacity:1"
       d="m 16.0625,7.5585937 c -0.262338,-0.00397 -0.518182,0.082402 -0.507812,0.2617188 0.07244,1.2524069 0.08092,3.5770765 0.509765,4.4824215 -0.437864,0.679074 -1.494271,1.202659 -2.015625,2.046875 -0.452157,0.732168 -0.02075,1.907611 0.216797,3.083985 0.05573,0.275974 0.796346,0.47567 0.822266,0.195312 0.10928,-1.18211 0.09766,-2.857422 0.09766,-2.857422 0.891495,-0.529723 1.646191,-0.910531 2.117187,-1.134765 0.470175,0.225954 1.221775,0.607646 2.111328,1.140625 0,0 -0.01512,1.676873 0.08984,2.859375 0.0249,0.280451 0.76553,0.08241 0.822266,-0.19336 0.241841,-1.175498 0.677994,-2.348215 0.228515,-3.082031 -0.518265,-0.846116 -1.574386,-1.372065 -2.009765,-2.052734 0.432152,-0.903772 0.450328,-3.2302883 0.527344,-4.4824221 0.02205,-0.3585544 -1.02167,-0.3458071 -1.056641,0.011719 -0.100734,1.0298107 -0.213416,2.7436984 -0.427734,2.9062504 -0.121107,0.09185 -0.211094,0.116149 -0.279297,0.105468 -0.06824,0.01043 -0.16048,-0.01512 -0.28125,-0.107421 C 16.813621,10.578854 16.706345,8.8661094 16.609375,7.8359375 16.592543,7.6571119 16.324839,7.5625647 16.0625,7.5585937 Z"
       id="path4-6"
       sodipodi:nodetypes="ssscssscccs"
       transform="rotate(-90,17.158824,17.604016)"
       inkscape:original-d="m 15.087222,17.628795 c -0.02592,0.280358 -0.765893,0.08004 -0.821621,-0.195934 -0.237544,-1.176374 -0.668956,-2.351745 -0.216799,-3.083913 0.521354,-0.844216 1.577933,-1.366261 2.015797,-2.045335 -0.428846,-0.905345 -0.437758,-3.2310091 -0.510197,-4.483416 -0.02074,-0.3586326 1.022152,-0.3422582 1.055816,0.015393 0.09697,1.0301719 0.203913,2.743905 0.417636,2.907239 0.427544,0.326742 0.480507,-0.179347 0.480507,-0.179347 l 0.318037,2.834014 c 0,0 -1.119704,0.469749 -2.639983,1.373094 0,0 0.01009,1.676095 -0.09919,2.858205 z"
       inkscape:path-effect="#path-effect5-4" /><ellipse
       style="fill:#ffffff;fill-opacity:1;stroke:#000000;stroke-width:0.265;stroke-dasharray:none;stroke-opacity:1"
       id="path1-7-2-9-9-1"
       cx="14.90236"
       cy="-17.528158"
       rx="0.65429264"
       ry="0.80279088"
       transform="rotate(90)" /><path
       id="path1-3"
       style="fill:#6666ff;fill-opacity:1;stroke:#000000;stroke-width:0.265"
       d="m 12.566634,15.800057 c 0.918208,0 2.054432,0.744354 2.054432,1.662562 0,0.918208 -1.136225,1.662561 -2.054432,1.662561 -0.918207,0 -1.662561,-0.744355 -1.662561,-1.662561 0,-0.918207 0.744353,-1.662562 1.662561,-1.662562 z"
       sodipodi:nodetypes="zzzzz" /><path
       id="path1-7-1-1"
       style="fill:#ffffff;stroke:#000000;stroke-width:0.265;stroke-dasharray:none"
       d="m 6.9656123,18.096813 c 0.207214,0 0.738307,0.227855 0.738307,0.588877 0,0.361023 -0.541773,0.627766 -0.748987,0.627766 -0.207214,0 -0.385876,0.07027 -0.364516,-0.627766 0.02136,-0.69804 0.167981,-0.588877 0.375196,-0.588877 z"
       sodipodi:nodetypes="ssszs" /><path
       id="path1-7-1-9-7"
       style="fill:#ffffff;stroke:#000000;stroke-width:0.265;stroke-dasharray:none"
       d="m 6.9873823,15.615716 c 0.207214,0 0.738307,0.227855 0.738307,0.588877 0,0.361023 -0.541773,0.627766 -0.748987,0.627766 -0.207213,0 -0.385875,0.07027 -0.364515,-0.627766 0.02136,-0.69804 0.167981,-0.588877 0.375195,-0.588877 z"
       sodipodi:nodetypes="ssszs" /><ellipse
       style="fill:#ffffff;fill-opacity:1;stroke:#000000;stroke-width:0.265;stroke-dasharray:none;stroke-opacity:1"
       id="path1-7-2-9-9"
       cx="20.006554"
       cy="-17.528158"
       rx="0.65429264"
       ry="0.80279088"
       transform="rotate(90)" /><path
       id="path1-3-0-4"
       style="fill:#66ff66;fill-opacity:1;stroke:#000000;stroke-width:0.265"
       d="m 12.871809,25.40501 c -0.23765,-0.886921 0.187264,-2.177081 1.074186,-2.41473 0.886919,-0.23765 1.899987,0.667206 2.137636,1.554125 0.237649,0.886921 -0.28869,1.798565 -1.175608,2.036214 -0.886921,0.237651 -1.798565,-0.288687 -2.036214,-1.175609 z"
       sodipodi:nodetypes="zzzzz" /><path
       style="fill:#999999;fill-opacity:1;stroke:none;stroke-width:0.264999;stroke-dasharray:none;stroke-opacity:1"
       d="m 15.91348,24.098091 c 0.358247,-0.440756 0.194486,-0.891984 0.281569,-1.458018 -0.201257,-0.601174 -1.050564,-1.905139 -0.435228,-2.053222 0.87006,-0.382377 1.352332,1.263876 1.456514,1.996366 0.08527,0.599548 0.04595,2.202453 -0.391248,2.645589 -0.335274,0.339824 -1.45901,0.63476 -2.067295,0.77433 -0.595902,0.185449 -1.718519,0.496596 -2.179248,0.371616 -0.600799,-0.162951 -1.415705,-1.10617 -1.725821,-1.62632 -0.230187,-0.386087 -1.1652455,-2.127614 -0.758446,-2.249491 0.606276,-0.181645 0.986461,0.800683 1.540731,1.607165 0.356063,0.382115 0.632008,0.632099 1.163372,0.832741 -0.02268,-0.971925 -0.901623,-2.447515 -1.30009,-3.637052 -0.1141,-0.340628 0.875247,-0.673407 1.001562,-0.337119 0.18191,0.484326 0.34045,0.558197 0.412453,1.08652 0.32712,0.38116 0.768772,0.892745 0.996022,1.445771 0.06283,0.006 0.118359,-0.0011 0.167944,-0.01467 0.04968,-0.01322 0.314164,-0.906189 0.365419,-0.943061 0.558128,-0.275131 1.007526,0.652373 1.471795,1.558851 z"
       id="path4-6-3-2-0"
       sodipodi:nodetypes="cccscccssscsscccccc" /><ellipse
       style="fill:#ffffff;fill-opacity:1;stroke:#000000;stroke-width:0.265;stroke-dasharray:none;stroke-opacity:1"
       id="path1-7-2-9-9-1-3"
       cx="14.70292"
       cy="-20.347641"
       rx="0.65429264"
       ry="0.80279088"
       transform="rotate(120)" /><ellipse
       style="fill:#ffffff;fill-opacity:1;stroke:#000000;stroke-width:0.265;stroke-dasharray:none;stroke-opacity:1"
       id="path1-7-2-9-9-1-9-9"
       cx="9.917141"
       cy="23.643604"
       rx="0.65429264"
       ry="0.80279088"
       transform="rotate(-15)" /><path
       id="path1-7-1-1-4-1"
       style="fill:#ffffff;stroke:#000000;stroke-width:0.265;stroke-dasharray:none"
       d="m 14.638201,22.004909 c -0.671922,0.129975 -0.201299,1.195647 -0.145549,1.39522 0.05575,0.199573 -0.08025,1.230323 0.748409,1.002414 1.005199,-0.276485 0.0023,-2.514697 -0.602866,-2.397633 z"
       sodipodi:nodetypes="sszs" /><path
       id="path1-7-1-1-4-5-9"
       style="fill:#ffffff;stroke:#000000;stroke-width:0.265;stroke-dasharray:none"
       d="m 11.588841,19.427373 c 0.646888,-0.2234 0.772152,0.934812 0.82366,1.135522 0.0515,0.200711 0.684661,1.025364 -0.146935,1.242321 -1.008772,0.263155 -1.259352,-2.176635 -0.676721,-2.377845 z"
       sodipodi:nodetypes="sszs" /><path
       id="path1-3-0-4-12"
       style="fill:#4d4d4d;fill-opacity:1;stroke:#000000;stroke-width:0.265"
       d="m 22.128191,9.59499 c 0.23765,0.886921 -0.187264,2.177081 -1.074186,2.41473 -0.886919,0.23765 -1.899987,-0.667206 -2.137636,-1.554125 -0.237649,-0.886921 0.28869,-1.798565 1.175608,-2.036214 0.886921,-0.237651 1.798565,0.288687 2.036214,1.175609 z"
       sodipodi:nodetypes="zzzzz" /><path
       style="fill:#999999;fill-opacity:1;stroke:none;stroke-width:0.264999;stroke-dasharray:none;stroke-opacity:1"
       d="m 19.08652,10.901909 c -0.358247,0.440756 -0.194486,0.891984 -0.281569,1.458018 0.201257,0.601174 1.050564,1.905139 0.435228,2.053222 -0.87006,0.382377 -1.352332,-1.263876 -1.456514,-1.996366 -0.08527,-0.599548 -0.04595,-2.202453 0.391248,-2.645589 0.335274,-0.339824 1.45901,-0.63476 2.067295,-0.77433 0.595902,-0.185449 1.718519,-0.496596 2.179248,-0.371616 0.600799,0.162951 1.415705,1.10617 1.725821,1.62632 0.230187,0.386087 1.165245,2.127614 0.758446,2.249491 -0.606276,0.181645 -0.986461,-0.800683 -1.540731,-1.607165 -0.356063,-0.382115 -0.632008,-0.632099 -1.163372,-0.832741 0.02268,0.971925 0.901623,2.447515 1.30009,3.637052 0.1141,0.340628 -0.875247,0.673407 -1.001562,0.337119 -0.18191,-0.484326 -0.34045,-0.558197 -0.412453,-1.08652 -0.32712,-0.38116 -0.768772,-0.892745 -0.996022,-1.445771 -0.06283,-0.006 -0.118359,0.0011 -0.167944,0.01467 -0.04968,0.01322 -0.314164,0.906189 -0.365419,0.943061 -0.558128,0.275131 -1.007526,-0.652373 -1.471795,-1.558851 z"
       id="path4-6-3-2-0-9"
       sodipodi:nodetypes="cccscccssscsscccccc" /><ellipse
       style="fill:#ffffff;fill-opacity:1;stroke:#000000;stroke-width:0.265;stroke-dasharray:none;stroke-opacity:1"
       id="path1-7-2-9-9-1-3-3"
       cx="1.8920307"
       cy="27.463247"
       rx="0.65429264"
       ry="0.80279088"
       transform="rotate(-60)" /><ellipse
       style="fill:#ffffff;fill-opacity:1;stroke:#000000;stroke-width:0.265;stroke-dasharray:none;stroke-opacity:1"
       id="path1-7-2-9-9-1-9-9-1"
       cx="-14.831596"
       cy="-19.222466"
       rx="0.65429264"
       ry="0.80279088"
       transform="rotate(165)" /><path
       id="path1-7-1-1-4-1-9"
       style="fill:#ffffff;stroke:#000000;stroke-width:0.265;stroke-dasharray:none"
       d="m 20.361799,12.995091 c 0.671922,-0.129975 0.201299,-1.195647 0.145549,-1.39522 -0.05575,-0.199573 0.08025,-1.230323 -0.748409,-1.002414 -1.005199,0.276485 -0.0023,2.514697 0.602866,2.397633 z"
       sodipodi:nodetypes="sszs" /><path
       id="path1-7-1-1-4-5-9-4"
       style="fill:#ffffff;stroke:#000000;stroke-width:0.265;stroke-dasharray:none"
       d="m 23.411159,15.572627 c -0.646888,0.2234 -0.772152,-0.934812 -0.82366,-1.135522 -0.0515,-0.200711 -0.684661,-1.025364 0.146935,-1.242321 1.008772,-0.263155 1.259352,2.176635 0.676721,2.377845 z"
       sodipodi:nodetypes="sszs" /></g></svg>
