<?xml version="1.0" encoding="UTF-8" standalone="no"?>
<!-- Created with Inkscape (http://www.inkscape.org/) -->

<svg
   width="35mm"
   height="35mm"
   viewBox="0 0 35 35"
   version="1.1"
   id="svg1"
   xml:space="preserve"
   inkscape:version="1.4 (e7c3feb100, 2024-10-09)"
   sodipodi:docname="6_v2_inter.svg"
   xmlns:inkscape="http://www.inkscape.org/namespaces/inkscape"
   xmlns:sodipodi="http://sodipodi.sourceforge.net/DTD/sodipodi-0.dtd"
   xmlns:xlink="http://www.w3.org/1999/xlink"
   xmlns="http://www.w3.org/2000/svg"
   xmlns:svg="http://www.w3.org/2000/svg"><sodipodi:namedview
     id="namedview1"
     pagecolor="#ffffff"
     bordercolor="#000000"
     borderopacity="0.25"
     inkscape:showpageshadow="2"
     inkscape:pageopacity="0.0"
     inkscape:pagecheckerboard="0"
     inkscape:deskcolor="#d1d1d1"
     inkscape:document-units="mm"
     inkscape:zoom="5.6310194"
     inkscape:cx="94.920646"
     inkscape:cy="71.83424"
     inkscape:window-width="1920"
     inkscape:window-height="1080"
     inkscape:window-x="0"
     inkscape:window-y="0"
     inkscape:window-maximized="0"
     inkscape:current-layer="layer1" /><defs
     id="defs1"><linearGradient
       id="linearGradient7"
       inkscape:collect="always"><stop
         style="stop-color:#ff6666;stop-opacity:0.74901962;"
         offset="0"
         id="stop1" /><stop
         style="stop-color:#ff6666;stop-opacity:0;"
         offset="1"
         id="stop2" /></linearGradient><linearGradient
       id="linearGradient5"
       inkscape:collect="always"><stop
         style="stop-color:#4d4d4d;stop-opacity:0.74901962;"
         offset="0"
         id="stop4" /><stop
         style="stop-color:#4d4d4d;stop-opacity:0;"
         offset="1"
         id="stop5" /></linearGradient><inkscape:path-effect
       effect="mirror_symmetry"
       start_point="17.297909,16.234992"
       end_point="17.313303,7.810326"
       center_point="17.305606,12.022659"
       id="path-effect5"
       is_visible="true"
       lpeversion="1.2"
       lpesatellites=""
       mode="free"
       discard_orig_path="false"
       fuse_paths="true"
       oposite_fuse="false"
       split_items="false"
       split_open="false"
       link_styles="false" /><inkscape:path-effect
       effect="mirror_symmetry"
       start_point="17.297909,16.234992"
       end_point="17.313303,7.810326"
       center_point="17.305606,12.022659"
       id="path-effect5-7"
       is_visible="true"
       lpeversion="1.2"
       lpesatellites=""
       mode="free"
       discard_orig_path="false"
       fuse_paths="true"
       oposite_fuse="false"
       split_items="false"
       split_open="false"
       link_styles="false" /><inkscape:path-effect
       effect="mirror_symmetry"
       start_point="17.297909,16.234992"
       end_point="17.313303,7.810326"
       center_point="17.305606,12.022659"
       id="path-effect5-6"
       is_visible="true"
       lpeversion="1.2"
       lpesatellites=""
       mode="free"
       discard_orig_path="false"
       fuse_paths="true"
       oposite_fuse="false"
       split_items="false"
       split_open="false"
       link_styles="false" /><inkscape:path-effect
       effect="mirror_symmetry"
       start_point="17.297909,16.234992"
       end_point="17.313303,7.810326"
       center_point="17.305606,12.022659"
       id="path-effect5-3"
       is_visible="true"
       lpeversion="1.2"
       lpesatellites=""
       mode="free"
       discard_orig_path="false"
       fuse_paths="true"
       oposite_fuse="false"
       split_items="false"
       split_open="false"
       link_styles="false" /><inkscape:path-effect
       effect="mirror_symmetry"
       start_point="17.297909,16.234992"
       end_point="17.313303,7.810326"
       center_point="17.305606,12.022659"
       id="path-effect5-66"
       is_visible="true"
       lpeversion="1.2"
       lpesatellites=""
       mode="free"
       discard_orig_path="false"
       fuse_paths="true"
       oposite_fuse="false"
       split_items="false"
       split_open="false"
       link_styles="false" /><inkscape:path-effect
       effect="mirror_symmetry"
       start_point="17.297909,16.234992"
       end_point="17.313303,7.810326"
       center_point="17.305606,12.022659"
       id="path-effect5-4"
       is_visible="true"
       lpeversion="1.2"
       lpesatellites=""
       mode="free"
       discard_orig_path="false"
       fuse_paths="true"
       oposite_fuse="false"
       split_items="false"
       split_open="false"
       link_styles="false" /><inkscape:path-effect
       effect="mirror_symmetry"
       start_point="17.297909,16.234992"
       end_point="17.313303,7.810326"
       center_point="17.305606,12.022659"
       id="path-effect5-4-7"
       is_visible="true"
       lpeversion="1.2"
       lpesatellites=""
       mode="free"
       discard_orig_path="false"
       fuse_paths="true"
       oposite_fuse="false"
       split_items="false"
       split_open="false"
       link_styles="false" /><inkscape:path-effect
       effect="mirror_symmetry"
       start_point="17.297909,16.234992"
       end_point="17.313303,7.810326"
       center_point="17.305606,12.022659"
       id="path-effect5-41"
       is_visible="true"
       lpeversion="1.2"
       lpesatellites=""
       mode="free"
       discard_orig_path="false"
       fuse_paths="true"
       oposite_fuse="false"
       split_items="false"
       split_open="false"
       link_styles="false" /><linearGradient
       inkscape:collect="always"
       xlink:href="#linearGradient6"
       id="linearGradient3"
       gradientUnits="userSpaceOnUse"
       gradientTransform="matrix(-0.5,-0.8660254,-0.93755841,0.5412996,30.017698,18.792064)"
       x1="10.647268"
       y1="16.557198"
       x2="14.696174"
       y2="14.776537" /><linearGradient
       id="linearGradient6"
       inkscape:collect="always"><stop
         style="stop-color:#6666ff;stop-opacity:0.74901962;"
         offset="0"
         id="stop3" /><stop
         style="stop-color:#6666ff;stop-opacity:0;"
         offset="1"
         id="stop6" /></linearGradient><linearGradient
       inkscape:collect="always"
       xlink:href="#linearGradient8"
       id="linearGradient2"
       gradientUnits="userSpaceOnUse"
       gradientTransform="matrix(0.25881904,0.96592582,1.0457105,-0.28019729,-4.9238574,7.0337315)"
       x1="10.647268"
       y1="16.557198"
       x2="17.939503"
       y2="14.395561" /><linearGradient
       id="linearGradient8"
       inkscape:collect="always"><stop
         style="stop-color:#66ff66;stop-opacity:0.74901962;"
         offset="0"
         id="stop7" /><stop
         style="stop-color:#66ff66;stop-opacity:0;"
         offset="1"
         id="stop8" /></linearGradient><linearGradient
       inkscape:collect="always"
       xlink:href="#linearGradient5"
       id="linearGradient4"
       gradientUnits="userSpaceOnUse"
       gradientTransform="matrix(-0.25881904,-0.96592582,-1.0457105,0.28019729,39.923858,27.96627)"
       x1="10.647268"
       y1="16.557198"
       x2="17.939503"
       y2="14.395561" /><inkscape:path-effect
       effect="mirror_symmetry"
       start_point="17.493844,16.300304"
       end_point="17.509238,7.875638"
       center_point="17.501541,12.087971"
       id="path-effect5-4-0-9-5-7"
       is_visible="true"
       lpeversion="1.2"
       lpesatellites=""
       mode="free"
       discard_orig_path="false"
       fuse_paths="true"
       oposite_fuse="false"
       split_items="false"
       split_open="false"
       link_styles="false" /><inkscape:path-effect
       effect="mirror_symmetry"
       start_point="17.493844,16.300304"
       end_point="17.509238,7.875638"
       center_point="17.501541,12.087971"
       id="path-effect5-4-0-9-5-7-6"
       is_visible="true"
       lpeversion="1.2"
       lpesatellites=""
       mode="free"
       discard_orig_path="false"
       fuse_paths="true"
       oposite_fuse="false"
       split_items="false"
       split_open="false"
       link_styles="false" /><linearGradient
       inkscape:collect="always"
       xlink:href="#linearGradient7"
       id="linearGradient1"
       gradientUnits="userSpaceOnUse"
       gradientTransform="matrix(0.5,0.8660254,0.93755841,-0.5412996,4.9823016,16.207936)"
       x1="10.647268"
       y1="16.557198"
       x2="14.696174"
       y2="14.776537" /></defs><g
     inkscape:label="Layer 1"
     inkscape:groupmode="layer"
     id="layer1"><path
       style="fill:#999999;fill-opacity:1;stroke:none;stroke-width:0.264999;stroke-dasharray:none;stroke-opacity:1"
       d="m 18.363044,8.3205851 c -0.182673,-0.188331 -0.424678,-0.308146 -0.544141,-0.174016 -0.834361,0.9368072 -2.472156,2.5865939 -2.80909,3.5300069 -0.789793,0.170565 -0.906404,-1.145239 -1.872006,-0.916943 -0.837445,0.197994 -1.225011,1.719065 -1.057582,2.257036 0.08367,0.268825 1.068119,0.399659 1.043695,0.119166 -0.05667,-0.650842 -0.0034,-0.657703 0.196724,-1.196496 0.487815,0.161402 0.802945,1.715606 1.64635,1.531248 0.412364,0.419716 -0.197078,1.295554 -0.150261,2.123787 -0.693831,-0.01475 -1.616223,0.154695 -2.301187,0.190255 -0.180701,0.215916 -0.852901,0.567307 -0.610796,0.71101 0.832875,0.494362 3.348279,0.184821 3.799458,-0.137771 0.503853,-0.360256 0.881961,-2.134012 1.05541,-2.92318 0.944639,-0.333484 2.602588,-1.965728 3.542437,-2.79666 0.26913,-0.237946 -0.477907,-0.966953 -0.755445,-0.738871 -0.799414,0.656956 -2.090994,1.789179 -2.357481,1.752574 -0.150585,-0.02069 -0.231396,-0.06714 -0.272072,-0.122915 -0.05561,-0.04088 -0.102789,-0.124167 -0.12291,-0.274833 -0.03562,-0.266627 1.099616,-1.553576 1.759489,-2.3505844 0.114548,-0.13835 -0.0079,-0.394501 -0.190587,-0.5828115 z"
       id="path4-4-5-2-0-5-6"
       sodipodi:nodetypes="ssscssccccsscscscssss" /><path
       style="fill:#999999;fill-opacity:1;stroke:none;stroke-width:0.264999;stroke-dasharray:none;stroke-opacity:1"
       d="m 16.636956,26.679416 c 0.182673,0.188331 0.424678,0.308146 0.544141,0.174016 0.834361,-0.936808 2.472156,-2.586595 2.80909,-3.530008 0.789793,-0.170565 0.906404,1.145239 1.872006,0.916943 0.837445,-0.197994 1.225011,-1.719065 1.057582,-2.257036 -0.08367,-0.268825 -1.068119,-0.399659 -1.043695,-0.119166 0.05667,0.650842 0.0034,0.657703 -0.196724,1.196496 -0.487815,-0.161402 -0.802945,-1.715606 -1.64635,-1.531248 -0.412364,-0.419716 0.197078,-1.295554 0.150261,-2.123787 0.693831,0.01475 1.616223,-0.154695 2.301187,-0.190255 0.180701,-0.215916 0.852901,-0.567307 0.610796,-0.71101 -0.832875,-0.494362 -3.348279,-0.184821 -3.799458,0.137771 -0.503853,0.360256 -0.881961,2.134012 -1.05541,2.92318 -0.944639,0.333484 -2.602588,1.965728 -3.542437,2.79666 -0.26913,0.237946 0.477907,0.966953 0.755445,0.738871 0.799414,-0.656956 2.090994,-1.789179 2.357481,-1.752574 0.150585,0.02069 0.231396,0.06714 0.272072,0.122915 0.05561,0.04088 0.102789,0.124167 0.12291,0.274833 0.03562,0.266627 -1.099616,1.553576 -1.759489,2.350585 -0.114548,0.13835 0.0079,0.394501 0.190587,0.582812 z"
       id="path4-4-5-2-0-5"
       sodipodi:nodetypes="ssscssccccsscscscssss" /><path
       id="path1-9-9-4-2-8"
       style="fill:#4d4d4d;fill-opacity:1;stroke:#000000;stroke-width:0.265"
       d="m 20.794394,23.124823 c 0.649273,-0.64927 0.926367,-1.97904 0.277095,-2.628311 -0.64927,-0.649272 -1.979041,-0.372176 -2.62831,0.277095 -0.649269,0.649268 -0.649271,1.701945 0,2.351214 0.64927,0.649271 1.701945,0.649273 2.351215,2e-6 z"
       sodipodi:nodetypes="zzzzz" /><path
       id="path1-7-1-2-6-0-1-6"
       style="fill:#ffffff;stroke:#000000;stroke-width:0.265;stroke-dasharray:none"
       d="m 15.178576,25.460829 c 0.146521,-0.146522 0.360943,-0.683179 0.105662,-0.93846 -0.255283,-0.255282 -0.826988,-0.06081 -0.973511,0.08572 -0.146524,0.146524 -0.322545,0.223168 0.186143,0.701651 0.508692,0.478484 0.535179,0.297618 0.681705,0.151094 z"
       sodipodi:nodetypes="ssszs" /><path
       id="path1-7-1-9-0-2-5-0-2"
       style="fill:#ffffff;stroke:#000000;stroke-width:0.265;stroke-dasharray:none"
       d="m 16.948369,27.199836 c 0.146522,-0.146521 0.360945,-0.68318 0.105664,-0.938461 -0.255282,-0.255281 -0.82699,-0.06081 -0.973513,0.08572 -0.146522,0.146522 -0.322543,0.223167 0.186144,0.70165 0.508693,0.478484 0.535178,0.297617 0.681702,0.151095 z"
       sodipodi:nodetypes="ssszs" /><ellipse
       style="fill:#ffffff;fill-opacity:1;stroke:#000000;stroke-width:0.265;stroke-dasharray:none;stroke-opacity:1"
       id="path1-7-2-9-9-1-6-1-9-5-8"
       cx="-23.402489"
       cy="-20.547089"
       rx="0.65429264"
       ry="0.80279088"
       transform="rotate(-177.38759)" /><path
       id="path1-9-9-4-2-8-1"
       style="fill:#66ff66;fill-opacity:1;stroke:#000000;stroke-width:0.265"
       d="m 14.205606,11.875177 c -0.649273,0.649271 -0.926367,1.979041 -0.277095,2.628311 0.64927,0.649272 1.979041,0.372176 2.62831,-0.277094 0.649269,-0.649269 0.649271,-1.701945 0,-2.351215 -0.64927,-0.649271 -1.701945,-0.649273 -2.351215,-2e-6 z"
       sodipodi:nodetypes="zzzzz" /><path
       id="path1-7-1-2-6-0-1-6-3"
       style="fill:#ffffff;stroke:#000000;stroke-width:0.265;stroke-dasharray:none"
       d="m 19.821424,9.539171 c -0.146521,0.146522 -0.360943,0.68318 -0.105662,0.93846 0.255283,0.255282 0.826988,0.06081 0.973511,-0.08572 0.146524,-0.146523 0.322545,-0.223168 -0.186143,-0.70165 C 19.994438,9.2117763 19.967951,9.3926423 19.821425,9.539166 Z"
       sodipodi:nodetypes="ssszs" /><path
       id="path1-7-1-9-0-2-5-0-2-1"
       style="fill:#ffffff;stroke:#000000;stroke-width:0.265;stroke-dasharray:none"
       d="m 18.051631,7.8001649 c -0.146522,0.1465212 -0.360945,0.6831797 -0.105664,0.9384607 0.255282,0.2552817 0.82699,0.06081 0.973513,-0.08572 0.146523,-0.146523 0.322543,-0.223168 -0.186144,-0.7016505 C 18.224643,7.4727713 18.198158,7.6536382 18.051634,7.80016 Z"
       sodipodi:nodetypes="ssszs" /><ellipse
       style="fill:#ffffff;fill-opacity:1;stroke:#000000;stroke-width:0.265;stroke-dasharray:none;stroke-opacity:1"
       id="path1-7-2-9-9-1-6-1-9-5-8-1"
       cx="13.156411"
       cy="12.821259"
       rx="0.65429264"
       ry="0.80279088"
       transform="rotate(2.6124095)" /><path
       id="path1-3-1-5-8-0-8-0-6"
       style="fill:url(#linearGradient3);fill-opacity:1;stroke:none;stroke-width:0.265"
       d="m 9.4699796,14.90584 c 0.09516,2.827765 0.469799,2.138021 0.8258434,3.761353 -0.284091,0.913731 -2.5011324,0.374998 -3.4344964,0.164162 -0.07443,-1.980619 0.436628,-3.030091 0.927864,-3.912315 0.491235,-0.882224 1.668312,-3.24896 1.680789,-0.0132 z"
       sodipodi:nodetypes="zcczz" /><path
       id="path1-3-1-5-8-0-8-0-6-3"
       style="fill:url(#linearGradient1);fill-opacity:1;stroke:none;stroke-width:0.265"
       d="m 25.53002,20.09416 c -0.09516,-2.827765 -0.469799,-2.138021 -0.825843,-3.761353 0.284091,-0.913731 2.501133,-0.374998 3.434497,-0.164162 0.07443,1.980619 -0.436629,3.030091 -0.927864,3.912315 -0.491236,0.882224 -1.668313,3.24896 -1.68079,0.0132 z"
       sodipodi:nodetypes="zcczz" /><path
       id="path1-3-1-5-8-0-8-0"
       style="fill:url(#linearGradient2);fill-opacity:1;stroke:none;stroke-width:0.265"
       d="m 13.806384,19.998839 c -0.0071,-2.533434 0.102866,-5.363497 -0.12256,-6.849501 0.510902,-0.809069 2.33468,-0.173745 3.181671,0.27148 0.07281,2.038123 -0.05823,5.436919 -1.145045,7.045967 -0.238,0.352364 -2.291797,2.096277 -1.914068,-0.467946 0,0 0.0071,2.533434 2e-6,0 z"
       sodipodi:nodetypes="zcczzz" /><path
       id="path1-3-1-5-8-0-8-0-4"
       style="fill:url(#linearGradient4);fill-opacity:1;stroke:none;stroke-width:0.265"
       d="m 21.193616,15.001161 c 0.0071,2.533434 -0.102866,5.363497 0.12256,6.849501 -0.510902,0.809069 -2.33468,0.173745 -3.181671,-0.27148 -0.07281,-2.038123 0.05823,-5.436919 1.145045,-7.045967 0.238,-0.352364 2.291797,-2.096277 1.914068,0.467946 0,0 -0.0071,-2.533434 -2e-6,0 z"
       sodipodi:nodetypes="zcczzz" /><path
       id="path1-3-0"
       style="fill:#ff6666;fill-opacity:1;stroke:#000000;stroke-width:0.265"
       d="m 26.614919,14.28727 c -0.91821,-10e-7 -2.054432,0.744353 -2.054431,1.662562 0,0.918208 1.136225,1.662561 2.054431,1.662561 0.918207,0 1.662561,-0.744355 1.662561,-1.662561 0,-0.918207 -0.744354,-1.662561 -1.662561,-1.662562 z"
       sodipodi:nodetypes="zzzzz" /><path
       style="fill:#999999;fill-opacity:1;stroke:none;stroke-width:0.264999;stroke-dasharray:none;stroke-opacity:1"
       d="m 16.191406,8.9042969 c -0.292488,-0.00827 -0.617135,0.09905 -0.605468,0.3007812 0.07244,1.2524069 0.553411,3.1382009 0.320312,4.0820309 -0.120106,-0.27365 -0.294555,-0.773353 -0.566406,-1.144531 0.09834,-0.544588 0.0762,-1.898714 -0.416016,-1.933594 -1.02704,-0.07279 -0.519195,2.170074 -0.447265,2.554688 0.07753,0.414549 0.906173,1.730579 1.164062,1.787109 0.485265,0.106378 1.335063,0.124264 1.855469,0.123047 0.520398,0.0031 1.371771,-0.01063 1.857422,-0.115234 0.258093,-0.05559 1.090876,-1.36894 1.169921,-1.783203 0.07334,-0.384349 0.5898,-2.625677 -0.4375,-2.556641 -0.492341,0.03308 -0.518224,1.386697 -0.421875,1.931641 -0.273205,0.370182 -0.449207,0.869369 -0.570312,1.142578 -0.229648,-0.944676 0.256969,-2.827944 0.333984,-4.0800784 0.02205,-0.3585544 -1.019715,-0.4239314 -1.054687,-0.066406 -0.05036,0.5149057 -0.184378,0.6272927 -0.117188,1.1562496 -0.217322,0.452837 -0.511517,1.061298 -0.58789,1.654297 -0.05913,0.02209 -0.114606,0.02958 -0.166016,0.0293 -0.05141,9.3e-5 -0.106965,-0.0089 -0.166016,-0.03125 -0.07421,-0.593274 -0.366365,-1.200669 -0.582031,-1.654297 0.06912,-0.5287079 -0.0648,-0.6411634 -0.113281,-1.1562497 -0.01473,-0.1564722 -0.221728,-0.2338059 -0.449219,-0.2402344 z"
       id="path4-6-3-2"
       sodipodi:nodetypes="sccscccccsss"
       transform="rotate(-90,23.266702,10.183571)"
       inkscape:original-d="m 14.924313,10.209901 c 0.492217,0.03488 0.51354,1.387545 0.4152,1.932133 0.271851,0.371178 0.44621,0.871112 0.566316,1.144762 0.233099,-0.94383 -0.2482,-2.828724 -0.320639,-4.081131 -0.02074,-0.3586326 1.022151,-0.4192286 1.055816,-0.061578 0.04848,0.5150863 0.182149,0.6270618 0.113026,1.15577 0.215666,0.453628 0.5075,1.06247 0.581706,1.655744 0.335179,0.12662 0.556797,-0.171236 0.556797,-0.171236 l 0.05085,2.882759 c 0,0 -1.568763,0.04531 -2.3026,-0.115559 -0.257889,-0.05653 -1.085797,-1.373618 -1.163328,-1.788167 -0.07193,-0.384614 -0.580184,-2.626287 0.446856,-2.553497 z"
       inkscape:path-effect="#path-effect5-4-0-9-5-7" /><path
       id="path1-7-1-1-4"
       style="fill:#ffffff;stroke:#000000;stroke-width:0.265;stroke-dasharray:none"
       d="m 20.508907,17.304518 c -0.04836,-0.682666 1.102807,-0.503895 1.310008,-0.501699 0.207201,0.0022 1.16763,-0.395947 1.161961,0.463465 -0.0069,1.042508 -2.428411,0.653086 -2.471969,0.03823 z"
       sodipodi:nodetypes="sszs" /><path
       id="path1-7-1-1-4-5"
       style="fill:#ffffff;stroke:#000000;stroke-width:0.265;stroke-dasharray:none"
       d="m 20.508908,14.595145 c -0.04836,0.682666 1.102805,0.503895 1.310008,0.501699 0.207201,-0.0022 1.167631,0.395946 1.16196,-0.463464 -0.0069,-1.042508 -2.428415,-0.653073 -2.471969,-0.03823 z"
       sodipodi:nodetypes="sszs" /><ellipse
       style="fill:#ffffff;fill-opacity:1;stroke:#000000;stroke-width:0.265;stroke-dasharray:none;stroke-opacity:1"
       id="path1-7-2-9-9-1-3-9"
       cx="-1.6580832"
       cy="26.942789"
       rx="0.65429264"
       ry="0.80279088"
       transform="rotate(-64.271923)" /><ellipse
       style="fill:#ffffff;fill-opacity:1;stroke:#000000;stroke-width:0.265;stroke-dasharray:none;stroke-opacity:1"
       id="path1-7-2-9-9"
       cx="-18.821049"
       cy="-22.973646"
       rx="0.65429264"
       ry="0.80279088"
       transform="matrix(0,-1,-1,0,0,0)" /><path
       id="path1-3-0-2"
       style="fill:#6666ff;fill-opacity:1;stroke:#000000;stroke-width:0.265"
       d="m 8.3850816,20.71273 c 0.91821,1e-6 2.0544314,-0.744353 2.0544304,-1.662562 0,-0.918208 -1.1362244,-1.662561 -2.0544304,-1.662561 -0.918207,0 -1.662561,0.744355 -1.662561,1.662561 0,0.918207 0.744354,1.662561 1.662561,1.662562 z"
       sodipodi:nodetypes="zzzzz" /><path
       style="fill:#999999;fill-opacity:1;stroke:none;stroke-width:0.264999;stroke-dasharray:none;stroke-opacity:1"
       d="m 16.191406,8.9042969 c -0.292488,-0.00827 -0.617135,0.09905 -0.605468,0.3007812 0.07244,1.2524069 0.553411,3.1382009 0.320312,4.0820309 -0.120106,-0.27365 -0.294555,-0.773353 -0.566406,-1.144531 0.09834,-0.544588 0.0762,-1.898714 -0.416016,-1.933594 -1.02704,-0.07279 -0.519195,2.170074 -0.447265,2.554688 0.07753,0.414549 0.906173,1.730579 1.164062,1.787109 0.485265,0.106378 1.335063,0.124264 1.855469,0.123047 0.520398,0.0031 1.371771,-0.01063 1.857422,-0.115234 0.258093,-0.05559 1.090876,-1.36894 1.169921,-1.783203 0.07334,-0.384349 0.5898,-2.625677 -0.4375,-2.556641 -0.492341,0.03308 -0.518224,1.386697 -0.421875,1.931641 -0.273205,0.370182 -0.449207,0.869369 -0.570312,1.142578 -0.229648,-0.944676 0.256969,-2.827944 0.333984,-4.0800784 0.02205,-0.3585544 -1.019715,-0.4239314 -1.054687,-0.066406 -0.05036,0.5149057 -0.184378,0.6272927 -0.117188,1.1562496 -0.217322,0.452837 -0.511517,1.061298 -0.58789,1.654297 -0.05913,0.02209 -0.114606,0.02958 -0.166016,0.0293 -0.05141,9.3e-5 -0.106965,-0.0089 -0.166016,-0.03125 -0.07421,-0.593274 -0.366365,-1.200669 -0.582031,-1.654297 0.06912,-0.5287079 -0.0648,-0.6411634 -0.113281,-1.1562497 -0.01473,-0.1564722 -0.221728,-0.2338059 -0.449219,-0.2402344 z"
       id="path4-6-3-2-0"
       sodipodi:nodetypes="sccscccccsss"
       transform="rotate(90,10.18357,11.733298)"
       inkscape:original-d="m 14.924313,10.209901 c 0.492217,0.03488 0.51354,1.387545 0.4152,1.932133 0.271851,0.371178 0.44621,0.871112 0.566316,1.144762 0.233099,-0.94383 -0.2482,-2.828724 -0.320639,-4.081131 -0.02074,-0.3586326 1.022151,-0.4192286 1.055816,-0.061578 0.04848,0.5150863 0.182149,0.6270618 0.113026,1.15577 0.215666,0.453628 0.5075,1.06247 0.581706,1.655744 0.335179,0.12662 0.556797,-0.171236 0.556797,-0.171236 l 0.05085,2.882759 c 0,0 -1.568763,0.04531 -2.3026,-0.115559 -0.257889,-0.05653 -1.085797,-1.373618 -1.163328,-1.788167 -0.07193,-0.384614 -0.580184,-2.626287 0.446856,-2.553497 z"
       inkscape:path-effect="#path-effect5-4-0-9-5-7-6" /><path
       id="path1-7-1-1-4-6"
       style="fill:#ffffff;stroke:#000000;stroke-width:0.265;stroke-dasharray:none"
       d="m 14.491093,17.695482 c 0.04836,0.682666 -1.102807,0.503895 -1.310008,0.501699 -0.207201,-0.0022 -1.16763,0.395947 -1.161961,-0.463465 0.0069,-1.042508 2.428411,-0.653086 2.471969,-0.03823 z"
       sodipodi:nodetypes="sszs" /><path
       id="path1-7-1-1-4-5-1"
       style="fill:#ffffff;stroke:#000000;stroke-width:0.265;stroke-dasharray:none"
       d="m 14.491092,20.404855 c 0.04836,-0.682666 -1.102805,-0.503895 -1.310008,-0.501699 -0.207201,0.0022 -1.167631,-0.395946 -1.16196,0.463464 0.0069,1.042508 2.428415,0.653073 2.471969,0.03823 z"
       sodipodi:nodetypes="sszs" /><ellipse
       style="fill:#ffffff;fill-opacity:1;stroke:#000000;stroke-width:0.265;stroke-dasharray:none;stroke-opacity:1"
       id="path1-7-2-9-9-1-3-9-5"
       cx="14.67865"
       cy="-19.780987"
       rx="0.65429264"
       ry="0.80279088"
       transform="rotate(115.72808)" /><ellipse
       style="fill:#ffffff;fill-opacity:1;stroke:#000000;stroke-width:0.265;stroke-dasharray:none;stroke-opacity:1"
       id="path1-7-2-9-9-5"
       cx="16.178951"
       cy="12.026357"
       rx="0.65429264"
       ry="0.80279088"
       transform="matrix(0,1,1,0,0,0)" /></g></svg>
