<?xml version="1.0" encoding="UTF-8" standalone="no"?>
<!-- Created with Inkscape (http://www.inkscape.org/) -->

<svg
   width="35mm"
   height="35mm"
   viewBox="0 0 35 35"
   version="1.1"
   id="svg1"
   xml:space="preserve"
   inkscape:version="1.4 (e7c3feb100, 2024-10-09)"
   sodipodi:docname="6_v2.svg"
   xmlns:inkscape="http://www.inkscape.org/namespaces/inkscape"
   xmlns:sodipodi="http://sodipodi.sourceforge.net/DTD/sodipodi-0.dtd"
   xmlns="http://www.w3.org/2000/svg"
   xmlns:svg="http://www.w3.org/2000/svg"><sodipodi:namedview
     id="namedview1"
     pagecolor="#ffffff"
     bordercolor="#000000"
     borderopacity="0.25"
     inkscape:showpageshadow="2"
     inkscape:pageopacity="0.0"
     inkscape:pagecheckerboard="0"
     inkscape:deskcolor="#d1d1d1"
     inkscape:document-units="mm"
     inkscape:zoom="6.07664"
     inkscape:cx="94.377814"
     inkscape:cy="65.496722"
     inkscape:window-width="1916"
     inkscape:window-height="1023"
     inkscape:window-x="0"
     inkscape:window-y="0"
     inkscape:window-maximized="0"
     inkscape:current-layer="layer1" /><defs
     id="defs1"><inkscape:path-effect
       effect="mirror_symmetry"
       start_point="17.297909,16.234992"
       end_point="17.313303,7.810326"
       center_point="17.305606,12.022659"
       id="path-effect5"
       is_visible="true"
       lpeversion="1.2"
       lpesatellites=""
       mode="free"
       discard_orig_path="false"
       fuse_paths="true"
       oposite_fuse="false"
       split_items="false"
       split_open="false"
       link_styles="false" /><inkscape:path-effect
       effect="mirror_symmetry"
       start_point="17.297909,16.234992"
       end_point="17.313303,7.810326"
       center_point="17.305606,12.022659"
       id="path-effect5-7"
       is_visible="true"
       lpeversion="1.2"
       lpesatellites=""
       mode="free"
       discard_orig_path="false"
       fuse_paths="true"
       oposite_fuse="false"
       split_items="false"
       split_open="false"
       link_styles="false" /><inkscape:path-effect
       effect="mirror_symmetry"
       start_point="17.297909,16.234992"
       end_point="17.313303,7.810326"
       center_point="17.305606,12.022659"
       id="path-effect5-6"
       is_visible="true"
       lpeversion="1.2"
       lpesatellites=""
       mode="free"
       discard_orig_path="false"
       fuse_paths="true"
       oposite_fuse="false"
       split_items="false"
       split_open="false"
       link_styles="false" /><inkscape:path-effect
       effect="mirror_symmetry"
       start_point="17.297909,16.234992"
       end_point="17.313303,7.810326"
       center_point="17.305606,12.022659"
       id="path-effect5-3"
       is_visible="true"
       lpeversion="1.2"
       lpesatellites=""
       mode="free"
       discard_orig_path="false"
       fuse_paths="true"
       oposite_fuse="false"
       split_items="false"
       split_open="false"
       link_styles="false" /><inkscape:path-effect
       effect="mirror_symmetry"
       start_point="17.297909,16.234992"
       end_point="17.313303,7.810326"
       center_point="17.305606,12.022659"
       id="path-effect5-66"
       is_visible="true"
       lpeversion="1.2"
       lpesatellites=""
       mode="free"
       discard_orig_path="false"
       fuse_paths="true"
       oposite_fuse="false"
       split_items="false"
       split_open="false"
       link_styles="false" /><inkscape:path-effect
       effect="mirror_symmetry"
       start_point="17.297909,16.234992"
       end_point="17.313303,7.810326"
       center_point="17.305606,12.022659"
       id="path-effect5-4"
       is_visible="true"
       lpeversion="1.2"
       lpesatellites=""
       mode="free"
       discard_orig_path="false"
       fuse_paths="true"
       oposite_fuse="false"
       split_items="false"
       split_open="false"
       link_styles="false" /><inkscape:path-effect
       effect="mirror_symmetry"
       start_point="17.297909,16.234992"
       end_point="17.313303,7.810326"
       center_point="17.305606,12.022659"
       id="path-effect5-4-7"
       is_visible="true"
       lpeversion="1.2"
       lpesatellites=""
       mode="free"
       discard_orig_path="false"
       fuse_paths="true"
       oposite_fuse="false"
       split_items="false"
       split_open="false"
       link_styles="false" /><inkscape:path-effect
       effect="mirror_symmetry"
       start_point="17.297909,16.234992"
       end_point="17.313303,7.810326"
       center_point="17.305606,12.022659"
       id="path-effect5-41"
       is_visible="true"
       lpeversion="1.2"
       lpesatellites=""
       mode="free"
       discard_orig_path="false"
       fuse_paths="true"
       oposite_fuse="false"
       split_items="false"
       split_open="false"
       link_styles="false" /><inkscape:path-effect
       effect="mirror_symmetry"
       start_point="17.493844,16.300304"
       end_point="17.509238,7.875638"
       center_point="17.501541,12.087971"
       id="path-effect5-4-0-9-72-8"
       is_visible="true"
       lpeversion="1.2"
       lpesatellites=""
       mode="free"
       discard_orig_path="false"
       fuse_paths="true"
       oposite_fuse="false"
       split_items="false"
       split_open="false"
       link_styles="false" /></defs><g
     inkscape:label="Layer 1"
     inkscape:groupmode="layer"
     id="layer1"><path
       style="fill:#999999;fill-opacity:1;stroke:none;stroke-width:0.264999;stroke-dasharray:none;stroke-opacity:1"
       d="m 16.0625,7.5585937 c -0.262338,-0.00397 -0.518182,0.082402 -0.507812,0.2617188 0.07244,1.2524069 0.08092,3.5770765 0.509765,4.4824215 -0.437864,0.679074 -1.494271,1.202659 -2.015625,2.046875 -0.452157,0.732168 -0.02075,1.907611 0.216797,3.083985 0.05573,0.275974 0.796346,0.47567 0.822266,0.195312 0.109285,-1.18211 -0.07617,-2.728515 -0.07617,-2.728515 0.929349,-0.552216 1.774728,-0.990204 2.291015,-1.248047 0.515342,0.259728 1.357832,0.702204 2.285157,1.257812 0,0 -0.188949,1.544061 -0.08398,2.726563 0.0249,0.280451 0.76553,0.08241 0.822266,-0.19336 0.241841,-1.175498 0.677994,-2.348215 0.228515,-3.082031 -0.518265,-0.846116 -1.574386,-1.372065 -2.009765,-2.052734 0.432152,-0.903772 0.450328,-3.2302883 0.527344,-4.4824221 0.02205,-0.3585544 -1.02167,-0.3458071 -1.056641,0.011719 -0.100734,1.0298107 -0.213416,2.7436984 -0.427734,2.9062504 -0.121107,0.09185 -0.211094,0.116149 -0.279297,0.105468 -0.06824,0.01043 -0.16048,-0.01512 -0.28125,-0.107421 C 16.813621,10.578854 16.706345,8.8661094 16.609375,7.8359375 16.592543,7.6571119 16.324839,7.5625647 16.0625,7.5585937 Z"
       id="path4"
       sodipodi:nodetypes="ssscssscccs"
       transform="matrix(-1,0,0,1,34.837604,-0.4234199)"
       inkscape:original-d="m 15.087222,17.628795 c -0.02592,0.280358 -0.765893,0.08004 -0.821621,-0.195934 -0.237544,-1.176374 -0.668956,-2.351745 -0.216799,-3.083913 0.521354,-0.844216 1.577933,-1.366261 2.015797,-2.045335 -0.428846,-0.905345 -0.437758,-3.2310091 -0.510197,-4.483416 -0.02074,-0.3586326 1.022152,-0.3422582 1.055816,0.015393 0.09697,1.0301719 0.203913,2.743905 0.417636,2.907239 0.427544,0.326742 0.480507,-0.179347 0.480507,-0.179347 l 0.318037,2.834014 c 0,0 -1.293868,0.600372 -2.814147,1.503717 0,0 0.184256,1.545472 0.07497,2.727582 z"
       inkscape:path-effect="#path-effect5" /><path
       id="path1"
       style="fill:#4d4d4d;fill-opacity:1;stroke:#000000;stroke-width:0.265"
       d="m 15.874821,12.588404 c 0,0.918208 0.744354,2.054432 1.662562,2.054432 0.918208,0 1.662561,-1.136225 1.662561,-2.054432 0,-0.918207 -0.744354,-1.662561 -1.662561,-1.662561 -0.918207,0 -1.662562,0.744353 -1.662562,1.662561 z"
       sodipodi:nodetypes="zzzzz" /><path
       id="path1-7-1"
       style="fill:#ffffff;stroke:#000000;stroke-width:0.265;stroke-dasharray:none"
       d="m 18.184466,6.9656121 c 0,0.207214 0.227855,0.738307 0.588877,0.738307 0.361023,0 0.627766,-0.541773 0.627766,-0.748987 0,-0.207214 0.07027,-0.385876 -0.627766,-0.364516 -0.69804,0.02136 -0.588877,0.167981 -0.588877,0.375196 z"
       sodipodi:nodetypes="ssszs" /><path
       id="path1-7-1-9"
       style="fill:#ffffff;stroke:#000000;stroke-width:0.265;stroke-dasharray:none"
       d="m 15.703369,6.9873821 c 0,0.207214 0.227855,0.738307 0.588877,0.738307 0.361023,0 0.627766,-0.541773 0.627766,-0.748987 0,-0.207214 0.07027,-0.385876 -0.627766,-0.364516 -0.69804,0.02136 -0.588877,0.167981 -0.588877,0.375196 z"
       sodipodi:nodetypes="ssszs" /><path
       style="fill:#999999;fill-opacity:1;stroke:none;stroke-width:0.264999;stroke-dasharray:none;stroke-opacity:1"
       d="m 16.0625,7.5585937 c -0.262338,-0.00397 -0.518182,0.082402 -0.507812,0.2617188 0.07244,1.2524069 0.08092,3.5770765 0.509765,4.4824215 -0.437864,0.679074 -1.494271,1.202659 -2.015625,2.046875 -0.452157,0.732168 -0.02075,1.907611 0.216797,3.083985 0.05573,0.275974 0.796346,0.47567 0.822266,0.195312 0.10928,-1.18211 0.09766,-2.857422 0.09766,-2.857422 0.891495,-0.529723 1.646191,-0.910531 2.117187,-1.134765 0.470175,0.225954 1.221775,0.607646 2.111328,1.140625 0,0 -0.01512,1.676873 0.08984,2.859375 0.0249,0.280451 0.76553,0.08241 0.822266,-0.19336 0.241841,-1.175498 0.677994,-2.348215 0.228515,-3.082031 -0.518265,-0.846116 -1.574386,-1.372065 -2.009765,-2.052734 0.432152,-0.903772 0.450328,-3.2302883 0.527344,-4.4824221 0.02205,-0.3585544 -1.02167,-0.3458071 -1.056641,0.011719 -0.100734,1.0298107 -0.213416,2.7436984 -0.427734,2.9062504 -0.121107,0.09185 -0.211094,0.116149 -0.279297,0.105468 -0.06824,0.01043 -0.16048,-0.01512 -0.28125,-0.107421 C 16.813621,10.578854 16.706345,8.8661094 16.609375,7.8359375 16.592543,7.6571119 16.324839,7.5625647 16.0625,7.5585937 Z"
       id="path4-6"
       sodipodi:nodetypes="ssscssscccs"
       transform="matrix(1,0,0,-1,0.2371601,35.445192)"
       inkscape:original-d="m 15.087222,17.628795 c -0.02592,0.280358 -0.765893,0.08004 -0.821621,-0.195934 -0.237544,-1.176374 -0.668956,-2.351745 -0.216799,-3.083913 0.521354,-0.844216 1.577933,-1.366261 2.015797,-2.045335 -0.428846,-0.905345 -0.437758,-3.2310091 -0.510197,-4.483416 -0.02074,-0.3586326 1.022152,-0.3422582 1.055816,0.015393 0.09697,1.0301719 0.203913,2.743905 0.417636,2.907239 0.427544,0.326742 0.480507,-0.179347 0.480507,-0.179347 l 0.318037,2.834014 c 0,0 -1.119704,0.469749 -2.639983,1.373094 0,0 0.01009,1.676095 -0.09919,2.858205 z"
       inkscape:path-effect="#path-effect5-4" /><ellipse
       style="fill:#ffffff;fill-opacity:1;stroke:#000000;stroke-width:0.265;stroke-dasharray:none;stroke-opacity:1"
       id="path1-7-2-9-9-1"
       cx="-20.097641"
       cy="17.471842"
       rx="0.65429264"
       ry="0.80279088"
       transform="scale(-1,1)" /><path
       id="path1-3"
       style="fill:#66ff66;fill-opacity:1;stroke:#000000;stroke-width:0.265"
       d="m 19.199943,22.433366 c 0,-0.918208 -0.744354,-2.054432 -1.662562,-2.054432 -0.918208,0 -1.662561,1.136225 -1.662561,2.054432 0,0.918207 0.744355,1.662561 1.662561,1.662561 0.918207,0 1.662562,-0.744353 1.662562,-1.662561 z"
       sodipodi:nodetypes="zzzzz" /><path
       id="path1-7-1-1"
       style="fill:#ffffff;stroke:#000000;stroke-width:0.265;stroke-dasharray:none"
       d="m 16.903187,28.034388 c 0,-0.207214 -0.227855,-0.738307 -0.588877,-0.738307 -0.361023,0 -0.627766,0.541773 -0.627766,0.748987 0,0.207214 -0.07027,0.385876 0.627766,0.364516 0.69804,-0.02136 0.588877,-0.167981 0.588877,-0.375196 z"
       sodipodi:nodetypes="ssszs" /><path
       id="path1-7-1-9-7"
       style="fill:#ffffff;stroke:#000000;stroke-width:0.265;stroke-dasharray:none"
       d="m 19.384284,28.012618 c 0,-0.207214 -0.227855,-0.738307 -0.588877,-0.738307 -0.361023,0 -0.627766,0.541773 -0.627766,0.748987 0,0.207213 -0.07027,0.385875 0.627766,0.364515 0.69804,-0.02136 0.588877,-0.167981 0.588877,-0.375195 z"
       sodipodi:nodetypes="ssszs" /><ellipse
       style="fill:#ffffff;fill-opacity:1;stroke:#000000;stroke-width:0.265;stroke-dasharray:none;stroke-opacity:1"
       id="path1-7-2-9-9"
       cx="-14.993446"
       cy="17.471842"
       rx="0.65429264"
       ry="0.80279088"
       transform="scale(-1,1)" /><path
       id="path1-3-0-4"
       style="fill:#6666ff;fill-opacity:1;stroke:#000000;stroke-width:0.265"
       d="m 9.5949901,22.128191 c 0.8869209,0.23765 2.1770809,-0.187264 2.4147299,-1.074186 0.23765,-0.886919 -0.667206,-1.899987 -1.554125,-2.137636 -0.8869209,-0.237649 -1.7985649,0.28869 -2.0362139,1.175608 -0.237651,0.886921 0.288687,1.798565 1.175609,2.036214 z"
       sodipodi:nodetypes="zzzzz" /><path
       style="fill:#999999;fill-opacity:1;stroke:none;stroke-width:0.264999;stroke-dasharray:none;stroke-opacity:1"
       d="m 10.901909,19.08652 c 0.440756,-0.358247 0.891984,-0.194486 1.458018,-0.281569 0.601174,0.201257 1.905139,1.050564 2.053222,0.435228 0.382377,-0.87006 -1.263876,-1.352332 -1.996366,-1.456514 -0.599548,-0.08527 -2.202453,-0.04595 -2.6455889,0.391248 -0.339824,0.335274 -0.63476,1.45901 -0.77433,2.067295 -0.185449,0.595902 -0.496596,1.718519 -0.371616,2.179248 0.162951,0.600799 1.10617,1.415705 1.6263199,1.725821 0.386087,0.230187 2.127614,1.165246 2.249491,0.758446 0.181645,-0.606276 -0.800683,-0.986461 -1.607165,-1.540731 -0.382115,-0.356063 -0.632099,-0.632008 -0.832741,-1.163372 0.971925,0.02268 2.447515,0.901623 3.637052,1.30009 0.340628,0.1141 0.673407,-0.875247 0.337119,-1.001562 -0.484326,-0.18191 -0.558197,-0.34045 -1.08652,-0.412453 -0.38116,-0.32712 -0.892745,-0.768772 -1.445771,-0.996022 -0.006,-0.06283 0.0011,-0.118359 0.01467,-0.167944 0.01322,-0.04968 0.906189,-0.314164 0.943061,-0.365419 0.275131,-0.558128 -0.652373,-1.007526 -1.558851,-1.471795 z"
       id="path4-6-3-2-0"
       sodipodi:nodetypes="cccscccssscsscccccc" /><ellipse
       style="fill:#ffffff;fill-opacity:1;stroke:#000000;stroke-width:0.265;stroke-dasharray:none;stroke-opacity:1"
       id="path1-7-2-9-9-1-3"
       cx="1.8920298"
       cy="27.463249"
       rx="0.65429264"
       ry="0.80279088"
       transform="matrix(-0.8660254,0.5,0.5,0.8660254,0,0)" /><ellipse
       style="fill:#ffffff;fill-opacity:1;stroke:#000000;stroke-width:0.265;stroke-dasharray:none;stroke-opacity:1"
       id="path1-7-2-9-9-1-9-9"
       cx="-14.831596"
       cy="-19.222466"
       rx="0.65429264"
       ry="0.80279088"
       transform="matrix(0.25881905,-0.96592583,-0.96592583,-0.25881905,0,0)" /><path
       id="path1-7-1-1-4-1"
       style="fill:#ffffff;stroke:#000000;stroke-width:0.265;stroke-dasharray:none"
       d="m 12.995091,20.361799 c -0.129975,0.671922 -1.195647,0.201299 -1.39522,0.145549 -0.199573,-0.05575 -1.230323,0.08025 -1.002414,-0.748409 0.276485,-1.005199 2.514697,-0.0023 2.397633,0.602866 z"
       sodipodi:nodetypes="sszs" /><path
       id="path1-7-1-1-4-5-9"
       style="fill:#ffffff;stroke:#000000;stroke-width:0.265;stroke-dasharray:none"
       d="m 15.572627,23.411159 c 0.2234,-0.646888 -0.934812,-0.772152 -1.135522,-0.82366 -0.200711,-0.0515 -1.025364,-0.684661 -1.242321,0.146935 -0.263155,1.008772 2.176635,1.259352 2.377845,0.676721 z"
       sodipodi:nodetypes="sszs" /><path
       id="path1-3-0-4-5"
       style="fill:#ff6666;fill-opacity:1;stroke:#000000;stroke-width:0.265"
       d="m 25.40501,12.871809 c -0.886921,-0.23765 -2.177081,0.187264 -2.41473,1.074186 -0.23765,0.886919 0.667206,1.899987 1.554125,2.137636 0.886921,0.237649 1.798565,-0.28869 2.036214,-1.175608 0.237651,-0.886921 -0.288687,-1.798565 -1.175609,-2.036214 z"
       sodipodi:nodetypes="zzzzz" /><path
       style="fill:#999999;fill-opacity:1;stroke:none;stroke-width:0.264999;stroke-dasharray:none;stroke-opacity:1"
       d="m 24.098091,15.91348 c -0.440756,0.358247 -0.891984,0.194486 -1.458018,0.281569 -0.601174,-0.201257 -1.905139,-1.050564 -2.053222,-0.435228 -0.382377,0.87006 1.263876,1.352332 1.996366,1.456514 0.599548,0.08527 2.202453,0.04595 2.645589,-0.391248 0.339824,-0.335274 0.63476,-1.45901 0.77433,-2.067295 0.185449,-0.595902 0.496596,-1.718519 0.371616,-2.179248 -0.162951,-0.600799 -1.10617,-1.415705 -1.62632,-1.725821 -0.386087,-0.230187 -2.127614,-1.165246 -2.249491,-0.758446 -0.181645,0.606276 0.800683,0.986461 1.607165,1.540731 0.382115,0.356063 0.632099,0.632008 0.832741,1.163372 -0.971925,-0.02268 -2.447515,-0.901623 -3.637052,-1.30009 -0.340628,-0.1141 -0.673407,0.875247 -0.337119,1.001562 0.484326,0.18191 0.558197,0.34045 1.08652,0.412453 0.38116,0.32712 0.892745,0.768772 1.445771,0.996022 0.006,0.06283 -0.0011,0.118359 -0.01467,0.167944 -0.01322,0.04968 -0.906189,0.314164 -0.943061,0.365419 -0.275131,0.558128 0.652373,1.007526 1.558851,1.471795 z"
       id="path4-6-3-2-0-9"
       sodipodi:nodetypes="cccscccssscsscccccc" /><ellipse
       style="fill:#ffffff;fill-opacity:1;stroke:#000000;stroke-width:0.265;stroke-dasharray:none;stroke-opacity:1"
       id="path1-7-2-9-9-1-3-2"
       cx="14.702919"
       cy="-20.347639"
       rx="0.65429264"
       ry="0.80279088"
       transform="matrix(0.8660254,-0.5,-0.5,-0.8660254,0,0)" /><ellipse
       style="fill:#ffffff;fill-opacity:1;stroke:#000000;stroke-width:0.265;stroke-dasharray:none;stroke-opacity:1"
       id="path1-7-2-9-9-1-9-9-2"
       cx="9.917141"
       cy="23.643604"
       rx="0.65429264"
       ry="0.80279088"
       transform="matrix(-0.25881905,0.96592583,0.96592583,0.25881905,0,0)" /><path
       id="path1-7-1-1-4-1-8"
       style="fill:#ffffff;stroke:#000000;stroke-width:0.265;stroke-dasharray:none"
       d="m 22.004909,14.638201 c 0.129975,-0.671922 1.195647,-0.201299 1.39522,-0.145549 0.199573,0.05575 1.230323,-0.08025 1.002414,0.748409 -0.276485,1.005199 -2.514697,0.0023 -2.397633,-0.602866 z"
       sodipodi:nodetypes="sszs" /><path
       id="path1-7-1-1-4-5-9-9"
       style="fill:#ffffff;stroke:#000000;stroke-width:0.265;stroke-dasharray:none"
       d="m 19.427373,11.588841 c -0.2234,0.646888 0.934812,0.772152 1.135522,0.82366 0.200711,0.0515 1.025364,0.684661 1.242321,-0.146935 0.263155,-1.008772 -2.176635,-1.259352 -2.377845,-0.676721 z"
       sodipodi:nodetypes="sszs" /></g></svg>
