<?xml version="1.0" encoding="UTF-8" standalone="no"?>
<!-- Created with Inkscape (http://www.inkscape.org/) -->

<svg
   width="35mm"
   height="35mm"
   viewBox="0 0 35 35"
   version="1.1"
   id="svg1"
   xml:space="preserve"
   inkscape:version="1.4 (e7c3feb100, 2024-10-09)"
   sodipodi:docname="6_v2_end.svg"
   xmlns:inkscape="http://www.inkscape.org/namespaces/inkscape"
   xmlns:sodipodi="http://sodipodi.sourceforge.net/DTD/sodipodi-0.dtd"
   xmlns="http://www.w3.org/2000/svg"
   xmlns:svg="http://www.w3.org/2000/svg"><sodipodi:namedview
     id="namedview1"
     pagecolor="#ffffff"
     bordercolor="#000000"
     borderopacity="0.25"
     inkscape:showpageshadow="2"
     inkscape:pageopacity="0.0"
     inkscape:pagecheckerboard="0"
     inkscape:deskcolor="#d1d1d1"
     inkscape:document-units="mm"
     inkscape:zoom="3.981732"
     inkscape:cx="69.693289"
     inkscape:cy="37.420901"
     inkscape:window-width="1290"
     inkscape:window-height="1023"
     inkscape:window-x="0"
     inkscape:window-y="0"
     inkscape:window-maximized="0"
     inkscape:current-layer="layer1" /><defs
     id="defs1"><inkscape:path-effect
       effect="mirror_symmetry"
       start_point="17.297909,16.234992"
       end_point="17.313303,7.810326"
       center_point="17.305606,12.022659"
       id="path-effect5"
       is_visible="true"
       lpeversion="1.2"
       lpesatellites=""
       mode="free"
       discard_orig_path="false"
       fuse_paths="true"
       oposite_fuse="false"
       split_items="false"
       split_open="false"
       link_styles="false" /><inkscape:path-effect
       effect="mirror_symmetry"
       start_point="17.297909,16.234992"
       end_point="17.313303,7.810326"
       center_point="17.305606,12.022659"
       id="path-effect5-7"
       is_visible="true"
       lpeversion="1.2"
       lpesatellites=""
       mode="free"
       discard_orig_path="false"
       fuse_paths="true"
       oposite_fuse="false"
       split_items="false"
       split_open="false"
       link_styles="false" /><inkscape:path-effect
       effect="mirror_symmetry"
       start_point="17.297909,16.234992"
       end_point="17.313303,7.810326"
       center_point="17.305606,12.022659"
       id="path-effect5-6"
       is_visible="true"
       lpeversion="1.2"
       lpesatellites=""
       mode="free"
       discard_orig_path="false"
       fuse_paths="true"
       oposite_fuse="false"
       split_items="false"
       split_open="false"
       link_styles="false" /><inkscape:path-effect
       effect="mirror_symmetry"
       start_point="17.297909,16.234992"
       end_point="17.313303,7.810326"
       center_point="17.305606,12.022659"
       id="path-effect5-3"
       is_visible="true"
       lpeversion="1.2"
       lpesatellites=""
       mode="free"
       discard_orig_path="false"
       fuse_paths="true"
       oposite_fuse="false"
       split_items="false"
       split_open="false"
       link_styles="false" /><inkscape:path-effect
       effect="mirror_symmetry"
       start_point="17.297909,16.234992"
       end_point="17.313303,7.810326"
       center_point="17.305606,12.022659"
       id="path-effect5-66"
       is_visible="true"
       lpeversion="1.2"
       lpesatellites=""
       mode="free"
       discard_orig_path="false"
       fuse_paths="true"
       oposite_fuse="false"
       split_items="false"
       split_open="false"
       link_styles="false" /><inkscape:path-effect
       effect="mirror_symmetry"
       start_point="17.297909,16.234992"
       end_point="17.313303,7.810326"
       center_point="17.305606,12.022659"
       id="path-effect5-4"
       is_visible="true"
       lpeversion="1.2"
       lpesatellites=""
       mode="free"
       discard_orig_path="false"
       fuse_paths="true"
       oposite_fuse="false"
       split_items="false"
       split_open="false"
       link_styles="false" /><inkscape:path-effect
       effect="mirror_symmetry"
       start_point="17.297909,16.234992"
       end_point="17.313303,7.810326"
       center_point="17.305606,12.022659"
       id="path-effect5-4-7"
       is_visible="true"
       lpeversion="1.2"
       lpesatellites=""
       mode="free"
       discard_orig_path="false"
       fuse_paths="true"
       oposite_fuse="false"
       split_items="false"
       split_open="false"
       link_styles="false" /><inkscape:path-effect
       effect="mirror_symmetry"
       start_point="17.297909,16.234992"
       end_point="17.313303,7.810326"
       center_point="17.305606,12.022659"
       id="path-effect5-41"
       is_visible="true"
       lpeversion="1.2"
       lpesatellites=""
       mode="free"
       discard_orig_path="false"
       fuse_paths="true"
       oposite_fuse="false"
       split_items="false"
       split_open="false"
       link_styles="false" /><inkscape:path-effect
       effect="mirror_symmetry"
       start_point="17.493844,16.300304"
       end_point="17.509238,7.875638"
       center_point="17.501541,12.087971"
       id="path-effect5-4-0-9-5-7"
       is_visible="true"
       lpeversion="1.2"
       lpesatellites=""
       mode="free"
       discard_orig_path="false"
       fuse_paths="true"
       oposite_fuse="false"
       split_items="false"
       split_open="false"
       link_styles="false" /><inkscape:path-effect
       effect="mirror_symmetry"
       start_point="17.493844,16.300304"
       end_point="17.509238,7.875638"
       center_point="17.501541,12.087971"
       id="path-effect5-4-0-9-5-7-6"
       is_visible="true"
       lpeversion="1.2"
       lpesatellites=""
       mode="free"
       discard_orig_path="false"
       fuse_paths="true"
       oposite_fuse="false"
       split_items="false"
       split_open="false"
       link_styles="false" /></defs><g
     inkscape:label="Layer 1"
     inkscape:groupmode="layer"
     id="layer1"><path
       style="fill:#999999;fill-opacity:1;stroke:none;stroke-width:0.264999;stroke-dasharray:none;stroke-opacity:1"
       d="m 16.740549,2.438039 c -0.26234,-0.004 -0.518184,0.082404 -0.507815,0.2617179 0.07244,1.2524046 0.08092,3.5770761 0.509765,4.4824177 -0.437859,0.6790765 -1.450729,-0.1688821 -1.972083,0.6753312 -0.452162,0.7321659 0.349348,2.0817773 0.848142,2.3437892 0.249251,0.130922 1.037875,-0.4726726 0.822265,-0.6537403 C 15.940538,9.127412 15.973354,9.0848926 15.733879,8.562399 c 0.459065,-0.2308096 1.415412,0.5955116 1.88143,-0.1312273 0.588369,0.0052 -0.15355,1.7365553 -0.315576,2.5382853 -0.899738,0.181162 -1.581665,0.371772 -2.140535,0.598856 0.0249,0.28045 -0.135496,0.904565 0.137308,0.834984 0.938498,-0.239368 2.230626,-0.243628 2.653983,-0.624439 0.706641,-0.635624 1.707858,-3.9101338 1.272477,-4.5908072 0.432153,-0.9037693 0.45033,-3.2302869 0.527345,-4.4824184 0.02205,-0.3585566 -1.021671,-0.345808 -1.056641,0.01172 -0.100733,1.0298088 -0.213416,2.7436964 -0.427734,2.906248 -0.121111,0.091854 -0.211098,0.1161435 -0.279298,0.1054714 -0.06823,0.010413 -0.160481,-0.01512 -0.281247,-0.1074254 C 17.491675,5.4583001 17.384398,3.7455571 17.287428,2.7153856 17.270602,2.5365595 17.002888,2.4420183 16.740553,2.4380411 Z"
       id="path4-4-5-2-0-5-6"
       sodipodi:nodetypes="ssscssccccsscscscssss" /><path
       id="path1-9-9-4-2-8-1"
       style="fill:#4d4d4d;fill-opacity:1;stroke:#000000;stroke-width:0.265"
       d="m 16.314271,7.8912669 c 0,0.9182097 0.744353,2.0544338 1.662562,2.0544328 0.918207,10e-8 1.66256,-1.1362256 1.66256,-2.0544308 0,-0.9182051 -0.744351,-1.6625605 -1.66256,-1.6625599 -0.918208,-1.5e-6 -1.662562,0.7443509 -1.662562,1.6625579 z"
       sodipodi:nodetypes="zzzzz" /><path
       id="path1-7-1-2-6-0-1-6-3"
       style="fill:#ffffff;stroke:#000000;stroke-width:0.265;stroke-dasharray:none"
       d="m 18.63345,2.2684787 c -1e-6,0.2072121 0.227852,0.7383077 0.588877,0.7383055 0.361024,-2e-7 0.627767,-0.5417696 0.627763,-0.7489891 10e-7,-0.2072147 0.07027,-0.3858785 -0.627765,-0.3645183 -0.698039,0.02136 -0.588889,0.1679378 -0.588878,0.3751975 z"
       sodipodi:nodetypes="ssszs" /><path
       id="path1-7-1-9-0-2-5-0-2-1"
       style="fill:#ffffff;stroke:#000000;stroke-width:0.265;stroke-dasharray:none"
       d="m 16.152354,2.2902483 c 0,0.2072122 0.227852,0.7383086 0.588876,0.7383079 0.361023,-2e-7 0.62777,-0.5417711 0.627765,-0.7489908 10e-7,-0.2072138 0.07027,-0.3858771 -0.627766,-0.3645181 -0.698039,0.021361 -0.588862,0.1680343 -0.588877,0.3751961 z"
       sodipodi:nodetypes="ssszs" /><ellipse
       style="fill:#ffffff;fill-opacity:1;stroke:#000000;stroke-width:0.265;stroke-dasharray:none;stroke-opacity:1"
       id="path1-7-2-9-9-1-6-1-9-5-8-1"
       cx="5.154212"
       cy="18.432549"
       rx="0.65429264"
       ry="0.80279088"
       transform="rotate(-42.38759)" /><ellipse
       style="fill:#ffffff;fill-opacity:1;stroke:#000000;stroke-width:0.265;stroke-dasharray:none;stroke-opacity:1"
       id="path1-7-2-9-9-5"
       cx="16.17894"
       cy="12.02635"
       rx="0.65429264"
       ry="0.80279088"
       transform="matrix(0,1,1,0,0,0)" /><path
       id="path1-3-0-4-12"
       style="fill:#6666ff;fill-opacity:1;stroke:#000000;stroke-width:0.265"
       d="m 12.424949,14.659596 c 0.886922,-0.23765 2.177082,0.187264 2.414731,1.074186 0.23765,0.886918 -0.667207,1.899986 -1.554125,2.137636 -0.886921,0.237648 -1.798565,-0.28869 -2.036214,-1.175609 -0.237651,-0.886921 0.288686,-1.798564 1.175608,-2.036213 z"
       sodipodi:nodetypes="zzzzz" /><path
       style="fill:#999999;fill-opacity:1;stroke:none;stroke-width:0.264999;stroke-dasharray:none;stroke-opacity:1"
       d="m 13.731869,17.701267 c 0.440755,0.358247 0.891982,0.194489 1.458018,0.281569 0.601175,-0.201253 1.905138,-1.050564 2.053222,-0.435229 0.382377,0.87006 -1.263876,1.352333 -1.996366,1.456515 -0.599548,0.08527 -2.202453,0.04595 -2.645589,-0.391249 -0.339824,-0.335274 -0.634761,-1.459009 -0.77433,-2.067294 -0.18545,-0.595902 -0.496596,-1.718519 -0.371616,-2.179249 0.16295,-0.600799 1.10617,-1.415705 1.62632,-1.725821 0.386086,-0.230187 2.127614,-1.165245 2.249491,-0.758445 0.181645,0.606275 -0.800684,0.98646 -1.607165,1.540731 -0.382115,0.356063 -0.6321,0.632007 -0.832742,1.163371 0.971925,-0.02268 2.447516,-0.901623 3.637053,-1.300089 0.340628,-0.114099 0.673407,0.875247 0.33712,1.001562 -0.484326,0.18191 -0.558198,0.340449 -1.08652,0.412453 -0.38116,0.327119 -0.892746,0.768771 -1.445771,0.996021 -0.006,0.06284 0.0011,0.11836 0.01466,0.167944 0.01322,0.04968 0.906189,0.314163 0.94306,0.365418 0.275132,0.558129 -0.652373,1.007527 -1.55885,1.471796 z"
       id="path4-6-3-2-0-9"
       sodipodi:nodetypes="cccscccssscsscccccc" /><ellipse
       style="fill:#ffffff;fill-opacity:1;stroke:#000000;stroke-width:0.265;stroke-dasharray:none;stroke-opacity:1"
       id="path1-7-2-9-9-1-3-3"
       cx="-17.903967"
       cy="6.8947797"
       rx="0.65429264"
       ry="0.80279088"
       transform="rotate(-120)" /><path
       id="path1-7-1-1-4-1-9"
       style="fill:#ffffff;stroke:#000000;stroke-width:0.265;stroke-dasharray:none"
       d="m 15.825051,16.425987 c -0.129975,-0.671921 -1.195648,-0.201299 -1.39522,-0.145549 -0.199572,0.05575 -1.230323,-0.08025 -1.002415,0.748409 0.276485,1.005199 2.514698,0.0023 2.397633,-0.602865 z"
       sodipodi:nodetypes="sszs" /><path
       id="path1-7-1-1-4-5-9-4"
       style="fill:#ffffff;stroke:#000000;stroke-width:0.265;stroke-dasharray:none"
       d="m 18.402587,13.376627 c 0.223399,0.646888 -0.934813,0.772153 -1.135522,0.823661 -0.200711,0.0515 -1.025365,0.68466 -1.242322,-0.146936 -0.263156,-1.008771 2.176636,-1.259352 2.377846,-0.67672 z"
       sodipodi:nodetypes="sszs" /><ellipse
       style="fill:#ffffff;fill-opacity:1;stroke:#000000;stroke-width:0.265;stroke-dasharray:none;stroke-opacity:1"
       id="path1-7-2-9-9-1-3-9-5"
       cx="18.754946"
       cy="-16.147802"
       rx="0.65429264"
       ry="0.80279088"
       transform="rotate(85.72808)" /><path
       style="fill:#999999;fill-opacity:1;stroke:none;stroke-width:0.264999;stroke-dasharray:none;stroke-opacity:1"
       d="m 18.25944,32.561943 c 0.262341,0.004 0.518185,-0.0824 0.507815,-0.261719 -0.07244,-1.252405 -0.08092,-3.577075 -0.509765,-4.482418 0.43786,-0.679075 1.450729,0.168882 1.972084,-0.675331 0.452161,-0.732166 -0.349349,-2.081777 -0.848142,-2.343788 -0.249252,-0.130922 -1.037875,0.472672 -0.822266,0.653739 0.500285,0.420143 0.467469,0.462662 0.706944,0.985156 -0.459065,0.230809 -1.415412,-0.595512 -1.881429,0.131227 -0.58837,-0.0052 0.15355,-1.736555 0.315576,-2.538285 0.899737,-0.181162 1.581664,-0.371773 2.140535,-0.598856 -0.0249,-0.28045 0.135495,-0.904565 -0.137309,-0.834984 -0.938498,0.239368 -2.230625,0.243627 -2.653983,0.624439 -0.70664,0.635624 -1.707858,3.910134 -1.272477,4.590807 -0.432153,0.903771 -0.450329,3.230288 -0.527344,4.482419 -0.02205,0.358556 1.021669,0.345811 1.056641,-0.01172 0.100732,-1.029808 0.213414,-2.743696 0.427734,-2.906247 0.12111,-0.09185 0.211097,-0.116144 0.279298,-0.105472 0.06823,-0.01042 0.160481,0.01512 0.281247,0.107422 0.213719,0.163346 0.320996,1.876088 0.417966,2.90626 0.01683,0.178827 0.284539,0.273367 0.546874,0.277343 z"
       id="path4-4-5-2-0-5-6-4"
       sodipodi:nodetypes="ssscssccccsscscscssss" /><path
       id="path1-9-9-4-2-8-1-4"
       style="fill:#66ff66;fill-opacity:1;stroke:#000000;stroke-width:0.265"
       d="m 18.685718,27.108714 c 10e-7,-0.91821 -0.744353,-2.054434 -1.662562,-2.054433 -0.918207,-1e-6 -1.662561,1.136227 -1.662561,2.054432 10e-7,0.918204 0.744353,1.662561 1.66256,1.662559 0.918209,1e-6 1.662563,-0.744351 1.662563,-1.662558 z"
       sodipodi:nodetypes="zzzzz" /><path
       id="path1-7-1-2-6-0-1-6-3-3"
       style="fill:#ffffff;stroke:#000000;stroke-width:0.265;stroke-dasharray:none"
       d="m 16.366539,32.731502 c 1e-6,-0.207212 -0.227851,-0.738306 -0.588877,-0.738305 -0.361023,0 -0.627767,0.54177 -0.627762,0.748989 -1e-6,0.207214 -0.07027,0.385879 0.627764,0.364518 0.69804,-0.02136 0.588889,-0.167938 0.588879,-0.375197 z"
       sodipodi:nodetypes="ssszs" /><path
       id="path1-7-1-9-0-2-5-0-2-1-0"
       style="fill:#ffffff;stroke:#000000;stroke-width:0.265;stroke-dasharray:none"
       d="m 18.847636,32.709733 c 0,-0.207212 -0.227853,-0.738308 -0.588876,-0.738307 -0.361023,0 -0.62777,0.54177 -0.627765,0.748991 -10e-7,0.207212 -0.07027,0.385877 0.627765,0.364517 0.698041,-0.02136 0.588887,-0.167937 0.588877,-0.375196 z"
       sodipodi:nodetypes="ssszs" /><ellipse
       style="fill:#ffffff;fill-opacity:1;stroke:#000000;stroke-width:0.265;stroke-dasharray:none;stroke-opacity:1"
       id="path1-7-2-9-9-1-6-1-9-5-8-1-7"
       cx="2.8981419"
       cy="-31.013462"
       rx="0.65429264"
       ry="0.80279088"
       transform="rotate(137.61241)" /><ellipse
       style="fill:#ffffff;fill-opacity:1;stroke:#000000;stroke-width:0.265;stroke-dasharray:none;stroke-opacity:1"
       id="path1-7-2-9-9-5-8"
       cx="-18.821037"
       cy="-22.973639"
       rx="0.65429264"
       ry="0.80279088"
       transform="matrix(0,-1,-1,0,0,0)" /><path
       id="path1-3-0-4-12-6"
       style="fill:#ff6666;fill-opacity:1;stroke:#000000;stroke-width:0.265"
       d="m 22.57504,20.340385 c -0.886922,0.23765 -2.177082,-0.187264 -2.41473,-1.074186 -0.23765,-0.886918 0.667206,-1.899986 1.554125,-2.137636 0.886921,-0.237648 1.798565,0.28869 2.036214,1.175608 0.23765,0.886922 -0.288687,1.798565 -1.175609,2.036214 z"
       sodipodi:nodetypes="zzzzz" /><path
       style="fill:#999999;fill-opacity:1;stroke:none;stroke-width:0.264999;stroke-dasharray:none;stroke-opacity:1"
       d="m 21.26812,17.298714 c -0.440755,-0.358247 -0.891982,-0.194489 -1.458018,-0.281569 -0.601174,0.201253 -1.905138,1.050564 -2.053222,0.435228 -0.382377,-0.87006 1.263877,-1.352332 1.996366,-1.456514 0.599548,-0.08527 2.202454,-0.04595 2.645589,0.391249 0.339825,0.335274 0.634761,1.459009 0.774331,2.067295 0.185449,0.595901 0.496595,1.718518 0.371615,2.179247 -0.16295,0.6008 -1.10617,1.415705 -1.62632,1.725822 -0.386086,0.230187 -2.127614,1.165245 -2.24949,0.758446 -0.181646,-0.606276 0.800683,-0.986461 1.607165,-1.540732 0.382115,-0.356062 0.632099,-0.632007 0.832741,-1.163371 -0.971925,0.02268 -2.447515,0.901622 -3.637053,1.30009 -0.340627,0.114098 -0.673406,-0.875248 -0.33712,-1.001562 0.484325,-0.181912 0.558197,-0.340449 1.086519,-0.412453 0.381161,-0.32712 0.892746,-0.768771 1.445771,-0.996022 0.006,-0.06284 -0.0011,-0.118359 -0.01466,-0.167944 -0.01322,-0.04969 -0.90619,-0.314164 -0.943061,-0.365418 -0.275132,-0.55813 0.652373,-1.007527 1.558851,-1.471796 z"
       id="path4-6-3-2-0-9-8"
       sodipodi:nodetypes="cccscccssscsscccccc" /><ellipse
       style="fill:#ffffff;fill-opacity:1;stroke:#000000;stroke-width:0.265;stroke-dasharray:none;stroke-opacity:1"
       id="path1-7-2-9-9-1-3-3-8"
       cx="29.906902"
       cy="-5.9161134"
       rx="0.65429264"
       ry="0.80279088"
       transform="rotate(60)" /><path
       id="path1-7-1-1-4-1-9-4"
       style="fill:#ffffff;stroke:#000000;stroke-width:0.265;stroke-dasharray:none"
       d="m 19.174939,18.573994 c 0.129975,0.671921 1.195648,0.201299 1.395219,0.145549 0.199573,-0.05575 1.230324,0.08025 1.002414,-0.74841 -0.276486,-1.005198 -2.514696,-0.0023 -2.397632,0.602866 z"
       sodipodi:nodetypes="sszs" /><path
       id="path1-7-1-1-4-5-9-4-3"
       style="fill:#ffffff;stroke:#000000;stroke-width:0.265;stroke-dasharray:none"
       d="m 16.597402,21.623354 c -0.223399,-0.646889 0.934813,-0.772153 1.135523,-0.823661 0.20071,-0.0515 1.025364,-0.68466 1.24232,0.146936 0.263156,1.008771 -2.176635,1.259352 -2.377845,0.67672 z"
       sodipodi:nodetypes="sszs" /><ellipse
       style="fill:#ffffff;fill-opacity:1;stroke:#000000;stroke-width:0.265;stroke-dasharray:none;stroke-opacity:1"
       id="path1-7-2-9-9-1-3-9-5-1"
       cx="-18.754948"
       cy="16.147802"
       rx="0.65429264"
       ry="0.80279088"
       transform="rotate(-94.27192)" /></g></svg>
