<?xml version="1.0" encoding="UTF-8" standalone="no"?>
<!-- Created with Inkscape (http://www.inkscape.org/) -->

<svg
   width="35mm"
   height="35mm"
   viewBox="0 0 35 35"
   version="1.1"
   id="svg1"
   xml:space="preserve"
   inkscape:version="1.4 (e7c3feb100, 2024-10-09)"
   sodipodi:docname="7_v1.svg"
   xmlns:inkscape="http://www.inkscape.org/namespaces/inkscape"
   xmlns:sodipodi="http://sodipodi.sourceforge.net/DTD/sodipodi-0.dtd"
   xmlns="http://www.w3.org/2000/svg"
   xmlns:svg="http://www.w3.org/2000/svg"><sodipodi:namedview
     id="namedview1"
     pagecolor="#ffffff"
     bordercolor="#000000"
     borderopacity="0.25"
     inkscape:showpageshadow="2"
     inkscape:pageopacity="0.0"
     inkscape:pagecheckerboard="0"
     inkscape:deskcolor="#d1d1d1"
     inkscape:document-units="mm"
     inkscape:zoom="3.2846131"
     inkscape:cx="100.01178"
     inkscape:cy="52.974276"
     inkscape:window-width="1290"
     inkscape:window-height="1023"
     inkscape:window-x="0"
     inkscape:window-y="0"
     inkscape:window-maximized="0"
     inkscape:current-layer="layer1" /><defs
     id="defs1"><inkscape:path-effect
       effect="mirror_symmetry"
       start_point="17.297909,16.234992"
       end_point="17.313303,7.810326"
       center_point="17.305606,12.022659"
       id="path-effect5"
       is_visible="true"
       lpeversion="1.2"
       lpesatellites=""
       mode="free"
       discard_orig_path="false"
       fuse_paths="true"
       oposite_fuse="false"
       split_items="false"
       split_open="false"
       link_styles="false" /><inkscape:path-effect
       effect="mirror_symmetry"
       start_point="17.297909,16.234992"
       end_point="17.313303,7.810326"
       center_point="17.305606,12.022659"
       id="path-effect5-7"
       is_visible="true"
       lpeversion="1.2"
       lpesatellites=""
       mode="free"
       discard_orig_path="false"
       fuse_paths="true"
       oposite_fuse="false"
       split_items="false"
       split_open="false"
       link_styles="false" /><inkscape:path-effect
       effect="mirror_symmetry"
       start_point="17.297909,16.234992"
       end_point="17.313303,7.810326"
       center_point="17.305606,12.022659"
       id="path-effect5-6"
       is_visible="true"
       lpeversion="1.2"
       lpesatellites=""
       mode="free"
       discard_orig_path="false"
       fuse_paths="true"
       oposite_fuse="false"
       split_items="false"
       split_open="false"
       link_styles="false" /><inkscape:path-effect
       effect="mirror_symmetry"
       start_point="17.297909,16.234992"
       end_point="17.313303,7.810326"
       center_point="17.305606,12.022659"
       id="path-effect5-3"
       is_visible="true"
       lpeversion="1.2"
       lpesatellites=""
       mode="free"
       discard_orig_path="false"
       fuse_paths="true"
       oposite_fuse="false"
       split_items="false"
       split_open="false"
       link_styles="false" /><inkscape:path-effect
       effect="mirror_symmetry"
       start_point="17.297909,16.234992"
       end_point="17.313303,7.810326"
       center_point="17.305606,12.022659"
       id="path-effect5-66"
       is_visible="true"
       lpeversion="1.2"
       lpesatellites=""
       mode="free"
       discard_orig_path="false"
       fuse_paths="true"
       oposite_fuse="false"
       split_items="false"
       split_open="false"
       link_styles="false" /><inkscape:path-effect
       effect="mirror_symmetry"
       start_point="17.297909,16.234992"
       end_point="17.313303,7.810326"
       center_point="17.305606,12.022659"
       id="path-effect5-4"
       is_visible="true"
       lpeversion="1.2"
       lpesatellites=""
       mode="free"
       discard_orig_path="false"
       fuse_paths="true"
       oposite_fuse="false"
       split_items="false"
       split_open="false"
       link_styles="false" /><inkscape:path-effect
       effect="mirror_symmetry"
       start_point="17.297909,16.234992"
       end_point="17.313303,7.810326"
       center_point="17.305606,12.022659"
       id="path-effect5-4-7"
       is_visible="true"
       lpeversion="1.2"
       lpesatellites=""
       mode="free"
       discard_orig_path="false"
       fuse_paths="true"
       oposite_fuse="false"
       split_items="false"
       split_open="false"
       link_styles="false" /><inkscape:path-effect
       effect="mirror_symmetry"
       start_point="17.297909,16.234992"
       end_point="17.313303,7.810326"
       center_point="17.305606,12.022659"
       id="path-effect5-41"
       is_visible="true"
       lpeversion="1.2"
       lpesatellites=""
       mode="free"
       discard_orig_path="false"
       fuse_paths="true"
       oposite_fuse="false"
       split_items="false"
       split_open="false"
       link_styles="false" /></defs><g
     inkscape:label="Layer 1"
     inkscape:groupmode="layer"
     id="layer1"><path
       style="fill:#999999;fill-opacity:1;stroke:none;stroke-width:0.264999;stroke-dasharray:none;stroke-opacity:1"
       d="m 15.058419,29.616572 c -0.262339,0.004 -0.518182,-0.0824 -0.507812,-0.261719 0.07244,-1.252406 0.08092,-3.577076 0.509765,-4.482421 -0.538554,-0.01452 -1.483053,0.464461 -1.948047,-0.04758 -0.703758,-0.774967 0.06115,-2.176378 0.701464,-3.231923 0.146024,-0.240717 1.005867,0.692696 0.86603,0.937065 -0.434449,0.75921 -0.795581,1.274839 -0.795581,1.274839 0.529009,0.126963 1.943423,-0.490618 2.414419,-0.266395 0.470175,-0.225954 1.098622,-1.22341 1.649506,-1.7256 0,0 -0.969549,-1.122686 -1.757447,-1.843365 0.0249,-0.280451 0.646549,-0.89087 0.853054,-0.699498 0.703664,0.652099 2.155826,1.42457 2.198959,2.435479 0.0423,0.991324 -1.266505,2.48044 -1.701884,3.161109 0.432152,0.903772 0.450328,3.230288 0.527344,4.482422 0.02205,0.358555 -1.02167,0.345807 -1.056641,-0.01172 -0.100734,-1.029811 -0.213416,-2.743698 -0.427734,-2.90625 -0.121107,-0.09185 -0.211094,-0.116149 -0.279297,-0.105468 -0.06824,-0.01043 -0.16048,0.01512 -0.28125,0.107421 -0.213727,0.163343 -0.321003,1.876088 -0.417973,2.906259 -0.01683,0.178826 -0.284536,0.273373 -0.546875,0.277345 z"
       id="path4-6-2"
       sodipodi:nodetypes="sscsssscccsscscscsss" /><path
       id="path1-9-9"
       style="fill:#66ff66;fill-opacity:1;stroke:#000000;stroke-width:0.265"
       d="m 14.674601,24.084254 c 0,-0.918208 0.744354,-2.054432 1.662562,-2.054432 0.918208,0 1.662561,1.136225 1.662561,2.054432 0,0.918206 -0.744354,1.66256 -1.662561,1.66256 -0.918207,0 -1.662562,-0.744353 -1.662562,-1.66256 z"
       sodipodi:nodetypes="zzzzz" /><path
       id="path1-7-1-2-6"
       style="fill:#ffffff;stroke:#000000;stroke-width:0.265;stroke-dasharray:none"
       d="m 16.99378,29.707045 c 0,-0.207214 0.227855,-0.738307 0.588877,-0.738307 0.361023,0 0.627766,0.541773 0.627766,0.748987 0,0.207215 0.07027,0.385877 -0.627766,0.364517 -0.69804,-0.02136 -0.588877,-0.167981 -0.588877,-0.375197 z"
       sodipodi:nodetypes="ssszs" /><path
       id="path1-7-1-9-0-2"
       style="fill:#ffffff;stroke:#000000;stroke-width:0.265;stroke-dasharray:none"
       d="m 14.512683,29.685275 c 0,-0.207214 0.227855,-0.738307 0.588877,-0.738307 0.361023,0 0.627766,0.541773 0.627766,0.748987 0,0.207214 0.07027,0.385876 -0.627766,0.364516 -0.69804,-0.02136 -0.588877,-0.167981 -0.588877,-0.375196 z"
       sodipodi:nodetypes="ssszs" /><ellipse
       style="fill:#ffffff;fill-opacity:1;stroke:#000000;stroke-width:0.265;stroke-dasharray:none;stroke-opacity:1"
       id="path1-7-2-9-9-1-6-1"
       cx="25.450191"
       cy="-6.3347311"
       rx="0.65429264"
       ry="0.80279088"
       transform="matrix(0.73860137,0.67414243,0.67414243,-0.73860137,0,0)" /><path
       style="fill:#999999;fill-opacity:1;stroke:none;stroke-width:0.264999;stroke-dasharray:none;stroke-opacity:1"
       d="m 7.1786679,16.299141 c -0.00397,-0.262339 0.082402,-0.518182 0.2617188,-0.507812 1.2524069,0.07244 3.5770763,0.08092 4.4824213,0.509765 0.01452,-0.538554 -0.464461,-1.483053 0.04758,-1.948047 0.774967,-0.703757 2.176378,0.06115 3.231923,0.701464 0.240717,0.146024 -0.692696,1.005867 -0.937065,0.86603 -0.75921,-0.434449 -1.274839,-0.795581 -1.274839,-0.795581 -0.126963,0.529009 0.490618,1.943423 0.266395,2.414419 0.225954,0.470175 1.22341,1.098622 1.7256,1.649506 0,0 1.122686,-0.969549 1.843365,-1.757447 0.280451,0.0249 0.89087,0.646549 0.699498,0.853054 -0.652099,0.703664 -1.42457,2.155826 -2.435479,2.198959 -0.991324,0.0423 -2.48044,-1.266505 -3.161109,-1.701884 -0.903772,0.432152 -3.2302881,0.450328 -4.482422,0.527344 -0.3585544,0.02205 -0.3458071,-1.02167 0.011719,-1.056641 1.0298108,-0.100734 2.743698,-0.213416 2.90625,-0.427734 0.09185,-0.121107 0.116149,-0.211094 0.105468,-0.279297 0.01043,-0.06824 -0.01512,-0.16048 -0.107421,-0.28125 C 10.198928,17.050262 8.4861836,16.942986 7.4560117,16.846016 7.2771861,16.829186 7.1826389,16.56148 7.1786679,16.299141 Z"
       id="path4-6"
       sodipodi:nodetypes="sscsssscccsscscscsss" /><ellipse
       style="fill:#ffffff;fill-opacity:1;stroke:#000000;stroke-width:0.265;stroke-dasharray:none;stroke-opacity:1"
       id="path1-7-2-9-9-8-7"
       cx="-2.1341984"
       cy="-25.014313"
       rx="0.65429264"
       ry="0.80279088"
       transform="matrix(0.70710678,-0.70710678,-0.70710678,-0.70710678,0,0)" /><path
       id="path1-3-5"
       style="fill:#6666ff;fill-opacity:1;stroke:#000000;stroke-width:0.265"
       d="m 12.631899,19.199424 c 0.918208,0 2.054432,-0.744354 2.054432,-1.662562 0,-0.918208 -1.136225,-1.662561 -2.054432,-1.662561 -0.918207,0 -1.662561,0.744355 -1.662561,1.662561 0,0.918207 0.744353,1.662562 1.662561,1.662562 z"
       sodipodi:nodetypes="zzzzz" /><path
       id="path1-7-1-1"
       style="fill:#ffffff;stroke:#000000;stroke-width:0.265;stroke-dasharray:none"
       d="m 7.0308779,16.902668 c 0.207214,0 0.738307,-0.227855 0.738307,-0.588877 0,-0.361023 -0.541773,-0.627766 -0.748987,-0.627766 -0.207214,0 -0.385876,-0.07027 -0.364516,0.627766 0.02136,0.69804 0.167981,0.588877 0.375196,0.588877 z"
       sodipodi:nodetypes="ssszs" /><path
       id="path1-7-1-9-7"
       style="fill:#ffffff;stroke:#000000;stroke-width:0.265;stroke-dasharray:none"
       d="m 7.0526479,19.383765 c 0.207214,0 0.738307,-0.227855 0.738307,-0.588877 0,-0.361023 -0.541773,-0.627766 -0.748987,-0.627766 -0.207213,0 -0.385875,-0.07027 -0.364515,0.627766 0.02136,0.69804 0.167981,0.588877 0.375195,0.588877 z"
       sodipodi:nodetypes="ssszs" /><ellipse
       style="fill:#ffffff;fill-opacity:1;stroke:#000000;stroke-width:0.265;stroke-dasharray:none;stroke-opacity:1"
       id="path1-7-2-9-9"
       cx="-6.0374408"
       cy="-20.510038"
       rx="0.65429264"
       ry="0.80279088"
       transform="matrix(0.5,-0.8660254,-0.8660254,-0.5,0,0)" /><ellipse
       style="fill:#ffffff;fill-opacity:1;stroke:#000000;stroke-width:0.265;stroke-dasharray:none;stroke-opacity:1"
       id="path1-7-2-9-9-1"
       cx="-23.904945"
       cy="6.4051318"
       rx="0.65429264"
       ry="0.80279088"
       transform="matrix(-0.8660254,-0.5,-0.5,0.8660254,0,0)" /><path
       style="fill:#999999;fill-opacity:1;stroke:none;stroke-width:0.264999;stroke-dasharray:none;stroke-opacity:1"
       d="m 19.941581,5.383428 c 0.262339,-0.004 0.518182,0.0824 0.507812,0.261719 -0.07244,1.252406 -0.08092,3.577076 -0.509765,4.482421 0.538554,0.01452 1.483053,-0.464461 1.948047,0.04758 0.703758,0.774967 -0.06115,2.176378 -0.701464,3.231923 -0.146024,0.240717 -1.005867,-0.692696 -0.86603,-0.937065 0.434449,-0.75921 0.795581,-1.274839 0.795581,-1.274839 -0.529009,-0.126963 -1.943423,0.490618 -2.414419,0.266395 -0.470175,0.225954 -1.098622,1.22341 -1.649506,1.7256 0,0 0.969549,1.122686 1.757447,1.843365 -0.0249,0.280451 -0.646549,0.89087 -0.853054,0.699498 -0.703664,-0.652099 -2.155826,-1.42457 -2.198959,-2.435479 -0.0423,-0.991324 1.266505,-2.48044 1.701884,-3.161109 -0.432152,-0.903772 -0.450328,-3.230288 -0.527344,-4.482422 -0.02205,-0.358555 1.02167,-0.345807 1.056641,0.01172 0.100734,1.029811 0.213416,2.743698 0.427734,2.90625 0.121107,0.09185 0.211094,0.116149 0.279297,0.105468 0.06824,0.01043 0.16048,-0.01512 0.28125,-0.107421 0.213727,-0.163343 0.321003,-1.876088 0.417973,-2.906259 0.01683,-0.178826 0.284536,-0.273373 0.546875,-0.277345 z"
       id="path4-6-2-7"
       sodipodi:nodetypes="sscsssscccsscscscsss" /><path
       id="path1-9-9-4"
       style="fill:#4d4d4d;fill-opacity:1;stroke:#000000;stroke-width:0.265"
       d="m 20.325399,10.915746 c 0,0.918208 -0.744354,2.054432 -1.662562,2.054432 -0.918208,0 -1.662561,-1.136225 -1.662561,-2.054432 0,-0.918206 0.744354,-1.66256 1.662561,-1.66256 0.918207,0 1.662562,0.744353 1.662562,1.66256 z"
       sodipodi:nodetypes="zzzzz" /><path
       id="path1-7-1-2-6-1"
       style="fill:#ffffff;stroke:#000000;stroke-width:0.265;stroke-dasharray:none"
       d="m 18.00622,5.292955 c 0,0.207214 -0.227855,0.738307 -0.588877,0.738307 -0.361023,0 -0.627766,-0.541773 -0.627766,-0.748987 0,-0.207215 -0.07027,-0.385877 0.627766,-0.364517 0.69804,0.02136 0.588877,0.167981 0.588877,0.375197 z"
       sodipodi:nodetypes="ssszs" /><path
       id="path1-7-1-9-0-2-8"
       style="fill:#ffffff;stroke:#000000;stroke-width:0.265;stroke-dasharray:none"
       d="m 20.487317,5.314725 c 0,0.207214 -0.227855,0.738307 -0.588877,0.738307 -0.361023,0 -0.627766,-0.541773 -0.627766,-0.748987 0,-0.207214 -0.07027,-0.385876 0.627766,-0.364516 0.69804,0.02136 0.588877,0.167981 0.588877,0.375196 z"
       sodipodi:nodetypes="ssszs" /><ellipse
       style="fill:#ffffff;fill-opacity:1;stroke:#000000;stroke-width:0.265;stroke-dasharray:none;stroke-opacity:1"
       id="path1-7-2-9-9-1-6-1-5"
       cx="-23.995842"
       cy="-4.0786681"
       rx="0.65429264"
       ry="0.80279088"
       transform="matrix(-0.73860137,-0.67414243,-0.67414243,0.73860137,0,0)" /><path
       style="fill:#999999;fill-opacity:1;stroke:none;stroke-width:0.264999;stroke-dasharray:none;stroke-opacity:1"
       d="m 27.821332,18.700859 c 0.004,0.262339 -0.0824,0.518182 -0.261719,0.507812 -1.252407,-0.07244 -3.577076,-0.08092 -4.482421,-0.509765 -0.01452,0.538554 0.464461,1.483053 -0.04758,1.948047 -0.774967,0.703757 -2.176378,-0.06115 -3.231923,-0.701464 -0.240717,-0.146024 0.692696,-1.005867 0.937065,-0.86603 0.75921,0.434449 1.274839,0.795581 1.274839,0.795581 0.126963,-0.529009 -0.490618,-1.943423 -0.266395,-2.414419 -0.225954,-0.470175 -1.22341,-1.098622 -1.7256,-1.649506 0,0 -1.122686,0.969549 -1.843365,1.757447 -0.280451,-0.0249 -0.89087,-0.646549 -0.699498,-0.853054 0.652099,-0.703664 1.42457,-2.155826 2.435479,-2.198959 0.991324,-0.0423 2.48044,1.266505 3.161109,1.701884 0.903772,-0.432152 3.230288,-0.450328 4.482422,-0.527344 0.358554,-0.02205 0.345807,1.02167 -0.01172,1.056641 -1.029811,0.100734 -2.743698,0.213416 -2.90625,0.427734 -0.09185,0.121107 -0.116149,0.211094 -0.105468,0.279297 -0.01043,0.06824 0.01512,0.16048 0.107421,0.28125 0.163343,0.213727 1.876087,0.321003 2.906259,0.417973 0.178826,0.01683 0.273373,0.284536 0.277345,0.546875 z"
       id="path4-6-9"
       sodipodi:nodetypes="sscsssscccsscscscsss" /><ellipse
       style="fill:#ffffff;fill-opacity:1;stroke:#000000;stroke-width:0.265;stroke-dasharray:none;stroke-opacity:1"
       id="path1-7-2-9-9-8-7-7"
       cx="-2.1341991"
       cy="24.483162"
       rx="0.65429264"
       ry="0.80279088"
       transform="matrix(-0.70710678,0.70710678,0.70710678,0.70710678,0,0)" /><path
       id="path1-3-5-5"
       style="fill:#ff6666;fill-opacity:1;stroke:#000000;stroke-width:0.265"
       d="m 22.368101,15.800576 c -0.918208,0 -2.054432,0.744354 -2.054432,1.662562 0,0.918208 1.136225,1.662561 2.054432,1.662561 0.918207,0 1.662561,-0.744355 1.662561,-1.662561 0,-0.918207 -0.744353,-1.662562 -1.662561,-1.662562 z"
       sodipodi:nodetypes="zzzzz" /><path
       id="path1-7-1-1-3"
       style="fill:#ffffff;stroke:#000000;stroke-width:0.265;stroke-dasharray:none"
       d="m 27.969122,18.097332 c -0.207214,0 -0.738307,0.227855 -0.738307,0.588877 0,0.361023 0.541773,0.627766 0.748987,0.627766 0.207214,0 0.385876,0.07027 0.364516,-0.627766 -0.02136,-0.69804 -0.167981,-0.588877 -0.375196,-0.588877 z"
       sodipodi:nodetypes="ssszs" /><path
       id="path1-7-1-9-7-8"
       style="fill:#ffffff;stroke:#000000;stroke-width:0.265;stroke-dasharray:none"
       d="m 27.947352,15.616235 c -0.207214,0 -0.738307,0.227855 -0.738307,0.588877 0,0.361023 0.541773,0.627766 0.748987,0.627766 0.207213,0 0.385875,0.07027 0.364515,-0.627766 -0.02136,-0.69804 -0.167981,-0.588877 -0.375195,-0.588877 z"
       sodipodi:nodetypes="ssszs" /><ellipse
       style="fill:#ffffff;fill-opacity:1;stroke:#000000;stroke-width:0.265;stroke-dasharray:none;stroke-opacity:1"
       id="path1-7-2-9-9-8"
       cx="6.773448"
       cy="27.300852"
       rx="0.65429264"
       ry="0.80279088"
       transform="matrix(-0.5,0.8660254,0.8660254,0.5,0,0)" /><ellipse
       style="fill:#ffffff;fill-opacity:1;stroke:#000000;stroke-width:0.265;stroke-dasharray:none;stroke-opacity:1"
       id="path1-7-2-9-9-1-3"
       cx="23.905945"
       cy="-6.405757"
       rx="0.65429264"
       ry="0.80279088"
       transform="matrix(0.8660254,0.5,0.5,-0.8660254,0,0)" /></g></svg>
