<?xml version="1.0" encoding="UTF-8" standalone="no"?>
<!-- Created with Inkscape (http://www.inkscape.org/) -->

<svg
   width="35mm"
   height="35mm"
   viewBox="0 0 35 35"
   version="1.1"
   id="svg1"
   xml:space="preserve"
   inkscape:version="1.4 (e7c3feb100, 2024-10-09)"
   sodipodi:docname="7_v2.svg"
   xmlns:inkscape="http://www.inkscape.org/namespaces/inkscape"
   xmlns:sodipodi="http://sodipodi.sourceforge.net/DTD/sodipodi-0.dtd"
   xmlns="http://www.w3.org/2000/svg"
   xmlns:svg="http://www.w3.org/2000/svg"><sodipodi:namedview
     id="namedview1"
     pagecolor="#ffffff"
     bordercolor="#000000"
     borderopacity="0.25"
     inkscape:showpageshadow="2"
     inkscape:pageopacity="0.0"
     inkscape:pagecheckerboard="0"
     inkscape:deskcolor="#d1d1d1"
     inkscape:document-units="mm"
     inkscape:zoom="3.2846131"
     inkscape:cx="100.01178"
     inkscape:cy="89.508259"
     inkscape:window-width="1916"
     inkscape:window-height="1023"
     inkscape:window-x="0"
     inkscape:window-y="0"
     inkscape:window-maximized="0"
     inkscape:current-layer="layer1" /><defs
     id="defs1"><inkscape:path-effect
       effect="mirror_symmetry"
       start_point="17.297909,16.234992"
       end_point="17.313303,7.810326"
       center_point="17.305606,12.022659"
       id="path-effect5"
       is_visible="true"
       lpeversion="1.2"
       lpesatellites=""
       mode="free"
       discard_orig_path="false"
       fuse_paths="true"
       oposite_fuse="false"
       split_items="false"
       split_open="false"
       link_styles="false" /><inkscape:path-effect
       effect="mirror_symmetry"
       start_point="17.297909,16.234992"
       end_point="17.313303,7.810326"
       center_point="17.305606,12.022659"
       id="path-effect5-7"
       is_visible="true"
       lpeversion="1.2"
       lpesatellites=""
       mode="free"
       discard_orig_path="false"
       fuse_paths="true"
       oposite_fuse="false"
       split_items="false"
       split_open="false"
       link_styles="false" /><inkscape:path-effect
       effect="mirror_symmetry"
       start_point="17.297909,16.234992"
       end_point="17.313303,7.810326"
       center_point="17.305606,12.022659"
       id="path-effect5-6"
       is_visible="true"
       lpeversion="1.2"
       lpesatellites=""
       mode="free"
       discard_orig_path="false"
       fuse_paths="true"
       oposite_fuse="false"
       split_items="false"
       split_open="false"
       link_styles="false" /><inkscape:path-effect
       effect="mirror_symmetry"
       start_point="17.297909,16.234992"
       end_point="17.313303,7.810326"
       center_point="17.305606,12.022659"
       id="path-effect5-3"
       is_visible="true"
       lpeversion="1.2"
       lpesatellites=""
       mode="free"
       discard_orig_path="false"
       fuse_paths="true"
       oposite_fuse="false"
       split_items="false"
       split_open="false"
       link_styles="false" /><inkscape:path-effect
       effect="mirror_symmetry"
       start_point="17.297909,16.234992"
       end_point="17.313303,7.810326"
       center_point="17.305606,12.022659"
       id="path-effect5-66"
       is_visible="true"
       lpeversion="1.2"
       lpesatellites=""
       mode="free"
       discard_orig_path="false"
       fuse_paths="true"
       oposite_fuse="false"
       split_items="false"
       split_open="false"
       link_styles="false" /><inkscape:path-effect
       effect="mirror_symmetry"
       start_point="17.297909,16.234992"
       end_point="17.313303,7.810326"
       center_point="17.305606,12.022659"
       id="path-effect5-4"
       is_visible="true"
       lpeversion="1.2"
       lpesatellites=""
       mode="free"
       discard_orig_path="false"
       fuse_paths="true"
       oposite_fuse="false"
       split_items="false"
       split_open="false"
       link_styles="false" /><inkscape:path-effect
       effect="mirror_symmetry"
       start_point="17.297909,16.234992"
       end_point="17.313303,7.810326"
       center_point="17.305606,12.022659"
       id="path-effect5-4-7"
       is_visible="true"
       lpeversion="1.2"
       lpesatellites=""
       mode="free"
       discard_orig_path="false"
       fuse_paths="true"
       oposite_fuse="false"
       split_items="false"
       split_open="false"
       link_styles="false" /><inkscape:path-effect
       effect="mirror_symmetry"
       start_point="17.297909,16.234992"
       end_point="17.313303,7.810326"
       center_point="17.305606,12.022659"
       id="path-effect5-41"
       is_visible="true"
       lpeversion="1.2"
       lpesatellites=""
       mode="free"
       discard_orig_path="false"
       fuse_paths="true"
       oposite_fuse="false"
       split_items="false"
       split_open="false"
       link_styles="false" /></defs><g
     inkscape:label="Layer 1"
     inkscape:groupmode="layer"
     id="layer1"><path
       style="fill:#999999;fill-opacity:1;stroke:none;stroke-width:0.264999;stroke-dasharray:none;stroke-opacity:1"
       d="m 5.383428,15.058419 c -0.004,-0.262339 0.0824,-0.518182 0.261719,-0.507812 1.252406,0.07244 3.577076,0.08092 4.482421,0.509765 0.01452,-0.538554 -0.464461,-1.483053 0.04758,-1.948047 0.774967,-0.703758 2.176378,0.06115 3.231923,0.701464 0.240717,0.146024 -0.692696,1.005867 -0.937065,0.86603 -0.75921,-0.434449 -1.274839,-0.795581 -1.274839,-0.795581 -0.126963,0.529009 0.490618,1.943423 0.266395,2.414419 0.225954,0.470175 1.22341,1.098622 1.7256,1.649506 0,0 1.122686,-0.969549 1.843365,-1.757447 0.280451,0.0249 0.89087,0.646549 0.699498,0.853054 -0.652099,0.703664 -1.42457,2.155826 -2.435479,2.198959 -0.991324,0.0423 -2.48044,-1.266505 -3.161109,-1.701884 -0.903772,0.432152 -3.230288,0.450328 -4.482422,0.527344 -0.358555,0.02205 -0.345807,-1.02167 0.01172,-1.056641 1.029811,-0.100734 2.743698,-0.213416 2.90625,-0.427734 0.09185,-0.121107 0.116149,-0.211094 0.105468,-0.279297 0.01043,-0.06824 -0.01512,-0.16048 -0.107421,-0.28125 C 8.403689,15.80954 6.690944,15.702264 5.660773,15.605294 5.481947,15.588464 5.3874,15.320758 5.383428,15.058419 Z"
       id="path4-6-2"
       sodipodi:nodetypes="sscsssscccsscscscsss" /><path
       id="path1-9-9"
       style="fill:#6666ff;fill-opacity:1;stroke:#000000;stroke-width:0.265"
       d="m 10.915746,14.674601 c 0.918208,0 2.054432,0.744354 2.054432,1.662562 0,0.918208 -1.136225,1.662561 -2.054432,1.662561 -0.918206,0 -1.66256,-0.744354 -1.66256,-1.662561 0,-0.918207 0.744353,-1.662562 1.66256,-1.662562 z"
       sodipodi:nodetypes="zzzzz" /><path
       id="path1-7-1-2-6"
       style="fill:#ffffff;stroke:#000000;stroke-width:0.265;stroke-dasharray:none"
       d="m 5.292955,16.99378 c 0.207214,0 0.738307,0.227855 0.738307,0.588877 0,0.361023 -0.541773,0.627766 -0.748987,0.627766 -0.207215,0 -0.385877,0.07027 -0.364517,-0.627766 0.02136,-0.69804 0.167981,-0.588877 0.375197,-0.588877 z"
       sodipodi:nodetypes="ssszs" /><path
       id="path1-7-1-9-0-2"
       style="fill:#ffffff;stroke:#000000;stroke-width:0.265;stroke-dasharray:none"
       d="m 5.314725,14.512683 c 0.207214,0 0.738307,0.227855 0.738307,0.588877 0,0.361023 -0.541773,0.627766 -0.748987,0.627766 -0.207214,0 -0.385876,0.07027 -0.364516,-0.627766 0.02136,-0.69804 0.167981,-0.588877 0.375196,-0.588877 z"
       sodipodi:nodetypes="ssszs" /><ellipse
       style="fill:#ffffff;fill-opacity:1;stroke:#000000;stroke-width:0.265;stroke-dasharray:none;stroke-opacity:1"
       id="path1-7-2-9-9-1-6-1"
       cx="1.8552064"
       cy="19.516317"
       rx="0.65429264"
       ry="0.80279088"
       transform="matrix(-0.67414243,0.73860137,0.73860137,0.67414243,0,0)" /><path
       style="fill:#999999;fill-opacity:1;stroke:none;stroke-width:0.264999;stroke-dasharray:none;stroke-opacity:1"
       d="m 18.700859,7.178668 c 0.262339,-0.00397 0.518182,0.082402 0.507812,0.2617188 -0.07244,1.2524069 -0.08092,3.5770762 -0.509765,4.4824212 0.538554,0.01452 1.483053,-0.464461 1.948047,0.04758 0.703757,0.774967 -0.06115,2.176378 -0.701464,3.231923 -0.146024,0.240717 -1.005867,-0.692696 -0.86603,-0.937065 0.434449,-0.75921 0.795581,-1.274839 0.795581,-1.274839 -0.529009,-0.126963 -1.943423,0.490618 -2.414419,0.266395 -0.470175,0.225954 -1.098622,1.22341 -1.649506,1.7256 0,0 0.969549,1.122686 1.757447,1.843365 -0.0249,0.280451 -0.646549,0.89087 -0.853054,0.699498 -0.703664,-0.652099 -2.155826,-1.42457 -2.198959,-2.435479 -0.0423,-0.991324 1.266505,-2.48044 1.701884,-3.161109 -0.432152,-0.903772 -0.450328,-3.230288 -0.527344,-4.482422 -0.02205,-0.3585544 1.02167,-0.3458071 1.056641,0.011719 0.100734,1.0298108 0.213416,2.743698 0.427734,2.90625 0.121107,0.09185 0.211094,0.116149 0.279297,0.105468 0.06824,0.01043 0.16048,-0.01512 0.28125,-0.107421 0.213727,-0.163343 0.321003,-1.8760873 0.417973,-2.9062592 0.01683,-0.1788256 0.284536,-0.2733728 0.546875,-0.2773438 z"
       id="path4-6"
       sodipodi:nodetypes="sscsssscccsscscscsss" /><ellipse
       style="fill:#ffffff;fill-opacity:1;stroke:#000000;stroke-width:0.265;stroke-dasharray:none;stroke-opacity:1"
       id="path1-7-2-9-9-8-7"
       cx="22.614538"
       cy="-0.26557538"
       rx="0.65429264"
       ry="0.80279088"
       transform="matrix(0.70710678,0.70710678,0.70710678,-0.70710678,0,0)" /><path
       id="path1-3-5"
       style="fill:#4d4d4d;fill-opacity:1;stroke:#000000;stroke-width:0.265"
       d="m 15.800576,12.631899 c 0,0.918208 0.744354,2.054432 1.662562,2.054432 0.918208,0 1.662561,-1.136225 1.662561,-2.054432 0,-0.918207 -0.744355,-1.662561 -1.662561,-1.662561 -0.918207,0 -1.662562,0.744353 -1.662562,1.662561 z"
       sodipodi:nodetypes="zzzzz" /><path
       id="path1-7-1-1"
       style="fill:#ffffff;stroke:#000000;stroke-width:0.265;stroke-dasharray:none"
       d="m 18.097332,7.030878 c 0,0.207214 0.227855,0.738307 0.588877,0.738307 0.361023,0 0.627766,-0.541773 0.627766,-0.748987 0,-0.207214 0.07027,-0.385876 -0.627766,-0.364516 -0.69804,0.02136 -0.588877,0.167981 -0.588877,0.375196 z"
       sodipodi:nodetypes="ssszs" /><path
       id="path1-7-1-9-7"
       style="fill:#ffffff;stroke:#000000;stroke-width:0.265;stroke-dasharray:none"
       d="m 15.616235,7.052648 c 0,0.207214 0.227855,0.738307 0.588877,0.738307 0.361023,0 0.627766,-0.541773 0.627766,-0.748987 0,-0.207213 0.07027,-0.385875 -0.627766,-0.364515 -0.69804,0.02136 -0.588877,0.167981 -0.588877,0.375195 z"
       sodipodi:nodetypes="ssszs" /><ellipse
       style="fill:#ffffff;fill-opacity:1;stroke:#000000;stroke-width:0.265;stroke-dasharray:none;stroke-opacity:1"
       id="path1-7-2-9-9"
       cx="24.273449"
       cy="-3.0100384"
       rx="0.65429264"
       ry="0.80279088"
       transform="matrix(0.8660254,0.5,0.5,-0.8660254,0,0)" /><ellipse
       style="fill:#ffffff;fill-opacity:1;stroke:#000000;stroke-width:0.265;stroke-dasharray:none;stroke-opacity:1"
       id="path1-7-2-9-9-1"
       cx="-6.4049454"
       cy="-23.905758"
       rx="0.65429264"
       ry="0.80279088"
       transform="matrix(0.5,-0.8660254,-0.8660254,-0.5,0,0)" /><path
       style="fill:#999999;fill-opacity:1;stroke:none;stroke-width:0.264999;stroke-dasharray:none;stroke-opacity:1"
       d="m 29.616572,19.941581 c 0.004,0.262339 -0.0824,0.518182 -0.261719,0.507812 -1.252406,-0.07244 -3.577076,-0.08092 -4.482421,-0.509765 -0.01452,0.538554 0.464461,1.483053 -0.04758,1.948047 -0.774967,0.703758 -2.176378,-0.06115 -3.231923,-0.701464 -0.240717,-0.146024 0.692696,-1.005867 0.937065,-0.86603 0.75921,0.434449 1.274839,0.795581 1.274839,0.795581 0.126963,-0.529009 -0.490618,-1.943423 -0.266395,-2.414419 -0.225954,-0.470175 -1.22341,-1.098622 -1.7256,-1.649506 0,0 -1.122686,0.969549 -1.843365,1.757447 -0.280451,-0.0249 -0.89087,-0.646549 -0.699498,-0.853054 0.652099,-0.703664 1.42457,-2.155826 2.435479,-2.198959 0.991324,-0.0423 2.48044,1.266505 3.161109,1.701884 0.903772,-0.432152 3.230288,-0.450328 4.482422,-0.527344 0.358555,-0.02205 0.345807,1.02167 -0.01172,1.056641 -1.029811,0.100734 -2.743698,0.213416 -2.90625,0.427734 -0.09185,0.121107 -0.116149,0.211094 -0.105468,0.279297 -0.01043,0.06824 0.01512,0.16048 0.107421,0.28125 0.163343,0.213727 1.876088,0.321003 2.906259,0.417973 0.178826,0.01683 0.273373,0.284536 0.277345,0.546875 z"
       id="path4-6-2-7"
       sodipodi:nodetypes="sscsssscccsscscscsss" /><path
       id="path1-9-9-4"
       style="fill:#ff6666;fill-opacity:1;stroke:#000000;stroke-width:0.265"
       d="m 24.084254,20.325399 c -0.918208,0 -2.054432,-0.744354 -2.054432,-1.662562 0,-0.918208 1.136225,-1.662561 2.054432,-1.662561 0.918206,0 1.66256,0.744354 1.66256,1.662561 0,0.918207 -0.744353,1.662562 -1.66256,1.662562 z"
       sodipodi:nodetypes="zzzzz" /><path
       id="path1-7-1-2-6-1"
       style="fill:#ffffff;stroke:#000000;stroke-width:0.265;stroke-dasharray:none"
       d="m 29.707045,18.00622 c -0.207214,0 -0.738307,-0.227855 -0.738307,-0.588877 0,-0.361023 0.541773,-0.627766 0.748987,-0.627766 0.207215,0 0.385877,-0.07027 0.364517,0.627766 -0.02136,0.69804 -0.167981,0.588877 -0.375197,0.588877 z"
       sodipodi:nodetypes="ssszs" /><path
       id="path1-7-1-9-0-2-8"
       style="fill:#ffffff;stroke:#000000;stroke-width:0.265;stroke-dasharray:none"
       d="m 29.685275,20.487317 c -0.207214,0 -0.738307,-0.227855 -0.738307,-0.588877 0,-0.361023 0.541773,-0.627766 0.748987,-0.627766 0.207214,0 0.385876,-0.07027 0.364516,0.627766 -0.02136,0.69804 -0.167981,0.588877 -0.375196,0.588877 z"
       sodipodi:nodetypes="ssszs" /><ellipse
       style="fill:#ffffff;fill-opacity:1;stroke:#000000;stroke-width:0.265;stroke-dasharray:none;stroke-opacity:1"
       id="path1-7-2-9-9-1-6-1-5"
       cx="-0.40085688"
       cy="-29.929716"
       rx="0.65429264"
       ry="0.80279088"
       transform="matrix(0.67414243,-0.73860137,-0.73860137,-0.67414243,0,0)" /><path
       style="fill:#999999;fill-opacity:1;stroke:none;stroke-width:0.264999;stroke-dasharray:none;stroke-opacity:1"
       d="m 16.299141,27.821332 c -0.262339,0.004 -0.518182,-0.0824 -0.507812,-0.261719 0.07244,-1.252407 0.08092,-3.577076 0.509765,-4.482421 -0.538554,-0.01452 -1.483053,0.464461 -1.948047,-0.04758 -0.703757,-0.774967 0.06115,-2.176378 0.701464,-3.231923 0.146024,-0.240717 1.005867,0.692696 0.86603,0.937065 -0.434449,0.75921 -0.795581,1.274839 -0.795581,1.274839 0.529009,0.126963 1.943423,-0.490618 2.414419,-0.266395 0.470175,-0.225954 1.098622,-1.22341 1.649506,-1.7256 0,0 -0.969549,-1.122686 -1.757447,-1.843365 0.0249,-0.280451 0.646549,-0.89087 0.853054,-0.699498 0.703664,0.652099 2.155826,1.42457 2.198959,2.435479 0.0423,0.991324 -1.266505,2.48044 -1.701884,3.161109 0.432152,0.903772 0.450328,3.230288 0.527344,4.482422 0.02205,0.358554 -1.02167,0.345807 -1.056641,-0.01172 -0.100734,-1.029811 -0.213416,-2.743698 -0.427734,-2.90625 -0.121107,-0.09185 -0.211094,-0.116149 -0.279297,-0.105468 -0.06824,-0.01043 -0.16048,0.01512 -0.28125,0.107421 -0.213727,0.163343 -0.321003,1.876087 -0.417973,2.906259 -0.01683,0.178826 -0.284536,0.273373 -0.546875,0.277345 z"
       id="path4-6-9"
       sodipodi:nodetypes="sscsssscccsscscscsss" /><ellipse
       style="fill:#ffffff;fill-opacity:1;stroke:#000000;stroke-width:0.265;stroke-dasharray:none;stroke-opacity:1"
       id="path1-7-2-9-9-8-7-7"
       cx="-26.882936"
       cy="-0.26557544"
       rx="0.65429264"
       ry="0.80279088"
       transform="matrix(-0.70710678,-0.70710678,-0.70710678,0.70710678,0,0)" /><path
       id="path1-3-5-5"
       style="fill:#66ff66;fill-opacity:1;stroke:#000000;stroke-width:0.265"
       d="m 19.199424,22.368101 c 0,-0.918208 -0.744354,-2.054432 -1.662562,-2.054432 -0.918208,0 -1.662561,1.136225 -1.662561,2.054432 0,0.918207 0.744355,1.662561 1.662561,1.662561 0.918207,0 1.662562,-0.744353 1.662562,-1.662561 z"
       sodipodi:nodetypes="zzzzz" /><path
       id="path1-7-1-1-3"
       style="fill:#ffffff;stroke:#000000;stroke-width:0.265;stroke-dasharray:none"
       d="m 16.902668,27.969122 c 0,-0.207214 -0.227855,-0.738307 -0.588877,-0.738307 -0.361023,0 -0.627766,0.541773 -0.627766,0.748987 0,0.207214 -0.07027,0.385876 0.627766,0.364516 0.69804,-0.02136 0.588877,-0.167981 0.588877,-0.375196 z"
       sodipodi:nodetypes="ssszs" /><path
       id="path1-7-1-9-7-8"
       style="fill:#ffffff;stroke:#000000;stroke-width:0.265;stroke-dasharray:none"
       d="m 19.383765,27.947352 c 0,-0.207214 -0.227855,-0.738307 -0.588877,-0.738307 -0.361023,0 -0.627766,0.541773 -0.627766,0.748987 0,0.207213 -0.07027,0.385875 0.627766,0.364515 0.69804,-0.02136 0.588877,-0.167981 0.588877,-0.375195 z"
       sodipodi:nodetypes="ssszs" /><ellipse
       style="fill:#ffffff;fill-opacity:1;stroke:#000000;stroke-width:0.265;stroke-dasharray:none;stroke-opacity:1"
       id="path1-7-2-9-9-8"
       cx="-23.537441"
       cy="9.8008518"
       rx="0.65429264"
       ry="0.80279088"
       transform="matrix(-0.8660254,-0.5,-0.5,0.8660254,0,0)" /><ellipse
       style="fill:#ffffff;fill-opacity:1;stroke:#000000;stroke-width:0.265;stroke-dasharray:none;stroke-opacity:1"
       id="path1-7-2-9-9-1-3"
       cx="6.4059448"
       cy="23.905132"
       rx="0.65429264"
       ry="0.80279088"
       transform="matrix(-0.5,0.8660254,0.8660254,0.5,0,0)" /></g></svg>
