<?xml version="1.0" encoding="UTF-8" standalone="no"?>
<!-- Created with Inkscape (http://www.inkscape.org/) -->

<svg
   width="35mm"
   height="35mm"
   viewBox="0 0 35 35"
   version="1.1"
   id="svg1"
   xml:space="preserve"
   inkscape:version="1.4 (e7c3feb100, 2024-10-09)"
   sodipodi:docname="8_inter.svg"
   xmlns:inkscape="http://www.inkscape.org/namespaces/inkscape"
   xmlns:sodipodi="http://sodipodi.sourceforge.net/DTD/sodipodi-0.dtd"
   xmlns="http://www.w3.org/2000/svg"
   xmlns:svg="http://www.w3.org/2000/svg"><sodipodi:namedview
     id="namedview1"
     pagecolor="#ffffff"
     bordercolor="#000000"
     borderopacity="0.25"
     inkscape:showpageshadow="2"
     inkscape:pageopacity="0.0"
     inkscape:pagecheckerboard="0"
     inkscape:deskcolor="#d1d1d1"
     inkscape:document-units="mm"
     inkscape:zoom="6.07664"
     inkscape:cx="63.604229"
     inkscape:cy="65.003028"
     inkscape:window-width="1916"
     inkscape:window-height="1023"
     inkscape:window-x="0"
     inkscape:window-y="0"
     inkscape:window-maximized="0"
     inkscape:current-layer="layer1" /><defs
     id="defs1"><inkscape:path-effect
       effect="mirror_symmetry"
       start_point="17.297909,16.234992"
       end_point="17.313303,7.810326"
       center_point="17.305606,12.022659"
       id="path-effect5"
       is_visible="true"
       lpeversion="1.2"
       lpesatellites=""
       mode="free"
       discard_orig_path="false"
       fuse_paths="true"
       oposite_fuse="false"
       split_items="false"
       split_open="false"
       link_styles="false" /><inkscape:path-effect
       effect="mirror_symmetry"
       start_point="17.297909,16.234992"
       end_point="17.313303,7.810326"
       center_point="17.305606,12.022659"
       id="path-effect5-7"
       is_visible="true"
       lpeversion="1.2"
       lpesatellites=""
       mode="free"
       discard_orig_path="false"
       fuse_paths="true"
       oposite_fuse="false"
       split_items="false"
       split_open="false"
       link_styles="false" /><inkscape:path-effect
       effect="mirror_symmetry"
       start_point="17.297909,16.234992"
       end_point="17.313303,7.810326"
       center_point="17.305606,12.022659"
       id="path-effect5-6"
       is_visible="true"
       lpeversion="1.2"
       lpesatellites=""
       mode="free"
       discard_orig_path="false"
       fuse_paths="true"
       oposite_fuse="false"
       split_items="false"
       split_open="false"
       link_styles="false" /><inkscape:path-effect
       effect="mirror_symmetry"
       start_point="17.297909,16.234992"
       end_point="17.313303,7.810326"
       center_point="17.305606,12.022659"
       id="path-effect5-3"
       is_visible="true"
       lpeversion="1.2"
       lpesatellites=""
       mode="free"
       discard_orig_path="false"
       fuse_paths="true"
       oposite_fuse="false"
       split_items="false"
       split_open="false"
       link_styles="false" /><inkscape:path-effect
       effect="mirror_symmetry"
       start_point="17.297909,16.234992"
       end_point="17.313303,7.810326"
       center_point="17.305606,12.022659"
       id="path-effect5-66"
       is_visible="true"
       lpeversion="1.2"
       lpesatellites=""
       mode="free"
       discard_orig_path="false"
       fuse_paths="true"
       oposite_fuse="false"
       split_items="false"
       split_open="false"
       link_styles="false" /><inkscape:path-effect
       effect="mirror_symmetry"
       start_point="17.297909,16.234992"
       end_point="17.313303,7.810326"
       center_point="17.305606,12.022659"
       id="path-effect5-4"
       is_visible="true"
       lpeversion="1.2"
       lpesatellites=""
       mode="free"
       discard_orig_path="false"
       fuse_paths="true"
       oposite_fuse="false"
       split_items="false"
       split_open="false"
       link_styles="false" /><inkscape:path-effect
       effect="mirror_symmetry"
       start_point="17.297909,16.234992"
       end_point="17.313303,7.810326"
       center_point="17.305606,12.022659"
       id="path-effect5-4-7"
       is_visible="true"
       lpeversion="1.2"
       lpesatellites=""
       mode="free"
       discard_orig_path="false"
       fuse_paths="true"
       oposite_fuse="false"
       split_items="false"
       split_open="false"
       link_styles="false" /><inkscape:path-effect
       effect="mirror_symmetry"
       start_point="17.297909,16.234992"
       end_point="17.313303,7.810326"
       center_point="17.305606,12.022659"
       id="path-effect5-41"
       is_visible="true"
       lpeversion="1.2"
       lpesatellites=""
       mode="free"
       discard_orig_path="false"
       fuse_paths="true"
       oposite_fuse="false"
       split_items="false"
       split_open="false"
       link_styles="false" /><inkscape:path-effect
       effect="mirror_symmetry"
       start_point="17.297909,16.234992"
       end_point="17.313303,7.810326"
       center_point="17.305606,12.022659"
       id="path-effect5-61"
       is_visible="true"
       lpeversion="1.2"
       lpesatellites=""
       mode="free"
       discard_orig_path="false"
       fuse_paths="true"
       oposite_fuse="false"
       split_items="false"
       split_open="false"
       link_styles="false" /><inkscape:path-effect
       effect="mirror_symmetry"
       start_point="17.297909,16.234992"
       end_point="17.313303,7.810326"
       center_point="17.305606,12.022659"
       id="path-effect5-4-3"
       is_visible="true"
       lpeversion="1.2"
       lpesatellites=""
       mode="free"
       discard_orig_path="false"
       fuse_paths="true"
       oposite_fuse="false"
       split_items="false"
       split_open="false"
       link_styles="false" /><inkscape:path-effect
       effect="mirror_symmetry"
       start_point="17.297909,16.234992"
       end_point="17.313303,7.810326"
       center_point="17.305606,12.022659"
       id="path-effect5-4-9"
       is_visible="true"
       lpeversion="1.2"
       lpesatellites=""
       mode="free"
       discard_orig_path="false"
       fuse_paths="true"
       oposite_fuse="false"
       split_items="false"
       split_open="false"
       link_styles="false" /><inkscape:path-effect
       effect="mirror_symmetry"
       start_point="17.297909,16.234992"
       end_point="17.313303,7.810326"
       center_point="17.305606,12.022659"
       id="path-effect5-4-9-5"
       is_visible="true"
       lpeversion="1.2"
       lpesatellites=""
       mode="free"
       discard_orig_path="false"
       fuse_paths="true"
       oposite_fuse="false"
       split_items="false"
       split_open="false"
       link_styles="false" /><inkscape:path-effect
       effect="mirror_symmetry"
       start_point="17.297909,16.234992"
       end_point="17.313303,7.810326"
       center_point="17.305606,12.022659"
       id="path-effect5-4-9-2"
       is_visible="true"
       lpeversion="1.2"
       lpesatellites=""
       mode="free"
       discard_orig_path="false"
       fuse_paths="true"
       oposite_fuse="false"
       split_items="false"
       split_open="false"
       link_styles="false" /><inkscape:path-effect
       effect="mirror_symmetry"
       start_point="17.297909,16.234992"
       end_point="17.313303,7.810326"
       center_point="17.305606,12.022659"
       id="path-effect5-4-9-8"
       is_visible="true"
       lpeversion="1.2"
       lpesatellites=""
       mode="free"
       discard_orig_path="false"
       fuse_paths="true"
       oposite_fuse="false"
       split_items="false"
       split_open="false"
       link_styles="false" /></defs><g
     inkscape:label="Layer 1"
     inkscape:groupmode="layer"
     id="layer1"><path
       style="fill:#999999;fill-opacity:1;stroke:none;stroke-width:0.264999;stroke-dasharray:none;stroke-opacity:1"
       d="m 16.0625,7.5585937 c -0.262338,-0.00397 -0.518182,0.082402 -0.507812,0.2617188 0.07244,1.2524069 0.08092,3.5770765 0.509765,4.4824215 -0.619107,-0.0056 -1.745052,-0.18892 -2.05664,0.253907 -0.258596,0.367514 0.03999,1.846533 0.660156,2.78125 0.155655,0.234603 0.898838,-0.168222 0.861328,-0.447266 -0.09347,-0.695437 -0.159096,-0.867894 -0.402344,-1.509766 0.953116,0.03675 1.708696,0.03609 2.175781,0.0293 0.467058,0.0085 1.224491,0.01178 2.177735,-0.02148 -0.245592,0.640979 -0.314145,0.812722 -0.410157,1.507812 -0.03853,0.278905 0.704817,0.685205 0.861329,0.451172 0.623579,-0.932444 0.927173,-2.41084 0.669921,-2.779297 -0.309967,-0.443962 -1.437517,-0.263124 -2.05664,-0.259765 0.432152,-0.903772 0.450328,-3.2302883 0.527344,-4.4824221 0.02205,-0.3585544 -1.02167,-0.3458071 -1.056641,0.011719 -0.100734,1.0298107 -0.213416,2.7436984 -0.427734,2.9062504 -0.121107,0.09185 -0.211094,0.116149 -0.279297,0.105468 -0.06824,0.01043 -0.16048,-0.01512 -0.28125,-0.107421 C 16.813621,10.578854 16.706345,8.8661094 16.609375,7.8359375 16.592543,7.6571119 16.324839,7.5625647 16.0625,7.5585937 Z"
       id="path4-6"
       sodipodi:nodetypes="ssscssscccs"
       transform="rotate(-90,15.819851,18.984058)"
       inkscape:original-d="m 15.53026,14.890015 c 0.03751,0.279044 -0.706242,0.683088 -0.861897,0.448485 -0.620168,-0.934717 -0.918433,-2.414328 -0.659837,-2.781842 0.311588,-0.442827 1.436966,-0.258666 2.056073,-0.253045 -0.428846,-0.905345 -0.437758,-3.2310091 -0.510197,-4.483416 -0.02074,-0.3586326 1.022152,-0.3422582 1.055816,0.015393 0.09697,1.0301719 0.203913,2.743905 0.417636,2.907239 0.427544,0.326742 0.480507,-0.179347 0.480507,-0.179347 l 0.318037,2.834014 c 0,0 -1.059289,0.04685 -2.700397,-0.01643 0.243248,0.641872 0.310788,0.813517 0.404259,1.508954 z"
       inkscape:path-effect="#path-effect5-4-9" /><ellipse
       style="fill:#ffffff;fill-opacity:1;stroke:#000000;stroke-width:0.265;stroke-dasharray:none;stroke-opacity:1"
       id="path1-7-2-9-9-1-9"
       cx="15.477068"
       cy="-12.532784"
       rx="0.65429264"
       ry="0.80279088"
       transform="rotate(90)" /><path
       id="path1-3-1"
       style="fill:#6666ff;fill-opacity:1;stroke:#000000;stroke-width:0.265"
       d="m 9.9296793,15.895505 c 0.9182077,0 2.0544317,0.744355 2.0544317,1.662561 0,0.918207 -1.136226,1.662562 -2.0544317,1.662562 -0.9182071,-1e-6 -1.6625613,-0.744355 -1.6625611,-1.662561 -3e-7,-0.918207 0.7443543,-1.662563 1.6625611,-1.662562 z"
       sodipodi:nodetypes="zzzzz" /><path
       id="path1-7-1-1-0"
       style="fill:#ffffff;stroke:#000000;stroke-width:0.265;stroke-dasharray:none"
       d="m 4.3046046,18.134196 c 0.2072148,0 0.7383072,0.227854 0.7383079,0.588876 0,0.361023 -0.5417704,0.627769 -0.7489894,0.627763 -0.2072141,1e-6 -0.385876,0.07027 -0.3645157,-0.627766 0.02136,-0.698039 0.1679803,-0.588875 0.3751951,-0.588875 z"
       sodipodi:nodetypes="ssszs" /><path
       id="path1-7-1-9-7-7"
       style="fill:#ffffff;stroke:#000000;stroke-width:0.265;stroke-dasharray:none"
       d="m 4.326375,15.653098 c 0.2072141,-10e-7 0.7383072,0.227855 0.7383072,0.588877 0,0.361023 -0.5417704,0.627769 -0.7489901,0.627764 -0.207212,0 -0.3858746,0.07027 -0.364515,-0.627767 0.02136,-0.698038 0.1679817,-0.588877 0.3751951,-0.588877 z"
       sodipodi:nodetypes="ssszs" /><ellipse
       style="fill:#ffffff;fill-opacity:1;stroke:#000000;stroke-width:0.265;stroke-dasharray:none;stroke-opacity:1"
       id="path1-7-2-9-9-5"
       cx="19.522932"
       cy="-12.532784"
       rx="0.65429264"
       ry="0.80279088"
       transform="rotate(90)" /><path
       style="fill:#999999;fill-opacity:1;stroke:none;stroke-width:0.264999;stroke-dasharray:none;stroke-opacity:1"
       d="m 16.0625,7.5585937 c -0.262338,-0.00397 -0.518182,0.082402 -0.507812,0.2617188 0.07244,1.2524069 0.08092,3.5770765 0.509765,4.4824215 -0.619107,-0.0056 -1.745052,-0.18892 -2.05664,0.253907 -0.258596,0.367514 0.03999,1.846533 0.660156,2.78125 0.155655,0.234603 0.898838,-0.168222 0.861328,-0.447266 -0.09347,-0.695437 -0.159096,-0.867894 -0.402344,-1.509766 0.953116,0.03675 1.708696,0.03609 2.175781,0.0293 0.467058,0.0085 1.224491,0.01178 2.177735,-0.02148 -0.245592,0.640979 -0.314145,0.812722 -0.410157,1.507812 -0.03853,0.278905 0.704817,0.685205 0.861329,0.451172 0.623579,-0.932444 0.927173,-2.41084 0.669921,-2.779297 -0.309967,-0.443962 -1.437517,-0.263124 -2.05664,-0.259765 0.432152,-0.903772 0.450328,-3.2302883 0.527344,-4.4824221 0.02205,-0.3585544 -1.02167,-0.3458071 -1.056641,0.011719 -0.100734,1.0298107 -0.213416,2.7436984 -0.427734,2.9062504 -0.121107,0.09185 -0.211094,0.116149 -0.279297,0.105468 -0.06824,0.01043 -0.16048,-0.01512 -0.28125,-0.107421 C 16.813621,10.578854 16.706345,8.8661094 16.609375,7.8359375 16.592543,7.6571119 16.324839,7.5625647 16.0625,7.5585937 Z"
       id="path4-6-4"
       sodipodi:nodetypes="ssscssscccs"
       transform="translate(0.196091,-3.164207)"
       inkscape:original-d="m 15.53026,14.890015 c 0.03751,0.279044 -0.706242,0.683088 -0.861897,0.448485 -0.620168,-0.934717 -0.918433,-2.414328 -0.659837,-2.781842 0.311588,-0.442827 1.436966,-0.258666 2.056073,-0.253045 -0.428846,-0.905345 -0.437758,-3.2310091 -0.510197,-4.483416 -0.02074,-0.3586326 1.022152,-0.3422582 1.055816,0.015393 0.09697,1.0301719 0.203913,2.743905 0.417636,2.907239 0.427544,0.326742 0.480507,-0.179347 0.480507,-0.179347 l 0.318037,2.834014 c 0,0 -1.059289,0.04685 -2.700397,-0.01643 0.243248,0.641872 0.310788,0.813517 0.404259,1.508954 z"
       inkscape:path-effect="#path-effect5-4-9-5" /><ellipse
       style="fill:#ffffff;fill-opacity:1;stroke:#000000;stroke-width:0.265;stroke-dasharray:none;stroke-opacity:1"
       id="path1-7-2-9-9-1-9-3"
       cx="-19.522932"
       cy="-12.532784"
       rx="0.65429264"
       ry="0.80279088"
       transform="scale(-1)" /><path
       id="path1-3-1-1"
       style="fill:#4d4d4d;fill-opacity:1;stroke:#000000;stroke-width:0.265"
       d="m 19.104495,9.9296793 c 0,0.9182077 -0.744355,2.0544317 -1.662561,2.0544317 -0.918207,0 -1.662562,-1.136226 -1.662562,-2.0544317 10e-7,-0.9182071 0.744355,-1.6625613 1.662561,-1.6625611 0.918207,-3e-7 1.662563,0.7443543 1.662562,1.6625611 z"
       sodipodi:nodetypes="zzzzz" /><path
       id="path1-7-1-1-0-4"
       style="fill:#ffffff;stroke:#000000;stroke-width:0.265;stroke-dasharray:none"
       d="m 16.865804,4.3046046 c 0,0.2072148 -0.227854,0.7383072 -0.588876,0.7383079 -0.361023,0 -0.627769,-0.5417704 -0.627763,-0.7489894 -10e-7,-0.2072141 -0.07027,-0.385876 0.627766,-0.3645157 0.698039,0.02136 0.588875,0.1679803 0.588875,0.3751951 z"
       sodipodi:nodetypes="ssszs" /><path
       id="path1-7-1-9-7-7-6"
       style="fill:#ffffff;stroke:#000000;stroke-width:0.265;stroke-dasharray:none"
       d="m 19.346902,4.326375 c 1e-6,0.2072141 -0.227855,0.7383072 -0.588877,0.7383072 -0.361023,0 -0.627769,-0.5417704 -0.627764,-0.7489901 0,-0.207212 -0.07027,-0.3858746 0.627767,-0.364515 0.698038,0.02136 0.588877,0.1679817 0.588877,0.3751951 z"
       sodipodi:nodetypes="ssszs" /><ellipse
       style="fill:#ffffff;fill-opacity:1;stroke:#000000;stroke-width:0.265;stroke-dasharray:none;stroke-opacity:1"
       id="path1-7-2-9-9-5-9"
       cx="-15.477068"
       cy="-12.532784"
       rx="0.65429264"
       ry="0.80279088"
       transform="scale(-1)" /><path
       style="fill:#999999;fill-opacity:1;stroke:none;stroke-width:0.264999;stroke-dasharray:none;stroke-opacity:1"
       d="m 16.0625,7.5585937 c -0.262338,-0.00397 -0.518182,0.082402 -0.507812,0.2617188 0.07244,1.2524069 0.08092,3.5770765 0.509765,4.4824215 -0.619107,-0.0056 -1.745052,-0.18892 -2.05664,0.253907 -0.258596,0.367514 0.03999,1.846533 0.660156,2.78125 0.155655,0.234603 0.898838,-0.168222 0.861328,-0.447266 -0.09347,-0.695437 -0.159096,-0.867894 -0.402344,-1.509766 0.953116,0.03675 1.708696,0.03609 2.175781,0.0293 0.467058,0.0085 1.224491,0.01178 2.177735,-0.02148 -0.245592,0.640979 -0.314145,0.812722 -0.410157,1.507812 -0.03853,0.278905 0.704817,0.685205 0.861329,0.451172 0.623579,-0.932444 0.927173,-2.41084 0.669921,-2.779297 -0.309967,-0.443962 -1.437517,-0.263124 -2.05664,-0.259765 0.432152,-0.903772 0.450328,-3.2302883 0.527344,-4.4824221 0.02205,-0.3585544 -1.02167,-0.3458071 -1.056641,0.011719 -0.100734,1.0298107 -0.213416,2.7436984 -0.427734,2.9062504 -0.121107,0.09185 -0.211094,0.116149 -0.279297,0.105468 -0.06824,0.01043 -0.16048,-0.01512 -0.28125,-0.107421 C 16.813621,10.578854 16.706345,8.8661094 16.609375,7.8359375 16.592543,7.6571119 16.324839,7.5625647 16.0625,7.5585937 Z"
       id="path4-6-1"
       sodipodi:nodetypes="ssscssscccs"
       transform="rotate(90,18.984058,19.180149)"
       inkscape:original-d="m 15.53026,14.890015 c 0.03751,0.279044 -0.706242,0.683088 -0.861897,0.448485 -0.620168,-0.934717 -0.918433,-2.414328 -0.659837,-2.781842 0.311588,-0.442827 1.436966,-0.258666 2.056073,-0.253045 -0.428846,-0.905345 -0.437758,-3.2310091 -0.510197,-4.483416 -0.02074,-0.3586326 1.022152,-0.3422582 1.055816,0.015393 0.09697,1.0301719 0.203913,2.743905 0.417636,2.907239 0.427544,0.326742 0.480507,-0.179347 0.480507,-0.179347 l 0.318037,2.834014 c 0,0 -1.059289,0.04685 -2.700397,-0.01643 0.243248,0.641872 0.310788,0.813517 0.404259,1.508954 z"
       inkscape:path-effect="#path-effect5-4-9-2" /><ellipse
       style="fill:#ffffff;fill-opacity:1;stroke:#000000;stroke-width:0.265;stroke-dasharray:none;stroke-opacity:1"
       id="path1-7-2-9-9-1-9-2"
       cx="-19.522932"
       cy="22.467216"
       rx="0.65429264"
       ry="0.80279088"
       transform="rotate(-90)" /><path
       id="path1-3-1-8"
       style="fill:#ff6666;fill-opacity:1;stroke:#000000;stroke-width:0.265"
       d="m 25.070321,19.104495 c -0.918208,0 -2.054432,-0.744355 -2.054432,-1.662561 0,-0.918207 1.136226,-1.662562 2.054432,-1.662562 0.918207,10e-7 1.662561,0.744355 1.662561,1.662561 0,0.918207 -0.744355,1.662563 -1.662561,1.662562 z"
       sodipodi:nodetypes="zzzzz" /><path
       id="path1-7-1-1-0-8"
       style="fill:#ffffff;stroke:#000000;stroke-width:0.265;stroke-dasharray:none"
       d="m 30.695395,16.865804 c -0.207214,0 -0.738307,-0.227854 -0.738308,-0.588876 0,-0.361023 0.541771,-0.627769 0.74899,-0.627763 0.207214,-10e-7 0.385876,-0.07027 0.364516,0.627766 -0.02136,0.698039 -0.167981,0.588875 -0.375196,0.588875 z"
       sodipodi:nodetypes="ssszs" /><path
       id="path1-7-1-9-7-7-9"
       style="fill:#ffffff;stroke:#000000;stroke-width:0.265;stroke-dasharray:none"
       d="m 30.673625,19.346902 c -0.207214,1e-6 -0.738307,-0.227855 -0.738307,-0.588877 0,-0.361023 0.54177,-0.627769 0.74899,-0.627764 0.207212,0 0.385875,-0.07027 0.364515,0.627767 -0.02136,0.698038 -0.167982,0.588877 -0.375195,0.588877 z"
       sodipodi:nodetypes="ssszs" /><ellipse
       style="fill:#ffffff;fill-opacity:1;stroke:#000000;stroke-width:0.265;stroke-dasharray:none;stroke-opacity:1"
       id="path1-7-2-9-9-5-2"
       cx="-15.477068"
       cy="22.467216"
       rx="0.65429264"
       ry="0.80279088"
       transform="rotate(-90)" /><path
       style="fill:#999999;fill-opacity:1;stroke:none;stroke-width:0.264999;stroke-dasharray:none;stroke-opacity:1"
       d="m 16.0625,7.5585937 c -0.262338,-0.00397 -0.518182,0.082402 -0.507812,0.2617188 0.07244,1.2524069 0.08092,3.5770765 0.509765,4.4824215 -0.619107,-0.0056 -1.745052,-0.18892 -2.05664,0.253907 -0.258596,0.367514 0.03999,1.846533 0.660156,2.78125 0.155655,0.234603 0.898838,-0.168222 0.861328,-0.447266 -0.09347,-0.695437 -0.159096,-0.867894 -0.402344,-1.509766 0.953116,0.03675 1.708696,0.03609 2.175781,0.0293 0.467058,0.0085 1.224491,0.01178 2.177735,-0.02148 -0.245592,0.640979 -0.314145,0.812722 -0.410157,1.507812 -0.03853,0.278905 0.704817,0.685205 0.861329,0.451172 0.623579,-0.932444 0.927173,-2.41084 0.669921,-2.779297 -0.309967,-0.443962 -1.437517,-0.263124 -2.05664,-0.259765 0.432152,-0.903772 0.450328,-3.2302883 0.527344,-4.4824221 0.02205,-0.3585544 -1.02167,-0.3458071 -1.056641,0.011719 -0.100734,1.0298107 -0.213416,2.7436984 -0.427734,2.9062504 -0.121107,0.09185 -0.211094,0.116149 -0.279297,0.105468 -0.06824,0.01043 -0.16048,-0.01512 -0.28125,-0.107421 C 16.813621,10.578854 16.706345,8.8661094 16.609375,7.8359375 16.592543,7.6571119 16.324839,7.5625647 16.0625,7.5585937 Z"
       id="path4-6-3"
       sodipodi:nodetypes="ssscssscccs"
       transform="rotate(180,17.401955,19.082104)"
       inkscape:original-d="m 15.53026,14.890015 c 0.03751,0.279044 -0.706242,0.683088 -0.861897,0.448485 -0.620168,-0.934717 -0.918433,-2.414328 -0.659837,-2.781842 0.311588,-0.442827 1.436966,-0.258666 2.056073,-0.253045 -0.428846,-0.905345 -0.437758,-3.2310091 -0.510197,-4.483416 -0.02074,-0.3586326 1.022152,-0.3422582 1.055816,0.015393 0.09697,1.0301719 0.203913,2.743905 0.417636,2.907239 0.427544,0.326742 0.480507,-0.179347 0.480507,-0.179347 l 0.318037,2.834014 c 0,0 -1.059289,0.04685 -2.700397,-0.01643 0.243248,0.641872 0.310788,0.813517 0.404259,1.508954 z"
       inkscape:path-effect="#path-effect5-4-9-8" /><ellipse
       style="fill:#ffffff;fill-opacity:1;stroke:#000000;stroke-width:0.265;stroke-dasharray:none;stroke-opacity:1"
       id="path1-7-2-9-9-1-9-8"
       cx="15.477068"
       cy="22.467216"
       rx="0.65429264"
       ry="0.80279088" /><path
       id="path1-3-1-3"
       style="fill:#66ff66;fill-opacity:1;stroke:#000000;stroke-width:0.265"
       d="m 15.895505,25.070321 c 0,-0.918208 0.744355,-2.054432 1.662561,-2.054432 0.918207,0 1.662562,1.136226 1.662562,2.054432 -1e-6,0.918207 -0.744355,1.662561 -1.662561,1.662561 -0.918207,0 -1.662563,-0.744355 -1.662562,-1.662561 z"
       sodipodi:nodetypes="zzzzz" /><path
       id="path1-7-1-1-0-3"
       style="fill:#ffffff;stroke:#000000;stroke-width:0.265;stroke-dasharray:none"
       d="m 18.134196,30.695395 c 0,-0.207214 0.227854,-0.738307 0.588876,-0.738308 0.361023,0 0.627769,0.541771 0.627763,0.74899 1e-6,0.207214 0.07027,0.385876 -0.627766,0.364516 -0.698039,-0.02136 -0.588875,-0.167981 -0.588875,-0.375196 z"
       sodipodi:nodetypes="ssszs" /><path
       id="path1-7-1-9-7-7-3"
       style="fill:#ffffff;stroke:#000000;stroke-width:0.265;stroke-dasharray:none"
       d="m 15.653098,30.673625 c -10e-7,-0.207214 0.227855,-0.738307 0.588877,-0.738307 0.361023,0 0.627769,0.54177 0.627764,0.74899 0,0.207212 0.07027,0.385875 -0.627767,0.364515 -0.698038,-0.02136 -0.588877,-0.167982 -0.588877,-0.375195 z"
       sodipodi:nodetypes="ssszs" /><ellipse
       style="fill:#ffffff;fill-opacity:1;stroke:#000000;stroke-width:0.265;stroke-dasharray:none;stroke-opacity:1"
       id="path1-7-2-9-9-5-8"
       cx="19.522932"
       cy="22.467216"
       rx="0.65429264"
       ry="0.80279088" /></g></svg>
