<?xml version="1.0" encoding="UTF-8" standalone="no"?>
<!-- Created with Inkscape (http://www.inkscape.org/) -->

<svg
   width="35mm"
   height="35mm"
   viewBox="0 0 35 35"
   version="1.1"
   id="svg1"
   xml:space="preserve"
   inkscape:version="1.4 (e7c3feb100, 2024-10-09)"
   sodipodi:docname="8_v2.svg"
   xmlns:inkscape="http://www.inkscape.org/namespaces/inkscape"
   xmlns:sodipodi="http://sodipodi.sourceforge.net/DTD/sodipodi-0.dtd"
   xmlns="http://www.w3.org/2000/svg"
   xmlns:svg="http://www.w3.org/2000/svg"><sodipodi:namedview
     id="namedview1"
     pagecolor="#ffffff"
     bordercolor="#000000"
     borderopacity="0.25"
     inkscape:showpageshadow="2"
     inkscape:pageopacity="0.0"
     inkscape:pagecheckerboard="0"
     inkscape:deskcolor="#d1d1d1"
     inkscape:document-units="mm"
     inkscape:zoom="4.2968333"
     inkscape:cx="100.65552"
     inkscape:cy="65.862457"
     inkscape:window-width="1916"
     inkscape:window-height="1023"
     inkscape:window-x="0"
     inkscape:window-y="0"
     inkscape:window-maximized="0"
     inkscape:current-layer="layer1" /><defs
     id="defs1"><inkscape:path-effect
       effect="mirror_symmetry"
       start_point="17.297909,16.234992"
       end_point="17.313303,7.810326"
       center_point="17.305606,12.022659"
       id="path-effect5"
       is_visible="true"
       lpeversion="1.2"
       lpesatellites=""
       mode="free"
       discard_orig_path="false"
       fuse_paths="true"
       oposite_fuse="false"
       split_items="false"
       split_open="false"
       link_styles="false" /><inkscape:path-effect
       effect="mirror_symmetry"
       start_point="17.297909,16.234992"
       end_point="17.313303,7.810326"
       center_point="17.305606,12.022659"
       id="path-effect5-7"
       is_visible="true"
       lpeversion="1.2"
       lpesatellites=""
       mode="free"
       discard_orig_path="false"
       fuse_paths="true"
       oposite_fuse="false"
       split_items="false"
       split_open="false"
       link_styles="false" /><inkscape:path-effect
       effect="mirror_symmetry"
       start_point="17.297909,16.234992"
       end_point="17.313303,7.810326"
       center_point="17.305606,12.022659"
       id="path-effect5-6"
       is_visible="true"
       lpeversion="1.2"
       lpesatellites=""
       mode="free"
       discard_orig_path="false"
       fuse_paths="true"
       oposite_fuse="false"
       split_items="false"
       split_open="false"
       link_styles="false" /><inkscape:path-effect
       effect="mirror_symmetry"
       start_point="17.297909,16.234992"
       end_point="17.313303,7.810326"
       center_point="17.305606,12.022659"
       id="path-effect5-3"
       is_visible="true"
       lpeversion="1.2"
       lpesatellites=""
       mode="free"
       discard_orig_path="false"
       fuse_paths="true"
       oposite_fuse="false"
       split_items="false"
       split_open="false"
       link_styles="false" /><inkscape:path-effect
       effect="mirror_symmetry"
       start_point="17.297909,16.234992"
       end_point="17.313303,7.810326"
       center_point="17.305606,12.022659"
       id="path-effect5-66"
       is_visible="true"
       lpeversion="1.2"
       lpesatellites=""
       mode="free"
       discard_orig_path="false"
       fuse_paths="true"
       oposite_fuse="false"
       split_items="false"
       split_open="false"
       link_styles="false" /><inkscape:path-effect
       effect="mirror_symmetry"
       start_point="17.297909,16.234992"
       end_point="17.313303,7.810326"
       center_point="17.305606,12.022659"
       id="path-effect5-4"
       is_visible="true"
       lpeversion="1.2"
       lpesatellites=""
       mode="free"
       discard_orig_path="false"
       fuse_paths="true"
       oposite_fuse="false"
       split_items="false"
       split_open="false"
       link_styles="false" /><inkscape:path-effect
       effect="mirror_symmetry"
       start_point="17.297909,16.234992"
       end_point="17.313303,7.810326"
       center_point="17.305606,12.022659"
       id="path-effect5-4-7"
       is_visible="true"
       lpeversion="1.2"
       lpesatellites=""
       mode="free"
       discard_orig_path="false"
       fuse_paths="true"
       oposite_fuse="false"
       split_items="false"
       split_open="false"
       link_styles="false" /><inkscape:path-effect
       effect="mirror_symmetry"
       start_point="17.297909,16.234992"
       end_point="17.313303,7.810326"
       center_point="17.305606,12.022659"
       id="path-effect5-41"
       is_visible="true"
       lpeversion="1.2"
       lpesatellites=""
       mode="free"
       discard_orig_path="false"
       fuse_paths="true"
       oposite_fuse="false"
       split_items="false"
       split_open="false"
       link_styles="false" /><inkscape:path-effect
       effect="mirror_symmetry"
       start_point="17.297909,16.234992"
       end_point="17.313303,7.810326"
       center_point="17.305606,12.022659"
       id="path-effect5-61"
       is_visible="true"
       lpeversion="1.2"
       lpesatellites=""
       mode="free"
       discard_orig_path="false"
       fuse_paths="true"
       oposite_fuse="false"
       split_items="false"
       split_open="false"
       link_styles="false" /><inkscape:path-effect
       effect="mirror_symmetry"
       start_point="17.297909,16.234992"
       end_point="17.313303,7.810326"
       center_point="17.305606,12.022659"
       id="path-effect5-4-3"
       is_visible="true"
       lpeversion="1.2"
       lpesatellites=""
       mode="free"
       discard_orig_path="false"
       fuse_paths="true"
       oposite_fuse="false"
       split_items="false"
       split_open="false"
       link_styles="false" /></defs><g
     inkscape:label="Layer 1"
     inkscape:groupmode="layer"
     id="layer1"><path
       style="fill:#999999;fill-opacity:1;stroke:none;stroke-width:0.264999;stroke-dasharray:none;stroke-opacity:1"
       d="m 16.0625,7.5585937 c -0.262338,-0.00397 -0.518182,0.082402 -0.507812,0.2617188 0.07244,1.2524069 0.08092,3.5770765 0.509765,4.4824215 -0.437864,0.679074 -1.494271,1.202659 -2.015625,2.046875 -0.452157,0.732168 -0.02075,1.907611 0.216797,3.083985 0.05573,0.275974 0.796346,0.47567 0.822266,0.195312 0.109285,-1.18211 -0.07617,-2.728515 -0.07617,-2.728515 0.929349,-0.552216 1.774728,-0.990204 2.291015,-1.248047 0.515342,0.259728 1.357832,0.702204 2.285157,1.257812 0,0 -0.188949,1.544061 -0.08398,2.726563 0.0249,0.280451 0.76553,0.08241 0.822266,-0.19336 0.241841,-1.175498 0.677994,-2.348215 0.228515,-3.082031 -0.518265,-0.846116 -1.574386,-1.372065 -2.009765,-2.052734 0.432152,-0.903772 0.450328,-3.2302883 0.527344,-4.4824221 0.02205,-0.3585544 -1.02167,-0.3458071 -1.056641,0.011719 -0.100734,1.0298107 -0.213416,2.7436984 -0.427734,2.9062504 -0.121107,0.09185 -0.211094,0.116149 -0.279297,0.105468 -0.06824,0.01043 -0.16048,-0.01512 -0.28125,-0.107421 C 16.813621,10.578854 16.706345,8.8661094 16.609375,7.8359375 16.592543,7.6571119 16.324839,7.5625647 16.0625,7.5585937 Z"
       id="path4"
       sodipodi:nodetypes="ssscssscccs"
       transform="rotate(45,20.340931,12.087034)"
       inkscape:original-d="m 15.087222,17.628795 c -0.02592,0.280358 -0.765893,0.08004 -0.821621,-0.195934 -0.237544,-1.176374 -0.668956,-2.351745 -0.216799,-3.083913 0.521354,-0.844216 1.577933,-1.366261 2.015797,-2.045335 -0.428846,-0.905345 -0.437758,-3.2310091 -0.510197,-4.483416 -0.02074,-0.3586326 1.022152,-0.3422582 1.055816,0.015393 0.09697,1.0301719 0.203913,2.743905 0.417636,2.907239 0.427544,0.326742 0.480507,-0.179347 0.480507,-0.179347 l 0.318037,2.834014 c 0,0 -1.293868,0.600372 -2.814147,1.503717 0,0 0.184256,1.545472 0.07497,2.727582 z"
       inkscape:path-effect="#path-effect5" /><path
       id="path1"
       style="fill:#4d4d4d;fill-opacity:1;stroke:#000000;stroke-width:0.265"
       d="m 19.060913,10.533465 c 0,0.918208 -0.744354,2.054432 -1.662561,2.054432 -0.918208,0 -1.662562,-1.136226 -1.662562,-2.054432 0,-0.9182079 0.744354,-1.6625615 1.662562,-1.6625615 0.918206,0 1.662561,0.7443536 1.662561,1.6625615 z"
       sodipodi:nodetypes="zzzzz" /><path
       id="path1-7-1"
       style="fill:#ffffff;stroke:#000000;stroke-width:0.265;stroke-dasharray:none"
       d="m 21.055256,6.1573812 c -0.146522,0.1465225 -0.68318,0.3609441 -0.938461,0.105663 -0.255281,-0.2552818 -0.06081,-0.826989 0.08572,-0.9735114 0.146522,-0.1465224 0.223167,-0.3225439 0.701649,0.1861459 0.478485,0.5086926 0.297618,0.5351794 0.151095,0.6817025 z"
       sodipodi:nodetypes="ssszs" /><path
       id="path1-7-1-9"
       style="fill:#ffffff;stroke:#000000;stroke-width:0.265;stroke-dasharray:none"
       d="m 22.794264,7.9271762 c -0.146523,0.1465224 -0.683181,0.3609433 -0.938461,0.1056629 -0.255282,-0.2552818 -0.06081,-0.8269896 0.08571,-0.9735121 0.146523,-0.1465224 0.223167,-0.3225439 0.70165,0.1861466 0.478485,0.5086919 0.297619,0.5351794 0.151096,0.6817026 z"
       sodipodi:nodetypes="ssszs" /><path
       style="fill:#999999;fill-opacity:1;stroke:none;stroke-width:0.264999;stroke-dasharray:none;stroke-opacity:1"
       d="m 16.0625,7.5585937 c -0.262338,-0.00397 -0.518182,0.082402 -0.507812,0.2617188 0.07244,1.2524069 0.08092,3.5770765 0.509765,4.4824215 -0.437864,0.679074 -1.494271,1.202659 -2.015625,2.046875 -0.452157,0.732168 -0.02075,1.907611 0.216797,3.083985 0.05573,0.275974 0.796346,0.47567 0.822266,0.195312 0.10928,-1.18211 0.09766,-2.857422 0.09766,-2.857422 0.891495,-0.529723 1.646191,-0.910531 2.117187,-1.134765 0.470175,0.225954 1.221775,0.607646 2.111328,1.140625 0,0 -0.01512,1.676873 0.08984,2.859375 0.0249,0.280451 0.76553,0.08241 0.822266,-0.19336 0.241841,-1.175498 0.677994,-2.348215 0.228515,-3.082031 -0.518265,-0.846116 -1.574386,-1.372065 -2.009765,-2.052734 0.432152,-0.903772 0.450328,-3.2302883 0.527344,-4.4824221 0.02205,-0.3585544 -1.02167,-0.3458071 -1.056641,0.011719 -0.100734,1.0298107 -0.213416,2.7436984 -0.427734,2.9062504 -0.121107,0.09185 -0.211094,0.116149 -0.279297,0.105468 -0.06824,0.01043 -0.16048,-0.01512 -0.28125,-0.107421 C 16.813621,10.578854 16.706345,8.8661094 16.609375,7.8359375 16.592543,7.6571119 16.324839,7.5625647 16.0625,7.5585937 Z"
       id="path4-6"
       sodipodi:nodetypes="ssscssscccs"
       transform="rotate(-135,14.878203,16.674803)"
       inkscape:original-d="m 15.087222,17.628795 c -0.02592,0.280358 -0.765893,0.08004 -0.821621,-0.195934 -0.237544,-1.176374 -0.668956,-2.351745 -0.216799,-3.083913 0.521354,-0.844216 1.577933,-1.366261 2.015797,-2.045335 -0.428846,-0.905345 -0.437758,-3.2310091 -0.510197,-4.483416 -0.02074,-0.3586326 1.022152,-0.3422582 1.055816,0.015393 0.09697,1.0301719 0.203913,2.743905 0.417636,2.907239 0.427544,0.326742 0.480507,-0.179347 0.480507,-0.179347 l 0.318037,2.834014 c 0,0 -1.119704,0.469749 -2.639983,1.373094 0,0 0.01009,1.676095 -0.09919,2.858205 z"
       inkscape:path-effect="#path-effect5-4" /><ellipse
       style="fill:#ffffff;fill-opacity:1;stroke:#000000;stroke-width:0.265;stroke-dasharray:none;stroke-opacity:1"
       id="path1-7-2-9-9-1"
       cx="17.329067"
       cy="-0.028158568"
       rx="0.65429264"
       ry="0.80279088"
       transform="rotate(45)" /><path
       id="path1-3"
       style="fill:#6666ff;fill-opacity:1;stroke:#000000;stroke-width:0.265"
       d="m 10.518073,15.751185 c 0.918207,0 2.054431,0.744353 2.054431,1.66256 10e-7,0.918209 -1.136225,1.662562 -2.054431,1.662562 -0.9182076,-1e-6 -1.6625613,-0.744354 -1.6625613,-1.662561 0,-0.918206 0.7443523,-1.662561 1.6625613,-1.662561 z"
       sodipodi:nodetypes="zzzzz" /><path
       id="path1-7-1-1"
       style="fill:#ffffff;stroke:#000000;stroke-width:0.265;stroke-dasharray:none"
       d="m 7.0633836,21.961257 c 0.1465224,-0.146522 0.6831797,-0.360944 0.9384608,-0.105663 0.2552811,0.255281 0.060806,0.826989 -0.085716,0.973512 C 7.7696058,22.975628 7.6929611,23.15165 7.2144789,22.64296 6.7359939,22.134267 6.9168605,22.10778 7.0633836,21.961257 Z"
       sodipodi:nodetypes="ssszs" /><path
       id="path1-7-1-9-7"
       style="fill:#ffffff;stroke:#000000;stroke-width:0.265;stroke-dasharray:none"
       d="m 5.3243768,20.191463 c 0.1465224,-0.146522 0.6831797,-0.360944 0.9384601,-0.105664 0.2552818,0.255282 0.060806,0.826989 -0.085716,0.973512 C 6.030599,21.205833 5.9539543,21.381854 5.4754721,20.873164 4.9969871,20.364472 5.1778537,20.337985 5.3243768,20.191463 Z"
       sodipodi:nodetypes="ssszs" /><ellipse
       style="fill:#ffffff;fill-opacity:1;stroke:#000000;stroke-width:0.265;stroke-dasharray:none;stroke-opacity:1"
       id="path1-7-2-9-9"
       cx="22.433262"
       cy="-0.028158568"
       rx="0.65429264"
       ry="0.80279088"
       transform="rotate(45)" /><path
       style="fill:#999999;fill-opacity:1;stroke:none;stroke-width:0.264999;stroke-dasharray:none;stroke-opacity:1"
       d="m 16.0625,7.5585937 c -0.262338,-0.00397 -0.518182,0.082402 -0.507812,0.2617188 0.07244,1.2524069 0.08092,3.5770765 0.509765,4.4824215 -0.437864,0.679074 -1.494271,1.202659 -2.015625,2.046875 -0.452157,0.732168 -0.02075,1.907611 0.216797,3.083985 0.05573,0.275974 0.796346,0.47567 0.822266,0.195312 0.109285,-1.18211 -0.07617,-2.728515 -0.07617,-2.728515 0.929349,-0.552216 1.774728,-0.990204 2.291015,-1.248047 0.515342,0.259728 1.357832,0.702204 2.285157,1.257812 0,0 -0.188949,1.544061 -0.08398,2.726563 0.0249,0.280451 0.76553,0.08241 0.822266,-0.19336 0.241841,-1.175498 0.677994,-2.348215 0.228515,-3.082031 -0.518265,-0.846116 -1.574386,-1.372065 -2.009765,-2.052734 0.432152,-0.903772 0.450328,-3.2302883 0.527344,-4.4824221 0.02205,-0.3585544 -1.02167,-0.3458071 -1.056641,0.011719 -0.100734,1.0298107 -0.213416,2.7436984 -0.427734,2.9062504 -0.121107,0.09185 -0.211094,0.116149 -0.279297,0.105468 -0.06824,0.01043 -0.16048,-0.01512 -0.28125,-0.107421 C 16.813621,10.578854 16.706345,8.8661094 16.609375,7.8359375 16.592543,7.6571119 16.324839,7.5625647 16.0625,7.5585937 Z"
       id="path4-1"
       sodipodi:nodetypes="ssscssscccs"
       transform="rotate(45,15.481518,23.818691)"
       inkscape:original-d="m 15.087222,17.628795 c -0.02592,0.280358 -0.765893,0.08004 -0.821621,-0.195934 -0.237544,-1.176374 -0.668956,-2.351745 -0.216799,-3.083913 0.521354,-0.844216 1.577933,-1.366261 2.015797,-2.045335 -0.428846,-0.905345 -0.437758,-3.2310091 -0.510197,-4.483416 -0.02074,-0.3586326 1.022152,-0.3422582 1.055816,0.015393 0.09697,1.0301719 0.203913,2.743905 0.417636,2.907239 0.427544,0.326742 0.480507,-0.179347 0.480507,-0.179347 l 0.318037,2.834014 c 0,0 -1.293868,0.600372 -2.814147,1.503717 0,0 0.184256,1.545472 0.07497,2.727582 z"
       inkscape:path-effect="#path-effect5-61" /><path
       id="path1-5"
       style="fill:#ff6666;fill-opacity:1;stroke:#000000;stroke-width:0.265"
       d="m 24.466534,19.264209 c -0.918208,0 -2.054432,-0.744354 -2.054432,-1.662562 0,-0.918208 1.136225,-1.662561 2.054432,-1.662561 0.918208,0 1.662561,0.744353 1.662561,1.662561 0,0.918207 -0.744353,1.662562 -1.662561,1.662562 z"
       sodipodi:nodetypes="zzzzz" /><path
       id="path1-7-1-99"
       style="fill:#ffffff;stroke:#000000;stroke-width:0.265;stroke-dasharray:none"
       d="m 27.927503,13.029628 c -0.146522,0.146523 -0.683179,0.360944 -0.938461,0.105663 -0.255281,-0.255282 -0.06081,-0.826989 0.08572,-0.973511 0.146522,-0.146523 0.223167,-0.322544 0.701649,0.186146 0.478485,0.508692 0.297618,0.535179 0.151095,0.681702 z"
       sodipodi:nodetypes="ssszs" /><path
       id="path1-7-1-9-1"
       style="fill:#ffffff;stroke:#000000;stroke-width:0.265;stroke-dasharray:none"
       d="m 29.66651,14.799423 c -0.146522,0.146522 -0.68318,0.360944 -0.938461,0.105662 -0.255282,-0.255281 -0.06081,-0.826988 0.08572,-0.973511 0.146523,-0.146522 0.223168,-0.322544 0.70165,0.186146 0.478485,0.508693 0.297618,0.535179 0.151095,0.681703 z"
       sodipodi:nodetypes="ssszs" /><path
       style="fill:#999999;fill-opacity:1;stroke:none;stroke-width:0.264999;stroke-dasharray:none;stroke-opacity:1"
       d="m 16.0625,7.5585937 c -0.262338,-0.00397 -0.518182,0.082402 -0.507812,0.2617188 0.07244,1.2524069 0.08092,3.5770765 0.509765,4.4824215 -0.437864,0.679074 -1.494271,1.202659 -2.015625,2.046875 -0.452157,0.732168 -0.02075,1.907611 0.216797,3.083985 0.05573,0.275974 0.796346,0.47567 0.822266,0.195312 0.10928,-1.18211 0.09766,-2.857422 0.09766,-2.857422 0.891495,-0.529723 1.646191,-0.910531 2.117187,-1.134765 0.470175,0.225954 1.221775,0.607646 2.111328,1.140625 0,0 -0.01512,1.676873 0.08984,2.859375 0.0249,0.280451 0.76553,0.08241 0.822266,-0.19336 0.241841,-1.175498 0.677994,-2.348215 0.228515,-3.082031 -0.518265,-0.846116 -1.574386,-1.372065 -2.009765,-2.052734 0.432152,-0.903772 0.450328,-3.2302883 0.527344,-4.4824221 0.02205,-0.3585544 -1.02167,-0.3458071 -1.056641,0.011719 -0.100734,1.0298107 -0.213416,2.7436984 -0.427734,2.9062504 -0.121107,0.09185 -0.211094,0.116149 -0.279297,0.105468 -0.06824,0.01043 -0.16048,-0.01512 -0.28125,-0.107421 C 16.813621,10.578854 16.706345,8.8661094 16.609375,7.8359375 16.592543,7.6571119 16.324839,7.5625647 16.0625,7.5585937 Z"
       id="path4-6-4"
       sodipodi:nodetypes="ssscssscccs"
       transform="rotate(-135,19.737614,18.687638)"
       inkscape:original-d="m 15.087222,17.628795 c -0.02592,0.280358 -0.765893,0.08004 -0.821621,-0.195934 -0.237544,-1.176374 -0.668956,-2.351745 -0.216799,-3.083913 0.521354,-0.844216 1.577933,-1.366261 2.015797,-2.045335 -0.428846,-0.905345 -0.437758,-3.2310091 -0.510197,-4.483416 -0.02074,-0.3586326 1.022152,-0.3422582 1.055816,0.015393 0.09697,1.0301719 0.203913,2.743905 0.417636,2.907239 0.427544,0.326742 0.480507,-0.179347 0.480507,-0.179347 l 0.318037,2.834014 c 0,0 -1.119704,0.469749 -2.639983,1.373094 0,0 0.01009,1.676095 -0.09919,2.858205 z"
       inkscape:path-effect="#path-effect5-4-3" /><ellipse
       style="fill:#ffffff;fill-opacity:1;stroke:#000000;stroke-width:0.265;stroke-dasharray:none;stroke-opacity:1"
       id="path1-7-2-9-9-1-9"
       cx="27.047892"
       cy="-0.028160475"
       rx="0.65429264"
       ry="0.80279088"
       transform="rotate(45)" /><path
       id="path1-3-1"
       style="fill:#66ff66;fill-opacity:1;stroke:#000000;stroke-width:0.265"
       d="m 15.923693,24.481928 c 0,-0.918208 0.744355,-2.054432 1.662562,-2.054432 0.918207,0 1.662561,1.136225 1.662561,2.054432 0,0.918207 -0.744355,1.662561 -1.662561,1.662561 -0.918207,0 -1.662562,-0.744354 -1.662562,-1.662561 z"
       sodipodi:nodetypes="zzzzz" /><path
       id="path1-7-1-1-0"
       style="fill:#ffffff;stroke:#000000;stroke-width:0.265;stroke-dasharray:none"
       d="m 13.93563,28.833505 c 0.146523,-0.146523 0.683179,-0.360945 0.938461,-0.105664 0.255282,0.255282 0.06081,0.826989 -0.08572,0.973511 -0.146522,0.146523 -0.223167,0.322544 -0.701649,-0.186146 -0.478485,-0.508692 -0.297618,-0.535178 -0.151095,-0.681701 z"
       sodipodi:nodetypes="ssszs" /><path
       id="path1-7-1-9-7-7"
       style="fill:#ffffff;stroke:#000000;stroke-width:0.265;stroke-dasharray:none"
       d="m 12.196623,27.06371 c 0.146522,-0.146523 0.68318,-0.360944 0.938461,-0.105663 0.255282,0.255282 0.06081,0.826989 -0.08572,0.973512 -0.146521,0.146521 -0.223166,0.322543 -0.701649,-0.186147 -0.478484,-0.508692 -0.297618,-0.53518 -0.151096,-0.681702 z"
       sodipodi:nodetypes="ssszs" /><ellipse
       style="fill:#ffffff;fill-opacity:1;stroke:#000000;stroke-width:0.265;stroke-dasharray:none;stroke-opacity:1"
       id="path1-7-2-9-9-5"
       cx="32.152088"
       cy="-0.028160475"
       rx="0.65429264"
       ry="0.80279088"
       transform="rotate(45)" /></g></svg>
