<?xml version="1.0" encoding="UTF-8" standalone="no"?>
<!-- Created with Inkscape (http://www.inkscape.org/) -->

<svg
   width="35mm"
   height="35mm"
   viewBox="0 0 35 35"
   version="1.1"
   id="svg1"
   xml:space="preserve"
   inkscape:version="1.4 (e7c3feb100, 2024-10-09)"
   sodipodi:docname="9_v1_inter.svg"
   xmlns:inkscape="http://www.inkscape.org/namespaces/inkscape"
   xmlns:sodipodi="http://sodipodi.sourceforge.net/DTD/sodipodi-0.dtd"
   xmlns:xlink="http://www.w3.org/1999/xlink"
   xmlns="http://www.w3.org/2000/svg"
   xmlns:svg="http://www.w3.org/2000/svg"><sodipodi:namedview
     id="namedview1"
     pagecolor="#ffffff"
     bordercolor="#000000"
     borderopacity="0.25"
     inkscape:showpageshadow="2"
     inkscape:pageopacity="0.0"
     inkscape:pagecheckerboard="0"
     inkscape:deskcolor="#d1d1d1"
     inkscape:document-units="mm"
     inkscape:zoom="4.2968333"
     inkscape:cx="77.615299"
     inkscape:cy="48.175013"
     inkscape:window-width="1916"
     inkscape:window-height="1023"
     inkscape:window-x="0"
     inkscape:window-y="0"
     inkscape:window-maximized="0"
     inkscape:current-layer="layer1"><sodipodi:guide
       position="0.17416423,17.540036"
       orientation="0,132.28346"
       id="guide5"
       inkscape:locked="false" /><sodipodi:guide
       position="35.000001,35.000001"
       orientation="132.28346,0"
       id="guide6"
       inkscape:locked="false" /><sodipodi:guide
       position="35.000001,0"
       orientation="0,-132.28346"
       id="guide7"
       inkscape:locked="false" /><sodipodi:guide
       position="17.503506,35.914363"
       orientation="-132.28346,0"
       id="guide8"
       inkscape:locked="false" /></sodipodi:namedview><defs
     id="defs1"><inkscape:path-effect
       effect="mirror_symmetry"
       start_point="17.297909,16.234992"
       end_point="17.313303,7.810326"
       center_point="17.305606,12.022659"
       id="path-effect5"
       is_visible="true"
       lpeversion="1.2"
       lpesatellites=""
       mode="free"
       discard_orig_path="false"
       fuse_paths="true"
       oposite_fuse="false"
       split_items="false"
       split_open="false"
       link_styles="false" /><inkscape:path-effect
       effect="mirror_symmetry"
       start_point="17.297909,16.234992"
       end_point="17.313303,7.810326"
       center_point="17.305606,12.022659"
       id="path-effect5-7"
       is_visible="true"
       lpeversion="1.2"
       lpesatellites=""
       mode="free"
       discard_orig_path="false"
       fuse_paths="true"
       oposite_fuse="false"
       split_items="false"
       split_open="false"
       link_styles="false" /><inkscape:path-effect
       effect="mirror_symmetry"
       start_point="17.297909,16.234992"
       end_point="17.313303,7.810326"
       center_point="17.305606,12.022659"
       id="path-effect5-6"
       is_visible="true"
       lpeversion="1.2"
       lpesatellites=""
       mode="free"
       discard_orig_path="false"
       fuse_paths="true"
       oposite_fuse="false"
       split_items="false"
       split_open="false"
       link_styles="false" /><inkscape:path-effect
       effect="mirror_symmetry"
       start_point="17.297909,16.234992"
       end_point="17.313303,7.810326"
       center_point="17.305606,12.022659"
       id="path-effect5-3"
       is_visible="true"
       lpeversion="1.2"
       lpesatellites=""
       mode="free"
       discard_orig_path="false"
       fuse_paths="true"
       oposite_fuse="false"
       split_items="false"
       split_open="false"
       link_styles="false" /><inkscape:path-effect
       effect="mirror_symmetry"
       start_point="17.297909,16.234992"
       end_point="17.313303,7.810326"
       center_point="17.305606,12.022659"
       id="path-effect5-66"
       is_visible="true"
       lpeversion="1.2"
       lpesatellites=""
       mode="free"
       discard_orig_path="false"
       fuse_paths="true"
       oposite_fuse="false"
       split_items="false"
       split_open="false"
       link_styles="false" /><inkscape:path-effect
       effect="mirror_symmetry"
       start_point="17.297909,16.234992"
       end_point="17.313303,7.810326"
       center_point="17.305606,12.022659"
       id="path-effect5-4"
       is_visible="true"
       lpeversion="1.2"
       lpesatellites=""
       mode="free"
       discard_orig_path="false"
       fuse_paths="true"
       oposite_fuse="false"
       split_items="false"
       split_open="false"
       link_styles="false" /><inkscape:path-effect
       effect="mirror_symmetry"
       start_point="17.297909,16.234992"
       end_point="17.313303,7.810326"
       center_point="17.305606,12.022659"
       id="path-effect5-4-7"
       is_visible="true"
       lpeversion="1.2"
       lpesatellites=""
       mode="free"
       discard_orig_path="false"
       fuse_paths="true"
       oposite_fuse="false"
       split_items="false"
       split_open="false"
       link_styles="false" /><inkscape:path-effect
       effect="mirror_symmetry"
       start_point="17.297909,16.234992"
       end_point="17.313303,7.810326"
       center_point="17.305606,12.022659"
       id="path-effect5-41"
       is_visible="true"
       lpeversion="1.2"
       lpesatellites=""
       mode="free"
       discard_orig_path="false"
       fuse_paths="true"
       oposite_fuse="false"
       split_items="false"
       split_open="false"
       link_styles="false" /><inkscape:path-effect
       effect="mirror_symmetry"
       start_point="17.297909,16.234992"
       end_point="17.313303,7.810326"
       center_point="17.305606,12.022659"
       id="path-effect5-4-0"
       is_visible="true"
       lpeversion="1.2"
       lpesatellites=""
       mode="free"
       discard_orig_path="false"
       fuse_paths="true"
       oposite_fuse="false"
       split_items="false"
       split_open="false"
       link_styles="false" /><inkscape:path-effect
       effect="mirror_symmetry"
       start_point="17.493844,16.300304"
       end_point="17.509238,7.875638"
       center_point="17.501541,12.087971"
       id="path-effect5-4-0-9"
       is_visible="true"
       lpeversion="1.2"
       lpesatellites=""
       mode="free"
       discard_orig_path="false"
       fuse_paths="true"
       oposite_fuse="false"
       split_items="false"
       split_open="false"
       link_styles="false" /><inkscape:path-effect
       effect="mirror_symmetry"
       start_point="17.297909,16.234992"
       end_point="17.313303,7.810326"
       center_point="17.305606,12.022659"
       id="path-effect5-4-0-0"
       is_visible="true"
       lpeversion="1.2"
       lpesatellites=""
       mode="free"
       discard_orig_path="false"
       fuse_paths="true"
       oposite_fuse="false"
       split_items="false"
       split_open="false"
       link_styles="false" /><inkscape:path-effect
       effect="mirror_symmetry"
       start_point="17.493844,16.300304"
       end_point="17.509238,7.875638"
       center_point="17.501541,12.087971"
       id="path-effect5-4-0-9-7"
       is_visible="true"
       lpeversion="1.2"
       lpesatellites=""
       mode="free"
       discard_orig_path="false"
       fuse_paths="true"
       oposite_fuse="false"
       split_items="false"
       split_open="false"
       link_styles="false" /><inkscape:path-effect
       effect="mirror_symmetry"
       start_point="17.493844,16.300304"
       end_point="17.509238,7.875638"
       center_point="17.501541,12.087971"
       id="path-effect5-4-0-9-3"
       is_visible="true"
       lpeversion="1.2"
       lpesatellites=""
       mode="free"
       discard_orig_path="false"
       fuse_paths="true"
       oposite_fuse="false"
       split_items="false"
       split_open="false"
       link_styles="false" /><inkscape:path-effect
       effect="mirror_symmetry"
       start_point="17.297909,16.234992"
       end_point="17.313303,7.810326"
       center_point="17.305606,12.022659"
       id="path-effect5-4-6"
       is_visible="true"
       lpeversion="1.2"
       lpesatellites=""
       mode="free"
       discard_orig_path="false"
       fuse_paths="true"
       oposite_fuse="false"
       split_items="false"
       split_open="false"
       link_styles="false" /><inkscape:path-effect
       effect="mirror_symmetry"
       start_point="17.493844,16.300304"
       end_point="17.509238,7.875638"
       center_point="17.501541,12.087971"
       id="path-effect5-4-0-9-72"
       is_visible="true"
       lpeversion="1.2"
       lpesatellites=""
       mode="free"
       discard_orig_path="false"
       fuse_paths="true"
       oposite_fuse="false"
       split_items="false"
       split_open="false"
       link_styles="false" /><inkscape:path-effect
       effect="mirror_symmetry"
       start_point="17.493844,16.300304"
       end_point="17.509238,7.875638"
       center_point="17.501541,12.087971"
       id="path-effect5-4-0-9-72-8"
       is_visible="true"
       lpeversion="1.2"
       lpesatellites=""
       mode="free"
       discard_orig_path="false"
       fuse_paths="true"
       oposite_fuse="false"
       split_items="false"
       split_open="false"
       link_styles="false" /><inkscape:path-effect
       effect="mirror_symmetry"
       start_point="17.297909,16.234992"
       end_point="17.313303,7.810326"
       center_point="17.305606,12.022659"
       id="path-effect5-4-6-1"
       is_visible="true"
       lpeversion="1.2"
       lpesatellites=""
       mode="free"
       discard_orig_path="false"
       fuse_paths="true"
       oposite_fuse="false"
       split_items="false"
       split_open="false"
       link_styles="false" /><inkscape:path-effect
       effect="mirror_symmetry"
       start_point="17.297909,16.234992"
       end_point="17.313303,7.810326"
       center_point="17.305606,12.022659"
       id="path-effect5-4-6-7"
       is_visible="true"
       lpeversion="1.2"
       lpesatellites=""
       mode="free"
       discard_orig_path="false"
       fuse_paths="true"
       oposite_fuse="false"
       split_items="false"
       split_open="false"
       link_styles="false" /><inkscape:path-effect
       effect="mirror_symmetry"
       start_point="17.493844,16.300304"
       end_point="17.509238,7.875638"
       center_point="17.501541,12.087971"
       id="path-effect5-4-0-9-9"
       is_visible="true"
       lpeversion="1.2"
       lpesatellites=""
       mode="free"
       discard_orig_path="false"
       fuse_paths="true"
       oposite_fuse="false"
       split_items="false"
       split_open="false"
       link_styles="false" /><inkscape:path-effect
       effect="mirror_symmetry"
       start_point="17.297909,16.234992"
       end_point="17.313303,7.810326"
       center_point="17.305606,12.022659"
       id="path-effect5-4-9"
       is_visible="true"
       lpeversion="1.2"
       lpesatellites=""
       mode="free"
       discard_orig_path="false"
       fuse_paths="true"
       oposite_fuse="false"
       split_items="false"
       split_open="false"
       link_styles="false" /><inkscape:path-effect
       effect="mirror_symmetry"
       start_point="17.297909,16.234992"
       end_point="17.313303,7.810326"
       center_point="17.305606,12.022659"
       id="path-effect5-4-9-8"
       is_visible="true"
       lpeversion="1.2"
       lpesatellites=""
       mode="free"
       discard_orig_path="false"
       fuse_paths="true"
       oposite_fuse="false"
       split_items="false"
       split_open="false"
       link_styles="false" /><linearGradient
       inkscape:collect="always"
       xlink:href="#linearGradient5"
       id="linearGradient4"
       gradientUnits="userSpaceOnUse"
       gradientTransform="matrix(-0.96592582,-0.25881904,0.28019729,-1.0457105,32.76403,33.583298)"
       x1="10.647268"
       y1="16.557198"
       x2="14.154513"
       y2="4.4080276" /><linearGradient
       id="linearGradient5"
       inkscape:collect="always"><stop
         style="stop-color:#66ff66;stop-opacity:0.74901962;"
         offset="0"
         id="stop4" /><stop
         style="stop-color:#66ff66;stop-opacity:0;"
         offset="1"
         id="stop5" /></linearGradient></defs><g
     inkscape:label="Layer 1"
     inkscape:groupmode="layer"
     id="layer1"><path
       id="path1-3-0"
       style="fill:#4d4d4d;fill-opacity:1;stroke:#000000;stroke-width:0.265"
       d="m 19.162561,10.631007 c 0,0.918208 -0.744354,2.054431 -1.662562,2.054431 -0.918208,0 -1.662561,-1.136225 -1.662561,-2.054431 0,-0.9182068 0.744355,-1.6625605 1.662561,-1.6625605 0.918207,0 1.662562,0.7443527 1.662562,1.6625605 z"
       sodipodi:nodetypes="zzzzz" /><path
       style="fill:#999999;fill-opacity:1;stroke:none;stroke-width:0.264999;stroke-dasharray:none;stroke-opacity:1"
       d="m 16.191406,8.9042969 c -0.292488,-0.00827 -0.617135,0.09905 -0.605468,0.3007812 0.07244,1.2524069 0.537786,3.3296079 0.304687,4.2734379 -0.675632,-0.0097 -0.85684,0.09528 -1.308594,-0.03125 -0.320578,-0.512142 -0.750353,-1.125147 -1.101562,-0.853516 -0.354247,0.273981 0.360811,1.605869 0.742187,1.693359 1.222516,0.280464 2.603838,0.305684 3.273438,0.298829 0.66957,0.0093 2.051858,-0.01112 3.27539,-0.28711 0.381694,-0.0861 1.103244,-1.416132 0.75,-1.691406 -0.350214,-0.272913 -0.783021,0.340595 -1.105468,0.851562 -0.452214,0.124883 -0.632931,0.01812 -1.308594,0.02539 -0.229648,-0.944676 0.243297,-3.01935 0.320312,-4.2714844 0.02205,-0.3585544 -1.019715,-0.4239314 -1.054687,-0.066406 -0.05036,0.5149057 -0.184378,0.6272927 -0.117188,1.1562496 -0.217322,0.452837 -0.511517,1.061298 -0.58789,1.654297 -0.05913,0.02209 -0.114606,0.02958 -0.166016,0.0293 -0.05141,9.3e-5 -0.106965,-0.0089 -0.166016,-0.03125 -0.07421,-0.593274 -0.366365,-1.200669 -0.582031,-1.654297 0.06912,-0.5287079 -0.0648,-0.6411634 -0.113281,-1.1562497 -0.01473,-0.1564722 -0.221728,-0.2338059 -0.449219,-0.2402344 z"
       id="path4-6-3-2"
       sodipodi:nodetypes="sccscccccsss"
       transform="matrix(1,0,0,-1,-4.4022188e-4,24.162793)"
       inkscape:original-d="m 13.479563,12.593692 c 0.351209,-0.271631 0.781718,0.342379 1.102296,0.854521 0.451754,0.126534 0.632944,0.02127 1.308576,0.03101 0.233099,-0.94383 -0.232806,-3.02115 -0.305245,-4.273557 -0.02074,-0.3586326 1.022151,-0.4192286 1.055816,-0.061578 0.04848,0.5150863 0.182149,0.6270618 0.113026,1.15577 0.215666,0.453628 0.5075,1.06247 0.581706,1.655744 0.335179,0.12662 0.556797,-0.171236 0.556797,-0.171236 l 0.01129,2.792474 c 0,0 -1.992691,0.09749 -3.681046,-0.289844 -0.381376,-0.08749 -1.097459,-1.419322 -0.743212,-1.693303 z"
       inkscape:path-effect="#path-effect5-4-0-9-9" /><ellipse
       style="fill:#ffffff;fill-opacity:1;stroke:#000000;stroke-width:0.265;stroke-dasharray:none;stroke-opacity:1"
       id="path1-7-2-9-9-1-3-0"
       cx="17.23144"
       cy="4.3332348"
       rx="0.65429264"
       ry="0.80279088"
       transform="rotate(25.728078)" /><ellipse
       style="fill:#ffffff;fill-opacity:1;stroke:#000000;stroke-width:0.265;stroke-dasharray:none;stroke-opacity:1"
       id="path1-7-2-9-9-1-3-9"
       cx="-14.254927"
       cy="19.617832"
       rx="0.65429264"
       ry="0.80279088"
       transform="matrix(-0.9008644,0.43410061,0.43410061,0.9008644,0,0)" /><path
       style="fill:#999999;fill-opacity:1;stroke:none;stroke-width:0.264999;stroke-dasharray:none;stroke-opacity:1"
       d="m 26.417038,23.620712 c -0.127705,0.229192 -0.330452,0.40756 -0.480561,0.308919 -1.048395,-0.688938 -3.057379,-1.858617 -3.627008,-2.68268 -0.807027,0.03966 -0.75446,1.171503 -1.723056,1.386763 -0.786352,0.174759 -2.145092,-0.717674 -3.036435,-1.311053 0.113153,-0.360107 0.186223,-0.378927 0.477571,-0.725616 0.834975,0.36584 2.115058,0.945986 2.115058,0.945986 0.552314,-0.567698 1.317987,-1.450734 1.755904,-1.96319 0.222519,-0.636294 -0.04561,-1.670904 -0.241116,-2.527323 -0.756332,-0.383344 -1.508075,-0.615563 -2.263878,-1.057681 0.15301,-0.426223 0.131965,-0.499374 0.386231,-0.778352 0.994686,0.259929 1.936745,0.458267 2.642503,1.012047 0.780605,0.612509 0.750586,2.149953 1.122373,2.867337 0.998766,0.07763 3.022676,1.225149 4.145564,1.784518 0.321542,0.160181 -0.211358,1.057696 -0.538471,0.909218 -0.942209,-0.427667 -2.48282,-1.187025 -2.730753,-1.082697 -0.140098,0.05896 -0.206135,0.124739 -0.230986,0.189145 -0.04315,0.05388 -0.06715,0.146539 -0.0476,0.29728 0.03459,0.266759 1.464236,1.216035 2.307905,1.815099 0.146453,0.103988 0.09448,0.383102 -0.03325,0.61228 z"
       id="path4-6-4"
       sodipodi:nodetypes="cscssscccccscscscssc" /><ellipse
       style="fill:#ffffff;fill-opacity:1;stroke:#000000;stroke-width:0.265;stroke-dasharray:none;stroke-opacity:1"
       id="path1-7-2-9-9-1-9-9-7"
       cx="-3.7465255"
       cy="-24.386812"
       rx="0.65429264"
       ry="0.80279088"
       transform="matrix(0.5,-0.8660254,-0.8660254,-0.5,0,0)" /><path
       id="path1-7-1-1-4"
       style="fill:#ffffff;stroke:#000000;stroke-width:0.265;stroke-dasharray:none"
       d="m 16.145312,16.737018 c 0.682667,0.04836 0.503895,-1.102807 0.501699,-1.310009 -0.0022,-0.207202 0.395949,-1.167629 -0.463464,-1.16196 -1.042508,0.0069 -0.653086,2.428412 -0.03823,2.471969 z"
       sodipodi:nodetypes="sszs" /><path
       id="path1-3-1"
       style="fill:#ff6666;fill-opacity:1;stroke:#000000;stroke-width:0.265"
       d="m 21.476138,21.272137 c -0.795192,-0.459104 -1.407014,-1.671845 -0.94791,-2.467036 0.459104,-0.795192 1.81528,-0.871708 2.610471,-0.412605 0.795191,0.459104 1.067643,1.475912 0.60854,2.271102 -0.459103,0.79519 -1.47591,1.067643 -2.271101,0.608539 z"
       sodipodi:nodetypes="zzzzz" /><path
       id="path1-7-1-1-4-5"
       style="fill:#ffffff;stroke:#000000;stroke-width:0.265;stroke-dasharray:none"
       d="m 18.854686,16.737018 c -0.682667,0.04836 -0.503895,-1.102807 -0.501699,-1.310009 0.0022,-0.207202 -0.395949,-1.167629 0.463464,-1.16196 1.042508,0.0069 0.653086,2.428412 0.03823,2.471969 z"
       sodipodi:nodetypes="sszs" /><path
       id="path1-7-1-9-7-3"
       style="fill:#ffffff;stroke:#000000;stroke-width:0.265;stroke-dasharray:none"
       d="m 26.215741,24.221407 c -0.179453,-0.103607 -0.525465,-0.566481 -0.344954,-0.879136 0.180511,-0.312655 0.783072,-0.272774 0.962525,-0.169167 0.179451,0.103606 0.369312,0.132082 0.0018,0.725918 -0.367518,0.593841 -0.439914,0.425992 -0.619367,0.322385 z"
       sodipodi:nodetypes="ssszs" /><path
       id="path1-7-1-1-0"
       style="fill:#ffffff;stroke:#000000;stroke-width:0.265;stroke-dasharray:none"
       d="m 27.475143,22.083599 c -0.179453,-0.103607 -0.525465,-0.566481 -0.344954,-0.879136 0.180511,-0.312655 0.783072,-0.272774 0.962525,-0.169167 0.179452,0.103607 0.369313,0.132082 0.0018,0.725919 -0.367519,0.59384 -0.439915,0.425992 -0.619368,0.322384 z"
       sodipodi:nodetypes="ssszs" /><ellipse
       style="fill:#ffffff;fill-opacity:1;stroke:#000000;stroke-width:0.265;stroke-dasharray:none;stroke-opacity:1"
       id="path1-7-2-9-9-1-9"
       cx="25.104029"
       cy="-11.944732"
       rx="0.65429264"
       ry="0.80279088"
       transform="rotate(75)" /><path
       style="fill:#999999;fill-opacity:1;stroke:none;stroke-width:0.264999;stroke-dasharray:none;stroke-opacity:1"
       d="m 16.0625,7.5585937 c -0.262338,-0.00397 -0.518182,0.082402 -0.507812,0.2617188 0.07244,1.2524069 0.08092,3.5770765 0.509765,4.4824215 -0.619107,-0.0056 -1.745052,-0.18892 -2.05664,0.253907 -0.258596,0.367514 0.03999,1.846533 0.660156,2.78125 0.155655,0.234603 0.898838,-0.168222 0.861328,-0.447266 -0.09347,-0.695437 -0.159096,-0.867894 -0.402344,-1.509766 0.953116,0.03675 1.708696,0.03609 2.175781,0.0293 0.467058,0.0085 1.224491,0.01178 2.177735,-0.02148 -0.245592,0.640979 -0.314145,0.812722 -0.410157,1.507812 -0.03853,0.278905 0.704817,0.685205 0.861329,0.451172 0.623579,-0.932444 0.927173,-2.41084 0.669921,-2.779297 -0.309967,-0.443962 -1.437517,-0.263124 -2.05664,-0.259765 0.432152,-0.903772 0.450328,-3.2302883 0.527344,-4.4824221 0.02205,-0.3585544 -1.02167,-0.3458071 -1.056641,0.011719 -0.100734,1.0298107 -0.213416,2.7436984 -0.427734,2.9062504 -0.121107,0.09185 -0.211094,0.116149 -0.279297,0.105468 -0.06824,0.01043 -0.16048,-0.01512 -0.28125,-0.107421 C 16.813621,10.578854 16.706345,8.8661094 16.609375,7.8359375 16.592543,7.6571119 16.324839,7.5625647 16.0625,7.5585937 Z"
       id="path4-6"
       sodipodi:nodetypes="ssscssscccs"
       transform="rotate(-90,17.297684,20.523467)"
       inkscape:original-d="m 15.53026,14.890015 c 0.03751,0.279044 -0.706242,0.683088 -0.861897,0.448485 -0.620168,-0.934717 -0.918433,-2.414328 -0.659837,-2.781842 0.311588,-0.442827 1.436966,-0.258666 2.056073,-0.253045 -0.428846,-0.905345 -0.437758,-3.2310091 -0.510197,-4.483416 -0.02074,-0.3586326 1.022152,-0.3422582 1.055816,0.015393 0.09697,1.0301719 0.203913,2.743905 0.417636,2.907239 0.427544,0.326742 0.480507,-0.179347 0.480507,-0.179347 l 0.318037,2.834014 c 0,0 -1.059289,0.04685 -2.700397,-0.01643 0.243248,0.641872 0.310788,0.813517 0.404259,1.508954 z"
       inkscape:path-effect="#path-effect5-4-9" /><ellipse
       style="fill:#ffffff;fill-opacity:1;stroke:#000000;stroke-width:0.265;stroke-dasharray:none;stroke-opacity:1"
       id="path1-7-2-9-9-1-9-9"
       cx="18.494308"
       cy="-12.471209"
       rx="0.65429264"
       ry="0.80279088"
       transform="rotate(90)" /><path
       id="path1-3-1-1"
       style="fill:#6666ff;fill-opacity:1;stroke:#000000;stroke-width:0.265"
       d="m 9.8681029,18.912746 c 0.9182081,0 2.0544321,0.744355 2.0544321,1.662561 0,0.918207 -1.136226,1.662562 -2.0544321,1.662562 -0.9182071,-1e-6 -1.6625613,-0.744355 -1.6625611,-1.662561 -3e-7,-0.918207 0.7443543,-1.662563 1.6625611,-1.662562 z"
       sodipodi:nodetypes="zzzzz" /><path
       id="path1-7-1-1-0-5"
       style="fill:#ffffff;stroke:#000000;stroke-width:0.265;stroke-dasharray:none"
       d="m 4.2430282,21.151437 c 0.2072148,0 0.7383072,0.227854 0.7383079,0.588876 0,0.361023 -0.5417704,0.627769 -0.7489894,0.627763 -0.2072141,1e-6 -0.385876,0.07027 -0.3645157,-0.627766 0.02136,-0.698039 0.1679803,-0.588875 0.3751951,-0.588875 z"
       sodipodi:nodetypes="ssszs" /><path
       id="path1-7-1-9-7-7"
       style="fill:#ffffff;stroke:#000000;stroke-width:0.265;stroke-dasharray:none"
       d="m 4.2647986,18.670339 c 0.2072141,-10e-7 0.7383072,0.227855 0.7383072,0.588877 0,0.361023 -0.5417704,0.627769 -0.7489901,0.627764 -0.207212,0 -0.3858746,0.07027 -0.364515,-0.627767 0.02136,-0.698038 0.1679817,-0.588877 0.3751951,-0.588877 z"
       sodipodi:nodetypes="ssszs" /><ellipse
       style="fill:#ffffff;fill-opacity:1;stroke:#000000;stroke-width:0.265;stroke-dasharray:none;stroke-opacity:1"
       id="path1-7-2-9-9-5"
       cx="22.540173"
       cy="-12.471209"
       rx="0.65429264"
       ry="0.80279088"
       transform="rotate(90)" /><path
       style="fill:#999999;fill-opacity:1;stroke:none;stroke-width:0.264999;stroke-dasharray:none;stroke-opacity:1"
       d="m 16.0625,7.5585937 c -0.262338,-0.00397 -0.518182,0.082402 -0.507812,0.2617188 0.07244,1.2524069 0.08092,3.5770765 0.509765,4.4824215 -0.619107,-0.0056 -1.745052,-0.18892 -2.05664,0.253907 -0.258596,0.367514 0.03999,1.846533 0.660156,2.78125 0.155655,0.234603 0.898838,-0.168222 0.861328,-0.447266 -0.09347,-0.695437 -0.159096,-0.867894 -0.402344,-1.509766 0.953116,0.03675 1.708696,0.03609 2.175781,0.0293 0.467058,0.0085 1.224491,0.01178 2.177735,-0.02148 -0.245592,0.640979 -0.314145,0.812722 -0.410157,1.507812 -0.03853,0.278905 0.704817,0.685205 0.861329,0.451172 0.623579,-0.932444 0.927173,-2.41084 0.669921,-2.779297 -0.309967,-0.443962 -1.437517,-0.263124 -2.05664,-0.259765 0.432152,-0.903772 0.450328,-3.2302883 0.527344,-4.4824221 0.02205,-0.3585544 -1.02167,-0.3458071 -1.056641,0.011719 -0.100734,1.0298107 -0.213416,2.7436984 -0.427734,2.9062504 -0.121107,0.09185 -0.211094,0.116149 -0.279297,0.105468 -0.06824,0.01043 -0.16048,-0.01512 -0.28125,-0.107421 C 16.813621,10.578854 16.706345,8.8661094 16.609375,7.8359375 16.592543,7.6571119 16.324839,7.5625647 16.0625,7.5585937 Z"
       id="path4-6-3"
       sodipodi:nodetypes="ssscssscccs"
       transform="rotate(75,21.678245,19.362311)"
       inkscape:original-d="m 15.53026,14.890015 c 0.03751,0.279044 -0.706242,0.683088 -0.861897,0.448485 -0.620168,-0.934717 -0.918433,-2.414328 -0.659837,-2.781842 0.311588,-0.442827 1.436966,-0.258666 2.056073,-0.253045 -0.428846,-0.905345 -0.437758,-3.2310091 -0.510197,-4.483416 -0.02074,-0.3586326 1.022152,-0.3422582 1.055816,0.015393 0.09697,1.0301719 0.203913,2.743905 0.417636,2.907239 0.427544,0.326742 0.480507,-0.179347 0.480507,-0.179347 l 0.318037,2.834014 c 0,0 -1.059289,0.04685 -2.700397,-0.01643 0.243248,0.641872 0.310788,0.813517 0.404259,1.508954 z"
       inkscape:path-effect="#path-effect5-4-9-8" /><ellipse
       style="fill:#ffffff;fill-opacity:1;stroke:#000000;stroke-width:0.265;stroke-dasharray:none;stroke-opacity:1"
       id="path1-7-2-9-9-1-9-8"
       cx="-21.961897"
       cy="19.593559"
       rx="0.65429264"
       ry="0.80279088"
       transform="rotate(-105)" /><path
       id="path1-3-1-3"
       style="fill:#66ff66;fill-opacity:1;stroke:#000000;stroke-width:0.265"
       d="m 27.016189,15.064461 c -0.886921,0.23765 -2.177082,-0.187265 -2.414732,-1.074184 -0.23765,-0.886919 0.667207,-1.899988 1.554126,-2.137637 0.88692,-0.237648 1.798564,0.288689 2.036214,1.175607 0.237649,0.886922 -0.288689,1.798567 -1.175608,2.036214 z"
       sodipodi:nodetypes="zzzzz" /><path
       id="path1-7-1-1-0-3"
       style="fill:#ffffff;stroke:#000000;stroke-width:0.265;stroke-dasharray:none"
       d="m 31.870177,11.446177 c -0.200153,0.05363 -0.772123,-0.029 -0.865564,-0.377723 -0.09344,-0.348721 0.360832,-0.746599 0.560992,-0.800225 0.200153,-0.05363 0.35454,-0.167748 0.514572,0.512031 0.160034,0.679782 -0.0098,0.612286 -0.209997,0.665918 z"
       sodipodi:nodetypes="ssszs" /><path
       id="path1-7-1-9-7-7-3"
       style="fill:#ffffff;stroke:#000000;stroke-width:0.265;stroke-dasharray:none"
       d="m 32.491304,13.848368 c -0.200153,0.05363 -0.772123,-0.029 -0.865562,-0.377724 -0.09344,-0.348721 0.360831,-0.746599 0.560991,-0.800226 0.200152,-0.05363 0.354539,-0.167748 0.514573,0.512032 0.160034,0.679782 -0.0098,0.61229 -0.209998,0.66592 z"
       sodipodi:nodetypes="ssszs" /><ellipse
       style="fill:#ffffff;fill-opacity:1;stroke:#000000;stroke-width:0.265;stroke-dasharray:none;stroke-opacity:1"
       id="path1-7-2-9-9-5-8"
       cx="-17.916033"
       cy="19.593559"
       rx="0.65429264"
       ry="0.80279088"
       transform="rotate(-105)" /><path
       id="path1-3-1-5-8-0-8-0-4"
       style="fill:url(#linearGradient4);fill-opacity:1;stroke:none;stroke-width:0.265"
       d="m 17.901589,21.564879 c -3.410164,-2.500143 -4.498699,-7.05624 -3.326418,-9.701676 1.388345,-3.1330186 6.987271,-4.5617207 10.145255,2.051221 0.809069,-0.510902 2.348046,-0.934818 3.134348,-1.289198 C 25.79118,3.5596635 14.44418,4.0714544 11.45047,9.2214914 8.9366294,13.546016 12.175961,20.009841 14.755072,22.206231 c 3.19997,2.725118 9.325826,3.888975 3.146517,-0.641352 z"
       sodipodi:nodetypes="ssccsss" /></g></svg>
