<?xml version="1.0" encoding="UTF-8" standalone="no"?>
<!-- Created with Inkscape (http://www.inkscape.org/) -->

<svg
   width="35mm"
   height="35mm"
   viewBox="0 0 35 35"
   version="1.1"
   id="svg1"
   xml:space="preserve"
   inkscape:version="1.4 (e7c3feb100, 2024-10-09)"
   sodipodi:docname="b_primary.svg"
   xmlns:inkscape="http://www.inkscape.org/namespaces/inkscape"
   xmlns:sodipodi="http://sodipodi.sourceforge.net/DTD/sodipodi-0.dtd"
   xmlns="http://www.w3.org/2000/svg"
   xmlns:svg="http://www.w3.org/2000/svg"><sodipodi:namedview
     id="namedview1"
     pagecolor="#ffffff"
     bordercolor="#000000"
     borderopacity="0.25"
     inkscape:showpageshadow="2"
     inkscape:pageopacity="0.0"
     inkscape:pagecheckerboard="0"
     inkscape:deskcolor="#d1d1d1"
     inkscape:document-units="mm"
     inkscape:zoom="4.2968333"
     inkscape:cx="110.19743"
     inkscape:cy="88.66995"
     inkscape:window-width="1916"
     inkscape:window-height="1023"
     inkscape:window-x="0"
     inkscape:window-y="0"
     inkscape:window-maximized="0"
     inkscape:current-layer="layer1" /><defs
     id="defs1"><inkscape:path-effect
       effect="mirror_symmetry"
       start_point="17.297909,16.234992"
       end_point="17.313303,7.810326"
       center_point="17.305606,12.022659"
       id="path-effect5"
       is_visible="true"
       lpeversion="1.2"
       lpesatellites=""
       mode="free"
       discard_orig_path="false"
       fuse_paths="true"
       oposite_fuse="false"
       split_items="false"
       split_open="false"
       link_styles="false" /><inkscape:path-effect
       effect="mirror_symmetry"
       start_point="17.297909,16.234992"
       end_point="17.313303,7.810326"
       center_point="17.305606,12.022659"
       id="path-effect5-7"
       is_visible="true"
       lpeversion="1.2"
       lpesatellites=""
       mode="free"
       discard_orig_path="false"
       fuse_paths="true"
       oposite_fuse="false"
       split_items="false"
       split_open="false"
       link_styles="false" /><inkscape:path-effect
       effect="mirror_symmetry"
       start_point="17.297909,16.234992"
       end_point="17.313303,7.810326"
       center_point="17.305606,12.022659"
       id="path-effect5-6"
       is_visible="true"
       lpeversion="1.2"
       lpesatellites=""
       mode="free"
       discard_orig_path="false"
       fuse_paths="true"
       oposite_fuse="false"
       split_items="false"
       split_open="false"
       link_styles="false" /><inkscape:path-effect
       effect="mirror_symmetry"
       start_point="17.297909,16.234992"
       end_point="17.313303,7.810326"
       center_point="17.305606,12.022659"
       id="path-effect5-3"
       is_visible="true"
       lpeversion="1.2"
       lpesatellites=""
       mode="free"
       discard_orig_path="false"
       fuse_paths="true"
       oposite_fuse="false"
       split_items="false"
       split_open="false"
       link_styles="false" /><inkscape:path-effect
       effect="mirror_symmetry"
       start_point="17.297909,16.234992"
       end_point="17.313303,7.810326"
       center_point="17.305606,12.022659"
       id="path-effect5-66"
       is_visible="true"
       lpeversion="1.2"
       lpesatellites=""
       mode="free"
       discard_orig_path="false"
       fuse_paths="true"
       oposite_fuse="false"
       split_items="false"
       split_open="false"
       link_styles="false" /><inkscape:path-effect
       effect="mirror_symmetry"
       start_point="17.297909,16.234992"
       end_point="17.313303,7.810326"
       center_point="17.305606,12.022659"
       id="path-effect5-4"
       is_visible="true"
       lpeversion="1.2"
       lpesatellites=""
       mode="free"
       discard_orig_path="false"
       fuse_paths="true"
       oposite_fuse="false"
       split_items="false"
       split_open="false"
       link_styles="false" /><inkscape:path-effect
       effect="mirror_symmetry"
       start_point="17.297909,16.234992"
       end_point="17.313303,7.810326"
       center_point="17.305606,12.022659"
       id="path-effect5-4-7"
       is_visible="true"
       lpeversion="1.2"
       lpesatellites=""
       mode="free"
       discard_orig_path="false"
       fuse_paths="true"
       oposite_fuse="false"
       split_items="false"
       split_open="false"
       link_styles="false" /><inkscape:path-effect
       effect="mirror_symmetry"
       start_point="17.297909,16.234992"
       end_point="17.313303,7.810326"
       center_point="17.305606,12.022659"
       id="path-effect5-41"
       is_visible="true"
       lpeversion="1.2"
       lpesatellites=""
       mode="free"
       discard_orig_path="false"
       fuse_paths="true"
       oposite_fuse="false"
       split_items="false"
       split_open="false"
       link_styles="false" /></defs><g
     inkscape:label="Layer 1"
     inkscape:groupmode="layer"
     id="layer1"><path
       style="fill:#999999;fill-opacity:1;stroke:none;stroke-width:0.264999;stroke-dasharray:none;stroke-opacity:1"
       d="m 18.895205,29.122238 c 0.262339,0.004 0.518183,-0.0824 0.507812,-0.261718 -0.07244,-1.252407 -0.08092,-3.577077 -0.509765,-4.482421 0.437864,-0.679074 1.45073,0.168884 1.972084,-0.675332 0.452157,-0.732168 -0.762989,-1.86407 -1.261782,-2.126082 -0.249249,-0.130928 -0.82017,0.516212 -0.604561,0.69728 0.500289,0.420141 0.380387,0.375581 0.772257,0.72391 -0.459065,0.230808 -1.588685,-0.137344 -2.116279,0.08139 -0.588368,-0.0052 -1.352111,-1.029944 -1.941944,-1.509386 0.08708,-0.566034 0.132944,-1.575351 0.180364,-2.213589 -0.0249,-0.280451 -0.662518,-0.32433 -0.778724,-0.06789 -0.503087,1.110186 -0.618218,2.261245 -0.378721,2.705367 0.242445,0.449591 1.241452,1.697792 1.676831,2.378464 -0.432152,0.903771 -0.450328,3.230287 -0.527344,4.482421 -0.02205,0.358555 1.02167,0.345807 1.056641,-0.01172 0.100734,-1.029811 0.213416,-2.743698 0.427734,-2.90625 0.121107,-0.09185 0.211094,-0.116149 0.279297,-0.105468 0.06824,-0.01043 0.16048,0.01512 0.28125,0.107421 0.213723,0.163344 0.320999,1.876089 0.417969,2.906261 0.01683,0.178825 0.284536,0.273372 0.546875,0.277344 z"
       id="path4-4-5"
       sodipodi:nodetypes="ssscssccccsscscscssss" /><path
       style="fill:#999999;fill-opacity:1;stroke:none;stroke-width:0.1"
       d="m 13.018776,17.612357 c 0,0 3.068579,-0.37801 3.047875,0.718429 -0.017,0.900156 -3.004334,0.435412 -3.004334,0.435412 z"
       id="path2"
       sodipodi:nodetypes="cscc" /><path
       id="path1-7-1-2-6"
       style="fill:#ffffff;stroke:#000000;stroke-width:0.265;stroke-dasharray:none"
       d="m 18.251474,29.291798 c 0,-0.207214 0.227855,-0.738307 0.588877,-0.738307 0.361023,0 0.627766,0.541773 0.627766,0.748987 0,0.207215 0.07027,0.385877 -0.627766,0.364517 -0.69804,-0.02136 -0.588877,-0.167981 -0.588877,-0.375197 z"
       sodipodi:nodetypes="ssszs" /><path
       id="path1-7-1-9-0-2"
       style="fill:#ffffff;stroke:#000000;stroke-width:0.265;stroke-dasharray:none"
       d="m 15.770377,29.270028 c 0,-0.207214 0.227855,-0.738307 0.588877,-0.738307 0.361023,0 0.627766,0.541773 0.627766,0.748987 0,0.207214 0.07027,0.385876 -0.627766,0.364516 -0.69804,-0.02136 -0.588877,-0.167981 -0.588877,-0.375196 z"
       sodipodi:nodetypes="ssszs" /><ellipse
       style="fill:#ffffff;fill-opacity:1;stroke:#000000;stroke-width:0.265;stroke-dasharray:none;stroke-opacity:1"
       id="path1-7-2-9-9-1-6-1"
       cx="7.9786649"
       cy="-27.901993"
       rx="0.65429264"
       ry="0.80279088"
       transform="rotate(122.77357)" /><path
       id="path1-9-9"
       style="fill:#66ff66;fill-opacity:1;stroke:#000000;stroke-width:0.265"
       d="m 15.932295,23.669007 c 0,-0.918208 0.744354,-2.054432 1.662562,-2.054432 0.918208,0 1.662561,1.136225 1.662561,2.054432 0,0.918206 -0.744354,1.66256 -1.662561,1.66256 -0.918207,0 -1.662562,-0.744353 -1.662562,-1.66256 z"
       sodipodi:nodetypes="zzzzz" /><path
       id="path1-7-1-1"
       style="fill:#ffffff;stroke:#000000;stroke-width:0.265;stroke-dasharray:none"
       d="m 15.963181,18.95912 c -0.206071,-0.02173 -0.710344,-0.304016 -0.672488,-0.663049 0.03786,-0.359033 0.604614,-0.567495 0.810685,-0.545766 0.206072,0.02173 0.391116,-0.02942 0.29668,0.662527 -0.09444,0.691952 -0.228804,0.568016 -0.434877,0.546288 z"
       sodipodi:nodetypes="ssszs" /><ellipse
       style="fill:#ffffff;fill-opacity:1;stroke:#000000;stroke-width:0.265;stroke-dasharray:none;stroke-opacity:1"
       id="path1-7-2-9-9-8-7"
       cx="-15.426818"
       cy="-18.934006"
       rx="0.65429264"
       ry="0.80279088"
       transform="scale(-1)" /><path
       style="fill:#999999;fill-opacity:1;stroke:none;stroke-width:0.264999;stroke-dasharray:none;stroke-opacity:1"
       d="m 14.048828,14.349609 c -0.452157,0.732168 -0.02075,1.907611 0.216797,3.083985 0.05573,0.275974 0.796346,0.47567 0.822266,0.195312 0.10928,-1.18211 0.09766,-2.857422 0.09766,-2.857422 0.222874,-0.13243 1.532237,-1.320735 2.015809,-1.549952 0.927356,0.269495 1.323157,1.022833 2.21271,1.555812 0,0 -0.01512,1.676873 0.08984,2.859375 0.0249,0.280451 0.76553,0.08241 0.822266,-0.19336 0.241841,-1.175498 0.677994,-2.348215 0.228515,-3.082031 -0.518265,-0.846116 -1.574386,-1.372065 -2.009765,-2.052734 0.432152,-0.903772 0.450328,-3.2302883 0.527344,-4.4824221 0.02205,-0.3585544 -1.02167,-0.3458071 -1.056641,0.011719 -0.08962,1.3542222 -0.329652,2.6755141 -0.583878,3.9815461 -0.42965,-0.483871 -2.661442,1.96305 -3.382919,2.530172 z"
       id="path4-6"
       sodipodi:nodetypes="cssscccsscccccc"
       transform="rotate(-90,17.191595,17.571245)" /><path
       style="fill:#999999;fill-opacity:1;stroke:none;stroke-width:0.264999;stroke-dasharray:none;stroke-opacity:1"
       d="m 16.34645,5.7828663 c -0.262339,-0.004 -0.518183,0.0824 -0.507812,0.261718 0.07244,1.252407 0.08092,3.577077 0.509765,4.4824207 -0.437864,0.679074 -1.45073,-0.168884 -1.972084,0.675332 -0.452157,0.732168 0.762989,1.86407 1.261782,2.126082 0.249249,0.130928 0.82017,-0.516212 0.604561,-0.69728 -0.500289,-0.420141 -0.380387,-0.375581 -0.772257,-0.72391 0.459065,-0.230808 1.588685,0.137344 2.116279,-0.08139 0.588368,0.0052 1.352111,1.029944 1.941944,1.509386 -0.08708,0.566034 -0.132944,1.575351 -0.180364,2.213589 0.0249,0.280451 0.662518,0.32433 0.778724,0.06789 0.503087,-1.110186 0.618218,-2.261245 0.378721,-2.705367 -0.242445,-0.449591 -1.241452,-1.697792 -1.676831,-2.378464 0.432152,-0.9037707 0.450328,-3.2302867 0.527344,-4.4824207 0.02205,-0.358555 -1.02167,-0.345807 -1.056641,0.01172 -0.100734,1.029811 -0.213416,2.743698 -0.427734,2.90625 -0.121107,0.09185 -0.211094,0.116149 -0.279297,0.105468 -0.06824,0.01043 -0.16048,-0.01512 -0.28125,-0.107421 -0.213723,-0.163344 -0.320999,-1.876089 -0.417969,-2.906261 -0.01683,-0.178825 -0.284536,-0.273372 -0.546875,-0.277344 z"
       id="path4-4-5-5"
       sodipodi:nodetypes="ssscssccccsscscscssss" /><path
       id="path1-3"
       style="fill:#6666ff;fill-opacity:1;stroke:#000000;stroke-width:0.265"
       d="m 12.632175,15.800057 c 0.918208,0 2.054432,0.744354 2.054432,1.662562 0,0.918208 -1.136225,1.662561 -2.054432,1.662561 -0.918207,0 -1.662561,-0.744355 -1.662561,-1.662561 0,-0.918207 0.744353,-1.662562 1.662561,-1.662562 z"
       sodipodi:nodetypes="zzzzz" /><path
       style="fill:#999999;fill-opacity:1;stroke:none;stroke-width:0.1"
       d="m 22.222879,17.292747 c 0,0 -3.068579,0.37801 -3.047875,-0.718429 0.017,-0.900156 3.004334,-0.435412 3.004334,-0.435412 z"
       id="path2-3"
       sodipodi:nodetypes="cscc" /><path
       id="path1-7-1-1-1"
       style="fill:#ffffff;stroke:#000000;stroke-width:0.265;stroke-dasharray:none"
       d="m 19.278474,15.945984 c 0.206071,0.02173 0.710344,0.304016 0.672488,0.663049 -0.03786,0.359033 -0.604614,0.567495 -0.810685,0.545766 -0.206072,-0.02173 -0.391116,0.02942 -0.29668,-0.662527 0.09444,-0.691952 0.228804,-0.568016 0.434877,-0.546288 z"
       sodipodi:nodetypes="ssszs" /><ellipse
       style="fill:#ffffff;fill-opacity:1;stroke:#000000;stroke-width:0.265;stroke-dasharray:none;stroke-opacity:1"
       id="path1-7-2-9-9-8-7-2"
       cx="19.814838"
       cy="15.971099"
       rx="0.65429264"
       ry="0.80279088" /><path
       style="fill:#999999;fill-opacity:1;stroke:none;stroke-width:0.264999;stroke-dasharray:none;stroke-opacity:1"
       d="m 21.271697,14.191092 c -0.732168,-0.452157 -1.907611,-0.02075 -3.083985,0.216797 -0.275974,0.05573 -0.47567,0.796346 -0.195312,0.822266 1.18211,0.10928 2.857422,0.09766 2.857422,0.09766 0.13243,0.222874 1.320735,1.532237 1.549952,2.015809 -0.269495,0.927356 -1.022833,1.323157 -1.555812,2.21271 0,0 -1.676873,-0.01512 -2.859375,0.08984 -0.280451,0.0249 -0.08241,0.76553 0.19336,0.822266 1.175498,0.241841 2.348215,0.677994 3.082031,0.228515 0.846116,-0.518265 1.372065,-1.574386 2.052734,-2.009765 0.903772,0.432152 3.230288,0.450328 4.482422,0.527344 0.358555,0.02205 0.345807,-1.02167 -0.01172,-1.056641 -1.354222,-0.08962 -2.675514,-0.329652 -3.981546,-0.583878 0.483871,-0.42965 -1.96305,-2.661442 -2.530172,-3.382919 z"
       id="path4-6-7"
       sodipodi:nodetypes="cssscccsscccccc" /><ellipse
       style="fill:#ffffff;fill-opacity:1;stroke:#000000;stroke-width:0.265;stroke-dasharray:none;stroke-opacity:1"
       id="path1-7-2-9-9"
       cx="20.006554"
       cy="-17.5937"
       rx="0.65429264"
       ry="0.80279088"
       transform="rotate(90)" /><ellipse
       style="fill:#ffffff;fill-opacity:1;stroke:#000000;stroke-width:0.265;stroke-dasharray:none;stroke-opacity:1"
       id="path1-7-2-9-9-1"
       cx="14.90236"
       cy="-17.5937"
       rx="0.65429264"
       ry="0.80279088"
       transform="rotate(90)" /><path
       id="path1-7-1-9-7"
       style="fill:#ffffff;stroke:#000000;stroke-width:0.265;stroke-dasharray:none"
       d="m 7.0529237,15.615716 c 0.207214,0 0.738307,0.227855 0.738307,0.588877 0,0.361023 -0.541773,0.627766 -0.748987,0.627766 -0.207213,0 -0.385875,0.07027 -0.364515,-0.627766 0.02136,-0.69804 0.167981,-0.588877 0.375195,-0.588877 z"
       sodipodi:nodetypes="ssszs" /><path
       id="path1-7-1-2-6-5"
       style="fill:#ffffff;stroke:#000000;stroke-width:0.265;stroke-dasharray:none"
       d="m 16.990181,5.6133063 c 0,0.207214 -0.227855,0.738307 -0.588877,0.738307 -0.361023,0 -0.627766,-0.541773 -0.627766,-0.748987 0,-0.207215 -0.07027,-0.385877 0.627766,-0.364517 0.69804,0.02136 0.588877,0.167981 0.588877,0.375197 z"
       sodipodi:nodetypes="ssszs" /><path
       id="path1-7-1-9-0-2-6"
       style="fill:#ffffff;stroke:#000000;stroke-width:0.265;stroke-dasharray:none"
       d="m 19.471278,5.6350763 c 0,0.207214 -0.227855,0.738307 -0.588877,0.738307 -0.361023,0 -0.627766,-0.541773 -0.627766,-0.748987 0,-0.207214 -0.07027,-0.385876 0.627766,-0.364516 0.69804,0.02136 0.588877,0.167981 0.588877,0.375196 z"
       sodipodi:nodetypes="ssszs" /><ellipse
       style="fill:#ffffff;fill-opacity:1;stroke:#000000;stroke-width:0.265;stroke-dasharray:none;stroke-opacity:1"
       id="path1-7-2-9-9-1-6-1-2"
       cx="-2.2930908"
       cy="20.624613"
       rx="0.65429264"
       ry="0.80279088"
       transform="rotate(-57.22643)" /><path
       id="path1-9-9-9"
       style="fill:#4d4d4d;fill-opacity:1;stroke:#000000;stroke-width:0.265"
       d="m 19.30936,11.236097 c 0,0.918208 -0.744354,2.054432 -1.662562,2.054432 -0.918208,0 -1.662561,-1.136225 -1.662561,-2.054432 0,-0.918206 0.744354,-1.6625597 1.662561,-1.6625597 0.918207,0 1.662562,0.7443527 1.662562,1.6625597 z"
       sodipodi:nodetypes="zzzzz" /><path
       id="path1-3-0"
       style="fill:#ff6666;fill-opacity:1;stroke:#000000;stroke-width:0.265"
       d="m 22.60948,19.105047 c -0.918208,0 -2.054432,-0.744354 -2.054432,-1.662562 0,-0.918208 1.136225,-1.662561 2.054432,-1.662561 0.918207,0 1.662561,0.744355 1.662561,1.662561 0,0.918207 -0.744353,1.662562 -1.662561,1.662562 z"
       sodipodi:nodetypes="zzzzz" /><path
       id="path1-7-1-9-7-6"
       style="fill:#ffffff;stroke:#000000;stroke-width:0.265;stroke-dasharray:none"
       d="m 28.188731,19.289388 c -0.207214,0 -0.738307,-0.227855 -0.738307,-0.588877 0,-0.361023 0.541773,-0.627766 0.748987,-0.627766 0.207213,0 0.385875,-0.07027 0.364515,0.627766 -0.02136,0.69804 -0.167981,0.588877 -0.375195,0.588877 z"
       sodipodi:nodetypes="ssszs" /></g></svg>
