<?xml version="1.0" encoding="UTF-8" standalone="no"?>
<!-- Created with Inkscape (http://www.inkscape.org/) -->

<svg
   width="35mm"
   height="35mm"
   viewBox="0 0 35 35"
   version="1.1"
   id="svg1"
   xml:space="preserve"
   inkscape:version="1.4 (e7c3feb100, 2024-10-09)"
   sodipodi:docname="d_alternate.svg"
   xmlns:inkscape="http://www.inkscape.org/namespaces/inkscape"
   xmlns:sodipodi="http://sodipodi.sourceforge.net/DTD/sodipodi-0.dtd"
   xmlns="http://www.w3.org/2000/svg"
   xmlns:svg="http://www.w3.org/2000/svg"><sodipodi:namedview
     id="namedview1"
     pagecolor="#ffffff"
     bordercolor="#000000"
     borderopacity="0.25"
     inkscape:showpageshadow="2"
     inkscape:pageopacity="0.0"
     inkscape:pagecheckerboard="0"
     inkscape:deskcolor="#d1d1d1"
     inkscape:document-units="mm"
     inkscape:zoom="4.2968333"
     inkscape:cx="93.208176"
     inkscape:cy="50.502308"
     inkscape:window-width="1916"
     inkscape:window-height="1023"
     inkscape:window-x="0"
     inkscape:window-y="0"
     inkscape:window-maximized="0"
     inkscape:current-layer="layer1"><sodipodi:guide
       position="0.17416423,17.540036"
       orientation="0,132.28346"
       id="guide5"
       inkscape:locked="false" /><sodipodi:guide
       position="17.503506,35.914363"
       orientation="-132.28346,0"
       id="guide8"
       inkscape:locked="false" /></sodipodi:namedview><defs
     id="defs1"><inkscape:path-effect
       effect="mirror_symmetry"
       start_point="17.297909,16.234992"
       end_point="17.313303,7.810326"
       center_point="17.305606,12.022659"
       id="path-effect5"
       is_visible="true"
       lpeversion="1.2"
       lpesatellites=""
       mode="free"
       discard_orig_path="false"
       fuse_paths="true"
       oposite_fuse="false"
       split_items="false"
       split_open="false"
       link_styles="false" /><inkscape:path-effect
       effect="mirror_symmetry"
       start_point="17.297909,16.234992"
       end_point="17.313303,7.810326"
       center_point="17.305606,12.022659"
       id="path-effect5-7"
       is_visible="true"
       lpeversion="1.2"
       lpesatellites=""
       mode="free"
       discard_orig_path="false"
       fuse_paths="true"
       oposite_fuse="false"
       split_items="false"
       split_open="false"
       link_styles="false" /><inkscape:path-effect
       effect="mirror_symmetry"
       start_point="17.297909,16.234992"
       end_point="17.313303,7.810326"
       center_point="17.305606,12.022659"
       id="path-effect5-6"
       is_visible="true"
       lpeversion="1.2"
       lpesatellites=""
       mode="free"
       discard_orig_path="false"
       fuse_paths="true"
       oposite_fuse="false"
       split_items="false"
       split_open="false"
       link_styles="false" /><inkscape:path-effect
       effect="mirror_symmetry"
       start_point="17.297909,16.234992"
       end_point="17.313303,7.810326"
       center_point="17.305606,12.022659"
       id="path-effect5-3"
       is_visible="true"
       lpeversion="1.2"
       lpesatellites=""
       mode="free"
       discard_orig_path="false"
       fuse_paths="true"
       oposite_fuse="false"
       split_items="false"
       split_open="false"
       link_styles="false" /><inkscape:path-effect
       effect="mirror_symmetry"
       start_point="17.297909,16.234992"
       end_point="17.313303,7.810326"
       center_point="17.305606,12.022659"
       id="path-effect5-66"
       is_visible="true"
       lpeversion="1.2"
       lpesatellites=""
       mode="free"
       discard_orig_path="false"
       fuse_paths="true"
       oposite_fuse="false"
       split_items="false"
       split_open="false"
       link_styles="false" /><inkscape:path-effect
       effect="mirror_symmetry"
       start_point="17.297909,16.234992"
       end_point="17.313303,7.810326"
       center_point="17.305606,12.022659"
       id="path-effect5-4"
       is_visible="true"
       lpeversion="1.2"
       lpesatellites=""
       mode="free"
       discard_orig_path="false"
       fuse_paths="true"
       oposite_fuse="false"
       split_items="false"
       split_open="false"
       link_styles="false" /><inkscape:path-effect
       effect="mirror_symmetry"
       start_point="17.297909,16.234992"
       end_point="17.313303,7.810326"
       center_point="17.305606,12.022659"
       id="path-effect5-4-7"
       is_visible="true"
       lpeversion="1.2"
       lpesatellites=""
       mode="free"
       discard_orig_path="false"
       fuse_paths="true"
       oposite_fuse="false"
       split_items="false"
       split_open="false"
       link_styles="false" /><inkscape:path-effect
       effect="mirror_symmetry"
       start_point="17.297909,16.234992"
       end_point="17.313303,7.810326"
       center_point="17.305606,12.022659"
       id="path-effect5-41"
       is_visible="true"
       lpeversion="1.2"
       lpesatellites=""
       mode="free"
       discard_orig_path="false"
       fuse_paths="true"
       oposite_fuse="false"
       split_items="false"
       split_open="false"
       link_styles="false" /><inkscape:path-effect
       effect="mirror_symmetry"
       start_point="17.297909,16.234992"
       end_point="17.313303,7.810326"
       center_point="17.305606,12.022659"
       id="path-effect5-4-0"
       is_visible="true"
       lpeversion="1.2"
       lpesatellites=""
       mode="free"
       discard_orig_path="false"
       fuse_paths="true"
       oposite_fuse="false"
       split_items="false"
       split_open="false"
       link_styles="false" /><inkscape:path-effect
       effect="mirror_symmetry"
       start_point="17.493844,16.300304"
       end_point="17.509238,7.875638"
       center_point="17.501541,12.087971"
       id="path-effect5-4-0-9"
       is_visible="true"
       lpeversion="1.2"
       lpesatellites=""
       mode="free"
       discard_orig_path="false"
       fuse_paths="true"
       oposite_fuse="false"
       split_items="false"
       split_open="false"
       link_styles="false" /><inkscape:path-effect
       effect="mirror_symmetry"
       start_point="17.297909,16.234992"
       end_point="17.313303,7.810326"
       center_point="17.305606,12.022659"
       id="path-effect5-4-0-0"
       is_visible="true"
       lpeversion="1.2"
       lpesatellites=""
       mode="free"
       discard_orig_path="false"
       fuse_paths="true"
       oposite_fuse="false"
       split_items="false"
       split_open="false"
       link_styles="false" /><inkscape:path-effect
       effect="mirror_symmetry"
       start_point="17.493844,16.300304"
       end_point="17.509238,7.875638"
       center_point="17.501541,12.087971"
       id="path-effect5-4-0-9-7"
       is_visible="true"
       lpeversion="1.2"
       lpesatellites=""
       mode="free"
       discard_orig_path="false"
       fuse_paths="true"
       oposite_fuse="false"
       split_items="false"
       split_open="false"
       link_styles="false" /><inkscape:path-effect
       effect="mirror_symmetry"
       start_point="17.493844,16.300304"
       end_point="17.509238,7.875638"
       center_point="17.501541,12.087971"
       id="path-effect5-4-0-9-3"
       is_visible="true"
       lpeversion="1.2"
       lpesatellites=""
       mode="free"
       discard_orig_path="false"
       fuse_paths="true"
       oposite_fuse="false"
       split_items="false"
       split_open="false"
       link_styles="false" /></defs><g
     inkscape:label="Layer 1"
     inkscape:groupmode="layer"
     id="layer1"><path
       id="path1-3-0-5"
       style="fill:#66ff66;fill-opacity:1;stroke:#000000;stroke-width:0.265"
       d="m 18.908143,24.623953 c -0.795191,0.459104 -2.151367,0.382585 -2.61047,-0.412606 -0.459105,-0.795193 0.152719,-2.007934 0.947908,-2.467037 0.795191,-0.459103 1.811998,-0.18665 2.271101,0.608541 0.459104,0.79519 0.186652,1.811997 -0.608539,2.271102 z"
       sodipodi:nodetypes="zzzzz" /><path
       style="fill:#999999;fill-opacity:1;stroke:none;stroke-width:0.264999;stroke-dasharray:none;stroke-opacity:1"
       d="m 13.41482,24.364218 c -0.153406,-0.249167 -0.222787,-0.583979 -0.04225,-0.674742 1.120836,-0.563468 3.152418,-1.199066 3.85325,-1.872851 -0.213886,-0.568681 -0.312232,-1.099305 -0.50833,-1.525496 -0.244242,-0.530819 -0.665002,-2.047362 -0.286205,-2.369941 0.6629,-0.314148 1.033538,1.277946 1.263849,1.937289 0.384569,0.590014 0.841597,2.212145 1.292476,2.794814 0.342839,0.575214 1.016299,1.782521 1.38905,2.980126 0.116282,0.373607 -0.674784,1.663504 -1.0898,1.495222 -0.411457,-0.166837 -0.09655,-0.848413 0.18474,-1.383144 -0.117955,-0.45407 -0.300773,-0.557194 -0.632309,-1.145971 -0.932937,0.273457 -2.493185,1.720377 -3.539058,2.413141 -0.299492,0.198373 -0.876992,-0.671134 -0.584852,-0.880183 0.420741,-0.301066 0.451062,-0.473322 0.942747,-0.679612 0.283507,-0.414625 0.663352,-0.973636 1.138718,-1.336277 -0.01043,-0.06225 -0.03169,-0.114042 -0.05763,-0.158424 -0.02563,-0.04457 -0.06119,-0.08818 -0.110072,-0.128149 -0.550895,0.232369 -1.222992,0.283053 -1.723678,0.323095 -0.423315,0.324214 -0.587664,0.264463 -1.057982,0.480021 -0.142874,0.06548 -0.313346,-0.07512 -0.432659,-0.268919 z"
       id="path4-6-3-2-6"
       sodipodi:nodetypes="sccscccccsssscccccsss" /><path
       id="path1-7-1-1-4-1"
       style="fill:#ffffff;stroke:#000000;stroke-width:0.265;stroke-dasharray:none"
       d="m 12.111557,25.063943 c 0.299453,0.615387 1.207007,-0.115018 1.385351,-0.220521 0.178342,-0.105506 1.209171,-0.240912 0.774555,-0.982351 -0.52723,-0.899389 -2.42961,0.648617 -2.159903,1.202876 z"
       sodipodi:nodetypes="sszs" /><path
       id="path1-7-1-1-4-5-1"
       style="fill:#ffffff;stroke:#000000;stroke-width:0.265;stroke-dasharray:none"
       d="m 13.466245,27.410331 c -0.383214,-0.567027 0.703111,-0.98779 0.883651,-1.089489 0.180543,-0.101696 0.813222,-0.926716 1.23802,-0.179608 0.515278,0.906288 -1.776525,1.779794 -2.121674,1.269092 z"
       sodipodi:nodetypes="sszs" /><ellipse
       style="fill:#ffffff;fill-opacity:1;stroke:#000000;stroke-width:0.265;stroke-dasharray:none;stroke-opacity:1"
       id="path1-7-2-9-9-1-3-9-9"
       cx="-31.098459"
       cy="11.423285"
       rx="0.65429264"
       ry="0.80279088"
       transform="matrix(-0.82637437,-0.56312112,-0.56312112,0.82637437,0,0)" /><path
       id="path1-3-0-5-8"
       style="fill:#6666ff;fill-opacity:1;stroke:#000000;stroke-width:0.265"
       d="m 10.355255,16.071065 c -0.459103,0.795191 -0.382585,2.151366 0.412606,2.61047 0.795193,0.459105 2.007933,-0.152719 2.467037,-0.947908 0.459103,-0.795191 0.18665,-1.811998 -0.608541,-2.271101 -0.79519,-0.459104 -1.811998,-0.186652 -2.271102,0.608539 z"
       sodipodi:nodetypes="zzzzz" /><path
       style="fill:#999999;fill-opacity:1;stroke:none;stroke-width:0.264999;stroke-dasharray:none;stroke-opacity:1"
       d="m 10.614989,21.564388 c 0.249167,0.153406 0.583979,0.222787 0.674742,0.04225 0.563468,-1.120836 1.199067,-3.152418 1.872851,-3.85325 0.568681,0.213886 1.099305,0.312232 1.525496,0.50833 0.530819,0.244242 2.047363,0.665002 2.369941,0.286205 0.314148,-0.6629 -1.277946,-1.033538 -1.937289,-1.263849 -0.590014,-0.384569 -2.212145,-0.841597 -2.794814,-1.292476 -0.575214,-0.342839 -1.782521,-1.016299 -2.980126,-1.38905 -0.373606,-0.116282 -1.6635029,0.674784 -1.4952219,1.0898 0.166838,0.411457 0.8484139,0.09655 1.3831449,-0.18474 0.45407,0.117955 0.557194,0.300773 1.14597,0.632309 -0.273457,0.932937 -1.720376,2.493185 -2.4131399,3.539058 -0.198373,0.299492 0.6711329,0.876992 0.8801819,0.584852 0.301066,-0.420741 0.473323,-0.451062 0.679613,-0.942747 0.414625,-0.283507 0.973636,-0.663353 1.336276,-1.138718 0.06225,0.01043 0.114042,0.03169 0.158424,0.05763 0.04457,0.02562 0.08818,0.06119 0.128149,0.110072 -0.232369,0.550895 -0.283053,1.222992 -0.323095,1.723678 -0.324213,0.423315 -0.264463,0.587664 -0.48002,1.057982 -0.06548,0.142874 0.07512,0.313346 0.268918,0.432659 z"
       id="path4-6-3-2-6-5"
       sodipodi:nodetypes="sccscccccsssscccccsss" /><ellipse
       style="fill:#ffffff;fill-opacity:1;stroke:#000000;stroke-width:0.265;stroke-dasharray:none;stroke-opacity:1"
       id="path1-7-2-9-9-1-3-5"
       cx="-3.2024131"
       cy="-24.54328"
       rx="0.65429264"
       ry="0.80279088"
       transform="rotate(145.25966)" /><path
       id="path1-7-1-1-4-1-7"
       style="fill:#ffffff;stroke:#000000;stroke-width:0.265;stroke-dasharray:none"
       d="m 9.915265,22.867651 c -0.615387,-0.299453 0.115018,-1.207007 0.220521,-1.385351 0.105506,-0.178343 0.240912,-1.209171 0.982351,-0.774555 0.899389,0.52723 -0.648617,2.42961 -1.202876,2.159903 z"
       sodipodi:nodetypes="sszs" /><path
       id="path1-7-1-1-4-5-1-4"
       style="fill:#ffffff;stroke:#000000;stroke-width:0.265;stroke-dasharray:none"
       d="M 7.5688781,21.512963 C 8.135904,21.896177 8.556667,20.809852 8.658366,20.629312 8.760062,20.448769 9.585083,19.81609 8.837975,19.391292 7.9316861,18.876014 7.0581801,21.167816 7.5688821,21.512966 Z"
       sodipodi:nodetypes="sszs" /><ellipse
       style="fill:#ffffff;fill-opacity:1;stroke:#000000;stroke-width:0.265;stroke-dasharray:none;stroke-opacity:1"
       id="path1-7-2-9-9-1-3-9-9-8"
       cx="17.50499"
       cy="2.2148952"
       rx="0.65429264"
       ry="0.80279088"
       transform="rotate(55.72808)" /><path
       style="fill:#999999;fill-opacity:1;stroke:none;stroke-width:0.264999;stroke-dasharray:none;stroke-opacity:1"
       d="m 16.17026,7.1197574 c 0.252366,-0.07176 0.521853,-0.05452 0.558246,0.121368 0.254175,1.228482 0.847653,3.4761346 0.667741,4.4616236 0.598702,0.542607 1.689626,0.364118 2.411715,1.044632 0.626249,0.590193 0.260321,2.153075 -0.153664,2.535257 -0.206871,0.190977 -0.639942,0.06866 -0.637854,-0.212888 0.0042,-0.571328 0.08579,-1.065433 0.03316,-1.682411 -0.503161,-0.104128 -1.947052,-0.03479 -2.513281,-0.109523 -0.566974,0.157304 -1.626413,1.299226 -1.947396,1.791434 0.109318,0.534172 0.302356,1.245637 0.271523,1.914652 0.04853,0.277339 -0.833029,-0.0576 -0.916234,-0.326559 -0.186693,-0.603477 -0.415701,-1.181586 -0.453642,-1.743901 -0.03439,-0.509636 1.266885,-1.792874 1.511258,-2.563037 -0.65134,-0.761127 -1.271043,-3.0036638 -1.669511,-4.1931996 -0.1141,-0.34063 0.897356,-0.598451 1.02367,-0.262158 0.363836,0.968649 0.916265,2.5949726 1.165352,2.6965166 0.140753,0.05738 0.233963,0.05756 0.297078,0.02959 0.06861,-0.0076 0.151098,-0.05614 0.243864,-0.176553 0.164164,-0.213094 -0.175507,-1.8952436 -0.348469,-2.9154106 -0.03003,-0.177088 0.204087,-0.3377 0.456459,-0.409435 z"
       id="path4-4-5-5-1"
       sodipodi:nodetypes="ssscssccccsscscscssss" /><path
       id="path1-7-1-2-6-5-0"
       style="fill:#ffffff;stroke:#000000;stroke-width:0.265;stroke-dasharray:none"
       d="m 15.504579,7.1225844 c 0.05363,0.200153 0.411179,0.654176 0.759899,0.560737 0.348721,-0.09344 0.466154,-0.68579 0.412523,-0.885943 -0.05363,-0.200155 -0.032,-0.390916 -0.700719,-0.189619 -0.668726,0.201298 -0.525334,0.31467 -0.471703,0.514825 z"
       sodipodi:nodetypes="ssszs" /><path
       id="path1-7-1-9-0-2-6-6"
       style="fill:#ffffff;stroke:#000000;stroke-width:0.265;stroke-dasharray:none"
       d="m 13.113658,7.7857674 c 0.05363,0.200154 0.411179,0.654177 0.759898,0.560738 0.348722,-0.09344 0.466155,-0.685791 0.412524,-0.885944 -0.05363,-0.200153 -0.032,-0.390915 -0.700719,-0.189618 -0.668726,0.201298 -0.525334,0.31467 -0.471703,0.514824 z"
       sodipodi:nodetypes="ssszs" /><path
       id="path1-9-9"
       style="fill:#4d4d4d;fill-opacity:1;stroke:#000000;stroke-width:0.265"
       d="m 18.035777,12.214348 c 0.23765,0.886921 -0.187265,2.177082 -1.074186,2.414732 -0.886921,0.23765 -1.899987,-0.667207 -2.137636,-1.554127 -0.237649,-0.886918 0.288688,-1.798562 1.175607,-2.036211 0.88692,-0.23765 1.798565,0.288687 2.036215,1.175606 z"
       sodipodi:nodetypes="zzzzz" /><ellipse
       style="fill:#ffffff;fill-opacity:1;stroke:#000000;stroke-width:0.265;stroke-dasharray:none;stroke-opacity:1"
       id="path1-7-2-9-9-1-3-9-9-8-5"
       cx="13.070196"
       cy="18.484928"
       rx="0.65429264"
       ry="0.80279088"
       transform="rotate(-4.2719201)" /><path
       style="fill:#999999;fill-opacity:1;stroke:none;stroke-width:0.264999;stroke-dasharray:none;stroke-opacity:1"
       d="m 27.810727,18.775973 c 0.07176,-0.252366 0.05452,-0.521853 -0.121369,-0.558246 -1.228481,-0.254175 -3.476134,-0.847653 -4.461623,-0.667741 -0.542607,-0.598702 -0.364118,-1.689626 -1.044632,-2.411715 -0.590193,-0.626249 -2.153075,-0.260321 -2.535257,0.153664 -0.190977,0.206871 -0.06866,0.639942 0.212887,0.637854 0.571329,-0.0042 1.065434,-0.08579 1.682412,-0.03316 0.104128,0.503161 0.03479,1.947052 0.109523,2.513281 -0.157304,0.566974 -1.299226,1.626413 -1.791434,1.947396 -0.534172,-0.109318 -1.245637,-0.302357 -1.914652,-0.271523 -0.27734,-0.04853 0.0576,0.833029 0.326558,0.916234 0.603478,0.186692 1.181586,0.415701 1.743902,0.453642 0.509636,0.03439 1.792874,-1.266885 2.563037,-1.511258 0.761126,0.65134 3.003664,1.271043 4.193199,1.669511 0.34063,0.114099 0.598451,-0.897356 0.262158,-1.02367 -0.968649,-0.363836 -2.594972,-0.916266 -2.696516,-1.165352 -0.05738,-0.140753 -0.05756,-0.233963 -0.02959,-0.297078 0.0076,-0.06861 0.05614,-0.151098 0.176554,-0.243864 0.213097,-0.164164 1.895246,0.175507 2.915413,0.348469 0.177088,0.03003 0.337701,-0.204087 0.409436,-0.456459 z"
       id="path4-4-5-5-1-3"
       sodipodi:nodetypes="ssscssccccsscscscssss" /><ellipse
       style="fill:#ffffff;fill-opacity:1;stroke:#000000;stroke-width:0.265;stroke-dasharray:none;stroke-opacity:1"
       id="path1-7-2-9-9-1-6-1-2-3"
       cx="-24.520216"
       cy="-3.947993"
       rx="0.65429264"
       ry="0.80279088"
       transform="matrix(-0.67413443,-0.73860867,-0.73860867,0.67413443,0,0)" /><path
       id="path1-7-1-2-6-5-0-1"
       style="fill:#ffffff;stroke:#000000;stroke-width:0.265;stroke-dasharray:none"
       d="m 27.8079,19.441654 c -0.200154,-0.05363 -0.654177,-0.411179 -0.560738,-0.7599 0.09344,-0.34872 0.68579,-0.466153 0.885944,-0.412522 0.200154,0.05363 0.390916,0.032 0.189619,0.700718 -0.201299,0.668727 -0.31467,0.525335 -0.514825,0.471704 z"
       sodipodi:nodetypes="ssszs" /><path
       id="path1-7-1-9-0-2-6-6-8"
       style="fill:#ffffff;stroke:#000000;stroke-width:0.265;stroke-dasharray:none"
       d="m 27.144716,21.832575 c -0.200153,-0.05363 -0.654176,-0.411179 -0.560737,-0.759898 0.09344,-0.348722 0.68579,-0.466155 0.885943,-0.412524 0.200154,0.05363 0.390915,0.032 0.189618,0.700719 -0.201298,0.668726 -0.31467,0.525334 -0.514824,0.471703 z"
       sodipodi:nodetypes="ssszs" /><path
       id="path1-9-9-6"
       style="fill:#ff6666;fill-opacity:1;stroke:#000000;stroke-width:0.265"
       d="m 22.716136,16.910456 c -0.886921,-0.23765 -2.177083,0.187265 -2.414732,1.074186 -0.23765,0.886921 0.667207,1.899987 1.554126,2.137636 0.886919,0.237649 1.798563,-0.288689 2.036212,-1.175607 0.23765,-0.88692 -0.288687,-1.798565 -1.175606,-2.036215 z"
       sodipodi:nodetypes="zzzzz" /><ellipse
       style="fill:#ffffff;fill-opacity:1;stroke:#000000;stroke-width:0.265;stroke-dasharray:none;stroke-opacity:1"
       id="path1-7-2-9-9-1-3-9-9-8-5-4"
       cx="-19.176977"
       cy="-18.951656"
       rx="0.65429264"
       ry="0.80279088"
       transform="matrix(0.07449001,-0.99722176,-0.99722176,-0.07449001,0,0)" /></g></svg>
