<?xml version="1.0" encoding="UTF-8" standalone="no"?>
<!-- Created with Inkscape (http://www.inkscape.org/) -->

<svg
   width="35mm"
   height="35mm"
   viewBox="0 0 35 35"
   version="1.1"
   id="svg1"
   xml:space="preserve"
   inkscape:version="1.4 (e7c3feb100, 2024-10-09)"
   sodipodi:docname="e_alternate.svg"
   xmlns:inkscape="http://www.inkscape.org/namespaces/inkscape"
   xmlns:sodipodi="http://sodipodi.sourceforge.net/DTD/sodipodi-0.dtd"
   xmlns="http://www.w3.org/2000/svg"
   xmlns:svg="http://www.w3.org/2000/svg"><sodipodi:namedview
     id="namedview1"
     pagecolor="#ffffff"
     bordercolor="#000000"
     borderopacity="0.25"
     inkscape:showpageshadow="2"
     inkscape:pageopacity="0.0"
     inkscape:pagecheckerboard="0"
     inkscape:deskcolor="#d1d1d1"
     inkscape:document-units="mm"
     inkscape:zoom="4.2968333"
     inkscape:cx="69.935223"
     inkscape:cy="56.786005"
     inkscape:window-width="1916"
     inkscape:window-height="1023"
     inkscape:window-x="0"
     inkscape:window-y="0"
     inkscape:window-maximized="0"
     inkscape:current-layer="layer1" /><defs
     id="defs1"><inkscape:path-effect
       effect="mirror_symmetry"
       start_point="17.297909,16.234992"
       end_point="17.313303,7.810326"
       center_point="17.305606,12.022659"
       id="path-effect5"
       is_visible="true"
       lpeversion="1.2"
       lpesatellites=""
       mode="free"
       discard_orig_path="false"
       fuse_paths="true"
       oposite_fuse="false"
       split_items="false"
       split_open="false"
       link_styles="false" /><inkscape:path-effect
       effect="mirror_symmetry"
       start_point="17.297909,16.234992"
       end_point="17.313303,7.810326"
       center_point="17.305606,12.022659"
       id="path-effect5-7"
       is_visible="true"
       lpeversion="1.2"
       lpesatellites=""
       mode="free"
       discard_orig_path="false"
       fuse_paths="true"
       oposite_fuse="false"
       split_items="false"
       split_open="false"
       link_styles="false" /><inkscape:path-effect
       effect="mirror_symmetry"
       start_point="17.297909,16.234992"
       end_point="17.313303,7.810326"
       center_point="17.305606,12.022659"
       id="path-effect5-6"
       is_visible="true"
       lpeversion="1.2"
       lpesatellites=""
       mode="free"
       discard_orig_path="false"
       fuse_paths="true"
       oposite_fuse="false"
       split_items="false"
       split_open="false"
       link_styles="false" /><inkscape:path-effect
       effect="mirror_symmetry"
       start_point="17.297909,16.234992"
       end_point="17.313303,7.810326"
       center_point="17.305606,12.022659"
       id="path-effect5-3"
       is_visible="true"
       lpeversion="1.2"
       lpesatellites=""
       mode="free"
       discard_orig_path="false"
       fuse_paths="true"
       oposite_fuse="false"
       split_items="false"
       split_open="false"
       link_styles="false" /><inkscape:path-effect
       effect="mirror_symmetry"
       start_point="17.297909,16.234992"
       end_point="17.313303,7.810326"
       center_point="17.305606,12.022659"
       id="path-effect5-66"
       is_visible="true"
       lpeversion="1.2"
       lpesatellites=""
       mode="free"
       discard_orig_path="false"
       fuse_paths="true"
       oposite_fuse="false"
       split_items="false"
       split_open="false"
       link_styles="false" /><inkscape:path-effect
       effect="mirror_symmetry"
       start_point="17.297909,16.234992"
       end_point="17.313303,7.810326"
       center_point="17.305606,12.022659"
       id="path-effect5-4"
       is_visible="true"
       lpeversion="1.2"
       lpesatellites=""
       mode="free"
       discard_orig_path="false"
       fuse_paths="true"
       oposite_fuse="false"
       split_items="false"
       split_open="false"
       link_styles="false" /><inkscape:path-effect
       effect="mirror_symmetry"
       start_point="17.297909,16.234992"
       end_point="17.313303,7.810326"
       center_point="17.305606,12.022659"
       id="path-effect5-4-7"
       is_visible="true"
       lpeversion="1.2"
       lpesatellites=""
       mode="free"
       discard_orig_path="false"
       fuse_paths="true"
       oposite_fuse="false"
       split_items="false"
       split_open="false"
       link_styles="false" /><inkscape:path-effect
       effect="mirror_symmetry"
       start_point="17.297909,16.234992"
       end_point="17.313303,7.810326"
       center_point="17.305606,12.022659"
       id="path-effect5-41"
       is_visible="true"
       lpeversion="1.2"
       lpesatellites=""
       mode="free"
       discard_orig_path="false"
       fuse_paths="true"
       oposite_fuse="false"
       split_items="false"
       split_open="false"
       link_styles="false" /></defs><g
     inkscape:label="Layer 1"
     inkscape:groupmode="layer"
     id="layer1"><path
       style="fill:#999999;fill-opacity:1;stroke:none;stroke-width:0.264999;stroke-dasharray:none;stroke-opacity:1"
       d="m 16.29914,7.1786679 c -0.262339,-0.00397 -0.518182,0.082402 -0.507812,0.2617188 0.07244,1.2524069 0.08092,3.5770763 0.509765,4.4824213 -0.437864,0.679074 -1.648212,0.371378 -2.169566,1.215594 -0.452157,0.732168 -0.482573,2.277069 -0.245026,3.453443 0.05573,0.275974 0.981076,0.229365 1.006996,-0.05099 0.10928,-1.18211 0.2516,-2.765058 0.2516,-2.765058 0.891495,-0.529723 1.923285,-0.294767 2.394281,-0.519001 0.470175,0.225954 1.098622,1.22341 1.649506,1.7256 0,0 -0.969549,1.122686 -1.757447,1.843365 0.0249,0.280451 0.646549,0.89087 0.853054,0.699498 0.703664,-0.652099 2.155826,-1.42457 2.198959,-2.435479 0.0423,-0.991324 -1.266505,-2.48044 -1.701884,-3.161109 0.432152,-0.903772 0.450328,-3.2302881 0.527344,-4.482422 0.02205,-0.3585544 -1.02167,-0.3458071 -1.056641,0.011719 -0.100734,1.0298108 -0.213416,2.743698 -0.427734,2.90625 -0.121107,0.09185 -0.211094,0.116149 -0.279297,0.105468 -0.06824,0.01043 -0.16048,-0.01512 -0.28125,-0.107421 C 17.050261,10.198928 16.942985,8.4861836 16.846015,7.4560117 16.829185,7.2771861 16.561479,7.1826389 16.29914,7.1786679 Z"
       id="path4-6"
       sodipodi:nodetypes="ssscssscccsscscscsss" /><path
       id="path1-3"
       style="fill:#4d4d4d;fill-opacity:1;stroke:#000000;stroke-width:0.265"
       d="m 19.199423,12.631899 c 0,0.918208 -0.744354,2.054432 -1.662562,2.054432 -0.918208,0 -1.662561,-1.136225 -1.662561,-2.054432 0,-0.918207 0.744355,-1.662561 1.662561,-1.662561 0.918207,0 1.662562,0.744353 1.662562,1.662561 z"
       sodipodi:nodetypes="zzzzz" /><path
       id="path1-7-1-1"
       style="fill:#ffffff;stroke:#000000;stroke-width:0.265;stroke-dasharray:none"
       d="m 16.902667,7.0308779 c 0,0.207214 -0.227855,0.738307 -0.588877,0.738307 -0.361023,0 -0.627766,-0.541773 -0.627766,-0.748987 0,-0.207214 -0.07027,-0.385876 0.627766,-0.364516 0.69804,0.02136 0.588877,0.167981 0.588877,0.375196 z"
       sodipodi:nodetypes="ssszs" /><path
       id="path1-7-1-9-7"
       style="fill:#ffffff;stroke:#000000;stroke-width:0.265;stroke-dasharray:none"
       d="m 19.383764,7.0526479 c 0,0.207214 -0.227855,0.738307 -0.588877,0.738307 -0.361023,0 -0.627766,-0.541773 -0.627766,-0.748987 0,-0.207213 -0.07027,-0.385875 0.627766,-0.364515 0.69804,0.02136 0.588877,0.167981 0.588877,0.375195 z"
       sodipodi:nodetypes="ssszs" /><path
       style="fill:#999999;fill-opacity:1;stroke:none;stroke-width:0.264999;stroke-dasharray:none;stroke-opacity:1"
       d="m 5.348075,18.894929 c -0.004,0.262339 0.0824,0.518183 0.261718,0.507812 1.252407,-0.07244 3.577077,-0.08092 4.482421,-0.509765 0.679074,0.437864 -0.168884,1.45073 0.675332,1.972084 0.732168,0.452157 2.081775,-0.349349 2.343787,-0.848142 0.130928,-0.249249 -0.472671,-1.037875 -0.653739,-0.822266 -0.420141,0.500289 -0.462663,0.467469 -0.985156,0.706945 -0.230808,-0.459065 0.137344,-1.719308 -0.08139,-2.246902 0.0052,-0.588368 0.293482,-1.789069 0.508583,-2.636413 0.752311,0.07652 1.536185,0.524811 2.143635,0.603028 0.280451,-0.0249 0.461784,-0.912559 0.205346,-1.028765 -1.110186,-0.503087 -2.64536,-1.280918 -3.285702,-0.600162 -0.678492,0.721315 -0.184154,1.984745 -0.864826,2.420124 -0.903771,-0.432152 -3.2302871,-0.450328 -4.482421,-0.527344 -0.358555,-0.02205 -0.3458071,1.02167 0.01172,1.056641 1.0298109,0.100734 2.743698,0.213416 2.90625,0.427734 0.09185,0.121107 0.116149,0.211094 0.105468,0.279297 0.01043,0.06824 -0.01512,0.16048 -0.107421,0.28125 C 8.368336,18.143808 6.655591,18.251084 5.6254189,18.348054 5.446594,18.364884 5.352047,18.63259 5.348075,18.894929 Z"
       id="path4-4-5"
       sodipodi:nodetypes="ssscssccccsscscscsss" /><ellipse
       style="fill:#ffffff;fill-opacity:1;stroke:#000000;stroke-width:0.265;stroke-dasharray:none;stroke-opacity:1"
       id="path1-7-2-9-9"
       cx="-14.315586"
       cy="-17.039236"
       rx="0.65429264"
       ry="0.80279088"
       transform="scale(-1)" /><path
       id="path1-9-9"
       style="fill:#6666ff;fill-opacity:1;stroke:#000000;stroke-width:0.265"
       d="m 10.801306,15.932019 c 0.918208,0 2.054432,0.744354 2.054432,1.662562 0,0.918208 -1.136225,1.662561 -2.054432,1.662561 -0.918206,0 -1.66256,-0.744354 -1.66256,-1.662561 0,-0.918207 0.744353,-1.662562 1.66256,-1.662562 z"
       sodipodi:nodetypes="zzzzz" /><path
       id="path1-7-1-2-6"
       style="fill:#ffffff;stroke:#000000;stroke-width:0.265;stroke-dasharray:none"
       d="m 5.178515,18.251198 c 0.207214,0 0.738307,0.227855 0.738307,0.588877 0,0.361023 -0.541773,0.627766 -0.748987,0.627766 -0.207215,0 -0.385877,0.07027 -0.364517,-0.627766 0.02136,-0.69804 0.167981,-0.588877 0.375197,-0.588877 z"
       sodipodi:nodetypes="ssszs" /><path
       id="path1-7-1-9-0-2"
       style="fill:#ffffff;stroke:#000000;stroke-width:0.265;stroke-dasharray:none"
       d="m 5.200285,15.770101 c 0.207214,0 0.738307,0.227855 0.738307,0.588877 0,0.361023 -0.541773,0.627766 -0.748987,0.627766 -0.207214,0 -0.385876,0.07027 -0.364516,-0.627766 0.02136,-0.69804 0.167981,-0.588877 0.375196,-0.588877 z"
       sodipodi:nodetypes="ssszs" /><ellipse
       style="fill:#ffffff;fill-opacity:1;stroke:#000000;stroke-width:0.265;stroke-dasharray:none;stroke-opacity:1"
       id="path1-7-2-9-9-1-6-1"
       cx="-23.127981"
       cy="-3.4414802"
       rx="0.65429264"
       ry="0.80279088"
       transform="rotate(-132.38759)" /><ellipse
       style="fill:#ffffff;fill-opacity:1;stroke:#000000;stroke-width:0.265;stroke-dasharray:none;stroke-opacity:1"
       id="path1-7-2-9-9-8-7"
       cx="-9.3618202"
       cy="18.640654"
       rx="0.65429264"
       ry="0.80279088"
       transform="rotate(-69.86143)" /><path
       style="fill:#999999;fill-opacity:1;stroke:none;stroke-width:0.264999;stroke-dasharray:none;stroke-opacity:1"
       d="m 18.700861,27.821331 c 0.262339,0.004 0.518182,-0.0824 0.507812,-0.261719 -0.07244,-1.252406 -0.08092,-3.577076 -0.509765,-4.482421 0.437864,-0.679074 1.648212,-0.371378 2.169566,-1.215594 0.452157,-0.732168 0.482573,-2.277069 0.245026,-3.453443 -0.05573,-0.275974 -0.981076,-0.229365 -1.006996,0.05099 -0.10928,1.18211 -0.2516,2.765058 -0.2516,2.765058 -0.891495,0.529723 -1.923285,0.294767 -2.394281,0.519001 -0.470175,-0.225954 -1.098622,-1.22341 -1.649506,-1.7256 0,0 0.969549,-1.122686 1.757447,-1.843365 -0.0249,-0.280451 -0.646549,-0.89087 -0.853054,-0.699498 -0.703664,0.652099 -2.155826,1.42457 -2.198959,2.435479 -0.0423,0.991324 1.266505,2.48044 1.701884,3.161109 -0.432152,0.903772 -0.450328,3.230288 -0.527344,4.482422 -0.02205,0.358555 1.02167,0.345807 1.056641,-0.01172 0.100734,-1.029811 0.213416,-2.743698 0.427734,-2.90625 0.121107,-0.09185 0.211094,-0.116149 0.279297,-0.105468 0.06824,-0.01043 0.16048,0.01512 0.28125,0.107421 0.213727,0.163337 0.321003,1.876082 0.417973,2.906253 0.01683,0.178826 0.284536,0.273373 0.546875,0.277345 z"
       id="path4-6-3"
       sodipodi:nodetypes="ssscssscccsscscscsss" /><path
       id="path1-3-3"
       style="fill:#66ff66;fill-opacity:1;stroke:#000000;stroke-width:0.265"
       d="m 15.800578,22.368101 c 0,-0.918208 0.744354,-2.054432 1.662562,-2.054432 0.918208,0 1.662561,1.136225 1.662561,2.054432 0,0.918207 -0.744355,1.662561 -1.662561,1.662561 -0.918207,0 -1.662562,-0.744353 -1.662562,-1.662561 z"
       sodipodi:nodetypes="zzzzz" /><path
       id="path1-7-1-1-0"
       style="fill:#ffffff;stroke:#000000;stroke-width:0.265;stroke-dasharray:none"
       d="m 18.097334,27.969122 c 0,-0.207214 0.227855,-0.738307 0.588877,-0.738307 0.361023,0 0.627766,0.541773 0.627766,0.748987 0,0.207214 0.07027,0.385876 -0.627766,0.364516 -0.69804,-0.02136 -0.588877,-0.167981 -0.588877,-0.375196 z"
       sodipodi:nodetypes="ssszs" /><path
       id="path1-7-1-9-7-9"
       style="fill:#ffffff;stroke:#000000;stroke-width:0.265;stroke-dasharray:none"
       d="m 15.616237,27.947352 c 0,-0.207214 0.227855,-0.738307 0.588877,-0.738307 0.361023,0 0.627766,0.541773 0.627766,0.748987 0,0.207213 0.07027,0.385875 -0.627766,0.364515 -0.69804,-0.02136 -0.588877,-0.167981 -0.588877,-0.375195 z"
       sodipodi:nodetypes="ssszs" /><path
       style="fill:#999999;fill-opacity:1;stroke:none;stroke-width:0.264999;stroke-dasharray:none;stroke-opacity:1"
       d="m 29.651925,16.105071 c 0.004,-0.262339 -0.0824,-0.518183 -0.261718,-0.507812 -1.252407,0.07244 -3.577077,0.08092 -4.48242,0.509765 -0.679074,-0.437864 0.168883,-1.45073 -0.675332,-1.972084 -0.732168,-0.452157 -2.081775,0.349349 -2.343787,0.848142 -0.130928,0.249249 0.472671,1.037875 0.653739,0.822266 0.420141,-0.500289 0.462663,-0.467469 0.985156,-0.706945 0.230808,0.459065 -0.137344,1.719308 0.08139,2.246902 -0.0052,0.588368 -0.293482,1.789069 -0.508583,2.636413 -0.752311,-0.07652 -1.536185,-0.524811 -2.143635,-0.603028 -0.280451,0.0249 -0.461784,0.912559 -0.205346,1.028765 1.110186,0.503087 2.64536,1.280918 3.285702,0.600162 0.678492,-0.721315 0.184154,-1.984745 0.864826,-2.420124 0.90377,0.432152 3.230286,0.450328 4.48242,0.527344 0.358555,0.02205 0.345807,-1.02167 -0.01172,-1.056641 -1.029811,-0.100734 -2.743698,-0.213416 -2.90625,-0.427734 -0.09185,-0.121107 -0.116149,-0.211094 -0.105468,-0.279297 -0.01043,-0.06824 0.01512,-0.16048 0.107421,-0.28125 0.163344,-0.213723 1.876089,-0.320999 2.906261,-0.417969 0.178825,-0.01683 0.273372,-0.284536 0.277344,-0.546875 z"
       id="path4-4-5-2"
       sodipodi:nodetypes="ssscssccccsscscscsss" /><ellipse
       style="fill:#ffffff;fill-opacity:1;stroke:#000000;stroke-width:0.265;stroke-dasharray:none;stroke-opacity:1"
       id="path1-7-2-9-9-5"
       cx="20.684412"
       cy="17.960764"
       rx="0.65429264"
       ry="0.80279088" /><path
       id="path1-9-9-4"
       style="fill:#ff6666;fill-opacity:1;stroke:#000000;stroke-width:0.265"
       d="m 24.198695,19.067981 c -0.918208,0 -2.054432,-0.744354 -2.054432,-1.662562 0,-0.918208 1.136225,-1.662561 2.054432,-1.662561 0.918205,0 1.662559,0.744354 1.662559,1.662561 0,0.918207 -0.744353,1.662562 -1.662559,1.662562 z"
       sodipodi:nodetypes="zzzzz" /><path
       id="path1-7-1-2-6-0"
       style="fill:#ffffff;stroke:#000000;stroke-width:0.265;stroke-dasharray:none"
       d="m 29.821485,16.748802 c -0.207214,0 -0.738307,-0.227855 -0.738307,-0.588877 0,-0.361023 0.541773,-0.627766 0.748987,-0.627766 0.207215,0 0.385877,-0.07027 0.364517,0.627766 -0.02136,0.69804 -0.167981,0.588877 -0.375197,0.588877 z"
       sodipodi:nodetypes="ssszs" /><path
       id="path1-7-1-9-0-2-5"
       style="fill:#ffffff;stroke:#000000;stroke-width:0.265;stroke-dasharray:none"
       d="m 29.799715,19.229899 c -0.207214,0 -0.738307,-0.227855 -0.738307,-0.588877 0,-0.361023 0.541773,-0.627766 0.748987,-0.627766 0.207214,0 0.385876,-0.07027 0.364516,0.627766 -0.02136,0.69804 -0.167981,0.588877 -0.375196,0.588877 z"
       sodipodi:nodetypes="ssszs" /><ellipse
       style="fill:#ffffff;fill-opacity:1;stroke:#000000;stroke-width:0.265;stroke-dasharray:none;stroke-opacity:1"
       id="path1-7-2-9-9-1-6-1-9"
       cx="26.318052"
       cy="-5.6975446"
       rx="0.65429264"
       ry="0.80279088"
       transform="rotate(47.61241)" /><ellipse
       style="fill:#ffffff;fill-opacity:1;stroke:#000000;stroke-width:0.265;stroke-dasharray:none;stroke-opacity:1"
       id="path1-7-2-9-9-8-7-4"
       cx="11.448158"
       cy="-26.269754"
       rx="0.65429264"
       ry="0.80279088"
       transform="rotate(110.13857)" /><ellipse
       style="fill:#ffffff;fill-opacity:1;stroke:#000000;stroke-width:0.265;stroke-dasharray:none;stroke-opacity:1"
       id="path1-7-2-9-9-1"
       cx="-23.904945"
       cy="6.4051313"
       rx="0.65429264"
       ry="0.80279088"
       transform="rotate(-120)" /></g></svg>
