<?xml version="1.0" encoding="UTF-8" standalone="no"?>
<!-- Created with Inkscape (http://www.inkscape.org/) -->

<svg
   width="35mm"
   height="35mm"
   viewBox="0 0 35 35"
   version="1.1"
   id="svg1"
   xml:space="preserve"
   inkscape:version="1.4 (e7c3feb100, 2024-10-09)"
   sodipodi:docname="f_v2.svg"
   xmlns:inkscape="http://www.inkscape.org/namespaces/inkscape"
   xmlns:sodipodi="http://sodipodi.sourceforge.net/DTD/sodipodi-0.dtd"
   xmlns="http://www.w3.org/2000/svg"
   xmlns:svg="http://www.w3.org/2000/svg"><sodipodi:namedview
     id="namedview1"
     pagecolor="#ffffff"
     bordercolor="#000000"
     borderopacity="0.25"
     inkscape:showpageshadow="2"
     inkscape:pageopacity="0.0"
     inkscape:pagecheckerboard="0"
     inkscape:deskcolor="#d1d1d1"
     inkscape:document-units="mm"
     inkscape:zoom="17.187333"
     inkscape:cx="70.837051"
     inkscape:cy="69.062489"
     inkscape:window-width="1290"
     inkscape:window-height="1023"
     inkscape:window-x="0"
     inkscape:window-y="0"
     inkscape:window-maximized="0"
     inkscape:current-layer="layer1"><sodipodi:guide
       position="0.17416423,17.540036"
       orientation="0,132.28346"
       id="guide5"
       inkscape:locked="false" /><sodipodi:guide
       position="35.000001,35.000001"
       orientation="132.28346,0"
       id="guide6"
       inkscape:locked="false" /><sodipodi:guide
       position="35.000001,0"
       orientation="0,-132.28346"
       id="guide7"
       inkscape:locked="false" /><sodipodi:guide
       position="17.503506,35.914363"
       orientation="-132.28346,0"
       id="guide8"
       inkscape:locked="false" /></sodipodi:namedview><defs
     id="defs1"><inkscape:path-effect
       effect="mirror_symmetry"
       start_point="17.297909,16.234992"
       end_point="17.313303,7.810326"
       center_point="17.305606,12.022659"
       id="path-effect5"
       is_visible="true"
       lpeversion="1.2"
       lpesatellites=""
       mode="free"
       discard_orig_path="false"
       fuse_paths="true"
       oposite_fuse="false"
       split_items="false"
       split_open="false"
       link_styles="false" /><inkscape:path-effect
       effect="mirror_symmetry"
       start_point="17.297909,16.234992"
       end_point="17.313303,7.810326"
       center_point="17.305606,12.022659"
       id="path-effect5-7"
       is_visible="true"
       lpeversion="1.2"
       lpesatellites=""
       mode="free"
       discard_orig_path="false"
       fuse_paths="true"
       oposite_fuse="false"
       split_items="false"
       split_open="false"
       link_styles="false" /><inkscape:path-effect
       effect="mirror_symmetry"
       start_point="17.297909,16.234992"
       end_point="17.313303,7.810326"
       center_point="17.305606,12.022659"
       id="path-effect5-6"
       is_visible="true"
       lpeversion="1.2"
       lpesatellites=""
       mode="free"
       discard_orig_path="false"
       fuse_paths="true"
       oposite_fuse="false"
       split_items="false"
       split_open="false"
       link_styles="false" /><inkscape:path-effect
       effect="mirror_symmetry"
       start_point="17.297909,16.234992"
       end_point="17.313303,7.810326"
       center_point="17.305606,12.022659"
       id="path-effect5-3"
       is_visible="true"
       lpeversion="1.2"
       lpesatellites=""
       mode="free"
       discard_orig_path="false"
       fuse_paths="true"
       oposite_fuse="false"
       split_items="false"
       split_open="false"
       link_styles="false" /><inkscape:path-effect
       effect="mirror_symmetry"
       start_point="17.297909,16.234992"
       end_point="17.313303,7.810326"
       center_point="17.305606,12.022659"
       id="path-effect5-66"
       is_visible="true"
       lpeversion="1.2"
       lpesatellites=""
       mode="free"
       discard_orig_path="false"
       fuse_paths="true"
       oposite_fuse="false"
       split_items="false"
       split_open="false"
       link_styles="false" /><inkscape:path-effect
       effect="mirror_symmetry"
       start_point="17.297909,16.234992"
       end_point="17.313303,7.810326"
       center_point="17.305606,12.022659"
       id="path-effect5-4"
       is_visible="true"
       lpeversion="1.2"
       lpesatellites=""
       mode="free"
       discard_orig_path="false"
       fuse_paths="true"
       oposite_fuse="false"
       split_items="false"
       split_open="false"
       link_styles="false" /><inkscape:path-effect
       effect="mirror_symmetry"
       start_point="17.297909,16.234992"
       end_point="17.313303,7.810326"
       center_point="17.305606,12.022659"
       id="path-effect5-4-7"
       is_visible="true"
       lpeversion="1.2"
       lpesatellites=""
       mode="free"
       discard_orig_path="false"
       fuse_paths="true"
       oposite_fuse="false"
       split_items="false"
       split_open="false"
       link_styles="false" /><inkscape:path-effect
       effect="mirror_symmetry"
       start_point="17.297909,16.234992"
       end_point="17.313303,7.810326"
       center_point="17.305606,12.022659"
       id="path-effect5-41"
       is_visible="true"
       lpeversion="1.2"
       lpesatellites=""
       mode="free"
       discard_orig_path="false"
       fuse_paths="true"
       oposite_fuse="false"
       split_items="false"
       split_open="false"
       link_styles="false" /><inkscape:path-effect
       effect="mirror_symmetry"
       start_point="17.297909,16.234992"
       end_point="17.313303,7.810326"
       center_point="17.305606,12.022659"
       id="path-effect5-4-0"
       is_visible="true"
       lpeversion="1.2"
       lpesatellites=""
       mode="free"
       discard_orig_path="false"
       fuse_paths="true"
       oposite_fuse="false"
       split_items="false"
       split_open="false"
       link_styles="false" /><inkscape:path-effect
       effect="mirror_symmetry"
       start_point="17.493844,16.300304"
       end_point="17.509238,7.875638"
       center_point="17.501541,12.087971"
       id="path-effect5-4-0-9"
       is_visible="true"
       lpeversion="1.2"
       lpesatellites=""
       mode="free"
       discard_orig_path="false"
       fuse_paths="true"
       oposite_fuse="false"
       split_items="false"
       split_open="false"
       link_styles="false" /><inkscape:path-effect
       effect="mirror_symmetry"
       start_point="17.297909,16.234992"
       end_point="17.313303,7.810326"
       center_point="17.305606,12.022659"
       id="path-effect5-4-0-0"
       is_visible="true"
       lpeversion="1.2"
       lpesatellites=""
       mode="free"
       discard_orig_path="false"
       fuse_paths="true"
       oposite_fuse="false"
       split_items="false"
       split_open="false"
       link_styles="false" /><inkscape:path-effect
       effect="mirror_symmetry"
       start_point="17.493844,16.300304"
       end_point="17.509238,7.875638"
       center_point="17.501541,12.087971"
       id="path-effect5-4-0-9-7"
       is_visible="true"
       lpeversion="1.2"
       lpesatellites=""
       mode="free"
       discard_orig_path="false"
       fuse_paths="true"
       oposite_fuse="false"
       split_items="false"
       split_open="false"
       link_styles="false" /><inkscape:path-effect
       effect="mirror_symmetry"
       start_point="17.493844,16.300304"
       end_point="17.509238,7.875638"
       center_point="17.501541,12.087971"
       id="path-effect5-4-0-9-3"
       is_visible="true"
       lpeversion="1.2"
       lpesatellites=""
       mode="free"
       discard_orig_path="false"
       fuse_paths="true"
       oposite_fuse="false"
       split_items="false"
       split_open="false"
       link_styles="false" /></defs><g
     inkscape:label="Layer 1"
     inkscape:groupmode="layer"
     id="layer1"><path
       id="path1-3-0-5"
       style="fill:#66ff66;fill-opacity:1;stroke:#000000;stroke-width:0.265"
       d="m 18.908143,24.619504 c -0.795191,0.459103 -2.151367,0.382584 -2.61047,-0.412606 -0.459105,-0.795193 0.152719,-2.007934 0.947908,-2.467037 0.795191,-0.459103 1.811998,-0.18665 2.271101,0.608541 0.459104,0.79519 0.186652,1.811997 -0.608539,2.271102 z"
       sodipodi:nodetypes="zzzzz" /><path
       style="fill:#999999;fill-opacity:1;stroke:none;stroke-width:0.264999;stroke-dasharray:none;stroke-opacity:1"
       d="m 13.41482,24.359769 c -0.153406,-0.249167 -0.222787,-0.583979 -0.04225,-0.674742 1.120836,-0.563468 3.152418,-1.199066 3.85325,-1.872851 -0.213886,-0.568681 -0.312232,-1.099305 -0.50833,-1.525496 -0.244242,-0.530819 -0.665002,-2.047362 -0.286205,-2.369941 0.6629,-0.314148 1.033538,1.277946 1.263849,1.937289 0.384569,0.590014 0.841597,2.212145 1.292476,2.794814 0.342839,0.575214 1.016299,1.782521 1.38905,2.980126 0.116282,0.373606 -0.674784,1.663503 -1.0898,1.495222 -0.411457,-0.166838 -0.09655,-0.848414 0.18474,-1.383145 -0.117955,-0.45407 -0.300773,-0.557194 -0.632309,-1.14597 -0.932937,0.273457 -2.493185,1.720376 -3.539058,2.41314 -0.299492,0.198373 -0.876992,-0.671133 -0.584852,-0.880182 0.420741,-0.301066 0.451062,-0.473323 0.942747,-0.679613 0.283507,-0.414625 0.663352,-0.973635 1.138718,-1.336276 -0.01043,-0.06225 -0.03169,-0.114042 -0.05763,-0.158424 -0.02563,-0.04457 -0.06119,-0.08818 -0.110072,-0.128149 -0.550895,0.232369 -1.222992,0.283053 -1.723678,0.323095 -0.423315,0.324214 -0.587664,0.264463 -1.057982,0.480021 -0.142874,0.06548 -0.313346,-0.07512 -0.432659,-0.268919 z"
       id="path4-6-3-2-6"
       sodipodi:nodetypes="sccscccccsssscccccsss" /><path
       id="path1-7-1-1-4-1"
       style="fill:#ffffff;stroke:#000000;stroke-width:0.265;stroke-dasharray:none"
       d="m 12.111557,25.059493 c 0.299453,0.615387 1.207007,-0.115017 1.385351,-0.22052 0.178342,-0.105506 1.209171,-0.240912 0.774555,-0.982351 -0.52723,-0.899389 -2.42961,0.648617 -2.159903,1.202875 z"
       sodipodi:nodetypes="sszs" /><path
       id="path1-7-1-1-4-5-1"
       style="fill:#ffffff;stroke:#000000;stroke-width:0.265;stroke-dasharray:none"
       d="m 13.466245,27.405881 c -0.383214,-0.567027 0.703111,-0.98779 0.883651,-1.089489 0.180543,-0.101695 0.813222,-0.926716 1.23802,-0.179608 0.515278,0.906288 -1.776525,1.779795 -2.121674,1.269093 z"
       sodipodi:nodetypes="sszs" /><ellipse
       style="fill:#ffffff;fill-opacity:1;stroke:#000000;stroke-width:0.265;stroke-dasharray:none;stroke-opacity:1"
       id="path1-7-2-9-9-1-3-9-9"
       cx="-31.095953"
       cy="11.419609"
       rx="0.65429264"
       ry="0.80279088"
       transform="matrix(-0.82637437,-0.56312112,-0.56312112,0.82637437,0,0)" /><path
       id="path1-3-0-5-8"
       style="fill:#6666ff;fill-opacity:1;stroke:#000000;stroke-width:0.265"
       d="m 10.355255,16.066616 c -0.4591032,0.795191 -0.3825852,2.151366 0.412606,2.61047 0.795193,0.459105 2.007933,-0.152719 2.467037,-0.947908 0.459103,-0.795191 0.18665,-1.811998 -0.608541,-2.271101 -0.79519,-0.459104 -1.811998,-0.186652 -2.271102,0.608539 z"
       sodipodi:nodetypes="zzzzz" /><path
       style="fill:#999999;fill-opacity:1;stroke:none;stroke-width:0.264999;stroke-dasharray:none;stroke-opacity:1"
       d="m 10.614989,21.559939 c 0.249167,0.153406 0.583979,0.222787 0.674742,0.04225 0.563468,-1.120836 1.199067,-3.152418 1.872851,-3.85325 0.568681,0.213886 1.099305,0.312232 1.525496,0.50833 0.530819,0.244242 2.047363,0.665002 2.369941,0.286205 0.314148,-0.6629 -1.277946,-1.033538 -1.937289,-1.263849 -0.590014,-0.384569 -2.212145,-0.841597 -2.794814,-1.292476 -0.575214,-0.342839 -1.782521,-1.016299 -2.9801264,-1.38905 -0.373606,-0.116282 -1.6635031,0.674784 -1.4952221,1.0898 0.166838,0.411457 0.8484141,0.09655 1.3831451,-0.18474 0.45407,0.117955 0.557194,0.300773 1.1459704,0.632309 -0.273457,0.932937 -1.7203764,2.493185 -2.4131405,3.539058 -0.198373,0.299492 0.6711331,0.876992 0.8801821,0.584852 0.301066,-0.420741 0.473323,-0.451062 0.679613,-0.942747 0.4146252,-0.283507 0.9736364,-0.663353 1.3362764,-1.138718 0.06225,0.01043 0.114042,0.03169 0.158424,0.05763 0.04457,0.02562 0.08818,0.06119 0.128149,0.110072 -0.232369,0.550895 -0.283053,1.222992 -0.323095,1.723678 -0.324213,0.423315 -0.264463,0.587664 -0.48002,1.057982 -0.06548,0.142874 0.07512,0.313346 0.268918,0.432659 z"
       id="path4-6-3-2-6-5"
       sodipodi:nodetypes="sccscccccsssscccccsss" /><ellipse
       style="fill:#ffffff;fill-opacity:1;stroke:#000000;stroke-width:0.265;stroke-dasharray:none;stroke-opacity:1"
       id="path1-7-2-9-9-1-3-5"
       cx="-3.2049482"
       cy="-24.539623"
       rx="0.65429264"
       ry="0.80279088"
       transform="rotate(145.25966)" /><path
       id="path1-7-1-1-4-1-7"
       style="fill:#ffffff;stroke:#000000;stroke-width:0.265;stroke-dasharray:none"
       d="m 9.9152648,22.863202 c -0.6153872,-0.299453 0.1150182,-1.207007 0.2205212,-1.385351 0.105506,-0.178343 0.240912,-1.209171 0.982351,-0.774555 0.899389,0.52723 -0.648617,2.42961 -1.2028762,2.159903 z"
       sodipodi:nodetypes="sszs" /><path
       id="path1-7-1-1-4-5-1-4"
       style="fill:#ffffff;stroke:#000000;stroke-width:0.265;stroke-dasharray:none"
       d="m 7.5688775,21.508514 c 0.5670261,0.383214 0.9877891,-0.703111 1.0894881,-0.883651 0.101696,-0.180543 0.926717,-0.813222 0.179609,-1.23802 -0.9062891,-0.515278 -1.7797951,1.776524 -1.2690931,2.121674 z"
       sodipodi:nodetypes="sszs" /><ellipse
       style="fill:#ffffff;fill-opacity:1;stroke:#000000;stroke-width:0.265;stroke-dasharray:none;stroke-opacity:1"
       id="path1-7-2-9-9-1-3-9-9-8"
       cx="17.501314"
       cy="2.2123907"
       rx="0.65429264"
       ry="0.80279088"
       transform="rotate(55.72808)" /><path
       style="fill:#999999;fill-opacity:1;stroke:none;stroke-width:0.264999;stroke-dasharray:none;stroke-opacity:1"
       d="m 27.388069,17.283342 c 0.07176,0.252367 0.05452,0.521853 -0.121368,0.558246 -1.228482,0.254176 -3.137053,0.505738 -4.461624,0.667741 0.08855,0.675669 1.082926,1.628051 0.402412,2.35014 -0.590189,0.626252 -2.853504,-0.64793 -3.235686,-1.061915 -0.190976,-0.206872 0.447041,-0.955523 0.682405,-0.768705 0.447508,0.355206 0.97307,0.809311 1.566957,0.99529 0.104128,-0.503161 -1.065888,-1.808504 -0.991154,-2.374733 -0.157304,-0.566974 -1.473391,0.354705 -1.998254,0.567101 -0.218501,0.501186 -0.233307,1.325571 -0.673732,1.795459 -0.342651,-0.06032 -0.628172,-0.332308 -0.59869,-0.654988 0.05747,-0.629076 0.169256,-1.449802 0.492097,-1.868726 0.311795,-0.404591 2.935826,-1.61771 3.705989,-1.373338 0.761126,-0.65134 3.003664,-1.271043 4.193199,-1.669511 0.340631,-0.114099 0.598452,0.897356 0.262158,1.02367 -0.968649,0.363836 -2.594972,0.916266 -2.696516,1.165352 -0.05738,0.14075 -0.05756,0.233963 -0.02959,0.297078 0.0076,0.06861 0.05614,0.151101 0.176551,0.243867 0.213096,0.164166 1.895245,-0.175506 2.915413,-0.348468 0.177087,-0.03003 0.337701,0.204087 0.409436,0.456459 z"
       id="path4-4-5-5-1-3"
       sodipodi:nodetypes="ssccssccccsscscscssss" /><ellipse
       style="fill:#ffffff;fill-opacity:1;stroke:#000000;stroke-width:0.265;stroke-dasharray:none;stroke-opacity:1"
       id="path1-7-2-9-9-1-6-1-2-3-6"
       cx="7.8508821"
       cy="-26.715303"
       rx="0.65429264"
       ry="0.80279088"
       transform="rotate(117.38697)" /><path
       id="path1-7-1-2-6-5-0-1"
       style="fill:#ffffff;stroke:#000000;stroke-width:0.265;stroke-dasharray:none"
       d="m 27.385242,16.617662 c -0.200154,0.05363 -0.654177,0.411179 -0.560737,0.759899 0.09344,0.34872 0.685789,0.466154 0.885943,0.412523 0.200154,-0.05363 0.390916,-0.032 0.189619,-0.700718 -0.201299,-0.668727 -0.31467,-0.525335 -0.514825,-0.471704 z"
       sodipodi:nodetypes="ssszs" /><path
       id="path1-7-1-9-0-2-6-6-8"
       style="fill:#ffffff;stroke:#000000;stroke-width:0.265;stroke-dasharray:none"
       d="m 26.722058,14.226741 c -0.200153,0.05363 -0.654176,0.411179 -0.560737,0.759897 0.09344,0.348723 0.68579,0.466156 0.885943,0.412524 0.200154,-0.05363 0.390915,-0.032 0.189618,-0.700718 -0.201298,-0.668727 -0.31467,-0.525334 -0.514823,-0.471704 z"
       sodipodi:nodetypes="ssszs" /><path
       id="path1-9-9-6"
       style="fill:#ff6666;fill-opacity:1;stroke:#000000;stroke-width:0.265"
       d="m 22.293478,19.14886 c -0.886921,0.237649 -2.177082,-0.187265 -2.414732,-1.074186 -0.23765,-0.886921 0.667207,-1.899988 1.554126,-2.137636 0.886919,-0.237649 1.798563,0.288689 2.036213,1.175607 0.23765,0.88692 -0.288687,1.798565 -1.175607,2.036215 z"
       sodipodi:nodetypes="zzzzz" /><ellipse
       style="fill:#ffffff;fill-opacity:1;stroke:#000000;stroke-width:0.265;stroke-dasharray:none;stroke-opacity:1"
       id="path1-7-2-9-9-1-3-9-9-8-5-4"
       cx="25.03079"
       cy="10.366369"
       rx="0.65429264"
       ry="0.80279088"
       transform="rotate(25.72808)" /><path
       style="fill:#999999;fill-opacity:1;stroke:none;stroke-width:0.264999;stroke-dasharray:none;stroke-opacity:1"
       d="m 17.623597,7.5425907 c -0.252367,-0.07176 -0.521853,-0.05452 -0.558246,0.121368 -0.254176,1.2284821 -0.505737,3.1370523 -0.66774,4.4616233 -0.675669,-0.08855 -1.628051,-1.082926 -2.35014,-0.402412 -0.626252,0.590189 0.64793,2.853504 1.061915,3.235686 0.206872,0.190976 0.955523,-0.447041 0.768705,-0.682405 -0.355206,-0.447508 -0.809311,-0.97307 -0.99529,-1.566957 0.503161,-0.104128 1.808504,1.065888 2.374732,0.991154 0.566974,0.157304 -0.354705,1.473391 -0.5671,1.998254 -0.501186,0.218501 -1.325571,0.233307 -1.795459,0.673732 0.06032,0.342651 0.332308,0.628172 0.654988,0.59869 0.629076,-0.05747 1.449801,-0.169256 1.868725,-0.492097 0.404591,-0.311795 1.61771,-2.935826 1.373338,-3.705989 0.65134,-0.761126 1.271043,-3.0036637 1.669511,-4.1931992 0.114099,-0.34063 -0.897356,-0.598451 -1.02367,-0.262157 -0.363836,0.968649 -0.916266,2.5949712 -1.165352,2.6965152 -0.14075,0.05738 -0.233963,0.05756 -0.297078,0.02959 -0.06861,-0.0076 -0.151101,-0.05614 -0.243867,-0.176551 C 17.567403,10.65434 17.907075,8.9721918 18.080037,7.9520238 18.110067,7.7749357 17.87595,7.6143227 17.623578,7.5425877 Z"
       id="path4-4-5-5-1-3-1"
       sodipodi:nodetypes="ssccssccccsscscscssss" /><ellipse
       style="fill:#ffffff;fill-opacity:1;stroke:#000000;stroke-width:0.265;stroke-dasharray:none;stroke-opacity:1"
       id="path1-7-2-9-9-1-6-1-2-3-6-0"
       cx="-7.0756588"
       cy="20.357447"
       rx="0.65429264"
       ry="0.80279088"
       transform="matrix(-0.88792002,0.45999787,0.45999787,0.88792002,0,0)" /><path
       id="path1-7-1-2-6-5-0-1-5"
       style="fill:#ffffff;stroke:#000000;stroke-width:0.265;stroke-dasharray:none"
       d="m 18.289277,7.5454177 c -0.05363,0.200154 -0.411179,0.6541771 -0.759899,0.5607371 -0.34872,-0.09344 -0.466154,-0.6857891 -0.412523,-0.8859431 0.05363,-0.200155 0.032,-0.390916 0.700718,-0.189619 0.668727,0.201299 0.525335,0.31467 0.471704,0.514825 z"
       sodipodi:nodetypes="ssszs" /><path
       id="path1-7-1-9-0-2-6-6-8-1"
       style="fill:#ffffff;stroke:#000000;stroke-width:0.265;stroke-dasharray:none"
       d="m 20.680198,8.2086018 c -0.05363,0.200153 -0.411179,0.654176 -0.759897,0.560737 -0.348723,-0.09344 -0.466156,-0.68579 -0.412524,-0.885943 0.05363,-0.2001541 0.032,-0.3909151 0.700718,-0.1896181 0.668727,0.2012981 0.525334,0.3146701 0.471704,0.5148231 z"
       sodipodi:nodetypes="ssszs" /><path
       id="path1-9-9-6-1"
       style="fill:#4d4d4d;fill-opacity:1;stroke:#000000;stroke-width:0.265"
       d="m 15.75808,12.637181 c -0.237649,0.886921 0.187265,2.177082 1.074185,2.414732 0.886921,0.23765 1.899988,-0.667207 2.137636,-1.554126 0.237649,-0.886919 -0.288689,-1.798563 -1.175607,-2.036213 -0.88692,-0.23765 -1.798564,0.288687 -2.036214,1.175607 z"
       sodipodi:nodetypes="zzzzz" /><ellipse
       style="fill:#ffffff;fill-opacity:1;stroke:#000000;stroke-width:0.265;stroke-dasharray:none;stroke-opacity:1"
       id="path1-7-2-9-9-1-3-9-9-8-5-4-0"
       cx="-21.590122"
       cy="-5.9166288"
       rx="0.65429264"
       ry="0.80279088"
       transform="matrix(-0.43410064,-0.90086438,-0.90086438,0.43410064,0,0)" /></g></svg>
