<?xml version="1.0" encoding="UTF-8" standalone="no"?>
<!-- Created with Inkscape (http://www.inkscape.org/) -->

<svg
   width="35mm"
   height="35mm"
   viewBox="0 0 35 35"
   version="1.1"
   id="svg1"
   xml:space="preserve"
   inkscape:version="1.4 (e7c3feb100, 2024-10-09)"
   sodipodi:docname="h_alternateInface.svg"
   xmlns:inkscape="http://www.inkscape.org/namespaces/inkscape"
   xmlns:sodipodi="http://sodipodi.sourceforge.net/DTD/sodipodi-0.dtd"
   xmlns="http://www.w3.org/2000/svg"
   xmlns:svg="http://www.w3.org/2000/svg"><sodipodi:namedview
     id="namedview1"
     pagecolor="#ffffff"
     bordercolor="#000000"
     borderopacity="0.25"
     inkscape:showpageshadow="2"
     inkscape:pageopacity="0.0"
     inkscape:pagecheckerboard="0"
     inkscape:deskcolor="#d1d1d1"
     inkscape:document-units="mm"
     inkscape:zoom="4.2968333"
     inkscape:cx="74.007991"
     inkscape:cy="80.058959"
     inkscape:window-width="1916"
     inkscape:window-height="1023"
     inkscape:window-x="0"
     inkscape:window-y="0"
     inkscape:window-maximized="0"
     inkscape:current-layer="layer1"><sodipodi:guide
       position="0.17416423,17.540036"
       orientation="0,132.28346"
       id="guide5"
       inkscape:locked="false" /><sodipodi:guide
       position="35.000001,35.000001"
       orientation="132.28346,0"
       id="guide6"
       inkscape:locked="false" /><sodipodi:guide
       position="35.000001,0"
       orientation="0,-132.28346"
       id="guide7"
       inkscape:locked="false" /><sodipodi:guide
       position="17.503506,35.914363"
       orientation="-132.28346,0"
       id="guide8"
       inkscape:locked="false" /></sodipodi:namedview><defs
     id="defs1"><inkscape:path-effect
       effect="mirror_symmetry"
       start_point="17.297909,16.234992"
       end_point="17.313303,7.810326"
       center_point="17.305606,12.022659"
       id="path-effect5"
       is_visible="true"
       lpeversion="1.2"
       lpesatellites=""
       mode="free"
       discard_orig_path="false"
       fuse_paths="true"
       oposite_fuse="false"
       split_items="false"
       split_open="false"
       link_styles="false" /><inkscape:path-effect
       effect="mirror_symmetry"
       start_point="17.297909,16.234992"
       end_point="17.313303,7.810326"
       center_point="17.305606,12.022659"
       id="path-effect5-7"
       is_visible="true"
       lpeversion="1.2"
       lpesatellites=""
       mode="free"
       discard_orig_path="false"
       fuse_paths="true"
       oposite_fuse="false"
       split_items="false"
       split_open="false"
       link_styles="false" /><inkscape:path-effect
       effect="mirror_symmetry"
       start_point="17.297909,16.234992"
       end_point="17.313303,7.810326"
       center_point="17.305606,12.022659"
       id="path-effect5-6"
       is_visible="true"
       lpeversion="1.2"
       lpesatellites=""
       mode="free"
       discard_orig_path="false"
       fuse_paths="true"
       oposite_fuse="false"
       split_items="false"
       split_open="false"
       link_styles="false" /><inkscape:path-effect
       effect="mirror_symmetry"
       start_point="17.297909,16.234992"
       end_point="17.313303,7.810326"
       center_point="17.305606,12.022659"
       id="path-effect5-3"
       is_visible="true"
       lpeversion="1.2"
       lpesatellites=""
       mode="free"
       discard_orig_path="false"
       fuse_paths="true"
       oposite_fuse="false"
       split_items="false"
       split_open="false"
       link_styles="false" /><inkscape:path-effect
       effect="mirror_symmetry"
       start_point="17.297909,16.234992"
       end_point="17.313303,7.810326"
       center_point="17.305606,12.022659"
       id="path-effect5-66"
       is_visible="true"
       lpeversion="1.2"
       lpesatellites=""
       mode="free"
       discard_orig_path="false"
       fuse_paths="true"
       oposite_fuse="false"
       split_items="false"
       split_open="false"
       link_styles="false" /><inkscape:path-effect
       effect="mirror_symmetry"
       start_point="17.297909,16.234992"
       end_point="17.313303,7.810326"
       center_point="17.305606,12.022659"
       id="path-effect5-4"
       is_visible="true"
       lpeversion="1.2"
       lpesatellites=""
       mode="free"
       discard_orig_path="false"
       fuse_paths="true"
       oposite_fuse="false"
       split_items="false"
       split_open="false"
       link_styles="false" /><inkscape:path-effect
       effect="mirror_symmetry"
       start_point="17.297909,16.234992"
       end_point="17.313303,7.810326"
       center_point="17.305606,12.022659"
       id="path-effect5-4-7"
       is_visible="true"
       lpeversion="1.2"
       lpesatellites=""
       mode="free"
       discard_orig_path="false"
       fuse_paths="true"
       oposite_fuse="false"
       split_items="false"
       split_open="false"
       link_styles="false" /><inkscape:path-effect
       effect="mirror_symmetry"
       start_point="17.297909,16.234992"
       end_point="17.313303,7.810326"
       center_point="17.305606,12.022659"
       id="path-effect5-41"
       is_visible="true"
       lpeversion="1.2"
       lpesatellites=""
       mode="free"
       discard_orig_path="false"
       fuse_paths="true"
       oposite_fuse="false"
       split_items="false"
       split_open="false"
       link_styles="false" /><inkscape:path-effect
       effect="mirror_symmetry"
       start_point="17.297909,16.234992"
       end_point="17.313303,7.810326"
       center_point="17.305606,12.022659"
       id="path-effect5-4-0"
       is_visible="true"
       lpeversion="1.2"
       lpesatellites=""
       mode="free"
       discard_orig_path="false"
       fuse_paths="true"
       oposite_fuse="false"
       split_items="false"
       split_open="false"
       link_styles="false" /><inkscape:path-effect
       effect="mirror_symmetry"
       start_point="17.493844,16.300304"
       end_point="17.509238,7.875638"
       center_point="17.501541,12.087971"
       id="path-effect5-4-0-9"
       is_visible="true"
       lpeversion="1.2"
       lpesatellites=""
       mode="free"
       discard_orig_path="false"
       fuse_paths="true"
       oposite_fuse="false"
       split_items="false"
       split_open="false"
       link_styles="false" /><inkscape:path-effect
       effect="mirror_symmetry"
       start_point="17.297909,16.234992"
       end_point="17.313303,7.810326"
       center_point="17.305606,12.022659"
       id="path-effect5-4-0-0"
       is_visible="true"
       lpeversion="1.2"
       lpesatellites=""
       mode="free"
       discard_orig_path="false"
       fuse_paths="true"
       oposite_fuse="false"
       split_items="false"
       split_open="false"
       link_styles="false" /><inkscape:path-effect
       effect="mirror_symmetry"
       start_point="17.493844,16.300304"
       end_point="17.509238,7.875638"
       center_point="17.501541,12.087971"
       id="path-effect5-4-0-9-7"
       is_visible="true"
       lpeversion="1.2"
       lpesatellites=""
       mode="free"
       discard_orig_path="false"
       fuse_paths="true"
       oposite_fuse="false"
       split_items="false"
       split_open="false"
       link_styles="false" /><inkscape:path-effect
       effect="mirror_symmetry"
       start_point="17.493844,16.300304"
       end_point="17.509238,7.875638"
       center_point="17.501541,12.087971"
       id="path-effect5-4-0-9-3"
       is_visible="true"
       lpeversion="1.2"
       lpesatellites=""
       mode="free"
       discard_orig_path="false"
       fuse_paths="true"
       oposite_fuse="false"
       split_items="false"
       split_open="false"
       link_styles="false" /></defs><g
     inkscape:label="Layer 1"
     inkscape:groupmode="layer"
     id="layer1"><path
       id="path1-3-0-5-8"
       style="fill:#66ff66;fill-opacity:1;stroke:#000000;stroke-width:0.265"
       d="m 20.462981,24.519143 c -10e-7,-0.918208 -0.744355,-2.05443 -1.662562,-2.05443 -0.91821,-1e-6 -1.662562,1.136225 -1.662563,2.054431 1e-6,0.918207 0.744355,1.662561 1.662562,1.66256 0.918207,1e-6 1.662563,-0.744353 1.662563,-1.662561 z"
       sodipodi:nodetypes="zzzzz" /><path
       style="fill:#999999;fill-opacity:1;stroke:none;stroke-width:0.264999;stroke-dasharray:none;stroke-opacity:1"
       d="m 17.491383,19.891653 c -0.292488,-0.0083 -0.617134,0.09905 -0.605468,0.300781 0.07244,1.252407 0.559557,2.828886 0.326459,3.772716 -0.425271,-0.336301 -1.02431,-0.762374 -1.662365,-1.136105 -0.409475,-0.615331 -1.169438,-1.511573 -1.716581,-1.305253 -0.245398,0.535227 0.594257,1.573268 1.025204,1.976375 0.480371,0.449338 1.63544,1.651998 2.230804,1.873587 0.63568,0.236594 1.341613,0.149971 1.706636,0.19954 0.669569,0.0093 1.91047,-0.09821 2.556962,-0.134717 0.411905,-0.02326 1.250396,-0.0923 1.711914,-0.791091 0.380451,-0.576049 -0.153947,-3.113895 -0.678897,-3.295073 -0.742084,0.467284 -0.102723,1.963418 -0.125795,2.614975 -0.648148,0.407899 -0.915947,0.344678 -1.395675,0.504342 -0.286926,-1.377297 -0.213883,-3.019349 -0.136823,-4.271484 0.02205,-0.358554 -1.019714,-0.423931 -1.054686,-0.0664 -0.05036,0.514905 -0.184378,0.627292 -0.117188,1.156249 -0.217323,0.452837 -0.511517,1.061298 -0.58789,1.654297 -0.05913,0.02209 -0.114608,0.02958 -0.166014,0.0293 -0.05141,9.7e-5 -0.106962,-0.0089 -0.166017,-0.03125 -0.07421,-0.593274 -0.366365,-1.200669 -0.58203,-1.654297 0.06912,-0.528708 -0.0648,-0.641163 -0.113282,-1.156249 -0.01473,-0.156472 -0.221729,-0.233805 -0.449219,-0.240235 z"
       id="path4-6-3-2-6-5"
       sodipodi:nodetypes="sccccsscsscccsscccccsss" /><path
       id="path1-7-1-1-4-1-7"
       style="fill:#ffffff;stroke:#000000;stroke-width:0.265;stroke-dasharray:none"
       d="m 17.445731,18.413132 c 0.682667,-0.04836 0.503895,1.102808 0.501698,1.310009 -0.0022,0.207203 0.39595,1.167629 -0.463463,1.16196 -1.042509,-0.0069 -0.653086,-2.428412 -0.03823,-2.471969 z"
       sodipodi:nodetypes="sszs" /><path
       id="path1-7-1-1-4-5-1-4"
       style="fill:#ffffff;stroke:#000000;stroke-width:0.265;stroke-dasharray:none"
       d="m 20.155105,18.413133 c -0.682666,-0.04836 -0.503895,1.102806 -0.501698,1.310008 0.0022,0.207203 -0.39595,1.167629 0.463464,1.161961 1.042508,-0.0069 0.653085,-2.428412 0.03823,-2.47197 z"
       sodipodi:nodetypes="sszs" /><path
       style="fill:#999999;fill-opacity:1;stroke:none;stroke-width:0.264999;stroke-dasharray:none;stroke-opacity:1"
       d="m 30.62125,16.233141 c 0.134635,0.225194 0.187731,0.48996 0.02725,0.570637 -1.120836,0.563469 -2.899264,1.300434 -4.136771,1.799741 0.260409,0.629728 1.467396,1.292295 0.996961,2.165909 -0.407993,0.757665 -2.923974,0.112688 -3.400281,-0.188275 -0.238011,-0.150396 0.184504,-1.038667 0.460196,-0.919131 0.5242,0.227276 1.149385,0.529886 1.771169,0.55582 -0.02965,-0.512966 -1.497649,-1.471009 -1.572013,-2.037287 -0.298687,-0.506941 -1.331381,0.72396 -1.783388,1.064963 -0.08134,0.54066 0.117726,1.340788 -0.186076,1.908655 -0.346587,0.03042 -0.692776,-0.158401 -0.747813,-0.477717 -0.107306,-0.622515 -0.211748,-1.444207 -0.0083,-1.932415 0.196457,-0.471502 2.417095,-2.322435 3.224268,-2.285722 0.566579,-0.826142 2.572314,-2.00514 3.618186,-2.697905 0.299492,-0.198373 0.810312,0.711888 0.51817,0.920937 -0.841476,0.602144 -2.269403,1.556674 -2.303019,1.823554 -0.019,0.150805 0.005,0.240889 0.04831,0.294614 0.0251,0.06431 0.09334,0.131422 0.233653,0.189862 0.248324,0.103419 1.785241,-0.660051 2.725881,-1.091158 0.163281,-0.07484 0.379016,0.109729 0.513625,0.334936 z"
       id="path4-4-5-5-1-3"
       sodipodi:nodetypes="ssccssccccsscscscssss" /><ellipse
       style="fill:#ffffff;fill-opacity:1;stroke:#000000;stroke-width:0.265;stroke-dasharray:none;stroke-opacity:1"
       id="path1-7-2-9-9-1-6-1-2-3-6"
       cx="14.389691"
       cy="-27.837231"
       rx="0.65429264"
       ry="0.80279088"
       transform="rotate(102.38697)" /><path
       id="path1-7-1-2-6-5-0-1"
       style="fill:#ffffff;stroke:#000000;stroke-width:0.265;stroke-dasharray:none"
       d="m 30.446229,15.590875 c -0.179453,0.103607 -0.525465,0.566482 -0.344954,0.879136 0.18051,0.312654 0.78307,0.272778 0.962525,0.169164 0.179454,-0.103607 0.369314,-0.132087 0.0018,-0.725919 -0.367519,-0.593841 -0.439914,-0.425992 -0.619369,-0.322385 z"
       sodipodi:nodetypes="ssszs" /><path
       id="path1-7-1-9-0-2-6-6-8"
       style="fill:#ffffff;stroke:#000000;stroke-width:0.265;stroke-dasharray:none"
       d="m 29.186827,13.453067 c -0.179453,0.103607 -0.525465,0.566482 -0.344955,0.879134 0.180512,0.312657 0.783071,0.272779 0.962526,0.169164 0.179453,-0.103606 0.369312,-0.132085 0.0018,-0.725919 -0.367519,-0.59384 -0.439914,-0.425991 -0.619367,-0.322385 z"
       sodipodi:nodetypes="ssszs" /><path
       id="path1-9-9-6"
       style="fill:#ff6666;fill-opacity:1;stroke:#000000;stroke-width:0.265"
       d="m 26.183087,19.35367 c -0.795192,0.459103 -2.151373,0.382585 -2.610478,-0.412606 -0.459104,-0.795192 0.15272,-2.007934 0.94791,-2.467035 0.795193,-0.459103 1.812002,-0.18665 2.271105,0.608539 0.459104,0.795191 0.186653,1.811998 -0.608537,2.271102 z"
       sodipodi:nodetypes="zzzzz" /><ellipse
       style="fill:#ffffff;fill-opacity:1;stroke:#000000;stroke-width:0.265;stroke-dasharray:none;stroke-opacity:1"
       id="path1-7-2-9-9-1-3-9-9-8-5-4"
       cx="26.052654"
       cy="16.731211"
       rx="0.65429264"
       ry="0.80279088"
       transform="rotate(10.72808)" /><path
       id="path1-3-0-5-8-2"
       style="fill:#6666ff;fill-opacity:1;stroke:#000000;stroke-width:0.265"
       d="m 10.476375,14.532537 c 0.918208,1e-6 2.05443,0.744355 2.05443,1.662562 10e-7,0.91821 -1.136225,1.662562 -2.054431,1.662563 -0.918207,-1e-6 -1.662561,-0.744355 -1.66256,-1.662562 -1e-6,-0.918207 0.744353,-1.662563 1.662561,-1.662563 z"
       sodipodi:nodetypes="zzzzz" /><path
       style="fill:#999999;fill-opacity:1;stroke:none;stroke-width:0.264999;stroke-dasharray:none;stroke-opacity:1"
       d="m 15.103865,17.504135 c 0.0083,0.292488 -0.09905,0.617134 -0.300781,0.605468 -1.252407,-0.07244 -2.828886,-0.559557 -3.772716,-0.326459 0.336301,0.425271 0.762374,1.02431 1.136105,1.662365 0.615331,0.409475 1.511573,1.169438 1.305253,1.716581 -0.535227,0.245398 -1.573268,-0.594257 -1.976375,-1.025204 -0.449338,-0.480371 -1.651998,-1.63544 -1.873587,-2.230804 -0.236594,-0.63568 -0.149971,-1.341613 -0.19954,-1.706636 -0.0093,-0.669569 0.09821,-1.91047 0.134717,-2.556962 0.02326,-0.411905 0.0923,-1.250396 0.791091,-1.711914 0.576049,-0.380451 3.113895,0.153947 3.295073,0.678897 -0.467284,0.742084 -1.963418,0.102723 -2.614975,0.125795 -0.407899,0.648148 -0.344678,0.915947 -0.504342,1.395675 1.377297,0.286926 3.019349,0.213883 4.271484,0.136823 0.358554,-0.02205 0.423931,1.019714 0.0664,1.054686 -0.514905,0.05036 -0.627292,0.184378 -1.156249,0.117188 -0.452837,0.217323 -1.061298,0.511517 -1.654297,0.58789 -0.02209,0.05913 -0.02958,0.114608 -0.0293,0.166014 -9.7e-5,0.05141 0.0089,0.106962 0.03125,0.166017 0.593274,0.07421 1.200669,0.366365 1.654297,0.58203 0.528708,-0.06912 0.641163,0.0648 1.156249,0.113282 0.156472,0.01473 0.233805,0.221729 0.240235,0.449219 z"
       id="path4-6-3-2-6-5-2"
       sodipodi:nodetypes="sccccsscsscccsscccccsss" /><path
       id="path1-7-1-1-4-1-7-0"
       style="fill:#ffffff;stroke:#000000;stroke-width:0.265;stroke-dasharray:none"
       d="m 16.582386,17.549787 c 0.04836,-0.682667 -1.102808,-0.503895 -1.310009,-0.501698 -0.207203,0.0022 -1.167629,-0.39595 -1.16196,0.463463 0.0069,1.042509 2.428412,0.653086 2.471969,0.03823 z"
       sodipodi:nodetypes="sszs" /><path
       id="path1-7-1-1-4-5-1-4-5"
       style="fill:#ffffff;stroke:#000000;stroke-width:0.265;stroke-dasharray:none"
       d="m 16.582385,14.840413 c 0.04836,0.682666 -1.102806,0.503895 -1.310008,0.501698 -0.207203,-0.0022 -1.167629,0.39595 -1.161961,-0.463464 0.0069,-1.042508 2.428412,-0.653085 2.47197,-0.03823 z"
       sodipodi:nodetypes="sszs" /><path
       style="fill:#999999;fill-opacity:1;stroke:none;stroke-width:0.264999;stroke-dasharray:none;stroke-opacity:1"
       d="M 18.762377,4.374267 C 18.537183,4.239633 18.272417,4.186536 18.19174,4.347017 17.628271,5.467854 16.891306,7.246282 16.391999,8.483789 15.762271,8.22338 15.099704,7.016393 14.22609,7.486828 c -0.757665,0.407993 -0.112688,2.923974 0.188275,3.400281 0.150396,0.238011 1.038667,-0.184504 0.919131,-0.460196 -0.227276,-0.5242 -0.529886,-1.149385 -0.55582,-1.77117 0.512966,0.02965 1.471009,1.49765 2.037287,1.572014 0.506941,0.298687 -0.72396,1.331381 -1.064963,1.783388 -0.54066,0.08134 -1.340788,-0.117726 -1.908655,0.186076 -0.03042,0.346587 0.158401,0.692776 0.477717,0.747813 0.622515,0.107306 1.444207,0.211748 1.932415,0.0083 0.471502,-0.196457 2.322435,-2.417095 2.285722,-3.224268 0.826142,-0.566579 2.00514,-2.572314 2.697905,-3.618186 0.198373,-0.299493 -0.711888,-0.810313 -0.920937,-0.51817 -0.602144,0.841475 -1.556674,2.269403 -1.823554,2.303019 -0.150805,0.019 -0.240889,-0.005 -0.294614,-0.04831 -0.06431,-0.0251 -0.131422,-0.09333 -0.189862,-0.233653 -0.103419,-0.248324 0.660051,-1.785241 1.091158,-2.725882 0.07484,-0.163281 -0.109729,-0.379016 -0.334936,-0.513625 z"
       id="path4-4-5-5-1-3-5"
       sodipodi:nodetypes="ssccssccccsscscscssss" /><ellipse
       style="fill:#ffffff;fill-opacity:1;stroke:#000000;stroke-width:0.265;stroke-dasharray:none;stroke-opacity:1"
       id="path1-7-2-9-9-1-6-1-2-3-6-2"
       cx="-12.284168"
       cy="13.850629"
       rx="0.65429264"
       ry="0.80279088"
       transform="matrix(-0.97672109,0.21451321,0.21451321,0.97672109,0,0)" /><path
       id="path1-7-1-2-6-5-0-1-9"
       style="fill:#ffffff;stroke:#000000;stroke-width:0.265;stroke-dasharray:none"
       d="M 19.404643,4.549289 C 19.301036,4.728742 18.838161,5.074754 18.525507,4.894243 18.212853,4.713732 18.252729,4.111172 18.356343,3.931717 c 0.103607,-0.179453 0.132087,-0.369313 0.725919,-0.0018 0.593841,0.367519 0.425992,0.439915 0.322385,0.619369 z"
       sodipodi:nodetypes="ssszs" /><path
       id="path1-7-1-9-0-2-6-6-8-0"
       style="fill:#ffffff;stroke:#000000;stroke-width:0.265;stroke-dasharray:none"
       d="M 21.542451,5.808691 C 21.438844,5.988143 20.975969,6.334156 20.663317,6.153645 20.35066,5.973133 20.390538,5.370574 20.494153,5.19112 c 0.103606,-0.179454 0.132085,-0.369313 0.725919,-0.0018 0.59384,0.367518 0.425991,0.439914 0.322385,0.619367 z"
       sodipodi:nodetypes="ssszs" /><path
       id="path1-9-9-6-2"
       style="fill:#4d4d4d;fill-opacity:1;stroke:#000000;stroke-width:0.265"
       d="m 15.641848,8.812431 c -0.459103,0.795191 -0.382585,2.151373 0.412606,2.610478 0.795192,0.459104 2.007934,-0.15272 2.467035,-0.94791 C 18.980592,9.679806 18.708139,8.662996 17.91295,8.203894 17.117759,7.74479 16.100952,8.017241 15.641848,8.812431 Z"
       sodipodi:nodetypes="zzzzz" /><ellipse
       style="fill:#ffffff;fill-opacity:1;stroke:#000000;stroke-width:0.265;stroke-dasharray:none;stroke-opacity:1"
       id="path1-7-2-9-9-1-3-9-9-8-5-4-8"
       cx="-14.845552"
       cy="-11.138293"
       rx="0.65429264"
       ry="0.80279088"
       transform="matrix(-0.18614816,-0.98252169,-0.98252169,0.18614816,0,0)" /><ellipse
       style="fill:#ffffff;fill-opacity:1;stroke:#000000;stroke-width:0.265;stroke-dasharray:none;stroke-opacity:1"
       id="path1-7-2-9-9-1-3-5"
       cx="-7.5098176"
       cy="24.236383"
       rx="0.65429264"
       ry="0.80279088"
       transform="rotate(-49.74034)" /></g></svg>
