<?xml version="1.0" encoding="UTF-8" standalone="no"?>
<!-- Created with Inkscape (http://www.inkscape.org/) -->

<svg
   width="35mm"
   height="35mm"
   viewBox="0 0 35 35"
   version="1.1"
   id="svg1"
   xml:space="preserve"
   inkscape:version="1.4 (e7c3feb100, 2024-10-09)"
   sodipodi:docname="j_primary.svg"
   xmlns:inkscape="http://www.inkscape.org/namespaces/inkscape"
   xmlns:sodipodi="http://sodipodi.sourceforge.net/DTD/sodipodi-0.dtd"
   xmlns="http://www.w3.org/2000/svg"
   xmlns:svg="http://www.w3.org/2000/svg"><sodipodi:namedview
     id="namedview1"
     pagecolor="#ffffff"
     bordercolor="#000000"
     borderopacity="0.25"
     inkscape:showpageshadow="2"
     inkscape:pageopacity="0.0"
     inkscape:pagecheckerboard="0"
     inkscape:deskcolor="#d1d1d1"
     inkscape:document-units="mm"
     inkscape:zoom="3.03832"
     inkscape:cx="21.228837"
     inkscape:cy="76.357989"
     inkscape:window-width="1916"
     inkscape:window-height="1023"
     inkscape:window-x="0"
     inkscape:window-y="0"
     inkscape:window-maximized="0"
     inkscape:current-layer="layer1"><sodipodi:guide
       position="0.17416423,17.540036"
       orientation="0,132.28346"
       id="guide5"
       inkscape:locked="false" /><sodipodi:guide
       position="35.000001,35.000001"
       orientation="132.28346,0"
       id="guide6"
       inkscape:locked="false" /><sodipodi:guide
       position="35.000001,0"
       orientation="0,-132.28346"
       id="guide7"
       inkscape:locked="false" /><sodipodi:guide
       position="17.503506,35.914363"
       orientation="-132.28346,0"
       id="guide8"
       inkscape:locked="false" /></sodipodi:namedview><defs
     id="defs1"><inkscape:path-effect
       effect="mirror_symmetry"
       start_point="17.297909,16.234992"
       end_point="17.313303,7.810326"
       center_point="17.305606,12.022659"
       id="path-effect5"
       is_visible="true"
       lpeversion="1.2"
       lpesatellites=""
       mode="free"
       discard_orig_path="false"
       fuse_paths="true"
       oposite_fuse="false"
       split_items="false"
       split_open="false"
       link_styles="false" /><inkscape:path-effect
       effect="mirror_symmetry"
       start_point="17.297909,16.234992"
       end_point="17.313303,7.810326"
       center_point="17.305606,12.022659"
       id="path-effect5-7"
       is_visible="true"
       lpeversion="1.2"
       lpesatellites=""
       mode="free"
       discard_orig_path="false"
       fuse_paths="true"
       oposite_fuse="false"
       split_items="false"
       split_open="false"
       link_styles="false" /><inkscape:path-effect
       effect="mirror_symmetry"
       start_point="17.297909,16.234992"
       end_point="17.313303,7.810326"
       center_point="17.305606,12.022659"
       id="path-effect5-6"
       is_visible="true"
       lpeversion="1.2"
       lpesatellites=""
       mode="free"
       discard_orig_path="false"
       fuse_paths="true"
       oposite_fuse="false"
       split_items="false"
       split_open="false"
       link_styles="false" /><inkscape:path-effect
       effect="mirror_symmetry"
       start_point="17.297909,16.234992"
       end_point="17.313303,7.810326"
       center_point="17.305606,12.022659"
       id="path-effect5-3"
       is_visible="true"
       lpeversion="1.2"
       lpesatellites=""
       mode="free"
       discard_orig_path="false"
       fuse_paths="true"
       oposite_fuse="false"
       split_items="false"
       split_open="false"
       link_styles="false" /><inkscape:path-effect
       effect="mirror_symmetry"
       start_point="17.297909,16.234992"
       end_point="17.313303,7.810326"
       center_point="17.305606,12.022659"
       id="path-effect5-66"
       is_visible="true"
       lpeversion="1.2"
       lpesatellites=""
       mode="free"
       discard_orig_path="false"
       fuse_paths="true"
       oposite_fuse="false"
       split_items="false"
       split_open="false"
       link_styles="false" /><inkscape:path-effect
       effect="mirror_symmetry"
       start_point="17.297909,16.234992"
       end_point="17.313303,7.810326"
       center_point="17.305606,12.022659"
       id="path-effect5-4"
       is_visible="true"
       lpeversion="1.2"
       lpesatellites=""
       mode="free"
       discard_orig_path="false"
       fuse_paths="true"
       oposite_fuse="false"
       split_items="false"
       split_open="false"
       link_styles="false" /><inkscape:path-effect
       effect="mirror_symmetry"
       start_point="17.297909,16.234992"
       end_point="17.313303,7.810326"
       center_point="17.305606,12.022659"
       id="path-effect5-4-7"
       is_visible="true"
       lpeversion="1.2"
       lpesatellites=""
       mode="free"
       discard_orig_path="false"
       fuse_paths="true"
       oposite_fuse="false"
       split_items="false"
       split_open="false"
       link_styles="false" /><inkscape:path-effect
       effect="mirror_symmetry"
       start_point="17.297909,16.234992"
       end_point="17.313303,7.810326"
       center_point="17.305606,12.022659"
       id="path-effect5-41"
       is_visible="true"
       lpeversion="1.2"
       lpesatellites=""
       mode="free"
       discard_orig_path="false"
       fuse_paths="true"
       oposite_fuse="false"
       split_items="false"
       split_open="false"
       link_styles="false" /><inkscape:path-effect
       effect="mirror_symmetry"
       start_point="17.297909,16.234992"
       end_point="17.313303,7.810326"
       center_point="17.305606,12.022659"
       id="path-effect5-4-0"
       is_visible="true"
       lpeversion="1.2"
       lpesatellites=""
       mode="free"
       discard_orig_path="false"
       fuse_paths="true"
       oposite_fuse="false"
       split_items="false"
       split_open="false"
       link_styles="false" /><inkscape:path-effect
       effect="mirror_symmetry"
       start_point="17.493844,16.300304"
       end_point="17.509238,7.875638"
       center_point="17.501541,12.087971"
       id="path-effect5-4-0-9"
       is_visible="true"
       lpeversion="1.2"
       lpesatellites=""
       mode="free"
       discard_orig_path="false"
       fuse_paths="true"
       oposite_fuse="false"
       split_items="false"
       split_open="false"
       link_styles="false" /><inkscape:path-effect
       effect="mirror_symmetry"
       start_point="17.297909,16.234992"
       end_point="17.313303,7.810326"
       center_point="17.305606,12.022659"
       id="path-effect5-4-0-0"
       is_visible="true"
       lpeversion="1.2"
       lpesatellites=""
       mode="free"
       discard_orig_path="false"
       fuse_paths="true"
       oposite_fuse="false"
       split_items="false"
       split_open="false"
       link_styles="false" /><inkscape:path-effect
       effect="mirror_symmetry"
       start_point="17.493844,16.300304"
       end_point="17.509238,7.875638"
       center_point="17.501541,12.087971"
       id="path-effect5-4-0-9-7"
       is_visible="true"
       lpeversion="1.2"
       lpesatellites=""
       mode="free"
       discard_orig_path="false"
       fuse_paths="true"
       oposite_fuse="false"
       split_items="false"
       split_open="false"
       link_styles="false" /><inkscape:path-effect
       effect="mirror_symmetry"
       start_point="17.493844,16.300304"
       end_point="17.509238,7.875638"
       center_point="17.501541,12.087971"
       id="path-effect5-4-0-9-3"
       is_visible="true"
       lpeversion="1.2"
       lpesatellites=""
       mode="free"
       discard_orig_path="false"
       fuse_paths="true"
       oposite_fuse="false"
       split_items="false"
       split_open="false"
       link_styles="false" /></defs><g
     inkscape:label="Layer 1"
     inkscape:groupmode="layer"
     id="layer1"><path
       style="fill:#999999;fill-opacity:1;stroke:none;stroke-width:0.264999;stroke-dasharray:none;stroke-opacity:1"
       d="m 27.990852,18.418585 c 0.004,0.262341 -0.0824,0.518183 -0.261717,0.507812 -1.252408,-0.07244 -3.161055,-0.323424 -4.482421,-0.509765 -0.08934,0.675564 0.624655,1.852858 -0.219561,2.374213 -0.732165,0.452161 -2.588577,-1.364394 -2.850589,-1.863189 -0.130926,-0.249251 0.679116,-0.807261 0.858108,-0.565892 0.340325,0.458926 0.730448,1.033583 1.255964,1.366934 0.230808,-0.459065 -0.561493,-2.022752 -0.342755,-2.550345 -0.0052,-0.588368 -1.514991,-0.03872 -2.076942,0.03059 -0.340772,0.427557 -0.56844,1.220019 -1.115474,1.559906 -0.315363,-0.146949 -0.52076,-0.483568 -0.408766,-0.787622 0.218328,-0.592767 0.538725,-1.356595 0.958991,-1.677687 0.405886,-0.310106 3.254484,-0.80274 3.935156,-0.367362 0.903771,-0.432152 3.230287,-0.450328 4.482421,-0.527344 0.358554,-0.02205 0.345806,1.02167 -0.01172,1.056641 -1.029811,0.100733 -2.743698,0.213416 -2.90625,0.427734 -0.09185,0.121103 -0.116153,0.211093 -0.105471,0.279296 -0.01042,0.06824 0.01512,0.160483 0.107417,0.281253 0.163346,0.213726 1.876091,0.321 2.906263,0.417971 0.178825,0.01683 0.273372,0.284536 0.277344,0.546875 z"
       id="path4-4-5-5-1-3"
       sodipodi:nodetypes="ssccssccccsscscscssss" /><ellipse
       style="fill:#ffffff;fill-opacity:1;stroke:#000000;stroke-width:0.265;stroke-dasharray:none;stroke-opacity:1"
       id="path1-7-2-9-9-1-6-1-2-3-6"
       cx="-0.16236258"
       cy="-27.537474"
       rx="0.65429264"
       ry="0.80279088"
       transform="rotate(132.38697)" /><path
       id="path1-7-1-2-6-5-0-1"
       style="fill:#ffffff;stroke:#000000;stroke-width:0.265;stroke-dasharray:none"
       d="m 28.160412,17.774856 c -0.207214,-1e-6 -0.738307,0.227855 -0.738307,0.588876 0,0.361022 0.541773,0.627766 0.748987,0.627766 0.207215,1e-6 0.385878,0.07027 0.364517,-0.627765 -0.02136,-0.69804 -0.167981,-0.588877 -0.375197,-0.588877 z"
       sodipodi:nodetypes="ssszs" /><path
       id="path1-7-1-9-0-2-6-6-8"
       style="fill:#ffffff;stroke:#000000;stroke-width:0.265;stroke-dasharray:none"
       d="m 28.138642,15.293759 c -0.207214,-10e-7 -0.738307,0.227855 -0.738307,0.588874 0,0.361025 0.541772,0.627768 0.748987,0.627767 0.207214,1e-6 0.385877,0.07027 0.364516,-0.627765 -0.02136,-0.69804 -0.167981,-0.588876 -0.375195,-0.588877 z"
       sodipodi:nodetypes="ssszs" /><path
       id="path1-9-9-6"
       style="fill:#ff6666;fill-opacity:1;stroke:#000000;stroke-width:0.265"
       d="m 22.587024,18.90196 c -0.918208,-10e-7 -2.054432,-0.744355 -2.054432,-1.662563 0,-0.918208 1.136225,-1.662561 2.054431,-1.66256 0.918206,0 1.66256,0.744354 1.662561,1.66256 1e-6,0.918207 -0.744353,1.662562 -1.66256,1.662563 z"
       sodipodi:nodetypes="zzzzz" /><path
       style="fill:#999999;fill-opacity:1;stroke:none;stroke-width:0.264999;stroke-dasharray:none;stroke-opacity:1"
       d="m 16.551641,7.0030932 c -0.26234,-0.004 -0.518182,0.0824 -0.507812,0.261717 0.07244,1.252408 0.323425,3.1610548 0.509766,4.4824218 -0.675564,0.08934 -1.852858,-0.624656 -2.374213,0.219561 -0.45216,0.732165 1.364394,2.588576 1.863189,2.850589 0.249251,0.130926 0.807261,-0.679116 0.565892,-0.858108 -0.458926,-0.340326 -1.033583,-0.730449 -1.366934,-1.255965 0.459066,-0.230807 2.022753,0.561494 2.550344,0.342756 0.588368,0.0052 0.03872,1.514991 -0.03059,2.076941 -0.427556,0.340772 -1.220019,0.56844 -1.559906,1.115474 0.14695,0.315364 0.483568,0.52076 0.787623,0.408767 0.592766,-0.218329 1.356593,-0.538725 1.677685,-0.958991 0.310107,-0.405886 0.80274,-3.254484 0.367362,-3.935156 0.432153,-0.903771 0.450328,-3.2302868 0.527344,-4.4824218 0.02205,-0.358554 -1.02167,-0.345806 -1.05664,0.01172 -0.100734,1.029811 -0.213417,2.7436978 -0.427734,2.9062498 -0.121103,0.09185 -0.211094,0.116153 -0.279297,0.105471 -0.06824,0.01042 -0.160483,-0.01512 -0.281252,-0.107417 -0.213726,-0.163346 -0.321,-1.8760908 -0.417971,-2.9062628 -0.01683,-0.178827 -0.284536,-0.273373 -0.546875,-0.277345 z"
       id="path4-4-5-5-1-3-1"
       sodipodi:nodetypes="ssccssccccsscscscssss" /><ellipse
       style="fill:#ffffff;fill-opacity:1;stroke:#000000;stroke-width:0.265;stroke-dasharray:none;stroke-opacity:1"
       id="path1-7-2-9-9-1-6-1-2-3-6-0"
       cx="-2.401051"
       cy="21.883989"
       rx="0.65429264"
       ry="0.80279088"
       transform="matrix(-0.73860867,0.67413443,0.67413443,0.73860867,0,0)" /><path
       id="path1-7-1-2-6-5-0-1-5"
       style="fill:#ffffff;stroke:#000000;stroke-width:0.265;stroke-dasharray:none"
       d="m 17.19537,6.8335332 c 1e-6,0.207215 -0.227855,0.738308 -0.588876,0.738307 -0.361022,-10e-7 -0.627766,-0.541772 -0.627766,-0.748987 -1e-6,-0.207215 -0.07027,-0.385878 0.627765,-0.364517 0.698041,0.02136 0.588877,0.167982 0.588877,0.375197 z"
       sodipodi:nodetypes="ssszs" /><path
       id="path1-7-1-9-0-2-6-6-8-1"
       style="fill:#ffffff;stroke:#000000;stroke-width:0.265;stroke-dasharray:none"
       d="m 19.676467,6.8553042 c 1e-6,0.207213 -0.227855,0.738306 -0.588874,0.738306 -0.361025,0 -0.627768,-0.541772 -0.627767,-0.748986 -1e-6,-0.207215 -0.07027,-0.385877 0.627765,-0.364516 0.69804,0.02136 0.588876,0.167981 0.588877,0.375195 z"
       sodipodi:nodetypes="ssszs" /><path
       id="path1-9-9-6-1"
       style="fill:#4d4d4d;fill-opacity:1;stroke:#000000;stroke-width:0.265"
       d="m 16.068267,12.406922 c 1e-6,0.918207 0.744355,2.054431 1.662562,2.054432 0.918208,0 1.662562,-1.136226 1.66256,-2.054431 0,-0.918206 -0.744354,-1.662561 -1.662559,-1.662562 -0.918208,0 -1.662562,0.744353 -1.662563,1.662561 z"
       sodipodi:nodetypes="zzzzz" /><path
       style="fill:#999999;fill-opacity:1;stroke:none;stroke-width:0.264999;stroke-dasharray:none;stroke-opacity:1"
       d="m 7.009148,19.21565 c -0.004,0.26234 0.0824,0.518183 0.261718,0.507812 1.252407,-0.07244 3.577077,-0.08092 4.482421,-0.509765 0.679074,0.437865 -0.168884,1.45073 0.675332,1.972084 0.732168,0.452157 1.86407,-0.762988 2.126082,-1.261781 0.130928,-0.24925 -0.516212,-0.82017 -0.69728,-0.604561 -0.420141,0.500288 -0.375581,0.380387 -0.72391,0.772257 -0.230808,-0.459066 0.137344,-1.588685 -0.08139,-2.116279 0.0052,-0.588368 1.204108,-0.971127 1.879485,-1.299713 0.41364,0.272129 0.93312,0.688092 1.63667,1.072955 0.280451,-0.0249 0.734583,-0.405029 0.535956,-0.604559 -0.544152,-0.546629 -1.749637,-1.51081 -2.302612,-1.489018 -0.510399,0.02011 -2.361793,0.642762 -3.042465,1.078141 -0.903771,-0.432152 -3.230287,-0.450328 -4.482421,-0.527344 -0.358555,-0.02205 -0.345807,1.02167 0.01172,1.056641 1.029811,0.100734 2.743698,0.213416 2.90625,0.427734 0.09185,0.121107 0.116149,0.211094 0.105468,0.279297 0.01043,0.06824 -0.01512,0.16048 -0.107421,0.28125 C 10.029407,18.464524 8.316662,18.5718 7.28649,18.66877 7.107665,18.6856 7.013118,18.953306 7.009146,19.215645 Z"
       id="path4-4-5-5"
       sodipodi:nodetypes="ssscssccccsscscscssss" /><path
       id="path1-7-1-2-6-5"
       style="fill:#ffffff;stroke:#000000;stroke-width:0.265;stroke-dasharray:none"
       d="m 6.839588,18.57192 c 0.207214,0 0.738307,0.227855 0.738307,0.588877 0,0.361022 -0.541773,0.627765 -0.748987,0.627765 -0.207215,0 -0.385877,0.07027 -0.364517,-0.627765 0.02136,-0.69804 0.167981,-0.588877 0.375197,-0.588877 z"
       sodipodi:nodetypes="ssszs" /><path
       id="path1-7-1-9-0-2-6"
       style="fill:#ffffff;stroke:#000000;stroke-width:0.265;stroke-dasharray:none"
       d="m 6.861358,16.090823 c 0.207214,0 0.738307,0.227855 0.738307,0.588876 0,0.361023 -0.541773,0.627766 -0.748987,0.627766 -0.207214,0 -0.385876,0.07027 -0.364516,-0.627766 0.02136,-0.698039 0.167981,-0.588876 0.375196,-0.588876 z"
       sodipodi:nodetypes="ssszs" /><ellipse
       style="fill:#ffffff;fill-opacity:1;stroke:#000000;stroke-width:0.265;stroke-dasharray:none;stroke-opacity:1"
       id="path1-7-2-9-9-1-6-1-2"
       cx="-22.574657"
       cy="-8.6127729"
       rx="0.65429264"
       ry="0.80279088"
       transform="rotate(-147.22643)" /><path
       id="path1-9-9-9"
       style="fill:#6666ff;fill-opacity:1;stroke:#000000;stroke-width:0.265"
       d="m 12.412977,16.278418 c 0.918208,0 2.054432,0.744353 2.054432,1.662561 0,0.918208 -1.136225,1.662561 -2.054432,1.662561 -0.918206,0 -1.66256,-0.744354 -1.66256,-1.662561 0,-0.918206 0.744353,-1.662561 1.66256,-1.662561 z"
       sodipodi:nodetypes="zzzzz" /><ellipse
       style="fill:#ffffff;fill-opacity:1;stroke:#000000;stroke-width:0.265;stroke-dasharray:none;stroke-opacity:1"
       id="path1-7-2-9-9-1-3-9-9-8-5-4-0"
       cx="-23.091269"
       cy="-1.3853694"
       rx="0.65429264"
       ry="0.80279088"
       transform="matrix(-0.65246988,-0.75781466,-0.75781466,0.65246988,0,0)" /><path
       style="fill:#999999;fill-opacity:1;stroke:none;stroke-width:0.264999;stroke-dasharray:none;stroke-opacity:1"
       d="m 15.750376,27.996907 c -0.26234,0.004 -0.518183,-0.0824 -0.507812,-0.261718 0.07244,-1.252407 0.08092,-3.577077 0.509765,-4.482421 -0.437865,-0.679074 -1.45073,0.168884 -1.972084,-0.675332 -0.452157,-0.732168 0.762988,-1.86407 1.261781,-2.126082 0.24925,-0.130928 0.82017,0.516212 0.604561,0.69728 -0.500288,0.420141 -0.380387,0.375581 -0.772257,0.72391 0.459066,0.230808 1.588685,-0.137344 2.116279,0.08139 0.588368,-0.0052 0.971127,-1.204108 1.299713,-1.879485 -0.272129,-0.41364 -0.688092,-0.93312 -1.072955,-1.63667 0.0249,-0.280451 0.405029,-0.734583 0.604559,-0.535956 0.546629,0.544152 1.51081,1.749637 1.489018,2.302612 -0.02011,0.510399 -0.642762,2.361793 -1.078141,3.042465 0.432152,0.903771 0.450328,3.230287 0.527344,4.482421 0.02205,0.358555 -1.02167,0.345807 -1.056641,-0.01172 -0.100734,-1.029811 -0.213416,-2.743698 -0.427734,-2.90625 -0.121107,-0.09185 -0.211094,-0.116149 -0.279297,-0.105468 -0.06824,-0.01043 -0.16048,0.01512 -0.28125,0.107421 -0.213723,0.163344 -0.320999,1.876089 -0.417969,2.906261 -0.01683,0.178825 -0.284536,0.273372 -0.546875,0.277344 z"
       id="path4-4-5-5-7"
       sodipodi:nodetypes="ssscssccccsscscscssss" /><path
       id="path1-7-1-2-6-5-5"
       style="fill:#ffffff;stroke:#000000;stroke-width:0.265;stroke-dasharray:none"
       d="m 16.394106,28.166467 c 0,-0.207214 -0.227855,-0.738307 -0.588877,-0.738307 -0.361022,0 -0.627765,0.541773 -0.627765,0.748987 0,0.207215 -0.07027,0.385877 0.627765,0.364517 0.69804,-0.02136 0.588877,-0.167981 0.588877,-0.375197 z"
       sodipodi:nodetypes="ssszs" /><path
       id="path1-7-1-9-0-2-6-9"
       style="fill:#ffffff;stroke:#000000;stroke-width:0.265;stroke-dasharray:none"
       d="m 18.875203,28.144697 c 0,-0.207214 -0.227855,-0.738307 -0.588876,-0.738307 -0.361023,0 -0.627766,0.541773 -0.627766,0.748987 0,0.207214 -0.07027,0.385876 0.627766,0.364516 0.698039,-0.02136 0.588876,-0.167981 0.588876,-0.375196 z"
       sodipodi:nodetypes="ssszs" /><ellipse
       style="fill:#ffffff;fill-opacity:1;stroke:#000000;stroke-width:0.265;stroke-dasharray:none;stroke-opacity:1"
       id="path1-7-2-9-9-1-6-1-2-2"
       cx="25.786831"
       cy="1.837744"
       rx="0.65429264"
       ry="0.80279088"
       transform="matrix(0.54132041,0.8408164,0.8408164,-0.54132041,0,0)" /><path
       id="path1-9-9-9-2"
       style="fill:#66ff66;fill-opacity:1;stroke:#000000;stroke-width:0.265"
       d="m 18.687608,22.593078 c 0,-0.918208 -0.744353,-2.054432 -1.662561,-2.054432 -0.918208,0 -1.662561,1.136225 -1.662561,2.054432 0,0.918206 0.744354,1.66256 1.662561,1.66256 0.918206,0 1.662561,-0.744353 1.662561,-1.66256 z"
       sodipodi:nodetypes="zzzzz" /><ellipse
       style="fill:#ffffff;fill-opacity:1;stroke:#000000;stroke-width:0.265;stroke-dasharray:none;stroke-opacity:1"
       id="path1-7-2-9-9-8-7-2"
       cx="0.19391035"
       cy="24.698103"
       rx="0.65429264"
       ry="0.80279088"
       transform="rotate(-43.71484)" /><ellipse
       style="fill:#ffffff;fill-opacity:1;stroke:#000000;stroke-width:0.265;stroke-dasharray:none;stroke-opacity:1"
       id="path1-7-2-9-9-1-3-9-9-8-5-4"
       cx="26.244673"
       cy="2.2830861"
       rx="0.65429264"
       ry="0.80279088"
       transform="rotate(40.72808)" /></g></svg>
