<?xml version="1.0" encoding="UTF-8" standalone="no"?>
<!-- Created with Inkscape (http://www.inkscape.org/) -->

<svg
   width="35mm"
   height="35mm"
   viewBox="0 0 35 35"
   version="1.1"
   id="svg1"
   xml:space="preserve"
   inkscape:version="1.4 (e7c3feb100, 2024-10-09)"
   sodipodi:docname="k_primary.svg"
   xmlns:inkscape="http://www.inkscape.org/namespaces/inkscape"
   xmlns:sodipodi="http://sodipodi.sourceforge.net/DTD/sodipodi-0.dtd"
   xmlns="http://www.w3.org/2000/svg"
   xmlns:svg="http://www.w3.org/2000/svg"><sodipodi:namedview
     id="namedview1"
     pagecolor="#ffffff"
     bordercolor="#000000"
     borderopacity="0.25"
     inkscape:showpageshadow="2"
     inkscape:pageopacity="0.0"
     inkscape:pagecheckerboard="0"
     inkscape:deskcolor="#d1d1d1"
     inkscape:document-units="mm"
     inkscape:zoom="6.0766399"
     inkscape:cx="100.87812"
     inkscape:cy="82.611444"
     inkscape:window-width="1916"
     inkscape:window-height="1023"
     inkscape:window-x="0"
     inkscape:window-y="0"
     inkscape:window-maximized="0"
     inkscape:current-layer="layer1"><sodipodi:guide
       position="0.17416423,17.540036"
       orientation="0,132.28346"
       id="guide5"
       inkscape:locked="false" /><sodipodi:guide
       position="35.000001,35.000001"
       orientation="132.28346,0"
       id="guide6"
       inkscape:locked="false" /><sodipodi:guide
       position="35.000001,0"
       orientation="0,-132.28346"
       id="guide7"
       inkscape:locked="false" /><sodipodi:guide
       position="17.503506,35.914363"
       orientation="-132.28346,0"
       id="guide8"
       inkscape:locked="false" /></sodipodi:namedview><defs
     id="defs1"><inkscape:path-effect
       effect="mirror_symmetry"
       start_point="17.297909,16.234992"
       end_point="17.313303,7.810326"
       center_point="17.305606,12.022659"
       id="path-effect5"
       is_visible="true"
       lpeversion="1.2"
       lpesatellites=""
       mode="free"
       discard_orig_path="false"
       fuse_paths="true"
       oposite_fuse="false"
       split_items="false"
       split_open="false"
       link_styles="false" /><inkscape:path-effect
       effect="mirror_symmetry"
       start_point="17.297909,16.234992"
       end_point="17.313303,7.810326"
       center_point="17.305606,12.022659"
       id="path-effect5-7"
       is_visible="true"
       lpeversion="1.2"
       lpesatellites=""
       mode="free"
       discard_orig_path="false"
       fuse_paths="true"
       oposite_fuse="false"
       split_items="false"
       split_open="false"
       link_styles="false" /><inkscape:path-effect
       effect="mirror_symmetry"
       start_point="17.297909,16.234992"
       end_point="17.313303,7.810326"
       center_point="17.305606,12.022659"
       id="path-effect5-6"
       is_visible="true"
       lpeversion="1.2"
       lpesatellites=""
       mode="free"
       discard_orig_path="false"
       fuse_paths="true"
       oposite_fuse="false"
       split_items="false"
       split_open="false"
       link_styles="false" /><inkscape:path-effect
       effect="mirror_symmetry"
       start_point="17.297909,16.234992"
       end_point="17.313303,7.810326"
       center_point="17.305606,12.022659"
       id="path-effect5-3"
       is_visible="true"
       lpeversion="1.2"
       lpesatellites=""
       mode="free"
       discard_orig_path="false"
       fuse_paths="true"
       oposite_fuse="false"
       split_items="false"
       split_open="false"
       link_styles="false" /><inkscape:path-effect
       effect="mirror_symmetry"
       start_point="17.297909,16.234992"
       end_point="17.313303,7.810326"
       center_point="17.305606,12.022659"
       id="path-effect5-66"
       is_visible="true"
       lpeversion="1.2"
       lpesatellites=""
       mode="free"
       discard_orig_path="false"
       fuse_paths="true"
       oposite_fuse="false"
       split_items="false"
       split_open="false"
       link_styles="false" /><inkscape:path-effect
       effect="mirror_symmetry"
       start_point="17.297909,16.234992"
       end_point="17.313303,7.810326"
       center_point="17.305606,12.022659"
       id="path-effect5-4"
       is_visible="true"
       lpeversion="1.2"
       lpesatellites=""
       mode="free"
       discard_orig_path="false"
       fuse_paths="true"
       oposite_fuse="false"
       split_items="false"
       split_open="false"
       link_styles="false" /><inkscape:path-effect
       effect="mirror_symmetry"
       start_point="17.297909,16.234992"
       end_point="17.313303,7.810326"
       center_point="17.305606,12.022659"
       id="path-effect5-4-7"
       is_visible="true"
       lpeversion="1.2"
       lpesatellites=""
       mode="free"
       discard_orig_path="false"
       fuse_paths="true"
       oposite_fuse="false"
       split_items="false"
       split_open="false"
       link_styles="false" /><inkscape:path-effect
       effect="mirror_symmetry"
       start_point="17.297909,16.234992"
       end_point="17.313303,7.810326"
       center_point="17.305606,12.022659"
       id="path-effect5-41"
       is_visible="true"
       lpeversion="1.2"
       lpesatellites=""
       mode="free"
       discard_orig_path="false"
       fuse_paths="true"
       oposite_fuse="false"
       split_items="false"
       split_open="false"
       link_styles="false" /><inkscape:path-effect
       effect="mirror_symmetry"
       start_point="17.297909,16.234992"
       end_point="17.313303,7.810326"
       center_point="17.305606,12.022659"
       id="path-effect5-4-0"
       is_visible="true"
       lpeversion="1.2"
       lpesatellites=""
       mode="free"
       discard_orig_path="false"
       fuse_paths="true"
       oposite_fuse="false"
       split_items="false"
       split_open="false"
       link_styles="false" /><inkscape:path-effect
       effect="mirror_symmetry"
       start_point="17.493844,16.300304"
       end_point="17.509238,7.875638"
       center_point="17.501541,12.087971"
       id="path-effect5-4-0-9"
       is_visible="true"
       lpeversion="1.2"
       lpesatellites=""
       mode="free"
       discard_orig_path="false"
       fuse_paths="true"
       oposite_fuse="false"
       split_items="false"
       split_open="false"
       link_styles="false" /><inkscape:path-effect
       effect="mirror_symmetry"
       start_point="17.297909,16.234992"
       end_point="17.313303,7.810326"
       center_point="17.305606,12.022659"
       id="path-effect5-4-0-0"
       is_visible="true"
       lpeversion="1.2"
       lpesatellites=""
       mode="free"
       discard_orig_path="false"
       fuse_paths="true"
       oposite_fuse="false"
       split_items="false"
       split_open="false"
       link_styles="false" /><inkscape:path-effect
       effect="mirror_symmetry"
       start_point="17.493844,16.300304"
       end_point="17.509238,7.875638"
       center_point="17.501541,12.087971"
       id="path-effect5-4-0-9-7"
       is_visible="true"
       lpeversion="1.2"
       lpesatellites=""
       mode="free"
       discard_orig_path="false"
       fuse_paths="true"
       oposite_fuse="false"
       split_items="false"
       split_open="false"
       link_styles="false" /><inkscape:path-effect
       effect="mirror_symmetry"
       start_point="17.493844,16.300304"
       end_point="17.509238,7.875638"
       center_point="17.501541,12.087971"
       id="path-effect5-4-0-9-3"
       is_visible="true"
       lpeversion="1.2"
       lpesatellites=""
       mode="free"
       discard_orig_path="false"
       fuse_paths="true"
       oposite_fuse="false"
       split_items="false"
       split_open="false"
       link_styles="false" /><inkscape:path-effect
       effect="mirror_symmetry"
       start_point="17.297909,16.234992"
       end_point="17.313303,7.810326"
       center_point="17.305606,12.022659"
       id="path-effect5-4-6"
       is_visible="true"
       lpeversion="1.2"
       lpesatellites=""
       mode="free"
       discard_orig_path="false"
       fuse_paths="true"
       oposite_fuse="false"
       split_items="false"
       split_open="false"
       link_styles="false" /><inkscape:path-effect
       effect="mirror_symmetry"
       start_point="17.493844,16.300304"
       end_point="17.509238,7.875638"
       center_point="17.501541,12.087971"
       id="path-effect5-4-0-9-72"
       is_visible="true"
       lpeversion="1.2"
       lpesatellites=""
       mode="free"
       discard_orig_path="false"
       fuse_paths="true"
       oposite_fuse="false"
       split_items="false"
       split_open="false"
       link_styles="false" /><inkscape:path-effect
       effect="mirror_symmetry"
       start_point="17.493844,16.300304"
       end_point="17.509238,7.875638"
       center_point="17.501541,12.087971"
       id="path-effect5-4-0-9-72-8"
       is_visible="true"
       lpeversion="1.2"
       lpesatellites=""
       mode="free"
       discard_orig_path="false"
       fuse_paths="true"
       oposite_fuse="false"
       split_items="false"
       split_open="false"
       link_styles="false" /><inkscape:path-effect
       effect="mirror_symmetry"
       start_point="17.297909,16.234992"
       end_point="17.313303,7.810326"
       center_point="17.305606,12.022659"
       id="path-effect5-4-6-1"
       is_visible="true"
       lpeversion="1.2"
       lpesatellites=""
       mode="free"
       discard_orig_path="false"
       fuse_paths="true"
       oposite_fuse="false"
       split_items="false"
       split_open="false"
       link_styles="false" /><inkscape:path-effect
       effect="mirror_symmetry"
       start_point="17.297909,16.234992"
       end_point="17.313303,7.810326"
       center_point="17.305606,12.022659"
       id="path-effect5-4-6-1-8"
       is_visible="true"
       lpeversion="1.2"
       lpesatellites=""
       mode="free"
       discard_orig_path="false"
       fuse_paths="true"
       oposite_fuse="false"
       split_items="false"
       split_open="false"
       link_styles="false" /></defs><g
     inkscape:label="Layer 1"
     inkscape:groupmode="layer"
     id="layer1"><path
       id="path1-3-0-4"
       style="fill:#4d4d4d;fill-opacity:1;stroke:#000000;stroke-width:0.265"
       d="m 17.810487,10.377422 c 0,0.918208 -0.744354,2.054431 -1.662562,2.054431 -0.918208,0 -1.662561,-1.136225 -1.662561,-2.054431 0,-0.9182079 0.744355,-1.6625616 1.662561,-1.6625616 0.918207,0 1.662562,0.7443527 1.662562,1.6625616 z"
       sodipodi:nodetypes="zzzzz" /><path
       style="fill:#999999;fill-opacity:1;stroke:none;stroke-width:0.264999;stroke-dasharray:none;stroke-opacity:1"
       d="m 14.534202,10.852567 c -0.460115,0.333016 -0.660953,0.647232 -0.904297,1.109375 -0.323276,0.923645 -0.431758,1.969349 -1.064453,1.953126 -0.424525,-0.01089 0.01979,-1.934236 0.140625,-2.367188 0.162794,-0.58329 0.70324,-1.7085594 1.240234,-2.0234389 0.411803,-0.24147 1.573585,-0.235512 2.197266,-0.21289 0.623594,-0.0249 1.788489,-0.03489 2.201172,0.205078 0.538141,0.3129145 1.081169,1.4348879 1.246093,2.0175789 0.122417,0.432508 0.574873,2.356704 0.150391,2.369141 -0.632631,0.01854 -0.745616,-1.028715 -1.072266,-1.951172 -0.245031,-0.461251 -0.446874,-0.774137 -0.908203,-1.105469 -0.229648,0.944676 0.237438,2.597475 0.314453,3.84961 0.02205,0.358554 -1.019715,0.423931 -1.054687,0.06641 -0.05036,-0.514906 -0.184378,-0.627293 -0.117188,-1.15625 -0.217322,-0.452837 -0.511517,-1.061298 -0.58789,-1.654297 -0.05913,-0.02209 -0.114606,-0.02958 -0.166016,-0.0293 -0.05141,-9.3e-5 -0.537999,0.793998 -0.59705,0.816348 -0.610319,0.121302 -0.804349,-0.89091 -1.018184,-1.886662 z"
       id="path4-6-3-2-0"
       sodipodi:nodetypes="cscccccssscsscccccc" /><ellipse
       style="fill:#ffffff;fill-opacity:1;stroke:#000000;stroke-width:0.265;stroke-dasharray:none;stroke-opacity:1"
       id="path1-7-2-9-9-1-3"
       cx="4.3933954"
       cy="23.434036"
       rx="0.65429264"
       ry="0.80279088"
       transform="rotate(-45)" /><ellipse
       style="fill:#ffffff;fill-opacity:1;stroke:#000000;stroke-width:0.265;stroke-dasharray:none;stroke-opacity:1"
       id="path1-7-2-9-9-1-9-9"
       cx="-18.448318"
       cy="-0.59232157"
       rx="0.65429264"
       ry="0.80279088"
       transform="rotate(-135)" /><path
       id="path1-7-1-1-4-1"
       style="fill:#ffffff;stroke:#000000;stroke-width:0.265;stroke-dasharray:none"
       d="m 15.224272,13.204492 c 0.682667,0.04836 0.503895,-1.102807 0.501699,-1.310009 -0.0022,-0.207202 0.395949,-1.167629 -0.463464,-1.16196 -1.042508,0.0069 -0.653086,2.428412 -0.03823,2.471969 z"
       sodipodi:nodetypes="sszs" /><path
       id="path1-7-1-1-4-5-9"
       style="fill:#ffffff;stroke:#000000;stroke-width:0.265;stroke-dasharray:none"
       d="m 17.502612,16.483433 c -0.682667,0.04836 -0.503895,-1.102807 -0.501699,-1.310009 0.0022,-0.207202 -0.395949,-1.167629 0.463464,-1.16196 1.042508,0.0069 0.653086,2.428412 0.03823,2.471969 z"
       sodipodi:nodetypes="sszs" /><path
       style="fill:#999999;fill-opacity:1;stroke:none;stroke-width:0.264999;stroke-dasharray:none;stroke-opacity:1"
       d="m 7.6228102,18.91546 c -0.00397,0.262339 0.082402,0.518183 0.2617188,0.507812 1.2524071,-0.07244 3.577076,-0.08092 4.482421,-0.509765 0.679074,0.437864 -0.168884,1.45073 0.675332,1.972084 0.732168,0.452157 2.081775,-0.349349 2.343787,-0.848142 0.130928,-0.249249 -0.472671,-1.037875 -0.653739,-0.822266 -0.420141,0.500289 -0.462663,0.467469 -0.985156,0.706945 -0.230808,-0.459065 0.137344,-1.719308 -0.08139,-2.246902 0.0052,-0.588368 0.355058,-1.635128 0.878041,-2.420896 0.413641,0.261246 1.96722,0.524811 2.605458,0.57224 0.280451,-0.0249 0.215478,-0.72783 -0.04096,-0.844036 -1.110186,-0.503087 -2.798832,-1.002364 -3.162549,-0.661738 -0.724221,0.678243 -0.892282,1.676863 -1.572954,2.112242 -0.903772,-0.432152 -3.2302879,-0.450328 -4.4824216,-0.527344 -0.3585544,-0.02205 -0.3458071,1.02167 0.011719,1.056641 1.0298107,0.100734 2.7436976,0.213416 2.9062496,0.427734 0.09185,0.121107 0.116149,0.211094 0.105468,0.279297 0.01043,0.06824 -0.01512,0.16048 -0.107421,0.28125 -0.163344,0.213723 -1.8760879,0.320999 -2.90626,0.417969 -0.1788256,0.01683 -0.2733728,0.284536 -0.2773438,0.546875 z"
       id="path4-4"
       sodipodi:nodetypes="ssscssccccsscscscsss" /><path
       id="path1-9"
       style="fill:#6666ff;fill-opacity:1;stroke:#000000;stroke-width:0.265"
       d="m 13.076042,19.197272 c 0.918208,0 2.054432,-0.744354 2.054432,-1.662562 0,-0.918208 -1.136225,-1.662561 -2.054432,-1.662561 -0.918207,0 -1.66256,0.744354 -1.66256,1.662561 0,0.918207 0.744352,1.662562 1.66256,1.662562 z"
       sodipodi:nodetypes="zzzzz" /><path
       id="path1-7-1-2"
       style="fill:#ffffff;stroke:#000000;stroke-width:0.265;stroke-dasharray:none"
       d="m 7.4532508,17.008716 c 0.207214,0 0.738307,-0.227855 0.738307,-0.588877 0,-0.361023 -0.541773,-0.627766 -0.748987,-0.627766 -0.207215,0 -0.385877,-0.07027 -0.364517,0.627766 0.02136,0.69804 0.167981,0.588877 0.375197,0.588877 z"
       sodipodi:nodetypes="ssszs" /><path
       id="path1-7-1-9-0"
       style="fill:#ffffff;stroke:#000000;stroke-width:0.265;stroke-dasharray:none"
       d="m 7.4750208,19.489813 c 0.207214,0 0.7383073,-0.227855 0.7383073,-0.588877 0,-0.361023 -0.5417733,-0.627766 -0.7489873,-0.627766 -0.207214,0 -0.385876,-0.07027 -0.364516,0.627766 0.02136,0.69804 0.167981,0.588877 0.375196,0.588877 z"
       sodipodi:nodetypes="ssszs" /><ellipse
       style="fill:#ffffff;fill-opacity:1;stroke:#000000;stroke-width:0.265;stroke-dasharray:none;stroke-opacity:1"
       id="path1-7-2-9-9-1-6"
       cx="-24.734314"
       cy="-1.8278439"
       rx="0.65429264"
       ry="0.80279088"
       transform="rotate(-132.38759)" /><path
       style="fill:#999999;fill-opacity:1;stroke:none;stroke-width:0.264999;stroke-dasharray:none;stroke-opacity:1"
       d="m 27.37719,18.765731 c 0.004,0.262339 -0.0824,0.518183 -0.261719,0.507812 -1.252407,-0.07244 -3.577076,-0.08092 -4.482421,-0.509765 -0.679074,0.437864 0.168884,1.45073 -0.675332,1.972084 -0.732168,0.452157 -1.743105,0.327991 -2.251422,0.121686 -0.260877,-0.10588 -0.08152,-1.345757 0.09955,-1.130148 0.420141,0.500289 1.093821,0.144193 1.539344,0.168152 0.230808,-0.459065 -0.229709,-1.842461 -0.01097,-2.370055 -0.0052,-0.588368 -0.355058,-1.635128 -0.878041,-2.420896 -0.413641,0.261246 -1.96722,0.524811 -2.605458,0.57224 -0.280451,-0.0249 -0.215478,-0.72783 0.04096,-0.844036 1.110186,-0.503087 2.798832,-1.002364 3.162549,-0.661738 0.724221,0.678243 0.892282,1.676863 1.572954,2.112242 0.903772,-0.432152 3.230288,-0.450328 4.482421,-0.527344 0.358555,-0.02205 0.345807,1.02167 -0.01172,1.056641 -1.02981,0.100734 -2.743697,0.213416 -2.906249,0.427734 -0.09185,0.121107 -0.116149,0.211094 -0.105468,0.279297 -0.01043,0.06824 0.01512,0.16048 0.107421,0.28125 0.163344,0.213723 1.876088,0.320999 2.90626,0.417969 0.178825,0.01683 0.273373,0.284536 0.277345,0.546875 z"
       id="path4-4-5"
       sodipodi:nodetypes="ssscssccccsscscscsss" /><path
       id="path1-9-5"
       style="fill:#ff6666;fill-opacity:1;stroke:#000000;stroke-width:0.265"
       d="m 21.923958,19.047543 c -0.918208,0 -2.054432,-0.744354 -2.054432,-1.662562 0,-0.918208 1.136225,-1.662561 2.054432,-1.662561 0.918207,0 1.66256,0.744354 1.66256,1.662561 0,0.918207 -0.744352,1.662562 -1.66256,1.662562 z"
       sodipodi:nodetypes="zzzzz" /><path
       id="path1-7-1-2-4"
       style="fill:#ffffff;stroke:#000000;stroke-width:0.265;stroke-dasharray:none"
       d="m 27.546749,16.858987 c -0.207214,0 -0.738307,-0.227855 -0.738307,-0.588877 0,-0.361023 0.541773,-0.627766 0.748987,-0.627766 0.207215,0 0.385877,-0.07027 0.364517,0.627766 -0.02136,0.69804 -0.167981,0.588877 -0.375197,0.588877 z"
       sodipodi:nodetypes="ssszs" /><path
       id="path1-7-1-9-0-7"
       style="fill:#ffffff;stroke:#000000;stroke-width:0.265;stroke-dasharray:none"
       d="m 27.524979,19.340084 c -0.207214,0 -0.738307,-0.227855 -0.738307,-0.588877 0,-0.361023 0.541773,-0.627766 0.748987,-0.627766 0.207214,0 0.385876,-0.07027 0.364516,0.627766 -0.02136,0.69804 -0.167981,0.588877 -0.375196,0.588877 z"
       sodipodi:nodetypes="ssszs" /><path
       style="fill:#999999;fill-opacity:1;stroke:none;stroke-width:0.264999;stroke-dasharray:none;stroke-opacity:1"
       d="m 15.859625,29.47849 c -0.262339,0.004 -0.518183,-0.0824 -0.507812,-0.261719 0.07244,-1.252407 0.08092,-3.577076 0.509765,-4.482421 -0.437864,-0.679074 -1.45073,0.168884 -1.972084,-0.675332 -0.452157,-0.732168 0.349349,-2.081775 0.848142,-2.343787 0.249249,-0.130928 1.037875,0.472671 0.822266,0.653739 -0.500289,0.420141 -0.467469,0.462663 -0.706945,0.985156 0.459065,0.230808 1.719308,-0.137344 2.246902,0.08139 0.588368,-0.0052 1.667784,-0.08293 2.486208,-0.224925 -0.0762,-0.609576 -0.06763,-1.520924 -0.115059,-2.159162 0.0249,-0.280451 0.72783,-0.215478 0.844036,0.04096 0.503087,1.110186 0.447215,2.494044 0.106589,2.857761 -0.678243,0.724221 -1.644207,0.09766 -2.079586,0.77833 0.432152,0.903772 0.450328,3.230288 0.527344,4.482421 0.02205,0.358555 -1.02167,0.345807 -1.056641,-0.01172 -0.100734,-1.02981 -0.213416,-2.743697 -0.427734,-2.906249 -0.121107,-0.09185 -0.211094,-0.116149 -0.279297,-0.105468 -0.06824,-0.01043 -0.16048,0.01512 -0.28125,0.107421 -0.213723,0.163344 -0.320999,1.876088 -0.417969,2.90626 -0.01683,0.178825 -0.284536,0.273373 -0.546875,0.277345 z"
       id="path4-4-5-4"
       sodipodi:nodetypes="ssscssccccsscscscsss" /><path
       id="path1-9-5-5"
       style="fill:#66ff66;fill-opacity:1;stroke:#000000;stroke-width:0.265"
       d="m 15.577813,24.025258 c 0,-0.918208 0.744354,-2.054432 1.662562,-2.054432 0.918208,0 1.662561,1.136225 1.662561,2.054432 0,0.918207 -0.744354,1.66256 -1.662561,1.66256 -0.918207,0 -1.662562,-0.744352 -1.662562,-1.66256 z"
       sodipodi:nodetypes="zzzzz" /><path
       id="path1-7-1-2-4-2"
       style="fill:#ffffff;stroke:#000000;stroke-width:0.265;stroke-dasharray:none"
       d="m 17.766369,29.648049 c 0,-0.207214 0.227855,-0.738307 0.588877,-0.738307 0.361023,0 0.627766,0.541773 0.627766,0.748987 0,0.207215 0.07027,0.385877 -0.627766,0.364517 -0.69804,-0.02136 -0.588877,-0.167981 -0.588877,-0.375197 z"
       sodipodi:nodetypes="ssszs" /><path
       id="path1-7-1-9-0-7-5"
       style="fill:#ffffff;stroke:#000000;stroke-width:0.265;stroke-dasharray:none"
       d="m 15.285272,29.626279 c 0,-0.207214 0.227855,-0.738307 0.588877,-0.738307 0.361023,0 0.627766,0.541773 0.627766,0.748987 0,0.207214 0.07027,0.385876 -0.627766,0.364516 -0.69804,-0.02136 -0.588877,-0.167981 -0.588877,-0.375196 z"
       sodipodi:nodetypes="ssszs" /><ellipse
       style="fill:#ffffff;fill-opacity:1;stroke:#000000;stroke-width:0.265;stroke-dasharray:none;stroke-opacity:1"
       id="path1-7-2-9-9-1-6-6-4"
       cx="25.962175"
       cy="-5.7875576"
       rx="0.65429264"
       ry="0.80279088"
       transform="matrix(0.73860137,0.67414243,0.67414243,-0.73860137,0,0)" /><ellipse
       style="fill:#ffffff;fill-opacity:1;stroke:#000000;stroke-width:0.265;stroke-dasharray:none;stroke-opacity:1"
       id="path1-7-2-9-9-8"
       cx="-15.372771"
       cy="17.462713"
       rx="0.65429264"
       ry="0.80279088"
       transform="rotate(-90)" /><ellipse
       style="fill:#ffffff;fill-opacity:1;stroke:#000000;stroke-width:0.265;stroke-dasharray:none;stroke-opacity:1"
       id="path1-7-2-9-9-1-6-6"
       cx="-1.9076687"
       cy="-28.213444"
       rx="0.65429264"
       ry="0.80279088"
       transform="matrix(0.67414243,-0.73860137,-0.73860137,-0.67414243,0,0)" /></g></svg>
