<?xml version="1.0" encoding="UTF-8" standalone="no"?>
<!-- Created with Inkscape (http://www.inkscape.org/) -->

<svg
   width="35mm"
   height="35mm"
   viewBox="0 0 35 35"
   version="1.1"
   id="svg1"
   xml:space="preserve"
   inkscape:version="1.4 (e7c3feb100, 2024-10-09)"
   sodipodi:docname="k_alternateV1.svg"
   xmlns:inkscape="http://www.inkscape.org/namespaces/inkscape"
   xmlns:sodipodi="http://sodipodi.sourceforge.net/DTD/sodipodi-0.dtd"
   xmlns="http://www.w3.org/2000/svg"
   xmlns:svg="http://www.w3.org/2000/svg"><sodipodi:namedview
     id="namedview1"
     pagecolor="#ffffff"
     bordercolor="#000000"
     borderopacity="0.25"
     inkscape:showpageshadow="2"
     inkscape:pageopacity="0.0"
     inkscape:pagecheckerboard="0"
     inkscape:deskcolor="#d1d1d1"
     inkscape:document-units="mm"
     inkscape:zoom="4.2968333"
     inkscape:cx="133.81948"
     inkscape:cy="68.655212"
     inkscape:window-width="1916"
     inkscape:window-height="1023"
     inkscape:window-x="0"
     inkscape:window-y="0"
     inkscape:window-maximized="0"
     inkscape:current-layer="layer1"><sodipodi:guide
       position="0.17416423,17.540036"
       orientation="0,132.28346"
       id="guide5"
       inkscape:locked="false" /><sodipodi:guide
       position="35.000001,35.000001"
       orientation="132.28346,0"
       id="guide6"
       inkscape:locked="false" /><sodipodi:guide
       position="35.000001,0"
       orientation="0,-132.28346"
       id="guide7"
       inkscape:locked="false" /><sodipodi:guide
       position="17.503506,35.914363"
       orientation="-132.28346,0"
       id="guide8"
       inkscape:locked="false" /></sodipodi:namedview><defs
     id="defs1"><inkscape:path-effect
       effect="mirror_symmetry"
       start_point="17.297909,16.234992"
       end_point="17.313303,7.810326"
       center_point="17.305606,12.022659"
       id="path-effect5"
       is_visible="true"
       lpeversion="1.2"
       lpesatellites=""
       mode="free"
       discard_orig_path="false"
       fuse_paths="true"
       oposite_fuse="false"
       split_items="false"
       split_open="false"
       link_styles="false" /><inkscape:path-effect
       effect="mirror_symmetry"
       start_point="17.297909,16.234992"
       end_point="17.313303,7.810326"
       center_point="17.305606,12.022659"
       id="path-effect5-7"
       is_visible="true"
       lpeversion="1.2"
       lpesatellites=""
       mode="free"
       discard_orig_path="false"
       fuse_paths="true"
       oposite_fuse="false"
       split_items="false"
       split_open="false"
       link_styles="false" /><inkscape:path-effect
       effect="mirror_symmetry"
       start_point="17.297909,16.234992"
       end_point="17.313303,7.810326"
       center_point="17.305606,12.022659"
       id="path-effect5-6"
       is_visible="true"
       lpeversion="1.2"
       lpesatellites=""
       mode="free"
       discard_orig_path="false"
       fuse_paths="true"
       oposite_fuse="false"
       split_items="false"
       split_open="false"
       link_styles="false" /><inkscape:path-effect
       effect="mirror_symmetry"
       start_point="17.297909,16.234992"
       end_point="17.313303,7.810326"
       center_point="17.305606,12.022659"
       id="path-effect5-3"
       is_visible="true"
       lpeversion="1.2"
       lpesatellites=""
       mode="free"
       discard_orig_path="false"
       fuse_paths="true"
       oposite_fuse="false"
       split_items="false"
       split_open="false"
       link_styles="false" /><inkscape:path-effect
       effect="mirror_symmetry"
       start_point="17.297909,16.234992"
       end_point="17.313303,7.810326"
       center_point="17.305606,12.022659"
       id="path-effect5-66"
       is_visible="true"
       lpeversion="1.2"
       lpesatellites=""
       mode="free"
       discard_orig_path="false"
       fuse_paths="true"
       oposite_fuse="false"
       split_items="false"
       split_open="false"
       link_styles="false" /><inkscape:path-effect
       effect="mirror_symmetry"
       start_point="17.297909,16.234992"
       end_point="17.313303,7.810326"
       center_point="17.305606,12.022659"
       id="path-effect5-4"
       is_visible="true"
       lpeversion="1.2"
       lpesatellites=""
       mode="free"
       discard_orig_path="false"
       fuse_paths="true"
       oposite_fuse="false"
       split_items="false"
       split_open="false"
       link_styles="false" /><inkscape:path-effect
       effect="mirror_symmetry"
       start_point="17.297909,16.234992"
       end_point="17.313303,7.810326"
       center_point="17.305606,12.022659"
       id="path-effect5-4-7"
       is_visible="true"
       lpeversion="1.2"
       lpesatellites=""
       mode="free"
       discard_orig_path="false"
       fuse_paths="true"
       oposite_fuse="false"
       split_items="false"
       split_open="false"
       link_styles="false" /><inkscape:path-effect
       effect="mirror_symmetry"
       start_point="17.297909,16.234992"
       end_point="17.313303,7.810326"
       center_point="17.305606,12.022659"
       id="path-effect5-41"
       is_visible="true"
       lpeversion="1.2"
       lpesatellites=""
       mode="free"
       discard_orig_path="false"
       fuse_paths="true"
       oposite_fuse="false"
       split_items="false"
       split_open="false"
       link_styles="false" /><inkscape:path-effect
       effect="mirror_symmetry"
       start_point="17.297909,16.234992"
       end_point="17.313303,7.810326"
       center_point="17.305606,12.022659"
       id="path-effect5-4-0"
       is_visible="true"
       lpeversion="1.2"
       lpesatellites=""
       mode="free"
       discard_orig_path="false"
       fuse_paths="true"
       oposite_fuse="false"
       split_items="false"
       split_open="false"
       link_styles="false" /><inkscape:path-effect
       effect="mirror_symmetry"
       start_point="17.493844,16.300304"
       end_point="17.509238,7.875638"
       center_point="17.501541,12.087971"
       id="path-effect5-4-0-9"
       is_visible="true"
       lpeversion="1.2"
       lpesatellites=""
       mode="free"
       discard_orig_path="false"
       fuse_paths="true"
       oposite_fuse="false"
       split_items="false"
       split_open="false"
       link_styles="false" /><inkscape:path-effect
       effect="mirror_symmetry"
       start_point="17.297909,16.234992"
       end_point="17.313303,7.810326"
       center_point="17.305606,12.022659"
       id="path-effect5-4-0-0"
       is_visible="true"
       lpeversion="1.2"
       lpesatellites=""
       mode="free"
       discard_orig_path="false"
       fuse_paths="true"
       oposite_fuse="false"
       split_items="false"
       split_open="false"
       link_styles="false" /><inkscape:path-effect
       effect="mirror_symmetry"
       start_point="17.493844,16.300304"
       end_point="17.509238,7.875638"
       center_point="17.501541,12.087971"
       id="path-effect5-4-0-9-7"
       is_visible="true"
       lpeversion="1.2"
       lpesatellites=""
       mode="free"
       discard_orig_path="false"
       fuse_paths="true"
       oposite_fuse="false"
       split_items="false"
       split_open="false"
       link_styles="false" /><inkscape:path-effect
       effect="mirror_symmetry"
       start_point="17.493844,16.300304"
       end_point="17.509238,7.875638"
       center_point="17.501541,12.087971"
       id="path-effect5-4-0-9-3"
       is_visible="true"
       lpeversion="1.2"
       lpesatellites=""
       mode="free"
       discard_orig_path="false"
       fuse_paths="true"
       oposite_fuse="false"
       split_items="false"
       split_open="false"
       link_styles="false" /><inkscape:path-effect
       effect="mirror_symmetry"
       start_point="17.297909,16.234992"
       end_point="17.313303,7.810326"
       center_point="17.305606,12.022659"
       id="path-effect5-4-6"
       is_visible="true"
       lpeversion="1.2"
       lpesatellites=""
       mode="free"
       discard_orig_path="false"
       fuse_paths="true"
       oposite_fuse="false"
       split_items="false"
       split_open="false"
       link_styles="false" /><inkscape:path-effect
       effect="mirror_symmetry"
       start_point="17.493844,16.300304"
       end_point="17.509238,7.875638"
       center_point="17.501541,12.087971"
       id="path-effect5-4-0-9-72"
       is_visible="true"
       lpeversion="1.2"
       lpesatellites=""
       mode="free"
       discard_orig_path="false"
       fuse_paths="true"
       oposite_fuse="false"
       split_items="false"
       split_open="false"
       link_styles="false" /><inkscape:path-effect
       effect="mirror_symmetry"
       start_point="17.493844,16.300304"
       end_point="17.509238,7.875638"
       center_point="17.501541,12.087971"
       id="path-effect5-4-0-9-72-8"
       is_visible="true"
       lpeversion="1.2"
       lpesatellites=""
       mode="free"
       discard_orig_path="false"
       fuse_paths="true"
       oposite_fuse="false"
       split_items="false"
       split_open="false"
       link_styles="false" /><inkscape:path-effect
       effect="mirror_symmetry"
       start_point="17.297909,16.234992"
       end_point="17.313303,7.810326"
       center_point="17.305606,12.022659"
       id="path-effect5-4-6-1"
       is_visible="true"
       lpeversion="1.2"
       lpesatellites=""
       mode="free"
       discard_orig_path="false"
       fuse_paths="true"
       oposite_fuse="false"
       split_items="false"
       split_open="false"
       link_styles="false" /><inkscape:path-effect
       effect="mirror_symmetry"
       start_point="17.297909,16.234992"
       end_point="17.313303,7.810326"
       center_point="17.305606,12.022659"
       id="path-effect5-4-6-1-8"
       is_visible="true"
       lpeversion="1.2"
       lpesatellites=""
       mode="free"
       discard_orig_path="false"
       fuse_paths="true"
       oposite_fuse="false"
       split_items="false"
       split_open="false"
       link_styles="false" /></defs><g
     inkscape:label="Layer 1"
     inkscape:groupmode="layer"
     id="layer1"><path
       id="path1-3-0-4"
       style="fill:#ff6666;fill-opacity:1;stroke:#000000;stroke-width:0.265"
       d="m 24.658953,17.813887 c -0.918208,0 -2.054431,-0.744354 -2.054431,-1.662562 0,-0.918208 1.136225,-1.662561 2.054431,-1.662561 0.918208,0 1.662562,0.744355 1.662562,1.662561 0,0.918207 -0.744353,1.662562 -1.662562,1.662562 z"
       sodipodi:nodetypes="zzzzz" /><path
       style="fill:#999999;fill-opacity:1;stroke:none;stroke-width:0.264999;stroke-dasharray:none;stroke-opacity:1"
       d="m 24.183808,14.537602 c -0.333016,-0.460115 -0.647232,-0.660953 -1.109375,-0.904297 -0.923645,-0.323276 -1.969349,-0.431758 -1.953126,-1.064453 0.01089,-0.424525 1.934236,0.01979 2.367188,0.140625 0.58329,0.162794 1.708559,0.70324 2.023439,1.240234 0.24147,0.411803 0.235512,1.573585 0.21289,2.197266 0.0249,0.623594 0.03489,1.788489 -0.205078,2.201172 -0.312915,0.538141 -1.434888,1.081169 -2.017579,1.246093 -0.432508,0.122417 -2.356704,0.574873 -2.369141,0.150391 -0.01854,-0.632631 1.028715,-0.745616 1.951172,-1.072266 0.461251,-0.245031 0.774137,-0.446874 1.105469,-0.908203 -0.944676,-0.229648 -2.597475,0.237438 -3.84961,0.314453 -0.358554,0.02205 -0.423931,-1.019715 -0.06641,-1.054687 0.514906,-0.05036 0.627293,-0.184378 1.15625,-0.117188 0.452837,-0.217322 1.061298,-0.511517 1.654297,-0.58789 0.02209,-0.05913 0.02958,-0.114606 0.0293,-0.166016 9.3e-5,-0.05141 -0.793998,-0.537999 -0.816348,-0.59705 -0.121302,-0.610319 0.89091,-0.804349 1.886662,-1.018184 z"
       id="path4-6-3-2-0"
       sodipodi:nodetypes="cscccccssscsscccccc" /><ellipse
       style="fill:#ffffff;fill-opacity:1;stroke:#000000;stroke-width:0.265;stroke-dasharray:none;stroke-opacity:1"
       id="path1-7-2-9-9-1-3"
       cx="29.170259"
       cy="-1.338014"
       rx="0.65429264"
       ry="0.80279088"
       transform="rotate(45)" /><ellipse
       style="fill:#ffffff;fill-opacity:1;stroke:#000000;stroke-width:0.265;stroke-dasharray:none;stroke-opacity:1"
       id="path1-7-2-9-9-1-9-9"
       cx="6.3237424"
       cy="24.184542"
       rx="0.65429264"
       ry="0.80279088"
       transform="rotate(-45)" /><path
       id="path1-7-1-1-4-1"
       style="fill:#ffffff;stroke:#000000;stroke-width:0.265;stroke-dasharray:none"
       d="m 21.831883,15.227672 c -0.04836,0.682667 1.102807,0.503895 1.310009,0.501699 0.207202,-0.0022 1.167629,0.395949 1.16196,-0.463464 -0.0069,-1.042508 -2.428412,-0.653086 -2.471969,-0.03823 z"
       sodipodi:nodetypes="sszs" /><path
       id="path1-7-1-1-4-5-9"
       style="fill:#ffffff;stroke:#000000;stroke-width:0.265;stroke-dasharray:none"
       d="m 18.552942,17.506012 c -0.04836,-0.682667 1.102807,-0.503895 1.310009,-0.501699 0.207202,0.0022 1.167629,-0.395949 1.16196,0.463464 -0.0069,1.042508 -2.428412,0.653086 -2.471969,0.03823 z"
       sodipodi:nodetypes="sszs" /><path
       style="fill:#999999;fill-opacity:1;stroke:none;stroke-width:0.264999;stroke-dasharray:none;stroke-opacity:1"
       d="m 16.120915,7.6262083 c -0.262339,-0.004 -0.518183,0.0824 -0.507812,0.261719 0.07244,1.252407 0.08092,3.5770767 0.509765,4.4824227 -0.437864,0.679074 -1.45073,-0.168884 -1.972084,0.675332 -0.452157,0.732168 0.349349,2.081775 0.848142,2.343787 0.249249,0.130928 1.037875,-0.472671 0.822266,-0.653739 -0.500289,-0.420141 -0.467469,-0.462663 -0.706945,-0.985156 0.459065,-0.230808 1.719308,0.137344 2.246902,-0.08139 0.588368,0.0052 1.635128,0.355058 2.420896,0.878041 -0.261246,0.413641 -0.524811,1.96722 -0.57224,2.605458 0.0249,0.280451 0.72783,0.215478 0.844036,-0.04096 0.503087,-1.110186 1.002364,-2.798832 0.661738,-3.162549 -0.678243,-0.724221 -1.676863,-0.892282 -2.112242,-1.572954 0.432152,-0.903773 0.450328,-3.2302897 0.527344,-4.4824237 0.02205,-0.358554 -1.02167,-0.345807 -1.056641,0.01172 -0.100734,1.029811 -0.213416,2.7436987 -0.427734,2.9062507 -0.121107,0.09185 -0.211094,0.116149 -0.279297,0.105468 -0.06824,0.01043 -0.16048,-0.01512 -0.28125,-0.107421 C 16.872036,10.64647 16.76476,8.9337253 16.66779,7.9035533 16.65096,7.7247273 16.383254,7.6301803 16.120915,7.6262083 Z"
       id="path4-4"
       sodipodi:nodetypes="ssscssccccsscscscsss" /><path
       id="path1-9"
       style="fill:#4d4d4d;fill-opacity:1;stroke:#000000;stroke-width:0.265"
       d="m 15.839103,13.079442 c 0,0.918208 0.744354,2.054432 1.662562,2.054432 0.918208,0 1.662561,-1.136225 1.662561,-2.054432 0,-0.918207 -0.744354,-1.662561 -1.662561,-1.662561 -0.918207,0 -1.662562,0.744353 -1.662562,1.662561 z"
       sodipodi:nodetypes="zzzzz" /><path
       id="path1-7-1-2"
       style="fill:#ffffff;stroke:#000000;stroke-width:0.265;stroke-dasharray:none"
       d="m 18.027659,7.4566493 c 0,0.207214 0.227855,0.738307 0.588877,0.738307 0.361023,0 0.627766,-0.541773 0.627766,-0.748987 0,-0.207215 0.07027,-0.385877 -0.627766,-0.364517 -0.69804,0.02136 -0.588877,0.167981 -0.588877,0.375197 z"
       sodipodi:nodetypes="ssszs" /><path
       id="path1-7-1-9-0"
       style="fill:#ffffff;stroke:#000000;stroke-width:0.265;stroke-dasharray:none"
       d="m 15.546562,7.4784193 c 0,0.207214 0.227855,0.738307 0.588877,0.738307 0.361023,0 0.627766,-0.541773 0.627766,-0.748987 0,-0.207214 0.07027,-0.385876 -0.627766,-0.364516 -0.69804,0.02136 -0.588877,0.167981 -0.588877,0.375196 z"
       sodipodi:nodetypes="ssszs" /><ellipse
       style="fill:#ffffff;fill-opacity:1;stroke:#000000;stroke-width:0.265;stroke-dasharray:none;stroke-opacity:1"
       id="path1-7-2-9-9-1-6"
       cx="1.141315"
       cy="21.79417"
       rx="0.65429264"
       ry="0.80279088"
       transform="rotate(-42.38759)" /><path
       style="fill:#999999;fill-opacity:1;stroke:none;stroke-width:0.264999;stroke-dasharray:none;stroke-opacity:1"
       d="m 16.270644,27.38059 c -0.262339,0.004 -0.518183,-0.0824 -0.507812,-0.261719 0.07244,-1.252407 0.08092,-3.577076 0.509765,-4.482421 -0.437864,-0.679074 -1.45073,0.168884 -1.972084,-0.675332 -0.452157,-0.732168 -0.327991,-1.743105 -0.121686,-2.251422 0.10588,-0.260877 1.345757,-0.08152 1.130148,0.09955 -0.500289,0.420141 -0.144193,1.093821 -0.168152,1.539344 0.459065,0.230808 1.842461,-0.229709 2.370055,-0.01097 0.588368,-0.0052 1.635128,-0.355058 2.420896,-0.878041 -0.261246,-0.413641 -0.524811,-1.96722 -0.57224,-2.605458 0.0249,-0.280451 0.72783,-0.215478 0.844036,0.04096 0.503087,1.110186 1.002364,2.798832 0.661738,3.162549 -0.678243,0.724221 -1.676863,0.892282 -2.112242,1.572954 0.432152,0.903772 0.450328,3.230288 0.527344,4.482421 0.02205,0.358555 -1.02167,0.345807 -1.056641,-0.01172 -0.100734,-1.02981 -0.213416,-2.743697 -0.427734,-2.906249 -0.121107,-0.09185 -0.211094,-0.116149 -0.279297,-0.105468 -0.06824,-0.01043 -0.16048,0.01512 -0.28125,0.107421 -0.213723,0.163344 -0.320999,1.876088 -0.417969,2.90626 -0.01683,0.178825 -0.284536,0.273373 -0.546875,0.277345 z"
       id="path4-4-5"
       sodipodi:nodetypes="ssscssccccsscscscsss" /><path
       id="path1-9-5"
       style="fill:#66ff66;fill-opacity:1;stroke:#000000;stroke-width:0.265"
       d="m 15.988832,21.927358 c 0,-0.918208 0.744354,-2.054432 1.662562,-2.054432 0.918208,0 1.662561,1.136225 1.662561,2.054432 0,0.918207 -0.744354,1.66256 -1.662561,1.66256 -0.918207,0 -1.662562,-0.744352 -1.662562,-1.66256 z"
       sodipodi:nodetypes="zzzzz" /><path
       id="path1-7-1-2-4"
       style="fill:#ffffff;stroke:#000000;stroke-width:0.265;stroke-dasharray:none"
       d="m 18.177388,27.550149 c 0,-0.207214 0.227855,-0.738307 0.588877,-0.738307 0.361023,0 0.627766,0.541773 0.627766,0.748987 0,0.207215 0.07027,0.385877 -0.627766,0.364517 -0.69804,-0.02136 -0.588877,-0.167981 -0.588877,-0.375197 z"
       sodipodi:nodetypes="ssszs" /><path
       id="path1-7-1-9-0-7"
       style="fill:#ffffff;stroke:#000000;stroke-width:0.265;stroke-dasharray:none"
       d="m 15.696291,27.528379 c 0,-0.207214 0.227855,-0.738307 0.588877,-0.738307 0.361023,0 0.627766,0.541773 0.627766,0.748987 0,0.207214 0.07027,0.385876 -0.627766,0.364516 -0.69804,-0.02136 -0.588877,-0.167981 -0.588877,-0.375196 z"
       sodipodi:nodetypes="ssszs" /><path
       style="fill:#999999;fill-opacity:1;stroke:none;stroke-width:0.264999;stroke-dasharray:none;stroke-opacity:1"
       d="m 5.557886,15.863025 c -0.004,-0.262339 0.0824,-0.518183 0.261719,-0.507812 1.2524068,0.07244 3.5770737,0.08092 4.48242,0.509765 0.679074,-0.437864 -0.168884,-1.45073 0.675332,-1.972084 0.732168,-0.452157 2.081775,0.349349 2.343787,0.848142 0.130928,0.249249 -0.472671,1.037875 -0.653739,0.822266 -0.420141,-0.500289 -0.462663,-0.467469 -0.985156,-0.706945 -0.230808,0.459065 0.137344,1.719308 -0.08139,2.246902 0.0052,0.588368 0.08293,1.667784 0.224925,2.486208 0.609576,-0.0762 1.520924,-0.06763 2.159162,-0.115059 0.280451,0.0249 0.215478,0.72783 -0.04096,0.844036 -1.110186,0.503087 -2.494044,0.447215 -2.857761,0.106589 -0.724221,-0.678243 -0.09766,-1.644207 -0.77833,-2.079586 -0.9037733,0.432152 -3.2302872,0.450328 -4.48242,0.527344 -0.358555,0.02205 -0.345807,-1.02167 0.01172,-1.056641 1.0298098,-0.100734 2.7436963,-0.213416 2.906248,-0.427734 0.09185,-0.121107 0.116149,-0.211094 0.105468,-0.279297 0.01043,-0.06824 -0.01512,-0.16048 -0.107421,-0.28125 C 8.5781463,16.614146 6.8654028,16.50687 5.835231,16.4099 5.656406,16.39307 5.561858,16.125364 5.557886,15.863025 Z"
       id="path4-4-5-4"
       sodipodi:nodetypes="ssscssccccsscscscsss" /><path
       id="path1-9-5-5"
       style="fill:#6666ff;fill-opacity:1;stroke:#000000;stroke-width:0.265"
       d="m 11.011117,15.581213 c 0.918208,0 2.054432,0.744354 2.054432,1.662562 0,0.918208 -1.136225,1.662561 -2.054432,1.662561 -0.918207,0 -1.6625613,-0.744354 -1.6625613,-1.662561 0,-0.918207 0.7443533,-1.662562 1.6625613,-1.662562 z"
       sodipodi:nodetypes="zzzzz" /><path
       id="path1-7-1-2-4-2"
       style="fill:#ffffff;stroke:#000000;stroke-width:0.265;stroke-dasharray:none"
       d="m 5.388327,17.769769 c 0.207214,0 0.738307,0.227855 0.738307,0.588877 0,0.361023 -0.541773,0.627766 -0.748987,0.627766 -0.207215,0 -0.385877,0.07027 -0.364517,-0.627766 0.02136,-0.69804 0.167981,-0.588877 0.375197,-0.588877 z"
       sodipodi:nodetypes="ssszs" /><path
       id="path1-7-1-9-0-7-5"
       style="fill:#ffffff;stroke:#000000;stroke-width:0.265;stroke-dasharray:none"
       d="m 5.410097,15.288672 c 0.207214,0 0.738307,0.227855 0.738307,0.588877 0,0.361023 -0.541773,0.627766 -0.748987,0.627766 -0.207214,0 -0.385876,0.07027 -0.364516,-0.627766 0.02136,-0.69804 0.167981,-0.588877 0.375196,-0.588877 z"
       sodipodi:nodetypes="ssszs" /><ellipse
       style="fill:#ffffff;fill-opacity:1;stroke:#000000;stroke-width:0.265;stroke-dasharray:none;stroke-opacity:1"
       id="path1-7-2-9-9-1-6-6-4"
       cx="2.3451715"
       cy="20.092649"
       rx="0.65429264"
       ry="0.80279088"
       transform="matrix(-0.67414243,0.73860137,0.73860137,0.67414243,0,0)" /><ellipse
       style="fill:#ffffff;fill-opacity:1;stroke:#000000;stroke-width:0.265;stroke-dasharray:none;stroke-opacity:1"
       id="path1-7-2-9-9-8"
       cx="19.663599"
       cy="17.466112"
       rx="0.65429264"
       ry="0.80279088" /><ellipse
       style="fill:#ffffff;fill-opacity:1;stroke:#000000;stroke-width:0.265;stroke-dasharray:none;stroke-opacity:1"
       id="path1-7-2-9-9-1-6-6"
       cx="23.972538"
       cy="-4.5964403"
       rx="0.65429264"
       ry="0.80279088"
       transform="matrix(0.73860137,0.67414243,0.67414243,-0.73860137,0,0)" /></g></svg>
