<?xml version="1.0" encoding="UTF-8" standalone="no"?>
<!-- Created with Inkscape (http://www.inkscape.org/) -->

<svg
   width="35mm"
   height="35mm"
   viewBox="0 0 35 35"
   version="1.1"
   id="svg1"
   xml:space="preserve"
   inkscape:version="1.4 (e7c3feb100, 2024-10-09)"
   sodipodi:docname="m_alternate.svg"
   xmlns:inkscape="http://www.inkscape.org/namespaces/inkscape"
   xmlns:sodipodi="http://sodipodi.sourceforge.net/DTD/sodipodi-0.dtd"
   xmlns="http://www.w3.org/2000/svg"
   xmlns:svg="http://www.w3.org/2000/svg"><sodipodi:namedview
     id="namedview1"
     pagecolor="#ffffff"
     bordercolor="#000000"
     borderopacity="0.25"
     inkscape:showpageshadow="2"
     inkscape:pageopacity="0.0"
     inkscape:pagecheckerboard="0"
     inkscape:deskcolor="#d1d1d1"
     inkscape:document-units="mm"
     inkscape:zoom="4.2968333"
     inkscape:cx="110.77926"
     inkscape:cy="74.47345"
     inkscape:window-width="1916"
     inkscape:window-height="1023"
     inkscape:window-x="0"
     inkscape:window-y="0"
     inkscape:window-maximized="0"
     inkscape:current-layer="layer1"><sodipodi:guide
       position="0.17416423,17.540036"
       orientation="0,132.28346"
       id="guide5"
       inkscape:locked="false" /><sodipodi:guide
       position="35.000001,35.000001"
       orientation="132.28346,0"
       id="guide6"
       inkscape:locked="false" /><sodipodi:guide
       position="35.000001,0"
       orientation="0,-132.28346"
       id="guide7"
       inkscape:locked="false" /><sodipodi:guide
       position="17.503506,35.914363"
       orientation="-132.28346,0"
       id="guide8"
       inkscape:locked="false" /></sodipodi:namedview><defs
     id="defs1"><inkscape:path-effect
       effect="mirror_symmetry"
       start_point="17.297909,16.234992"
       end_point="17.313303,7.810326"
       center_point="17.305606,12.022659"
       id="path-effect5"
       is_visible="true"
       lpeversion="1.2"
       lpesatellites=""
       mode="free"
       discard_orig_path="false"
       fuse_paths="true"
       oposite_fuse="false"
       split_items="false"
       split_open="false"
       link_styles="false" /><inkscape:path-effect
       effect="mirror_symmetry"
       start_point="17.297909,16.234992"
       end_point="17.313303,7.810326"
       center_point="17.305606,12.022659"
       id="path-effect5-7"
       is_visible="true"
       lpeversion="1.2"
       lpesatellites=""
       mode="free"
       discard_orig_path="false"
       fuse_paths="true"
       oposite_fuse="false"
       split_items="false"
       split_open="false"
       link_styles="false" /><inkscape:path-effect
       effect="mirror_symmetry"
       start_point="17.297909,16.234992"
       end_point="17.313303,7.810326"
       center_point="17.305606,12.022659"
       id="path-effect5-6"
       is_visible="true"
       lpeversion="1.2"
       lpesatellites=""
       mode="free"
       discard_orig_path="false"
       fuse_paths="true"
       oposite_fuse="false"
       split_items="false"
       split_open="false"
       link_styles="false" /><inkscape:path-effect
       effect="mirror_symmetry"
       start_point="17.297909,16.234992"
       end_point="17.313303,7.810326"
       center_point="17.305606,12.022659"
       id="path-effect5-3"
       is_visible="true"
       lpeversion="1.2"
       lpesatellites=""
       mode="free"
       discard_orig_path="false"
       fuse_paths="true"
       oposite_fuse="false"
       split_items="false"
       split_open="false"
       link_styles="false" /><inkscape:path-effect
       effect="mirror_symmetry"
       start_point="17.297909,16.234992"
       end_point="17.313303,7.810326"
       center_point="17.305606,12.022659"
       id="path-effect5-66"
       is_visible="true"
       lpeversion="1.2"
       lpesatellites=""
       mode="free"
       discard_orig_path="false"
       fuse_paths="true"
       oposite_fuse="false"
       split_items="false"
       split_open="false"
       link_styles="false" /><inkscape:path-effect
       effect="mirror_symmetry"
       start_point="17.297909,16.234992"
       end_point="17.313303,7.810326"
       center_point="17.305606,12.022659"
       id="path-effect5-4"
       is_visible="true"
       lpeversion="1.2"
       lpesatellites=""
       mode="free"
       discard_orig_path="false"
       fuse_paths="true"
       oposite_fuse="false"
       split_items="false"
       split_open="false"
       link_styles="false" /><inkscape:path-effect
       effect="mirror_symmetry"
       start_point="17.297909,16.234992"
       end_point="17.313303,7.810326"
       center_point="17.305606,12.022659"
       id="path-effect5-4-7"
       is_visible="true"
       lpeversion="1.2"
       lpesatellites=""
       mode="free"
       discard_orig_path="false"
       fuse_paths="true"
       oposite_fuse="false"
       split_items="false"
       split_open="false"
       link_styles="false" /><inkscape:path-effect
       effect="mirror_symmetry"
       start_point="17.297909,16.234992"
       end_point="17.313303,7.810326"
       center_point="17.305606,12.022659"
       id="path-effect5-41"
       is_visible="true"
       lpeversion="1.2"
       lpesatellites=""
       mode="free"
       discard_orig_path="false"
       fuse_paths="true"
       oposite_fuse="false"
       split_items="false"
       split_open="false"
       link_styles="false" /><inkscape:path-effect
       effect="mirror_symmetry"
       start_point="17.297909,16.234992"
       end_point="17.313303,7.810326"
       center_point="17.305606,12.022659"
       id="path-effect5-4-0"
       is_visible="true"
       lpeversion="1.2"
       lpesatellites=""
       mode="free"
       discard_orig_path="false"
       fuse_paths="true"
       oposite_fuse="false"
       split_items="false"
       split_open="false"
       link_styles="false" /><inkscape:path-effect
       effect="mirror_symmetry"
       start_point="17.493844,16.300304"
       end_point="17.509238,7.875638"
       center_point="17.501541,12.087971"
       id="path-effect5-4-0-9"
       is_visible="true"
       lpeversion="1.2"
       lpesatellites=""
       mode="free"
       discard_orig_path="false"
       fuse_paths="true"
       oposite_fuse="false"
       split_items="false"
       split_open="false"
       link_styles="false" /><inkscape:path-effect
       effect="mirror_symmetry"
       start_point="17.297909,16.234992"
       end_point="17.313303,7.810326"
       center_point="17.305606,12.022659"
       id="path-effect5-4-0-0"
       is_visible="true"
       lpeversion="1.2"
       lpesatellites=""
       mode="free"
       discard_orig_path="false"
       fuse_paths="true"
       oposite_fuse="false"
       split_items="false"
       split_open="false"
       link_styles="false" /><inkscape:path-effect
       effect="mirror_symmetry"
       start_point="17.493844,16.300304"
       end_point="17.509238,7.875638"
       center_point="17.501541,12.087971"
       id="path-effect5-4-0-9-7"
       is_visible="true"
       lpeversion="1.2"
       lpesatellites=""
       mode="free"
       discard_orig_path="false"
       fuse_paths="true"
       oposite_fuse="false"
       split_items="false"
       split_open="false"
       link_styles="false" /><inkscape:path-effect
       effect="mirror_symmetry"
       start_point="17.493844,16.300304"
       end_point="17.509238,7.875638"
       center_point="17.501541,12.087971"
       id="path-effect5-4-0-9-3"
       is_visible="true"
       lpeversion="1.2"
       lpesatellites=""
       mode="free"
       discard_orig_path="false"
       fuse_paths="true"
       oposite_fuse="false"
       split_items="false"
       split_open="false"
       link_styles="false" /><inkscape:path-effect
       effect="mirror_symmetry"
       start_point="17.297909,16.234992"
       end_point="17.313303,7.810326"
       center_point="17.305606,12.022659"
       id="path-effect5-4-6"
       is_visible="true"
       lpeversion="1.2"
       lpesatellites=""
       mode="free"
       discard_orig_path="false"
       fuse_paths="true"
       oposite_fuse="false"
       split_items="false"
       split_open="false"
       link_styles="false" /><inkscape:path-effect
       effect="mirror_symmetry"
       start_point="17.493844,16.300304"
       end_point="17.509238,7.875638"
       center_point="17.501541,12.087971"
       id="path-effect5-4-0-9-72"
       is_visible="true"
       lpeversion="1.2"
       lpesatellites=""
       mode="free"
       discard_orig_path="false"
       fuse_paths="true"
       oposite_fuse="false"
       split_items="false"
       split_open="false"
       link_styles="false" /><inkscape:path-effect
       effect="mirror_symmetry"
       start_point="17.493844,16.300304"
       end_point="17.509238,7.875638"
       center_point="17.501541,12.087971"
       id="path-effect5-4-0-9-72-8"
       is_visible="true"
       lpeversion="1.2"
       lpesatellites=""
       mode="free"
       discard_orig_path="false"
       fuse_paths="true"
       oposite_fuse="false"
       split_items="false"
       split_open="false"
       link_styles="false" /><inkscape:path-effect
       effect="mirror_symmetry"
       start_point="17.297909,16.234992"
       end_point="17.313303,7.810326"
       center_point="17.305606,12.022659"
       id="path-effect5-4-6-1"
       is_visible="true"
       lpeversion="1.2"
       lpesatellites=""
       mode="free"
       discard_orig_path="false"
       fuse_paths="true"
       oposite_fuse="false"
       split_items="false"
       split_open="false"
       link_styles="false" /></defs><g
     inkscape:label="Layer 1"
     inkscape:groupmode="layer"
     id="layer1"><path
       style="fill:#999999;fill-opacity:1;stroke:none;stroke-width:0.264999;stroke-dasharray:none;stroke-opacity:1"
       d="m 16.0625,7.5585937 c -0.262338,-0.00397 -0.518182,0.082402 -0.507812,0.2617188 0.07244,1.2524069 0.08092,3.5770765 0.509765,4.4824215 -0.437864,0.679074 -1.391782,0.06763 -2.0625,0.798829 -0.544522,0.593621 -0.451022,2.216541 -0.382812,3.285156 0.368438,0.08206 0.421271,0.02819 0.867187,-0.05078 0.100661,-0.90603 0.238281,-2.304687 0.238281,-2.304687 0.767798,-0.194469 1.915366,-0.416044 2.578125,-0.539062 0.662306,0.125439 1.80909,0.351554 2.576172,0.548828 0,0 0.13312,1.398295 0.230469,2.304687 0.445624,0.0806 0.498452,0.135402 0.867187,0.05469 0.07212,-1.068359 0.171256,-2.691503 -0.371093,-3.28711 -0.668042,-0.733643 -1.625168,-0.124018 -2.060547,-0.804687 0.432152,-0.903772 0.450328,-3.2302883 0.527344,-4.4824221 0.02205,-0.3585544 -1.02167,-0.3458071 -1.056641,0.011719 -0.100734,1.0298107 -0.213416,2.7436984 -0.427734,2.9062504 -0.121107,0.09185 -0.211094,0.116149 -0.279297,0.105468 -0.06824,0.01043 -0.16048,-0.01512 -0.28125,-0.107421 C 16.813621,10.578854 16.706345,8.8661094 16.609375,7.8359375 16.592543,7.6571119 16.324839,7.5625647 16.0625,7.5585937 Z"
       id="path4-6"
       sodipodi:nodetypes="cscsssccccc"
       transform="rotate(90,18.426836,18.638297)"
       inkscape:original-d="m 13.619049,16.386063 c -0.06821,-1.068615 -0.160951,-2.690415 0.383571,-3.284036 0.670718,-0.731197 1.624115,-0.11934 2.061979,-0.798414 -0.428846,-0.905345 -0.437758,-3.2310091 -0.510197,-4.483416 -0.02074,-0.3586326 1.022152,-0.3422582 1.055816,0.015393 0.09697,1.0301719 0.203913,2.743905 0.417636,2.907239 0.427544,0.326742 0.480507,-0.179347 0.480507,-0.179347 l 0.318037,2.834014 c 0,0 -1.966379,0.346596 -3.101806,0.634178 0,0 -0.137075,1.397987 -0.237736,2.304017 -0.445916,0.07897 -0.499369,0.132431 -0.867807,0.05037 z"
       inkscape:path-effect="#path-effect5-4-6" /><path
       id="path1-3"
       style="fill:#ff6666;fill-opacity:1;stroke:#000000;stroke-width:0.265"
       d="m 24.053305,19.174246 c -0.918208,0 -2.054432,-0.744354 -2.054432,-1.662562 0,-0.918208 1.136225,-1.662561 2.054432,-1.662561 0.918207,0 1.662563,0.744355 1.662563,1.662561 0,0.918207 -0.744355,1.662562 -1.662563,1.662562 z"
       sodipodi:nodetypes="zzzzz" /><path
       id="path1-7-1-1"
       style="fill:#ffffff;stroke:#000000;stroke-width:0.265;stroke-dasharray:none"
       d="m 29.654328,16.87749 c -0.207214,0 -0.738307,-0.227855 -0.738307,-0.588877 0,-0.361023 0.541773,-0.627766 0.748987,-0.627766 0.207214,0 0.385876,-0.07027 0.364516,0.627766 -0.02136,0.69804 -0.167981,0.588877 -0.375196,0.588877 z"
       sodipodi:nodetypes="ssszs" /><path
       id="path1-7-1-9-7"
       style="fill:#ffffff;stroke:#000000;stroke-width:0.265;stroke-dasharray:none"
       d="m 29.632558,19.358587 c -0.207214,0 -0.738307,-0.227855 -0.738307,-0.588877 0,-0.361023 0.541773,-0.627766 0.748987,-0.627766 0.207213,0 0.385875,-0.07027 0.364515,0.627766 -0.02136,0.69804 -0.167981,0.588877 -0.375195,0.588877 z"
       sodipodi:nodetypes="ssszs" /><path
       id="path1-3-0"
       style="fill:#6666ff;fill-opacity:1;stroke:#000000;stroke-width:0.265"
       d="m 11.143276,15.841896 c 0.918208,0 2.054431,0.744354 2.054431,1.662562 0,0.918208 -1.136225,1.662561 -2.054431,1.662561 -0.918207,0 -1.662561,-0.744355 -1.662561,-1.662561 0,-0.918207 0.744353,-1.662562 1.662561,-1.662562 z"
       sodipodi:nodetypes="zzzzz" /><path
       style="fill:#999999;fill-opacity:1;stroke:none;stroke-width:0.264999;stroke-dasharray:none;stroke-opacity:1"
       d="m 16.0625,7.5585937 c -0.262338,-0.00397 -0.518182,0.082402 -0.507812,0.2617188 0.07244,1.2524069 0.08092,3.5770765 0.509765,4.4824215 -0.437864,0.679074 -1.391782,0.06763 -2.0625,0.798829 -0.544522,0.593621 -0.451022,2.216541 -0.382812,3.285156 0.368438,0.08206 0.421271,0.02819 0.867187,-0.05078 0.100661,-0.90603 0.238281,-2.304687 0.238281,-2.304687 0.767798,-0.194469 1.915366,-0.416044 2.578125,-0.539062 0.662306,0.125439 1.80909,0.351554 2.576172,0.548828 0,0 0.13312,1.398295 0.230469,2.304687 0.445624,0.0806 0.498452,0.135402 0.867187,0.05469 0.07212,-1.068359 0.171256,-2.691503 -0.371093,-3.28711 -0.668042,-0.733643 -1.625168,-0.124018 -2.060547,-0.804687 0.432152,-0.903772 0.450328,-3.2302883 0.527344,-4.4824221 0.02205,-0.3585544 -1.02167,-0.3458071 -1.056641,0.011719 -0.100734,1.0298107 -0.213416,2.7436984 -0.427734,2.9062504 -0.121107,0.09185 -0.211094,0.116149 -0.279297,0.105468 -0.06824,0.01043 -0.16048,-0.01512 -0.28125,-0.107421 C 16.813621,10.578854 16.706345,8.8661094 16.609375,7.8359375 16.592543,7.6571119 16.324839,7.5625647 16.0625,7.5585937 Z"
       id="path4-6-1"
       sodipodi:nodetypes="cscsssccccc"
       transform="translate(0.199782,-2.329318)"
       inkscape:original-d="m 13.619049,16.386063 c -0.06821,-1.068615 -0.160951,-2.690415 0.383571,-3.284036 0.670718,-0.731197 1.624115,-0.11934 2.061979,-0.798414 -0.428846,-0.905345 -0.437758,-3.2310091 -0.510197,-4.483416 -0.02074,-0.3586326 1.022152,-0.3422582 1.055816,0.015393 0.09697,1.0301719 0.203913,2.743905 0.417636,2.907239 0.427544,0.326742 0.480507,-0.179347 0.480507,-0.179347 l 0.318037,2.834014 c 0,0 -1.966379,0.346596 -3.101806,0.634178 0,0 -0.137075,1.397987 -0.237736,2.304017 -0.445916,0.07897 -0.499369,0.132431 -0.867807,0.05037 z"
       inkscape:path-effect="#path-effect5-4-6-1" /><path
       id="path1-3-1"
       style="fill:#4d4d4d;fill-opacity:1;stroke:#000000;stroke-width:0.265"
       d="m 19.162562,10.68251 c 0,0.918208 -0.744354,2.054432 -1.662562,2.054432 -0.918208,0 -1.662561,-1.136225 -1.662561,-2.054432 0,-0.918207 0.744355,-1.662562 1.662561,-1.662562 0.918207,0 1.662562,0.744354 1.662562,1.662562 z"
       sodipodi:nodetypes="zzzzz" /><path
       id="path1-7-1-1-0"
       style="fill:#ffffff;stroke:#000000;stroke-width:0.265;stroke-dasharray:none"
       d="m 16.865806,5.081488 c 0,0.207214 -0.227855,0.738307 -0.588877,0.738307 -0.361023,0 -0.627766,-0.541773 -0.627766,-0.748987 0,-0.207214 -0.07027,-0.385876 0.627766,-0.364516 0.69804,0.02136 0.588877,0.167981 0.588877,0.375196 z"
       sodipodi:nodetypes="ssszs" /><path
       id="path1-7-1-9-7-3"
       style="fill:#ffffff;stroke:#000000;stroke-width:0.265;stroke-dasharray:none"
       d="m 19.346903,5.103258 c 0,0.207214 -0.227855,0.738307 -0.588877,0.738307 -0.361023,0 -0.627766,-0.541773 -0.627766,-0.748987 0,-0.207213 -0.07027,-0.385875 0.627766,-0.364515 0.69804,0.02136 0.588877,0.167981 0.588877,0.375195 z"
       sodipodi:nodetypes="ssszs" /><path
       id="path1-3-0-4"
       style="fill:#66ff66;fill-opacity:1;stroke:#000000;stroke-width:0.265"
       d="m 15.850695,23.881474 c 0,-0.918208 0.744354,-2.054431 1.662562,-2.054431 0.918208,0 1.662561,1.136225 1.662561,2.054431 0,0.918207 -0.744355,1.662561 -1.662561,1.662561 -0.918207,0 -1.662562,-0.744353 -1.662562,-1.662561 z"
       sodipodi:nodetypes="zzzzz" /><path
       style="fill:#999999;fill-opacity:1;stroke:none;stroke-width:0.264999;stroke-dasharray:none;stroke-opacity:1"
       d="m 19.126979,23.406329 c 0.460115,-0.333016 0.660953,-0.647232 0.904297,-1.109375 0.323276,-0.923645 0.431758,-1.969348 1.064453,-1.953125 0.424525,0.01089 -0.01979,1.934235 -0.140625,2.367187 -0.162794,0.58329 -0.70324,1.708559 -1.240234,2.023438 -0.411803,0.24147 -1.573585,0.235512 -2.197266,0.21289 -0.623594,0.0249 -1.788489,0.03489 -2.201172,-0.205078 -0.538141,-0.312914 -1.081169,-1.434887 -1.246093,-2.017578 -0.122417,-0.432508 -0.574873,-2.356704 -0.150391,-2.369141 0.632631,-0.01853 0.745616,1.028715 1.072266,1.951172 0.245031,0.461251 0.446874,0.774137 0.908203,1.105469 0.229648,-0.944676 -0.237438,-2.597475 -0.314453,-3.849609 -0.02205,-0.358555 1.019715,-0.423932 1.054687,-0.06641 0.05036,0.514905 0.184378,0.627292 0.117188,1.156249 0.217322,0.452837 0.511517,1.061298 0.58789,1.654297 0.05913,0.02209 0.114606,0.02958 0.166016,0.0293 0.05141,9.3e-5 0.106965,-0.0089 0.166016,-0.03125 0.36132,-0.674692 1.214201,-0.330139 1.449218,1.101563 z"
       id="path4-6-3-2-0"
       sodipodi:nodetypes="cscccccssscssccccc" /><path
       style="fill:#999999;fill-opacity:1;stroke:none;stroke-width:0.264999;stroke-dasharray:none;stroke-opacity:1"
       d="m 11.593671,19.126979 c 0.333016,0.460115 0.647232,0.660953 1.109375,0.904297 0.923645,0.323276 1.969348,0.431758 1.953125,1.064453 -0.01089,0.424525 -1.934235,-0.01979 -2.367187,-0.140625 -0.58329,-0.162794 -1.708559,-0.70324 -2.023438,-1.240234 -0.24147,-0.411803 -0.235512,-1.573585 -0.21289,-2.197266 -0.0249,-0.623594 -0.03489,-1.788489 0.205078,-2.201172 0.312914,-0.538141 1.434887,-1.081169 2.017578,-1.246093 0.432508,-0.122417 2.356704,-0.574873 2.369141,-0.150391 0.01853,0.632631 -1.028715,0.745616 -1.951172,1.072266 -0.461251,0.245031 -0.774137,0.446874 -1.105469,0.908203 0.944676,0.229648 2.597475,-0.237438 3.849609,-0.314453 0.358555,-0.02205 0.423932,1.019715 0.06641,1.054687 -0.514905,0.05036 -0.627292,0.184378 -1.156249,0.117188 -0.452837,0.217322 -1.061298,0.511517 -1.654297,0.58789 -0.02209,0.05913 -0.02958,0.114606 -0.0293,0.166016 -9.3e-5,0.05141 0.0089,0.106965 0.03125,0.166016 0.674692,0.36132 0.330139,1.214201 -1.101563,1.449218 z"
       id="path4-6-3-2-0-9"
       sodipodi:nodetypes="cscccccssscssccccc" /><ellipse
       style="fill:#ffffff;fill-opacity:1;stroke:#000000;stroke-width:0.265;stroke-dasharray:none;stroke-opacity:1"
       id="path1-7-2-9-9-1-3"
       cx="4.8378143"
       cy="-24.745104"
       rx="0.65429264"
       ry="0.80279088"
       transform="rotate(135)" /><ellipse
       style="fill:#ffffff;fill-opacity:1;stroke:#000000;stroke-width:0.265;stroke-dasharray:none;stroke-opacity:1"
       id="path1-7-2-9-9-1-9-9"
       cx="29.578428"
       cy="-0.16967392"
       rx="0.65429264"
       ry="0.80279088"
       transform="rotate(45)" /><path
       id="path1-7-1-1-4-1"
       style="fill:#ffffff;stroke:#000000;stroke-width:0.265;stroke-dasharray:none"
       d="m 18.338777,21.479632 c -0.682667,-0.04836 -0.503895,1.102807 -0.501699,1.310009 0.0022,0.207202 -0.395949,1.167629 0.463464,1.16196 1.042508,-0.0069 0.653086,-2.428412 0.03823,-2.471969 z"
       sodipodi:nodetypes="sszs" /><path
       id="path1-7-1-1-4-5-9"
       style="fill:#ffffff;stroke:#000000;stroke-width:0.265;stroke-dasharray:none"
       d="m 16.15857,17.775463 c 0.682667,-0.04836 0.503895,1.102807 0.501699,1.310009 -0.0022,0.207202 0.395949,1.167629 -0.463464,1.16196 -1.042508,-0.0069 -0.653086,-2.428412 -0.03823,-2.471969 z"
       sodipodi:nodetypes="sszs" /><ellipse
       style="fill:#ffffff;fill-opacity:1;stroke:#000000;stroke-width:0.265;stroke-dasharray:none;stroke-opacity:1"
       id="path1-7-2-9-9-1-9"
       cx="-19.940952"
       cy="-0.16428566"
       rx="0.65429264"
       ry="0.80279088"
       transform="rotate(-135)" /><ellipse
       style="fill:#ffffff;fill-opacity:1;stroke:#000000;stroke-width:0.265;stroke-dasharray:none;stroke-opacity:1"
       id="path1-7-2-9-9-1"
       cx="4.821434"
       cy="24.926672"
       rx="0.65429264"
       ry="0.80279088"
       transform="rotate(-45)" /><path
       id="path1-7-1-1-4-5"
       style="fill:#ffffff;stroke:#000000;stroke-width:0.265;stroke-dasharray:none"
       d="m 17.249287,16.149771 c 0.04836,0.682667 -1.102807,0.503895 -1.310009,0.501699 -0.207202,-0.0022 -1.167629,0.395949 -1.16196,-0.463464 0.0069,-1.042508 2.428412,-0.653086 2.471969,-0.03823 z"
       sodipodi:nodetypes="sszs" /><path
       id="path1-7-1-1-4"
       style="fill:#ffffff;stroke:#000000;stroke-width:0.265;stroke-dasharray:none"
       d="m 13.545118,18.329978 c 0.04836,-0.682667 -1.102807,-0.503895 -1.310009,-0.501699 -0.207202,0.0022 -1.167629,-0.395949 -1.16196,0.463464 0.0069,1.042508 2.428412,0.653086 2.471969,0.03823 z"
       sodipodi:nodetypes="sszs" /></g></svg>
