<?xml version="1.0" encoding="UTF-8" standalone="no"?>
<!-- Created with Inkscape (http://www.inkscape.org/) -->

<svg
   width="35mm"
   height="35mm"
   viewBox="0 0 35 35"
   version="1.1"
   id="svg1"
   xml:space="preserve"
   inkscape:version="1.4 (e7c3feb100, 2024-10-09)"
   sodipodi:docname="n_alternate.svg"
   xmlns:inkscape="http://www.inkscape.org/namespaces/inkscape"
   xmlns:sodipodi="http://sodipodi.sourceforge.net/DTD/sodipodi-0.dtd"
   xmlns="http://www.w3.org/2000/svg"
   xmlns:svg="http://www.w3.org/2000/svg"><sodipodi:namedview
     id="namedview1"
     pagecolor="#ffffff"
     bordercolor="#000000"
     borderopacity="0.25"
     inkscape:showpageshadow="2"
     inkscape:pageopacity="0.0"
     inkscape:pagecheckerboard="0"
     inkscape:deskcolor="#d1d1d1"
     inkscape:document-units="mm"
     inkscape:zoom="3.03832"
     inkscape:cx="148.27273"
     inkscape:cy="108.61266"
     inkscape:window-width="1916"
     inkscape:window-height="1023"
     inkscape:window-x="0"
     inkscape:window-y="0"
     inkscape:window-maximized="0"
     inkscape:current-layer="layer1"><sodipodi:guide
       position="0.17416423,17.540036"
       orientation="0,132.28346"
       id="guide5"
       inkscape:locked="false" /><sodipodi:guide
       position="35.000001,35.000001"
       orientation="132.28346,0"
       id="guide6"
       inkscape:locked="false" /><sodipodi:guide
       position="35.000001,0"
       orientation="0,-132.28346"
       id="guide7"
       inkscape:locked="false" /><sodipodi:guide
       position="17.503506,35.914363"
       orientation="-132.28346,0"
       id="guide8"
       inkscape:locked="false" /></sodipodi:namedview><defs
     id="defs1"><inkscape:path-effect
       effect="mirror_symmetry"
       start_point="17.297909,16.234992"
       end_point="17.313303,7.810326"
       center_point="17.305606,12.022659"
       id="path-effect5"
       is_visible="true"
       lpeversion="1.2"
       lpesatellites=""
       mode="free"
       discard_orig_path="false"
       fuse_paths="true"
       oposite_fuse="false"
       split_items="false"
       split_open="false"
       link_styles="false" /><inkscape:path-effect
       effect="mirror_symmetry"
       start_point="17.297909,16.234992"
       end_point="17.313303,7.810326"
       center_point="17.305606,12.022659"
       id="path-effect5-7"
       is_visible="true"
       lpeversion="1.2"
       lpesatellites=""
       mode="free"
       discard_orig_path="false"
       fuse_paths="true"
       oposite_fuse="false"
       split_items="false"
       split_open="false"
       link_styles="false" /><inkscape:path-effect
       effect="mirror_symmetry"
       start_point="17.297909,16.234992"
       end_point="17.313303,7.810326"
       center_point="17.305606,12.022659"
       id="path-effect5-6"
       is_visible="true"
       lpeversion="1.2"
       lpesatellites=""
       mode="free"
       discard_orig_path="false"
       fuse_paths="true"
       oposite_fuse="false"
       split_items="false"
       split_open="false"
       link_styles="false" /><inkscape:path-effect
       effect="mirror_symmetry"
       start_point="17.297909,16.234992"
       end_point="17.313303,7.810326"
       center_point="17.305606,12.022659"
       id="path-effect5-3"
       is_visible="true"
       lpeversion="1.2"
       lpesatellites=""
       mode="free"
       discard_orig_path="false"
       fuse_paths="true"
       oposite_fuse="false"
       split_items="false"
       split_open="false"
       link_styles="false" /><inkscape:path-effect
       effect="mirror_symmetry"
       start_point="17.297909,16.234992"
       end_point="17.313303,7.810326"
       center_point="17.305606,12.022659"
       id="path-effect5-66"
       is_visible="true"
       lpeversion="1.2"
       lpesatellites=""
       mode="free"
       discard_orig_path="false"
       fuse_paths="true"
       oposite_fuse="false"
       split_items="false"
       split_open="false"
       link_styles="false" /><inkscape:path-effect
       effect="mirror_symmetry"
       start_point="17.297909,16.234992"
       end_point="17.313303,7.810326"
       center_point="17.305606,12.022659"
       id="path-effect5-4"
       is_visible="true"
       lpeversion="1.2"
       lpesatellites=""
       mode="free"
       discard_orig_path="false"
       fuse_paths="true"
       oposite_fuse="false"
       split_items="false"
       split_open="false"
       link_styles="false" /><inkscape:path-effect
       effect="mirror_symmetry"
       start_point="17.297909,16.234992"
       end_point="17.313303,7.810326"
       center_point="17.305606,12.022659"
       id="path-effect5-4-7"
       is_visible="true"
       lpeversion="1.2"
       lpesatellites=""
       mode="free"
       discard_orig_path="false"
       fuse_paths="true"
       oposite_fuse="false"
       split_items="false"
       split_open="false"
       link_styles="false" /><inkscape:path-effect
       effect="mirror_symmetry"
       start_point="17.297909,16.234992"
       end_point="17.313303,7.810326"
       center_point="17.305606,12.022659"
       id="path-effect5-41"
       is_visible="true"
       lpeversion="1.2"
       lpesatellites=""
       mode="free"
       discard_orig_path="false"
       fuse_paths="true"
       oposite_fuse="false"
       split_items="false"
       split_open="false"
       link_styles="false" /><inkscape:path-effect
       effect="mirror_symmetry"
       start_point="17.297909,16.234992"
       end_point="17.313303,7.810326"
       center_point="17.305606,12.022659"
       id="path-effect5-4-0"
       is_visible="true"
       lpeversion="1.2"
       lpesatellites=""
       mode="free"
       discard_orig_path="false"
       fuse_paths="true"
       oposite_fuse="false"
       split_items="false"
       split_open="false"
       link_styles="false" /><inkscape:path-effect
       effect="mirror_symmetry"
       start_point="17.493844,16.300304"
       end_point="17.509238,7.875638"
       center_point="17.501541,12.087971"
       id="path-effect5-4-0-9"
       is_visible="true"
       lpeversion="1.2"
       lpesatellites=""
       mode="free"
       discard_orig_path="false"
       fuse_paths="true"
       oposite_fuse="false"
       split_items="false"
       split_open="false"
       link_styles="false" /><inkscape:path-effect
       effect="mirror_symmetry"
       start_point="17.297909,16.234992"
       end_point="17.313303,7.810326"
       center_point="17.305606,12.022659"
       id="path-effect5-4-0-0"
       is_visible="true"
       lpeversion="1.2"
       lpesatellites=""
       mode="free"
       discard_orig_path="false"
       fuse_paths="true"
       oposite_fuse="false"
       split_items="false"
       split_open="false"
       link_styles="false" /><inkscape:path-effect
       effect="mirror_symmetry"
       start_point="17.493844,16.300304"
       end_point="17.509238,7.875638"
       center_point="17.501541,12.087971"
       id="path-effect5-4-0-9-7"
       is_visible="true"
       lpeversion="1.2"
       lpesatellites=""
       mode="free"
       discard_orig_path="false"
       fuse_paths="true"
       oposite_fuse="false"
       split_items="false"
       split_open="false"
       link_styles="false" /><inkscape:path-effect
       effect="mirror_symmetry"
       start_point="17.493844,16.300304"
       end_point="17.509238,7.875638"
       center_point="17.501541,12.087971"
       id="path-effect5-4-0-9-3"
       is_visible="true"
       lpeversion="1.2"
       lpesatellites=""
       mode="free"
       discard_orig_path="false"
       fuse_paths="true"
       oposite_fuse="false"
       split_items="false"
       split_open="false"
       link_styles="false" /><inkscape:path-effect
       effect="mirror_symmetry"
       start_point="17.297909,16.234992"
       end_point="17.313303,7.810326"
       center_point="17.305606,12.022659"
       id="path-effect5-4-6"
       is_visible="true"
       lpeversion="1.2"
       lpesatellites=""
       mode="free"
       discard_orig_path="false"
       fuse_paths="true"
       oposite_fuse="false"
       split_items="false"
       split_open="false"
       link_styles="false" /><inkscape:path-effect
       effect="mirror_symmetry"
       start_point="17.493844,16.300304"
       end_point="17.509238,7.875638"
       center_point="17.501541,12.087971"
       id="path-effect5-4-0-9-72"
       is_visible="true"
       lpeversion="1.2"
       lpesatellites=""
       mode="free"
       discard_orig_path="false"
       fuse_paths="true"
       oposite_fuse="false"
       split_items="false"
       split_open="false"
       link_styles="false" /><inkscape:path-effect
       effect="mirror_symmetry"
       start_point="17.493844,16.300304"
       end_point="17.509238,7.875638"
       center_point="17.501541,12.087971"
       id="path-effect5-4-0-9-72-8"
       is_visible="true"
       lpeversion="1.2"
       lpesatellites=""
       mode="free"
       discard_orig_path="false"
       fuse_paths="true"
       oposite_fuse="false"
       split_items="false"
       split_open="false"
       link_styles="false" /><inkscape:path-effect
       effect="mirror_symmetry"
       start_point="17.297909,16.234992"
       end_point="17.313303,7.810326"
       center_point="17.305606,12.022659"
       id="path-effect5-4-6-1"
       is_visible="true"
       lpeversion="1.2"
       lpesatellites=""
       mode="free"
       discard_orig_path="false"
       fuse_paths="true"
       oposite_fuse="false"
       split_items="false"
       split_open="false"
       link_styles="false" /><inkscape:path-effect
       effect="mirror_symmetry"
       start_point="17.297909,16.234992"
       end_point="17.313303,7.810326"
       center_point="17.305606,12.022659"
       id="path-effect5-4-6-2"
       is_visible="true"
       lpeversion="1.2"
       lpesatellites=""
       mode="free"
       discard_orig_path="false"
       fuse_paths="true"
       oposite_fuse="false"
       split_items="false"
       split_open="false"
       link_styles="false" /></defs><g
     inkscape:label="Layer 1"
     inkscape:groupmode="layer"
     id="layer1"><path
       style="fill:#999999;fill-opacity:1;stroke:none;stroke-width:0.1"
       d="m 23.429076,18.26471 c 0,0 2.866183,-1.159337 3.129964,-0.0949 0.216557,0.873883 -2.78927,1.198154 -2.78927,1.198154 z"
       id="path2"
       sodipodi:nodetypes="cscc" /><path
       id="path1-7-1-1-6"
       style="fill:#ffffff;stroke:#000000;stroke-width:0.265;stroke-dasharray:none"
       d="m 26.621721,18.803515 c -0.204674,0.03234 -0.764826,-0.109807 -0.821184,-0.466404 -0.05635,-0.356598 0.437134,-0.704644 0.641807,-0.73699 0.204675,-0.03235 0.370175,-0.129646 0.458046,0.563165 0.08787,0.692818 -0.07399,0.607881 -0.278669,0.640229 z"
       sodipodi:nodetypes="ssszs" /><path
       style="fill:#999999;fill-opacity:1;stroke:none;stroke-width:0.264999;stroke-dasharray:none;stroke-opacity:1"
       d="m 23.622663,21.536601 c 0.287904,0.642494 0.419351,2.185506 0.849818,2.275006 0.27565,0.05731 0.657625,0.02107 0.827556,-0.441937 0.08913,-0.242844 -0.206055,-1.420743 -0.665371,-2.04144 -0.01263,-0.765105 -1.043061,-2.659112 -1.389625,-3.066881 0.368024,-1.013604 -0.05377,-2.302045 -0.393301,-3.357384 0.03109,-0.977486 0.07758,-0.974289 -0.276476,-2.069932 -0.514018,-0.226126 -0.352434,-0.381087 -0.763413,-0.08325 -0.476228,0.345116 -0.06508,1.68293 0.100358,2.441155 0.160642,0.736224 0.39873,1.658315 0.103261,2.007916 -0.984826,-0.183514 -3.236771,0.401076 -4.466173,0.65076 -0.352043,0.0715 -0.0696,1.076359 0.2848,1.017604 1.331274,-0.263933 3.42821,-0.487152 4.755539,-0.579614 0.0324,0.880434 0.723934,2.558222 1.033027,3.248 z"
       id="path4-6-8"
       sodipodi:nodetypes="sssccccssccccs" /><ellipse
       style="fill:#ffffff;fill-opacity:1;stroke:#000000;stroke-width:0.265;stroke-dasharray:none;stroke-opacity:1"
       id="path1-7-2-9-9-1-3-1"
       cx="18.053816"
       cy="29.033258"
       rx="0.65429264"
       ry="0.80279088"
       transform="rotate(-15)" /><path
       id="path1-3-8"
       style="fill:#ff6666;fill-opacity:1;stroke:#000000;stroke-width:0.265"
       d="m 22.586591,16.614222 c 0.88692,-0.23765 2.177081,0.187265 2.414731,1.074185 0.23765,0.886921 -0.667206,1.899988 -1.554126,2.137637 -0.88692,0.23765 -1.798564,-0.288689 -2.036213,-1.175608 -0.23765,-0.88692 0.288687,-1.798564 1.175608,-2.036214 z"
       sodipodi:nodetypes="zzzzz" /><path
       id="path1-7-1-9-7-31"
       style="fill:#ffffff;stroke:#000000;stroke-width:0.265;stroke-dasharray:none"
       d="m 17.149738,17.880178 c 0.200153,-0.05363 0.772123,0.029 0.865562,0.377724 0.09344,0.348721 -0.360834,0.746597 -0.560988,0.800227 -0.200152,0.05363 -0.354539,0.167748 -0.514572,-0.512032 -0.160034,-0.679783 0.0098,-0.612288 0.209998,-0.665919 z"
       sodipodi:nodetypes="ssszs" /><path
       style="fill:#999999;fill-opacity:1;stroke:none;stroke-width:0.264999;stroke-dasharray:none;stroke-opacity:1"
       d="m 5.743468,14.702721 c -0.004,-0.262339 0.0824,-0.518182 0.261719,-0.507812 1.252407,0.07244 3.577077,0.08092 4.482422,0.509765 0.679074,-0.437864 -0.271038,-1.514935 0.460159,-2.185653 0.593621,-0.544522 1.163524,-1.012412 1.992052,-1.460398 0.565672,-0.305859 1.062412,0.356554 0.718925,0.65167 -0.690514,0.593272 -1.02698,0.715498 -1.719714,1.377444 -0.194468,0.767798 -0.13895,2.192459 -0.261969,2.855218 0.12544,0.662306 0.751801,2.024607 0.949075,2.791689 0,0 1.459873,0.841248 2.366265,0.938597 0.0806,0.445624 -0.742061,0.590817 -0.822773,0.959552 -1.068359,-0.281944 -2.054855,-0.665632 -2.548195,-1.279344 -0.590714,-0.734845 -0.447294,-1.732927 -1.127963,-2.168306 -0.903772,0.432152 -3.230289,0.450328 -4.482422,0.527344 -0.358555,0.02205 -0.345807,-1.02167 0.01172,-1.056641 1.02981,-0.100734 2.743698,-0.213416 2.90625,-0.427734 0.09185,-0.121107 0.116149,-0.211094 0.105468,-0.279297 0.01043,-0.06824 -0.01512,-0.16048 -0.107422,-0.28125 C 8.76373,15.453842 7.050985,15.346566 6.020813,15.249596 5.841988,15.232766 5.74744,14.96506 5.743468,14.702721 Z"
       id="path4-6-1-5"
       sodipodi:nodetypes="cscssscccccscssscsscc" /><ellipse
       style="fill:#ffffff;fill-opacity:1;stroke:#000000;stroke-width:0.265;stroke-dasharray:none;stroke-opacity:1"
       id="path1-7-2-9-9-1-9-6"
       cx="3.974659"
       cy="24.751434"
       rx="0.65429264"
       ry="0.80279088"
       transform="matrix(-0.70710678,0.70710678,0.70710678,0.70710678,0,0)" /><path
       id="path1-3-1-5"
       style="fill:#6666ff;fill-opacity:1;stroke:#000000;stroke-width:0.265"
       d="m 11.196697,17.603003 c 0.918208,0 2.054433,-0.744354 2.054433,-1.662562 0,-0.918208 -1.136226,-1.662561 -2.054433,-1.662561 -0.918207,0 -1.662562,0.744355 -1.662562,1.662561 0,0.918207 0.744354,1.662562 1.662562,1.662562 z"
       sodipodi:nodetypes="zzzzz" /><path
       id="path1-7-1-1-0-9"
       style="fill:#ffffff;stroke:#000000;stroke-width:0.265;stroke-dasharray:none"
       d="m 5.595675,15.306247 c 0.207214,0 0.738307,-0.227855 0.738307,-0.588877 0,-0.361023 -0.541773,-0.627766 -0.748987,-0.627766 -0.207214,0 -0.385876,-0.07027 -0.364516,0.627766 0.02136,0.69804 0.167981,0.588877 0.375196,0.588877 z"
       sodipodi:nodetypes="ssszs" /><path
       id="path1-7-1-9-7-3-8"
       style="fill:#ffffff;stroke:#000000;stroke-width:0.265;stroke-dasharray:none"
       d="m 5.617445,17.787344 c 0.207214,0 0.738307,-0.227855 0.738307,-0.588877 0,-0.361023 -0.541773,-0.627766 -0.748987,-0.627766 -0.207213,0 -0.385875,-0.07027 -0.364515,0.627766 0.02136,0.69804 0.167981,0.588877 0.375195,0.588877 z"
       sodipodi:nodetypes="ssszs" /><path
       style="fill:#999999;fill-opacity:1;stroke:none;stroke-width:0.1"
       d="m 16.835917,11.878147 c 0,0 0.429077,-3.061856 1.482797,-2.758078 0.865084,0.249398 -0.357003,3.014656 -0.357003,3.014656 z"
       id="path2-9"
       sodipodi:nodetypes="cscc" /><path
       id="path1-7-1-1-6-0"
       style="fill:#ffffff;stroke:#000000;stroke-width:0.265;stroke-dasharray:none"
       d="M 18.898858,9.382638 C 18.824538,9.576063 18.42135,9.990092 18.084349,9.860602 17.747349,9.731107 17.692677,9.129711 17.767,8.936285 17.84132,8.742859 17.83981,8.550882 18.483739,8.821189 19.12767,9.091501 18.973181,9.18921 18.898858,9.382638 Z"
       sodipodi:nodetypes="ssszs" /><path
       style="fill:#999999;fill-opacity:1;stroke:none;stroke-width:0.264999;stroke-dasharray:none;stroke-opacity:1"
       d="m 19.766251,13.346441 c 0.700368,0.07191 2.102379,0.729585 2.395123,0.401539 0.187458,-0.210064 0.347056,-0.558987 0.03105,-0.937652 -0.165745,-0.198609 -1.333427,-0.531924 -2.100624,-0.444493 -0.668914,-0.371617 -2.824389,-0.426238 -3.35081,-0.329989 -0.693795,-0.82552 -2.020511,-1.104462 -3.10423,-1.338084 -0.830985,-0.515663 -0.80497,-0.55433 -1.930852,-0.79553 -0.452839,0.332089 -0.506247,0.114672 -0.453806,0.619508 0.06077,0.584983 1.424919,0.897829 2.164282,1.133665 0.71791,0.228992 1.635508,0.483848 1.790537,0.914531 -0.651341,0.761128 -1.271044,3.003664 -1.669512,4.1932 -0.114099,0.340629 0.897356,0.598451 1.023671,0.262158 0.437065,-1.284884 1.292219,-3.212493 1.875809,-4.408225 0.77868,0.412155 2.577452,0.652166 3.329364,0.729372 z"
       id="path4-6-8-8"
       sodipodi:nodetypes="sssccccssccccs" /><path
       id="path1-3-8-5"
       style="fill:#4d4d4d;fill-opacity:1;stroke:#000000;stroke-width:0.265"
       d="m 14.98531,11.782517 c 0.237649,-0.886921 1.250716,-1.791776 2.137637,-1.554126 0.886921,0.237649 1.311834,1.527811 1.074185,2.414731 -0.23765,0.88692 -1.149294,1.413257 -2.036213,1.175608 -0.88692,-0.237649 -1.413259,-1.149292 -1.175609,-2.036213 z"
       sodipodi:nodetypes="zzzzz" /><path
       style="fill:#999999;fill-opacity:1;stroke:none;stroke-width:0.264999;stroke-dasharray:none;stroke-opacity:1"
       d="m 20.29728,29.256532 c 0.262339,0.004 0.518182,-0.0824 0.507812,-0.261719 -0.07244,-1.252407 -0.08092,-3.577076 -0.509765,-4.482421 0.437864,-0.679074 1.514935,0.271038 2.185653,-0.460159 0.544522,-0.593621 1.012412,-1.163524 1.460398,-1.992052 0.305859,-0.565672 -0.356554,-1.062412 -0.65167,-0.718925 -0.593272,0.690514 -0.715498,1.02698 -1.377444,1.719714 -0.767798,0.194468 -2.192459,0.13895 -2.855218,0.261969 -0.662306,-0.12544 -2.024607,-0.751801 -2.791689,-0.949075 0,0 -0.841248,-1.459873 -0.938597,-2.366265 -0.445624,-0.0806 -0.590817,0.742061 -0.959552,0.822773 0.281944,1.068359 0.665632,2.054855 1.279344,2.548195 0.734845,0.590714 1.732927,0.447294 2.168306,1.127963 -0.432152,0.903772 -0.450328,3.230288 -0.527344,4.482421 -0.02205,0.358555 1.02167,0.345807 1.056641,-0.01172 0.100734,-1.02981 0.213416,-2.743698 0.427734,-2.90625 0.121107,-0.09185 0.211094,-0.116149 0.279297,-0.105468 0.06824,-0.01043 0.16048,0.01512 0.28125,0.107422 0.213723,0.163335 0.320999,1.87608 0.417969,2.906252 0.01683,0.178825 0.284536,0.273373 0.546875,0.277345 z"
       id="path4-6-1-5-0"
       sodipodi:nodetypes="cscssscccccscssscsscc" /><ellipse
       style="fill:#ffffff;fill-opacity:1;stroke:#000000;stroke-width:0.265;stroke-dasharray:none;stroke-opacity:1"
       id="path1-7-2-9-9-1-9-6-3"
       cx="3.974659"
       cy="-24.746037"
       rx="0.65429264"
       ry="0.80279088"
       transform="rotate(135)" /><ellipse
       style="fill:#ffffff;fill-opacity:1;stroke:#000000;stroke-width:0.265;stroke-dasharray:none;stroke-opacity:1"
       id="path1-7-2-9-9-1-3-11-0"
       cx="32.036488"
       cy="-1.6677895"
       rx="0.65429264"
       ry="0.80279088"
       transform="rotate(45)" /><path
       id="path1-3-1-5-4"
       style="fill:#66ff66;fill-opacity:1;stroke:#000000;stroke-width:0.265"
       d="m 17.396998,23.803304 c 0,-0.918208 0.744354,-2.054433 1.662562,-2.054433 0.918208,0 1.662561,1.136226 1.662561,2.054433 0,0.918207 -0.744355,1.662562 -1.662561,1.662562 -0.918207,0 -1.662562,-0.744354 -1.662562,-1.662562 z"
       sodipodi:nodetypes="zzzzz" /><path
       id="path1-7-1-1-0-9-4"
       style="fill:#ffffff;stroke:#000000;stroke-width:0.265;stroke-dasharray:none"
       d="m 19.693754,29.404325 c 0,-0.207214 0.227855,-0.738307 0.588877,-0.738307 0.361023,0 0.627766,0.541773 0.627766,0.748987 0,0.207214 0.07027,0.385876 -0.627766,0.364516 -0.69804,-0.02136 -0.588877,-0.167981 -0.588877,-0.375196 z"
       sodipodi:nodetypes="ssszs" /><path
       id="path1-7-1-9-7-3-8-4"
       style="fill:#ffffff;stroke:#000000;stroke-width:0.265;stroke-dasharray:none"
       d="m 17.212657,29.382555 c 0,-0.207214 0.227855,-0.738307 0.588877,-0.738307 0.361023,0 0.627766,0.541773 0.627766,0.748987 0,0.207213 0.07027,0.385875 -0.627766,0.364515 -0.69804,-0.02136 -0.588877,-0.167981 -0.588877,-0.375195 z"
       sodipodi:nodetypes="ssszs" /><path
       id="path1-7-1-9-7-31-0"
       style="fill:#ffffff;stroke:#000000;stroke-width:0.265;stroke-dasharray:none"
       d="m 13.363234,17.123947 c 0.05363,-0.200153 0.411179,-0.654176 0.759899,-0.560737 0.348722,0.09344 0.466154,0.685791 0.412523,0.885944 -0.05363,0.200152 -0.032,0.390914 -0.700718,0.189617 -0.668727,-0.201299 -0.525335,-0.31467 -0.471704,-0.514824 z"
       sodipodi:nodetypes="ssszs" /><ellipse
       style="fill:#ffffff;fill-opacity:1;stroke:#000000;stroke-width:0.265;stroke-dasharray:none;stroke-opacity:1"
       id="path1-7-2-9-9-1-9-9-9"
       cx="-14.981269"
       cy="4.8270893"
       rx="0.65429264"
       ry="0.80279088"
       transform="rotate(-120)" /><ellipse
       style="fill:#ffffff;fill-opacity:1;stroke:#000000;stroke-width:0.265;stroke-dasharray:none;stroke-opacity:1"
       id="path1-7-2-9-9-1-9-9"
       cx="-0.37969673"
       cy="25.608358"
       rx="0.65429264"
       ry="0.80279088"
       transform="rotate(-60)" /><ellipse
       style="fill:#ffffff;fill-opacity:1;stroke:#000000;stroke-width:0.265;stroke-dasharray:none;stroke-opacity:1"
       id="path1-7-2-9-9-1-3-11"
       cx="-17.460987"
       cy="-1.6677914"
       rx="0.65429264"
       ry="0.80279088"
       transform="matrix(-0.70710678,-0.70710678,-0.70710678,0.70710678,0,0)" /></g></svg>
