<?xml version="1.0" encoding="UTF-8" standalone="no"?>
<!-- Created with Inkscape (http://www.inkscape.org/) -->

<svg
   width="35mm"
   height="35mm"
   viewBox="0 0 35 35"
   version="1.1"
   id="svg1"
   xml:space="preserve"
   inkscape:version="1.4 (e7c3feb100, 2024-10-09)"
   sodipodi:docname="o_primaryPieceV1.svg"
   xmlns:inkscape="http://www.inkscape.org/namespaces/inkscape"
   xmlns:sodipodi="http://sodipodi.sourceforge.net/DTD/sodipodi-0.dtd"
   xmlns="http://www.w3.org/2000/svg"
   xmlns:svg="http://www.w3.org/2000/svg"><sodipodi:namedview
     id="namedview1"
     pagecolor="#ffffff"
     bordercolor="#000000"
     borderopacity="0.25"
     inkscape:showpageshadow="2"
     inkscape:pageopacity="0.0"
     inkscape:pagecheckerboard="0"
     inkscape:deskcolor="#d1d1d1"
     inkscape:document-units="mm"
     inkscape:zoom="4.2968333"
     inkscape:cx="56.90237"
     inkscape:cy="49.105931"
     inkscape:window-width="1916"
     inkscape:window-height="1023"
     inkscape:window-x="0"
     inkscape:window-y="0"
     inkscape:window-maximized="0"
     inkscape:current-layer="layer1" /><defs
     id="defs1"><inkscape:path-effect
       effect="mirror_symmetry"
       start_point="17.297909,16.234992"
       end_point="17.313303,7.810326"
       center_point="17.305606,12.022659"
       id="path-effect5"
       is_visible="true"
       lpeversion="1.2"
       lpesatellites=""
       mode="free"
       discard_orig_path="false"
       fuse_paths="true"
       oposite_fuse="false"
       split_items="false"
       split_open="false"
       link_styles="false" /><inkscape:path-effect
       effect="mirror_symmetry"
       start_point="17.297909,16.234992"
       end_point="17.313303,7.810326"
       center_point="17.305606,12.022659"
       id="path-effect5-7"
       is_visible="true"
       lpeversion="1.2"
       lpesatellites=""
       mode="free"
       discard_orig_path="false"
       fuse_paths="true"
       oposite_fuse="false"
       split_items="false"
       split_open="false"
       link_styles="false" /><inkscape:path-effect
       effect="mirror_symmetry"
       start_point="17.297909,16.234992"
       end_point="17.313303,7.810326"
       center_point="17.305606,12.022659"
       id="path-effect5-6"
       is_visible="true"
       lpeversion="1.2"
       lpesatellites=""
       mode="free"
       discard_orig_path="false"
       fuse_paths="true"
       oposite_fuse="false"
       split_items="false"
       split_open="false"
       link_styles="false" /><inkscape:path-effect
       effect="mirror_symmetry"
       start_point="17.297909,16.234992"
       end_point="17.313303,7.810326"
       center_point="17.305606,12.022659"
       id="path-effect5-3"
       is_visible="true"
       lpeversion="1.2"
       lpesatellites=""
       mode="free"
       discard_orig_path="false"
       fuse_paths="true"
       oposite_fuse="false"
       split_items="false"
       split_open="false"
       link_styles="false" /><inkscape:path-effect
       effect="mirror_symmetry"
       start_point="17.297909,16.234992"
       end_point="17.313303,7.810326"
       center_point="17.305606,12.022659"
       id="path-effect5-66"
       is_visible="true"
       lpeversion="1.2"
       lpesatellites=""
       mode="free"
       discard_orig_path="false"
       fuse_paths="true"
       oposite_fuse="false"
       split_items="false"
       split_open="false"
       link_styles="false" /><inkscape:path-effect
       effect="mirror_symmetry"
       start_point="17.297909,16.234992"
       end_point="17.313303,7.810326"
       center_point="17.305606,12.022659"
       id="path-effect5-4"
       is_visible="true"
       lpeversion="1.2"
       lpesatellites=""
       mode="free"
       discard_orig_path="false"
       fuse_paths="true"
       oposite_fuse="false"
       split_items="false"
       split_open="false"
       link_styles="false" /><inkscape:path-effect
       effect="mirror_symmetry"
       start_point="17.297909,16.234992"
       end_point="17.313303,7.810326"
       center_point="17.305606,12.022659"
       id="path-effect5-4-7"
       is_visible="true"
       lpeversion="1.2"
       lpesatellites=""
       mode="free"
       discard_orig_path="false"
       fuse_paths="true"
       oposite_fuse="false"
       split_items="false"
       split_open="false"
       link_styles="false" /><inkscape:path-effect
       effect="mirror_symmetry"
       start_point="17.297909,16.234992"
       end_point="17.313303,7.810326"
       center_point="17.305606,12.022659"
       id="path-effect5-41"
       is_visible="true"
       lpeversion="1.2"
       lpesatellites=""
       mode="free"
       discard_orig_path="false"
       fuse_paths="true"
       oposite_fuse="false"
       split_items="false"
       split_open="false"
       link_styles="false" /><inkscape:path-effect
       effect="mirror_symmetry"
       start_point="17.493844,16.300304"
       end_point="17.509238,7.875638"
       center_point="17.501541,12.087971"
       id="path-effect5-4-0-9-5-7"
       is_visible="true"
       lpeversion="1.2"
       lpesatellites=""
       mode="free"
       discard_orig_path="false"
       fuse_paths="true"
       oposite_fuse="false"
       split_items="false"
       split_open="false"
       link_styles="false" /></defs><g
     inkscape:label="Layer 1"
     inkscape:groupmode="layer"
     id="layer1"><path
       style="fill:#999999;fill-opacity:1;stroke:none;stroke-width:0.264999;stroke-dasharray:none;stroke-opacity:1"
       d="m 13.74268,28.032227 c -0.262339,0.004 -0.518183,-0.0824 -0.507812,-0.261718 0.07244,-1.252407 0.08092,-3.577077 0.509765,-4.482421 -0.437864,-0.679074 -1.45073,0.168884 -1.972084,-0.675332 -0.452157,-0.732168 0.762989,-1.86407 1.261782,-2.126082 0.249249,-0.130928 0.82017,0.516212 0.604561,0.69728 -0.500289,0.420141 -0.380387,0.375581 -0.772257,0.72391 0.459065,0.230808 1.588685,-0.137344 2.116279,0.08139 0.588368,-0.0052 1.352111,-1.029944 1.941944,-1.509386 -0.08708,-0.566034 -0.132944,-1.575351 -0.180364,-2.213589 0.0249,-0.280451 0.662518,-0.32433 0.778724,-0.06789 0.503087,1.110186 0.618218,2.261245 0.378721,2.705367 -0.242445,0.449591 -1.241452,1.697792 -1.676831,2.378464 0.432152,0.903771 0.450328,3.230287 0.527344,4.482421 0.02205,0.358555 -1.02167,0.345807 -1.056641,-0.01172 -0.100734,-1.029811 -0.213416,-2.743698 -0.427734,-2.90625 -0.121107,-0.09185 -0.211094,-0.116149 -0.279297,-0.105468 -0.06824,-0.01043 -0.16048,0.01512 -0.28125,0.107421 -0.213723,0.163344 -0.320999,1.876089 -0.417969,2.906261 -0.01683,0.178825 -0.284536,0.273372 -0.546875,0.277344 z"
       id="path4-4-5"
       sodipodi:nodetypes="ssscssccccsscscscssss" /><path
       style="fill:#999999;fill-opacity:1;stroke:none;stroke-width:0.1"
       d="m 14.735336,16.391723 c 0,0 3.068579,-0.37801 3.047875,0.718429 -0.017,0.900156 -3.004334,0.435412 -3.004334,0.435412 z"
       id="path2"
       sodipodi:nodetypes="cscc" /><path
       id="path1-7-1-2-6"
       style="fill:#ffffff;stroke:#000000;stroke-width:0.265;stroke-dasharray:none"
       d="m 14.386411,28.201787 c 0,-0.207214 -0.227855,-0.738307 -0.588877,-0.738307 -0.361023,0 -0.627766,0.541773 -0.627766,0.748987 0,0.207215 -0.07027,0.385877 0.627766,0.364517 0.69804,-0.02136 0.588877,-0.167981 0.588877,-0.375197 z"
       sodipodi:nodetypes="ssszs" /><path
       id="path1-7-1-9-0-2"
       style="fill:#ffffff;stroke:#000000;stroke-width:0.265;stroke-dasharray:none"
       d="m 16.867508,28.180017 c 0,-0.207214 -0.227855,-0.738307 -0.588877,-0.738307 -0.361023,0 -0.627766,0.541773 -0.627766,0.748987 0,0.207214 -0.07027,0.385876 0.627766,0.364516 0.69804,-0.02136 0.588877,-0.167981 0.588877,-0.375196 z"
       sodipodi:nodetypes="ssszs" /><ellipse
       style="fill:#ffffff;fill-opacity:1;stroke:#000000;stroke-width:0.265;stroke-dasharray:none;stroke-opacity:1"
       id="path1-7-2-9-9-1-6-1"
       cx="24.729719"
       cy="0.13052152"
       rx="0.65429264"
       ry="0.80279088"
       transform="matrix(0.54132041,0.8408164,0.8408164,-0.54132041,0,0)" /><path
       id="path1-9-9"
       style="fill:#66ff66;fill-opacity:1;stroke:#000000;stroke-width:0.265"
       d="m 16.70559,22.578996 c 0,-0.918208 -0.744354,-2.054432 -1.662562,-2.054432 -0.918208,0 -1.662561,1.136225 -1.662561,2.054432 0,0.918206 0.744354,1.66256 1.662561,1.66256 0.918207,0 1.662562,-0.744353 1.662562,-1.66256 z"
       sodipodi:nodetypes="zzzzz" /><path
       id="path1-7-1-1"
       style="fill:#ffffff;stroke:#000000;stroke-width:0.265;stroke-dasharray:none"
       d="m 17.679741,17.738486 c -0.206071,-0.02173 -0.710344,-0.304016 -0.672488,-0.663049 0.03786,-0.359033 0.604614,-0.567495 0.810685,-0.545766 0.206072,0.02173 0.391116,-0.02942 0.29668,0.662527 -0.09444,0.691952 -0.228804,0.568016 -0.434877,0.546288 z"
       sodipodi:nodetypes="ssszs" /><ellipse
       style="fill:#ffffff;fill-opacity:1;stroke:#000000;stroke-width:0.265;stroke-dasharray:none;stroke-opacity:1"
       id="path1-7-2-9-9-8-7"
       cx="17.211067"
       cy="-17.843994"
       rx="0.65429264"
       ry="0.80279088"
       transform="scale(1,-1)" /><path
       style="fill:#999999;fill-opacity:1;stroke:none;stroke-width:0.264999;stroke-dasharray:none;stroke-opacity:1"
       d="m 15.686519,19.493378 c 0.732168,0.452157 1.907611,0.02075 3.083985,-0.216797 0.275974,-0.05573 0.47567,-0.796346 0.195312,-0.822266 -1.18211,-0.10928 -2.857422,-0.09766 -2.857422,-0.09766 -0.13243,-0.222874 -1.320735,-1.532237 -1.549952,-2.015809 0.269495,-0.927356 1.022833,-1.323157 1.555812,-2.21271 0,0 1.676873,0.01512 2.859375,-0.08984 0.280451,-0.0249 0.08241,-0.76553 -0.19336,-0.822266 -1.175498,-0.241841 -2.348215,-0.677994 -3.082031,-0.228515 -0.846116,0.518265 -1.372065,1.574386 -2.052734,2.009765 -0.903772,-0.432152 -3.230288,-0.450328 -4.4824223,-0.527344 -0.3585544,-0.02205 -0.3458071,1.02167 0.011719,1.056641 1.3542223,0.08962 2.6755143,0.329652 3.9815463,0.583878 -0.483871,0.42965 1.96305,2.661442 2.530172,3.382919 z"
       id="path4-6"
       sodipodi:nodetypes="cssscccsscccccc" /><path
       id="path1-3"
       style="fill:#6666ff;fill-opacity:1;stroke:#000000;stroke-width:0.265"
       d="m 14.348735,14.579423 c 0.918208,0 2.054432,0.744354 2.054432,1.662562 0,0.918208 -1.136225,1.662561 -2.054432,1.662561 -0.918207,0 -1.662561,-0.744355 -1.662561,-1.662561 0,-0.918207 0.744353,-1.662562 1.662561,-1.662562 z"
       sodipodi:nodetypes="zzzzz" /><path
       id="path1-7-1-9-7"
       style="fill:#ffffff;stroke:#000000;stroke-width:0.265;stroke-dasharray:none"
       d="m 8.7694835,14.395082 c 0.207214,0 0.738307,0.227855 0.738307,0.588877 0,0.361023 -0.541773,0.627766 -0.748987,0.627766 -0.207213,0 -0.385875,0.07027 -0.364515,-0.627766 0.02136,-0.69804 0.167981,-0.588877 0.375195,-0.588877 z"
       sodipodi:nodetypes="ssszs" /><path
       id="path1-3-0-4"
       style="fill:#4d4d4d;fill-opacity:1;stroke:#000000;stroke-width:0.265"
       d="M 19.488878,7.3883944 C 18.693686,7.8474988 18.081865,9.0602395 18.54097,9.8554315 19.000073,10.650623 20.356249,10.727139 21.151439,10.268036 21.946631,9.8089305 22.219083,8.7921235 21.75998,7.9969348 21.300877,7.2017441 20.284071,6.9292902 19.488878,7.3883944 Z"
       sodipodi:nodetypes="zzzzz" /><path
       style="fill:#999999;fill-opacity:1;stroke:none;stroke-width:0.264999;stroke-dasharray:none;stroke-opacity:1"
       d="m 20.715533,10.463313 c -0.05834,0.564979 -0.230043,0.896018 -0.508598,1.337832 -0.638263,0.741788 -1.489628,1.358588 -1.159231,1.898406 0.221693,0.362205 1.665202,-0.984256 1.979733,-1.305378 0.423746,-0.432629 1.128035,-1.463304 1.132228,-2.085797 0.0032,-0.4773645 -0.582829,-1.4805185 -0.914261,-2.0093302 -0.290232,-0.552499 -0.864029,-1.5663224 -1.278189,-1.8037323 -0.540061,-0.3095878 -1.783233,-0.2188754 -2.37032,-0.070358 -0.435772,0.1102373 -2.328403,0.6804972 -2.126932,1.0543283 0.300259,0.5571433 1.263702,0.1313643 2.225897,-0.046977 0.521971,-0.018422 0.89386,-6.4e-5 1.411466,0.2337925 -0.703289,0.67122 -2.368198,1.093111 -3.491087,1.6524812 -0.321542,0.160181 0.142723,1.0950655 0.469831,0.9465905 0.471101,-0.213839 0.635441,-0.153969 1.059936,-0.4766375 0.50083,-0.03821 1.17487,-0.08766 1.726608,-0.318021 0.0487,0.04016 0.08292,0.08447 0.108384,0.129122 0.02579,0.04447 -0.418624,0.8629185 -0.408452,0.9252345 0.200108,0.589202 1.173724,0.251132 2.142989,-0.06156 z"
       id="path4-6-3-2-0"
       sodipodi:nodetypes="cscccccssscsscccccc" /><ellipse
       style="fill:#ffffff;fill-opacity:1;stroke:#000000;stroke-width:0.265;stroke-dasharray:none;stroke-opacity:1"
       id="path1-7-2-9-9-1-3"
       cx="-2.9551225"
       cy="-17.23489"
       rx="0.65429264"
       ry="0.80279088"
       transform="matrix(0.25881904,-0.96592583,-0.96592583,-0.25881904,0,0)" /><path
       id="path1-7-1-1-4-1"
       style="fill:#ffffff;stroke:#000000;stroke-width:0.265;stroke-dasharray:none"
       d="m 18.333671,11.041657 c -0.383215,-0.567026 0.703112,-0.987788 0.883652,-1.0894875 0.180542,-0.101696 0.813221,-0.926717 1.238018,-0.179609 0.51528,0.9062885 -1.776523,1.7797945 -2.121672,1.2690935 z"
       sodipodi:nodetypes="sszs" /><path
       id="path1-7-1-1-4-5-9"
       style="fill:#ffffff;stroke:#000000;stroke-width:0.265;stroke-dasharray:none"
       d="m 14.354854,10.708028 c 0.299453,0.615387 1.207008,-0.115018 1.385351,-0.22052 0.178343,-0.105506 1.209171,-0.240913 0.774555,-0.9823525 -0.527229,-0.8993877 -2.42961,0.6486175 -2.159902,1.2028765 z"
       sodipodi:nodetypes="sszs" /><path
       id="path1-3-0-4-6"
       style="fill:#ff6666;fill-opacity:1;stroke:#000000;stroke-width:0.265"
       d="m 25.640327,18.252977 c -0.459104,0.795192 -1.671845,1.407013 -2.467037,0.947908 -0.795191,-0.459103 -0.871707,-1.815279 -0.412604,-2.610469 0.459105,-0.795192 1.475911,-1.067644 2.271101,-0.608541 0.795191,0.459103 1.067645,1.475909 0.60854,2.271102 z"
       sodipodi:nodetypes="zzzzz" /><path
       style="fill:#999999;fill-opacity:1;stroke:none;stroke-width:0.264999;stroke-dasharray:none;stroke-opacity:1"
       d="m 22.565409,17.026322 c -0.564979,0.05834 -0.896018,0.230043 -1.337832,0.508598 -0.741788,0.638263 -1.358588,1.489628 -1.898406,1.15923 -0.362205,-0.221692 0.984256,-1.665201 1.305378,-1.979732 0.432629,-0.423746 1.463304,-1.128036 2.085797,-1.132228 0.477364,-0.0032 1.480518,0.582828 2.00933,0.914261 0.552498,0.290232 1.566322,0.864029 1.803732,1.278189 0.309605,0.540051 0.218875,1.783233 0.07036,2.37032 -0.110237,0.435772 -0.680498,2.328403 -1.054329,2.126932 -0.557143,-0.300259 -0.131364,-1.263702 0.04698,-2.225897 0.01842,-0.521971 6.4e-5,-0.89386 -0.233793,-1.411466 -0.671218,0.703289 -1.09311,2.368198 -1.65248,3.491087 -0.160181,0.321542 -1.095065,-0.142723 -0.94659,-0.469831 0.213839,-0.471102 0.153969,-0.635441 0.476637,-1.059936 0.03821,-0.50083 0.08766,-1.17487 0.318021,-1.726608 -0.04016,-0.0487 -0.08447,-0.08292 -0.129121,-0.108385 -0.04447,-0.02579 -0.862919,0.418625 -0.925235,0.408453 -0.589202,-0.200108 -0.251132,-1.173724 0.06156,-2.142989 z"
       id="path4-6-3-2-0-4"
       sodipodi:nodetypes="cscccccssscsscccccc" /><ellipse
       style="fill:#ffffff;fill-opacity:1;stroke:#000000;stroke-width:0.265;stroke-dasharray:none;stroke-opacity:1"
       id="path1-7-2-9-9-1-3-3"
       cx="19.179863"
       cy="27.769403"
       rx="0.65429264"
       ry="0.80279088"
       transform="rotate(-15)" /><path
       id="path1-7-1-1-4-1-0"
       style="fill:#ffffff;stroke:#000000;stroke-width:0.265;stroke-dasharray:none"
       d="m 21.987065,19.408184 c 0.567026,0.383215 0.987789,-0.703112 1.089487,-0.883652 0.101696,-0.180542 0.926717,-0.813221 0.179609,-1.238018 -0.906288,-0.51528 -1.779794,1.776523 -1.269093,2.121672 z"
       sodipodi:nodetypes="sszs" /><path
       id="path1-7-1-1-4-5-9-3"
       style="fill:#ffffff;stroke:#000000;stroke-width:0.265;stroke-dasharray:none"
       d="m 22.320694,23.387001 c -0.615387,-0.299453 0.115018,-1.207008 0.22052,-1.385352 0.105506,-0.178342 0.240913,-1.20917 0.982352,-0.774554 0.899388,0.527229 -0.648617,2.42961 -1.202876,2.159902 z"
       sodipodi:nodetypes="sszs" /><ellipse
       style="fill:#ffffff;fill-opacity:1;stroke:#000000;stroke-width:0.265;stroke-dasharray:none;stroke-opacity:1"
       id="path1-7-2-9-9-8-7-2"
       cx="22.936132"
       cy="-3.9380574"
       rx="0.65429264"
       ry="0.80279088"
       transform="rotate(45)" /><ellipse
       style="fill:#ffffff;fill-opacity:1;stroke:#000000;stroke-width:0.265;stroke-dasharray:none;stroke-opacity:1"
       id="path1-7-2-9-9-1-3-9-9-8-5-4"
       cx="26.857504"
       cy="1.5550411"
       rx="0.65429264"
       ry="0.80279088"
       transform="rotate(40.72808)" /></g></svg>
