<?xml version="1.0" encoding="UTF-8" standalone="no"?>
<!-- Created with Inkscape (http://www.inkscape.org/) -->

<svg
   width="35mm"
   height="35mm"
   viewBox="0 0 35 35"
   version="1.1"
   id="svg1"
   xml:space="preserve"
   inkscape:version="1.4 (e7c3feb100, 2024-10-09)"
   sodipodi:docname="p_alternateV2.svg"
   xmlns:inkscape="http://www.inkscape.org/namespaces/inkscape"
   xmlns:sodipodi="http://sodipodi.sourceforge.net/DTD/sodipodi-0.dtd"
   xmlns="http://www.w3.org/2000/svg"
   xmlns:svg="http://www.w3.org/2000/svg"><sodipodi:namedview
     id="namedview1"
     pagecolor="#ffffff"
     bordercolor="#000000"
     borderopacity="0.25"
     inkscape:showpageshadow="2"
     inkscape:pageopacity="0.0"
     inkscape:pagecheckerboard="0"
     inkscape:deskcolor="#d1d1d1"
     inkscape:document-units="mm"
     inkscape:zoom="4.2968333"
     inkscape:cx="104.0301"
     inkscape:cy="79.826229"
     inkscape:window-width="1916"
     inkscape:window-height="1023"
     inkscape:window-x="0"
     inkscape:window-y="0"
     inkscape:window-maximized="0"
     inkscape:current-layer="layer1"><sodipodi:guide
       position="0.17416423,17.540036"
       orientation="0,132.28346"
       id="guide5"
       inkscape:locked="false" /><sodipodi:guide
       position="35.000001,35.000001"
       orientation="132.28346,0"
       id="guide6"
       inkscape:locked="false" /><sodipodi:guide
       position="35.000001,0"
       orientation="0,-132.28346"
       id="guide7"
       inkscape:locked="false" /><sodipodi:guide
       position="17.503506,35.914363"
       orientation="-132.28346,0"
       id="guide8"
       inkscape:locked="false" /></sodipodi:namedview><defs
     id="defs1"><inkscape:path-effect
       effect="mirror_symmetry"
       start_point="17.297909,16.234992"
       end_point="17.313303,7.810326"
       center_point="17.305606,12.022659"
       id="path-effect5"
       is_visible="true"
       lpeversion="1.2"
       lpesatellites=""
       mode="free"
       discard_orig_path="false"
       fuse_paths="true"
       oposite_fuse="false"
       split_items="false"
       split_open="false"
       link_styles="false" /><inkscape:path-effect
       effect="mirror_symmetry"
       start_point="17.297909,16.234992"
       end_point="17.313303,7.810326"
       center_point="17.305606,12.022659"
       id="path-effect5-7"
       is_visible="true"
       lpeversion="1.2"
       lpesatellites=""
       mode="free"
       discard_orig_path="false"
       fuse_paths="true"
       oposite_fuse="false"
       split_items="false"
       split_open="false"
       link_styles="false" /><inkscape:path-effect
       effect="mirror_symmetry"
       start_point="17.297909,16.234992"
       end_point="17.313303,7.810326"
       center_point="17.305606,12.022659"
       id="path-effect5-6"
       is_visible="true"
       lpeversion="1.2"
       lpesatellites=""
       mode="free"
       discard_orig_path="false"
       fuse_paths="true"
       oposite_fuse="false"
       split_items="false"
       split_open="false"
       link_styles="false" /><inkscape:path-effect
       effect="mirror_symmetry"
       start_point="17.297909,16.234992"
       end_point="17.313303,7.810326"
       center_point="17.305606,12.022659"
       id="path-effect5-3"
       is_visible="true"
       lpeversion="1.2"
       lpesatellites=""
       mode="free"
       discard_orig_path="false"
       fuse_paths="true"
       oposite_fuse="false"
       split_items="false"
       split_open="false"
       link_styles="false" /><inkscape:path-effect
       effect="mirror_symmetry"
       start_point="17.297909,16.234992"
       end_point="17.313303,7.810326"
       center_point="17.305606,12.022659"
       id="path-effect5-66"
       is_visible="true"
       lpeversion="1.2"
       lpesatellites=""
       mode="free"
       discard_orig_path="false"
       fuse_paths="true"
       oposite_fuse="false"
       split_items="false"
       split_open="false"
       link_styles="false" /><inkscape:path-effect
       effect="mirror_symmetry"
       start_point="17.297909,16.234992"
       end_point="17.313303,7.810326"
       center_point="17.305606,12.022659"
       id="path-effect5-4"
       is_visible="true"
       lpeversion="1.2"
       lpesatellites=""
       mode="free"
       discard_orig_path="false"
       fuse_paths="true"
       oposite_fuse="false"
       split_items="false"
       split_open="false"
       link_styles="false" /><inkscape:path-effect
       effect="mirror_symmetry"
       start_point="17.297909,16.234992"
       end_point="17.313303,7.810326"
       center_point="17.305606,12.022659"
       id="path-effect5-4-7"
       is_visible="true"
       lpeversion="1.2"
       lpesatellites=""
       mode="free"
       discard_orig_path="false"
       fuse_paths="true"
       oposite_fuse="false"
       split_items="false"
       split_open="false"
       link_styles="false" /><inkscape:path-effect
       effect="mirror_symmetry"
       start_point="17.297909,16.234992"
       end_point="17.313303,7.810326"
       center_point="17.305606,12.022659"
       id="path-effect5-41"
       is_visible="true"
       lpeversion="1.2"
       lpesatellites=""
       mode="free"
       discard_orig_path="false"
       fuse_paths="true"
       oposite_fuse="false"
       split_items="false"
       split_open="false"
       link_styles="false" /><inkscape:path-effect
       effect="mirror_symmetry"
       start_point="17.297909,16.234992"
       end_point="17.313303,7.810326"
       center_point="17.305606,12.022659"
       id="path-effect5-4-0"
       is_visible="true"
       lpeversion="1.2"
       lpesatellites=""
       mode="free"
       discard_orig_path="false"
       fuse_paths="true"
       oposite_fuse="false"
       split_items="false"
       split_open="false"
       link_styles="false" /><inkscape:path-effect
       effect="mirror_symmetry"
       start_point="17.493844,16.300304"
       end_point="17.509238,7.875638"
       center_point="17.501541,12.087971"
       id="path-effect5-4-0-9"
       is_visible="true"
       lpeversion="1.2"
       lpesatellites=""
       mode="free"
       discard_orig_path="false"
       fuse_paths="true"
       oposite_fuse="false"
       split_items="false"
       split_open="false"
       link_styles="false" /><inkscape:path-effect
       effect="mirror_symmetry"
       start_point="17.297909,16.234992"
       end_point="17.313303,7.810326"
       center_point="17.305606,12.022659"
       id="path-effect5-4-0-0"
       is_visible="true"
       lpeversion="1.2"
       lpesatellites=""
       mode="free"
       discard_orig_path="false"
       fuse_paths="true"
       oposite_fuse="false"
       split_items="false"
       split_open="false"
       link_styles="false" /><inkscape:path-effect
       effect="mirror_symmetry"
       start_point="17.493844,16.300304"
       end_point="17.509238,7.875638"
       center_point="17.501541,12.087971"
       id="path-effect5-4-0-9-7"
       is_visible="true"
       lpeversion="1.2"
       lpesatellites=""
       mode="free"
       discard_orig_path="false"
       fuse_paths="true"
       oposite_fuse="false"
       split_items="false"
       split_open="false"
       link_styles="false" /><inkscape:path-effect
       effect="mirror_symmetry"
       start_point="17.493844,16.300304"
       end_point="17.509238,7.875638"
       center_point="17.501541,12.087971"
       id="path-effect5-4-0-9-3"
       is_visible="true"
       lpeversion="1.2"
       lpesatellites=""
       mode="free"
       discard_orig_path="false"
       fuse_paths="true"
       oposite_fuse="false"
       split_items="false"
       split_open="false"
       link_styles="false" /><inkscape:path-effect
       effect="mirror_symmetry"
       start_point="17.297909,16.234992"
       end_point="17.313303,7.810326"
       center_point="17.305606,12.022659"
       id="path-effect5-4-6"
       is_visible="true"
       lpeversion="1.2"
       lpesatellites=""
       mode="free"
       discard_orig_path="false"
       fuse_paths="true"
       oposite_fuse="false"
       split_items="false"
       split_open="false"
       link_styles="false" /><inkscape:path-effect
       effect="mirror_symmetry"
       start_point="17.493844,16.300304"
       end_point="17.509238,7.875638"
       center_point="17.501541,12.087971"
       id="path-effect5-4-0-9-72"
       is_visible="true"
       lpeversion="1.2"
       lpesatellites=""
       mode="free"
       discard_orig_path="false"
       fuse_paths="true"
       oposite_fuse="false"
       split_items="false"
       split_open="false"
       link_styles="false" /><inkscape:path-effect
       effect="mirror_symmetry"
       start_point="17.493844,16.300304"
       end_point="17.509238,7.875638"
       center_point="17.501541,12.087971"
       id="path-effect5-4-0-9-72-8"
       is_visible="true"
       lpeversion="1.2"
       lpesatellites=""
       mode="free"
       discard_orig_path="false"
       fuse_paths="true"
       oposite_fuse="false"
       split_items="false"
       split_open="false"
       link_styles="false" /><inkscape:path-effect
       effect="mirror_symmetry"
       start_point="17.297909,16.234992"
       end_point="17.313303,7.810326"
       center_point="17.305606,12.022659"
       id="path-effect5-4-6-1"
       is_visible="true"
       lpeversion="1.2"
       lpesatellites=""
       mode="free"
       discard_orig_path="false"
       fuse_paths="true"
       oposite_fuse="false"
       split_items="false"
       split_open="false"
       link_styles="false" /></defs><g
     inkscape:label="Layer 1"
     inkscape:groupmode="layer"
     id="layer1"><path
       style="fill:#999999;fill-opacity:1;stroke:none;stroke-width:0.264999;stroke-dasharray:none;stroke-opacity:1"
       d="m 16.273961,29.506539 c -0.262339,0.004 -0.518183,-0.0824 -0.507812,-0.261719 0.07244,-1.252406 0.124461,-3.489994 0.553306,-4.395339 -0.652475,0.337312 -1.281382,0.553415 -1.828947,0.437981 -0.788213,-0.166166 -1.898067,-2.001024 -2.230103,-2.823333 -0.141329,-0.35001 0.668891,-0.949063 0.93031,-0.579282 0.531696,0.752089 1.019192,1.38323 1.541044,2.189005 0.706221,-0.17499 1.288396,-0.500772 2.782436,-0.500906 0.662306,-0.12544 1.80909,-0.351555 2.576172,-0.548829 0,0 0.13312,-1.398295 0.230469,-2.304687 0.445624,-0.0806 0.498452,-0.135402 0.867187,-0.05469 0.07212,1.068359 0.171256,2.691503 -0.371093,3.28711 -0.668042,0.733643 -1.625168,0.124018 -2.060547,0.804687 0.432152,0.903772 0.450328,3.230288 0.527344,4.482422 0.02205,0.358555 -1.02167,0.345807 -1.056641,-0.01172 -0.100734,-1.029811 -0.213416,-2.743698 -0.427734,-2.90625 -0.121107,-0.09185 -0.211094,-0.116149 -0.279297,-0.105468 -0.06824,-0.01043 -0.16048,0.01512 -0.28125,0.107422 -0.213723,0.163335 -0.320999,1.87608 -0.417969,2.906252 -0.01683,0.178825 -0.284536,0.273372 -0.546875,0.277343 z"
       id="path4-6-0"
       sodipodi:nodetypes="cscssscccccscscscssc" /><path
       style="fill:#999999;fill-opacity:1;stroke:none;stroke-width:0.264999;stroke-dasharray:none;stroke-opacity:1"
       d="m 16.273961,5.4934607 c -0.262339,-0.00397 -0.518183,0.082402 -0.507812,0.2617188 0.07244,1.2524069 0.124461,3.4899945 0.553306,4.3953395 -0.652475,-0.3373116 -1.281382,-0.5534149 -1.828947,-0.4379809 -0.788213,0.1661655 -1.898067,2.0010239 -2.230103,2.8233329 -0.141329,0.35001 0.668891,0.949063 0.93031,0.579282 0.531696,-0.752089 1.019192,-1.38323 1.541044,-2.189005 0.706221,0.17499 1.288396,0.500772 2.782436,0.500906 0.662306,0.12544 1.80909,0.351555 2.576172,0.548829 0,0 0.13312,1.398295 0.230469,2.304687 0.445624,0.0806 0.498452,0.135402 0.867187,0.05469 0.07212,-1.068359 0.171256,-2.691503 -0.371093,-3.28711 -0.668042,-0.733643 -1.625168,-0.124018 -2.060547,-0.804687 0.432152,-0.903772 0.450328,-3.2302883 0.527344,-4.4824221 0.02205,-0.3585544 -1.02167,-0.3458071 -1.056641,0.011719 C 18.126352,6.8025706 18.01367,8.516458 17.799352,8.67901 17.678245,8.77086 17.588258,8.795159 17.520055,8.784478 17.451815,8.794908 17.359575,8.769358 17.238805,8.677056 17.025082,8.513721 16.917806,6.8009764 16.820836,5.7708045 16.804006,5.5919789 16.5363,5.4974317 16.273961,5.4934607 Z"
       id="path4-6"
       sodipodi:nodetypes="cscssscccccscscscssc" /><path
       id="path1-3"
       style="fill:#4d4d4d;fill-opacity:1;stroke:#000000;stroke-width:0.265"
       d="m 19.174246,10.946695 c 0,0.918208 -0.744354,2.054432 -1.662562,2.054432 -0.918208,0 -1.662561,-1.136225 -1.662561,-2.054432 0,-0.918207 0.744355,-1.6625627 1.662561,-1.6625627 0.918207,0 1.662562,0.7443547 1.662562,1.6625627 z"
       sodipodi:nodetypes="zzzzz" /><path
       id="path1-7-1-1"
       style="fill:#ffffff;stroke:#000000;stroke-width:0.265;stroke-dasharray:none"
       d="m 16.87749,5.3456723 c 0,0.207214 -0.227855,0.738307 -0.588877,0.738307 -0.361023,0 -0.627766,-0.541773 -0.627766,-0.748987 0,-0.207214 -0.07027,-0.385876 0.627766,-0.364516 0.69804,0.02136 0.588877,0.167981 0.588877,0.375196 z"
       sodipodi:nodetypes="ssszs" /><path
       id="path1-7-1-9-7"
       style="fill:#ffffff;stroke:#000000;stroke-width:0.265;stroke-dasharray:none"
       d="m 19.358587,5.3674423 c 0,0.207214 -0.227855,0.738307 -0.588877,0.738307 -0.361023,0 -0.627766,-0.541773 -0.627766,-0.748987 0,-0.207213 -0.07027,-0.385875 0.627766,-0.364515 0.69804,0.02136 0.588877,0.167981 0.588877,0.375195 z"
       sodipodi:nodetypes="ssszs" /><path
       id="path1-3-0"
       style="fill:#6666ff;fill-opacity:1;stroke:#000000;stroke-width:0.265"
       d="m 14.504907,19.149302 c -0.918208,0 -2.054431,-0.744354 -2.054431,-1.662562 0,-0.918208 1.136225,-1.662561 2.054431,-1.662561 0.918207,0 1.662561,0.744355 1.662561,1.662561 0,0.918207 -0.744353,1.662562 -1.662561,1.662562 z"
       sodipodi:nodetypes="zzzzz" /><path
       style="fill:#999999;fill-opacity:1;stroke:none;stroke-width:0.264999;stroke-dasharray:none;stroke-opacity:1"
       d="m 16.191406,8.9042969 c -0.292488,-0.00827 -0.617135,0.09905 -0.605468,0.3007812 0.07244,1.2524069 0.27206,3.0603129 0.34375,4.1347659 -0.547197,-0.137082 -0.835827,-0.08231 -1.296875,-0.283203 -0.606294,-0.749481 -1.148555,-1.598252 -1.78125,-1.582032 -0.424526,0.01089 0.310762,1.799819 0.621093,2.125 0.598205,0.626832 1.069276,0.701193 1.673828,0.84961 0.477917,0.117325 1.705795,0.132022 2.34961,0.130859 0.643806,0.0035 1.875173,-0.0055 2.353515,-0.121094 0.605091,-0.146206 1.073337,-0.221061 1.673828,-0.845703 0.311518,-0.324044 1.055342,-2.11061 0.63086,-2.123047 -0.632632,-0.01853 -1.180035,0.830865 -1.789063,1.578125 -0.46178,0.199211 -0.74918,0.142263 -1.296875,0.277344 0.07562,-1.074184 0.28236,-2.880678 0.359375,-4.1328124 0.02205,-0.3585544 -1.019715,-0.4239314 -1.054687,-0.066406 -0.05036,0.5149057 -0.184378,0.6272927 -0.117188,1.1562496 -0.217322,0.452837 -0.511517,1.061298 -0.58789,1.654297 -0.05913,0.02209 -0.114606,0.02958 -0.166016,0.0293 -0.05141,9.3e-5 -0.106965,-0.0089 -0.166016,-0.03125 -0.07421,-0.593274 -0.366365,-1.200669 -0.582031,-1.654297 0.06912,-0.5287079 -0.0648,-0.6411634 -0.113281,-1.1562497 -0.01473,-0.1564722 -0.221728,-0.2338059 -0.449219,-0.2402344 z"
       id="path4-6-3-2"
       sodipodi:nodetypes="sccscccccsss"
       transform="matrix(0,1,1,0,0.973121,-0.013699)"
       inkscape:original-d="m 12.850726,11.473714 c 0.632695,-0.01622 1.176626,0.834296 1.782919,1.583777 0.461049,0.200897 0.748625,0.144556 1.295822,0.281638 -0.07169,-1.074453 -0.271838,-2.881056 -0.344277,-4.133463 -0.02074,-0.3586326 1.022151,-0.4192286 1.055816,-0.061578 0.04848,0.5150863 0.182149,0.6270618 0.113026,1.15577 0.215666,0.453628 0.5075,1.06247 0.581706,1.655744 0.335179,0.12662 0.556797,-0.171236 0.556797,-0.171236 l 0.01129,2.792474 c 0,0 -2.097405,0.03504 -2.758135,-0.127164 -0.604552,-0.148417 -1.074187,-0.223578 -1.672392,-0.85041 -0.310331,-0.325181 -1.047097,-2.114667 -0.622572,-2.125552 z"
       inkscape:path-effect="#path-effect5-4-0-9-72" /><path
       id="path1-7-1-1-4"
       style="fill:#ffffff;stroke:#000000;stroke-width:0.265;stroke-dasharray:none"
       d="m 8.398896,16.132053 c -0.04836,0.682667 1.102807,0.503895 1.310009,0.501699 0.207202,-0.0022 1.167629,0.395949 1.16196,-0.463464 -0.0069,-1.042508 -2.428412,-0.653086 -2.471969,-0.03823 z"
       sodipodi:nodetypes="sszs" /><path
       id="path1-7-1-1-4-5"
       style="fill:#ffffff;stroke:#000000;stroke-width:0.265;stroke-dasharray:none"
       d="m 8.398896,18.841427 c -0.04836,-0.682667 1.102807,-0.503895 1.310009,-0.501699 0.207202,0.0022 1.167629,-0.395949 1.16196,0.463464 -0.0069,1.042508 -2.428412,0.653086 -2.471969,0.03823 z"
       sodipodi:nodetypes="sszs" /><path
       id="path1-3-1"
       style="fill:#66ff66;fill-opacity:1;stroke:#000000;stroke-width:0.265"
       d="m 15.837436,24.053306 c 0,-0.918208 0.744354,-2.054432 1.662562,-2.054432 0.918208,0 1.662561,1.136225 1.662561,2.054432 0,0.918207 -0.744355,1.662562 -1.662561,1.662562 -0.918207,0 -1.662562,-0.744354 -1.662562,-1.662562 z"
       sodipodi:nodetypes="zzzzz" /><path
       id="path1-7-1-1-0"
       style="fill:#ffffff;stroke:#000000;stroke-width:0.265;stroke-dasharray:none"
       d="m 18.134192,29.654328 c 0,-0.207214 0.227855,-0.738307 0.588877,-0.738307 0.361023,0 0.627766,0.541773 0.627766,0.748987 0,0.207214 0.07027,0.385876 -0.627766,0.364516 -0.69804,-0.02136 -0.588877,-0.167981 -0.588877,-0.375196 z"
       sodipodi:nodetypes="ssszs" /><path
       id="path1-7-1-9-7-3"
       style="fill:#ffffff;stroke:#000000;stroke-width:0.265;stroke-dasharray:none"
       d="m 15.653095,29.632558 c 0,-0.207214 0.227855,-0.738307 0.588877,-0.738307 0.361023,0 0.627766,0.541773 0.627766,0.748987 0,0.207213 0.07027,0.385875 -0.627766,0.364515 -0.69804,-0.02136 -0.588877,-0.167981 -0.588877,-0.375195 z"
       sodipodi:nodetypes="ssszs" /><path
       id="path1-3-0-4"
       style="fill:#ff6666;fill-opacity:1;stroke:#000000;stroke-width:0.265"
       d="m 23.881474,19.149305 c -0.918208,0 -2.054431,-0.744354 -2.054431,-1.662562 0,-0.918208 1.136225,-1.662561 2.054431,-1.662561 0.918207,0 1.662561,0.744355 1.662561,1.662561 0,0.918207 -0.744353,1.662562 -1.662561,1.662562 z"
       sodipodi:nodetypes="zzzzz" /><path
       style="fill:#999999;fill-opacity:1;stroke:none;stroke-width:0.264999;stroke-dasharray:none;stroke-opacity:1"
       d="m 16.191406,8.9042969 c -0.292488,-0.00827 -0.617135,0.09905 -0.605468,0.3007812 0.07244,1.2524069 0.53388,2.9077329 0.300781,3.8515629 -0.460115,-0.333016 -0.660953,-0.647232 -0.904297,-1.109375 -0.323276,-0.923645 -0.431758,-1.9693484 -1.064453,-1.9531254 -0.424525,0.010885 0.01979,1.9342354 0.140625,2.3671874 0.162794,0.58329 0.70324,1.708559 1.240234,2.023438 0.411803,0.24147 1.573585,0.235512 2.197266,0.21289 0.623594,0.0249 1.788489,0.03489 2.201172,-0.205078 0.538141,-0.312914 1.081169,-1.434887 1.246093,-2.017578 0.122417,-0.432508 0.574873,-2.356704 0.150391,-2.369141 -0.632631,-0.018535 -0.745616,1.028715 -1.072266,1.951172 -0.245031,0.461251 -0.446874,0.774137 -0.908203,1.105469 -0.229648,-0.944676 0.237438,-2.597475 0.314453,-3.8496094 0.02205,-0.3585544 -1.019715,-0.4239314 -1.054687,-0.066406 -0.05036,0.5149057 -0.184378,0.6272927 -0.117188,1.1562496 -0.217322,0.452837 -0.511517,1.061298 -0.58789,1.654297 -0.05913,0.02209 -0.114606,0.02958 -0.166016,0.0293 -0.05141,9.3e-5 -0.106965,-0.0089 -0.166016,-0.03125 -0.07421,-0.593274 -0.366365,-1.200669 -0.582031,-1.654297 0.06912,-0.5287079 -0.0648,-0.6411634 -0.113281,-1.1562497 -0.01473,-0.1564722 -0.221728,-0.2338059 -0.449219,-0.2402344 z"
       id="path4-6-3-2-0"
       sodipodi:nodetypes="sccscccccsss"
       transform="matrix(0,1,1,0,10.349688,-0.013698)"
       inkscape:original-d="m 13.917482,9.9933178 c 0.632695,-0.016223 0.741215,1.0302312 1.064491,1.9538762 0.243344,0.462143 0.443838,0.775902 0.903953,1.108918 0.233099,-0.94383 -0.228297,-2.598039 -0.300736,-3.850446 -0.02074,-0.3586326 1.022151,-0.4192286 1.055816,-0.061578 0.04848,0.5150863 0.182149,0.6270618 0.113026,1.15577 0.215666,0.453628 0.5075,1.06247 0.581706,1.655744 0.335179,0.12662 0.556797,-0.171236 0.556797,-0.171236 l 0.01129,2.792474 c 0,0 -2.032093,0.143896 -2.605741,-0.192476 -0.536994,-0.314879 -1.076376,-1.438992 -1.23917,-2.022282 -0.120835,-0.432952 -0.565957,-2.357879 -0.141432,-2.3687642 z"
       inkscape:path-effect="#path-effect5-4-0-9-72-8" /><ellipse
       style="fill:#ffffff;fill-opacity:1;stroke:#000000;stroke-width:0.265;stroke-dasharray:none;stroke-opacity:1"
       id="path1-7-2-9-9-1-3"
       cx="29.564781"
       cy="0.1560268"
       rx="0.65429264"
       ry="0.80279088"
       transform="rotate(45)" /><ellipse
       style="fill:#ffffff;fill-opacity:1;stroke:#000000;stroke-width:0.265;stroke-dasharray:none;stroke-opacity:1"
       id="path1-7-2-9-9-1-9-9"
       cx="4.8296909"
       cy="24.579063"
       rx="0.65429264"
       ry="0.80279088"
       transform="rotate(-45)" /><path
       id="path1-7-1-1-4-1"
       style="fill:#ffffff;stroke:#000000;stroke-width:0.265;stroke-dasharray:none"
       d="m 17.775463,16.132056 c -0.04836,0.682667 1.102807,0.503895 1.310009,0.501699 0.207202,-0.0022 1.167629,0.395949 1.16196,-0.463464 -0.0069,-1.042508 -2.428412,-0.653086 -2.471969,-0.03823 z"
       sodipodi:nodetypes="sszs" /><path
       id="path1-7-1-1-4-5-9"
       style="fill:#ffffff;stroke:#000000;stroke-width:0.265;stroke-dasharray:none"
       d="m 17.775463,18.84143 c -0.04836,-0.682667 1.102807,-0.503895 1.310009,-0.501699 0.207202,0.0022 1.167629,-0.395949 1.16196,0.463464 -0.0069,1.042508 -2.428412,0.653086 -2.471969,0.03823 z"
       sodipodi:nodetypes="sszs" /><ellipse
       style="fill:#ffffff;fill-opacity:1;stroke:#000000;stroke-width:0.265;stroke-dasharray:none;stroke-opacity:1"
       id="path1-7-2-9-9-1-9"
       cx="-0.10724826"
       cy="18.237776"
       rx="0.65429264"
       ry="0.80279088"
       transform="rotate(-45)" /><ellipse
       style="fill:#ffffff;fill-opacity:1;stroke:#000000;stroke-width:0.265;stroke-dasharray:none;stroke-opacity:1"
       id="path1-7-2-9-9-1-9-8"
       cx="24.641489"
       cy="-6.5109615"
       rx="0.65429264"
       ry="0.80279088"
       transform="matrix(0.70710678,0.70710678,0.70710678,-0.70710678,0,0)" /></g></svg>
