<?xml version="1.0" encoding="UTF-8" standalone="no"?>
<!-- Created with Inkscape (http://www.inkscape.org/) -->

<svg
   width="35mm"
   height="35mm"
   viewBox="0 0 35 35"
   version="1.1"
   id="svg1"
   xml:space="preserve"
   inkscape:version="1.4 (e7c3feb100, 2024-10-09)"
   sodipodi:docname="q_p1.svg"
   xmlns:inkscape="http://www.inkscape.org/namespaces/inkscape"
   xmlns:sodipodi="http://sodipodi.sourceforge.net/DTD/sodipodi-0.dtd"
   xmlns="http://www.w3.org/2000/svg"
   xmlns:svg="http://www.w3.org/2000/svg"><sodipodi:namedview
     id="namedview1"
     pagecolor="#ffffff"
     bordercolor="#000000"
     borderopacity="0.25"
     inkscape:showpageshadow="2"
     inkscape:pageopacity="0.0"
     inkscape:pagecheckerboard="0"
     inkscape:deskcolor="#d1d1d1"
     inkscape:document-units="mm"
     inkscape:zoom="3.03832"
     inkscape:cx="133.46191"
     inkscape:cy="57.268491"
     inkscape:window-width="1290"
     inkscape:window-height="1023"
     inkscape:window-x="0"
     inkscape:window-y="0"
     inkscape:window-maximized="0"
     inkscape:current-layer="layer1"><sodipodi:guide
       position="0.17416423,17.540036"
       orientation="0,132.28346"
       id="guide5"
       inkscape:locked="false" /><sodipodi:guide
       position="35.000001,35.000001"
       orientation="132.28346,0"
       id="guide6"
       inkscape:locked="false" /><sodipodi:guide
       position="35.000001,0"
       orientation="0,-132.28346"
       id="guide7"
       inkscape:locked="false" /><sodipodi:guide
       position="17.503506,35.914363"
       orientation="-132.28346,0"
       id="guide8"
       inkscape:locked="false" /></sodipodi:namedview><defs
     id="defs1"><inkscape:path-effect
       effect="mirror_symmetry"
       start_point="17.297909,16.234992"
       end_point="17.313303,7.810326"
       center_point="17.305606,12.022659"
       id="path-effect5"
       is_visible="true"
       lpeversion="1.2"
       lpesatellites=""
       mode="free"
       discard_orig_path="false"
       fuse_paths="true"
       oposite_fuse="false"
       split_items="false"
       split_open="false"
       link_styles="false" /><inkscape:path-effect
       effect="mirror_symmetry"
       start_point="17.297909,16.234992"
       end_point="17.313303,7.810326"
       center_point="17.305606,12.022659"
       id="path-effect5-7"
       is_visible="true"
       lpeversion="1.2"
       lpesatellites=""
       mode="free"
       discard_orig_path="false"
       fuse_paths="true"
       oposite_fuse="false"
       split_items="false"
       split_open="false"
       link_styles="false" /><inkscape:path-effect
       effect="mirror_symmetry"
       start_point="17.297909,16.234992"
       end_point="17.313303,7.810326"
       center_point="17.305606,12.022659"
       id="path-effect5-6"
       is_visible="true"
       lpeversion="1.2"
       lpesatellites=""
       mode="free"
       discard_orig_path="false"
       fuse_paths="true"
       oposite_fuse="false"
       split_items="false"
       split_open="false"
       link_styles="false" /><inkscape:path-effect
       effect="mirror_symmetry"
       start_point="17.297909,16.234992"
       end_point="17.313303,7.810326"
       center_point="17.305606,12.022659"
       id="path-effect5-3"
       is_visible="true"
       lpeversion="1.2"
       lpesatellites=""
       mode="free"
       discard_orig_path="false"
       fuse_paths="true"
       oposite_fuse="false"
       split_items="false"
       split_open="false"
       link_styles="false" /><inkscape:path-effect
       effect="mirror_symmetry"
       start_point="17.297909,16.234992"
       end_point="17.313303,7.810326"
       center_point="17.305606,12.022659"
       id="path-effect5-66"
       is_visible="true"
       lpeversion="1.2"
       lpesatellites=""
       mode="free"
       discard_orig_path="false"
       fuse_paths="true"
       oposite_fuse="false"
       split_items="false"
       split_open="false"
       link_styles="false" /><inkscape:path-effect
       effect="mirror_symmetry"
       start_point="17.297909,16.234992"
       end_point="17.313303,7.810326"
       center_point="17.305606,12.022659"
       id="path-effect5-4"
       is_visible="true"
       lpeversion="1.2"
       lpesatellites=""
       mode="free"
       discard_orig_path="false"
       fuse_paths="true"
       oposite_fuse="false"
       split_items="false"
       split_open="false"
       link_styles="false" /><inkscape:path-effect
       effect="mirror_symmetry"
       start_point="17.297909,16.234992"
       end_point="17.313303,7.810326"
       center_point="17.305606,12.022659"
       id="path-effect5-4-7"
       is_visible="true"
       lpeversion="1.2"
       lpesatellites=""
       mode="free"
       discard_orig_path="false"
       fuse_paths="true"
       oposite_fuse="false"
       split_items="false"
       split_open="false"
       link_styles="false" /><inkscape:path-effect
       effect="mirror_symmetry"
       start_point="17.297909,16.234992"
       end_point="17.313303,7.810326"
       center_point="17.305606,12.022659"
       id="path-effect5-41"
       is_visible="true"
       lpeversion="1.2"
       lpesatellites=""
       mode="free"
       discard_orig_path="false"
       fuse_paths="true"
       oposite_fuse="false"
       split_items="false"
       split_open="false"
       link_styles="false" /><inkscape:path-effect
       effect="mirror_symmetry"
       start_point="17.297909,16.234992"
       end_point="17.313303,7.810326"
       center_point="17.305606,12.022659"
       id="path-effect5-4-0"
       is_visible="true"
       lpeversion="1.2"
       lpesatellites=""
       mode="free"
       discard_orig_path="false"
       fuse_paths="true"
       oposite_fuse="false"
       split_items="false"
       split_open="false"
       link_styles="false" /><inkscape:path-effect
       effect="mirror_symmetry"
       start_point="17.493844,16.300304"
       end_point="17.509238,7.875638"
       center_point="17.501541,12.087971"
       id="path-effect5-4-0-9"
       is_visible="true"
       lpeversion="1.2"
       lpesatellites=""
       mode="free"
       discard_orig_path="false"
       fuse_paths="true"
       oposite_fuse="false"
       split_items="false"
       split_open="false"
       link_styles="false" /><inkscape:path-effect
       effect="mirror_symmetry"
       start_point="17.297909,16.234992"
       end_point="17.313303,7.810326"
       center_point="17.305606,12.022659"
       id="path-effect5-4-0-0"
       is_visible="true"
       lpeversion="1.2"
       lpesatellites=""
       mode="free"
       discard_orig_path="false"
       fuse_paths="true"
       oposite_fuse="false"
       split_items="false"
       split_open="false"
       link_styles="false" /><inkscape:path-effect
       effect="mirror_symmetry"
       start_point="17.493844,16.300304"
       end_point="17.509238,7.875638"
       center_point="17.501541,12.087971"
       id="path-effect5-4-0-9-7"
       is_visible="true"
       lpeversion="1.2"
       lpesatellites=""
       mode="free"
       discard_orig_path="false"
       fuse_paths="true"
       oposite_fuse="false"
       split_items="false"
       split_open="false"
       link_styles="false" /><inkscape:path-effect
       effect="mirror_symmetry"
       start_point="17.493844,16.300304"
       end_point="17.509238,7.875638"
       center_point="17.501541,12.087971"
       id="path-effect5-4-0-9-3"
       is_visible="true"
       lpeversion="1.2"
       lpesatellites=""
       mode="free"
       discard_orig_path="false"
       fuse_paths="true"
       oposite_fuse="false"
       split_items="false"
       split_open="false"
       link_styles="false" /><inkscape:path-effect
       effect="mirror_symmetry"
       start_point="17.297909,16.234992"
       end_point="17.313303,7.810326"
       center_point="17.305606,12.022659"
       id="path-effect5-4-6"
       is_visible="true"
       lpeversion="1.2"
       lpesatellites=""
       mode="free"
       discard_orig_path="false"
       fuse_paths="true"
       oposite_fuse="false"
       split_items="false"
       split_open="false"
       link_styles="false" /><inkscape:path-effect
       effect="mirror_symmetry"
       start_point="17.493844,16.300304"
       end_point="17.509238,7.875638"
       center_point="17.501541,12.087971"
       id="path-effect5-4-0-9-72"
       is_visible="true"
       lpeversion="1.2"
       lpesatellites=""
       mode="free"
       discard_orig_path="false"
       fuse_paths="true"
       oposite_fuse="false"
       split_items="false"
       split_open="false"
       link_styles="false" /><inkscape:path-effect
       effect="mirror_symmetry"
       start_point="17.493844,16.300304"
       end_point="17.509238,7.875638"
       center_point="17.501541,12.087971"
       id="path-effect5-4-0-9-72-8"
       is_visible="true"
       lpeversion="1.2"
       lpesatellites=""
       mode="free"
       discard_orig_path="false"
       fuse_paths="true"
       oposite_fuse="false"
       split_items="false"
       split_open="false"
       link_styles="false" /><inkscape:path-effect
       effect="mirror_symmetry"
       start_point="17.297909,16.234992"
       end_point="17.313303,7.810326"
       center_point="17.305606,12.022659"
       id="path-effect5-4-6-1"
       is_visible="true"
       lpeversion="1.2"
       lpesatellites=""
       mode="free"
       discard_orig_path="false"
       fuse_paths="true"
       oposite_fuse="false"
       split_items="false"
       split_open="false"
       link_styles="false" /><inkscape:path-effect
       effect="mirror_symmetry"
       start_point="17.297909,16.234992"
       end_point="17.313303,7.810326"
       center_point="17.305606,12.022659"
       id="path-effect5-4-6-2"
       is_visible="true"
       lpeversion="1.2"
       lpesatellites=""
       mode="free"
       discard_orig_path="false"
       fuse_paths="true"
       oposite_fuse="false"
       split_items="false"
       split_open="false"
       link_styles="false" /></defs><g
     inkscape:label="Layer 1"
     inkscape:groupmode="layer"
     id="layer1"><path
       style="fill:#999999;fill-opacity:1;stroke:none;stroke-width:0.264999;stroke-dasharray:none;stroke-opacity:1"
       d="m 18.726039,29.332371 c 0.262339,0.004 0.518183,-0.0824 0.507812,-0.261718 -0.07244,-1.252407 -0.08092,-3.577077 -0.509765,-4.482422 0.437864,-0.679074 1.391782,-0.06763 2.0625,-0.798829 0.544522,-0.593621 0.451022,-2.216541 0.382812,-3.285156 -0.368438,-0.08206 -0.421271,-0.02819 -0.867187,0.05078 -0.100661,0.906031 -0.238281,2.304688 -0.238281,2.304688 -0.767798,0.194469 -1.915366,0.416044 -2.578125,0.539062 -0.662306,-0.125439 -2.548006,0.0179 -3.253512,0.282452 -0.461822,-0.800493 -0.902824,-0.690167 -1.000174,-1.596559 -0.445624,-0.0806 -0.467663,0.480362 -0.836399,0.561076 0.112619,0.975993 0.590116,1.607169 1.017646,1.870853 0.520932,0.32129 2.148567,-0.0915 2.830251,0.06578 -0.432152,0.903772 -0.450328,3.230288 -0.527344,4.482422 -0.02205,0.358555 1.02167,0.345807 1.056641,-0.01172 0.100734,-1.029811 0.213416,-2.743698 0.427734,-2.90625 0.121107,-0.09185 0.211094,-0.116149 0.279297,-0.105468 0.06824,-0.01043 0.16048,0.01512 0.28125,0.107421 0.213723,0.163327 0.320999,1.876072 0.417969,2.906244 0.01683,0.178825 0.284536,0.273372 0.546875,0.277343 z"
       id="path4-6"
       sodipodi:nodetypes="cscssscccccscscscssc" /><path
       id="path1-3"
       style="fill:#66ff66;fill-opacity:1;stroke:#000000;stroke-width:0.265"
       d="m 15.825754,23.879141 c 0,-0.918208 0.744354,-2.054432 1.662562,-2.054432 0.918208,0 1.662561,1.136225 1.662561,2.054432 0,0.918207 -0.744355,1.662562 -1.662561,1.662562 -0.918207,0 -1.662562,-0.744354 -1.662562,-1.662562 z"
       sodipodi:nodetypes="zzzzz" /><path
       id="path1-7-1-1"
       style="fill:#ffffff;stroke:#000000;stroke-width:0.265;stroke-dasharray:none"
       d="m 18.12251,29.480163 c 0,-0.207214 0.227855,-0.738307 0.588877,-0.738307 0.361023,0 0.627766,0.541773 0.627766,0.748987 0,0.207214 0.07027,0.385876 -0.627766,0.364516 -0.69804,-0.02136 -0.588877,-0.167981 -0.588877,-0.375196 z"
       sodipodi:nodetypes="ssszs" /><path
       id="path1-7-1-9-7"
       style="fill:#ffffff;stroke:#000000;stroke-width:0.265;stroke-dasharray:none"
       d="m 15.641413,29.458393 c 0,-0.207214 0.227855,-0.738307 0.588877,-0.738307 0.361023,0 0.627766,0.541773 0.627766,0.748987 0,0.207213 0.07027,0.385875 -0.627766,0.364515 -0.69804,-0.02136 -0.588877,-0.167981 -0.588877,-0.375195 z"
       sodipodi:nodetypes="ssszs" /><path
       style="fill:#999999;fill-opacity:1;stroke:none;stroke-width:0.1"
       d="m 13.122075,18.684231 c 0,0 -2.866184,-1.159337 -3.1299637,-0.0949 -0.2165574,0.873884 2.7892697,1.198155 2.7892697,1.198155 z"
       id="path2"
       sodipodi:nodetypes="cscc"
       inkscape:transform-center-x="4.482036"
       inkscape:transform-center-y="-0.28970023" /><path
       id="path1-7-1-1-6"
       style="fill:#ffffff;stroke:#000000;stroke-width:0.265;stroke-dasharray:none"
       d="m 9.9294313,19.223036 c 0.2046697,0.03235 0.7648227,-0.109807 0.8211827,-0.466404 0.05635,-0.356599 -0.437135,-0.704644 -0.641804,-0.736994 -0.2046717,-0.03235 -0.3701741,-0.129646 -0.4580463,0.563165 -0.087867,0.692817 0.073995,0.60788 0.2786696,0.640228 z"
       sodipodi:nodetypes="ssszs"
       inkscape:transform-center-x="5.8428619"
       inkscape:transform-center-y="-0.64154728" /><path
       style="fill:#999999;fill-opacity:1;stroke:none;stroke-width:0.264999;stroke-dasharray:none;stroke-opacity:1"
       d="m 12.928488,21.956121 c -0.2879,0.642497 -0.41935,2.185506 -0.849819,2.275007 -0.275649,0.05731 -0.657625,0.02107 -0.827555,-0.441936 -0.08913,-0.242843 0.206055,-1.420743 0.66537,-2.04144 0.01263,-0.765104 1.043061,-2.659111 1.389625,-3.06688 -0.368023,-1.013605 0.05376,-2.302046 0.393301,-3.357385 -0.03108,-0.977486 -0.07758,-0.974289 0.276477,-2.069932 0.514017,-0.226126 0.352433,-0.381086 0.763412,-0.08325 0.476234,0.345107 0.06508,1.682929 -0.100358,2.441154 -0.160642,0.736224 -0.398729,1.658316 -0.103261,2.007916 0.984826,-0.183513 3.236771,0.401076 4.466172,0.650761 0.352044,0.0715 0.0696,1.076358 -0.284798,1.017603 -1.331275,-0.263932 -3.42821,-0.487152 -4.755539,-0.579614 -0.0324,0.880435 -0.723935,2.558223 -1.033028,3.248001 z"
       id="path4-6-8"
       sodipodi:nodetypes="sssccccssccccs"
       inkscape:transform-center-x="0.8342454"
       inkscape:transform-center-y="-0.62446539" /><ellipse
       style="fill:#ffffff;fill-opacity:1;stroke:#000000;stroke-width:0.265;stroke-dasharray:none;stroke-opacity:1"
       id="path1-7-2-9-9-1-3-1"
       cx="-17.360464"
       cy="19.978352"
       rx="0.65429264"
       ry="0.80279088"
       transform="matrix(-0.96592583,-0.25881904,-0.25881904,0.96592583,0,0)"
       inkscape:transform-center-x="4.4354052"
       inkscape:transform-center-y="4.5375528" /><path
       id="path1-3-8"
       style="fill:#6666ff;fill-opacity:1;stroke:#000000;stroke-width:0.265"
       d="m 13.96456,17.033743 c -0.88692,-0.237651 -2.177081,0.187265 -2.414731,1.074185 -0.23765,0.886921 0.667206,1.899987 1.554126,2.137637 0.886921,0.237649 1.798563,-0.28869 2.036213,-1.175608 0.237651,-0.88692 -0.288687,-1.798565 -1.175608,-2.036214 z"
       sodipodi:nodetypes="zzzzz"
       inkscape:transform-center-x="2.6792646"
       inkscape:transform-center-y="-0.61765522" /><path
       id="path1-7-1-9-7-31"
       style="fill:#ffffff;stroke:#000000;stroke-width:0.265;stroke-dasharray:none"
       d="m 19.401414,18.299699 c -0.200155,-0.05363 -0.772124,0.029 -0.865563,0.377723 -0.09344,0.348723 0.360835,0.746597 0.560987,0.800229 0.200152,0.05363 0.354542,0.167744 0.514575,-0.51203 0.160033,-0.679785 -0.0098,-0.612289 -0.209997,-0.66592 z"
       sodipodi:nodetypes="ssszs"
       inkscape:transform-center-x="-3.065543"
       inkscape:transform-center-y="-0.35100082" /><path
       id="path1-3-0-4"
       style="fill:#ff6666;fill-opacity:1;stroke:#000000;stroke-width:0.265"
       d="m 24.259471,15.858616 c -0.918209,1e-6 -2.054432,0.744355 -2.054432,1.662564 -1e-6,0.918207 1.136224,1.66256 2.054431,1.66256 0.918209,-1e-6 1.662562,-0.744355 1.662562,-1.662561 10e-7,-0.918207 -0.744352,-1.662562 -1.662561,-1.662563 z"
       sodipodi:nodetypes="zzzzz" /><path
       style="fill:#999999;fill-opacity:1;stroke:none;stroke-width:0.264999;stroke-dasharray:none;stroke-opacity:1"
       d="m 23.784325,19.134902 c -0.333013,0.460116 -0.647232,0.660953 -1.109374,0.904297 -0.923646,0.323276 -1.96935,0.431758 -1.953127,1.064452 0.01089,0.424526 1.934235,-0.01979 2.367188,-0.140624 0.58329,-0.162794 1.708559,-0.70324 2.023437,-1.240239 0.241453,-0.411809 0.235514,-1.57358 0.212892,-2.197261 0.0249,-0.623594 0.03489,-1.78849 -0.205078,-2.201172 -0.312913,-0.538142 -1.434888,-1.081169 -2.017578,-1.246094 -0.432508,-0.122418 -2.356704,-0.574874 -2.369141,-0.150391 -0.01854,0.63263 1.028716,0.745616 1.951173,1.072263 0.461251,0.245033 0.774138,0.446874 1.10547,0.908202 -0.944676,0.22965 -2.597475,-0.237437 -3.849611,-0.314452 -0.358554,-0.02205 -0.423931,1.019716 -0.06641,1.054687 0.514905,0.05036 0.627293,0.184379 1.15625,0.117188 0.452837,0.217324 1.061298,0.511519 1.654298,0.587889 0.0221,0.05913 0.02958,0.114613 0.0293,0.166016 9.9e-5,0.05141 -0.793998,0.537997 -0.816347,0.59705 -0.121303,0.610318 0.890909,0.804349 1.886663,1.018182 z"
       id="path4-6-3-2-0"
       sodipodi:nodetypes="cscccccssscsscccccc" /><ellipse
       style="fill:#ffffff;fill-opacity:1;stroke:#000000;stroke-width:0.265;stroke-dasharray:none;stroke-opacity:1"
       id="path1-7-2-9-9-1-3-4"
       cx="-14.166298"
       cy="-20.95542"
       rx="0.65429264"
       ry="0.80279088"
       transform="matrix(0,-1,-1,0,0,0)" /><path
       id="path1-7-1-1-4-1"
       style="fill:#ffffff;stroke:#000000;stroke-width:0.265;stroke-dasharray:none"
       d="m 21.4324,18.444831 c -0.04836,-0.682666 1.102807,-0.503893 1.310009,-0.501697 0.207202,0.0022 1.167629,-0.39595 1.16196,0.463463 -0.0069,1.042508 -2.428412,0.653085 -2.471969,0.03823 z"
       sodipodi:nodetypes="sszs" /><path
       id="path1-7-1-1-4-5-9"
       style="fill:#ffffff;stroke:#000000;stroke-width:0.265;stroke-dasharray:none"
       d="m 18.153458,16.166492 c -0.04836,0.682667 1.102809,0.503895 1.310009,0.501699 0.207203,-0.0022 1.16763,0.395949 1.161961,-0.463464 -0.0069,-1.042507 -2.428413,-0.653086 -2.471968,-0.03823 z"
       sodipodi:nodetypes="sszs" /><ellipse
       style="fill:#ffffff;fill-opacity:1;stroke:#000000;stroke-width:0.265;stroke-dasharray:none;stroke-opacity:1"
       id="path1-7-2-9-9-1"
       cx="29.44702"
       cy="0.054780968"
       rx="0.65429264"
       ry="0.80279088"
       transform="rotate(45)" /><path
       id="path1-3-0-4-6"
       style="fill:#4d4d4d;fill-opacity:1;stroke:#000000;stroke-width:0.265"
       d="m 9.4298024,9.5510137 c 7e-7,0.9182083 0.7443546,2.0544313 1.6625636,2.0544303 0.918207,10e-7 1.66256,-1.136224 1.66256,-2.0544305 -10e-7,-0.9182086 -0.744354,-1.6625619 -1.66256,-1.6625621 -0.918208,-5e-7 -1.6625629,0.744352 -1.6625636,1.6625623 z"
       sodipodi:nodetypes="zzzzz" /><path
       style="fill:#999999;fill-opacity:1;stroke:none;stroke-width:0.264999;stroke-dasharray:none;stroke-opacity:1"
       d="m 12.706087,10.026158 c 0.460119,0.33301 0.660952,0.647233 0.904298,1.109375 0.323273,0.923647 0.431758,1.96935 1.064453,1.953125 0.424526,-0.01089 -0.01979,-1.934234 -0.140624,-2.367187 C 14.37142,10.138182 13.830973,9.0129112 13.293974,8.6980345 12.882165,8.456581 11.720394,8.4625197 11.096714,8.4851427 10.47312,8.4602424 9.3082238,8.4502529 8.8955403,8.690221 8.3573885,9.0031165 7.8143726,10.125109 7.6494462,10.707799 c -0.122418,0.432508 -0.5748723,2.356704 -0.1503896,2.369141 0.6326289,0.01854 0.7456149,-1.028716 1.0722627,-1.951173 0.245033,-0.46125 0.4468744,-0.774138 0.9082038,-1.10547 0.2296454,0.944676 -0.2374386,2.597475 -0.3144543,3.849611 -0.022051,0.358553 1.0197162,0.42393 1.0546872,0.06641 0.05036,-0.514906 0.184379,-0.627293 0.117187,-1.15625 0.217325,-0.452837 0.51152,-1.061297 0.587891,-1.654297 0.05914,-0.02206 0.114614,-0.02957 0.166014,-0.02931 0.05141,-9.8e-5 0.537997,0.793999 0.59705,0.816348 0.610318,0.121303 0.804349,-0.890909 1.018182,-1.886663 z"
       id="path4-6-3-2-0-4"
       sodipodi:nodetypes="cscccccssscsscccccc" /><ellipse
       style="fill:#ffffff;fill-opacity:1;stroke:#000000;stroke-width:0.265;stroke-dasharray:none;stroke-opacity:1"
       id="path1-7-2-9-9-1-3-3"
       cx="-14.284035"
       cy="3.5878868"
       rx="0.65429264"
       ry="0.80279088"
       transform="matrix(-0.70710678,-0.70710678,-0.70710678,0.70710678,0,0)" /><path
       id="path1-7-1-1-4-1-0"
       style="fill:#ffffff;stroke:#000000;stroke-width:0.265;stroke-dasharray:none"
       d="m 12.016017,12.378083 c -0.682666,0.04836 -0.503894,-1.102807 -0.501697,-1.310009 0.0022,-0.207201 -0.395946,-1.1676289 0.463462,-1.1619589 1.042509,0.0069 0.653073,2.4284139 0.03823,2.4719689 z"
       sodipodi:nodetypes="sszs" /><path
       id="path1-7-1-1-4-5-9-3"
       style="fill:#ffffff;stroke:#000000;stroke-width:0.265;stroke-dasharray:none"
       d="m 9.7376775,15.657026 c 0.6826665,0.04836 0.5038955,-1.10281 0.5017005,-1.310012 -0.0022,-0.2072 0.395947,-1.167627 -0.4634665,-1.161959 -1.0425061,0.0069 -0.6530854,2.428413 -0.03823,2.471969 z"
       sodipodi:nodetypes="sszs" /><ellipse
       style="fill:#ffffff;fill-opacity:1;stroke:#000000;stroke-width:0.265;stroke-dasharray:none;stroke-opacity:1"
       id="path1-7-2-9-9-1-3-9-9-8-5-4"
       cx="-11.776324"
       cy="15.482577"
       rx="0.65429264"
       ry="0.80279088"
       transform="matrix(-0.98252169,0.18614816,0.18614816,0.98252169,0,0)" /><ellipse
       style="fill:#ffffff;fill-opacity:1;stroke:#000000;stroke-width:0.265;stroke-dasharray:none;stroke-opacity:1"
       id="path1-7-2-9-9-1-3-1-6"
       cx="0.16386829"
       cy="25.305447"
       rx="0.65429264"
       ry="0.80279088"
       transform="matrix(-0.8660254,0.50000001,0.50000001,0.8660254,0,0)"
       inkscape:transform-center-x="-0.041440662"
       inkscape:transform-center-y="0.03326206" /></g></svg>
