<?xml version="1.0" encoding="UTF-8" standalone="no"?>
<!-- Created with Inkscape (http://www.inkscape.org/) -->

<svg
   width="35mm"
   height="35mm"
   viewBox="0 0 35 35"
   version="1.1"
   id="svg1"
   xml:space="preserve"
   inkscape:version="1.4 (e7c3feb100, 2024-10-09)"
   sodipodi:docname="q_p4.svg"
   xmlns:inkscape="http://www.inkscape.org/namespaces/inkscape"
   xmlns:sodipodi="http://sodipodi.sourceforge.net/DTD/sodipodi-0.dtd"
   xmlns="http://www.w3.org/2000/svg"
   xmlns:svg="http://www.w3.org/2000/svg"><sodipodi:namedview
     id="namedview1"
     pagecolor="#ffffff"
     bordercolor="#000000"
     borderopacity="0.25"
     inkscape:showpageshadow="2"
     inkscape:pageopacity="0.0"
     inkscape:pagecheckerboard="0"
     inkscape:deskcolor="#d1d1d1"
     inkscape:document-units="mm"
     inkscape:zoom="4.2968333"
     inkscape:cx="56.90237"
     inkscape:cy="71.564331"
     inkscape:window-width="1916"
     inkscape:window-height="948"
     inkscape:window-x="0"
     inkscape:window-y="0"
     inkscape:window-maximized="0"
     inkscape:current-layer="layer1"><sodipodi:guide
       position="0.17416423,17.540036"
       orientation="0,132.28346"
       id="guide5"
       inkscape:locked="false" /><sodipodi:guide
       position="34.97537,32.105912"
       orientation="132.28346,0"
       id="guide6"
       inkscape:locked="false" /><sodipodi:guide
       position="35.000001,0"
       orientation="0,-132.28346"
       id="guide7"
       inkscape:locked="false" /><sodipodi:guide
       position="17.503506,35.914363"
       orientation="-132.28346,0"
       id="guide8"
       inkscape:locked="false" /></sodipodi:namedview><defs
     id="defs1"><inkscape:path-effect
       effect="mirror_symmetry"
       start_point="17.297909,16.234992"
       end_point="17.313303,7.810326"
       center_point="17.305606,12.022659"
       id="path-effect5"
       is_visible="true"
       lpeversion="1.2"
       lpesatellites=""
       mode="free"
       discard_orig_path="false"
       fuse_paths="true"
       oposite_fuse="false"
       split_items="false"
       split_open="false"
       link_styles="false" /><inkscape:path-effect
       effect="mirror_symmetry"
       start_point="17.297909,16.234992"
       end_point="17.313303,7.810326"
       center_point="17.305606,12.022659"
       id="path-effect5-7"
       is_visible="true"
       lpeversion="1.2"
       lpesatellites=""
       mode="free"
       discard_orig_path="false"
       fuse_paths="true"
       oposite_fuse="false"
       split_items="false"
       split_open="false"
       link_styles="false" /><inkscape:path-effect
       effect="mirror_symmetry"
       start_point="17.297909,16.234992"
       end_point="17.313303,7.810326"
       center_point="17.305606,12.022659"
       id="path-effect5-6"
       is_visible="true"
       lpeversion="1.2"
       lpesatellites=""
       mode="free"
       discard_orig_path="false"
       fuse_paths="true"
       oposite_fuse="false"
       split_items="false"
       split_open="false"
       link_styles="false" /><inkscape:path-effect
       effect="mirror_symmetry"
       start_point="17.297909,16.234992"
       end_point="17.313303,7.810326"
       center_point="17.305606,12.022659"
       id="path-effect5-3"
       is_visible="true"
       lpeversion="1.2"
       lpesatellites=""
       mode="free"
       discard_orig_path="false"
       fuse_paths="true"
       oposite_fuse="false"
       split_items="false"
       split_open="false"
       link_styles="false" /><inkscape:path-effect
       effect="mirror_symmetry"
       start_point="17.297909,16.234992"
       end_point="17.313303,7.810326"
       center_point="17.305606,12.022659"
       id="path-effect5-66"
       is_visible="true"
       lpeversion="1.2"
       lpesatellites=""
       mode="free"
       discard_orig_path="false"
       fuse_paths="true"
       oposite_fuse="false"
       split_items="false"
       split_open="false"
       link_styles="false" /><inkscape:path-effect
       effect="mirror_symmetry"
       start_point="17.297909,16.234992"
       end_point="17.313303,7.810326"
       center_point="17.305606,12.022659"
       id="path-effect5-4"
       is_visible="true"
       lpeversion="1.2"
       lpesatellites=""
       mode="free"
       discard_orig_path="false"
       fuse_paths="true"
       oposite_fuse="false"
       split_items="false"
       split_open="false"
       link_styles="false" /><inkscape:path-effect
       effect="mirror_symmetry"
       start_point="17.297909,16.234992"
       end_point="17.313303,7.810326"
       center_point="17.305606,12.022659"
       id="path-effect5-4-7"
       is_visible="true"
       lpeversion="1.2"
       lpesatellites=""
       mode="free"
       discard_orig_path="false"
       fuse_paths="true"
       oposite_fuse="false"
       split_items="false"
       split_open="false"
       link_styles="false" /><inkscape:path-effect
       effect="mirror_symmetry"
       start_point="17.297909,16.234992"
       end_point="17.313303,7.810326"
       center_point="17.305606,12.022659"
       id="path-effect5-41"
       is_visible="true"
       lpeversion="1.2"
       lpesatellites=""
       mode="free"
       discard_orig_path="false"
       fuse_paths="true"
       oposite_fuse="false"
       split_items="false"
       split_open="false"
       link_styles="false" /><inkscape:path-effect
       effect="mirror_symmetry"
       start_point="17.297909,16.234992"
       end_point="17.313303,7.810326"
       center_point="17.305606,12.022659"
       id="path-effect5-4-0"
       is_visible="true"
       lpeversion="1.2"
       lpesatellites=""
       mode="free"
       discard_orig_path="false"
       fuse_paths="true"
       oposite_fuse="false"
       split_items="false"
       split_open="false"
       link_styles="false" /><inkscape:path-effect
       effect="mirror_symmetry"
       start_point="17.493844,16.300304"
       end_point="17.509238,7.875638"
       center_point="17.501541,12.087971"
       id="path-effect5-4-0-9"
       is_visible="true"
       lpeversion="1.2"
       lpesatellites=""
       mode="free"
       discard_orig_path="false"
       fuse_paths="true"
       oposite_fuse="false"
       split_items="false"
       split_open="false"
       link_styles="false" /><inkscape:path-effect
       effect="mirror_symmetry"
       start_point="17.297909,16.234992"
       end_point="17.313303,7.810326"
       center_point="17.305606,12.022659"
       id="path-effect5-4-0-0"
       is_visible="true"
       lpeversion="1.2"
       lpesatellites=""
       mode="free"
       discard_orig_path="false"
       fuse_paths="true"
       oposite_fuse="false"
       split_items="false"
       split_open="false"
       link_styles="false" /><inkscape:path-effect
       effect="mirror_symmetry"
       start_point="17.493844,16.300304"
       end_point="17.509238,7.875638"
       center_point="17.501541,12.087971"
       id="path-effect5-4-0-9-7"
       is_visible="true"
       lpeversion="1.2"
       lpesatellites=""
       mode="free"
       discard_orig_path="false"
       fuse_paths="true"
       oposite_fuse="false"
       split_items="false"
       split_open="false"
       link_styles="false" /><inkscape:path-effect
       effect="mirror_symmetry"
       start_point="17.493844,16.300304"
       end_point="17.509238,7.875638"
       center_point="17.501541,12.087971"
       id="path-effect5-4-0-9-3"
       is_visible="true"
       lpeversion="1.2"
       lpesatellites=""
       mode="free"
       discard_orig_path="false"
       fuse_paths="true"
       oposite_fuse="false"
       split_items="false"
       split_open="false"
       link_styles="false" /><inkscape:path-effect
       effect="mirror_symmetry"
       start_point="17.297909,16.234992"
       end_point="17.313303,7.810326"
       center_point="17.305606,12.022659"
       id="path-effect5-4-6"
       is_visible="true"
       lpeversion="1.2"
       lpesatellites=""
       mode="free"
       discard_orig_path="false"
       fuse_paths="true"
       oposite_fuse="false"
       split_items="false"
       split_open="false"
       link_styles="false" /><inkscape:path-effect
       effect="mirror_symmetry"
       start_point="17.493844,16.300304"
       end_point="17.509238,7.875638"
       center_point="17.501541,12.087971"
       id="path-effect5-4-0-9-72"
       is_visible="true"
       lpeversion="1.2"
       lpesatellites=""
       mode="free"
       discard_orig_path="false"
       fuse_paths="true"
       oposite_fuse="false"
       split_items="false"
       split_open="false"
       link_styles="false" /><inkscape:path-effect
       effect="mirror_symmetry"
       start_point="17.493844,16.300304"
       end_point="17.509238,7.875638"
       center_point="17.501541,12.087971"
       id="path-effect5-4-0-9-72-8"
       is_visible="true"
       lpeversion="1.2"
       lpesatellites=""
       mode="free"
       discard_orig_path="false"
       fuse_paths="true"
       oposite_fuse="false"
       split_items="false"
       split_open="false"
       link_styles="false" /><inkscape:path-effect
       effect="mirror_symmetry"
       start_point="17.297909,16.234992"
       end_point="17.313303,7.810326"
       center_point="17.305606,12.022659"
       id="path-effect5-4-6-1"
       is_visible="true"
       lpeversion="1.2"
       lpesatellites=""
       mode="free"
       discard_orig_path="false"
       fuse_paths="true"
       oposite_fuse="false"
       split_items="false"
       split_open="false"
       link_styles="false" /><inkscape:path-effect
       effect="mirror_symmetry"
       start_point="17.297909,16.234992"
       end_point="17.313303,7.810326"
       center_point="17.305606,12.022659"
       id="path-effect5-4-6-2"
       is_visible="true"
       lpeversion="1.2"
       lpesatellites=""
       mode="free"
       discard_orig_path="false"
       fuse_paths="true"
       oposite_fuse="false"
       split_items="false"
       split_open="false"
       link_styles="false" /></defs><g
     inkscape:label="Layer 1"
     inkscape:groupmode="layer"
     id="layer1"><path
       style="fill:#999999;fill-opacity:1;stroke:none;stroke-width:0.264999;stroke-dasharray:none;stroke-opacity:1"
       d="m 29.332373,18.726037 c 0.004,0.262339 -0.0824,0.518183 -0.261718,0.507812 -1.252407,-0.07244 -3.577077,-0.08092 -4.482422,-0.509765 -0.679074,0.437864 -0.06763,1.391782 -0.798829,2.0625 -0.593621,0.544522 -2.216541,0.451022 -3.285156,0.382812 -0.08206,-0.368438 -0.02819,-0.421271 0.05078,-0.867187 0.906031,-0.100661 2.304688,-0.238281 2.304688,-0.238281 0.194469,-0.767798 0.416044,-1.915366 0.539062,-2.578125 -0.125439,-0.662306 0.0179,-2.548006 0.282452,-3.253512 -0.800493,-0.461822 -0.690167,-0.902824 -1.596559,-1.000174 -0.0806,-0.445624 0.480362,-0.467663 0.561076,-0.836399 0.975993,0.112619 1.607169,0.590116 1.870853,1.017646 0.32129,0.520932 -0.0915,2.148567 0.06578,2.830251 0.903772,-0.432152 3.230288,-0.450328 4.482422,-0.527344 0.358555,-0.02205 0.345807,1.02167 -0.01172,1.056641 -1.029811,0.100734 -2.743698,0.213416 -2.90625,0.427734 -0.09185,0.121107 -0.116149,0.211094 -0.105468,0.279297 -0.01043,0.06824 0.01512,0.16048 0.107421,0.28125 0.163327,0.213723 1.876072,0.320999 2.906244,0.417969 0.178825,0.01683 0.273372,0.284536 0.277344,0.546875 z"
       id="path4-6"
       sodipodi:nodetypes="cscssscccccscscscssc" /><path
       id="path1-3"
       style="fill:#ff6666;fill-opacity:1;stroke:#000000;stroke-width:0.265"
       d="m 23.879143,15.825752 c -0.918208,0 -2.054432,0.744354 -2.054432,1.662562 0,0.918208 1.136225,1.662561 2.054432,1.662561 0.918207,0 1.662562,-0.744355 1.662562,-1.662561 0,-0.918207 -0.744354,-1.662562 -1.662562,-1.662562 z"
       sodipodi:nodetypes="zzzzz" /><path
       id="path1-7-1-1"
       style="fill:#ffffff;stroke:#000000;stroke-width:0.265;stroke-dasharray:none"
       d="m 29.480165,18.122508 c -0.207214,0 -0.738307,0.227855 -0.738307,0.588877 0,0.361023 0.541773,0.627766 0.748987,0.627766 0.207214,0 0.385876,0.07027 0.364516,-0.627766 -0.02136,-0.69804 -0.167981,-0.588877 -0.375196,-0.588877 z"
       sodipodi:nodetypes="ssszs" /><path
       id="path1-7-1-9-7"
       style="fill:#ffffff;stroke:#000000;stroke-width:0.265;stroke-dasharray:none"
       d="m 29.458395,15.641411 c -0.207214,0 -0.738307,0.227855 -0.738307,0.588877 0,0.361023 0.541773,0.627766 0.748987,0.627766 0.207213,0 0.385875,0.07027 0.364515,-0.627766 -0.02136,-0.69804 -0.167981,-0.588877 -0.375195,-0.588877 z"
       sodipodi:nodetypes="ssszs" /><path
       style="fill:#999999;fill-opacity:1;stroke:none;stroke-width:0.1"
       d="m 18.684233,13.122073 c 0,0 -1.159337,-2.866184 -0.0949,-3.129964 0.873884,-0.216557 1.198155,2.78927 1.198155,2.78927 z"
       id="path2"
       sodipodi:nodetypes="cscc"
       inkscape:transform-center-x="0.28970014"
       inkscape:transform-center-y="-4.4820361" /><path
       id="path1-7-1-1-6"
       style="fill:#ffffff;stroke:#000000;stroke-width:0.265;stroke-dasharray:none"
       d="m 19.223038,9.929429 c 0.03235,0.20467 -0.109807,0.764823 -0.466404,0.821183 -0.356599,0.05635 -0.704644,-0.437135 -0.736994,-0.641804 -0.03235,-0.204672 -0.129646,-0.370174 0.563165,-0.458046 0.692817,-0.08787 0.60788,0.074 0.640228,0.278669 z"
       sodipodi:nodetypes="ssszs"
       inkscape:transform-center-x="0.64154719"
       inkscape:transform-center-y="-5.8428622" /><path
       style="fill:#999999;fill-opacity:1;stroke:none;stroke-width:0.264999;stroke-dasharray:none;stroke-opacity:1"
       d="m 21.956123,12.928486 c 0.642497,-0.2879 2.185506,-0.41935 2.275007,-0.849819 0.05731,-0.275649 0.02107,-0.657625 -0.441936,-0.827555 -0.242843,-0.08913 -1.420743,0.206055 -2.04144,0.66537 -0.765104,0.01263 -2.659111,1.043061 -3.06688,1.389625 -1.013605,-0.368023 -2.302046,0.05376 -3.357385,0.393301 -0.977486,-0.03108 -0.974289,-0.07758 -2.069932,0.276477 -0.226126,0.514017 -0.381086,0.352433 -0.08325,0.763412 0.345107,0.476234 1.682929,0.06508 2.441154,-0.100358 0.736224,-0.160642 1.658316,-0.398729 2.007916,-0.103261 -0.183513,0.984826 0.401076,3.236771 0.650761,4.466172 0.0715,0.352044 1.076358,0.0696 1.017603,-0.284798 -0.263932,-1.331275 -0.487152,-3.42821 -0.579614,-4.755539 0.880435,-0.0324 2.558223,-0.723935 3.248001,-1.033028 z"
       id="path4-6-8"
       sodipodi:nodetypes="sssccccssccccs"
       inkscape:transform-center-x="0.6244653"
       inkscape:transform-center-y="-0.83424549" /><ellipse
       style="fill:#ffffff;fill-opacity:1;stroke:#000000;stroke-width:0.265;stroke-dasharray:none;stroke-opacity:1"
       id="path1-7-2-9-9-1-3-1"
       cx="-17.360462"
       cy="19.978354"
       rx="0.65429264"
       ry="0.80279088"
       transform="rotate(-105)"
       inkscape:transform-center-x="-4.5375522"
       inkscape:transform-center-y="-4.4354059" /><path
       id="path1-3-8"
       style="fill:#4d4d4d;fill-opacity:1;stroke:#000000;stroke-width:0.265"
       d="m 17.033745,13.964558 c -0.237651,-0.88692 0.187265,-2.177081 1.074185,-2.414731 0.886921,-0.23765 1.899987,0.667206 2.137637,1.554126 0.237649,0.886921 -0.28869,1.798563 -1.175608,2.036213 -0.88692,0.237651 -1.798565,-0.288687 -2.036214,-1.175608 z"
       sodipodi:nodetypes="zzzzz"
       inkscape:transform-center-x="0.61765513"
       inkscape:transform-center-y="-2.6792647" /><path
       id="path1-7-1-9-7-31"
       style="fill:#ffffff;stroke:#000000;stroke-width:0.265;stroke-dasharray:none"
       d="m 18.299701,19.401412 c -0.05363,-0.200155 0.029,-0.772124 0.377723,-0.865563 0.348723,-0.09344 0.746597,0.360835 0.800229,0.560987 0.05363,0.200152 0.167744,0.354542 -0.51203,0.514575 -0.679785,0.160033 -0.612289,-0.0098 -0.66592,-0.209997 z"
       sodipodi:nodetypes="ssszs"
       inkscape:transform-center-x="0.35100073"
       inkscape:transform-center-y="3.0655429" /><path
       id="path1-3-0-4"
       style="fill:#66ff66;fill-opacity:1;stroke:#000000;stroke-width:0.265"
       d="m 15.858618,24.259469 c 10e-7,-0.918209 0.744355,-2.054432 1.662564,-2.054432 0.918207,-1e-6 1.66256,1.136224 1.66256,2.054431 -10e-7,0.918209 -0.744355,1.662562 -1.662561,1.662562 -0.918207,1e-6 -1.662562,-0.744352 -1.662563,-1.662561 z"
       sodipodi:nodetypes="zzzzz" /><path
       style="fill:#999999;fill-opacity:1;stroke:none;stroke-width:0.264999;stroke-dasharray:none;stroke-opacity:1"
       d="m 19.134904,23.784323 c 0.460116,-0.333013 0.660953,-0.647232 0.904297,-1.109374 0.323276,-0.923646 0.431758,-1.96935 1.064452,-1.953127 0.424526,0.01089 -0.01979,1.934235 -0.140624,2.367188 -0.162794,0.58329 -0.70324,1.708559 -1.240239,2.023437 -0.411809,0.241453 -1.57358,0.235514 -2.197261,0.212892 -0.623594,0.0249 -1.78849,0.03489 -2.201172,-0.205078 -0.538142,-0.312913 -1.081169,-1.434888 -1.246094,-2.017578 -0.122418,-0.432508 -0.574874,-2.356704 -0.150391,-2.369141 0.63263,-0.01854 0.745616,1.028716 1.072263,1.951173 0.245033,0.461251 0.446874,0.774138 0.908202,1.10547 0.22965,-0.944676 -0.237437,-2.597475 -0.314452,-3.849611 -0.02205,-0.358554 1.019716,-0.423931 1.054687,-0.06641 0.05036,0.514905 0.184379,0.627293 0.117188,1.15625 0.217324,0.452837 0.511519,1.061298 0.587889,1.654298 0.05913,0.0221 0.114613,0.02958 0.166016,0.0293 0.05141,9.9e-5 0.537997,-0.793998 0.59705,-0.816347 0.610318,-0.121303 0.804349,0.890909 1.018182,1.886663 z"
       id="path4-6-3-2-0"
       sodipodi:nodetypes="cscccccssscsscccccc" /><ellipse
       style="fill:#ffffff;fill-opacity:1;stroke:#000000;stroke-width:0.265;stroke-dasharray:none;stroke-opacity:1"
       id="path1-7-2-9-9-1-3-4"
       cx="-14.1663"
       cy="-20.955418"
       rx="0.65429264"
       ry="0.80279088"
       transform="scale(-1)" /><path
       id="path1-7-1-1-4-1"
       style="fill:#ffffff;stroke:#000000;stroke-width:0.265;stroke-dasharray:none"
       d="m 18.444833,21.432398 c -0.682666,-0.04836 -0.503893,1.102807 -0.501697,1.310009 0.0022,0.207202 -0.39595,1.167629 0.463463,1.16196 1.042508,-0.0069 0.653085,-2.428412 0.03823,-2.471969 z"
       sodipodi:nodetypes="sszs" /><path
       id="path1-7-1-1-4-5-9"
       style="fill:#ffffff;stroke:#000000;stroke-width:0.265;stroke-dasharray:none"
       d="m 16.166494,18.153456 c 0.682667,-0.04836 0.503895,1.102809 0.501699,1.310009 -0.0022,0.207203 0.395949,1.16763 -0.463464,1.161961 -1.042507,-0.0069 -0.653086,-2.428413 -0.03823,-2.471968 z"
       sodipodi:nodetypes="sszs" /><ellipse
       style="fill:#ffffff;fill-opacity:1;stroke:#000000;stroke-width:0.265;stroke-dasharray:none;stroke-opacity:1"
       id="path1-7-2-9-9-1"
       cx="29.44702"
       cy="0.05478286"
       rx="0.65429264"
       ry="0.80279088"
       transform="matrix(0.70710678,0.70710678,0.70710678,-0.70710678,0,0)" /><path
       id="path1-3-0-4-6"
       style="fill:#6666ff;fill-opacity:1;stroke:#000000;stroke-width:0.265"
       d="m 9.551016,9.4298 c 0.918208,10e-7 2.054431,0.744355 2.05443,1.662564 10e-7,0.918207 -1.136224,1.66256 -2.05443,1.66256 -0.918209,-1e-6 -1.662562,-0.744354 -1.662563,-1.66256 0,-0.918208 0.744352,-1.662563 1.662563,-1.662564 z"
       sodipodi:nodetypes="zzzzz" /><path
       style="fill:#999999;fill-opacity:1;stroke:none;stroke-width:0.264999;stroke-dasharray:none;stroke-opacity:1"
       d="m 10.02616,12.706085 c 0.33301,0.460119 0.647233,0.660952 1.109375,0.904298 0.923647,0.323273 1.96935,0.431758 1.953125,1.064453 -0.01089,0.424526 -1.934234,-0.01979 -2.367187,-0.140624 -0.583289,-0.162794 -1.70856,-0.703241 -2.023436,-1.24024 -0.241454,-0.411809 -0.235515,-1.57358 -0.212892,-2.19726 -0.0249,-0.623594 -0.03489,-1.78849 0.205078,-2.201174 0.312896,-0.538151 1.434888,-1.081167 2.017578,-1.246094 0.432508,-0.122418 2.356704,-0.574872 2.369141,-0.150389 0.01854,0.632629 -1.028716,0.745615 -1.951173,1.072262 -0.46125,0.245033 -0.774138,0.446875 -1.10547,0.908204 0.944676,0.229646 2.597475,-0.237439 3.849611,-0.314454 0.358553,-0.02205 0.42393,1.019716 0.06641,1.054687 -0.514906,0.05036 -0.627293,0.184379 -1.15625,0.117187 -0.452837,0.217325 -1.061297,0.51152 -1.654297,0.587891 -0.02206,0.05914 -0.02957,0.114614 -0.02931,0.166014 -9.8e-5,0.05141 0.793999,0.537997 0.816348,0.59705 0.121303,0.610318 -0.890909,0.804349 -1.886663,1.018182 z"
       id="path4-6-3-2-0-4"
       sodipodi:nodetypes="cscccccssscsscccccc" /><ellipse
       style="fill:#ffffff;fill-opacity:1;stroke:#000000;stroke-width:0.265;stroke-dasharray:none;stroke-opacity:1"
       id="path1-7-2-9-9-1-3-3"
       cx="-14.284035"
       cy="3.5878887"
       rx="0.65429264"
       ry="0.80279088"
       transform="rotate(-135)" /><path
       id="path1-7-1-1-4-1-0"
       style="fill:#ffffff;stroke:#000000;stroke-width:0.265;stroke-dasharray:none"
       d="m 12.378085,12.016015 c 0.04836,-0.682666 -1.102807,-0.503894 -1.310009,-0.501697 -0.207201,0.0022 -1.167629,-0.395946 -1.161959,0.463462 0.0069,1.042509 2.428414,0.653073 2.471969,0.03823 z"
       sodipodi:nodetypes="sszs" /><path
       id="path1-7-1-1-4-5-9-3"
       style="fill:#ffffff;stroke:#000000;stroke-width:0.265;stroke-dasharray:none"
       d="m 15.657028,9.737676 c 0.04836,0.682666 -1.10281,0.503895 -1.310012,0.5017 -0.2072,-0.0022 -1.167627,0.395947 -1.161959,-0.463466 0.0069,-1.042507 2.428413,-0.653086 2.471969,-0.03823 z"
       sodipodi:nodetypes="sszs" /><ellipse
       style="fill:#ffffff;fill-opacity:1;stroke:#000000;stroke-width:0.265;stroke-dasharray:none;stroke-opacity:1"
       id="path1-7-2-9-9-1-3-9-9-8-5-4"
       cx="-11.776324"
       cy="15.482578"
       rx="0.65429264"
       ry="0.80279088"
       transform="rotate(-79.27192)" /><ellipse
       style="fill:#ffffff;fill-opacity:1;stroke:#000000;stroke-width:0.265;stroke-dasharray:none;stroke-opacity:1"
       id="path1-7-2-9-9-1-3-1-6"
       cx="0.16387276"
       cy="25.305447"
       rx="0.65429264"
       ry="0.80279088"
       transform="rotate(-60)"
       inkscape:transform-center-x="-0.033262524"
       inkscape:transform-center-y="0.041438518" /></g></svg>
