<?xml version="1.0" encoding="UTF-8" standalone="no"?>
<!-- Created with Inkscape (http://www.inkscape.org/) -->

<svg
   width="35mm"
   height="35mm"
   viewBox="0 0 35 35"
   version="1.1"
   id="svg1"
   xml:space="preserve"
   inkscape:version="1.4 (e7c3feb100, 2024-10-09)"
   sodipodi:docname="q_x1.svg"
   xmlns:inkscape="http://www.inkscape.org/namespaces/inkscape"
   xmlns:sodipodi="http://sodipodi.sourceforge.net/DTD/sodipodi-0.dtd"
   xmlns="http://www.w3.org/2000/svg"
   xmlns:svg="http://www.w3.org/2000/svg"><sodipodi:namedview
     id="namedview1"
     pagecolor="#ffffff"
     bordercolor="#000000"
     borderopacity="0.25"
     inkscape:showpageshadow="2"
     inkscape:pageopacity="0.0"
     inkscape:pagecheckerboard="0"
     inkscape:deskcolor="#d1d1d1"
     inkscape:document-units="mm"
     inkscape:zoom="6.0766399"
     inkscape:cx="64.591617"
     inkscape:cy="68.294321"
     inkscape:window-width="1916"
     inkscape:window-height="1023"
     inkscape:window-x="0"
     inkscape:window-y="0"
     inkscape:window-maximized="0"
     inkscape:current-layer="layer1" /><defs
     id="defs1"><inkscape:path-effect
       effect="mirror_symmetry"
       start_point="17.297909,16.234992"
       end_point="17.313303,7.810326"
       center_point="17.305606,12.022659"
       id="path-effect5"
       is_visible="true"
       lpeversion="1.2"
       lpesatellites=""
       mode="free"
       discard_orig_path="false"
       fuse_paths="true"
       oposite_fuse="false"
       split_items="false"
       split_open="false"
       link_styles="false" /><inkscape:path-effect
       effect="mirror_symmetry"
       start_point="17.297909,16.234992"
       end_point="17.313303,7.810326"
       center_point="17.305606,12.022659"
       id="path-effect5-7"
       is_visible="true"
       lpeversion="1.2"
       lpesatellites=""
       mode="free"
       discard_orig_path="false"
       fuse_paths="true"
       oposite_fuse="false"
       split_items="false"
       split_open="false"
       link_styles="false" /><inkscape:path-effect
       effect="mirror_symmetry"
       start_point="17.297909,16.234992"
       end_point="17.313303,7.810326"
       center_point="17.305606,12.022659"
       id="path-effect5-6"
       is_visible="true"
       lpeversion="1.2"
       lpesatellites=""
       mode="free"
       discard_orig_path="false"
       fuse_paths="true"
       oposite_fuse="false"
       split_items="false"
       split_open="false"
       link_styles="false" /><inkscape:path-effect
       effect="mirror_symmetry"
       start_point="17.297909,16.234992"
       end_point="17.313303,7.810326"
       center_point="17.305606,12.022659"
       id="path-effect5-3"
       is_visible="true"
       lpeversion="1.2"
       lpesatellites=""
       mode="free"
       discard_orig_path="false"
       fuse_paths="true"
       oposite_fuse="false"
       split_items="false"
       split_open="false"
       link_styles="false" /><inkscape:path-effect
       effect="mirror_symmetry"
       start_point="17.297909,16.234992"
       end_point="17.313303,7.810326"
       center_point="17.305606,12.022659"
       id="path-effect5-66"
       is_visible="true"
       lpeversion="1.2"
       lpesatellites=""
       mode="free"
       discard_orig_path="false"
       fuse_paths="true"
       oposite_fuse="false"
       split_items="false"
       split_open="false"
       link_styles="false" /><inkscape:path-effect
       effect="mirror_symmetry"
       start_point="17.297909,16.234992"
       end_point="17.313303,7.810326"
       center_point="17.305606,12.022659"
       id="path-effect5-4"
       is_visible="true"
       lpeversion="1.2"
       lpesatellites=""
       mode="free"
       discard_orig_path="false"
       fuse_paths="true"
       oposite_fuse="false"
       split_items="false"
       split_open="false"
       link_styles="false" /><inkscape:path-effect
       effect="mirror_symmetry"
       start_point="17.297909,16.234992"
       end_point="17.313303,7.810326"
       center_point="17.305606,12.022659"
       id="path-effect5-4-7"
       is_visible="true"
       lpeversion="1.2"
       lpesatellites=""
       mode="free"
       discard_orig_path="false"
       fuse_paths="true"
       oposite_fuse="false"
       split_items="false"
       split_open="false"
       link_styles="false" /><inkscape:path-effect
       effect="mirror_symmetry"
       start_point="17.297909,16.234992"
       end_point="17.313303,7.810326"
       center_point="17.305606,12.022659"
       id="path-effect5-41"
       is_visible="true"
       lpeversion="1.2"
       lpesatellites=""
       mode="free"
       discard_orig_path="false"
       fuse_paths="true"
       oposite_fuse="false"
       split_items="false"
       split_open="false"
       link_styles="false" /><inkscape:path-effect
       effect="mirror_symmetry"
       start_point="17.297909,16.234992"
       end_point="17.313303,7.810326"
       center_point="17.305606,12.022659"
       id="path-effect5-62"
       is_visible="true"
       lpeversion="1.2"
       lpesatellites=""
       mode="free"
       discard_orig_path="false"
       fuse_paths="true"
       oposite_fuse="false"
       split_items="false"
       split_open="false"
       link_styles="false" /><inkscape:path-effect
       effect="mirror_symmetry"
       start_point="17.297909,16.234992"
       end_point="17.313303,7.810326"
       center_point="17.305606,12.022659"
       id="path-effect5-4-9"
       is_visible="true"
       lpeversion="1.2"
       lpesatellites=""
       mode="free"
       discard_orig_path="false"
       fuse_paths="true"
       oposite_fuse="false"
       split_items="false"
       split_open="false"
       link_styles="false" /><inkscape:path-effect
       effect="mirror_symmetry"
       start_point="17.493844,16.300304"
       end_point="17.509238,7.875638"
       center_point="17.501541,12.087971"
       id="path-effect5-4-0-9-72-8"
       is_visible="true"
       lpeversion="1.2"
       lpesatellites=""
       mode="free"
       discard_orig_path="false"
       fuse_paths="true"
       oposite_fuse="false"
       split_items="false"
       split_open="false"
       link_styles="false" /><inkscape:path-effect
       effect="mirror_symmetry"
       start_point="17.493844,16.300304"
       end_point="17.509238,7.875638"
       center_point="17.501541,12.087971"
       id="path-effect5-4-0-9-72-8-3"
       is_visible="true"
       lpeversion="1.2"
       lpesatellites=""
       mode="free"
       discard_orig_path="false"
       fuse_paths="true"
       oposite_fuse="false"
       split_items="false"
       split_open="false"
       link_styles="false" /><inkscape:path-effect
       effect="mirror_symmetry"
       start_point="17.493844,16.300304"
       end_point="17.509238,7.875638"
       center_point="17.501541,12.087971"
       id="path-effect5-4-0-9-72-8-3-7"
       is_visible="true"
       lpeversion="1.2"
       lpesatellites=""
       mode="free"
       discard_orig_path="false"
       fuse_paths="true"
       oposite_fuse="false"
       split_items="false"
       split_open="false"
       link_styles="false" /></defs><g
     inkscape:label="Layer 1"
     inkscape:groupmode="layer"
     id="layer1"><path
       style="fill:#999999;fill-opacity:1;stroke:none;stroke-width:0.264999;stroke-dasharray:none;stroke-opacity:1"
       d="m 27.886596,17.679388 c 0.004,0.262338 -0.0824,0.518182 -0.261719,0.507812 -1.252406,-0.07244 -3.577076,-0.08092 -4.482421,-0.509765 -0.679074,0.437864 -1.855144,1.952325 -2.847368,1.954049 -0.958877,0.0017 -1.861428,-0.887502 -2.729921,-1.540689 -0.225009,-0.169228 -0.03008,-1.13571 0.220329,-1.006995 1.105139,0.56806 2.410993,1.426355 2.410993,1.426355 0.837605,-0.737554 1.757206,-1.507644 1.611982,-2.071005 -0.376027,-0.725686 0.42832,-2.209184 0.914501,-3.11864 -0.655585,-0.289101 -1.290019,-0.843219 -2.128248,-1.335672 -0.280451,-0.0249 0.61562,-0.886537 0.865737,-0.757274 0.979883,0.506413 2.030728,1.045289 2.293518,1.707723 0.242595,0.611528 -0.319472,1.687882 -0.48676,2.131052 0.903772,-0.432152 3.099665,-0.319705 4.351799,-0.396721 0.358554,-0.02205 0.345807,1.02167 -0.01172,1.056641 -1.029811,0.100734 -2.743698,0.213416 -2.90625,0.427734 -0.09185,0.121107 -0.116149,0.211094 -0.105468,0.279297 -0.01043,0.06824 0.01512,0.16048 0.107422,0.28125 0.163333,0.213727 1.876078,0.321003 2.906249,0.417973 0.178826,0.01683 0.273373,0.284536 0.277345,0.546875 z"
       id="path4-6-5"
       sodipodi:nodetypes="ssssssscccsscscscsss" /><path
       id="path1-3-6"
       style="fill:#ff6666;fill-opacity:1;stroke:#000000;stroke-width:0.265"
       d="m 22.433367,14.779106 c -0.918208,0 -2.054432,0.744354 -2.054432,1.662562 0,0.918208 1.136225,1.662561 2.054432,1.662561 0.918207,0 1.662561,-0.744355 1.662561,-1.662561 0,-0.918207 -0.744353,-1.662562 -1.662561,-1.662562 z"
       sodipodi:nodetypes="zzzzz" /><path
       id="path1-7-1-1-6"
       style="fill:#ffffff;stroke:#000000;stroke-width:0.265;stroke-dasharray:none"
       d="m 28.034388,17.075862 c -0.207214,0 -0.738307,0.227855 -0.738307,0.588877 0,0.361023 0.541773,0.627766 0.748987,0.627766 0.207214,0 0.385876,0.07027 0.364516,-0.627766 -0.02136,-0.69804 -0.167981,-0.588877 -0.375196,-0.588877 z"
       sodipodi:nodetypes="ssszs" /><path
       id="path1-7-1-9-7-4"
       style="fill:#ffffff;stroke:#000000;stroke-width:0.265;stroke-dasharray:none"
       d="m 28.012618,14.594765 c -0.207214,0 -0.738307,0.227855 -0.738307,0.588877 0,0.361023 0.541773,0.627766 0.748987,0.627766 0.207213,0 0.385875,0.07027 0.364515,-0.627766 -0.02136,-0.69804 -0.167981,-0.588877 -0.375195,-0.588877 z"
       sodipodi:nodetypes="ssszs" /><path
       id="path1-3-0-4-0"
       style="fill:#4d4d4d;fill-opacity:1;stroke:#000000;stroke-width:0.265"
       d="m 19.052982,8.477715 c 0,0.918208 -0.744354,2.054431 -1.662562,2.054431 -0.918208,0 -1.662561,-1.136225 -1.662561,-2.054431 0,-0.918207 0.744355,-1.662561 1.662561,-1.662561 0.918207,0 1.662562,0.744353 1.662562,1.662561 z"
       sodipodi:nodetypes="zzzzz" /><path
       style="fill:#999999;fill-opacity:1;stroke:none;stroke-width:0.264999;stroke-dasharray:none;stroke-opacity:1"
       d="m 16.191406,8.9042969 c -0.292488,-0.00827 -0.617135,0.09905 -0.605468,0.3007812 0.07244,1.2524069 0.53388,2.9077329 0.300781,3.8515629 -0.460115,-0.333016 -0.660953,-0.647232 -0.904297,-1.109375 -0.323276,-0.923645 -0.431758,-1.9693484 -1.064453,-1.9531254 -0.424525,0.010885 0.01979,1.9342354 0.140625,2.3671874 0.162794,0.58329 0.70324,1.708559 1.240234,2.023438 0.411803,0.24147 1.573585,0.235512 2.197266,0.21289 0.623594,0.0249 1.788489,0.03489 2.201172,-0.205078 0.538141,-0.312914 1.081169,-1.434887 1.246093,-2.017578 0.122417,-0.432508 0.574873,-2.356704 0.150391,-2.369141 -0.632631,-0.018535 -0.745616,1.028715 -1.072266,1.951172 -0.245031,0.461251 -0.446874,0.774137 -0.908203,1.105469 -0.229648,-0.944676 0.237438,-2.597475 0.314453,-3.8496094 0.02205,-0.3585544 -1.019715,-0.4239314 -1.054687,-0.066406 -0.05036,0.5149057 -0.184378,0.6272927 -0.117188,1.1562496 -0.217322,0.452837 -0.511517,1.061298 -0.58789,1.654297 -0.05913,0.02209 -0.114606,0.02958 -0.166016,0.0293 -0.05141,9.3e-5 -0.106965,-0.0089 -0.166016,-0.03125 -0.07421,-0.593274 -0.366365,-1.200669 -0.582031,-1.654297 0.06912,-0.5287079 -0.0648,-0.6411634 -0.113281,-1.1562497 -0.01473,-0.1564722 -0.221728,-0.2338059 -0.449219,-0.2402344 z"
       id="path4-6-3-2-0-4"
       sodipodi:nodetypes="sccscccccsss"
       transform="matrix(1,0,0,-1,-0.11002288,22.009502)"
       inkscape:original-d="m 13.917482,9.9933178 c 0.632695,-0.016223 0.741215,1.0302312 1.064491,1.9538762 0.243344,0.462143 0.443838,0.775902 0.903953,1.108918 0.233099,-0.94383 -0.228297,-2.598039 -0.300736,-3.850446 -0.02074,-0.3586326 1.022151,-0.4192286 1.055816,-0.061578 0.04848,0.5150863 0.182149,0.6270618 0.113026,1.15577 0.215666,0.453628 0.5075,1.06247 0.581706,1.655744 0.335179,0.12662 0.556797,-0.171236 0.556797,-0.171236 l 0.01129,2.792474 c 0,0 -2.032093,0.143896 -2.605741,-0.192476 -0.536994,-0.314879 -1.076376,-1.438992 -1.23917,-2.022282 -0.120835,-0.432952 -0.565957,-2.357879 -0.141432,-2.3687642 z"
       inkscape:path-effect="#path-effect5-4-0-9-72-8-3" /><ellipse
       style="fill:#ffffff;fill-opacity:1;stroke:#000000;stroke-width:0.265;stroke-dasharray:none;stroke-opacity:1"
       id="path1-7-2-9-9-1-3-6"
       cx="6.6152678"
       cy="22.969318"
       rx="0.65429264"
       ry="0.80279088"
       transform="rotate(-45)" /><ellipse
       style="fill:#ffffff;fill-opacity:1;stroke:#000000;stroke-width:0.265;stroke-dasharray:none;stroke-opacity:1"
       id="path1-7-2-9-9-1-9-9-2"
       cx="-14.002184"
       cy="-11.564056"
       rx="0.65429264"
       ry="0.80279088"
       transform="scale(-1)" /><path
       id="path1-7-1-1-4-1-6"
       style="fill:#ffffff;stroke:#000000;stroke-width:0.265;stroke-dasharray:none"
       d="m 16.035733,14.583726 c 0.682667,0.04836 0.503895,-1.102807 0.501699,-1.310009 -0.0022,-0.207202 0.395949,-1.167629 -0.463464,-1.16196 -1.042508,0.0069 -0.653086,2.428412 -0.03823,2.471969 z"
       sodipodi:nodetypes="sszs" /><path
       id="path1-7-1-1-4-5-9-7"
       style="fill:#ffffff;stroke:#000000;stroke-width:0.265;stroke-dasharray:none"
       d="m 18.745107,14.583726 c -0.682667,0.04836 -0.503895,-1.102807 -0.501699,-1.310009 0.0022,-0.207202 -0.395949,-1.167629 0.463464,-1.16196 1.042508,0.0069 0.653086,2.428412 0.03823,2.471969 z"
       sodipodi:nodetypes="sszs" /><path
       style="fill:#999999;fill-opacity:1;stroke:none;stroke-width:0.264999;stroke-dasharray:none;stroke-opacity:1"
       d="m 7.113404,17.320612 c -0.004,-0.262338 0.0824,-0.518182 0.261719,-0.507812 1.252406,0.07244 3.577076,0.08092 4.482421,0.509765 0.679074,-0.437864 1.855144,-1.952325 2.847368,-1.954049 0.958877,-0.0017 1.861428,0.887502 2.729921,1.540689 0.225009,0.169228 0.03008,1.13571 -0.220329,1.006995 -1.105139,-0.56806 -2.410993,-1.426355 -2.410993,-1.426355 -0.837605,0.737554 -1.757206,1.507644 -1.611982,2.071005 0.376027,0.725686 -0.42832,2.209184 -0.914501,3.11864 0.655585,0.289101 1.290019,0.843219 2.128248,1.335672 0.280451,0.0249 -0.61562,0.886537 -0.865737,0.757274 -0.979883,-0.506413 -2.030728,-1.045289 -2.293518,-1.707723 -0.242595,-0.611528 0.319472,-1.687882 0.48676,-2.131052 -0.903772,0.432152 -3.099665,0.319705 -4.351799,0.396721 -0.358554,0.02205 -0.345807,-1.02167 0.01172,-1.056641 1.029811,-0.100734 2.743698,-0.213416 2.90625,-0.427734 C 10.390802,18.7249 10.415101,18.634913 10.40442,18.56671 10.41485,18.49847 10.3893,18.40623 10.296998,18.28546 10.133665,18.071733 8.42092,17.964457 7.390749,17.867487 7.211923,17.850657 7.117376,17.582951 7.113404,17.320612 Z"
       id="path4-6-5-5"
       sodipodi:nodetypes="ssssssscccsscscscsss" /><path
       id="path1-3-6-6"
       style="fill:#6666ff;fill-opacity:1;stroke:#000000;stroke-width:0.265"
       d="m 12.566633,20.220894 c 0.918208,0 2.054432,-0.744354 2.054432,-1.662562 0,-0.918208 -1.136225,-1.662561 -2.054432,-1.662561 -0.918207,0 -1.662561,0.744355 -1.662561,1.662561 0,0.918207 0.744353,1.662562 1.662561,1.662562 z"
       sodipodi:nodetypes="zzzzz" /><path
       id="path1-7-1-1-6-2"
       style="fill:#ffffff;stroke:#000000;stroke-width:0.265;stroke-dasharray:none"
       d="m 6.965612,17.924138 c 0.207214,0 0.738307,-0.227855 0.738307,-0.588877 0,-0.361023 -0.541773,-0.627766 -0.748987,-0.627766 -0.207214,0 -0.385876,-0.07027 -0.364516,0.627766 0.02136,0.69804 0.167981,0.588877 0.375196,0.588877 z"
       sodipodi:nodetypes="ssszs" /><path
       id="path1-7-1-9-7-4-9"
       style="fill:#ffffff;stroke:#000000;stroke-width:0.265;stroke-dasharray:none"
       d="m 6.987382,20.405235 c 0.207214,0 0.738307,-0.227855 0.738307,-0.588877 0,-0.361023 -0.541773,-0.627766 -0.748987,-0.627766 -0.207213,0 -0.385875,-0.07027 -0.364515,0.627766 0.02136,0.69804 0.167981,0.588877 0.375195,0.588877 z"
       sodipodi:nodetypes="ssszs" /><path
       id="path1-3-0-4-0-1"
       style="fill:#66ff66;fill-opacity:1;stroke:#000000;stroke-width:0.265"
       d="m 15.947018,26.522285 c 0,-0.918208 0.744354,-2.054431 1.662562,-2.054431 0.918208,0 1.662561,1.136225 1.662561,2.054431 0,0.918207 -0.744355,1.662561 -1.662561,1.662561 -0.918207,0 -1.662562,-0.744353 -1.662562,-1.662561 z"
       sodipodi:nodetypes="zzzzz" /><path
       style="fill:#999999;fill-opacity:1;stroke:none;stroke-width:0.264999;stroke-dasharray:none;stroke-opacity:1"
       d="m 16.191406,8.9042969 c -0.292488,-0.00827 -0.617135,0.09905 -0.605468,0.3007812 0.07244,1.2524069 0.53388,2.9077329 0.300781,3.8515629 -0.460115,-0.333016 -0.660953,-0.647232 -0.904297,-1.109375 -0.323276,-0.923645 -0.431758,-1.9693484 -1.064453,-1.9531254 -0.424525,0.010885 0.01979,1.9342354 0.140625,2.3671874 0.162794,0.58329 0.70324,1.708559 1.240234,2.023438 0.411803,0.24147 1.573585,0.235512 2.197266,0.21289 0.623594,0.0249 1.788489,0.03489 2.201172,-0.205078 0.538141,-0.312914 1.081169,-1.434887 1.246093,-2.017578 0.122417,-0.432508 0.574873,-2.356704 0.150391,-2.369141 -0.632631,-0.018535 -0.745616,1.028715 -1.072266,1.951172 -0.245031,0.461251 -0.446874,0.774137 -0.908203,1.105469 -0.229648,-0.944676 0.237438,-2.597475 0.314453,-3.8496094 0.02205,-0.3585544 -1.019715,-0.4239314 -1.054687,-0.066406 -0.05036,0.5149057 -0.184378,0.6272927 -0.117188,1.1562496 -0.217322,0.452837 -0.511517,1.061298 -0.58789,1.654297 -0.05913,0.02209 -0.114606,0.02958 -0.166016,0.0293 -0.05141,9.3e-5 -0.106965,-0.0089 -0.166016,-0.03125 -0.07421,-0.593274 -0.366365,-1.200669 -0.582031,-1.654297 0.06912,-0.5287079 -0.0648,-0.6411634 -0.113281,-1.1562497 -0.01473,-0.1564722 -0.221728,-0.2338059 -0.449219,-0.2402344 z"
       id="path4-6-3-2-0-4-2"
       sodipodi:nodetypes="sccscccccsss"
       transform="matrix(-1,0,0,1,35.110023,12.990498)"
       inkscape:original-d="m 13.917482,9.9933178 c 0.632695,-0.016223 0.741215,1.0302312 1.064491,1.9538762 0.243344,0.462143 0.443838,0.775902 0.903953,1.108918 0.233099,-0.94383 -0.228297,-2.598039 -0.300736,-3.850446 -0.02074,-0.3586326 1.022151,-0.4192286 1.055816,-0.061578 0.04848,0.5150863 0.182149,0.6270618 0.113026,1.15577 0.215666,0.453628 0.5075,1.06247 0.581706,1.655744 0.335179,0.12662 0.556797,-0.171236 0.556797,-0.171236 l 0.01129,2.792474 c 0,0 -2.032093,0.143896 -2.605741,-0.192476 -0.536994,-0.314879 -1.076376,-1.438992 -1.23917,-2.022282 -0.120835,-0.432952 -0.565957,-2.357879 -0.141432,-2.3687642 z"
       inkscape:path-effect="#path-effect5-4-0-9-72-8-3-7" /><ellipse
       style="fill:#ffffff;fill-opacity:1;stroke:#000000;stroke-width:0.265;stroke-dasharray:none;stroke-opacity:1"
       id="path1-7-2-9-9-1-3-6-7"
       cx="6.6152687"
       cy="-26.528156"
       rx="0.65429264"
       ry="0.80279088"
       transform="rotate(135)" /><ellipse
       style="fill:#ffffff;fill-opacity:1;stroke:#000000;stroke-width:0.265;stroke-dasharray:none;stroke-opacity:1"
       id="path1-7-2-9-9-1-9-9-2-0"
       cx="20.997816"
       cy="23.435944"
       rx="0.65429264"
       ry="0.80279088" /><path
       id="path1-7-1-1-4-1-6-9"
       style="fill:#ffffff;stroke:#000000;stroke-width:0.265;stroke-dasharray:none"
       d="m 18.964267,20.416274 c -0.682667,-0.04836 -0.503895,1.102807 -0.501699,1.310009 0.0022,0.207202 -0.395949,1.167629 0.463464,1.16196 1.042508,-0.0069 0.653086,-2.428412 0.03823,-2.471969 z"
       sodipodi:nodetypes="sszs" /><path
       id="path1-7-1-1-4-5-9-7-3"
       style="fill:#ffffff;stroke:#000000;stroke-width:0.265;stroke-dasharray:none"
       d="m 16.254893,20.416274 c 0.682667,-0.04836 0.503895,1.102807 0.501699,1.310009 -0.0022,0.207202 0.395949,1.167629 -0.463464,1.16196 -1.042508,-0.0069 -0.653086,-2.428412 -0.03823,-2.471969 z"
       sodipodi:nodetypes="sszs" /><ellipse
       style="fill:#ffffff;fill-opacity:1;stroke:#000000;stroke-width:0.265;stroke-dasharray:none;stroke-opacity:1"
       id="path1-7-2-9-9"
       cx="-17.5"
       cy="-17.5"
       rx="0.65429264"
       ry="0.80279088"
       transform="matrix(0,-1,-1,0,0,0)" /></g></svg>
